<svg xmlns="http://www.w3.org/2000/svg" width="880" height="302" viewBox="0 0 880 302">
<rect width="880" height="302" fill="#040810"/>
<rect x="0.5" y="0.5" width="879" height="301" fill="none" stroke="#E8A000" stroke-width="0.7" opacity="0.5"/>
<rect x="0" y="0" width="880" height="18" fill="#D87000"/>
<text x="16" y="14" text-anchor="start" font-family="Courier New, Courier, monospace" font-size="9" fill="#030608" font-weight="bold">BLOOMBERG</text>
<text x="88" y="14" text-anchor="start" font-family="Courier New, Courier, monospace" font-size="9" fill="#030608" >QUANT MARKET MONITOR</text>
<text x="440" y="14" text-anchor="middle" font-family="Courier New, Courier, monospace" font-size="9" fill="#030608" >EQUITY  &amp;  VOLATILITY  DASHBOARD</text>
<text x="864" y="14" text-anchor="end" font-family="Courier New, Courier, monospace" font-size="9" fill="#030608" >2026-06-26  22:29 UTC</text>
<line x1="0" y1="38" x2="880" y2="38" stroke="#E8A000" stroke-width="0.8" />
<text x="16" y="33" text-anchor="start" font-family="Courier New, Courier, monospace" font-size="9" fill="#506070" >YAN KRUZISKI  ·  VP OF INTELI RESEARCH  ·  SÃO PAULO, BR</text>
<text x="864" y="33" text-anchor="end" font-family="Courier New, Courier, monospace" font-size="9" fill="#506070" >PAGE 1/1</text>
<rect x="0" y="38" width="880" height="22" fill="#E8A000" opacity="0.14"/>
<text x="16" y="54" text-anchor="start" font-family="Courier New, Courier, monospace" font-size="9" fill="#FFA020" font-weight="bold">TICKER</text>
<text x="72" y="54" text-anchor="start" font-family="Courier New, Courier, monospace" font-size="9" fill="#FFA020" font-weight="bold">DESCRIPTION</text>
<text x="340" y="54" text-anchor="end" font-family="Courier New, Courier, monospace" font-size="9" fill="#FFA020" font-weight="bold">LAST</text>
<text x="420" y="54" text-anchor="end" font-family="Courier New, Courier, monospace" font-size="9" fill="#FFA020" font-weight="bold">%CHG</text>
<text x="500" y="54" text-anchor="end" font-family="Courier New, Courier, monospace" font-size="9" fill="#FFA020" font-weight="bold">YTD%</text>
<text x="690" y="54" text-anchor="middle" font-family="Courier New, Courier, monospace" font-size="9" fill="#FFA020" font-weight="bold">3-MONTH</text>
<line x1="0" y1="60" x2="880" y2="60" stroke="#E8A000" stroke-width="0.9" />
<rect x="0" y="60" width="880" height="32" fill="#E8A000" opacity="0.09"/>
<text x="16" y="80" text-anchor="start" font-family="Courier New, Courier, monospace" font-size="10" fill="#FFA020" font-weight="bold">^VIX</text>
<text x="72" y="80" text-anchor="start" font-family="Courier New, Courier, monospace" font-size="10" fill="#E8A000" font-weight="bold">CBOE VOLATILITY INDEX</text>
<text x="340" y="80" text-anchor="end" font-family="Courier New, Courier, monospace" font-size="11" fill="#D8E8F0" font-weight="bold">18.41</text>
<text x="420" y="80" text-anchor="end" font-family="Courier New, Courier, monospace" font-size="11" fill="#00C878" font-weight="bold">-2.59%</text>
<text x="500" y="80" text-anchor="end" font-family="Courier New, Courier, monospace" font-size="10" fill="#00C878" font-weight="bold">NORMAL</text>
<polyline points="516.0,70.0 521.4,65.0 526.9,65.6 532.3,73.1 537.8,74.1 543.2,75.0 548.6,74.6 554.1,72.4 559.5,79.0 564.9,81.2 570.4,81.5 575.8,81.7 581.2,82.7 586.7,83.0 592.1,83.3 597.6,84.0 603.0,82.0 608.4,81.2 613.9,82.0 619.3,81.4 624.8,82.3 630.2,83.2 635.6,83.5 641.1,82.1 646.5,84.8 651.9,84.7 657.4,82.8 662.8,84.1 668.2,84.1 673.7,84.5 679.1,84.4 684.6,82.7 690.0,83.3 695.4,83.4 700.9,84.3 706.3,82.7 711.8,83.5 717.2,83.2 722.6,84.0 728.1,85.0 733.5,85.1 738.9,85.2 744.4,84.6 749.8,85.6 755.2,86.4 760.7,87.0 766.1,86.0 771.6,86.4 777.0,86.0 782.4,86.9 787.9,78.3 793.3,82.0 798.8,80.6 804.2,77.3 809.6,81.2 815.1,83.7 820.5,85.8 825.9,85.5 831.4,82.6 836.8,85.5 842.2,84.3 847.7,81.2 853.1,82.4 858.6,82.0 864.0,82.7" fill="none" stroke="#00C878" stroke-width="1.5" stroke-linejoin="round" stroke-linecap="round"/>
<line x1="0" y1="92" x2="880" y2="92" stroke="#E8A000" stroke-width="0.5" />
<rect x="0" y="92" width="880" height="32" fill="#FFFFFF" opacity="0.02"/>
<text x="16" y="112" text-anchor="start" font-family="Courier New, Courier, monospace" font-size="10" fill="#FFA020" font-weight="bold">IBOV</text>
<text x="72" y="112" text-anchor="start" font-family="Courier New, Courier, monospace" font-size="10" fill="#E8A000" >IBOVESPA</text>
<text x="340" y="112" text-anchor="end" font-family="Courier New, Courier, monospace" font-size="11" fill="#D8E8F0" font-weight="bold">173,295</text>
<text x="420" y="112" text-anchor="end" font-family="Courier New, Courier, monospace" font-size="11" fill="#00C878" >+0.76%</text>
<text x="500" y="112" text-anchor="end" font-family="Courier New, Courier, monospace" font-size="11" fill="#00C878" >+7.95%</text>
<polyline points="516.0,108.5 521.6,109.4 527.2,108.7 532.8,105.1 538.5,104.8 544.1,104.7 549.7,104.6 555.3,104.5 560.9,101.7 566.5,99.6 572.1,98.0 577.7,97.5 583.4,97.0 589.0,97.7 594.6,98.3 600.2,99.1 605.8,98.8 611.4,101.2 617.0,102.3 622.6,102.7 628.3,103.6 633.9,104.3 639.5,107.1 645.1,105.2 650.7,106.5 656.3,105.6 661.9,104.9 667.5,108.2 673.2,107.5 678.8,109.1 684.4,110.3 690.0,112.6 695.6,111.7 701.2,112.5 706.8,112.7 712.5,114.7 718.1,112.4 723.7,112.2 729.3,113.3 734.9,112.4 740.5,113.0 746.1,113.6 751.7,114.1 757.4,115.0 763.0,116.2 768.6,114.7 774.2,117.5 779.8,118.5 785.4,118.7 791.0,117.9 796.6,118.8 802.3,116.7 807.9,116.9 813.5,117.5 819.1,118.0 824.7,118.9 830.3,119.0 835.9,118.8 841.5,117.5 847.2,116.8 852.8,117.4 858.4,116.3 864.0,115.4" fill="none" stroke="#00C878" stroke-width="1.5" stroke-linejoin="round" stroke-linecap="round"/>
<line x1="16" y1="124" x2="864" y2="124" stroke="#2A3A4A" stroke-width="0.3" />
<text x="16" y="144" text-anchor="start" font-family="Courier New, Courier, monospace" font-size="10" fill="#FFA020" font-weight="bold">SPY</text>
<text x="72" y="144" text-anchor="start" font-family="Courier New, Courier, monospace" font-size="10" fill="#E8A000" >S&amp;P 500</text>
<text x="340" y="144" text-anchor="end" font-family="Courier New, Courier, monospace" font-size="11" fill="#D8E8F0" font-weight="bold">728.99</text>
<text x="420" y="144" text-anchor="end" font-family="Courier New, Courier, monospace" font-size="11" fill="#FF3C3C" >-0.53%</text>
<text x="500" y="144" text-anchor="end" font-family="Courier New, Courier, monospace" font-size="11" fill="#00C878" >+7.27%</text>
<polyline points="516.0,150.6 521.6,151.0 527.2,147.8 532.8,147.0 538.5,146.9 544.1,146.4 549.7,146.3 555.3,143.4 560.9,142.7 566.5,142.8 572.1,141.7 577.7,140.2 583.4,139.3 589.0,139.0 594.6,137.5 600.2,137.8 605.8,138.6 611.4,137.3 617.0,137.8 622.6,136.9 628.3,136.7 633.9,137.3 639.5,137.3 645.1,136.1 650.7,135.7 656.3,136.2 661.9,135.2 667.5,133.4 673.2,133.8 678.8,132.8 684.4,132.5 690.0,132.7 695.6,132.0 701.2,131.0 706.8,132.5 712.5,132.6 718.1,133.5 723.7,132.2 729.3,131.9 734.9,131.4 740.5,130.5 746.1,130.6 751.7,129.9 757.4,129.5 763.0,129.2 768.6,129.0 774.2,129.9 779.8,129.4 785.4,132.8 791.0,132.5 796.6,132.9 802.3,134.9 807.9,132.8 813.5,132.1 819.1,129.8 824.7,130.6 830.3,132.2 835.9,130.9 841.5,131.3 847.2,133.2 852.8,133.2 858.4,133.0 864.0,133.9" fill="none" stroke="#FF3C3C" stroke-width="1.5" stroke-linejoin="round" stroke-linecap="round"/>
<line x1="16" y1="156" x2="864" y2="156" stroke="#2A3A4A" stroke-width="0.3" />
<rect x="0" y="156" width="880" height="32" fill="#FFFFFF" opacity="0.02"/>
<text x="16" y="176" text-anchor="start" font-family="Courier New, Courier, monospace" font-size="10" fill="#FFA020" font-weight="bold">QQQ</text>
<text x="72" y="176" text-anchor="start" font-family="Courier New, Courier, monospace" font-size="10" fill="#E8A000" >NASDAQ 100</text>
<text x="340" y="176" text-anchor="end" font-family="Courier New, Courier, monospace" font-size="11" fill="#D8E8F0" font-weight="bold">706.52</text>
<text x="420" y="176" text-anchor="end" font-family="Courier New, Courier, monospace" font-size="11" fill="#FF3C3C" >-1.20%</text>
<text x="500" y="176" text-anchor="end" font-family="Courier New, Courier, monospace" font-size="11" fill="#00C878" >+15.51%</text>
<polyline points="516.0,182.5 521.6,183.0 527.2,180.8 532.8,180.0 538.5,179.9 544.1,179.5 549.7,179.5 555.3,177.4 560.9,176.9 566.5,176.8 572.1,176.1 577.7,174.8 583.4,173.7 589.0,173.4 594.6,172.4 600.2,172.6 605.8,172.9 611.4,171.7 617.0,172.1 622.6,170.6 628.3,170.6 633.9,171.4 639.5,170.9 645.1,170.2 650.7,169.4 656.3,169.6 661.9,168.6 667.5,166.9 673.2,167.0 678.8,165.1 684.4,164.8 690.0,165.6 695.6,164.7 701.2,164.1 706.8,165.4 712.5,165.7 718.1,166.2 723.7,164.9 729.3,164.7 734.9,164.4 740.5,162.9 746.1,163.0 751.7,162.2 757.4,161.9 763.0,161.4 768.6,161.0 774.2,161.2 779.8,161.6 785.4,165.8 791.0,164.5 796.6,165.5 802.3,167.1 807.9,164.4 813.5,163.9 819.1,161.3 824.7,162.9 830.3,163.8 835.9,161.6 841.5,161.9 847.2,164.7 852.8,165.1 858.4,164.4 864.0,165.6" fill="none" stroke="#FF3C3C" stroke-width="1.5" stroke-linejoin="round" stroke-linecap="round"/>
<line x1="16" y1="188" x2="864" y2="188" stroke="#2A3A4A" stroke-width="0.3" />
<text x="16" y="208" text-anchor="start" font-family="Courier New, Courier, monospace" font-size="10" fill="#FFA020" font-weight="bold">QMOM</text>
<text x="72" y="208" text-anchor="start" font-family="Courier New, Courier, monospace" font-size="10" fill="#E8A000" >QUANT MOMENTUM</text>
<text x="340" y="208" text-anchor="end" font-family="Courier New, Courier, monospace" font-size="11" fill="#D8E8F0" font-weight="bold">76.95</text>
<text x="420" y="208" text-anchor="end" font-family="Courier New, Courier, monospace" font-size="11" fill="#FF3C3C" >-2.37%</text>
<text x="500" y="208" text-anchor="end" font-family="Courier New, Courier, monospace" font-size="11" fill="#00C878" >+15.74%</text>
<polyline points="516.0,212.3 521.6,215.0 527.2,210.1 532.8,208.3 538.5,208.5 544.1,208.3 549.7,208.1 555.3,203.8 560.9,203.2 566.5,203.1 572.1,202.2 577.7,201.4 583.4,202.1 589.0,201.9 594.6,199.9 600.2,199.8 605.8,201.0 611.4,200.1 617.0,199.7 622.6,199.7 628.3,200.0 633.9,202.3 639.5,203.3 645.1,199.3 650.7,199.6 656.3,199.4 661.9,198.1 667.5,194.7 673.2,198.5 678.8,196.9 684.4,195.3 690.0,196.2 695.6,195.3 701.2,195.1 706.8,198.6 712.5,200.2 718.1,201.4 723.7,199.3 729.3,198.7 734.9,198.4 740.5,195.4 746.1,196.1 751.7,195.2 757.4,194.6 763.0,194.8 768.6,193.0 774.2,193.4 779.8,193.7 785.4,199.2 791.0,198.5 796.6,199.7 802.3,202.0 807.9,197.6 813.5,196.3 819.1,195.6 824.7,196.7 830.3,197.3 835.9,196.7 841.5,194.7 847.2,197.5 852.8,198.4 858.4,196.7 864.0,199.1" fill="none" stroke="#FF3C3C" stroke-width="1.5" stroke-linejoin="round" stroke-linecap="round"/>
<line x1="16" y1="220" x2="864" y2="220" stroke="#2A3A4A" stroke-width="0.3" />
<rect x="0" y="220" width="880" height="32" fill="#FFFFFF" opacity="0.02"/>
<text x="16" y="240" text-anchor="start" font-family="Courier New, Courier, monospace" font-size="10" fill="#FFA020" font-weight="bold">MTUM</text>
<text x="72" y="240" text-anchor="start" font-family="Courier New, Courier, monospace" font-size="10" fill="#E8A000" >MOMENTUM FACTOR</text>
<text x="340" y="240" text-anchor="end" font-family="Courier New, Courier, monospace" font-size="11" fill="#D8E8F0" font-weight="bold">325.74</text>
<text x="420" y="240" text-anchor="end" font-family="Courier New, Courier, monospace" font-size="11" fill="#FF3C3C" >-4.57%</text>
<text x="500" y="240" text-anchor="end" font-family="Courier New, Courier, monospace" font-size="11" fill="#00C878" >+29.15%</text>
<polyline points="516.0,246.0 521.6,247.0 527.2,245.2 532.8,244.2 538.5,244.1 544.1,243.8 549.7,243.5 555.3,241.5 560.9,240.9 566.5,240.7 572.1,240.2 577.7,239.4 583.4,239.5 589.0,239.3 594.6,238.6 600.2,238.8 605.8,239.2 611.4,238.3 617.0,238.4 622.6,237.4 628.3,237.4 633.9,238.3 639.5,238.0 645.1,236.8 650.7,236.6 656.3,236.7 661.9,235.4 667.5,233.9 673.2,234.9 678.8,233.4 684.4,232.5 690.0,233.1 695.6,232.7 701.2,232.3 706.8,234.1 712.5,234.8 718.1,235.2 723.7,233.8 729.3,233.3 734.9,233.0 740.5,231.0 746.1,231.2 751.7,230.9 757.4,230.7 763.0,230.5 768.6,228.7 774.2,228.1 779.8,228.8 785.4,232.5 791.0,230.8 796.6,231.5 802.3,232.8 807.9,230.1 813.5,229.1 819.1,227.2 824.7,228.7 830.3,228.3 835.9,226.3 841.5,225.0 847.2,228.0 852.8,228.2 858.4,226.1 864.0,228.7" fill="none" stroke="#FF3C3C" stroke-width="1.5" stroke-linejoin="round" stroke-linecap="round"/>
<line x1="16" y1="252" x2="864" y2="252" stroke="#2A3A4A" stroke-width="0.3" />
<text x="16" y="272" text-anchor="start" font-family="Courier New, Courier, monospace" font-size="10" fill="#FFA020" font-weight="bold">QUAL</text>
<text x="72" y="272" text-anchor="start" font-family="Courier New, Courier, monospace" font-size="10" fill="#E8A000" >QUALITY FACTOR</text>
<text x="340" y="272" text-anchor="end" font-family="Courier New, Courier, monospace" font-size="11" fill="#D8E8F0" font-weight="bold">213.66</text>
<text x="420" y="272" text-anchor="end" font-family="Courier New, Courier, monospace" font-size="11" fill="#00C878" >+0.55%</text>
<text x="500" y="272" text-anchor="end" font-family="Courier New, Courier, monospace" font-size="11" fill="#00C878" >+7.69%</text>
<polyline points="516.0,278.5 521.6,279.0 527.2,275.5 532.8,274.8 538.5,274.6 544.1,274.0 549.7,274.4 555.3,270.7 560.9,269.9 566.5,270.4 572.1,269.2 577.7,267.8 583.4,267.1 589.0,267.1 594.6,265.4 600.2,265.6 605.8,266.4 611.4,265.3 617.0,266.1 622.6,265.1 628.3,265.2 633.9,266.1 639.5,266.2 645.1,265.2 650.7,265.3 656.3,266.0 661.9,265.0 667.5,263.3 673.2,263.7 678.8,263.1 684.4,263.0 690.0,263.1 695.6,262.7 701.2,261.8 706.8,263.1 712.5,262.8 718.1,263.7 723.7,261.9 729.3,261.6 734.9,260.5 740.5,259.5 746.1,259.9 751.7,259.5 757.4,259.7 763.0,259.4 768.6,259.5 774.2,259.6 779.8,258.5 785.4,261.3 791.0,260.8 796.6,260.6 802.3,261.8 807.9,259.5 813.5,258.8 819.1,257.0 824.7,258.0 830.3,260.2 835.9,259.2 841.5,259.2 847.2,261.1 852.8,261.0 858.4,261.0 864.0,260.7" fill="none" stroke="#00C878" stroke-width="1.5" stroke-linejoin="round" stroke-linecap="round"/>
<line x1="16" y1="284" x2="864" y2="284" stroke="#2A3A4A" stroke-width="0.3" />
<line x1="0" y1="284" x2="880" y2="284" stroke="#E8A000" stroke-width="0.4" />
<text x="16" y="297" text-anchor="start" font-family="Courier New, Courier, monospace" font-size="8" fill="#506070" >SRC: YAHOO FINANCE  ·  AUTO-UPDATE 22:00 UTC WEEKDAYS  ·  GITHUB.COM/YANKRUZISKI</text>
<text x="864" y="297" text-anchor="end" font-family="Courier New, Courier, monospace" font-size="8" fill="#506070" >2026-06-26</text>
</svg>