<svg xmlns="http://www.w3.org/2000/svg" width="880" height="302" viewBox="0 0 880 302">
<rect width="880" height="302" fill="#040810"/>
<rect x="0.5" y="0.5" width="879" height="301" fill="none" stroke="#E8A000" stroke-width="0.7" opacity="0.5"/>
<rect x="0" y="0" width="880" height="18" fill="#D87000"/>
<text x="16" y="14" text-anchor="start" font-family="Courier New, Courier, monospace" font-size="9" fill="#030608" font-weight="bold">BLOOMBERG</text>
<text x="88" y="14" text-anchor="start" font-family="Courier New, Courier, monospace" font-size="9" fill="#030608" >QUANT MARKET MONITOR</text>
<text x="440" y="14" text-anchor="middle" font-family="Courier New, Courier, monospace" font-size="9" fill="#030608" >EQUITY  &amp;  VOLATILITY  DASHBOARD</text>
<text x="864" y="14" text-anchor="end" font-family="Courier New, Courier, monospace" font-size="9" fill="#030608" >2026-07-16  22:22 UTC</text>
<line x1="0" y1="38" x2="880" y2="38" stroke="#E8A000" stroke-width="0.8" />
<text x="16" y="33" text-anchor="start" font-family="Courier New, Courier, monospace" font-size="9" fill="#506070" >YAN KRUZISKI  ·  VP OF INTELI RESEARCH  ·  SÃO PAULO, BR</text>
<text x="864" y="33" text-anchor="end" font-family="Courier New, Courier, monospace" font-size="9" fill="#506070" >PAGE 1/1</text>
<rect x="0" y="38" width="880" height="22" fill="#E8A000" opacity="0.14"/>
<text x="16" y="54" text-anchor="start" font-family="Courier New, Courier, monospace" font-size="9" fill="#FFA020" font-weight="bold">TICKER</text>
<text x="72" y="54" text-anchor="start" font-family="Courier New, Courier, monospace" font-size="9" fill="#FFA020" font-weight="bold">DESCRIPTION</text>
<text x="340" y="54" text-anchor="end" font-family="Courier New, Courier, monospace" font-size="9" fill="#FFA020" font-weight="bold">LAST</text>
<text x="420" y="54" text-anchor="end" font-family="Courier New, Courier, monospace" font-size="9" fill="#FFA020" font-weight="bold">%CHG</text>
<text x="500" y="54" text-anchor="end" font-family="Courier New, Courier, monospace" font-size="9" fill="#FFA020" font-weight="bold">YTD%</text>
<text x="690" y="54" text-anchor="middle" font-family="Courier New, Courier, monospace" font-size="9" fill="#FFA020" font-weight="bold">3-MONTH</text>
<line x1="0" y1="60" x2="880" y2="60" stroke="#E8A000" stroke-width="0.9" />
<rect x="0" y="60" width="880" height="32" fill="#E8A000" opacity="0.09"/>
<text x="16" y="80" text-anchor="start" font-family="Courier New, Courier, monospace" font-size="10" fill="#FFA020" font-weight="bold">^VIX</text>
<text x="72" y="80" text-anchor="start" font-family="Courier New, Courier, monospace" font-size="10" fill="#E8A000" font-weight="bold">CBOE VOLATILITY INDEX</text>
<text x="340" y="80" text-anchor="end" font-family="Courier New, Courier, monospace" font-size="11" fill="#D8E8F0" font-weight="bold">16.73</text>
<text x="420" y="80" text-anchor="end" font-family="Courier New, Courier, monospace" font-size="11" fill="#FF3C3C" font-weight="bold">+6.76%</text>
<text x="500" y="80" text-anchor="end" font-family="Courier New, Courier, monospace" font-size="10" fill="#FF3C3C" font-weight="bold">NORMAL</text>
<polyline points="516.0,78.1 521.5,79.5 527.0,75.3 532.6,73.3 538.1,75.1 543.6,73.9 549.1,75.7 554.7,77.9 560.2,78.4 565.7,75.4 571.2,81.3 576.8,81.0 582.3,77.0 587.8,79.8 593.3,79.8 598.9,80.7 604.4,80.4 609.9,76.7 615.4,77.9 621.0,78.3 626.5,80.2 632.0,76.6 637.5,78.5 643.0,77.7 648.6,79.6 654.1,81.7 659.6,81.9 665.1,82.2 670.7,80.9 676.2,83.1 681.7,84.8 687.2,86.1 692.8,83.9 698.3,84.7 703.8,83.8 709.3,85.9 714.9,67.2 720.4,75.1 725.9,72.2 731.4,65.0 737.0,73.5 742.5,78.9 748.0,83.4 753.5,82.8 759.0,76.6 764.6,82.8 770.1,80.1 775.6,73.4 781.1,76.0 786.7,75.2 792.2,76.7 797.7,79.0 803.2,82.7 808.8,82.2 814.3,83.6 819.8,85.3 825.3,83.6 830.9,81.3 836.4,84.5 841.9,87.0 847.4,80.5 853.0,82.5 858.5,85.0 864.0,81.8" fill="none" stroke="#FF3C3C" stroke-width="1.5" stroke-linejoin="round" stroke-linecap="round"/>
<line x1="0" y1="92" x2="880" y2="92" stroke="#E8A000" stroke-width="0.5" />
<rect x="0" y="92" width="880" height="32" fill="#FFFFFF" opacity="0.02"/>
<text x="16" y="112" text-anchor="start" font-family="Courier New, Courier, monospace" font-size="10" fill="#FFA020" font-weight="bold">IBOV</text>
<text x="72" y="112" text-anchor="start" font-family="Courier New, Courier, monospace" font-size="10" fill="#E8A000" >IBOVESPA</text>
<text x="340" y="112" text-anchor="end" font-family="Courier New, Courier, monospace" font-size="11" fill="#D8E8F0" font-weight="bold">173,825</text>
<text x="420" y="112" text-anchor="end" font-family="Courier New, Courier, monospace" font-size="11" fill="#FF3C3C" >-1.24%</text>
<text x="500" y="112" text-anchor="end" font-family="Courier New, Courier, monospace" font-size="11" fill="#00C878" >+8.28%</text>
<polyline points="516.0,97.0 521.6,97.8 527.2,97.5 532.8,100.0 538.5,101.2 544.1,101.7 549.7,102.6 555.3,103.3 560.9,106.3 566.5,104.3 572.1,105.6 577.7,104.8 583.4,104.0 589.0,107.5 594.6,106.8 600.2,108.5 605.8,109.7 611.4,112.2 617.0,111.2 622.6,112.1 628.3,112.3 633.9,114.4 639.5,112.0 645.1,111.8 650.7,112.9 656.3,112.0 661.9,112.6 667.5,113.2 673.2,113.8 678.8,114.8 684.4,116.0 690.0,114.4 695.6,117.4 701.2,118.4 706.8,118.7 712.5,117.8 718.1,118.7 723.7,116.5 729.3,116.8 734.9,117.4 740.5,117.9 746.1,118.9 751.7,119.0 757.4,118.8 763.0,117.4 768.6,116.7 774.2,117.3 779.8,116.1 785.4,115.1 791.0,115.2 796.6,116.1 802.3,116.4 807.9,115.5 813.5,114.4 819.1,115.8 824.7,116.1 830.3,117.2 835.9,115.6 841.5,111.6 847.2,113.2 852.8,112.6 858.4,113.0 864.0,114.7" fill="none" stroke="#FF3C3C" stroke-width="1.5" stroke-linejoin="round" stroke-linecap="round"/>
<line x1="16" y1="124" x2="864" y2="124" stroke="#2A3A4A" stroke-width="0.3" />
<text x="16" y="144" text-anchor="start" font-family="Courier New, Courier, monospace" font-size="10" fill="#FFA020" font-weight="bold">SPY</text>
<text x="72" y="144" text-anchor="start" font-family="Courier New, Courier, monospace" font-size="10" fill="#E8A000" >S&amp;P 500</text>
<text x="340" y="144" text-anchor="end" font-family="Courier New, Courier, monospace" font-size="11" fill="#D8E8F0" font-weight="bold">750.72</text>
<text x="420" y="144" text-anchor="end" font-family="Courier New, Courier, monospace" font-size="11" fill="#FF3C3C" >-0.52%</text>
<text x="500" y="144" text-anchor="end" font-family="Courier New, Courier, monospace" font-size="11" fill="#00C878" >+10.47%</text>
<polyline points="516.0,148.6 521.7,149.2 527.4,151.0 533.1,148.2 538.8,149.3 544.5,147.1 550.2,146.6 555.9,148.0 561.6,148.0 567.3,145.2 573.0,144.4 578.8,145.5 584.5,143.2 590.2,139.2 595.9,140.1 601.6,137.7 607.3,137.0 613.0,137.5 618.7,135.8 624.4,133.5 630.1,137.1 635.8,137.3 641.5,139.2 647.2,136.3 652.9,135.7 658.6,134.5 664.3,132.6 670.0,132.6 675.7,131.0 681.4,130.2 687.1,129.4 692.9,129.0 698.6,131.1 704.3,130.0 710.0,137.7 715.7,137.1 721.4,137.9 727.1,142.5 732.8,137.6 738.5,136.1 744.2,130.9 749.9,132.7 755.6,136.4 761.3,133.3 767.0,134.3 772.7,138.6 778.4,138.7 784.1,138.3 789.8,140.4 795.5,135.6 801.2,133.3 807.0,133.7 812.7,134.1 818.4,131.5 824.1,132.9 829.8,133.9 835.5,131.3 841.2,130.1 846.9,132.4 852.6,131.3 858.3,130.1 864.0,131.7" fill="none" stroke="#FF3C3C" stroke-width="1.5" stroke-linejoin="round" stroke-linecap="round"/>
<line x1="16" y1="156" x2="864" y2="156" stroke="#2A3A4A" stroke-width="0.3" />
<rect x="0" y="156" width="880" height="32" fill="#FFFFFF" opacity="0.02"/>
<text x="16" y="176" text-anchor="start" font-family="Courier New, Courier, monospace" font-size="10" fill="#FFA020" font-weight="bold">QQQ</text>
<text x="72" y="176" text-anchor="start" font-family="Courier New, Courier, monospace" font-size="10" fill="#E8A000" >NASDAQ 100</text>
<text x="340" y="176" text-anchor="end" font-family="Courier New, Courier, monospace" font-size="11" fill="#D8E8F0" font-weight="bold">705.94</text>
<text x="420" y="176" text-anchor="end" font-family="Courier New, Courier, monospace" font-size="11" fill="#FF3C3C" >-1.60%</text>
<text x="500" y="176" text-anchor="end" font-family="Courier New, Courier, monospace" font-size="11" fill="#00C878" >+15.41%</text>
<polyline points="516.0,182.0 521.7,182.5 527.4,183.0 533.1,180.7 538.8,181.5 544.5,178.8 550.2,178.7 555.9,180.1 561.6,179.3 567.3,177.9 573.0,176.6 578.8,176.8 584.5,174.9 590.2,171.9 595.9,172.1 601.6,168.5 607.3,168.1 613.0,169.4 618.7,167.8 624.4,166.7 630.1,169.0 635.8,169.7 641.5,170.6 647.2,168.1 652.9,167.8 658.6,167.2 664.3,164.4 670.0,164.6 675.7,163.3 681.4,162.7 687.1,161.7 692.9,161.0 698.6,161.4 704.3,162.2 710.0,169.9 715.7,167.5 721.4,169.3 727.1,172.3 732.8,167.3 738.5,166.4 744.2,161.5 749.9,164.5 755.6,166.1 761.3,162.2 767.0,162.6 772.7,167.9 778.4,168.5 784.1,167.3 789.8,169.4 795.5,165.6 801.2,162.9 807.0,165.4 812.7,168.1 818.4,165.9 824.1,168.8 829.8,168.3 835.5,165.8 841.2,165.3 846.9,168.3 852.6,166.5 858.3,167.0 864.0,169.5" fill="none" stroke="#FF3C3C" stroke-width="1.5" stroke-linejoin="round" stroke-linecap="round"/>
<line x1="16" y1="188" x2="864" y2="188" stroke="#2A3A4A" stroke-width="0.3" />
<text x="16" y="208" text-anchor="start" font-family="Courier New, Courier, monospace" font-size="10" fill="#FFA020" font-weight="bold">QMOM</text>
<text x="72" y="208" text-anchor="start" font-family="Courier New, Courier, monospace" font-size="10" fill="#E8A000" >QUANT MOMENTUM</text>
<text x="340" y="208" text-anchor="end" font-family="Courier New, Courier, monospace" font-size="11" fill="#D8E8F0" font-weight="bold">73.61</text>
<text x="420" y="208" text-anchor="end" font-family="Courier New, Courier, monospace" font-size="11" fill="#FF3C3C" >-2.16%</text>
<text x="500" y="208" text-anchor="end" font-family="Courier New, Courier, monospace" font-size="11" fill="#00C878" >+10.72%</text>
<polyline points="516.0,207.7 521.7,207.5 527.4,210.1 533.1,208.2 538.8,207.4 544.5,207.3 550.2,208.0 555.9,212.9 561.6,215.0 567.3,206.5 573.0,207.1 578.8,206.6 584.5,203.8 590.2,196.6 595.9,204.6 601.6,201.2 607.3,197.8 613.0,199.8 618.7,197.9 624.4,197.5 630.1,204.9 635.8,208.3 641.5,210.8 647.2,206.5 652.9,205.1 658.6,204.4 664.3,198.1 670.0,199.6 675.7,197.7 681.4,196.4 687.1,196.9 692.9,193.0 698.6,193.8 704.3,194.5 710.0,206.2 715.7,204.8 721.4,207.2 727.1,212.2 732.8,202.8 738.5,200.0 744.2,198.5 749.9,200.8 755.6,202.2 761.3,200.8 767.0,196.6 772.7,202.5 778.4,204.5 784.1,200.8 789.8,205.9 795.5,202.7 801.2,201.1 807.0,204.8 812.7,208.9 818.4,207.1 824.1,209.9 829.8,207.3 835.5,206.2 841.2,208.4 846.9,211.2 852.6,208.1 858.3,210.6 864.0,215.0" fill="none" stroke="#FF3C3C" stroke-width="1.5" stroke-linejoin="round" stroke-linecap="round"/>
<line x1="16" y1="220" x2="864" y2="220" stroke="#2A3A4A" stroke-width="0.3" />
<rect x="0" y="220" width="880" height="32" fill="#FFFFFF" opacity="0.02"/>
<text x="16" y="240" text-anchor="start" font-family="Courier New, Courier, monospace" font-size="10" fill="#FFA020" font-weight="bold">MTUM</text>
<text x="72" y="240" text-anchor="start" font-family="Courier New, Courier, monospace" font-size="10" fill="#E8A000" >MOMENTUM FACTOR</text>
<text x="340" y="240" text-anchor="end" font-family="Courier New, Courier, monospace" font-size="11" fill="#D8E8F0" font-weight="bold">303.41</text>
<text x="420" y="240" text-anchor="end" font-family="Courier New, Courier, monospace" font-size="11" fill="#FF3C3C" >-3.26%</text>
<text x="500" y="240" text-anchor="end" font-family="Courier New, Courier, monospace" font-size="11" fill="#00C878" >+20.29%</text>
<polyline points="516.0,246.1 521.7,246.4 527.4,247.0 533.1,245.7 538.8,245.7 544.5,244.2 550.2,244.3 555.9,245.6 561.6,245.2 567.3,243.3 573.0,243.0 578.8,243.2 584.5,241.2 590.2,238.8 595.9,240.4 601.6,238.0 607.3,236.6 613.0,237.6 618.7,236.9 624.4,236.4 630.1,239.1 635.8,240.2 641.5,240.8 647.2,238.7 652.9,237.9 658.6,237.5 664.3,234.4 670.0,234.6 675.7,234.2 681.4,233.9 687.1,233.5 692.9,230.8 698.6,229.8 704.3,230.9 710.0,236.6 715.7,234.1 721.4,235.1 727.1,237.1 732.8,232.9 738.5,231.3 744.2,228.4 749.9,230.7 755.6,230.0 761.3,227.0 767.0,225.0 772.7,229.6 778.4,230.0 784.1,226.8 789.8,230.8 795.5,227.7 801.2,225.7 807.0,230.1 812.7,233.5 818.4,232.0 824.1,234.8 829.8,234.0 835.5,232.1 841.2,232.0 846.9,234.1 852.6,232.6 858.3,234.7 864.0,237.4" fill="none" stroke="#FF3C3C" stroke-width="1.5" stroke-linejoin="round" stroke-linecap="round"/>
<line x1="16" y1="252" x2="864" y2="252" stroke="#2A3A4A" stroke-width="0.3" />
<text x="16" y="272" text-anchor="start" font-family="Courier New, Courier, monospace" font-size="10" fill="#FFA020" font-weight="bold">QUAL</text>
<text x="72" y="272" text-anchor="start" font-family="Courier New, Courier, monospace" font-size="10" fill="#E8A000" >QUALITY FACTOR</text>
<text x="340" y="272" text-anchor="end" font-family="Courier New, Courier, monospace" font-size="11" fill="#D8E8F0" font-weight="bold">220.66</text>
<text x="420" y="272" text-anchor="end" font-family="Courier New, Courier, monospace" font-size="11" fill="#00C878" >+0.84%</text>
<text x="500" y="272" text-anchor="end" font-family="Courier New, Courier, monospace" font-size="11" fill="#00C878" >+11.21%</text>
<polyline points="516.0,276.9 521.7,277.4 527.4,279.0 533.1,276.6 538.8,278.4 544.5,276.3 550.2,276.6 555.9,278.4 561.6,278.6 567.3,276.5 573.0,276.6 578.8,278.1 584.5,276.1 590.2,272.5 595.9,273.4 601.6,272.0 607.3,271.8 613.0,272.0 618.7,271.2 624.4,269.3 630.1,272.0 635.8,271.3 641.5,273.2 647.2,269.4 652.9,268.7 658.6,266.4 664.3,264.4 670.0,265.2 675.7,264.3 681.4,264.8 687.1,264.2 692.9,264.4 698.6,264.7 704.3,262.3 710.0,268.2 715.7,267.2 721.4,266.8 727.1,269.3 732.8,264.3 738.5,262.8 744.2,259.1 749.9,261.1 755.6,265.8 761.3,263.7 767.0,263.8 772.7,267.8 778.4,267.6 784.1,267.5 789.8,266.9 795.5,261.8 801.2,258.7 807.0,259.5 812.7,260.2 818.4,260.1 824.1,261.1 829.8,262.3 835.5,260.1 841.2,258.4 846.9,259.8 852.6,259.0 858.3,258.2 864.0,257.0" fill="none" stroke="#00C878" stroke-width="1.5" stroke-linejoin="round" stroke-linecap="round"/>
<line x1="16" y1="284" x2="864" y2="284" stroke="#2A3A4A" stroke-width="0.3" />
<line x1="0" y1="284" x2="880" y2="284" stroke="#E8A000" stroke-width="0.4" />
<text x="16" y="297" text-anchor="start" font-family="Courier New, Courier, monospace" font-size="8" fill="#506070" >SRC: YAHOO FINANCE  ·  AUTO-UPDATE 22:00 UTC WEEKDAYS  ·  GITHUB.COM/YANKRUZISKI</text>
<text x="864" y="297" text-anchor="end" font-family="Courier New, Courier, monospace" font-size="8" fill="#506070" >2026-07-16</text>
</svg>