<svg xmlns="http://www.w3.org/2000/svg" width="880" height="302" viewBox="0 0 880 302">
<rect width="880" height="302" fill="#040810"/>
<rect x="0.5" y="0.5" width="879" height="301" fill="none" stroke="#E8A000" stroke-width="0.7" opacity="0.5"/>
<rect x="0" y="0" width="880" height="18" fill="#D87000"/>
<text x="16" y="14" text-anchor="start" font-family="Courier New, Courier, monospace" font-size="9" fill="#030608" font-weight="bold">BLOOMBERG</text>
<text x="88" y="14" text-anchor="start" font-family="Courier New, Courier, monospace" font-size="9" fill="#030608" >QUANT MARKET MONITOR</text>
<text x="440" y="14" text-anchor="middle" font-family="Courier New, Courier, monospace" font-size="9" fill="#030608" >EQUITY  &amp;  VOLATILITY  DASHBOARD</text>
<text x="864" y="14" text-anchor="end" font-family="Courier New, Courier, monospace" font-size="9" fill="#030608" >2026-05-27  22:35 UTC</text>
<line x1="0" y1="38" x2="880" y2="38" stroke="#E8A000" stroke-width="0.8" />
<text x="16" y="33" text-anchor="start" font-family="Courier New, Courier, monospace" font-size="9" fill="#506070" >YAN KRUZISKI  ·  VP OF INTELI RESEARCH  ·  SÃO PAULO, BR</text>
<text x="864" y="33" text-anchor="end" font-family="Courier New, Courier, monospace" font-size="9" fill="#506070" >PAGE 1/1</text>
<rect x="0" y="38" width="880" height="22" fill="#E8A000" opacity="0.14"/>
<text x="16" y="54" text-anchor="start" font-family="Courier New, Courier, monospace" font-size="9" fill="#FFA020" font-weight="bold">TICKER</text>
<text x="72" y="54" text-anchor="start" font-family="Courier New, Courier, monospace" font-size="9" fill="#FFA020" font-weight="bold">DESCRIPTION</text>
<text x="340" y="54" text-anchor="end" font-family="Courier New, Courier, monospace" font-size="9" fill="#FFA020" font-weight="bold">LAST</text>
<text x="420" y="54" text-anchor="end" font-family="Courier New, Courier, monospace" font-size="9" fill="#FFA020" font-weight="bold">%CHG</text>
<text x="500" y="54" text-anchor="end" font-family="Courier New, Courier, monospace" font-size="9" fill="#FFA020" font-weight="bold">YTD%</text>
<text x="690" y="54" text-anchor="middle" font-family="Courier New, Courier, monospace" font-size="9" fill="#FFA020" font-weight="bold">3-MONTH</text>
<line x1="0" y1="60" x2="880" y2="60" stroke="#E8A000" stroke-width="0.9" />
<rect x="0" y="60" width="880" height="32" fill="#E8A000" opacity="0.09"/>
<text x="16" y="80" text-anchor="start" font-family="Courier New, Courier, monospace" font-size="10" fill="#FFA020" font-weight="bold">^VIX</text>
<text x="72" y="80" text-anchor="start" font-family="Courier New, Courier, monospace" font-size="10" fill="#E8A000" font-weight="bold">CBOE VOLATILITY INDEX</text>
<text x="340" y="80" text-anchor="end" font-family="Courier New, Courier, monospace" font-size="11" fill="#D8E8F0" font-weight="bold">16.29</text>
<text x="420" y="80" text-anchor="end" font-family="Courier New, Courier, monospace" font-size="11" fill="#00C878" font-weight="bold">-4.23%</text>
<text x="500" y="80" text-anchor="end" font-family="Courier New, Courier, monospace" font-size="10" fill="#00C878" font-weight="bold">NORMAL</text>
<polyline points="516.0,81.7 521.6,79.3 527.2,76.1 532.8,79.8 538.5,75.9 544.1,67.3 549.7,73.3 555.3,74.1 560.9,75.2 566.5,70.6 572.1,70.8 577.7,76.2 583.4,77.9 589.0,73.9 594.6,75.4 600.2,71.4 605.8,72.3 611.4,71.1 617.0,73.5 622.6,70.4 628.3,65.0 633.9,65.7 639.5,73.6 645.1,74.7 650.7,75.7 656.3,75.3 661.9,72.9 667.5,79.9 673.2,82.2 678.8,82.6 684.4,82.8 690.0,83.9 695.6,84.2 701.2,84.5 706.8,85.2 712.5,83.2 718.1,82.2 723.7,83.1 729.3,82.5 734.9,83.4 740.5,84.4 746.1,84.7 751.7,83.2 757.4,86.1 763.0,86.0 768.6,84.0 774.2,85.4 779.8,85.4 785.4,85.8 791.0,85.7 796.6,83.9 802.3,84.5 807.9,84.6 813.5,85.6 819.1,83.8 824.7,84.7 830.3,84.4 835.9,85.3 841.5,86.3 847.2,86.4 852.8,86.6 858.4,85.9 864.0,87.0" fill="none" stroke="#00C878" stroke-width="1.5" stroke-linejoin="round" stroke-linecap="round"/>
<line x1="0" y1="92" x2="880" y2="92" stroke="#E8A000" stroke-width="0.5" />
<rect x="0" y="92" width="880" height="32" fill="#FFFFFF" opacity="0.02"/>
<text x="16" y="112" text-anchor="start" font-family="Courier New, Courier, monospace" font-size="10" fill="#FFA020" font-weight="bold">IBOV</text>
<text x="72" y="112" text-anchor="start" font-family="Courier New, Courier, monospace" font-size="10" fill="#E8A000" >IBOVESPA</text>
<text x="340" y="112" text-anchor="end" font-family="Courier New, Courier, monospace" font-size="11" fill="#D8E8F0" font-weight="bold">175,744</text>
<text x="420" y="112" text-anchor="end" font-family="Courier New, Courier, monospace" font-size="11" fill="#FF3C3C" >-0.48%</text>
<text x="500" y="112" text-anchor="end" font-family="Courier New, Courier, monospace" font-size="11" fill="#00C878" >+9.47%</text>
<polyline points="516.0,105.9 521.8,105.4 527.6,111.0 533.4,109.0 539.2,113.4 545.0,114.4 550.8,113.0 556.6,110.7 562.4,110.3 568.2,114.5 574.0,116.0 579.8,113.9 585.6,113.5 591.4,114.2 597.2,113.6 603.0,117.2 608.8,112.1 614.6,111.6 620.4,108.9 626.2,111.4 632.0,112.4 637.8,111.6 643.6,107.1 649.4,106.7 655.2,106.6 661.0,106.5 666.8,106.4 672.6,102.8 678.4,100.2 684.2,98.2 690.0,97.6 695.8,97.0 701.6,97.8 707.4,98.7 713.2,99.6 719.0,99.3 724.8,102.2 730.6,103.6 736.4,104.1 742.2,105.2 748.0,106.1 753.8,109.6 759.6,107.2 765.4,108.8 771.2,107.7 777.0,106.9 782.8,110.9 788.6,110.1 794.4,112.1 800.2,113.5 806.0,116.5 811.8,115.3 817.6,116.3 823.4,116.6 829.2,119.0 835.0,116.2 840.8,116.0 846.6,117.3 852.4,116.2 858.2,116.9 864.0,117.7" fill="none" stroke="#FF3C3C" stroke-width="1.5" stroke-linejoin="round" stroke-linecap="round"/>
<line x1="16" y1="124" x2="864" y2="124" stroke="#2A3A4A" stroke-width="0.3" />
<text x="16" y="144" text-anchor="start" font-family="Courier New, Courier, monospace" font-size="10" fill="#FFA020" font-weight="bold">SPY</text>
<text x="72" y="144" text-anchor="start" font-family="Courier New, Courier, monospace" font-size="10" fill="#E8A000" >S&P 500</text>
<text x="340" y="144" text-anchor="end" font-family="Courier New, Courier, monospace" font-size="11" fill="#D8E8F0" font-weight="bold">750.46</text>
<text x="420" y="144" text-anchor="end" font-family="Courier New, Courier, monospace" font-size="11" fill="#FF3C3C" >-0.06%</text>
<text x="500" y="144" text-anchor="end" font-family="Courier New, Courier, monospace" font-size="11" fill="#00C878" >+10.15%</text>
<polyline points="516.0,141.3 521.8,142.4 527.6,141.5 533.4,142.2 539.2,143.8 545.0,142.8 550.8,143.0 556.6,143.1 562.4,145.0 568.2,145.7 574.0,144.5 579.8,144.1 585.6,145.9 591.4,146.2 597.2,147.9 603.0,146.7 608.8,147.1 614.6,146.4 620.4,148.6 626.2,150.6 632.0,151.0 637.8,147.6 643.6,146.7 649.4,146.6 655.2,146.0 661.0,145.9 666.8,142.8 672.6,142.1 678.4,142.2 684.2,141.0 690.0,139.4 695.8,138.4 701.6,138.1 707.4,136.5 713.2,136.8 719.0,137.6 724.8,136.3 730.6,136.8 736.4,135.8 742.2,135.6 748.0,136.2 753.8,136.2 759.6,134.9 765.4,134.6 771.2,135.0 777.0,134.0 782.8,132.1 788.6,132.5 794.4,131.4 800.2,131.1 806.0,131.3 811.8,130.5 817.6,129.4 823.4,131.1 829.2,131.2 835.0,132.1 840.8,130.7 846.6,130.5 852.4,129.9 858.2,129.0 864.0,129.0" fill="none" stroke="#FF3C3C" stroke-width="1.5" stroke-linejoin="round" stroke-linecap="round"/>
<line x1="16" y1="156" x2="864" y2="156" stroke="#2A3A4A" stroke-width="0.3" />
<rect x="0" y="156" width="880" height="32" fill="#FFFFFF" opacity="0.02"/>
<text x="16" y="176" text-anchor="start" font-family="Courier New, Courier, monospace" font-size="10" fill="#FFA020" font-weight="bold">QQQ</text>
<text x="72" y="176" text-anchor="start" font-family="Courier New, Courier, monospace" font-size="10" fill="#E8A000" >NASDAQ 100</text>
<text x="340" y="176" text-anchor="end" font-family="Courier New, Courier, monospace" font-size="11" fill="#D8E8F0" font-weight="bold">729.45</text>
<text x="420" y="176" text-anchor="end" font-family="Courier New, Courier, monospace" font-size="11" fill="#FF3C3C" >-0.16%</text>
<text x="500" y="176" text-anchor="end" font-family="Courier New, Courier, monospace" font-size="11" fill="#00C878" >+19.12%</text>
<polyline points="516.0,176.7 521.8,177.6 527.6,176.4 533.4,176.6 539.2,177.8 545.0,176.8 550.8,176.8 556.6,176.8 562.4,178.1 568.2,178.6 574.0,177.7 579.8,177.3 585.6,178.4 591.4,178.7 597.2,180.1 603.0,179.2 608.8,179.7 614.6,179.2 620.4,181.0 626.2,182.5 632.0,183.0 637.8,180.6 643.6,179.7 649.4,179.6 655.2,179.1 661.0,179.1 666.8,176.9 672.6,176.4 678.4,176.2 684.2,175.4 690.0,174.0 695.8,172.9 701.6,172.5 707.4,171.4 713.2,171.7 719.0,172.0 724.8,170.6 730.6,171.1 736.4,169.5 742.2,169.4 748.0,170.3 753.8,169.8 759.6,169.0 765.4,168.2 771.2,168.3 777.0,167.2 782.8,165.4 788.6,165.5 794.4,163.4 800.2,163.2 806.0,163.9 811.8,163.0 817.6,162.3 823.4,163.7 829.2,164.1 835.0,164.7 840.8,163.2 846.6,163.0 852.4,162.6 858.2,161.0 864.0,161.1" fill="none" stroke="#FF3C3C" stroke-width="1.5" stroke-linejoin="round" stroke-linecap="round"/>
<line x1="16" y1="188" x2="864" y2="188" stroke="#2A3A4A" stroke-width="0.3" />
<text x="16" y="208" text-anchor="start" font-family="Courier New, Courier, monospace" font-size="10" fill="#FFA020" font-weight="bold">QMOM</text>
<text x="72" y="208" text-anchor="start" font-family="Courier New, Courier, monospace" font-size="10" fill="#E8A000" >QUANT MOMENTUM</text>
<text x="340" y="208" text-anchor="end" font-family="Courier New, Courier, monospace" font-size="11" fill="#D8E8F0" font-weight="bold">79.28</text>
<text x="420" y="208" text-anchor="end" font-family="Courier New, Courier, monospace" font-size="11" fill="#FF3C3C" >-0.65%</text>
<text x="500" y="208" text-anchor="end" font-family="Courier New, Courier, monospace" font-size="11" fill="#00C878" >+19.24%</text>
<polyline points="516.0,202.0 521.8,206.0 527.6,205.2 533.4,208.1 539.2,210.3 545.0,207.6 550.8,206.9 556.6,207.7 562.4,209.9 568.2,211.6 574.0,209.3 579.8,208.5 585.6,209.6 591.4,209.3 597.2,212.6 603.0,210.4 608.8,209.0 614.6,207.6 620.4,211.4 626.2,212.0 632.0,215.0 637.8,209.7 643.6,207.7 649.4,208.0 655.2,207.7 661.0,207.5 666.8,202.9 672.6,202.3 678.4,202.1 684.2,201.1 690.0,200.2 695.8,201.1 701.6,200.8 707.4,198.6 713.2,198.5 719.0,199.9 724.8,198.9 730.6,198.5 736.4,198.4 742.2,198.8 748.0,201.3 753.8,202.3 759.6,198.0 765.4,198.3 771.2,198.1 777.0,196.6 782.8,193.0 788.6,197.1 794.4,195.3 800.2,193.6 806.0,194.6 811.8,193.7 817.6,193.5 823.4,197.2 829.2,198.9 835.0,200.2 840.8,198.0 846.6,197.3 852.4,197.0 858.2,193.8 864.0,194.5" fill="none" stroke="#FF3C3C" stroke-width="1.5" stroke-linejoin="round" stroke-linecap="round"/>
<line x1="16" y1="220" x2="864" y2="220" stroke="#2A3A4A" stroke-width="0.3" />
<rect x="0" y="220" width="880" height="32" fill="#FFFFFF" opacity="0.02"/>
<text x="16" y="240" text-anchor="start" font-family="Courier New, Courier, monospace" font-size="10" fill="#FFA020" font-weight="bold">MTUM</text>
<text x="72" y="240" text-anchor="start" font-family="Courier New, Courier, monospace" font-size="10" fill="#E8A000" >MOMENTUM FACTOR</text>
<text x="340" y="240" text-anchor="end" font-family="Courier New, Courier, monospace" font-size="11" fill="#D8E8F0" font-weight="bold">313.33</text>
<text x="420" y="240" text-anchor="end" font-family="Courier New, Courier, monospace" font-size="11" fill="#FF3C3C" >-0.72%</text>
<text x="500" y="240" text-anchor="end" font-family="Courier New, Courier, monospace" font-size="11" fill="#00C878" >+24.09%</text>
<polyline points="516.0,241.0 521.8,242.8 527.6,241.8 533.4,242.8 539.2,244.2 545.0,242.7 550.8,242.4 556.6,242.3 562.4,243.6 568.2,243.7 574.0,242.8 579.8,242.4 585.6,242.9 591.4,242.7 597.2,244.2 603.0,243.4 608.8,243.1 614.6,242.7 620.4,245.0 626.2,245.7 632.0,247.0 637.8,244.6 643.6,243.2 649.4,243.0 655.2,242.5 661.0,242.1 666.8,239.4 672.6,238.6 678.4,238.4 684.2,237.7 690.0,236.5 695.8,236.6 701.6,236.4 707.4,235.5 713.2,235.7 719.0,236.2 724.8,235.1 730.6,235.1 736.4,233.8 742.2,233.8 748.0,235.0 753.8,234.6 759.6,232.9 765.4,232.7 771.2,232.9 777.0,231.1 782.8,228.9 788.6,230.3 794.4,228.2 800.2,227.0 806.0,227.9 811.8,227.3 817.6,226.8 823.4,229.2 829.2,230.2 835.0,230.7 840.8,228.8 846.6,228.1 852.4,227.8 858.2,225.0 864.0,225.2" fill="none" stroke="#FF3C3C" stroke-width="1.5" stroke-linejoin="round" stroke-linecap="round"/>
<line x1="16" y1="252" x2="864" y2="252" stroke="#2A3A4A" stroke-width="0.3" />
<text x="16" y="272" text-anchor="start" font-family="Courier New, Courier, monospace" font-size="10" fill="#FFA020" font-weight="bold">QUAL</text>
<text x="72" y="272" text-anchor="start" font-family="Courier New, Courier, monospace" font-size="10" fill="#E8A000" >QUALITY FACTOR</text>
<text x="340" y="272" text-anchor="end" font-family="Courier New, Courier, monospace" font-size="11" fill="#D8E8F0" font-weight="bold">215.24</text>
<text x="420" y="272" text-anchor="end" font-family="Courier New, Courier, monospace" font-size="11" fill="#FF3C3C" >-0.35%</text>
<text x="500" y="272" text-anchor="end" font-family="Courier New, Courier, monospace" font-size="11" fill="#00C878" >+8.29%</text>
<polyline points="516.0,265.8 521.8,267.5 527.6,266.6 533.4,267.9 539.2,270.2 545.0,268.6 550.8,269.0 556.6,269.5 562.4,272.0 568.2,272.8 574.0,271.4 579.8,271.2 585.6,273.3 591.4,273.2 597.2,274.9 603.0,273.4 608.8,273.9 614.6,273.3 620.4,276.3 626.2,278.4 632.0,279.0 637.8,275.0 643.6,274.3 649.4,274.0 655.2,273.3 661.0,273.8 666.8,269.6 672.6,268.7 678.4,269.3 684.2,267.9 690.0,266.4 695.8,265.6 701.6,265.6 707.4,263.7 713.2,263.9 719.0,264.8 724.8,263.5 730.6,264.4 736.4,263.3 742.2,263.5 748.0,264.4 753.8,264.5 759.6,263.4 765.4,263.5 771.2,264.3 777.0,263.2 782.8,261.3 788.6,261.8 794.4,261.0 800.2,260.9 806.0,261.1 811.8,260.6 817.6,259.6 823.4,261.0 829.2,260.7 835.0,261.7 840.8,259.7 846.6,259.3 852.4,258.1 858.2,257.0 864.0,257.4" fill="none" stroke="#FF3C3C" stroke-width="1.5" stroke-linejoin="round" stroke-linecap="round"/>
<line x1="16" y1="284" x2="864" y2="284" stroke="#2A3A4A" stroke-width="0.3" />
<line x1="0" y1="284" x2="880" y2="284" stroke="#E8A000" stroke-width="0.4" />
<text x="16" y="297" text-anchor="start" font-family="Courier New, Courier, monospace" font-size="8" fill="#506070" >SRC: YAHOO FINANCE  ·  AUTO-UPDATE 22:00 UTC WEEKDAYS  ·  GITHUB.COM/YANKRUZISKI</text>
<text x="864" y="297" text-anchor="end" font-family="Courier New, Courier, monospace" font-size="8" fill="#506070" >2026-05-27</text>
</svg>