<svg xmlns="http://www.w3.org/2000/svg" width="880" height="302" viewBox="0 0 880 302">
<rect width="880" height="302" fill="#040810"/>
<rect x="0.5" y="0.5" width="879" height="301" fill="none" stroke="#E8A000" stroke-width="0.7" opacity="0.5"/>
<rect x="0" y="0" width="880" height="18" fill="#D87000"/>
<text x="16" y="14" text-anchor="start" font-family="Courier New, Courier, monospace" font-size="9" fill="#030608" font-weight="bold">BLOOMBERG</text>
<text x="88" y="14" text-anchor="start" font-family="Courier New, Courier, monospace" font-size="9" fill="#030608" >QUANT MARKET MONITOR</text>
<text x="440" y="14" text-anchor="middle" font-family="Courier New, Courier, monospace" font-size="9" fill="#030608" >EQUITY  &amp;  VOLATILITY  DASHBOARD</text>
<text x="864" y="14" text-anchor="end" font-family="Courier New, Courier, monospace" font-size="9" fill="#030608" >2026-06-22  22:36 UTC</text>
<line x1="0" y1="38" x2="880" y2="38" stroke="#E8A000" stroke-width="0.8" />
<text x="16" y="33" text-anchor="start" font-family="Courier New, Courier, monospace" font-size="9" fill="#506070" >YAN KRUZISKI  ·  VP OF INTELI RESEARCH  ·  SÃO PAULO, BR</text>
<text x="864" y="33" text-anchor="end" font-family="Courier New, Courier, monospace" font-size="9" fill="#506070" >PAGE 1/1</text>
<rect x="0" y="38" width="880" height="22" fill="#E8A000" opacity="0.14"/>
<text x="16" y="54" text-anchor="start" font-family="Courier New, Courier, monospace" font-size="9" fill="#FFA020" font-weight="bold">TICKER</text>
<text x="72" y="54" text-anchor="start" font-family="Courier New, Courier, monospace" font-size="9" fill="#FFA020" font-weight="bold">DESCRIPTION</text>
<text x="340" y="54" text-anchor="end" font-family="Courier New, Courier, monospace" font-size="9" fill="#FFA020" font-weight="bold">LAST</text>
<text x="420" y="54" text-anchor="end" font-family="Courier New, Courier, monospace" font-size="9" fill="#FFA020" font-weight="bold">%CHG</text>
<text x="500" y="54" text-anchor="end" font-family="Courier New, Courier, monospace" font-size="9" fill="#FFA020" font-weight="bold">YTD%</text>
<text x="690" y="54" text-anchor="middle" font-family="Courier New, Courier, monospace" font-size="9" fill="#FFA020" font-weight="bold">3-MONTH</text>
<line x1="0" y1="60" x2="880" y2="60" stroke="#E8A000" stroke-width="0.9" />
<rect x="0" y="60" width="880" height="32" fill="#E8A000" opacity="0.09"/>
<text x="16" y="80" text-anchor="start" font-family="Courier New, Courier, monospace" font-size="10" fill="#FFA020" font-weight="bold">^VIX</text>
<text x="72" y="80" text-anchor="start" font-family="Courier New, Courier, monospace" font-size="10" fill="#E8A000" font-weight="bold">CBOE VOLATILITY INDEX</text>
<text x="340" y="80" text-anchor="end" font-family="Courier New, Courier, monospace" font-size="11" fill="#D8E8F0" font-weight="bold">17.28</text>
<text x="420" y="80" text-anchor="end" font-family="Courier New, Courier, monospace" font-size="11" fill="#FF3C3C" font-weight="bold">+2.98%</text>
<text x="500" y="80" text-anchor="end" font-family="Courier New, Courier, monospace" font-size="10" fill="#FF3C3C" font-weight="bold">NORMAL</text>
<polyline points="516.0,71.9 521.5,70.7 527.0,73.0 532.6,70.0 538.1,65.0 543.6,65.6 549.1,73.1 554.7,74.1 560.2,75.0 565.7,74.6 571.2,72.4 576.8,79.0 582.3,81.2 587.8,81.5 593.3,81.7 598.9,82.7 604.4,83.0 609.9,83.3 615.4,84.0 621.0,82.0 626.5,81.2 632.0,82.0 637.5,81.4 643.0,82.3 648.6,83.2 654.1,83.5 659.6,82.1 665.1,84.8 670.7,84.7 676.2,82.8 681.7,84.1 687.2,84.1 692.8,84.5 698.3,84.4 703.8,82.7 709.3,83.3 714.9,83.4 720.4,84.3 725.9,82.7 731.4,83.5 737.0,83.2 742.5,84.0 748.0,85.0 753.5,85.1 759.0,85.2 764.6,84.6 770.1,85.6 775.6,86.4 781.1,87.0 786.7,86.0 792.2,86.4 797.7,86.0 803.2,86.9 808.8,78.3 814.3,82.0 819.8,80.6 825.3,77.3 830.9,81.2 836.4,83.7 841.9,85.8 847.4,85.5 853.0,82.6 858.5,85.5 864.0,84.3" fill="none" stroke="#FF3C3C" stroke-width="1.5" stroke-linejoin="round" stroke-linecap="round"/>
<line x1="0" y1="92" x2="880" y2="92" stroke="#E8A000" stroke-width="0.5" />
<rect x="0" y="92" width="880" height="32" fill="#FFFFFF" opacity="0.02"/>
<text x="16" y="112" text-anchor="start" font-family="Courier New, Courier, monospace" font-size="10" fill="#FFA020" font-weight="bold">IBOV</text>
<text x="72" y="112" text-anchor="start" font-family="Courier New, Courier, monospace" font-size="10" fill="#E8A000" >IBOVESPA</text>
<text x="340" y="112" text-anchor="end" font-family="Courier New, Courier, monospace" font-size="11" fill="#D8E8F0" font-weight="bold">170,370</text>
<text x="420" y="112" text-anchor="end" font-family="Courier New, Courier, monospace" font-size="11" fill="#00C878" >+1.21%</text>
<text x="500" y="112" text-anchor="end" font-family="Courier New, Courier, monospace" font-size="11" fill="#00C878" >+6.12%</text>
<polyline points="516.0,109.1 521.7,108.7 527.4,106.6 533.1,108.5 538.8,109.4 544.5,108.7 550.2,105.1 555.9,104.8 561.6,104.7 567.3,104.6 573.0,104.5 578.8,101.7 584.5,99.6 590.2,98.0 595.9,97.5 601.6,97.0 607.3,97.7 613.0,98.3 618.7,99.1 624.4,98.8 630.1,101.2 635.8,102.3 641.5,102.7 647.2,103.6 652.9,104.3 658.6,107.1 664.3,105.2 670.0,106.5 675.7,105.6 681.4,104.9 687.1,108.2 692.9,107.5 698.6,109.1 704.3,110.3 710.0,112.6 715.7,111.7 721.4,112.5 727.1,112.7 732.8,114.7 738.5,112.4 744.2,112.2 749.9,113.3 755.6,112.4 761.3,113.0 767.0,113.6 772.7,114.1 778.4,115.0 784.1,116.2 789.8,114.7 795.5,117.5 801.2,118.5 807.0,118.7 812.7,117.9 818.4,118.8 824.1,116.7 829.8,116.9 835.5,117.5 841.2,118.0 846.9,118.9 852.6,119.0 858.3,118.8 864.0,117.5" fill="none" stroke="#00C878" stroke-width="1.5" stroke-linejoin="round" stroke-linecap="round"/>
<line x1="16" y1="124" x2="864" y2="124" stroke="#2A3A4A" stroke-width="0.3" />
<text x="16" y="144" text-anchor="start" font-family="Courier New, Courier, monospace" font-size="10" fill="#FFA020" font-weight="bold">SPY</text>
<text x="72" y="144" text-anchor="start" font-family="Courier New, Courier, monospace" font-size="10" fill="#E8A000" >S&amp;P 500</text>
<text x="340" y="144" text-anchor="end" font-family="Courier New, Courier, monospace" font-size="11" fill="#D8E8F0" font-weight="bold">744.39</text>
<text x="420" y="144" text-anchor="end" font-family="Courier New, Courier, monospace" font-size="11" fill="#FF3C3C" >-0.34%</text>
<text x="500" y="144" text-anchor="end" font-family="Courier New, Courier, monospace" font-size="11" fill="#00C878" >+9.54%</text>
<polyline points="516.0,147.0 521.6,147.3 527.2,146.7 532.8,148.7 538.5,150.6 544.1,151.0 549.7,147.8 555.3,147.0 560.9,146.9 566.5,146.4 572.1,146.3 577.7,143.4 583.4,142.7 589.0,142.8 594.6,141.7 600.2,140.2 605.8,139.3 611.4,139.0 617.0,137.5 622.6,137.8 628.3,138.6 633.9,137.3 639.5,137.8 645.1,136.9 650.7,136.7 656.3,137.3 661.9,137.3 667.5,136.1 673.2,135.7 678.8,136.2 684.4,135.2 690.0,133.4 695.6,133.8 701.2,132.8 706.8,132.5 712.5,132.7 718.1,132.0 723.7,131.0 729.3,132.5 734.9,132.6 740.5,133.5 746.1,132.2 751.7,131.9 757.4,131.4 763.0,130.5 768.6,130.6 774.2,129.9 779.8,129.5 785.4,129.2 791.0,129.0 796.6,129.9 802.3,129.4 807.9,132.8 813.5,132.5 819.1,132.9 824.7,134.9 830.3,132.8 835.9,132.1 841.5,129.8 847.2,130.6 852.8,132.2 858.4,130.9 864.0,131.3" fill="none" stroke="#FF3C3C" stroke-width="1.5" stroke-linejoin="round" stroke-linecap="round"/>
<line x1="16" y1="156" x2="864" y2="156" stroke="#2A3A4A" stroke-width="0.3" />
<rect x="0" y="156" width="880" height="32" fill="#FFFFFF" opacity="0.02"/>
<text x="16" y="176" text-anchor="start" font-family="Courier New, Courier, monospace" font-size="10" fill="#FFA020" font-weight="bold">QQQ</text>
<text x="72" y="176" text-anchor="start" font-family="Courier New, Courier, monospace" font-size="10" fill="#E8A000" >NASDAQ 100</text>
<text x="340" y="176" text-anchor="end" font-family="Courier New, Courier, monospace" font-size="11" fill="#D8E8F0" font-weight="bold">737.95</text>
<text x="420" y="176" text-anchor="end" font-family="Courier New, Courier, monospace" font-size="11" fill="#FF3C3C" >-0.25%</text>
<text x="500" y="176" text-anchor="end" font-family="Courier New, Courier, monospace" font-size="11" fill="#00C878" >+20.51%</text>
<polyline points="516.0,179.5 521.6,180.0 527.2,179.5 532.8,181.2 538.5,182.5 544.1,183.0 549.7,180.8 555.3,180.0 560.9,179.9 566.5,179.5 572.1,179.5 577.7,177.4 583.4,176.9 589.0,176.8 594.6,176.1 600.2,174.8 605.8,173.7 611.4,173.4 617.0,172.4 622.6,172.6 628.3,172.9 633.9,171.7 639.5,172.1 645.1,170.6 650.7,170.6 656.3,171.4 661.9,170.9 667.5,170.2 673.2,169.4 678.8,169.6 684.4,168.6 690.0,166.9 695.6,167.0 701.2,165.1 706.8,164.8 712.5,165.6 718.1,164.7 723.7,164.1 729.3,165.4 734.9,165.7 740.5,166.2 746.1,164.9 751.7,164.7 757.4,164.4 763.0,162.9 768.6,163.0 774.2,162.2 779.8,161.9 785.4,161.4 791.0,161.0 796.6,161.2 802.3,161.6 807.9,165.8 813.5,164.5 819.1,165.5 824.7,167.1 830.3,164.4 835.9,163.9 841.5,161.3 847.2,162.9 852.8,163.8 858.4,161.6 864.0,162.0" fill="none" stroke="#FF3C3C" stroke-width="1.5" stroke-linejoin="round" stroke-linecap="round"/>
<line x1="16" y1="188" x2="864" y2="188" stroke="#2A3A4A" stroke-width="0.3" />
<text x="16" y="208" text-anchor="start" font-family="Courier New, Courier, monospace" font-size="10" fill="#FFA020" font-weight="bold">QMOM</text>
<text x="72" y="208" text-anchor="start" font-family="Courier New, Courier, monospace" font-size="10" fill="#E8A000" >QUANT MOMENTUM</text>
<text x="340" y="208" text-anchor="end" font-family="Courier New, Courier, monospace" font-size="11" fill="#D8E8F0" font-weight="bold">80.36</text>
<text x="420" y="208" text-anchor="end" font-family="Courier New, Courier, monospace" font-size="11" fill="#00C878" >+1.26%</text>
<text x="500" y="208" text-anchor="end" font-family="Courier New, Courier, monospace" font-size="11" fill="#00C878" >+20.87%</text>
<polyline points="516.0,210.7 521.6,209.5 527.2,208.2 532.8,211.7 538.5,212.3 544.1,215.0 549.7,210.1 555.3,208.3 560.9,208.5 566.5,208.3 572.1,208.1 577.7,203.8 583.4,203.2 589.0,203.1 594.6,202.2 600.2,201.4 605.8,202.1 611.4,201.9 617.0,199.9 622.6,199.8 628.3,201.0 633.9,200.1 639.5,199.7 645.1,199.7 650.7,200.0 656.3,202.3 661.9,203.3 667.5,199.3 673.2,199.6 678.8,199.4 684.4,198.1 690.0,194.7 695.6,198.5 701.2,196.9 706.8,195.3 712.5,196.2 718.1,195.3 723.7,195.1 729.3,198.6 734.9,200.2 740.5,201.4 746.1,199.3 751.7,198.7 757.4,198.4 763.0,195.4 768.6,196.1 774.2,195.2 779.8,194.6 785.4,194.8 791.0,193.0 796.6,193.4 802.3,193.7 807.9,199.2 813.5,198.5 819.1,199.7 824.7,202.0 830.3,197.6 835.9,196.3 841.5,195.6 847.2,196.7 852.8,197.3 858.4,196.7 864.0,194.7" fill="none" stroke="#00C878" stroke-width="1.5" stroke-linejoin="round" stroke-linecap="round"/>
<line x1="16" y1="220" x2="864" y2="220" stroke="#2A3A4A" stroke-width="0.3" />
<rect x="0" y="220" width="880" height="32" fill="#FFFFFF" opacity="0.02"/>
<text x="16" y="240" text-anchor="start" font-family="Courier New, Courier, monospace" font-size="10" fill="#FFA020" font-weight="bold">MTUM</text>
<text x="72" y="240" text-anchor="start" font-family="Courier New, Courier, monospace" font-size="10" fill="#E8A000" >MOMENTUM FACTOR</text>
<text x="340" y="240" text-anchor="end" font-family="Courier New, Courier, monospace" font-size="11" fill="#D8E8F0" font-weight="bold">345.22</text>
<text x="420" y="240" text-anchor="end" font-family="Courier New, Courier, monospace" font-size="11" fill="#00C878" >+2.08%</text>
<text x="500" y="240" text-anchor="end" font-family="Courier New, Courier, monospace" font-size="11" fill="#00C878" >+36.87%</text>
<polyline points="516.0,244.4 521.6,244.2 527.2,243.9 532.8,245.6 538.5,246.0 544.1,247.0 549.7,245.2 555.3,244.2 560.9,244.1 566.5,243.8 572.1,243.5 577.7,241.5 583.4,240.9 589.0,240.7 594.6,240.2 600.2,239.4 605.8,239.5 611.4,239.3 617.0,238.6 622.6,238.8 628.3,239.2 633.9,238.3 639.5,238.4 645.1,237.4 650.7,237.4 656.3,238.3 661.9,238.0 667.5,236.8 673.2,236.6 678.8,236.7 684.4,235.4 690.0,233.9 695.6,234.9 701.2,233.4 706.8,232.5 712.5,233.1 718.1,232.7 723.7,232.3 729.3,234.1 734.9,234.8 740.5,235.2 746.1,233.8 751.7,233.3 757.4,233.0 763.0,231.0 768.6,231.2 774.2,230.9 779.8,230.7 785.4,230.5 791.0,228.7 796.6,228.1 802.3,228.8 807.9,232.5 813.5,230.8 819.1,231.5 824.7,232.8 830.3,230.1 835.9,229.1 841.5,227.2 847.2,228.7 852.8,228.3 858.4,226.3 864.0,225.0" fill="none" stroke="#00C878" stroke-width="1.5" stroke-linejoin="round" stroke-linecap="round"/>
<line x1="16" y1="252" x2="864" y2="252" stroke="#2A3A4A" stroke-width="0.3" />
<text x="16" y="272" text-anchor="start" font-family="Courier New, Courier, monospace" font-size="10" fill="#FFA020" font-weight="bold">QUAL</text>
<text x="72" y="272" text-anchor="start" font-family="Courier New, Courier, monospace" font-size="10" fill="#E8A000" >QUALITY FACTOR</text>
<text x="340" y="272" text-anchor="end" font-family="Courier New, Courier, monospace" font-size="11" fill="#D8E8F0" font-weight="bold">215.83</text>
<text x="420" y="272" text-anchor="end" font-family="Courier New, Courier, monospace" font-size="11" fill="#00C878" >+0.26%</text>
<text x="500" y="272" text-anchor="end" font-family="Courier New, Courier, monospace" font-size="11" fill="#00C878" >+8.78%</text>
<polyline points="516.0,274.0 521.6,274.5 527.2,273.9 532.8,276.6 538.5,278.5 544.1,279.0 549.7,275.5 555.3,274.8 560.9,274.6 566.5,274.0 572.1,274.4 577.7,270.7 583.4,269.9 589.0,270.4 594.6,269.2 600.2,267.8 605.8,267.1 611.4,267.1 617.0,265.4 622.6,265.6 628.3,266.4 633.9,265.3 639.5,266.1 645.1,265.1 650.7,265.2 656.3,266.1 661.9,266.2 667.5,265.2 673.2,265.3 678.8,266.0 684.4,265.0 690.0,263.3 695.6,263.7 701.2,263.1 706.8,263.0 712.5,263.1 718.1,262.7 723.7,261.8 729.3,263.1 734.9,262.8 740.5,263.7 746.1,261.9 751.7,261.6 757.4,260.5 763.0,259.5 768.6,259.9 774.2,259.5 779.8,259.7 785.4,259.4 791.0,259.5 796.6,259.6 802.3,258.5 807.9,261.3 813.5,260.8 819.1,260.6 824.7,261.8 830.3,259.5 835.9,258.8 841.5,257.0 847.2,258.0 852.8,260.2 858.4,259.2 864.0,259.2" fill="none" stroke="#00C878" stroke-width="1.5" stroke-linejoin="round" stroke-linecap="round"/>
<line x1="16" y1="284" x2="864" y2="284" stroke="#2A3A4A" stroke-width="0.3" />
<line x1="0" y1="284" x2="880" y2="284" stroke="#E8A000" stroke-width="0.4" />
<text x="16" y="297" text-anchor="start" font-family="Courier New, Courier, monospace" font-size="8" fill="#506070" >SRC: YAHOO FINANCE  ·  AUTO-UPDATE 22:00 UTC WEEKDAYS  ·  GITHUB.COM/YANKRUZISKI</text>
<text x="864" y="297" text-anchor="end" font-family="Courier New, Courier, monospace" font-size="8" fill="#506070" >2026-06-22</text>
</svg>