<svg xmlns="http://www.w3.org/2000/svg" width="880" height="302" viewBox="0 0 880 302">
<rect width="880" height="302" fill="#040810"/>
<rect x="0.5" y="0.5" width="879" height="301" fill="none" stroke="#E8A000" stroke-width="0.7" opacity="0.5"/>
<rect x="0" y="0" width="880" height="18" fill="#D87000"/>
<text x="16" y="14" text-anchor="start" font-family="Courier New, Courier, monospace" font-size="9" fill="#030608" font-weight="bold">BLOOMBERG</text>
<text x="88" y="14" text-anchor="start" font-family="Courier New, Courier, monospace" font-size="9" fill="#030608" >QUANT MARKET MONITOR</text>
<text x="440" y="14" text-anchor="middle" font-family="Courier New, Courier, monospace" font-size="9" fill="#030608" >EQUITY  &amp;  VOLATILITY  DASHBOARD</text>
<text x="864" y="14" text-anchor="end" font-family="Courier New, Courier, monospace" font-size="9" fill="#030608" >2026-07-06  22:29 UTC</text>
<line x1="0" y1="38" x2="880" y2="38" stroke="#E8A000" stroke-width="0.8" />
<text x="16" y="33" text-anchor="start" font-family="Courier New, Courier, monospace" font-size="9" fill="#506070" >YAN KRUZISKI  ·  VP OF INTELI RESEARCH  ·  SÃO PAULO, BR</text>
<text x="864" y="33" text-anchor="end" font-family="Courier New, Courier, monospace" font-size="9" fill="#506070" >PAGE 1/1</text>
<rect x="0" y="38" width="880" height="22" fill="#E8A000" opacity="0.14"/>
<text x="16" y="54" text-anchor="start" font-family="Courier New, Courier, monospace" font-size="9" fill="#FFA020" font-weight="bold">TICKER</text>
<text x="72" y="54" text-anchor="start" font-family="Courier New, Courier, monospace" font-size="9" fill="#FFA020" font-weight="bold">DESCRIPTION</text>
<text x="340" y="54" text-anchor="end" font-family="Courier New, Courier, monospace" font-size="9" fill="#FFA020" font-weight="bold">LAST</text>
<text x="420" y="54" text-anchor="end" font-family="Courier New, Courier, monospace" font-size="9" fill="#FFA020" font-weight="bold">%CHG</text>
<text x="500" y="54" text-anchor="end" font-family="Courier New, Courier, monospace" font-size="9" fill="#FFA020" font-weight="bold">YTD%</text>
<text x="690" y="54" text-anchor="middle" font-family="Courier New, Courier, monospace" font-size="9" fill="#FFA020" font-weight="bold">3-MONTH</text>
<line x1="0" y1="60" x2="880" y2="60" stroke="#E8A000" stroke-width="0.9" />
<rect x="0" y="60" width="880" height="32" fill="#E8A000" opacity="0.09"/>
<text x="16" y="80" text-anchor="start" font-family="Courier New, Courier, monospace" font-size="10" fill="#FFA020" font-weight="bold">^VIX</text>
<text x="72" y="80" text-anchor="start" font-family="Courier New, Courier, monospace" font-size="10" fill="#E8A000" font-weight="bold">CBOE VOLATILITY INDEX</text>
<text x="340" y="80" text-anchor="end" font-family="Courier New, Courier, monospace" font-size="11" fill="#D8E8F0" font-weight="bold">15.57</text>
<text x="420" y="80" text-anchor="end" font-family="Courier New, Courier, monospace" font-size="11" fill="#00C878" font-weight="bold">-1.52%</text>
<text x="500" y="80" text-anchor="end" font-family="Courier New, Courier, monospace" font-size="10" fill="#00C878" font-weight="bold">NORMAL</text>
<polyline points="516.0,68.4 521.5,65.0 527.0,75.0 532.6,78.2 538.1,78.8 543.6,79.0 549.1,80.6 554.7,81.0 560.2,81.5 565.7,82.5 571.2,79.5 576.8,78.2 582.3,79.4 587.8,78.6 593.3,79.9 598.9,81.3 604.4,81.7 609.9,79.7 615.4,83.7 621.0,83.5 626.5,80.8 632.0,82.7 637.5,82.6 643.0,83.3 648.6,83.1 654.1,80.6 659.6,81.4 665.1,81.6 670.7,82.9 676.2,80.5 681.7,81.7 687.2,81.2 692.8,82.5 698.3,84.0 703.8,84.1 709.3,84.3 714.9,83.4 720.4,85.0 725.9,86.1 731.4,87.0 737.0,85.5 742.5,86.1 748.0,85.4 753.5,86.8 759.0,74.0 764.6,79.4 770.1,77.4 775.6,72.5 781.1,78.3 786.7,82.0 792.2,85.1 797.7,84.7 803.2,80.4 808.8,84.7 814.3,82.9 819.8,78.2 825.3,80.0 830.9,79.5 836.4,80.5 841.9,82.1 847.4,84.6 853.0,84.3 858.5,85.3 864.0,86.5" fill="none" stroke="#00C878" stroke-width="1.5" stroke-linejoin="round" stroke-linecap="round"/>
<line x1="0" y1="92" x2="880" y2="92" stroke="#E8A000" stroke-width="0.5" />
<rect x="0" y="92" width="880" height="32" fill="#FFFFFF" opacity="0.02"/>
<text x="16" y="112" text-anchor="start" font-family="Courier New, Courier, monospace" font-size="10" fill="#FFA020" font-weight="bold">IBOV</text>
<text x="72" y="112" text-anchor="start" font-family="Courier New, Courier, monospace" font-size="10" fill="#E8A000" >IBOVESPA</text>
<text x="340" y="112" text-anchor="end" font-family="Courier New, Courier, monospace" font-size="11" fill="#D8E8F0" font-weight="bold">172,448</text>
<text x="420" y="112" text-anchor="end" font-family="Courier New, Courier, monospace" font-size="11" fill="#FF3C3C" >-0.93%</text>
<text x="500" y="112" text-anchor="end" font-family="Courier New, Courier, monospace" font-size="11" fill="#00C878" >+7.42%</text>
<polyline points="516.0,104.6 521.6,104.5 527.2,101.7 532.8,99.6 538.5,98.0 544.1,97.5 549.7,97.0 555.3,97.7 560.9,98.3 566.5,99.1 572.1,98.8 577.7,101.2 583.4,102.3 589.0,102.7 594.6,103.6 600.2,104.3 605.8,107.1 611.4,105.2 617.0,106.5 622.6,105.6 628.3,104.9 633.9,108.2 639.5,107.5 645.1,109.1 650.7,110.3 656.3,112.6 661.9,111.7 667.5,112.5 673.2,112.7 678.8,114.7 684.4,112.4 690.0,112.2 695.6,113.3 701.2,112.4 706.8,113.0 712.5,113.6 718.1,114.1 723.7,115.0 729.3,116.2 734.9,114.7 740.5,117.5 746.1,118.5 751.7,118.7 757.4,117.9 763.0,118.8 768.6,116.7 774.2,116.9 779.8,117.5 785.4,118.0 791.0,118.9 796.6,119.0 802.3,118.8 807.9,117.5 813.5,116.8 819.1,117.4 824.7,116.3 830.3,115.4 835.9,115.4 841.5,116.3 847.2,116.5 852.8,115.7 858.4,114.7 864.0,116.0" fill="none" stroke="#FF3C3C" stroke-width="1.5" stroke-linejoin="round" stroke-linecap="round"/>
<line x1="16" y1="124" x2="864" y2="124" stroke="#2A3A4A" stroke-width="0.3" />
<text x="16" y="144" text-anchor="start" font-family="Courier New, Courier, monospace" font-size="10" fill="#FFA020" font-weight="bold">SPY</text>
<text x="72" y="144" text-anchor="start" font-family="Courier New, Courier, monospace" font-size="10" fill="#E8A000" >S&amp;P 500</text>
<text x="340" y="144" text-anchor="end" font-family="Courier New, Courier, monospace" font-size="11" fill="#D8E8F0" font-weight="bold">751.28</text>
<text x="420" y="144" text-anchor="end" font-family="Courier New, Courier, monospace" font-size="11" fill="#00C878" >+0.74%</text>
<text x="500" y="144" text-anchor="end" font-family="Courier New, Courier, monospace" font-size="11" fill="#00C878" >+10.55%</text>
<polyline points="516.0,151.0 521.7,147.3 527.4,146.5 533.1,146.6 538.8,145.1 544.5,143.3 550.2,142.1 555.9,141.7 561.6,139.8 567.3,140.1 573.0,141.2 578.8,139.6 584.5,140.2 590.2,139.0 595.9,138.7 601.6,139.5 607.3,139.5 613.0,138.0 618.7,137.5 624.4,138.1 630.1,136.8 635.8,134.6 641.5,135.1 647.2,133.8 652.9,133.4 658.6,133.7 664.3,132.8 670.0,131.5 675.7,133.5 681.4,133.6 687.1,134.7 692.9,133.0 698.6,132.7 704.3,132.1 710.0,131.0 715.7,131.0 721.4,130.1 727.1,129.7 732.8,129.2 738.5,129.0 744.2,130.2 749.9,129.5 755.6,133.8 761.3,133.5 767.0,133.9 772.7,136.5 778.4,133.8 784.1,132.9 789.8,130.0 795.5,131.0 801.2,133.1 807.0,131.4 812.7,131.9 818.4,134.3 824.1,134.4 829.8,134.1 835.5,135.3 841.2,132.7 846.9,131.4 852.6,131.6 858.3,131.8 864.0,130.4" fill="none" stroke="#00C878" stroke-width="1.5" stroke-linejoin="round" stroke-linecap="round"/>
<line x1="16" y1="156" x2="864" y2="156" stroke="#2A3A4A" stroke-width="0.3" />
<rect x="0" y="156" width="880" height="32" fill="#FFFFFF" opacity="0.02"/>
<text x="16" y="176" text-anchor="start" font-family="Courier New, Courier, monospace" font-size="10" fill="#FFA020" font-weight="bold">QQQ</text>
<text x="72" y="176" text-anchor="start" font-family="Courier New, Courier, monospace" font-size="10" fill="#E8A000" >NASDAQ 100</text>
<text x="340" y="176" text-anchor="end" font-family="Courier New, Courier, monospace" font-size="11" fill="#D8E8F0" font-weight="bold">722.82</text>
<text x="420" y="176" text-anchor="end" font-family="Courier New, Courier, monospace" font-size="11" fill="#00C878" >+1.21%</text>
<text x="500" y="176" text-anchor="end" font-family="Courier New, Courier, monospace" font-size="11" fill="#00C878" >+18.17%</text>
<polyline points="516.0,183.0 521.7,180.6 527.4,180.0 533.1,179.9 538.8,179.0 544.5,177.4 550.2,176.2 555.9,175.8 561.6,174.6 567.3,174.9 573.0,175.2 578.8,173.7 584.5,174.2 590.2,172.5 595.9,172.4 601.6,173.4 607.3,172.8 613.0,171.9 618.7,171.1 624.4,171.2 630.1,170.0 635.8,168.0 641.5,168.2 647.2,165.9 652.9,165.6 658.6,166.4 664.3,165.4 670.0,164.7 675.7,166.2 681.4,166.6 687.1,167.2 692.9,165.6 698.6,165.4 704.3,165.0 710.0,163.2 715.7,163.3 721.4,162.5 727.1,162.1 732.8,161.5 738.5,161.0 744.2,161.3 749.9,161.8 755.6,166.7 761.3,165.2 767.0,166.4 772.7,168.3 778.4,165.1 784.1,164.5 789.8,161.3 795.5,163.3 801.2,164.3 807.0,161.8 812.7,162.0 818.4,165.4 824.1,165.9 829.8,165.0 835.5,166.4 841.2,164.0 846.9,162.2 852.6,163.8 858.3,165.6 864.0,164.1" fill="none" stroke="#00C878" stroke-width="1.5" stroke-linejoin="round" stroke-linecap="round"/>
<line x1="16" y1="188" x2="864" y2="188" stroke="#2A3A4A" stroke-width="0.3" />
<text x="16" y="208" text-anchor="start" font-family="Courier New, Courier, monospace" font-size="10" fill="#FFA020" font-weight="bold">QMOM</text>
<text x="72" y="208" text-anchor="start" font-family="Courier New, Courier, monospace" font-size="10" fill="#E8A000" >QUANT MOMENTUM</text>
<text x="340" y="208" text-anchor="end" font-family="Courier New, Courier, monospace" font-size="11" fill="#D8E8F0" font-weight="bold">76.50</text>
<text x="420" y="208" text-anchor="end" font-family="Courier New, Courier, monospace" font-size="11" fill="#00C878" >+0.84%</text>
<text x="500" y="208" text-anchor="end" font-family="Courier New, Courier, monospace" font-size="11" fill="#00C878" >+15.06%</text>
<polyline points="516.0,215.0 521.7,208.7 527.4,207.9 533.1,207.7 538.8,206.3 544.5,205.2 550.2,206.3 555.9,205.9 561.6,203.0 567.3,202.9 573.0,204.7 578.8,203.4 584.5,202.8 590.2,202.7 595.9,203.2 601.6,206.6 607.3,208.0 613.0,202.2 618.7,202.6 624.4,202.3 630.1,200.4 635.8,195.5 641.5,200.9 647.2,198.6 652.9,196.3 658.6,197.7 664.3,196.4 670.0,196.1 675.7,201.1 681.4,203.4 687.1,205.2 692.9,202.2 698.6,201.3 704.3,200.8 710.0,196.5 715.7,197.5 721.4,196.2 727.1,195.3 732.8,195.7 738.5,193.0 744.2,193.6 749.9,194.0 755.6,202.0 761.3,201.0 767.0,202.7 772.7,206.1 778.4,199.7 784.1,197.8 789.8,196.8 795.5,198.3 801.2,199.3 807.0,198.3 812.7,195.5 818.4,199.5 824.1,200.8 829.8,198.3 835.5,201.8 841.2,199.6 846.9,198.5 852.6,201.1 858.3,203.8 864.0,202.7" fill="none" stroke="#00C878" stroke-width="1.5" stroke-linejoin="round" stroke-linecap="round"/>
<line x1="16" y1="220" x2="864" y2="220" stroke="#2A3A4A" stroke-width="0.3" />
<rect x="0" y="220" width="880" height="32" fill="#FFFFFF" opacity="0.02"/>
<text x="16" y="240" text-anchor="start" font-family="Courier New, Courier, monospace" font-size="10" fill="#FFA020" font-weight="bold">MTUM</text>
<text x="72" y="240" text-anchor="start" font-family="Courier New, Courier, monospace" font-size="10" fill="#E8A000" >MOMENTUM FACTOR</text>
<text x="340" y="240" text-anchor="end" font-family="Courier New, Courier, monospace" font-size="11" fill="#D8E8F0" font-weight="bold">321.71</text>
<text x="420" y="240" text-anchor="end" font-family="Courier New, Courier, monospace" font-size="11" fill="#00C878" >+1.41%</text>
<text x="500" y="240" text-anchor="end" font-family="Courier New, Courier, monospace" font-size="11" fill="#00C878" >+27.55%</text>
<polyline points="516.0,247.0 521.7,244.6 527.4,244.0 533.1,243.8 538.8,243.2 544.5,242.2 550.2,242.3 555.9,242.1 561.6,241.2 567.3,241.5 573.0,241.9 578.8,240.9 584.5,240.9 590.2,239.8 595.9,239.8 601.6,240.8 607.3,240.5 613.0,239.1 618.7,238.8 624.4,239.0 630.1,237.4 635.8,235.6 641.5,236.8 647.2,235.0 652.9,233.9 658.6,234.7 664.3,234.2 670.0,233.8 675.7,235.8 681.4,236.7 687.1,237.1 692.9,235.5 698.6,234.9 704.3,234.6 710.0,232.2 715.7,232.4 721.4,232.1 727.1,231.8 732.8,231.5 738.5,229.5 744.2,228.7 749.9,229.5 755.6,233.9 761.3,232.0 767.0,232.8 772.7,234.3 778.4,231.1 784.1,229.8 789.8,227.7 795.5,229.4 801.2,228.9 807.0,226.5 812.7,225.0 818.4,228.5 824.1,228.8 829.8,226.4 835.5,229.5 841.2,227.1 846.9,225.5 852.6,228.9 858.3,231.6 864.0,230.4" fill="none" stroke="#00C878" stroke-width="1.5" stroke-linejoin="round" stroke-linecap="round"/>
<line x1="16" y1="252" x2="864" y2="252" stroke="#2A3A4A" stroke-width="0.3" />
<text x="16" y="272" text-anchor="start" font-family="Courier New, Courier, monospace" font-size="10" fill="#FFA020" font-weight="bold">QUAL</text>
<text x="72" y="272" text-anchor="start" font-family="Courier New, Courier, monospace" font-size="10" fill="#E8A000" >QUALITY FACTOR</text>
<text x="340" y="272" text-anchor="end" font-family="Courier New, Courier, monospace" font-size="11" fill="#D8E8F0" font-weight="bold">218.49</text>
<text x="420" y="272" text-anchor="end" font-family="Courier New, Courier, monospace" font-size="11" fill="#FF3C3C" >-0.62%</text>
<text x="500" y="272" text-anchor="end" font-family="Courier New, Courier, monospace" font-size="11" fill="#00C878" >+10.12%</text>
<polyline points="516.0,279.0 521.7,274.3 527.4,273.3 533.1,273.9 538.8,272.5 544.5,270.8 550.2,269.9 555.9,269.9 561.6,267.7 567.3,268.0 573.0,269.0 578.8,267.5 584.5,268.6 590.2,267.3 595.9,267.5 601.6,268.6 607.3,268.7 613.0,267.5 618.7,267.5 624.4,268.4 630.1,267.3 635.8,265.1 641.5,265.6 647.2,264.8 652.9,264.7 658.6,264.9 664.3,264.4 670.0,263.2 675.7,264.8 681.4,264.4 687.1,265.5 692.9,263.3 698.6,262.9 704.3,261.5 710.0,260.4 715.7,260.8 721.4,260.3 727.1,260.6 732.8,260.2 738.5,260.4 744.2,260.5 749.9,259.1 755.6,262.6 761.3,262.0 767.0,261.7 772.7,263.2 778.4,260.3 784.1,259.4 789.8,257.2 795.5,258.4 801.2,261.2 807.0,260.0 812.7,260.0 818.4,262.4 824.1,262.2 829.8,262.2 835.5,261.8 841.2,258.8 846.9,257.0 852.6,257.5 858.3,257.8 864.0,257.8" fill="none" stroke="#FF3C3C" stroke-width="1.5" stroke-linejoin="round" stroke-linecap="round"/>
<line x1="16" y1="284" x2="864" y2="284" stroke="#2A3A4A" stroke-width="0.3" />
<line x1="0" y1="284" x2="880" y2="284" stroke="#E8A000" stroke-width="0.4" />
<text x="16" y="297" text-anchor="start" font-family="Courier New, Courier, monospace" font-size="8" fill="#506070" >SRC: YAHOO FINANCE  ·  AUTO-UPDATE 22:00 UTC WEEKDAYS  ·  GITHUB.COM/YANKRUZISKI</text>
<text x="864" y="297" text-anchor="end" font-family="Courier New, Courier, monospace" font-size="8" fill="#506070" >2026-07-06</text>
</svg>