<svg xmlns="http://www.w3.org/2000/svg" width="880" height="302" viewBox="0 0 880 302">
<rect width="880" height="302" fill="#040810"/>
<rect x="0.5" y="0.5" width="879" height="301" fill="none" stroke="#E8A000" stroke-width="0.7" opacity="0.5"/>
<rect x="0" y="0" width="880" height="18" fill="#D87000"/>
<text x="16" y="14" text-anchor="start" font-family="Courier New, Courier, monospace" font-size="9" fill="#030608" font-weight="bold">BLOOMBERG</text>
<text x="88" y="14" text-anchor="start" font-family="Courier New, Courier, monospace" font-size="9" fill="#030608" >QUANT MARKET MONITOR</text>
<text x="440" y="14" text-anchor="middle" font-family="Courier New, Courier, monospace" font-size="9" fill="#030608" >EQUITY  &amp;  VOLATILITY  DASHBOARD</text>
<text x="864" y="14" text-anchor="end" font-family="Courier New, Courier, monospace" font-size="9" fill="#030608" >2026-05-28  22:35 UTC</text>
<line x1="0" y1="38" x2="880" y2="38" stroke="#E8A000" stroke-width="0.8" />
<text x="16" y="33" text-anchor="start" font-family="Courier New, Courier, monospace" font-size="9" fill="#506070" >YAN KRUZISKI  ·  VP OF INTELI RESEARCH  ·  SÃO PAULO, BR</text>
<text x="864" y="33" text-anchor="end" font-family="Courier New, Courier, monospace" font-size="9" fill="#506070" >PAGE 1/1</text>
<rect x="0" y="38" width="880" height="22" fill="#E8A000" opacity="0.14"/>
<text x="16" y="54" text-anchor="start" font-family="Courier New, Courier, monospace" font-size="9" fill="#FFA020" font-weight="bold">TICKER</text>
<text x="72" y="54" text-anchor="start" font-family="Courier New, Courier, monospace" font-size="9" fill="#FFA020" font-weight="bold">DESCRIPTION</text>
<text x="340" y="54" text-anchor="end" font-family="Courier New, Courier, monospace" font-size="9" fill="#FFA020" font-weight="bold">LAST</text>
<text x="420" y="54" text-anchor="end" font-family="Courier New, Courier, monospace" font-size="9" fill="#FFA020" font-weight="bold">%CHG</text>
<text x="500" y="54" text-anchor="end" font-family="Courier New, Courier, monospace" font-size="9" fill="#FFA020" font-weight="bold">YTD%</text>
<text x="690" y="54" text-anchor="middle" font-family="Courier New, Courier, monospace" font-size="9" fill="#FFA020" font-weight="bold">3-MONTH</text>
<line x1="0" y1="60" x2="880" y2="60" stroke="#E8A000" stroke-width="0.9" />
<rect x="0" y="60" width="880" height="32" fill="#E8A000" opacity="0.09"/>
<text x="16" y="80" text-anchor="start" font-family="Courier New, Courier, monospace" font-size="10" fill="#FFA020" font-weight="bold">^VIX</text>
<text x="72" y="80" text-anchor="start" font-family="Courier New, Courier, monospace" font-size="10" fill="#E8A000" font-weight="bold">CBOE VOLATILITY INDEX</text>
<text x="340" y="80" text-anchor="end" font-family="Courier New, Courier, monospace" font-size="11" fill="#D8E8F0" font-weight="bold">15.74</text>
<text x="420" y="80" text-anchor="end" font-family="Courier New, Courier, monospace" font-size="11" fill="#00C878" font-weight="bold">-3.38%</text>
<text x="500" y="80" text-anchor="end" font-family="Courier New, Courier, monospace" font-size="10" fill="#00C878" font-weight="bold">NORMAL</text>
<polyline points="516.0,78.8 521.6,75.7 527.2,79.2 532.8,75.5 538.5,67.2 544.1,73.0 549.7,73.8 555.3,74.8 560.9,70.4 566.5,70.5 572.1,75.8 577.7,77.5 583.4,73.6 589.0,75.0 594.6,71.1 600.2,72.0 605.8,70.9 611.4,73.2 617.0,70.2 622.6,65.0 628.3,65.6 633.9,73.3 639.5,74.4 645.1,75.3 650.7,74.9 656.3,72.6 661.9,79.4 667.5,81.6 673.2,82.0 678.8,82.1 684.4,83.2 690.0,83.5 695.6,83.8 701.2,84.5 706.8,82.5 712.5,81.6 718.1,82.4 723.7,81.9 729.3,82.7 734.9,83.7 740.5,84.0 746.1,82.6 751.7,85.3 757.4,85.2 763.0,83.3 768.6,84.6 774.2,84.6 779.8,85.1 785.4,84.9 791.0,83.2 796.6,83.8 802.3,83.9 807.9,84.8 813.5,83.1 819.1,84.0 824.7,83.7 830.3,84.6 835.9,85.5 841.5,85.6 847.2,85.8 852.8,85.2 858.4,86.2 864.0,87.0" fill="none" stroke="#00C878" stroke-width="1.5" stroke-linejoin="round" stroke-linecap="round"/>
<line x1="0" y1="92" x2="880" y2="92" stroke="#E8A000" stroke-width="0.5" />
<rect x="0" y="92" width="880" height="32" fill="#FFFFFF" opacity="0.02"/>
<text x="16" y="112" text-anchor="start" font-family="Courier New, Courier, monospace" font-size="10" fill="#FFA020" font-weight="bold">IBOV</text>
<text x="72" y="112" text-anchor="start" font-family="Courier New, Courier, monospace" font-size="10" fill="#E8A000" >IBOVESPA</text>
<text x="340" y="112" text-anchor="end" font-family="Courier New, Courier, monospace" font-size="11" fill="#D8E8F0" font-weight="bold">175,063</text>
<text x="420" y="112" text-anchor="end" font-family="Courier New, Courier, monospace" font-size="11" fill="#FF3C3C" >-0.39%</text>
<text x="500" y="112" text-anchor="end" font-family="Courier New, Courier, monospace" font-size="11" fill="#00C878" >+9.05%</text>
<polyline points="516.0,105.4 521.8,111.0 527.6,109.0 533.4,113.4 539.2,114.4 545.0,113.0 550.8,110.7 556.6,110.3 562.4,114.5 568.2,116.0 574.0,113.9 579.8,113.5 585.6,114.2 591.4,113.6 597.2,117.2 603.0,112.1 608.8,111.6 614.6,108.9 620.4,111.4 626.2,112.4 632.0,111.6 637.8,107.1 643.6,106.7 649.4,106.6 655.2,106.5 661.0,106.4 666.8,102.8 672.6,100.2 678.4,98.2 684.2,97.6 690.0,97.0 695.8,97.8 701.6,98.7 707.4,99.6 713.2,99.3 719.0,102.2 724.8,103.6 730.6,104.1 736.4,105.2 742.2,106.1 748.0,109.6 753.8,107.2 759.6,108.8 765.4,107.7 771.2,106.9 777.0,110.9 782.8,110.1 788.6,112.1 794.4,113.5 800.2,116.5 806.0,115.3 811.8,116.3 817.6,116.6 823.4,119.0 829.2,116.2 835.0,116.0 840.8,117.3 846.6,116.2 852.4,116.9 858.2,117.7 864.0,118.3" fill="none" stroke="#FF3C3C" stroke-width="1.5" stroke-linejoin="round" stroke-linecap="round"/>
<line x1="16" y1="124" x2="864" y2="124" stroke="#2A3A4A" stroke-width="0.3" />
<text x="16" y="144" text-anchor="start" font-family="Courier New, Courier, monospace" font-size="10" fill="#FFA020" font-weight="bold">SPY</text>
<text x="72" y="144" text-anchor="start" font-family="Courier New, Courier, monospace" font-size="10" fill="#E8A000" >S&P 500</text>
<text x="340" y="144" text-anchor="end" font-family="Courier New, Courier, monospace" font-size="11" fill="#D8E8F0" font-weight="bold">754.60</text>
<text x="420" y="144" text-anchor="end" font-family="Courier New, Courier, monospace" font-size="11" fill="#00C878" >+0.61%</text>
<text x="500" y="144" text-anchor="end" font-family="Courier New, Courier, monospace" font-size="11" fill="#00C878" >+10.76%</text>
<polyline points="516.0,141.6 521.7,142.7 527.4,141.8 533.1,142.5 538.8,144.1 544.5,143.0 550.2,143.2 555.9,143.4 561.6,145.2 567.3,145.9 573.0,144.7 578.8,144.4 584.5,146.0 590.2,146.3 595.9,148.0 601.6,146.8 607.3,147.2 613.0,146.5 618.7,148.6 624.4,150.6 630.1,151.0 635.8,147.7 641.5,146.8 647.2,146.7 652.9,146.2 658.6,146.1 664.3,143.1 670.0,142.4 675.7,142.5 681.4,141.3 687.1,139.8 692.9,138.8 698.6,138.5 704.3,137.0 710.0,137.2 715.7,138.1 721.4,136.8 727.1,137.3 732.8,136.3 738.5,136.1 744.2,136.7 749.9,136.7 755.6,135.4 761.3,135.1 767.0,135.6 772.7,134.5 778.4,132.7 784.1,133.1 789.8,132.0 795.5,131.7 801.2,131.9 807.0,131.2 812.7,130.2 818.4,131.8 824.1,131.9 829.8,132.7 835.5,131.4 841.2,131.1 846.9,130.6 852.6,129.7 858.3,129.7 864.0,129.0" fill="none" stroke="#00C878" stroke-width="1.5" stroke-linejoin="round" stroke-linecap="round"/>
<line x1="16" y1="156" x2="864" y2="156" stroke="#2A3A4A" stroke-width="0.3" />
<rect x="0" y="156" width="880" height="32" fill="#FFFFFF" opacity="0.02"/>
<text x="16" y="176" text-anchor="start" font-family="Courier New, Courier, monospace" font-size="10" fill="#FFA020" font-weight="bold">QQQ</text>
<text x="72" y="176" text-anchor="start" font-family="Courier New, Courier, monospace" font-size="10" fill="#E8A000" >NASDAQ 100</text>
<text x="340" y="176" text-anchor="end" font-family="Courier New, Courier, monospace" font-size="11" fill="#D8E8F0" font-weight="bold">735.60</text>
<text x="420" y="176" text-anchor="end" font-family="Courier New, Courier, monospace" font-size="11" fill="#00C878" >+1.07%</text>
<text x="500" y="176" text-anchor="end" font-family="Courier New, Courier, monospace" font-size="11" fill="#00C878" >+20.13%</text>
<polyline points="516.0,176.9 521.7,177.7 527.4,176.6 533.1,176.8 538.8,177.9 544.5,177.0 550.2,177.0 555.9,177.0 561.6,178.3 567.3,178.7 573.0,177.9 578.8,177.5 584.5,178.5 590.2,178.8 595.9,180.1 601.6,179.3 607.3,179.8 613.0,179.3 618.7,181.1 624.4,182.5 630.1,183.0 635.8,180.7 641.5,179.8 647.2,179.7 652.9,179.3 658.6,179.2 664.3,177.1 670.0,176.6 675.7,176.5 681.4,175.7 687.1,174.3 692.9,173.2 698.6,172.8 704.3,171.8 710.0,172.0 715.7,172.3 721.4,171.0 727.1,171.4 732.8,169.9 738.5,169.9 744.2,170.7 749.9,170.2 755.6,169.4 761.3,168.6 767.0,168.8 772.7,167.7 778.4,165.9 784.1,166.0 789.8,164.0 795.5,163.8 801.2,164.5 807.0,163.6 812.7,163.0 818.4,164.3 824.1,164.7 829.8,165.2 835.5,163.8 841.2,163.6 846.9,163.2 852.6,161.7 858.3,161.8 864.0,161.0" fill="none" stroke="#00C878" stroke-width="1.5" stroke-linejoin="round" stroke-linecap="round"/>
<line x1="16" y1="188" x2="864" y2="188" stroke="#2A3A4A" stroke-width="0.3" />
<text x="16" y="208" text-anchor="start" font-family="Courier New, Courier, monospace" font-size="10" fill="#FFA020" font-weight="bold">QMOM</text>
<text x="72" y="208" text-anchor="start" font-family="Courier New, Courier, monospace" font-size="10" fill="#E8A000" >QUANT MOMENTUM</text>
<text x="340" y="208" text-anchor="end" font-family="Courier New, Courier, monospace" font-size="11" fill="#D8E8F0" font-weight="bold">79.96</text>
<text x="420" y="208" text-anchor="end" font-family="Courier New, Courier, monospace" font-size="11" fill="#00C878" >+0.85%</text>
<text x="500" y="208" text-anchor="end" font-family="Courier New, Courier, monospace" font-size="11" fill="#00C878" >+20.26%</text>
<polyline points="516.0,202.0 521.7,206.0 527.4,205.2 533.1,208.1 538.8,210.3 544.5,207.6 550.2,206.9 555.9,207.7 561.6,209.9 567.3,211.6 573.0,209.3 578.8,208.5 584.5,209.6 590.2,209.3 595.9,212.6 601.6,210.4 607.3,209.0 613.0,207.6 618.7,211.4 624.4,212.0 630.1,215.0 635.8,209.7 641.5,207.7 647.2,208.0 652.9,207.7 658.6,207.5 664.3,202.9 670.0,202.3 675.7,202.1 681.4,201.1 687.1,200.2 692.9,201.1 698.6,200.8 704.3,198.6 710.0,198.5 715.7,199.9 721.4,198.9 727.1,198.5 732.8,198.4 738.5,198.8 744.2,201.3 749.9,202.3 755.6,198.0 761.3,198.3 767.0,198.1 772.7,196.6 778.4,193.0 784.1,197.1 789.8,195.3 795.5,193.6 801.2,194.6 807.0,193.7 812.7,193.5 818.4,197.2 824.1,198.9 829.8,200.2 835.5,198.0 841.2,197.3 846.9,197.0 852.6,193.8 858.3,194.5 864.0,193.6" fill="none" stroke="#00C878" stroke-width="1.5" stroke-linejoin="round" stroke-linecap="round"/>
<line x1="16" y1="220" x2="864" y2="220" stroke="#2A3A4A" stroke-width="0.3" />
<rect x="0" y="220" width="880" height="32" fill="#FFFFFF" opacity="0.02"/>
<text x="16" y="240" text-anchor="start" font-family="Courier New, Courier, monospace" font-size="10" fill="#FFA020" font-weight="bold">MTUM</text>
<text x="72" y="240" text-anchor="start" font-family="Courier New, Courier, monospace" font-size="10" fill="#E8A000" >MOMENTUM FACTOR</text>
<text x="340" y="240" text-anchor="end" font-family="Courier New, Courier, monospace" font-size="11" fill="#D8E8F0" font-weight="bold">314.65</text>
<text x="420" y="240" text-anchor="end" font-family="Courier New, Courier, monospace" font-size="11" fill="#00C878" >+0.53%</text>
<text x="500" y="240" text-anchor="end" font-family="Courier New, Courier, monospace" font-size="11" fill="#00C878" >+24.61%</text>
<polyline points="516.0,241.0 521.7,242.8 527.4,241.8 533.1,242.8 538.8,244.2 544.5,242.7 550.2,242.5 555.9,242.3 561.6,243.6 567.3,243.7 573.0,242.9 578.8,242.4 584.5,242.9 590.2,242.8 595.9,244.2 601.6,243.4 607.3,243.1 613.0,242.7 618.7,245.0 624.4,245.7 630.1,247.0 635.8,244.6 641.5,243.2 647.2,243.0 652.9,242.6 658.6,242.1 664.3,239.4 670.0,238.7 675.7,238.4 681.4,237.7 687.1,236.6 692.9,236.7 698.6,236.5 704.3,235.5 710.0,235.8 715.7,236.3 721.4,235.1 727.1,235.2 732.8,233.9 738.5,233.9 744.2,235.1 749.9,234.7 755.6,233.0 761.3,232.8 767.0,233.0 772.7,231.2 778.4,229.1 784.1,230.4 789.8,228.4 795.5,227.1 801.2,228.0 807.0,227.4 812.7,226.9 818.4,229.3 824.1,230.3 829.8,230.8 835.5,228.9 841.2,228.3 846.9,227.9 852.6,225.2 858.3,225.3 864.0,225.0" fill="none" stroke="#00C878" stroke-width="1.5" stroke-linejoin="round" stroke-linecap="round"/>
<line x1="16" y1="252" x2="864" y2="252" stroke="#2A3A4A" stroke-width="0.3" />
<text x="16" y="272" text-anchor="start" font-family="Courier New, Courier, monospace" font-size="10" fill="#FFA020" font-weight="bold">QUAL</text>
<text x="72" y="272" text-anchor="start" font-family="Courier New, Courier, monospace" font-size="10" fill="#E8A000" >QUALITY FACTOR</text>
<text x="340" y="272" text-anchor="end" font-family="Courier New, Courier, monospace" font-size="11" fill="#D8E8F0" font-weight="bold">215.88</text>
<text x="420" y="272" text-anchor="end" font-family="Courier New, Courier, monospace" font-size="11" fill="#8A9AAA" >+0.01%</text>
<text x="500" y="272" text-anchor="end" font-family="Courier New, Courier, monospace" font-size="11" fill="#00C878" >+8.61%</text>
<polyline points="516.0,265.9 521.7,267.5 527.4,266.6 533.1,268.0 538.8,270.2 544.5,268.7 550.2,269.0 555.9,269.6 561.6,272.0 567.3,272.8 573.0,271.5 578.8,271.2 584.5,273.3 590.2,273.2 595.9,275.0 601.6,273.4 607.3,273.9 613.0,273.3 618.7,276.3 624.4,278.4 630.1,279.0 635.8,275.0 641.5,274.3 647.2,274.0 652.9,273.4 658.6,273.8 664.3,269.6 670.0,268.7 675.7,269.3 681.4,268.0 687.1,266.4 692.9,265.6 698.6,265.7 704.3,263.7 710.0,264.0 715.7,264.8 721.4,263.5 727.1,264.5 732.8,263.3 738.5,263.5 744.2,264.5 749.9,264.6 755.6,263.5 761.3,263.5 767.0,264.3 772.7,263.3 778.4,261.4 784.1,261.8 789.8,261.1 795.5,261.0 801.2,261.1 807.0,260.7 812.7,259.6 818.4,261.1 824.1,260.7 829.8,261.7 835.5,259.7 841.2,259.4 846.9,258.1 852.6,257.1 858.3,257.5 864.0,257.0" fill="none" stroke="#8A9AAA" stroke-width="1.5" stroke-linejoin="round" stroke-linecap="round"/>
<line x1="16" y1="284" x2="864" y2="284" stroke="#2A3A4A" stroke-width="0.3" />
<line x1="0" y1="284" x2="880" y2="284" stroke="#E8A000" stroke-width="0.4" />
<text x="16" y="297" text-anchor="start" font-family="Courier New, Courier, monospace" font-size="8" fill="#506070" >SRC: YAHOO FINANCE  ·  AUTO-UPDATE 22:00 UTC WEEKDAYS  ·  GITHUB.COM/YANKRUZISKI</text>
<text x="864" y="297" text-anchor="end" font-family="Courier New, Courier, monospace" font-size="8" fill="#506070" >2026-05-28</text>
</svg>