<svg xmlns="http://www.w3.org/2000/svg" width="880" height="302" viewBox="0 0 880 302">
<rect width="880" height="302" fill="#040810"/>
<rect x="0.5" y="0.5" width="879" height="301" fill="none" stroke="#E8A000" stroke-width="0.7" opacity="0.5"/>
<rect x="0" y="0" width="880" height="18" fill="#D87000"/>
<text x="16" y="14" text-anchor="start" font-family="Courier New, Courier, monospace" font-size="9" fill="#030608" font-weight="bold">BLOOMBERG</text>
<text x="88" y="14" text-anchor="start" font-family="Courier New, Courier, monospace" font-size="9" fill="#030608" >QUANT MARKET MONITOR</text>
<text x="440" y="14" text-anchor="middle" font-family="Courier New, Courier, monospace" font-size="9" fill="#030608" >EQUITY  &amp;  VOLATILITY  DASHBOARD</text>
<text x="864" y="14" text-anchor="end" font-family="Courier New, Courier, monospace" font-size="9" fill="#030608" >2026-08-10  22:35 UTC</text>
<line x1="0" y1="38" x2="880" y2="38" stroke="#E8A000" stroke-width="0.8" />
<text x="16" y="33" text-anchor="start" font-family="Courier New, Courier, monospace" font-size="9" fill="#506070" >YAN KRUZISKI  ·  VP OF INTELI RESEARCH  ·  SÃO PAULO, BR</text>
<text x="864" y="33" text-anchor="end" font-family="Courier New, Courier, monospace" font-size="9" fill="#506070" >PAGE 1/1</text>
<rect x="0" y="38" width="880" height="22" fill="#E8A000" opacity="0.14"/>
<text x="16" y="54" text-anchor="start" font-family="Courier New, Courier, monospace" font-size="9" fill="#FFA020" font-weight="bold">TICKER</text>
<text x="72" y="54" text-anchor="start" font-family="Courier New, Courier, monospace" font-size="9" fill="#FFA020" font-weight="bold">DESCRIPTION</text>
<text x="340" y="54" text-anchor="end" font-family="Courier New, Courier, monospace" font-size="9" fill="#FFA020" font-weight="bold">LAST</text>
<text x="420" y="54" text-anchor="end" font-family="Courier New, Courier, monospace" font-size="9" fill="#FFA020" font-weight="bold">%CHG</text>
<text x="500" y="54" text-anchor="end" font-family="Courier New, Courier, monospace" font-size="9" fill="#FFA020" font-weight="bold">YTD%</text>
<text x="690" y="54" text-anchor="middle" font-family="Courier New, Courier, monospace" font-size="9" fill="#FFA020" font-weight="bold">3-MONTH</text>
<line x1="0" y1="60" x2="880" y2="60" stroke="#E8A000" stroke-width="0.9" />
<rect x="0" y="60" width="880" height="32" fill="#E8A000" opacity="0.09"/>
<text x="16" y="80" text-anchor="start" font-family="Courier New, Courier, monospace" font-size="10" fill="#FFA020" font-weight="bold">^VIX</text>
<text x="72" y="80" text-anchor="start" font-family="Courier New, Courier, monospace" font-size="10" fill="#E8A000" font-weight="bold">CBOE VOLATILITY INDEX</text>
<text x="340" y="80" text-anchor="end" font-family="Courier New, Courier, monospace" font-size="11" fill="#D8E8F0" font-weight="bold">15.46</text>
<text x="420" y="80" text-anchor="end" font-family="Courier New, Courier, monospace" font-size="11" fill="#FF3C3C" font-weight="bold">+3.83%</text>
<text x="500" y="80" text-anchor="end" font-family="Courier New, Courier, monospace" font-size="10" fill="#FF3C3C" font-weight="bold">NORMAL</text>
<polyline points="516.0,76.5 521.5,77.7 527.0,78.1 532.6,79.9 538.1,76.4 543.6,78.2 549.1,77.5 554.7,79.4 560.2,81.4 565.7,81.6 571.2,81.9 576.8,80.7 582.3,82.8 587.8,84.5 593.3,85.7 598.9,83.5 604.4,84.4 609.9,83.5 615.4,85.5 621.0,67.1 626.5,74.9 632.0,72.1 637.5,65.0 643.0,73.4 648.6,78.6 654.1,83.1 659.6,82.5 665.1,76.4 670.7,82.5 676.2,79.8 681.7,73.2 687.2,75.8 692.8,75.0 698.3,76.5 703.8,78.7 709.3,82.3 714.9,81.9 720.4,83.2 725.9,85.0 731.4,83.3 737.0,81.0 742.5,84.2 748.0,86.6 753.5,80.2 759.0,82.2 764.6,84.7 770.1,81.5 775.6,75.4 781.1,75.7 786.7,80.5 792.2,81.8 797.7,75.6 803.2,75.9 808.8,75.7 814.3,77.1 819.8,69.7 825.3,80.4 830.9,83.7 836.4,84.1 841.9,82.2 847.4,84.3 853.0,86.2 858.5,87.0 864.0,85.3" fill="none" stroke="#FF3C3C" stroke-width="1.5" stroke-linejoin="round" stroke-linecap="round"/>
<line x1="0" y1="92" x2="880" y2="92" stroke="#E8A000" stroke-width="0.5" />
<rect x="0" y="92" width="880" height="32" fill="#FFFFFF" opacity="0.02"/>
<text x="16" y="112" text-anchor="start" font-family="Courier New, Courier, monospace" font-size="10" fill="#FFA020" font-weight="bold">IBOV</text>
<text x="72" y="112" text-anchor="start" font-family="Courier New, Courier, monospace" font-size="10" fill="#E8A000" >IBOVESPA</text>
<text x="340" y="112" text-anchor="end" font-family="Courier New, Courier, monospace" font-size="11" fill="#D8E8F0" font-weight="bold">172,180</text>
<text x="420" y="112" text-anchor="end" font-family="Courier New, Courier, monospace" font-size="11" fill="#FF3C3C" >-0.19%</text>
<text x="500" y="112" text-anchor="end" font-family="Courier New, Courier, monospace" font-size="11" fill="#00C878" >+7.25%</text>
<polyline points="516.0,97.0 521.4,99.5 526.9,104.8 532.3,102.7 537.8,104.5 543.2,105.0 548.6,109.3 554.1,104.3 559.5,103.9 564.9,106.2 570.4,104.3 575.8,105.6 581.2,107.0 586.7,108.0 592.1,110.1 597.6,112.7 603.0,109.4 608.4,115.7 613.9,117.8 619.3,118.4 624.8,116.5 630.2,118.4 635.6,113.8 641.1,114.4 646.5,115.6 651.9,116.8 657.4,118.7 662.8,119.0 668.2,118.5 673.7,115.6 679.1,114.2 684.6,115.4 690.0,113.0 695.4,110.9 700.9,111.0 706.3,113.0 711.8,113.5 717.2,111.7 722.6,109.3 728.1,112.3 733.5,113.0 738.9,115.2 744.4,111.8 749.8,103.5 755.2,107.0 760.7,105.5 766.1,106.5 771.6,110.0 777.0,110.2 782.4,110.8 787.9,110.9 793.3,104.0 798.8,105.4 804.2,109.7 809.6,107.6 815.1,105.6 820.5,110.0 825.9,104.7 831.4,103.3 836.8,103.3 842.2,103.5 847.7,103.8 853.1,107.3 858.6,112.2 864.0,112.7" fill="none" stroke="#FF3C3C" stroke-width="1.5" stroke-linejoin="round" stroke-linecap="round"/>
<line x1="16" y1="124" x2="864" y2="124" stroke="#2A3A4A" stroke-width="0.3" />
<text x="16" y="144" text-anchor="start" font-family="Courier New, Courier, monospace" font-size="10" fill="#FFA020" font-weight="bold">SPY</text>
<text x="72" y="144" text-anchor="start" font-family="Courier New, Courier, monospace" font-size="10" fill="#E8A000" >S&amp;P 500</text>
<text x="340" y="144" text-anchor="end" font-family="Courier New, Courier, monospace" font-size="11" fill="#D8E8F0" font-weight="bold">773.03</text>
<text x="420" y="144" text-anchor="end" font-family="Courier New, Courier, monospace" font-size="11" fill="#8A9AAA" >-0.05%</text>
<text x="500" y="144" text-anchor="end" font-family="Courier New, Courier, monospace" font-size="11" fill="#00C878" >+13.75%</text>
<polyline points="516.0,144.9 521.6,145.4 527.2,143.5 532.8,141.0 538.5,144.9 544.1,145.2 549.7,147.3 555.3,144.0 560.9,143.4 566.5,142.1 572.1,139.9 577.7,139.9 583.4,138.1 589.0,137.3 594.6,136.4 600.2,135.9 605.8,138.3 611.4,137.0 617.0,145.6 622.6,144.9 628.3,145.9 633.9,151.0 639.5,145.6 645.1,143.8 650.7,138.0 656.3,140.0 661.9,144.1 667.5,140.7 673.2,141.8 678.8,146.6 684.4,146.7 690.0,146.2 695.6,148.6 701.2,143.3 706.8,140.7 712.5,141.2 718.1,141.6 723.7,138.7 729.3,140.3 734.9,141.3 740.5,138.5 746.1,137.1 751.7,139.7 757.4,138.5 763.0,137.2 768.6,139.0 774.2,142.3 779.8,142.8 785.4,140.1 791.0,140.4 796.6,144.5 802.3,144.2 807.9,144.1 813.5,143.3 819.1,148.4 824.7,143.0 830.3,140.6 835.9,135.9 841.5,129.9 847.2,130.5 852.8,131.1 858.4,129.0 864.0,129.1" fill="none" stroke="#8A9AAA" stroke-width="1.5" stroke-linejoin="round" stroke-linecap="round"/>
<line x1="16" y1="156" x2="864" y2="156" stroke="#2A3A4A" stroke-width="0.3" />
<rect x="0" y="156" width="880" height="32" fill="#FFFFFF" opacity="0.02"/>
<text x="16" y="176" text-anchor="start" font-family="Courier New, Courier, monospace" font-size="10" fill="#FFA020" font-weight="bold">QQQ</text>
<text x="72" y="176" text-anchor="start" font-family="Courier New, Courier, monospace" font-size="10" fill="#E8A000" >NASDAQ 100</text>
<text x="340" y="176" text-anchor="end" font-family="Courier New, Courier, monospace" font-size="11" fill="#D8E8F0" font-weight="bold">720.87</text>
<text x="420" y="176" text-anchor="end" font-family="Courier New, Courier, monospace" font-size="11" fill="#FF3C3C" >-0.33%</text>
<text x="500" y="176" text-anchor="end" font-family="Courier New, Courier, monospace" font-size="11" fill="#00C878" >+17.85%</text>
<polyline points="516.0,169.6 521.6,171.2 527.2,169.3 532.8,167.9 538.5,170.8 544.1,171.6 549.7,172.7 555.3,169.7 560.9,169.3 566.5,168.5 572.1,165.2 577.7,165.4 583.4,163.8 589.0,163.1 594.6,161.9 600.2,161.0 605.8,161.5 611.4,162.5 617.0,171.8 622.6,168.9 628.3,171.1 633.9,174.8 639.5,168.6 645.1,167.5 650.7,161.6 656.3,165.3 661.9,167.2 667.5,162.5 673.2,162.9 678.8,169.3 684.4,170.1 690.0,168.6 695.6,171.2 701.2,166.6 706.8,163.4 712.5,166.3 718.1,169.6 723.7,166.9 729.3,170.4 734.9,169.9 740.5,166.8 746.1,166.2 751.7,169.8 757.4,167.7 763.0,168.3 768.6,171.4 774.2,174.2 779.8,174.0 785.4,170.6 791.0,171.5 796.6,175.0 802.3,177.1 807.9,177.6 813.5,179.4 819.1,183.0 824.7,177.3 830.3,176.1 835.9,172.9 841.5,166.7 847.2,168.4 852.8,169.1 858.4,166.9 864.0,167.4" fill="none" stroke="#FF3C3C" stroke-width="1.5" stroke-linejoin="round" stroke-linecap="round"/>
<line x1="16" y1="188" x2="864" y2="188" stroke="#2A3A4A" stroke-width="0.3" />
<text x="16" y="208" text-anchor="start" font-family="Courier New, Courier, monospace" font-size="10" fill="#FFA020" font-weight="bold">QMOM</text>
<text x="72" y="208" text-anchor="start" font-family="Courier New, Courier, monospace" font-size="10" fill="#E8A000" >QUANT MOMENTUM</text>
<text x="340" y="208" text-anchor="end" font-family="Courier New, Courier, monospace" font-size="11" fill="#D8E8F0" font-weight="bold">76.87</text>
<text x="420" y="208" text-anchor="end" font-family="Courier New, Courier, monospace" font-size="11" fill="#FF3C3C" >-0.30%</text>
<text x="500" y="208" text-anchor="end" font-family="Courier New, Courier, monospace" font-size="11" fill="#00C878" >+15.61%</text>
<polyline points="516.0,196.7 521.6,198.3 527.2,196.8 532.8,196.5 538.5,202.2 544.1,204.8 549.7,206.8 555.3,203.4 560.9,202.4 566.5,201.8 572.1,197.0 577.7,198.1 583.4,196.7 589.0,195.7 594.6,196.0 600.2,193.0 605.8,193.6 611.4,194.1 617.0,203.2 622.6,202.1 628.3,204.0 633.9,207.9 639.5,200.6 645.1,198.4 650.7,197.3 656.3,199.0 661.9,200.1 667.5,199.1 673.2,195.8 678.8,200.4 684.4,201.9 690.0,199.1 695.6,203.0 701.2,200.5 706.8,199.2 712.5,202.2 718.1,205.3 723.7,204.0 729.3,206.1 734.9,204.1 740.5,203.2 746.1,205.0 751.7,207.1 757.4,204.7 763.0,206.6 768.6,210.0 774.2,209.0 779.8,209.7 785.4,205.3 791.0,203.8 796.6,205.3 802.3,207.3 807.9,208.5 813.5,212.0 819.1,215.0 824.7,209.1 830.3,209.8 835.9,208.7 841.5,204.2 847.2,205.3 852.8,205.7 858.4,202.7 864.0,203.2" fill="none" stroke="#FF3C3C" stroke-width="1.5" stroke-linejoin="round" stroke-linecap="round"/>
<line x1="16" y1="220" x2="864" y2="220" stroke="#2A3A4A" stroke-width="0.3" />
<rect x="0" y="220" width="880" height="32" fill="#FFFFFF" opacity="0.02"/>
<text x="16" y="240" text-anchor="start" font-family="Courier New, Courier, monospace" font-size="10" fill="#FFA020" font-weight="bold">MTUM</text>
<text x="72" y="240" text-anchor="start" font-family="Courier New, Courier, monospace" font-size="10" fill="#E8A000" >MOMENTUM FACTOR</text>
<text x="340" y="240" text-anchor="end" font-family="Courier New, Courier, monospace" font-size="11" fill="#D8E8F0" font-weight="bold">307.32</text>
<text x="420" y="240" text-anchor="end" font-family="Courier New, Courier, monospace" font-size="11" fill="#00C878" >+0.28%</text>
<text x="500" y="240" text-anchor="end" font-family="Courier New, Courier, monospace" font-size="11" fill="#00C878" >+21.84%</text>
<polyline points="516.0,238.8 521.6,240.0 527.2,239.2 532.8,238.6 538.5,241.7 544.1,243.1 549.7,243.8 555.3,241.3 560.9,240.4 566.5,239.9 572.1,236.2 577.7,236.4 583.4,236.0 589.0,235.5 594.6,235.1 600.2,231.9 605.8,230.7 611.4,232.0 617.0,238.8 622.6,235.8 628.3,237.0 633.9,239.4 639.5,234.4 645.1,232.5 650.7,229.1 656.3,231.8 661.9,231.0 667.5,227.4 673.2,225.0 678.8,230.5 684.4,231.0 690.0,227.1 695.6,231.9 701.2,228.3 706.8,225.8 712.5,231.1 718.1,235.2 723.7,233.3 729.3,236.6 734.9,235.8 740.5,233.5 746.1,233.3 751.7,235.8 757.4,234.0 763.0,236.5 768.6,239.8 774.2,240.3 779.8,240.1 785.4,235.9 791.0,236.0 796.6,236.1 802.3,238.8 807.9,240.2 813.5,243.7 819.1,247.0 824.7,241.5 830.3,241.2 835.9,240.4 841.5,236.3 847.2,237.5 852.8,238.1 858.4,237.7 864.0,238.4" fill="none" stroke="#00C878" stroke-width="1.5" stroke-linejoin="round" stroke-linecap="round"/>
<line x1="16" y1="252" x2="864" y2="252" stroke="#2A3A4A" stroke-width="0.3" />
<text x="16" y="272" text-anchor="start" font-family="Courier New, Courier, monospace" font-size="10" fill="#FFA020" font-weight="bold">QUAL</text>
<text x="72" y="272" text-anchor="start" font-family="Courier New, Courier, monospace" font-size="10" fill="#E8A000" >QUALITY FACTOR</text>
<text x="340" y="272" text-anchor="end" font-family="Courier New, Courier, monospace" font-size="11" fill="#D8E8F0" font-weight="bold">225.74</text>
<text x="420" y="272" text-anchor="end" font-family="Courier New, Courier, monospace" font-size="11" fill="#00C878" >+0.26%</text>
<text x="500" y="272" text-anchor="end" font-family="Courier New, Courier, monospace" font-size="11" fill="#00C878" >+13.77%</text>
<polyline points="516.0,277.7 521.6,277.9 527.2,277.1 532.8,275.3 538.5,277.8 544.1,277.2 549.7,279.0 555.3,275.5 560.9,274.8 566.5,272.6 572.1,270.7 577.7,271.5 583.4,270.6 589.0,271.1 594.6,270.5 600.2,270.7 605.8,270.9 611.4,268.7 617.0,274.3 622.6,273.3 628.3,273.0 633.9,275.3 639.5,270.6 645.1,269.2 650.7,265.7 656.3,267.6 661.9,272.0 667.5,270.1 673.2,270.2 678.8,273.9 684.4,273.7 690.0,273.6 695.6,273.1 701.2,268.2 706.8,265.4 712.5,266.1 718.1,266.7 723.7,266.6 729.3,267.6 734.9,268.7 740.5,266.6 746.1,265.0 751.7,266.4 757.4,265.6 763.0,264.9 768.6,263.8 774.2,267.5 779.8,268.7 785.4,267.1 791.0,268.2 796.6,269.9 802.3,268.9 807.9,268.3 813.5,266.7 819.1,270.0 824.7,266.1 830.3,265.5 835.9,262.3 841.5,258.2 847.2,258.2 852.8,258.0 858.4,257.1 864.0,257.0" fill="none" stroke="#00C878" stroke-width="1.5" stroke-linejoin="round" stroke-linecap="round"/>
<line x1="16" y1="284" x2="864" y2="284" stroke="#2A3A4A" stroke-width="0.3" />
<line x1="0" y1="284" x2="880" y2="284" stroke="#E8A000" stroke-width="0.4" />
<text x="16" y="297" text-anchor="start" font-family="Courier New, Courier, monospace" font-size="8" fill="#506070" >SRC: YAHOO FINANCE  ·  AUTO-UPDATE 22:00 UTC WEEKDAYS  ·  GITHUB.COM/YANKRUZISKI</text>
<text x="864" y="297" text-anchor="end" font-family="Courier New, Courier, monospace" font-size="8" fill="#506070" >2026-08-10</text>
</svg>