<svg xmlns="http://www.w3.org/2000/svg" width="880" height="302" viewBox="0 0 880 302">
<rect width="880" height="302" fill="#040810"/>
<rect x="0.5" y="0.5" width="879" height="301" fill="none" stroke="#E8A000" stroke-width="0.7" opacity="0.5"/>
<rect x="0" y="0" width="880" height="18" fill="#D87000"/>
<text x="16" y="14" text-anchor="start" font-family="Courier New, Courier, monospace" font-size="9" fill="#030608" font-weight="bold">BLOOMBERG</text>
<text x="88" y="14" text-anchor="start" font-family="Courier New, Courier, monospace" font-size="9" fill="#030608" >QUANT MARKET MONITOR</text>
<text x="440" y="14" text-anchor="middle" font-family="Courier New, Courier, monospace" font-size="9" fill="#030608" >EQUITY  &amp;  VOLATILITY  DASHBOARD</text>
<text x="864" y="14" text-anchor="end" font-family="Courier New, Courier, monospace" font-size="9" fill="#030608" >2026-05-26  22:32 UTC</text>
<line x1="0" y1="38" x2="880" y2="38" stroke="#E8A000" stroke-width="0.8" />
<text x="16" y="33" text-anchor="start" font-family="Courier New, Courier, monospace" font-size="9" fill="#506070" >YAN KRUZISKI  ·  VP OF INTELI RESEARCH  ·  SÃO PAULO, BR</text>
<text x="864" y="33" text-anchor="end" font-family="Courier New, Courier, monospace" font-size="9" fill="#506070" >PAGE 1/1</text>
<rect x="0" y="38" width="880" height="22" fill="#E8A000" opacity="0.14"/>
<text x="16" y="54" text-anchor="start" font-family="Courier New, Courier, monospace" font-size="9" fill="#FFA020" font-weight="bold">TICKER</text>
<text x="72" y="54" text-anchor="start" font-family="Courier New, Courier, monospace" font-size="9" fill="#FFA020" font-weight="bold">DESCRIPTION</text>
<text x="340" y="54" text-anchor="end" font-family="Courier New, Courier, monospace" font-size="9" fill="#FFA020" font-weight="bold">LAST</text>
<text x="420" y="54" text-anchor="end" font-family="Courier New, Courier, monospace" font-size="9" fill="#FFA020" font-weight="bold">%CHG</text>
<text x="500" y="54" text-anchor="end" font-family="Courier New, Courier, monospace" font-size="9" fill="#FFA020" font-weight="bold">YTD%</text>
<text x="690" y="54" text-anchor="middle" font-family="Courier New, Courier, monospace" font-size="9" fill="#FFA020" font-weight="bold">3-MONTH</text>
<line x1="0" y1="60" x2="880" y2="60" stroke="#E8A000" stroke-width="0.9" />
<rect x="0" y="60" width="880" height="32" fill="#E8A000" opacity="0.09"/>
<text x="16" y="80" text-anchor="start" font-family="Courier New, Courier, monospace" font-size="10" fill="#FFA020" font-weight="bold">^VIX</text>
<text x="72" y="80" text-anchor="start" font-family="Courier New, Courier, monospace" font-size="10" fill="#E8A000" font-weight="bold">CBOE VOLATILITY INDEX</text>
<text x="340" y="80" text-anchor="end" font-family="Courier New, Courier, monospace" font-size="11" fill="#D8E8F0" font-weight="bold">17.01</text>
<text x="420" y="80" text-anchor="end" font-family="Courier New, Courier, monospace" font-size="11" fill="#FF3C3C" font-weight="bold">+2.53%</text>
<text x="500" y="80" text-anchor="end" font-family="Courier New, Courier, monospace" font-size="10" fill="#FF3C3C" font-weight="bold">NORMAL</text>
<polyline points="516.0,83.9 521.6,82.0 527.2,79.6 532.8,76.4 538.5,80.1 544.1,76.1 549.7,67.4 555.3,73.4 560.9,74.3 566.5,75.4 572.1,70.7 577.7,70.9 583.4,76.5 589.0,78.2 594.6,74.1 600.2,75.6 605.8,71.5 611.4,72.5 617.0,71.2 622.6,73.7 628.3,70.5 633.9,65.0 639.5,65.7 645.1,73.8 650.7,74.9 656.3,75.9 661.9,75.5 667.5,73.0 673.2,80.2 678.8,82.6 684.4,83.0 690.0,83.2 695.6,84.3 701.2,84.6 706.8,84.9 712.5,85.6 718.1,83.5 723.7,82.6 729.3,83.5 734.9,82.9 740.5,83.8 746.1,84.8 751.7,85.1 757.4,83.6 763.0,86.5 768.6,86.4 774.2,84.4 779.8,85.8 785.4,85.8 791.0,86.3 796.6,86.1 802.3,84.3 807.9,84.9 813.5,85.1 819.1,86.0 824.7,84.2 830.3,85.1 835.9,84.8 841.5,85.7 847.2,86.7 852.8,86.8 858.4,87.0 864.0,86.4" fill="none" stroke="#FF3C3C" stroke-width="1.5" stroke-linejoin="round" stroke-linecap="round"/>
<line x1="0" y1="92" x2="880" y2="92" stroke="#E8A000" stroke-width="0.5" />
<rect x="0" y="92" width="880" height="32" fill="#FFFFFF" opacity="0.02"/>
<text x="16" y="112" text-anchor="start" font-family="Courier New, Courier, monospace" font-size="10" fill="#FFA020" font-weight="bold">IBOV</text>
<text x="72" y="112" text-anchor="start" font-family="Courier New, Courier, monospace" font-size="10" fill="#E8A000" >IBOVESPA</text>
<text x="340" y="112" text-anchor="end" font-family="Courier New, Courier, monospace" font-size="11" fill="#D8E8F0" font-weight="bold">176,589</text>
<text x="420" y="112" text-anchor="end" font-family="Courier New, Courier, monospace" font-size="11" fill="#FF3C3C" >-0.69%</text>
<text x="500" y="112" text-anchor="end" font-family="Courier New, Courier, monospace" font-size="11" fill="#00C878" >+10.00%</text>
<polyline points="516.0,103.9 521.8,105.9 527.6,105.4 533.4,111.0 539.2,109.0 545.0,113.4 550.8,114.4 556.6,113.0 562.4,110.7 568.2,110.3 574.0,114.5 579.8,116.0 585.6,113.9 591.4,113.5 597.2,114.2 603.0,113.6 608.8,117.2 614.6,112.1 620.4,111.6 626.2,108.9 632.0,111.4 637.8,112.4 643.6,111.6 649.4,107.1 655.2,106.7 661.0,106.6 666.8,106.5 672.6,106.4 678.4,102.8 684.2,100.2 690.0,98.2 695.8,97.6 701.6,97.0 707.4,97.8 713.2,98.7 719.0,99.6 724.8,99.3 730.6,102.2 736.4,103.6 742.2,104.1 748.0,105.2 753.8,106.1 759.6,109.6 765.4,107.2 771.2,108.8 777.0,107.7 782.8,106.9 788.6,110.9 794.4,110.1 800.2,112.1 806.0,113.5 811.8,116.5 817.6,115.3 823.4,116.3 829.2,116.6 835.0,119.0 840.8,116.2 846.6,116.0 852.4,117.3 858.2,116.2 864.0,116.9" fill="none" stroke="#FF3C3C" stroke-width="1.5" stroke-linejoin="round" stroke-linecap="round"/>
<line x1="16" y1="124" x2="864" y2="124" stroke="#2A3A4A" stroke-width="0.3" />
<text x="16" y="144" text-anchor="start" font-family="Courier New, Courier, monospace" font-size="10" fill="#FFA020" font-weight="bold">SPY</text>
<text x="72" y="144" text-anchor="start" font-family="Courier New, Courier, monospace" font-size="10" fill="#E8A000" >S&P 500</text>
<text x="340" y="144" text-anchor="end" font-family="Courier New, Courier, monospace" font-size="11" fill="#D8E8F0" font-weight="bold">750.59</text>
<text x="420" y="144" text-anchor="end" font-family="Courier New, Courier, monospace" font-size="11" fill="#00C878" >+0.92%</text>
<text x="500" y="144" text-anchor="end" font-family="Courier New, Courier, monospace" font-size="11" fill="#00C878" >+10.17%</text>
<polyline points="516.0,141.3 521.8,141.3 527.6,142.4 533.4,141.5 539.2,142.2 545.0,143.8 550.8,142.8 556.6,143.0 562.4,143.1 568.2,145.0 574.0,145.7 579.8,144.5 585.6,144.1 591.4,145.9 597.2,146.2 603.0,147.9 608.8,146.7 614.6,147.1 620.4,146.4 626.2,148.6 632.0,150.6 637.8,151.0 643.6,147.6 649.4,146.7 655.2,146.6 661.0,146.0 666.8,145.9 672.6,142.8 678.4,142.1 684.2,142.2 690.0,141.0 695.8,139.4 701.6,138.4 707.4,138.1 713.2,136.5 719.0,136.8 724.8,137.6 730.6,136.3 736.4,136.8 742.2,135.8 748.0,135.6 753.8,136.2 759.6,136.2 765.4,134.9 771.2,134.6 777.0,135.0 782.8,134.0 788.6,132.1 794.4,132.5 800.2,131.4 806.0,131.1 811.8,131.3 817.6,130.5 823.4,129.4 829.2,131.1 835.0,131.2 840.8,132.1 846.6,130.7 852.4,130.5 858.2,129.9 864.0,129.0" fill="none" stroke="#00C878" stroke-width="1.5" stroke-linejoin="round" stroke-linecap="round"/>
<line x1="16" y1="156" x2="864" y2="156" stroke="#2A3A4A" stroke-width="0.3" />
<rect x="0" y="156" width="880" height="32" fill="#FFFFFF" opacity="0.02"/>
<text x="16" y="176" text-anchor="start" font-family="Courier New, Courier, monospace" font-size="10" fill="#FFA020" font-weight="bold">QQQ</text>
<text x="72" y="176" text-anchor="start" font-family="Courier New, Courier, monospace" font-size="10" fill="#E8A000" >NASDAQ 100</text>
<text x="340" y="176" text-anchor="end" font-family="Courier New, Courier, monospace" font-size="11" fill="#D8E8F0" font-weight="bold">730.28</text>
<text x="420" y="176" text-anchor="end" font-family="Courier New, Courier, monospace" font-size="11" fill="#00C878" >+2.09%</text>
<text x="500" y="176" text-anchor="end" font-family="Courier New, Courier, monospace" font-size="11" fill="#00C878" >+19.26%</text>
<polyline points="516.0,176.8 521.8,176.7 527.6,177.6 533.4,176.4 539.2,176.6 545.0,177.8 550.8,176.8 556.6,176.8 562.4,176.8 568.2,178.1 574.0,178.6 579.8,177.7 585.6,177.3 591.4,178.4 597.2,178.7 603.0,180.1 608.8,179.2 614.6,179.7 620.4,179.2 626.2,181.0 632.0,182.5 637.8,183.0 643.6,180.6 649.4,179.7 655.2,179.6 661.0,179.1 666.8,179.1 672.6,176.9 678.4,176.4 684.2,176.2 690.0,175.4 695.8,174.0 701.6,172.9 707.4,172.5 713.2,171.4 719.0,171.7 724.8,172.0 730.6,170.6 736.4,171.1 742.2,169.5 748.0,169.4 753.8,170.3 759.6,169.8 765.4,169.0 771.2,168.2 777.0,168.3 782.8,167.2 788.6,165.4 794.4,165.5 800.2,163.4 806.0,163.2 811.8,163.9 817.6,163.0 823.4,162.3 829.2,163.7 835.0,164.1 840.8,164.7 846.6,163.2 852.4,163.0 858.2,162.6 864.0,161.0" fill="none" stroke="#00C878" stroke-width="1.5" stroke-linejoin="round" stroke-linecap="round"/>
<line x1="16" y1="188" x2="864" y2="188" stroke="#2A3A4A" stroke-width="0.3" />
<text x="16" y="208" text-anchor="start" font-family="Courier New, Courier, monospace" font-size="10" fill="#FFA020" font-weight="bold">QMOM</text>
<text x="72" y="208" text-anchor="start" font-family="Courier New, Courier, monospace" font-size="10" fill="#E8A000" >QUANT MOMENTUM</text>
<text x="340" y="208" text-anchor="end" font-family="Courier New, Courier, monospace" font-size="11" fill="#D8E8F0" font-weight="bold">79.80</text>
<text x="420" y="208" text-anchor="end" font-family="Courier New, Courier, monospace" font-size="11" fill="#00C878" >+2.70%</text>
<text x="500" y="208" text-anchor="end" font-family="Courier New, Courier, monospace" font-size="11" fill="#00C878" >+20.02%</text>
<polyline points="516.0,203.0 521.8,202.0 527.6,206.0 533.4,205.2 539.2,208.1 545.0,210.3 550.8,207.6 556.6,206.9 562.4,207.7 568.2,209.9 574.0,211.6 579.8,209.3 585.6,208.5 591.4,209.6 597.2,209.3 603.0,212.6 608.8,210.4 614.6,209.0 620.4,207.6 626.2,211.4 632.0,212.0 637.8,215.0 643.6,209.7 649.4,207.7 655.2,208.0 661.0,207.7 666.8,207.5 672.6,202.9 678.4,202.3 684.2,202.1 690.0,201.1 695.8,200.2 701.6,201.1 707.4,200.8 713.2,198.6 719.0,198.5 724.8,199.9 730.6,198.9 736.4,198.5 742.2,198.4 748.0,198.8 753.8,201.3 759.6,202.3 765.4,198.0 771.2,198.3 777.0,198.1 782.8,196.6 788.6,193.0 794.4,197.1 800.2,195.3 806.0,193.6 811.8,194.6 817.6,193.7 823.4,193.5 829.2,197.2 835.0,198.9 840.8,200.2 846.6,198.0 852.4,197.3 858.2,197.0 864.0,193.8" fill="none" stroke="#00C878" stroke-width="1.5" stroke-linejoin="round" stroke-linecap="round"/>
<line x1="16" y1="220" x2="864" y2="220" stroke="#2A3A4A" stroke-width="0.3" />
<rect x="0" y="220" width="880" height="32" fill="#FFFFFF" opacity="0.02"/>
<text x="16" y="240" text-anchor="start" font-family="Courier New, Courier, monospace" font-size="10" fill="#FFA020" font-weight="bold">MTUM</text>
<text x="72" y="240" text-anchor="start" font-family="Courier New, Courier, monospace" font-size="10" fill="#E8A000" >MOMENTUM FACTOR</text>
<text x="340" y="240" text-anchor="end" font-family="Courier New, Courier, monospace" font-size="11" fill="#D8E8F0" font-weight="bold">314.05</text>
<text x="420" y="240" text-anchor="end" font-family="Courier New, Courier, monospace" font-size="11" fill="#00C878" >+3.64%</text>
<text x="500" y="240" text-anchor="end" font-family="Courier New, Courier, monospace" font-size="11" fill="#00C878" >+24.37%</text>
<polyline points="516.0,241.2 521.8,241.0 527.6,242.8 533.4,241.8 539.2,242.8 545.0,244.2 550.8,242.7 556.6,242.4 562.4,242.3 568.2,243.6 574.0,243.7 579.8,242.8 585.6,242.4 591.4,242.9 597.2,242.7 603.0,244.2 608.8,243.4 614.6,243.1 620.4,242.7 626.2,245.0 632.0,245.7 637.8,247.0 643.6,244.6 649.4,243.2 655.2,243.0 661.0,242.5 666.8,242.1 672.6,239.4 678.4,238.6 684.2,238.4 690.0,237.7 695.8,236.5 701.6,236.6 707.4,236.4 713.2,235.5 719.0,235.7 724.8,236.2 730.6,235.1 736.4,235.1 742.2,233.8 748.0,233.8 753.8,235.0 759.6,234.6 765.4,232.9 771.2,232.7 777.0,232.9 782.8,231.1 788.6,228.9 794.4,230.3 800.2,228.2 806.0,227.0 811.8,227.9 817.6,227.3 823.4,226.8 829.2,229.2 835.0,230.2 840.8,230.7 846.6,228.8 852.4,228.1 858.2,227.8 864.0,225.0" fill="none" stroke="#00C878" stroke-width="1.5" stroke-linejoin="round" stroke-linecap="round"/>
<line x1="16" y1="252" x2="864" y2="252" stroke="#2A3A4A" stroke-width="0.3" />
<text x="16" y="272" text-anchor="start" font-family="Courier New, Courier, monospace" font-size="10" fill="#FFA020" font-weight="bold">QUAL</text>
<text x="72" y="272" text-anchor="start" font-family="Courier New, Courier, monospace" font-size="10" fill="#E8A000" >QUALITY FACTOR</text>
<text x="340" y="272" text-anchor="end" font-family="Courier New, Courier, monospace" font-size="11" fill="#D8E8F0" font-weight="bold">215.79</text>
<text x="420" y="272" text-anchor="end" font-family="Courier New, Courier, monospace" font-size="11" fill="#00C878" >+0.54%</text>
<text x="500" y="272" text-anchor="end" font-family="Courier New, Courier, monospace" font-size="11" fill="#00C878" >+8.57%</text>
<polyline points="516.0,265.5 521.8,265.8 527.6,267.5 533.4,266.6 539.2,267.9 545.0,270.2 550.8,268.6 556.6,269.0 562.4,269.5 568.2,272.0 574.0,272.8 579.8,271.4 585.6,271.2 591.4,273.3 597.2,273.2 603.0,274.9 608.8,273.4 614.6,273.9 620.4,273.3 626.2,276.3 632.0,278.4 637.8,279.0 643.6,275.0 649.4,274.3 655.2,274.0 661.0,273.3 666.8,273.8 672.6,269.6 678.4,268.7 684.2,269.3 690.0,267.9 695.8,266.4 701.6,265.6 707.4,265.6 713.2,263.7 719.0,263.9 724.8,264.8 730.6,263.5 736.4,264.4 742.2,263.3 748.0,263.5 753.8,264.4 759.6,264.5 765.4,263.4 771.2,263.5 777.0,264.3 782.8,263.2 788.6,261.3 794.4,261.8 800.2,261.0 806.0,260.9 811.8,261.1 817.6,260.6 823.4,259.6 829.2,261.0 835.0,260.7 840.8,261.7 846.6,259.7 852.4,259.3 858.2,258.1 864.0,257.0" fill="none" stroke="#00C878" stroke-width="1.5" stroke-linejoin="round" stroke-linecap="round"/>
<line x1="16" y1="284" x2="864" y2="284" stroke="#2A3A4A" stroke-width="0.3" />
<line x1="0" y1="284" x2="880" y2="284" stroke="#E8A000" stroke-width="0.4" />
<text x="16" y="297" text-anchor="start" font-family="Courier New, Courier, monospace" font-size="8" fill="#506070" >SRC: YAHOO FINANCE  ·  AUTO-UPDATE 22:00 UTC WEEKDAYS  ·  GITHUB.COM/YANKRUZISKI</text>
<text x="864" y="297" text-anchor="end" font-family="Courier New, Courier, monospace" font-size="8" fill="#506070" >2026-05-26</text>
</svg>