<svg xmlns="http://www.w3.org/2000/svg" width="880" height="302" viewBox="0 0 880 302">
<rect width="880" height="302" fill="#040810"/>
<rect x="0.5" y="0.5" width="879" height="301" fill="none" stroke="#E8A000" stroke-width="0.7" opacity="0.5"/>
<rect x="0" y="0" width="880" height="18" fill="#D87000"/>
<text x="16" y="14" text-anchor="start" font-family="Courier New, Courier, monospace" font-size="9" fill="#030608" font-weight="bold">BLOOMBERG</text>
<text x="88" y="14" text-anchor="start" font-family="Courier New, Courier, monospace" font-size="9" fill="#030608" >QUANT MARKET MONITOR</text>
<text x="440" y="14" text-anchor="middle" font-family="Courier New, Courier, monospace" font-size="9" fill="#030608" >EQUITY  &amp;  VOLATILITY  DASHBOARD</text>
<text x="864" y="14" text-anchor="end" font-family="Courier New, Courier, monospace" font-size="9" fill="#030608" >2026-06-24  22:30 UTC</text>
<line x1="0" y1="38" x2="880" y2="38" stroke="#E8A000" stroke-width="0.8" />
<text x="16" y="33" text-anchor="start" font-family="Courier New, Courier, monospace" font-size="9" fill="#506070" >YAN KRUZISKI  ·  VP OF INTELI RESEARCH  ·  SÃO PAULO, BR</text>
<text x="864" y="33" text-anchor="end" font-family="Courier New, Courier, monospace" font-size="9" fill="#506070" >PAGE 1/1</text>
<rect x="0" y="38" width="880" height="22" fill="#E8A000" opacity="0.14"/>
<text x="16" y="54" text-anchor="start" font-family="Courier New, Courier, monospace" font-size="9" fill="#FFA020" font-weight="bold">TICKER</text>
<text x="72" y="54" text-anchor="start" font-family="Courier New, Courier, monospace" font-size="9" fill="#FFA020" font-weight="bold">DESCRIPTION</text>
<text x="340" y="54" text-anchor="end" font-family="Courier New, Courier, monospace" font-size="9" fill="#FFA020" font-weight="bold">LAST</text>
<text x="420" y="54" text-anchor="end" font-family="Courier New, Courier, monospace" font-size="9" fill="#FFA020" font-weight="bold">%CHG</text>
<text x="500" y="54" text-anchor="end" font-family="Courier New, Courier, monospace" font-size="9" fill="#FFA020" font-weight="bold">YTD%</text>
<text x="690" y="54" text-anchor="middle" font-family="Courier New, Courier, monospace" font-size="9" fill="#FFA020" font-weight="bold">3-MONTH</text>
<line x1="0" y1="60" x2="880" y2="60" stroke="#E8A000" stroke-width="0.9" />
<rect x="0" y="60" width="880" height="32" fill="#E8A000" opacity="0.09"/>
<text x="16" y="80" text-anchor="start" font-family="Courier New, Courier, monospace" font-size="10" fill="#FFA020" font-weight="bold">^VIX</text>
<text x="72" y="80" text-anchor="start" font-family="Courier New, Courier, monospace" font-size="10" fill="#E8A000" font-weight="bold">CBOE VOLATILITY INDEX</text>
<text x="340" y="80" text-anchor="end" font-family="Courier New, Courier, monospace" font-size="11" fill="#D8E8F0" font-weight="bold">18.63</text>
<text x="420" y="80" text-anchor="end" font-family="Courier New, Courier, monospace" font-size="11" fill="#00C878" font-weight="bold">-4.36%</text>
<text x="500" y="80" text-anchor="end" font-family="Courier New, Courier, monospace" font-size="10" fill="#00C878" font-weight="bold">NORMAL</text>
<polyline points="516.0,70.7 521.4,73.0 526.9,70.0 532.3,65.0 537.8,65.6 543.2,73.1 548.6,74.1 554.1,75.0 559.5,74.6 564.9,72.4 570.4,79.0 575.8,81.2 581.2,81.5 586.7,81.7 592.1,82.7 597.6,83.0 603.0,83.3 608.4,84.0 613.9,82.0 619.3,81.2 624.8,82.0 630.2,81.4 635.6,82.3 641.1,83.2 646.5,83.5 651.9,82.1 657.4,84.8 662.8,84.7 668.2,82.8 673.7,84.1 679.1,84.1 684.6,84.5 690.0,84.4 695.4,82.7 700.9,83.3 706.3,83.4 711.8,84.3 717.2,82.7 722.6,83.5 728.1,83.2 733.5,84.0 738.9,85.0 744.4,85.1 749.8,85.2 755.2,84.6 760.7,85.6 766.1,86.4 771.6,87.0 777.0,86.0 782.4,86.4 787.9,86.0 793.3,86.9 798.8,78.3 804.2,82.0 809.6,80.6 815.1,77.3 820.5,81.2 825.9,83.7 831.4,85.8 836.8,85.5 842.2,82.6 847.7,85.5 853.1,84.3 858.6,81.2 864.0,82.4" fill="none" stroke="#00C878" stroke-width="1.5" stroke-linejoin="round" stroke-linecap="round"/>
<line x1="0" y1="92" x2="880" y2="92" stroke="#E8A000" stroke-width="0.5" />
<rect x="0" y="92" width="880" height="32" fill="#FFFFFF" opacity="0.02"/>
<text x="16" y="112" text-anchor="start" font-family="Courier New, Courier, monospace" font-size="10" fill="#FFA020" font-weight="bold">IBOV</text>
<text x="72" y="112" text-anchor="start" font-family="Courier New, Courier, monospace" font-size="10" fill="#E8A000" >IBOVESPA</text>
<text x="340" y="112" text-anchor="end" font-family="Courier New, Courier, monospace" font-size="11" fill="#D8E8F0" font-weight="bold">170,507</text>
<text x="420" y="112" text-anchor="end" font-family="Courier New, Courier, monospace" font-size="11" fill="#FF3C3C" >-0.44%</text>
<text x="500" y="112" text-anchor="end" font-family="Courier New, Courier, monospace" font-size="11" fill="#00C878" >+6.21%</text>
<polyline points="516.0,108.7 521.6,106.6 527.2,108.5 532.8,109.4 538.5,108.7 544.1,105.1 549.7,104.8 555.3,104.7 560.9,104.6 566.5,104.5 572.1,101.7 577.7,99.6 583.4,98.0 589.0,97.5 594.6,97.0 600.2,97.7 605.8,98.3 611.4,99.1 617.0,98.8 622.6,101.2 628.3,102.3 633.9,102.7 639.5,103.6 645.1,104.3 650.7,107.1 656.3,105.2 661.9,106.5 667.5,105.6 673.2,104.9 678.8,108.2 684.4,107.5 690.0,109.1 695.6,110.3 701.2,112.6 706.8,111.7 712.5,112.5 718.1,112.7 723.7,114.7 729.3,112.4 734.9,112.2 740.5,113.3 746.1,112.4 751.7,113.0 757.4,113.6 763.0,114.1 768.6,115.0 774.2,116.2 779.8,114.7 785.4,117.5 791.0,118.5 796.6,118.7 802.3,117.9 807.9,118.8 813.5,116.7 819.1,116.9 824.7,117.5 830.3,118.0 835.9,118.9 841.5,119.0 847.2,118.8 852.8,117.5 858.4,116.8 864.0,117.4" fill="none" stroke="#FF3C3C" stroke-width="1.5" stroke-linejoin="round" stroke-linecap="round"/>
<line x1="16" y1="124" x2="864" y2="124" stroke="#2A3A4A" stroke-width="0.3" />
<text x="16" y="144" text-anchor="start" font-family="Courier New, Courier, monospace" font-size="10" fill="#FFA020" font-weight="bold">SPY</text>
<text x="72" y="144" text-anchor="start" font-family="Courier New, Courier, monospace" font-size="10" fill="#E8A000" >S&amp;P 500</text>
<text x="340" y="144" text-anchor="end" font-family="Courier New, Courier, monospace" font-size="11" fill="#D8E8F0" font-weight="bold">733.24</text>
<text x="420" y="144" text-anchor="end" font-family="Courier New, Courier, monospace" font-size="11" fill="#FF3C3C" >-0.24%</text>
<text x="500" y="144" text-anchor="end" font-family="Courier New, Courier, monospace" font-size="11" fill="#00C878" >+7.90%</text>
<polyline points="516.0,146.7 521.6,148.7 527.2,150.6 532.8,151.0 538.5,147.8 544.1,147.0 549.7,146.9 555.3,146.4 560.9,146.3 566.5,143.4 572.1,142.7 577.7,142.8 583.4,141.7 589.0,140.2 594.6,139.3 600.2,139.0 605.8,137.5 611.4,137.8 617.0,138.6 622.6,137.3 628.3,137.8 633.9,136.9 639.5,136.7 645.1,137.3 650.7,137.3 656.3,136.1 661.9,135.7 667.5,136.2 673.2,135.2 678.8,133.4 684.4,133.8 690.0,132.8 695.6,132.5 701.2,132.7 706.8,132.0 712.5,131.0 718.1,132.5 723.7,132.6 729.3,133.5 734.9,132.2 740.5,131.9 746.1,131.4 751.7,130.5 757.4,130.6 763.0,129.9 768.6,129.5 774.2,129.2 779.8,129.0 785.4,129.9 791.0,129.4 796.6,132.8 802.3,132.5 807.9,132.9 813.5,134.9 819.1,132.8 824.7,132.1 830.3,129.8 835.9,130.6 841.5,132.2 847.2,130.9 852.8,131.3 858.4,133.2 864.0,133.2" fill="none" stroke="#FF3C3C" stroke-width="1.5" stroke-linejoin="round" stroke-linecap="round"/>
<line x1="16" y1="156" x2="864" y2="156" stroke="#2A3A4A" stroke-width="0.3" />
<rect x="0" y="156" width="880" height="32" fill="#FFFFFF" opacity="0.02"/>
<text x="16" y="176" text-anchor="start" font-family="Courier New, Courier, monospace" font-size="10" fill="#FFA020" font-weight="bold">QQQ</text>
<text x="72" y="176" text-anchor="start" font-family="Courier New, Courier, monospace" font-size="10" fill="#E8A000" >NASDAQ 100</text>
<text x="340" y="176" text-anchor="end" font-family="Courier New, Courier, monospace" font-size="11" fill="#D8E8F0" font-weight="bold">710.62</text>
<text x="420" y="176" text-anchor="end" font-family="Courier New, Courier, monospace" font-size="11" fill="#FF3C3C" >-0.76%</text>
<text x="500" y="176" text-anchor="end" font-family="Courier New, Courier, monospace" font-size="11" fill="#00C878" >+16.18%</text>
<polyline points="516.0,179.5 521.6,181.2 527.2,182.5 532.8,183.0 538.5,180.8 544.1,180.0 549.7,179.9 555.3,179.5 560.9,179.5 566.5,177.4 572.1,176.9 577.7,176.8 583.4,176.1 589.0,174.8 594.6,173.7 600.2,173.4 605.8,172.4 611.4,172.6 617.0,172.9 622.6,171.7 628.3,172.1 633.9,170.6 639.5,170.6 645.1,171.4 650.7,170.9 656.3,170.2 661.9,169.4 667.5,169.6 673.2,168.6 678.8,166.9 684.4,167.0 690.0,165.1 695.6,164.8 701.2,165.6 706.8,164.7 712.5,164.1 718.1,165.4 723.7,165.7 729.3,166.2 734.9,164.9 740.5,164.7 746.1,164.4 751.7,162.9 757.4,163.0 763.0,162.2 768.6,161.9 774.2,161.4 779.8,161.0 785.4,161.2 791.0,161.6 796.6,165.8 802.3,164.5 807.9,165.5 813.5,167.1 819.1,164.4 824.7,163.9 830.3,161.3 835.9,162.9 841.5,163.8 847.2,161.6 852.8,161.9 858.4,164.7 864.0,165.1" fill="none" stroke="#FF3C3C" stroke-width="1.5" stroke-linejoin="round" stroke-linecap="round"/>
<line x1="16" y1="188" x2="864" y2="188" stroke="#2A3A4A" stroke-width="0.3" />
<text x="16" y="208" text-anchor="start" font-family="Courier New, Courier, monospace" font-size="10" fill="#FFA020" font-weight="bold">QMOM</text>
<text x="72" y="208" text-anchor="start" font-family="Courier New, Courier, monospace" font-size="10" fill="#E8A000" >QUANT MOMENTUM</text>
<text x="340" y="208" text-anchor="end" font-family="Courier New, Courier, monospace" font-size="11" fill="#D8E8F0" font-weight="bold">77.48</text>
<text x="420" y="208" text-anchor="end" font-family="Courier New, Courier, monospace" font-size="11" fill="#FF3C3C" >-0.92%</text>
<text x="500" y="208" text-anchor="end" font-family="Courier New, Courier, monospace" font-size="11" fill="#00C878" >+16.53%</text>
<polyline points="516.0,208.2 521.6,211.7 527.2,212.3 532.8,215.0 538.5,210.1 544.1,208.3 549.7,208.5 555.3,208.3 560.9,208.1 566.5,203.8 572.1,203.2 577.7,203.1 583.4,202.2 589.0,201.4 594.6,202.1 600.2,201.9 605.8,199.9 611.4,199.8 617.0,201.0 622.6,200.1 628.3,199.7 633.9,199.7 639.5,200.0 645.1,202.3 650.7,203.3 656.3,199.3 661.9,199.6 667.5,199.4 673.2,198.1 678.8,194.7 684.4,198.5 690.0,196.9 695.6,195.3 701.2,196.2 706.8,195.3 712.5,195.1 718.1,198.6 723.7,200.2 729.3,201.4 734.9,199.3 740.5,198.7 746.1,198.4 751.7,195.4 757.4,196.1 763.0,195.2 768.6,194.6 774.2,194.8 779.8,193.0 785.4,193.4 791.0,193.7 796.6,199.2 802.3,198.5 807.9,199.7 813.5,202.0 819.1,197.6 824.7,196.3 830.3,195.6 835.9,196.7 841.5,197.3 847.2,196.7 852.8,194.7 858.4,197.5 864.0,198.4" fill="none" stroke="#FF3C3C" stroke-width="1.5" stroke-linejoin="round" stroke-linecap="round"/>
<line x1="16" y1="220" x2="864" y2="220" stroke="#2A3A4A" stroke-width="0.3" />
<rect x="0" y="220" width="880" height="32" fill="#FFFFFF" opacity="0.02"/>
<text x="16" y="240" text-anchor="start" font-family="Courier New, Courier, monospace" font-size="10" fill="#FFA020" font-weight="bold">MTUM</text>
<text x="72" y="240" text-anchor="start" font-family="Courier New, Courier, monospace" font-size="10" fill="#E8A000" >MOMENTUM FACTOR</text>
<text x="340" y="240" text-anchor="end" font-family="Courier New, Courier, monospace" font-size="11" fill="#D8E8F0" font-weight="bold">328.41</text>
<text x="420" y="240" text-anchor="end" font-family="Courier New, Courier, monospace" font-size="11" fill="#FF3C3C" >-0.36%</text>
<text x="500" y="240" text-anchor="end" font-family="Courier New, Courier, monospace" font-size="11" fill="#00C878" >+30.21%</text>
<polyline points="516.0,243.9 521.6,245.6 527.2,246.0 532.8,247.0 538.5,245.2 544.1,244.2 549.7,244.1 555.3,243.8 560.9,243.5 566.5,241.5 572.1,240.9 577.7,240.7 583.4,240.2 589.0,239.4 594.6,239.5 600.2,239.3 605.8,238.6 611.4,238.8 617.0,239.2 622.6,238.3 628.3,238.4 633.9,237.4 639.5,237.4 645.1,238.3 650.7,238.0 656.3,236.8 661.9,236.6 667.5,236.7 673.2,235.4 678.8,233.9 684.4,234.9 690.0,233.4 695.6,232.5 701.2,233.1 706.8,232.7 712.5,232.3 718.1,234.1 723.7,234.8 729.3,235.2 734.9,233.8 740.5,233.3 746.1,233.0 751.7,231.0 757.4,231.2 763.0,230.9 768.6,230.7 774.2,230.5 779.8,228.7 785.4,228.1 791.0,228.8 796.6,232.5 802.3,230.8 807.9,231.5 813.5,232.8 819.1,230.1 824.7,229.1 830.3,227.2 835.9,228.7 841.5,228.3 847.2,226.3 852.8,225.0 858.4,228.0 864.0,228.2" fill="none" stroke="#FF3C3C" stroke-width="1.5" stroke-linejoin="round" stroke-linecap="round"/>
<line x1="16" y1="252" x2="864" y2="252" stroke="#2A3A4A" stroke-width="0.3" />
<text x="16" y="272" text-anchor="start" font-family="Courier New, Courier, monospace" font-size="10" fill="#FFA020" font-weight="bold">QUAL</text>
<text x="72" y="272" text-anchor="start" font-family="Courier New, Courier, monospace" font-size="10" fill="#E8A000" >QUALITY FACTOR</text>
<text x="340" y="272" text-anchor="end" font-family="Courier New, Courier, monospace" font-size="11" fill="#D8E8F0" font-weight="bold">213.19</text>
<text x="420" y="272" text-anchor="end" font-family="Courier New, Courier, monospace" font-size="11" fill="#FF3C3C" >-1.00%</text>
<text x="500" y="272" text-anchor="end" font-family="Courier New, Courier, monospace" font-size="11" fill="#00C878" >+7.45%</text>
<polyline points="516.0,273.9 521.6,276.6 527.2,278.5 532.8,279.0 538.5,275.5 544.1,274.8 549.7,274.6 555.3,274.0 560.9,274.4 566.5,270.7 572.1,269.9 577.7,270.4 583.4,269.2 589.0,267.8 594.6,267.1 600.2,267.1 605.8,265.4 611.4,265.6 617.0,266.4 622.6,265.3 628.3,266.1 633.9,265.1 639.5,265.2 645.1,266.1 650.7,266.2 656.3,265.2 661.9,265.3 667.5,266.0 673.2,265.0 678.8,263.3 684.4,263.7 690.0,263.1 695.6,263.0 701.2,263.1 706.8,262.7 712.5,261.8 718.1,263.1 723.7,262.8 729.3,263.7 734.9,261.9 740.5,261.6 746.1,260.5 751.7,259.5 757.4,259.9 763.0,259.5 768.6,259.7 774.2,259.4 779.8,259.5 785.4,259.6 791.0,258.5 796.6,261.3 802.3,260.8 807.9,260.6 813.5,261.8 819.1,259.5 824.7,258.8 830.3,257.0 835.9,258.0 841.5,260.2 847.2,259.2 852.8,259.2 858.4,261.1 864.0,261.0" fill="none" stroke="#FF3C3C" stroke-width="1.5" stroke-linejoin="round" stroke-linecap="round"/>
<line x1="16" y1="284" x2="864" y2="284" stroke="#2A3A4A" stroke-width="0.3" />
<line x1="0" y1="284" x2="880" y2="284" stroke="#E8A000" stroke-width="0.4" />
<text x="16" y="297" text-anchor="start" font-family="Courier New, Courier, monospace" font-size="8" fill="#506070" >SRC: YAHOO FINANCE  ·  AUTO-UPDATE 22:00 UTC WEEKDAYS  ·  GITHUB.COM/YANKRUZISKI</text>
<text x="864" y="297" text-anchor="end" font-family="Courier New, Courier, monospace" font-size="8" fill="#506070" >2026-06-24</text>
</svg>