<svg xmlns="http://www.w3.org/2000/svg" width="880" height="302" viewBox="0 0 880 302">
<rect width="880" height="302" fill="#040810"/>
<rect x="0.5" y="0.5" width="879" height="301" fill="none" stroke="#E8A000" stroke-width="0.7" opacity="0.5"/>
<rect x="0" y="0" width="880" height="18" fill="#D87000"/>
<text x="16" y="14" text-anchor="start" font-family="Courier New, Courier, monospace" font-size="9" fill="#030608" font-weight="bold">BLOOMBERG</text>
<text x="88" y="14" text-anchor="start" font-family="Courier New, Courier, monospace" font-size="9" fill="#030608" >QUANT MARKET MONITOR</text>
<text x="440" y="14" text-anchor="middle" font-family="Courier New, Courier, monospace" font-size="9" fill="#030608" >EQUITY  &amp;  VOLATILITY  DASHBOARD</text>
<text x="864" y="14" text-anchor="end" font-family="Courier New, Courier, monospace" font-size="9" fill="#030608" >2026-07-17  22:49 UTC</text>
<line x1="0" y1="38" x2="880" y2="38" stroke="#E8A000" stroke-width="0.8" />
<text x="16" y="33" text-anchor="start" font-family="Courier New, Courier, monospace" font-size="9" fill="#506070" >YAN KRUZISKI  ·  VP OF INTELI RESEARCH  ·  SÃO PAULO, BR</text>
<text x="864" y="33" text-anchor="end" font-family="Courier New, Courier, monospace" font-size="9" fill="#506070" >PAGE 1/1</text>
<rect x="0" y="38" width="880" height="22" fill="#E8A000" opacity="0.14"/>
<text x="16" y="54" text-anchor="start" font-family="Courier New, Courier, monospace" font-size="9" fill="#FFA020" font-weight="bold">TICKER</text>
<text x="72" y="54" text-anchor="start" font-family="Courier New, Courier, monospace" font-size="9" fill="#FFA020" font-weight="bold">DESCRIPTION</text>
<text x="340" y="54" text-anchor="end" font-family="Courier New, Courier, monospace" font-size="9" fill="#FFA020" font-weight="bold">LAST</text>
<text x="420" y="54" text-anchor="end" font-family="Courier New, Courier, monospace" font-size="9" fill="#FFA020" font-weight="bold">%CHG</text>
<text x="500" y="54" text-anchor="end" font-family="Courier New, Courier, monospace" font-size="9" fill="#FFA020" font-weight="bold">YTD%</text>
<text x="690" y="54" text-anchor="middle" font-family="Courier New, Courier, monospace" font-size="9" fill="#FFA020" font-weight="bold">3-MONTH</text>
<line x1="0" y1="60" x2="880" y2="60" stroke="#E8A000" stroke-width="0.9" />
<rect x="0" y="60" width="880" height="32" fill="#E8A000" opacity="0.09"/>
<text x="16" y="80" text-anchor="start" font-family="Courier New, Courier, monospace" font-size="10" fill="#FFA020" font-weight="bold">^VIX</text>
<text x="72" y="80" text-anchor="start" font-family="Courier New, Courier, monospace" font-size="10" fill="#E8A000" font-weight="bold">CBOE VOLATILITY INDEX</text>
<text x="340" y="80" text-anchor="end" font-family="Courier New, Courier, monospace" font-size="11" fill="#D8E8F0" font-weight="bold">18.77</text>
<text x="420" y="80" text-anchor="end" font-family="Courier New, Courier, monospace" font-size="11" fill="#FF3C3C" font-weight="bold">+12.33%</text>
<text x="500" y="80" text-anchor="end" font-family="Courier New, Courier, monospace" font-size="10" fill="#FF3C3C" font-weight="bold">NORMAL</text>
<polyline points="516.0,79.5 521.5,75.3 527.0,73.3 532.6,75.1 538.1,73.9 543.6,75.7 549.1,77.9 554.7,78.4 560.2,75.4 565.7,81.3 571.2,81.0 576.8,77.0 582.3,79.8 587.8,79.8 593.3,80.7 598.9,80.4 604.4,76.7 609.9,77.9 615.4,78.3 621.0,80.2 626.5,76.6 632.0,78.5 637.5,77.7 643.0,79.6 648.6,81.7 654.1,81.9 659.6,82.2 665.1,80.9 670.7,83.1 676.2,84.8 681.7,86.1 687.2,83.9 692.8,84.7 698.3,83.8 703.8,85.9 709.3,67.2 714.9,75.1 720.4,72.2 725.9,65.0 731.4,73.5 737.0,78.9 742.5,83.4 748.0,82.8 753.5,76.6 759.0,82.8 764.6,80.1 770.1,73.4 775.6,76.0 781.1,75.2 786.7,76.7 792.2,79.0 797.7,82.7 803.2,82.2 808.8,83.6 814.3,85.3 819.8,83.6 825.3,81.3 830.9,84.5 836.4,87.0 841.9,80.5 847.4,82.5 853.0,85.0 858.5,81.8 864.0,75.6" fill="none" stroke="#FF3C3C" stroke-width="1.5" stroke-linejoin="round" stroke-linecap="round"/>
<line x1="0" y1="92" x2="880" y2="92" stroke="#E8A000" stroke-width="0.5" />
<rect x="0" y="92" width="880" height="32" fill="#FFFFFF" opacity="0.02"/>
<text x="16" y="112" text-anchor="start" font-family="Courier New, Courier, monospace" font-size="10" fill="#FFA020" font-weight="bold">IBOV</text>
<text x="72" y="112" text-anchor="start" font-family="Courier New, Courier, monospace" font-size="10" fill="#E8A000" >IBOVESPA</text>
<text x="340" y="112" text-anchor="end" font-family="Courier New, Courier, monospace" font-size="11" fill="#D8E8F0" font-weight="bold">173,714</text>
<text x="420" y="112" text-anchor="end" font-family="Courier New, Courier, monospace" font-size="11" fill="#FF3C3C" >-0.06%</text>
<text x="500" y="112" text-anchor="end" font-family="Courier New, Courier, monospace" font-size="11" fill="#00C878" >+8.21%</text>
<polyline points="516.0,97.3 521.6,97.0 527.2,99.6 532.8,100.8 538.5,101.3 544.1,102.2 549.7,102.9 555.3,106.0 560.9,104.0 566.5,105.3 572.1,104.4 577.7,103.7 583.4,107.2 589.0,106.5 594.6,108.2 600.2,109.5 605.8,112.0 611.4,111.0 617.0,111.9 622.6,112.1 628.3,114.3 633.9,111.8 639.5,111.6 645.1,112.7 650.7,111.8 656.3,112.4 661.9,113.1 667.5,113.6 673.2,114.6 678.8,115.9 684.4,114.3 690.0,117.4 695.6,118.4 701.2,118.7 706.8,117.8 712.5,118.7 718.1,116.5 723.7,116.7 729.3,117.3 734.9,117.9 740.5,118.9 746.1,119.0 751.7,118.8 757.4,117.3 763.0,116.6 768.6,117.2 774.2,116.1 779.8,115.0 785.4,115.1 791.0,116.0 796.6,116.3 802.3,115.4 807.9,114.3 813.5,115.7 819.1,116.0 824.7,117.1 830.3,115.5 835.9,111.4 841.5,113.1 847.2,112.4 852.8,112.9 858.4,114.6 864.0,114.7" fill="none" stroke="#FF3C3C" stroke-width="1.5" stroke-linejoin="round" stroke-linecap="round"/>
<line x1="16" y1="124" x2="864" y2="124" stroke="#2A3A4A" stroke-width="0.3" />
<text x="16" y="144" text-anchor="start" font-family="Courier New, Courier, monospace" font-size="10" fill="#FFA020" font-weight="bold">SPY</text>
<text x="72" y="144" text-anchor="start" font-family="Courier New, Courier, monospace" font-size="10" fill="#E8A000" >S&amp;P 500</text>
<text x="340" y="144" text-anchor="end" font-family="Courier New, Courier, monospace" font-size="11" fill="#D8E8F0" font-weight="bold">743.29</text>
<text x="420" y="144" text-anchor="end" font-family="Courier New, Courier, monospace" font-size="11" fill="#FF3C3C" >-0.78%</text>
<text x="500" y="144" text-anchor="end" font-family="Courier New, Courier, monospace" font-size="11" fill="#00C878" >+9.38%</text>
<polyline points="516.0,149.2 521.7,151.0 527.4,148.2 533.1,149.3 538.8,147.1 544.5,146.6 550.2,148.0 555.9,148.0 561.6,145.2 567.3,144.4 573.0,145.5 578.8,143.2 584.5,139.2 590.2,140.1 595.9,137.7 601.6,137.0 607.3,137.5 613.0,135.8 618.7,133.5 624.4,137.1 630.1,137.3 635.8,139.2 641.5,136.3 647.2,135.7 652.9,134.5 658.6,132.6 664.3,132.6 670.0,131.0 675.7,130.2 681.4,129.4 687.1,129.0 692.9,131.1 698.6,130.0 704.3,137.7 710.0,137.1 715.7,137.9 721.4,142.5 727.1,137.6 732.8,136.1 738.5,130.9 744.2,132.7 749.9,136.4 755.6,133.3 761.3,134.3 767.0,138.6 772.7,138.7 778.4,138.3 784.1,140.4 789.8,135.6 795.5,133.3 801.2,133.7 807.0,134.1 812.7,131.5 818.4,132.9 824.1,133.9 829.8,131.3 835.5,130.1 841.2,132.4 846.9,131.3 852.6,130.1 858.3,131.7 864.0,134.7" fill="none" stroke="#FF3C3C" stroke-width="1.5" stroke-linejoin="round" stroke-linecap="round"/>
<line x1="16" y1="156" x2="864" y2="156" stroke="#2A3A4A" stroke-width="0.3" />
<rect x="0" y="156" width="880" height="32" fill="#FFFFFF" opacity="0.02"/>
<text x="16" y="176" text-anchor="start" font-family="Courier New, Courier, monospace" font-size="10" fill="#FFA020" font-weight="bold">QQQ</text>
<text x="72" y="176" text-anchor="start" font-family="Courier New, Courier, monospace" font-size="10" fill="#E8A000" >NASDAQ 100</text>
<text x="340" y="176" text-anchor="end" font-family="Courier New, Courier, monospace" font-size="11" fill="#D8E8F0" font-weight="bold">695.33</text>
<text x="420" y="176" text-anchor="end" font-family="Courier New, Courier, monospace" font-size="11" fill="#FF3C3C" >-1.08%</text>
<text x="500" y="176" text-anchor="end" font-family="Courier New, Courier, monospace" font-size="11" fill="#00C878" >+13.68%</text>
<polyline points="516.0,182.5 521.7,183.0 527.4,180.7 533.1,181.5 538.8,178.8 544.5,178.7 550.2,180.1 555.9,179.3 561.6,177.9 567.3,176.6 573.0,176.8 578.8,174.9 584.5,171.9 590.2,172.1 595.9,168.5 601.6,168.1 607.3,169.4 613.0,167.8 618.7,166.7 624.4,169.0 630.1,169.7 635.8,170.6 641.5,168.1 647.2,167.8 652.9,167.2 658.6,164.4 664.3,164.6 670.0,163.3 675.7,162.7 681.4,161.7 687.1,161.0 692.9,161.4 698.6,162.2 704.3,169.9 710.0,167.5 715.7,169.3 721.4,172.3 727.1,167.3 732.8,166.4 738.5,161.5 744.2,164.5 749.9,166.1 755.6,162.2 761.3,162.6 767.0,167.9 772.7,168.5 778.4,167.3 784.1,169.4 789.8,165.6 795.5,162.9 801.2,165.4 807.0,168.1 812.7,165.9 818.4,168.8 824.1,168.3 829.8,165.8 835.5,165.3 841.2,168.3 846.9,166.5 852.6,167.0 858.3,169.5 864.0,171.8" fill="none" stroke="#FF3C3C" stroke-width="1.5" stroke-linejoin="round" stroke-linecap="round"/>
<line x1="16" y1="188" x2="864" y2="188" stroke="#2A3A4A" stroke-width="0.3" />
<text x="16" y="208" text-anchor="start" font-family="Courier New, Courier, monospace" font-size="10" fill="#FFA020" font-weight="bold">QMOM</text>
<text x="72" y="208" text-anchor="start" font-family="Courier New, Courier, monospace" font-size="10" fill="#E8A000" >QUANT MOMENTUM</text>
<text x="340" y="208" text-anchor="end" font-family="Courier New, Courier, monospace" font-size="11" fill="#D8E8F0" font-weight="bold">74.13</text>
<text x="420" y="208" text-anchor="end" font-family="Courier New, Courier, monospace" font-size="11" fill="#00C878" >+0.70%</text>
<text x="500" y="208" text-anchor="end" font-family="Courier New, Courier, monospace" font-size="11" fill="#00C878" >+11.50%</text>
<polyline points="516.0,207.5 521.7,210.1 527.4,208.2 533.1,207.4 538.8,207.3 544.5,208.0 550.2,212.9 555.9,215.0 561.6,206.5 567.3,207.1 573.0,206.6 578.8,203.8 584.5,196.6 590.2,204.6 595.9,201.2 601.6,197.8 607.3,199.8 613.0,197.9 618.7,197.5 624.4,204.8 630.1,208.3 635.8,210.8 641.5,206.5 647.2,205.1 652.9,204.4 658.6,198.1 664.3,199.6 670.0,197.7 675.7,196.4 681.4,196.9 687.1,193.0 692.9,193.8 698.6,194.5 704.3,206.2 710.0,204.8 715.7,207.2 721.4,212.2 727.1,202.8 732.8,200.0 738.5,198.5 744.2,200.8 749.9,202.2 755.6,200.8 761.3,196.6 767.0,202.5 772.7,204.5 778.4,200.8 784.1,205.9 789.8,202.7 795.5,201.1 801.2,204.8 807.0,208.9 812.7,207.1 818.4,209.9 824.1,207.3 829.8,206.2 835.5,208.4 841.2,211.2 846.9,208.1 852.6,210.6 858.3,215.0 864.0,213.6" fill="none" stroke="#00C878" stroke-width="1.5" stroke-linejoin="round" stroke-linecap="round"/>
<line x1="16" y1="220" x2="864" y2="220" stroke="#2A3A4A" stroke-width="0.3" />
<rect x="0" y="220" width="880" height="32" fill="#FFFFFF" opacity="0.02"/>
<text x="16" y="240" text-anchor="start" font-family="Courier New, Courier, monospace" font-size="10" fill="#FFA020" font-weight="bold">MTUM</text>
<text x="72" y="240" text-anchor="start" font-family="Courier New, Courier, monospace" font-size="10" fill="#E8A000" >MOMENTUM FACTOR</text>
<text x="340" y="240" text-anchor="end" font-family="Courier New, Courier, monospace" font-size="11" fill="#D8E8F0" font-weight="bold">302.09</text>
<text x="420" y="240" text-anchor="end" font-family="Courier New, Courier, monospace" font-size="11" fill="#00C878" >+0.07%</text>
<text x="500" y="240" text-anchor="end" font-family="Courier New, Courier, monospace" font-size="11" fill="#00C878" >+19.77%</text>
<polyline points="516.0,246.4 521.7,247.0 527.4,245.7 533.1,245.7 538.8,244.2 544.5,244.3 550.2,245.6 555.9,245.2 561.6,243.3 567.3,243.0 573.0,243.2 578.8,241.2 584.5,238.8 590.2,240.4 595.9,238.0 601.6,236.6 607.3,237.6 613.0,236.9 618.7,236.4 624.4,239.1 630.1,240.2 635.8,240.8 641.5,238.7 647.2,237.9 652.9,237.5 658.6,234.4 664.3,234.6 670.0,234.2 675.7,233.9 681.4,233.5 687.1,230.8 692.9,229.8 698.6,230.9 704.3,236.6 710.0,234.1 715.7,235.1 721.4,237.1 727.1,232.9 732.8,231.3 738.5,228.4 744.2,230.7 749.9,230.0 755.6,227.0 761.3,225.0 767.0,229.6 772.7,230.0 778.4,226.8 784.1,230.8 789.8,227.7 795.5,225.7 801.2,230.1 807.0,233.5 812.7,232.0 818.4,234.8 824.1,234.0 829.8,232.1 835.5,232.0 841.2,234.1 846.9,232.6 852.6,234.7 858.3,237.4 864.0,237.8" fill="none" stroke="#00C878" stroke-width="1.5" stroke-linejoin="round" stroke-linecap="round"/>
<line x1="16" y1="252" x2="864" y2="252" stroke="#2A3A4A" stroke-width="0.3" />
<text x="16" y="272" text-anchor="start" font-family="Courier New, Courier, monospace" font-size="10" fill="#FFA020" font-weight="bold">QUAL</text>
<text x="72" y="272" text-anchor="start" font-family="Courier New, Courier, monospace" font-size="10" fill="#E8A000" >QUALITY FACTOR</text>
<text x="340" y="272" text-anchor="end" font-family="Courier New, Courier, monospace" font-size="11" fill="#D8E8F0" font-weight="bold">217.87</text>
<text x="420" y="272" text-anchor="end" font-family="Courier New, Courier, monospace" font-size="11" fill="#FF3C3C" >-1.25%</text>
<text x="500" y="272" text-anchor="end" font-family="Courier New, Courier, monospace" font-size="11" fill="#00C878" >+9.81%</text>
<polyline points="516.0,277.4 521.7,279.0 527.4,276.6 533.1,278.4 538.8,276.3 544.5,276.6 550.2,278.4 555.9,278.6 561.6,276.5 567.3,276.6 573.0,278.1 578.8,276.1 584.5,272.5 590.2,273.4 595.9,272.0 601.6,271.8 607.3,272.0 613.0,271.2 618.7,269.3 624.4,272.0 630.1,271.3 635.8,273.2 641.5,269.4 647.2,268.7 652.9,266.4 658.6,264.4 664.3,265.2 670.0,264.3 675.7,264.8 681.4,264.2 687.1,264.4 692.9,264.7 698.6,262.3 704.3,268.2 710.0,267.2 715.7,266.8 721.4,269.3 727.1,264.3 732.8,262.8 738.5,259.1 744.2,261.1 749.9,265.8 755.6,263.7 761.3,263.8 767.0,267.8 772.7,267.6 778.4,267.5 784.1,266.9 789.8,261.8 795.5,258.7 801.2,259.5 807.0,260.2 812.7,260.1 818.4,261.1 824.1,262.3 829.8,260.1 835.5,258.4 841.2,259.8 846.9,259.0 852.6,258.2 858.3,257.0 864.0,260.9" fill="none" stroke="#FF3C3C" stroke-width="1.5" stroke-linejoin="round" stroke-linecap="round"/>
<line x1="16" y1="284" x2="864" y2="284" stroke="#2A3A4A" stroke-width="0.3" />
<line x1="0" y1="284" x2="880" y2="284" stroke="#E8A000" stroke-width="0.4" />
<text x="16" y="297" text-anchor="start" font-family="Courier New, Courier, monospace" font-size="8" fill="#506070" >SRC: YAHOO FINANCE  ·  AUTO-UPDATE 22:00 UTC WEEKDAYS  ·  GITHUB.COM/YANKRUZISKI</text>
<text x="864" y="297" text-anchor="end" font-family="Courier New, Courier, monospace" font-size="8" fill="#506070" >2026-07-17</text>
</svg>