<svg xmlns="http://www.w3.org/2000/svg" width="880" height="302" viewBox="0 0 880 302">
<rect width="880" height="302" fill="#040810"/>
<rect x="0.5" y="0.5" width="879" height="301" fill="none" stroke="#E8A000" stroke-width="0.7" opacity="0.5"/>
<rect x="0" y="0" width="880" height="18" fill="#D87000"/>
<text x="16" y="14" text-anchor="start" font-family="Courier New, Courier, monospace" font-size="9" fill="#030608" font-weight="bold">BLOOMBERG</text>
<text x="88" y="14" text-anchor="start" font-family="Courier New, Courier, monospace" font-size="9" fill="#030608" >QUANT MARKET MONITOR</text>
<text x="440" y="14" text-anchor="middle" font-family="Courier New, Courier, monospace" font-size="9" fill="#030608" >EQUITY  &amp;  VOLATILITY  DASHBOARD</text>
<text x="864" y="14" text-anchor="end" font-family="Courier New, Courier, monospace" font-size="9" fill="#030608" >2026-07-21  22:55 UTC</text>
<line x1="0" y1="38" x2="880" y2="38" stroke="#E8A000" stroke-width="0.8" />
<text x="16" y="33" text-anchor="start" font-family="Courier New, Courier, monospace" font-size="9" fill="#506070" >YAN KRUZISKI  ·  VP OF INTELI RESEARCH  ·  SÃO PAULO, BR</text>
<text x="864" y="33" text-anchor="end" font-family="Courier New, Courier, monospace" font-size="9" fill="#506070" >PAGE 1/1</text>
<rect x="0" y="38" width="880" height="22" fill="#E8A000" opacity="0.14"/>
<text x="16" y="54" text-anchor="start" font-family="Courier New, Courier, monospace" font-size="9" fill="#FFA020" font-weight="bold">TICKER</text>
<text x="72" y="54" text-anchor="start" font-family="Courier New, Courier, monospace" font-size="9" fill="#FFA020" font-weight="bold">DESCRIPTION</text>
<text x="340" y="54" text-anchor="end" font-family="Courier New, Courier, monospace" font-size="9" fill="#FFA020" font-weight="bold">LAST</text>
<text x="420" y="54" text-anchor="end" font-family="Courier New, Courier, monospace" font-size="9" fill="#FFA020" font-weight="bold">%CHG</text>
<text x="500" y="54" text-anchor="end" font-family="Courier New, Courier, monospace" font-size="9" fill="#FFA020" font-weight="bold">YTD%</text>
<text x="690" y="54" text-anchor="middle" font-family="Courier New, Courier, monospace" font-size="9" fill="#FFA020" font-weight="bold">3-MONTH</text>
<line x1="0" y1="60" x2="880" y2="60" stroke="#E8A000" stroke-width="0.9" />
<rect x="0" y="60" width="880" height="32" fill="#E8A000" opacity="0.09"/>
<text x="16" y="80" text-anchor="start" font-family="Courier New, Courier, monospace" font-size="10" fill="#FFA020" font-weight="bold">^VIX</text>
<text x="72" y="80" text-anchor="start" font-family="Courier New, Courier, monospace" font-size="10" fill="#E8A000" font-weight="bold">CBOE VOLATILITY INDEX</text>
<text x="340" y="80" text-anchor="end" font-family="Courier New, Courier, monospace" font-size="11" fill="#D8E8F0" font-weight="bold">17.05</text>
<text x="420" y="80" text-anchor="end" font-family="Courier New, Courier, monospace" font-size="11" fill="#00C878" font-weight="bold">-8.58%</text>
<text x="500" y="80" text-anchor="end" font-family="Courier New, Courier, monospace" font-size="10" fill="#00C878" font-weight="bold">NORMAL</text>
<polyline points="516.0,73.3 521.5,75.1 527.0,73.9 532.6,75.7 538.1,77.9 543.6,78.4 549.1,75.4 554.7,81.3 560.2,81.0 565.7,77.0 571.2,79.8 576.8,79.8 582.3,80.7 587.8,80.4 593.3,76.7 598.9,77.9 604.4,78.3 609.9,80.2 615.4,76.6 621.0,78.5 626.5,77.7 632.0,79.6 637.5,81.7 643.0,81.9 648.6,82.2 654.1,80.9 659.6,83.1 665.1,84.8 670.7,86.1 676.2,83.9 681.7,84.7 687.2,83.8 692.8,85.9 698.3,67.2 703.8,75.1 709.3,72.2 714.9,65.0 720.4,73.5 725.9,78.9 731.4,83.4 737.0,82.8 742.5,76.6 748.0,82.8 753.5,80.1 759.0,73.4 764.6,76.0 770.1,75.2 775.6,76.7 781.1,79.0 786.7,82.7 792.2,82.2 797.7,83.6 803.2,85.3 808.8,83.6 814.3,81.3 819.8,84.5 825.3,87.0 830.9,80.5 836.4,82.5 841.9,85.0 847.4,81.8 853.0,75.6 858.5,75.9 864.0,80.8" fill="none" stroke="#00C878" stroke-width="1.5" stroke-linejoin="round" stroke-linecap="round"/>
<line x1="0" y1="92" x2="880" y2="92" stroke="#E8A000" stroke-width="0.5" />
<rect x="0" y="92" width="880" height="32" fill="#FFFFFF" opacity="0.02"/>
<text x="16" y="112" text-anchor="start" font-family="Courier New, Courier, monospace" font-size="10" fill="#FFA020" font-weight="bold">IBOV</text>
<text x="72" y="112" text-anchor="start" font-family="Courier New, Courier, monospace" font-size="10" fill="#E8A000" >IBOVESPA</text>
<text x="340" y="112" text-anchor="end" font-family="Courier New, Courier, monospace" font-size="11" fill="#D8E8F0" font-weight="bold">173,326</text>
<text x="420" y="112" text-anchor="end" font-family="Courier New, Courier, monospace" font-size="11" fill="#8A9AAA" >-0.03%</text>
<text x="500" y="112" text-anchor="end" font-family="Courier New, Courier, monospace" font-size="11" fill="#00C878" >+7.96%</text>
<polyline points="516.0,97.0 521.6,98.4 527.2,98.9 532.8,100.0 538.5,100.8 544.1,104.3 549.7,102.0 555.3,103.5 560.9,102.5 566.5,101.6 572.1,105.6 577.7,104.8 583.4,106.8 589.0,108.2 594.6,111.1 600.2,110.0 605.8,110.9 611.4,111.2 617.0,113.6 622.6,110.9 628.3,110.6 633.9,111.9 639.5,110.9 645.1,111.6 650.7,112.3 656.3,112.9 661.9,114.1 667.5,115.5 673.2,113.7 678.8,117.2 684.4,118.3 690.0,118.7 695.6,117.6 701.2,118.7 706.8,116.1 712.5,116.4 718.1,117.1 723.7,117.8 729.3,118.8 734.9,119.0 740.5,118.7 746.1,117.1 751.7,116.3 757.4,117.0 763.0,115.7 768.6,114.5 774.2,114.6 779.8,115.7 785.4,116.0 791.0,115.0 796.6,113.6 802.3,115.3 807.9,115.7 813.5,116.9 819.1,115.0 824.7,110.4 830.3,112.3 835.9,111.5 841.5,112.1 847.2,114.0 852.8,114.1 858.4,114.4 864.0,114.5" fill="none" stroke="#8A9AAA" stroke-width="1.5" stroke-linejoin="round" stroke-linecap="round"/>
<line x1="16" y1="124" x2="864" y2="124" stroke="#2A3A4A" stroke-width="0.3" />
<text x="16" y="144" text-anchor="start" font-family="Courier New, Courier, monospace" font-size="10" fill="#FFA020" font-weight="bold">SPY</text>
<text x="72" y="144" text-anchor="start" font-family="Courier New, Courier, monospace" font-size="10" fill="#E8A000" >S&amp;P 500</text>
<text x="340" y="144" text-anchor="end" font-family="Courier New, Courier, monospace" font-size="11" fill="#D8E8F0" font-weight="bold">748.28</text>
<text x="420" y="144" text-anchor="end" font-family="Courier New, Courier, monospace" font-size="11" fill="#00C878" >+0.83%</text>
<text x="500" y="144" text-anchor="end" font-family="Courier New, Courier, monospace" font-size="11" fill="#00C878" >+10.11%</text>
<polyline points="516.0,149.8 521.7,151.0 527.4,148.6 533.1,148.1 538.8,149.6 544.5,149.7 550.2,146.6 555.9,145.7 561.6,146.9 567.3,144.4 573.0,140.1 578.8,141.0 584.5,138.4 590.2,137.7 595.9,138.2 601.6,136.4 607.3,133.9 613.0,137.8 618.7,138.0 624.4,140.1 630.1,136.9 635.8,136.3 641.5,135.0 647.2,132.9 652.9,132.9 658.6,131.1 664.3,130.3 670.0,129.4 675.7,129.0 681.4,131.3 687.1,130.1 692.9,138.5 698.6,137.8 704.3,138.7 710.0,143.7 715.7,138.4 721.4,136.7 727.1,131.0 732.8,133.0 738.5,137.0 744.2,133.7 749.9,134.7 755.6,139.4 761.3,139.5 767.0,139.1 772.7,141.4 778.4,136.2 784.1,133.7 789.8,134.1 795.5,134.5 801.2,131.7 807.0,133.3 812.7,134.3 818.4,131.5 824.1,130.2 829.8,132.6 835.5,131.5 841.2,130.2 846.9,132.0 852.6,135.2 858.3,135.7 864.0,133.0" fill="none" stroke="#00C878" stroke-width="1.5" stroke-linejoin="round" stroke-linecap="round"/>
<line x1="16" y1="156" x2="864" y2="156" stroke="#2A3A4A" stroke-width="0.3" />
<rect x="0" y="156" width="880" height="32" fill="#FFFFFF" opacity="0.02"/>
<text x="16" y="176" text-anchor="start" font-family="Courier New, Courier, monospace" font-size="10" fill="#FFA020" font-weight="bold">QQQ</text>
<text x="72" y="176" text-anchor="start" font-family="Courier New, Courier, monospace" font-size="10" fill="#E8A000" >NASDAQ 100</text>
<text x="340" y="176" text-anchor="end" font-family="Courier New, Courier, monospace" font-size="11" fill="#D8E8F0" font-weight="bold">708.97</text>
<text x="420" y="176" text-anchor="end" font-family="Courier New, Courier, monospace" font-size="11" fill="#00C878" >+1.88%</text>
<text x="500" y="176" text-anchor="end" font-family="Courier New, Courier, monospace" font-size="11" fill="#00C878" >+15.91%</text>
<polyline points="516.0,182.1 521.7,183.0 527.4,180.1 533.1,180.0 538.8,181.6 544.5,180.6 550.2,179.2 555.9,177.7 561.6,178.0 567.3,176.0 573.0,172.7 578.8,172.9 584.5,169.1 590.2,168.6 595.9,170.0 601.6,168.3 607.3,167.1 613.0,169.6 618.7,170.4 624.4,171.4 630.1,168.7 635.8,168.3 641.5,167.6 647.2,164.7 652.9,164.9 658.6,163.5 664.3,162.8 670.0,161.8 675.7,161.0 681.4,161.5 687.1,162.3 692.9,170.5 698.6,168.0 704.3,169.9 710.0,173.2 715.7,167.7 721.4,166.8 727.1,161.5 732.8,164.8 738.5,166.5 744.2,162.3 749.9,162.7 755.6,168.4 761.3,169.1 767.0,167.7 772.7,170.0 778.4,165.9 784.1,163.1 789.8,165.7 795.5,168.6 801.2,166.2 807.0,169.3 812.7,168.9 818.4,166.1 824.1,165.6 829.8,168.8 835.5,167.0 841.2,167.4 846.9,170.2 852.6,172.6 858.3,172.5 864.0,169.5" fill="none" stroke="#00C878" stroke-width="1.5" stroke-linejoin="round" stroke-linecap="round"/>
<line x1="16" y1="188" x2="864" y2="188" stroke="#2A3A4A" stroke-width="0.3" />
<text x="16" y="208" text-anchor="start" font-family="Courier New, Courier, monospace" font-size="10" fill="#FFA020" font-weight="bold">QMOM</text>
<text x="72" y="208" text-anchor="start" font-family="Courier New, Courier, monospace" font-size="10" fill="#E8A000" >QUANT MOMENTUM</text>
<text x="340" y="208" text-anchor="end" font-family="Courier New, Courier, monospace" font-size="11" fill="#D8E8F0" font-weight="bold">75.86</text>
<text x="420" y="208" text-anchor="end" font-family="Courier New, Courier, monospace" font-size="11" fill="#00C878" >+2.82%</text>
<text x="500" y="208" text-anchor="end" font-family="Courier New, Courier, monospace" font-size="11" fill="#00C878" >+14.09%</text>
<polyline points="516.0,208.2 521.7,207.4 527.4,207.3 533.1,208.0 538.8,212.9 544.5,215.0 550.2,206.5 555.9,207.1 561.6,206.6 567.3,203.8 573.0,196.6 578.8,204.6 584.5,201.2 590.2,197.8 595.9,199.8 601.6,197.9 607.3,197.5 613.0,204.8 618.7,208.3 624.4,210.8 630.1,206.5 635.8,205.1 641.5,204.4 647.2,198.1 652.9,199.6 658.6,197.7 664.3,196.4 670.0,196.9 675.7,193.0 681.4,193.8 687.1,194.5 692.9,206.2 698.6,204.8 704.3,207.2 710.0,212.2 715.7,202.8 721.4,200.0 727.1,198.5 732.8,200.8 738.5,202.2 744.2,200.8 749.9,196.6 755.6,202.5 761.3,204.5 767.0,200.8 772.7,205.9 778.4,202.7 784.1,201.1 789.8,204.8 795.5,208.9 801.2,207.1 807.0,209.9 812.7,207.3 818.4,206.2 824.1,208.4 829.8,211.2 835.5,208.1 841.2,210.6 846.9,215.0 852.6,213.6 858.3,214.6 864.0,208.9" fill="none" stroke="#00C878" stroke-width="1.5" stroke-linejoin="round" stroke-linecap="round"/>
<line x1="16" y1="220" x2="864" y2="220" stroke="#2A3A4A" stroke-width="0.3" />
<rect x="0" y="220" width="880" height="32" fill="#FFFFFF" opacity="0.02"/>
<text x="16" y="240" text-anchor="start" font-family="Courier New, Courier, monospace" font-size="10" fill="#FFA020" font-weight="bold">MTUM</text>
<text x="72" y="240" text-anchor="start" font-family="Courier New, Courier, monospace" font-size="10" fill="#E8A000" >MOMENTUM FACTOR</text>
<text x="340" y="240" text-anchor="end" font-family="Courier New, Courier, monospace" font-size="11" fill="#D8E8F0" font-weight="bold">314.48</text>
<text x="420" y="240" text-anchor="end" font-family="Courier New, Courier, monospace" font-size="11" fill="#00C878" >+4.31%</text>
<text x="500" y="240" text-anchor="end" font-family="Courier New, Courier, monospace" font-size="11" fill="#00C878" >+24.68%</text>
<polyline points="516.0,247.0 521.7,247.0 527.4,245.4 533.1,245.5 538.8,246.9 544.5,246.4 550.2,244.4 555.9,244.1 561.6,244.3 567.3,242.2 573.0,239.6 578.8,241.3 584.5,238.8 590.2,237.3 595.9,238.4 601.6,237.7 607.3,237.1 613.0,239.9 618.7,241.2 624.4,241.7 630.1,239.5 635.8,238.7 641.5,238.3 647.2,235.0 652.9,235.2 658.6,234.8 664.3,234.4 670.0,234.0 675.7,231.2 681.4,230.1 687.1,231.2 692.9,237.3 698.6,234.6 704.3,235.7 710.0,237.8 715.7,233.4 721.4,231.7 727.1,228.7 732.8,231.1 738.5,230.4 744.2,227.1 749.9,225.0 755.6,229.9 761.3,230.3 767.0,226.9 772.7,231.2 778.4,227.9 784.1,225.8 789.8,230.4 795.5,234.1 801.2,232.4 807.0,235.4 812.7,234.6 818.4,232.6 824.1,232.4 829.8,234.7 835.5,233.0 841.2,235.3 846.9,238.2 852.6,238.6 858.3,238.5 864.0,234.7" fill="none" stroke="#00C878" stroke-width="1.5" stroke-linejoin="round" stroke-linecap="round"/>
<line x1="16" y1="252" x2="864" y2="252" stroke="#2A3A4A" stroke-width="0.3" />
<text x="16" y="272" text-anchor="start" font-family="Courier New, Courier, monospace" font-size="10" fill="#FFA020" font-weight="bold">QUAL</text>
<text x="72" y="272" text-anchor="start" font-family="Courier New, Courier, monospace" font-size="10" fill="#E8A000" >QUALITY FACTOR</text>
<text x="340" y="272" text-anchor="end" font-family="Courier New, Courier, monospace" font-size="11" fill="#D8E8F0" font-weight="bold">218.13</text>
<text x="420" y="272" text-anchor="end" font-family="Courier New, Courier, monospace" font-size="11" fill="#00C878" >+0.55%</text>
<text x="500" y="272" text-anchor="end" font-family="Courier New, Courier, monospace" font-size="11" fill="#00C878" >+9.94%</text>
<polyline points="516.0,277.0 521.7,278.8 527.4,276.6 533.1,276.9 538.8,278.8 544.5,279.0 550.2,276.9 555.9,277.0 561.6,278.5 567.3,276.5 573.0,272.8 578.8,273.7 584.5,272.3 590.2,272.1 595.9,272.3 601.6,271.5 607.3,269.5 613.0,272.3 618.7,271.6 624.4,273.5 630.1,269.7 635.8,269.0 641.5,266.6 647.2,264.6 652.9,265.4 658.6,264.4 664.3,265.0 670.0,264.3 675.7,264.6 681.4,264.8 687.1,262.4 692.9,268.4 698.6,267.4 704.3,267.0 710.0,269.5 715.7,264.4 721.4,263.0 727.1,259.1 732.8,261.2 738.5,265.9 744.2,263.9 749.9,264.0 755.6,268.0 761.3,267.8 767.0,267.7 772.7,267.1 778.4,261.9 784.1,258.8 789.8,259.6 795.5,260.2 801.2,260.1 807.0,261.2 812.7,262.4 818.4,260.1 824.1,258.4 829.8,259.9 835.5,259.0 841.2,258.2 846.9,257.0 852.6,261.0 858.3,262.4 864.0,260.6" fill="none" stroke="#00C878" stroke-width="1.5" stroke-linejoin="round" stroke-linecap="round"/>
<line x1="16" y1="284" x2="864" y2="284" stroke="#2A3A4A" stroke-width="0.3" />
<line x1="0" y1="284" x2="880" y2="284" stroke="#E8A000" stroke-width="0.4" />
<text x="16" y="297" text-anchor="start" font-family="Courier New, Courier, monospace" font-size="8" fill="#506070" >SRC: YAHOO FINANCE  ·  AUTO-UPDATE 22:00 UTC WEEKDAYS  ·  GITHUB.COM/YANKRUZISKI</text>
<text x="864" y="297" text-anchor="end" font-family="Courier New, Courier, monospace" font-size="8" fill="#506070" >2026-07-21</text>
</svg>