<svg xmlns="http://www.w3.org/2000/svg" width="880" height="302" viewBox="0 0 880 302">
<rect width="880" height="302" fill="#040810"/>
<rect x="0.5" y="0.5" width="879" height="301" fill="none" stroke="#E8A000" stroke-width="0.7" opacity="0.5"/>
<rect x="0" y="0" width="880" height="18" fill="#D87000"/>
<text x="16" y="14" text-anchor="start" font-family="Courier New, Courier, monospace" font-size="9" fill="#030608" font-weight="bold">BLOOMBERG</text>
<text x="88" y="14" text-anchor="start" font-family="Courier New, Courier, monospace" font-size="9" fill="#030608" >QUANT MARKET MONITOR</text>
<text x="440" y="14" text-anchor="middle" font-family="Courier New, Courier, monospace" font-size="9" fill="#030608" >EQUITY  &amp;  VOLATILITY  DASHBOARD</text>
<text x="864" y="14" text-anchor="end" font-family="Courier New, Courier, monospace" font-size="9" fill="#030608" >2026-06-08  22:33 UTC</text>
<line x1="0" y1="38" x2="880" y2="38" stroke="#E8A000" stroke-width="0.8" />
<text x="16" y="33" text-anchor="start" font-family="Courier New, Courier, monospace" font-size="9" fill="#506070" >YAN KRUZISKI  ·  VP OF INTELI RESEARCH  ·  SÃO PAULO, BR</text>
<text x="864" y="33" text-anchor="end" font-family="Courier New, Courier, monospace" font-size="9" fill="#506070" >PAGE 1/1</text>
<rect x="0" y="38" width="880" height="22" fill="#E8A000" opacity="0.14"/>
<text x="16" y="54" text-anchor="start" font-family="Courier New, Courier, monospace" font-size="9" fill="#FFA020" font-weight="bold">TICKER</text>
<text x="72" y="54" text-anchor="start" font-family="Courier New, Courier, monospace" font-size="9" fill="#FFA020" font-weight="bold">DESCRIPTION</text>
<text x="340" y="54" text-anchor="end" font-family="Courier New, Courier, monospace" font-size="9" fill="#FFA020" font-weight="bold">LAST</text>
<text x="420" y="54" text-anchor="end" font-family="Courier New, Courier, monospace" font-size="9" fill="#FFA020" font-weight="bold">%CHG</text>
<text x="500" y="54" text-anchor="end" font-family="Courier New, Courier, monospace" font-size="9" fill="#FFA020" font-weight="bold">YTD%</text>
<text x="690" y="54" text-anchor="middle" font-family="Courier New, Courier, monospace" font-size="9" fill="#FFA020" font-weight="bold">3-MONTH</text>
<line x1="0" y1="60" x2="880" y2="60" stroke="#E8A000" stroke-width="0.9" />
<rect x="0" y="60" width="880" height="32" fill="#E8A000" opacity="0.09"/>
<text x="16" y="80" text-anchor="start" font-family="Courier New, Courier, monospace" font-size="10" fill="#FFA020" font-weight="bold">^VIX</text>
<text x="72" y="80" text-anchor="start" font-family="Courier New, Courier, monospace" font-size="10" fill="#E8A000" font-weight="bold">CBOE VOLATILITY INDEX</text>
<text x="340" y="80" text-anchor="end" font-family="Courier New, Courier, monospace" font-size="11" fill="#D8E8F0" font-weight="bold">18.92</text>
<text x="420" y="80" text-anchor="end" font-family="Courier New, Courier, monospace" font-size="11" fill="#00C878" font-weight="bold">-12.29%</text>
<text x="500" y="80" text-anchor="end" font-family="Courier New, Courier, monospace" font-size="10" fill="#00C878" font-weight="bold">NORMAL</text>
<line x1="0" y1="92" x2="880" y2="92" stroke="#E8A000" stroke-width="0.5" />
<rect x="0" y="92" width="880" height="32" fill="#FFFFFF" opacity="0.02"/>
<text x="16" y="112" text-anchor="start" font-family="Courier New, Courier, monospace" font-size="10" fill="#FFA020" font-weight="bold">IBOV</text>
<text x="72" y="112" text-anchor="start" font-family="Courier New, Courier, monospace" font-size="10" fill="#E8A000" >IBOVESPA</text>
<text x="340" y="112" text-anchor="end" font-family="Courier New, Courier, monospace" font-size="11" fill="#D8E8F0" font-weight="bold">168,669</text>
<text x="420" y="112" text-anchor="end" font-family="Courier New, Courier, monospace" font-size="11" fill="#FF3C3C" >-0.21%</text>
<text x="500" y="112" text-anchor="end" font-family="Courier New, Courier, monospace" font-size="11" fill="#00C878" >+5.06%</text>
<polyline points="516.0,110.0 521.7,108.2 527.4,107.8 533.1,111.2 538.8,112.4 544.5,110.8 550.2,110.4 555.9,111.0 561.6,110.5 567.3,113.5 573.0,109.3 578.8,108.8 584.5,106.7 590.2,108.7 595.9,109.5 601.6,108.8 607.3,105.2 613.0,104.9 618.7,104.8 624.4,104.7 630.1,104.6 635.8,101.7 641.5,99.6 647.2,98.0 652.9,97.5 658.6,97.0 664.3,97.7 670.0,98.3 675.7,99.1 681.4,98.9 687.1,101.2 692.9,102.3 698.6,102.8 704.3,103.7 710.0,104.4 715.7,107.2 721.4,105.3 727.1,106.6 732.8,105.7 738.5,105.0 744.2,108.3 749.9,107.7 755.6,109.3 761.3,110.4 767.0,112.8 772.7,111.9 778.4,112.7 784.1,112.9 789.8,114.9 795.5,112.6 801.2,112.4 807.0,113.5 812.7,112.6 818.4,113.2 824.1,113.8 829.8,114.3 835.5,115.2 841.2,116.4 846.9,114.9 852.6,117.8 858.3,118.7 864.0,119.0" fill="none" stroke="#FF3C3C" stroke-width="1.5" stroke-linejoin="round" stroke-linecap="round"/>
<line x1="16" y1="124" x2="864" y2="124" stroke="#2A3A4A" stroke-width="0.3" />
<text x="16" y="144" text-anchor="start" font-family="Courier New, Courier, monospace" font-size="10" fill="#FFA020" font-weight="bold">SPY</text>
<text x="72" y="144" text-anchor="start" font-family="Courier New, Courier, monospace" font-size="10" fill="#E8A000" >S&amp;P 500</text>
<text x="340" y="144" text-anchor="end" font-family="Courier New, Courier, monospace" font-size="11" fill="#D8E8F0" font-weight="bold">739.22</text>
<text x="420" y="144" text-anchor="end" font-family="Courier New, Courier, monospace" font-size="11" fill="#00C878" >+0.57%</text>
<text x="500" y="144" text-anchor="end" font-family="Courier New, Courier, monospace" font-size="11" fill="#00C878" >+8.50%</text>
<polyline points="516.0,143.3 521.5,143.5 527.0,143.7 532.6,145.4 538.1,146.1 543.6,144.9 549.1,144.6 554.7,146.2 560.2,146.5 565.7,148.1 571.2,147.0 576.8,147.3 582.3,146.7 587.8,148.7 593.3,150.6 598.9,151.0 604.4,147.8 609.9,147.0 615.4,146.9 621.0,146.4 626.5,146.3 632.0,143.4 637.5,142.7 643.0,142.8 648.6,141.7 654.1,140.2 659.6,139.3 665.1,139.0 670.7,137.5 676.2,137.8 681.7,138.6 687.2,137.3 692.8,137.8 698.3,136.9 703.8,136.7 709.3,137.3 714.9,137.3 720.4,136.1 725.9,135.7 731.4,136.2 737.0,135.2 742.5,133.4 748.0,133.8 753.5,132.8 759.0,132.5 764.6,132.7 770.1,132.0 775.6,131.0 781.1,132.5 786.7,132.6 792.2,133.5 797.7,132.2 803.2,131.9 808.8,131.4 814.3,130.5 819.8,130.6 825.3,129.9 830.9,129.5 836.4,129.2 841.9,129.0 847.4,129.9 853.0,129.4 858.5,132.8 864.0,132.5" fill="none" stroke="#00C878" stroke-width="1.5" stroke-linejoin="round" stroke-linecap="round"/>
<line x1="16" y1="156" x2="864" y2="156" stroke="#2A3A4A" stroke-width="0.3" />
<rect x="0" y="156" width="880" height="32" fill="#FFFFFF" opacity="0.02"/>
<text x="16" y="176" text-anchor="start" font-family="Courier New, Courier, monospace" font-size="10" fill="#FFA020" font-weight="bold">QQQ</text>
<text x="72" y="176" text-anchor="start" font-family="Courier New, Courier, monospace" font-size="10" fill="#E8A000" >NASDAQ 100</text>
<text x="340" y="176" text-anchor="end" font-family="Courier New, Courier, monospace" font-size="11" fill="#D8E8F0" font-weight="bold">716.07</text>
<text x="420" y="176" text-anchor="end" font-family="Courier New, Courier, monospace" font-size="11" fill="#00C878" >+2.25%</text>
<text x="500" y="176" text-anchor="end" font-family="Courier New, Courier, monospace" font-size="11" fill="#00C878" >+16.94%</text>
<polyline points="516.0,177.3 521.5,177.3 527.0,177.3 532.6,178.5 538.1,178.9 543.6,178.2 549.1,177.8 554.7,178.8 560.2,179.0 565.7,180.3 571.2,179.5 576.8,180.0 582.3,179.5 587.8,181.2 593.3,182.5 598.9,183.0 604.4,180.8 609.9,180.0 615.4,179.9 621.0,179.5 626.5,179.5 632.0,177.4 637.5,176.9 643.0,176.8 648.6,176.1 654.1,174.8 659.6,173.7 665.1,173.4 670.7,172.4 676.2,172.6 681.7,172.9 687.2,171.7 692.8,172.1 698.3,170.6 703.8,170.6 709.3,171.4 714.9,170.9 720.4,170.2 725.9,169.4 731.4,169.6 737.0,168.6 742.5,166.9 748.0,167.0 753.5,165.1 759.0,164.8 764.6,165.6 770.1,164.7 775.6,164.1 781.1,165.4 786.7,165.7 792.2,166.2 797.7,164.9 803.2,164.7 808.8,164.4 814.3,162.9 819.8,163.0 825.3,162.2 830.9,161.9 836.4,161.4 841.9,161.0 847.4,161.2 853.0,161.6 858.5,165.8 864.0,164.5" fill="none" stroke="#00C878" stroke-width="1.5" stroke-linejoin="round" stroke-linecap="round"/>
<line x1="16" y1="188" x2="864" y2="188" stroke="#2A3A4A" stroke-width="0.3" />
<text x="16" y="208" text-anchor="start" font-family="Courier New, Courier, monospace" font-size="10" fill="#FFA020" font-weight="bold">QMOM</text>
<text x="72" y="208" text-anchor="start" font-family="Courier New, Courier, monospace" font-size="10" fill="#E8A000" >QUANT MOMENTUM</text>
<text x="340" y="208" text-anchor="end" font-family="Courier New, Courier, monospace" font-size="11" fill="#D8E8F0" font-weight="bold">77.37</text>
<text x="420" y="208" text-anchor="end" font-family="Courier New, Courier, monospace" font-size="11" fill="#00C878" >+0.69%</text>
<text x="500" y="208" text-anchor="end" font-family="Courier New, Courier, monospace" font-size="11" fill="#00C878" >+16.37%</text>
<polyline points="516.0,208.2 521.5,207.5 527.0,208.2 532.6,210.3 538.1,211.8 543.6,209.7 549.1,209.0 554.7,210.0 560.2,209.7 565.7,212.8 571.2,210.7 576.8,209.5 582.3,208.2 587.8,211.7 593.3,212.3 598.9,215.0 604.4,210.1 609.9,208.3 615.4,208.5 621.0,208.3 626.5,208.1 632.0,203.8 637.5,203.2 643.0,203.1 648.6,202.2 654.1,201.4 659.6,202.1 665.1,201.9 670.7,199.9 676.2,199.8 681.7,201.0 687.2,200.1 692.8,199.7 698.3,199.7 703.8,200.0 709.3,202.3 714.9,203.3 720.4,199.3 725.9,199.6 731.4,199.4 737.0,198.1 742.5,194.7 748.0,198.5 753.5,196.9 759.0,195.3 764.6,196.2 770.1,195.3 775.6,195.1 781.1,198.6 786.7,200.2 792.2,201.4 797.7,199.3 803.2,198.7 808.8,198.4 814.3,195.4 819.8,196.1 825.3,195.2 830.9,194.6 836.4,194.8 841.9,193.0 847.4,193.4 853.0,193.7 858.5,199.2 864.0,198.5" fill="none" stroke="#00C878" stroke-width="1.5" stroke-linejoin="round" stroke-linecap="round"/>
<line x1="16" y1="220" x2="864" y2="220" stroke="#2A3A4A" stroke-width="0.3" />
<rect x="0" y="220" width="880" height="32" fill="#FFFFFF" opacity="0.02"/>
<text x="16" y="240" text-anchor="start" font-family="Courier New, Courier, monospace" font-size="10" fill="#FFA020" font-weight="bold">MTUM</text>
<text x="72" y="240" text-anchor="start" font-family="Courier New, Courier, monospace" font-size="10" fill="#E8A000" >MOMENTUM FACTOR</text>
<text x="340" y="240" text-anchor="end" font-family="Courier New, Courier, monospace" font-size="11" fill="#D8E8F0" font-weight="bold">315.08</text>
<text x="420" y="240" text-anchor="end" font-family="Courier New, Courier, monospace" font-size="11" fill="#00C878" >+4.48%</text>
<text x="500" y="240" text-anchor="end" font-family="Courier New, Courier, monospace" font-size="11" fill="#00C878" >+24.78%</text>
<polyline points="516.0,243.4 521.5,243.1 527.0,243.0 532.6,244.1 538.1,244.2 543.6,243.5 549.1,243.1 554.7,243.6 560.2,243.4 565.7,244.6 571.2,243.9 576.8,243.7 582.3,243.3 587.8,245.3 593.3,245.9 598.9,247.0 604.4,244.9 609.9,243.8 615.4,243.6 621.0,243.2 626.5,242.9 632.0,240.6 637.5,239.9 643.0,239.7 648.6,239.1 654.1,238.2 659.6,238.3 665.1,238.1 670.7,237.3 676.2,237.5 681.7,237.9 687.2,236.9 692.8,236.9 698.3,235.8 703.8,235.9 709.3,236.9 714.9,236.5 720.4,235.1 725.9,234.9 731.4,235.1 737.0,233.6 742.5,231.8 748.0,232.9 753.5,231.2 759.0,230.1 764.6,230.9 770.1,230.4 775.6,230.0 781.1,232.0 786.7,232.8 792.2,233.2 797.7,231.7 803.2,231.1 808.8,230.8 814.3,228.4 819.8,228.6 825.3,228.3 830.9,228.1 836.4,227.8 841.9,225.8 847.4,225.0 853.0,225.8 858.5,230.1 864.0,228.2" fill="none" stroke="#00C878" stroke-width="1.5" stroke-linejoin="round" stroke-linecap="round"/>
<line x1="16" y1="252" x2="864" y2="252" stroke="#2A3A4A" stroke-width="0.3" />
<text x="16" y="272" text-anchor="start" font-family="Courier New, Courier, monospace" font-size="10" fill="#FFA020" font-weight="bold">QUAL</text>
<text x="72" y="272" text-anchor="start" font-family="Courier New, Courier, monospace" font-size="10" fill="#E8A000" >QUALITY FACTOR</text>
<text x="340" y="272" text-anchor="end" font-family="Courier New, Courier, monospace" font-size="11" fill="#D8E8F0" font-weight="bold">213.83</text>
<text x="420" y="272" text-anchor="end" font-family="Courier New, Courier, monospace" font-size="11" fill="#00C878" >+0.86%</text>
<text x="500" y="272" text-anchor="end" font-family="Courier New, Courier, monospace" font-size="11" fill="#00C878" >+7.58%</text>
<polyline points="516.0,269.2 521.5,269.5 527.0,270.0 532.6,272.4 538.1,273.1 543.6,271.8 549.1,271.6 554.7,273.6 560.2,273.5 565.7,275.1 571.2,273.7 576.8,274.1 582.3,273.6 587.8,276.4 593.3,278.4 598.9,279.0 604.4,275.2 609.9,274.5 615.4,274.2 621.0,273.6 626.5,274.1 632.0,270.1 637.5,269.2 643.0,269.7 648.6,268.5 654.1,267.0 659.6,266.2 665.1,266.3 670.7,264.4 676.2,264.7 681.7,265.5 687.2,264.2 692.8,265.2 698.3,264.1 703.8,264.2 709.3,265.1 714.9,265.3 720.4,264.2 725.9,264.3 731.4,265.0 737.0,264.0 742.5,262.2 748.0,262.6 753.5,261.9 759.0,261.8 764.6,262.0 770.1,261.5 775.6,260.5 781.1,261.9 786.7,261.6 792.2,262.5 797.7,260.6 803.2,260.3 808.8,259.1 814.3,258.1 819.8,258.5 825.3,258.0 830.9,258.3 836.4,258.0 841.9,258.1 847.4,258.2 853.0,257.0 858.5,260.0 864.0,259.5" fill="none" stroke="#00C878" stroke-width="1.5" stroke-linejoin="round" stroke-linecap="round"/>
<line x1="16" y1="284" x2="864" y2="284" stroke="#2A3A4A" stroke-width="0.3" />
<line x1="0" y1="284" x2="880" y2="284" stroke="#E8A000" stroke-width="0.4" />
<text x="16" y="297" text-anchor="start" font-family="Courier New, Courier, monospace" font-size="8" fill="#506070" >SRC: YAHOO FINANCE  ·  AUTO-UPDATE 22:00 UTC WEEKDAYS  ·  GITHUB.COM/YANKRUZISKI</text>
<text x="864" y="297" text-anchor="end" font-family="Courier New, Courier, monospace" font-size="8" fill="#506070" >2026-06-08</text>
</svg>