<svg xmlns="http://www.w3.org/2000/svg" width="880" height="370" viewBox="0 0 880 370">
<rect width="880" height="370" fill="#060B14"/>
<rect x="1" y="1" width="878" height="368" fill="none" stroke="#E87800" stroke-width="1" opacity="0.45"/>
<rect x="0" y="0" width="880" height="50" fill="#E87800" opacity="0.10"/>
<line x1="0" y1="50" x2="880" y2="50" stroke="#E87800" stroke-width="1" />
<text x="20" y="22" text-anchor="start" font-family="Courier New, Courier, monospace" font-size="15" fill="#E87800" font-weight="bold">MARKET TERMINAL</text>
<text x="20" y="40" text-anchor="start" font-family="Courier New, Courier, monospace" font-size="9" fill="#607888" >YAN KRUZISKI  ·  QUANT FINANCE  ·  VP OF INTELI RESEARCH</text>
<text x="860" y="22" text-anchor="end" font-family="Courier New, Courier, monospace" font-size="9" fill="#607888" >2026-05-10  22:13 UTC</text>
<text x="20" y="70" text-anchor="start" font-family="Courier New, Courier, monospace" font-size="9" fill="#607888" font-weight="bold">TICKER</text>
<text x="68" y="70" text-anchor="start" font-family="Courier New, Courier, monospace" font-size="9" fill="#607888" font-weight="bold">ASSET</text>
<text x="390" y="70" text-anchor="end" font-family="Courier New, Courier, monospace" font-size="9" fill="#607888" font-weight="bold">PRICE</text>
<text x="480" y="70" text-anchor="end" font-family="Courier New, Courier, monospace" font-size="9" fill="#607888" font-weight="bold">DAY %</text>
<text x="570" y="70" text-anchor="end" font-family="Courier New, Courier, monospace" font-size="9" fill="#607888" font-weight="bold">YTD %</text>
<text x="657" y="70" text-anchor="middle" font-family="Courier New, Courier, monospace" font-size="9" fill="#607888" font-weight="bold">3M</text>
<line x1="20" y1="78" x2="860" y2="78" stroke="#2E3F52" stroke-width="0.5" stroke-dasharray="3,3"/>
<rect x="20" y="79" width="840" height="36" fill="#E87800" opacity="0.06" rx="2"/>
<text x="20" y="102" text-anchor="start" font-family="Courier New, Courier, monospace" font-size="10" fill="#E87800" font-weight="bold">^VIX</text>
<text x="68" y="102" text-anchor="start" font-family="Courier New, Courier, monospace" font-size="11" fill="#C8D8E8" font-weight="bold">CBOE Volatility Index</text>
<text x="390" y="102" text-anchor="end" font-family="Courier New, Courier, monospace" font-size="12" fill="#C8D8E8" >17.19</text>
<text x="480" y="102" text-anchor="end" font-family="Courier New, Courier, monospace" font-size="12" fill="#FF3C3C" >+0.64%</text>
<text x="570" y="102" text-anchor="end" font-family="Courier New, Courier, monospace" font-size="11" fill="#FF3C3C" font-weight="bold">NORMAL</text>
<polyline points="585.0,109.1 587.3,108.3 589.7,108.6 592.0,102.8 594.4,103.2 596.7,103.8 599.0,105.0 601.4,103.9 603.7,106.0 606.0,102.4 608.4,105.1 610.7,108.1 613.1,106.8 615.4,104.5 617.7,101.6 620.1,97.7 622.4,102.2 624.8,97.4 627.1,86.9 629.4,94.2 631.8,95.2 634.1,96.5 636.5,90.9 638.8,91.1 641.1,97.8 643.5,99.9 645.8,94.9 648.1,96.8 650.5,91.8 652.8,93.0 655.2,91.5 657.5,94.5 659.8,90.6 662.2,84.0 664.5,84.8 666.9,94.6 669.2,96.0 671.5,97.2 673.9,96.6 676.2,93.7 678.5,102.4 680.9,105.2 683.2,105.7 685.6,105.9 687.9,107.3 690.2,107.6 692.6,108.1 694.9,108.9 697.3,106.4 699.6,105.2 701.9,106.3 704.3,105.6 706.6,106.7 709.0,107.9 711.3,108.3 713.6,106.5 716.0,110.0 718.3,109.8 720.6,107.4 723.0,109.1 725.3,109.1 727.7,109.7 730.0,109.4" fill="none" stroke="#FF3C3C" stroke-width="1.5" stroke-linejoin="round" stroke-linecap="round"/>
<line x1="20" y1="116" x2="860" y2="116" stroke="#E87800" stroke-width="0.4" />
<rect x="20" y="117" width="840" height="36" fill="#FFFFFF" opacity="0.015" rx="2"/>
<text x="20" y="140" text-anchor="start" font-family="Courier New, Courier, monospace" font-size="10" fill="#607888" font-weight="bold">IBOV</text>
<text x="68" y="140" text-anchor="start" font-family="Courier New, Courier, monospace" font-size="11" fill="#C8D8E8" >Ibovespa</text>
<text x="390" y="140" text-anchor="end" font-family="Courier New, Courier, monospace" font-size="12" fill="#C8D8E8" >184,108</text>
<text x="480" y="140" text-anchor="end" font-family="Courier New, Courier, monospace" font-size="12" fill="#00C878" >+0.49%</text>
<text x="570" y="140" text-anchor="end" font-family="Courier New, Courier, monospace" font-size="12" fill="#00C878" >+14.68%</text>
<polyline points="585.0,136.4 587.5,136.7 589.9,132.4 592.4,134.6 594.8,136.1 597.3,136.6 599.7,133.7 602.2,131.4 604.7,133.4 607.1,130.3 609.6,130.6 612.0,130.9 614.5,133.4 616.9,132.8 619.4,140.0 621.9,137.4 624.3,143.1 626.8,144.4 629.2,142.6 631.7,139.6 634.2,139.0 636.6,144.4 639.1,146.3 641.5,143.8 644.0,143.1 646.4,144.0 648.9,143.3 651.4,148.0 653.8,141.4 656.3,140.7 658.7,137.3 661.2,140.5 663.6,141.8 666.1,140.7 668.6,135.0 671.0,134.4 673.5,134.3 675.9,134.2 678.4,134.0 680.8,129.5 683.3,126.1 685.8,123.5 688.2,122.8 690.7,122.0 693.1,123.1 695.6,124.1 698.1,125.4 700.5,124.9 703.0,128.7 705.4,130.4 707.9,131.2 710.3,132.5 712.8,133.6 715.3,138.1 717.7,135.1 720.2,137.1 722.6,135.8 725.1,134.7 727.5,139.9 730.0,138.9" fill="none" stroke="#00C878" stroke-width="1.5" stroke-linejoin="round" stroke-linecap="round"/>
<text x="20" y="178" text-anchor="start" font-family="Courier New, Courier, monospace" font-size="10" fill="#607888" font-weight="bold">SPY </text>
<text x="68" y="178" text-anchor="start" font-family="Courier New, Courier, monospace" font-size="11" fill="#C8D8E8" >S&P 500</text>
<text x="390" y="178" text-anchor="end" font-family="Courier New, Courier, monospace" font-size="12" fill="#C8D8E8" >737.62</text>
<text x="480" y="178" text-anchor="end" font-family="Courier New, Courier, monospace" font-size="12" fill="#00C878" >+0.85%</text>
<text x="570" y="178" text-anchor="end" font-family="Courier New, Courier, monospace" font-size="12" fill="#00C878" >+8.27%</text>
<polyline points="585.0,171.2 587.3,171.7 589.7,171.7 592.0,174.3 594.4,174.2 596.7,173.9 599.0,173.1 601.4,173.5 603.7,172.3 606.0,174.0 608.4,172.8 610.7,171.4 613.1,172.4 615.4,173.2 617.7,173.1 620.1,174.6 622.4,173.4 624.8,174.3 627.1,176.5 629.4,175.1 631.8,175.3 634.1,175.5 636.5,178.1 638.8,179.0 641.1,177.3 643.5,176.9 645.8,179.2 648.1,179.6 650.5,181.9 652.8,180.2 655.2,180.8 657.5,179.9 659.8,182.8 662.2,185.5 664.5,186.0 666.9,181.5 669.2,180.3 671.5,180.1 673.9,179.4 676.2,179.3 678.5,175.2 680.9,174.2 683.2,174.3 685.6,172.7 687.9,170.6 690.2,169.3 692.6,168.8 694.9,166.8 697.3,167.1 699.6,168.3 701.9,166.5 704.3,167.2 706.6,165.8 709.0,165.5 711.3,166.4 713.6,166.4 716.0,164.7 718.3,164.2 720.6,164.8 723.0,163.4 725.3,160.9 727.7,161.5 730.0,160.0" fill="none" stroke="#00C878" stroke-width="1.5" stroke-linejoin="round" stroke-linecap="round"/>
<rect x="20" y="193" width="840" height="36" fill="#FFFFFF" opacity="0.015" rx="2"/>
<text x="20" y="216" text-anchor="start" font-family="Courier New, Courier, monospace" font-size="10" fill="#607888" font-weight="bold">QQQ </text>
<text x="68" y="216" text-anchor="start" font-family="Courier New, Courier, monospace" font-size="11" fill="#C8D8E8" >Nasdaq 100</text>
<text x="390" y="216" text-anchor="end" font-family="Courier New, Courier, monospace" font-size="12" fill="#C8D8E8" >711.23</text>
<text x="480" y="216" text-anchor="end" font-family="Courier New, Courier, monospace" font-size="12" fill="#00C878" >+2.37%</text>
<text x="570" y="216" text-anchor="end" font-family="Courier New, Courier, monospace" font-size="12" fill="#00C878" >+16.15%</text>
<polyline points="585.0,214.6 587.3,215.1 589.7,214.8 592.0,216.9 594.4,216.7 596.7,216.8 599.0,216.1 601.4,216.4 603.7,215.5 606.0,216.8 608.4,215.7 610.7,214.2 613.1,215.5 615.4,215.8 617.7,215.7 620.1,216.8 622.4,215.2 624.8,215.5 627.1,217.1 629.4,215.7 631.8,215.7 634.1,215.7 636.5,217.5 638.8,218.1 641.1,217.0 643.5,216.5 645.8,217.9 648.1,218.2 650.5,220.1 652.8,218.9 655.2,219.6 657.5,219.0 659.8,221.4 662.2,223.3 664.5,224.0 666.9,220.8 669.2,219.6 671.5,219.5 673.9,218.9 676.2,218.8 678.5,215.9 680.9,215.2 683.2,215.0 685.6,214.0 687.9,212.0 690.2,210.6 692.6,210.0 694.9,208.6 697.3,209.0 699.6,209.4 701.9,207.5 704.3,208.2 706.6,206.0 709.0,206.0 711.3,207.1 713.6,206.4 716.0,205.4 718.3,204.3 720.6,204.5 723.0,203.0 725.3,200.6 727.7,200.8 730.0,198.0" fill="none" stroke="#00C878" stroke-width="1.5" stroke-linejoin="round" stroke-linecap="round"/>
<text x="20" y="254" text-anchor="start" font-family="Courier New, Courier, monospace" font-size="10" fill="#607888" font-weight="bold">QMOM</text>
<text x="68" y="254" text-anchor="start" font-family="Courier New, Courier, monospace" font-size="11" fill="#C8D8E8" >Quant Momentum</text>
<text x="390" y="254" text-anchor="end" font-family="Courier New, Courier, monospace" font-size="12" fill="#C8D8E8" >78.67</text>
<text x="480" y="254" text-anchor="end" font-family="Courier New, Courier, monospace" font-size="12" fill="#00C878" >+1.61%</text>
<text x="570" y="254" text-anchor="end" font-family="Courier New, Courier, monospace" font-size="12" fill="#00C878" >+18.32%</text>
<polyline points="585.0,251.1 587.3,252.8 589.7,251.7 592.0,253.7 594.4,251.9 596.7,251.5 599.0,250.5 601.4,249.7 603.7,248.7 606.0,250.2 608.4,248.1 610.7,247.6 613.1,247.0 615.4,247.8 617.7,246.7 620.1,251.4 622.4,250.5 624.8,253.9 627.1,256.5 629.4,253.3 631.8,252.4 634.1,253.3 636.5,256.0 638.8,257.9 641.1,255.2 643.5,254.3 645.8,255.6 648.1,255.2 650.5,259.2 652.8,256.5 655.2,254.9 657.5,253.2 659.8,257.8 662.2,258.5 664.5,262.0 666.9,255.8 669.2,253.4 671.5,253.7 673.9,253.4 676.2,253.2 678.5,247.7 680.9,246.9 683.2,246.7 685.6,245.6 687.9,244.5 690.2,245.5 692.6,245.2 694.9,242.6 697.3,242.5 699.6,244.1 701.9,243.0 704.3,242.5 706.6,242.4 709.0,242.8 711.3,245.8 713.6,247.0 716.0,241.9 718.3,242.3 720.6,242.0 723.0,240.3 725.3,236.0 727.7,240.8 730.0,238.8" fill="none" stroke="#00C878" stroke-width="1.5" stroke-linejoin="round" stroke-linecap="round"/>
<rect x="20" y="269" width="840" height="36" fill="#FFFFFF" opacity="0.015" rx="2"/>
<text x="20" y="292" text-anchor="start" font-family="Courier New, Courier, monospace" font-size="10" fill="#607888" font-weight="bold">MTUM</text>
<text x="68" y="292" text-anchor="start" font-family="Courier New, Courier, monospace" font-size="11" fill="#C8D8E8" >Momentum Factor</text>
<text x="390" y="292" text-anchor="end" font-family="Courier New, Courier, monospace" font-size="12" fill="#C8D8E8" >301.80</text>
<text x="480" y="292" text-anchor="end" font-family="Courier New, Courier, monospace" font-size="12" fill="#00C878" >+3.00%</text>
<text x="570" y="292" text-anchor="end" font-family="Courier New, Courier, monospace" font-size="12" fill="#00C878" >+19.52%</text>
<polyline points="585.0,290.3 587.3,291.2 589.7,291.2 592.0,293.0 594.4,292.5 596.7,292.4 599.0,291.8 601.4,291.8 603.7,291.3 606.0,293.1 608.4,292.3 610.7,290.7 613.1,291.3 615.4,292.0 617.7,291.7 620.1,294.1 622.4,292.8 624.8,294.1 627.1,296.2 629.4,294.1 631.8,293.7 634.1,293.5 636.5,295.3 638.8,295.4 641.1,294.2 643.5,293.6 645.8,294.3 648.1,294.1 650.5,296.1 652.8,295.0 655.2,294.6 657.5,294.0 659.8,297.3 662.2,298.2 664.5,300.0 666.9,296.6 669.2,294.7 671.5,294.5 673.9,293.8 676.2,293.2 678.5,289.4 680.9,288.4 683.2,288.0 685.6,287.1 687.9,285.5 690.2,285.6 692.6,285.3 694.9,284.0 697.3,284.3 699.6,285.1 701.9,283.4 704.3,283.5 706.6,281.7 709.0,281.7 711.3,283.4 713.6,282.8 716.0,280.5 718.3,280.1 720.6,280.4 723.0,277.9 725.3,275.0 727.7,276.9 730.0,274.0" fill="none" stroke="#00C878" stroke-width="1.5" stroke-linejoin="round" stroke-linecap="round"/>
<text x="20" y="330" text-anchor="start" font-family="Courier New, Courier, monospace" font-size="10" fill="#607888" font-weight="bold">QUAL</text>
<text x="68" y="330" text-anchor="start" font-family="Courier New, Courier, monospace" font-size="11" fill="#C8D8E8" >Quality Factor</text>
<text x="390" y="330" text-anchor="end" font-family="Courier New, Courier, monospace" font-size="12" fill="#C8D8E8" >210.43</text>
<text x="480" y="330" text-anchor="end" font-family="Courier New, Courier, monospace" font-size="12" fill="#00C878" >+0.68%</text>
<text x="570" y="330" text-anchor="end" font-family="Courier New, Courier, monospace" font-size="12" fill="#00C878" >+5.87%</text>
<polyline points="585.0,319.4 587.3,319.9 589.7,319.7 592.0,323.0 594.4,321.9 596.7,321.4 599.0,320.0 601.4,320.5 603.7,319.0 606.0,321.3 608.4,319.5 610.7,317.9 613.1,318.6 615.4,318.5 617.7,318.9 620.1,321.3 622.4,320.1 624.8,322.0 627.1,325.2 629.4,323.0 631.8,323.5 634.1,324.3 636.5,327.9 638.8,329.0 641.1,327.1 643.5,326.7 645.8,329.8 648.1,329.6 650.5,332.1 652.8,329.9 655.2,330.6 657.5,329.7 659.8,334.0 662.2,337.1 664.5,338.0 666.9,332.2 669.2,331.2 671.5,330.8 673.9,329.8 676.2,330.5 678.5,324.4 680.9,323.1 683.2,323.9 685.6,322.0 687.9,319.8 690.2,318.6 692.6,318.6 694.9,315.8 697.3,316.2 699.6,317.4 701.9,315.5 704.3,316.9 706.6,315.3 709.0,315.5 711.3,316.9 713.6,317.1 716.0,315.5 718.3,315.6 720.6,316.7 723.0,315.2 725.3,312.4 727.7,313.1 730.0,312.0" fill="none" stroke="#00C878" stroke-width="1.5" stroke-linejoin="round" stroke-linecap="round"/>
<line x1="0" y1="344" x2="880" y2="344" stroke="#E87800" stroke-width="0.5" />
<rect x="0" y="344" width="880" height="26" fill="#E87800" opacity="0.05"/>
<text x="20" y="361" text-anchor="start" font-family="Courier New, Courier, monospace" font-size="9" fill="#607888" >src: Yahoo Finance  ·  updated daily by GitHub Actions  ·  github.com/yankruziski</text>
<text x="860" y="361" text-anchor="end" font-family="Courier New, Courier, monospace" font-size="9" fill="#607888" >2026-05-10</text>
</svg>