<svg xmlns="http://www.w3.org/2000/svg" width="880" height="302" viewBox="0 0 880 302">
<rect width="880" height="302" fill="#040810"/>
<rect x="0.5" y="0.5" width="879" height="301" fill="none" stroke="#E8A000" stroke-width="0.7" opacity="0.5"/>
<rect x="0" y="0" width="880" height="18" fill="#D87000"/>
<text x="16" y="14" text-anchor="start" font-family="Courier New, Courier, monospace" font-size="9" fill="#030608" font-weight="bold">BLOOMBERG</text>
<text x="88" y="14" text-anchor="start" font-family="Courier New, Courier, monospace" font-size="9" fill="#030608" >QUANT MARKET MONITOR</text>
<text x="440" y="14" text-anchor="middle" font-family="Courier New, Courier, monospace" font-size="9" fill="#030608" >EQUITY  &amp;  VOLATILITY  DASHBOARD</text>
<text x="864" y="14" text-anchor="end" font-family="Courier New, Courier, monospace" font-size="9" fill="#030608" >2026-05-20  22:33 UTC</text>
<line x1="0" y1="38" x2="880" y2="38" stroke="#E8A000" stroke-width="0.8" />
<text x="16" y="33" text-anchor="start" font-family="Courier New, Courier, monospace" font-size="9" fill="#506070" >YAN KRUZISKI  ·  VP OF INTELI RESEARCH  ·  SÃO PAULO, BR</text>
<text x="864" y="33" text-anchor="end" font-family="Courier New, Courier, monospace" font-size="9" fill="#506070" >PAGE 1/1</text>
<rect x="0" y="38" width="880" height="22" fill="#E8A000" opacity="0.14"/>
<text x="16" y="54" text-anchor="start" font-family="Courier New, Courier, monospace" font-size="9" fill="#FFA020" font-weight="bold">TICKER</text>
<text x="72" y="54" text-anchor="start" font-family="Courier New, Courier, monospace" font-size="9" fill="#FFA020" font-weight="bold">DESCRIPTION</text>
<text x="340" y="54" text-anchor="end" font-family="Courier New, Courier, monospace" font-size="9" fill="#FFA020" font-weight="bold">LAST</text>
<text x="420" y="54" text-anchor="end" font-family="Courier New, Courier, monospace" font-size="9" fill="#FFA020" font-weight="bold">%CHG</text>
<text x="500" y="54" text-anchor="end" font-family="Courier New, Courier, monospace" font-size="9" fill="#FFA020" font-weight="bold">YTD%</text>
<text x="690" y="54" text-anchor="middle" font-family="Courier New, Courier, monospace" font-size="9" fill="#FFA020" font-weight="bold">3-MONTH</text>
<line x1="0" y1="60" x2="880" y2="60" stroke="#E8A000" stroke-width="0.9" />
<rect x="0" y="60" width="880" height="32" fill="#E8A000" opacity="0.09"/>
<text x="16" y="80" text-anchor="start" font-family="Courier New, Courier, monospace" font-size="10" fill="#FFA020" font-weight="bold">^VIX</text>
<text x="72" y="80" text-anchor="start" font-family="Courier New, Courier, monospace" font-size="10" fill="#E8A000" font-weight="bold">CBOE VOLATILITY INDEX</text>
<text x="340" y="80" text-anchor="end" font-family="Courier New, Courier, monospace" font-size="11" fill="#D8E8F0" font-weight="bold">17.44</text>
<text x="420" y="80" text-anchor="end" font-family="Courier New, Courier, monospace" font-size="11" fill="#00C878" font-weight="bold">-3.49%</text>
<text x="500" y="80" text-anchor="end" font-family="Courier New, Courier, monospace" font-size="10" fill="#00C878" font-weight="bold">NORMAL</text>
<polyline points="516.0,83.6 521.6,80.6 527.2,82.9 532.8,85.4 538.5,84.3 544.1,82.4 549.7,79.9 555.3,76.6 560.9,80.4 566.5,76.3 572.1,67.4 577.7,73.6 583.4,74.5 589.0,75.6 594.6,70.8 600.2,71.0 605.8,76.7 611.4,78.5 617.0,74.3 622.6,75.9 628.3,71.6 633.9,72.6 639.5,71.4 645.1,73.9 650.7,70.6 656.3,65.0 661.9,65.7 667.5,74.0 673.2,75.1 678.8,76.2 684.4,75.7 690.0,73.2 695.6,80.6 701.2,83.0 706.8,83.4 712.5,83.5 718.1,84.7 723.7,85.0 729.3,85.4 734.9,86.1 740.5,83.9 746.1,82.9 751.7,83.8 757.4,83.2 763.0,84.2 768.6,85.2 774.2,85.5 779.8,84.0 785.4,87.0 791.0,86.8 796.6,84.8 802.3,86.2 807.9,86.2 813.5,86.7 819.1,86.5 824.7,84.7 830.3,85.3 835.9,85.5 841.5,86.4 847.2,84.6 852.8,85.6 858.4,85.2 864.0,86.1" fill="none" stroke="#00C878" stroke-width="1.5" stroke-linejoin="round" stroke-linecap="round"/>
<line x1="0" y1="92" x2="880" y2="92" stroke="#E8A000" stroke-width="0.5" />
<rect x="0" y="92" width="880" height="32" fill="#FFFFFF" opacity="0.02"/>
<text x="16" y="112" text-anchor="start" font-family="Courier New, Courier, monospace" font-size="10" fill="#FFA020" font-weight="bold">IBOV</text>
<text x="72" y="112" text-anchor="start" font-family="Courier New, Courier, monospace" font-size="10" fill="#E8A000" >IBOVESPA</text>
<text x="340" y="112" text-anchor="end" font-family="Courier New, Courier, monospace" font-size="11" fill="#D8E8F0" font-weight="bold">177,356</text>
<text x="420" y="112" text-anchor="end" font-family="Courier New, Courier, monospace" font-size="11" fill="#00C878" >+1.77%</text>
<text x="500" y="112" text-anchor="end" font-family="Courier New, Courier, monospace" font-size="11" fill="#00C878" >+10.48%</text>
<polyline points="516.0,104.3 521.8,105.8 527.6,103.5 533.4,103.7 539.2,103.9 545.0,105.9 550.8,105.4 556.6,111.0 562.4,109.0 568.2,113.4 574.0,114.4 579.8,113.0 585.6,110.7 591.4,110.3 597.2,114.5 603.0,116.0 608.8,113.9 614.6,113.5 620.4,114.2 626.2,113.6 632.0,117.2 637.8,112.1 643.6,111.6 649.4,108.9 655.2,111.4 661.0,112.4 666.8,111.6 672.6,107.1 678.4,106.7 684.2,106.6 690.0,106.5 695.8,106.4 701.6,102.8 707.4,100.2 713.2,98.2 719.0,97.6 724.8,97.0 730.6,97.8 736.4,98.7 742.2,99.6 748.0,99.3 753.8,102.2 759.6,103.6 765.4,104.1 771.2,105.2 777.0,106.1 782.8,109.6 788.6,107.2 794.4,108.8 800.2,107.7 806.0,106.9 811.8,110.9 817.6,110.1 823.4,112.1 829.2,113.5 835.0,116.5 840.8,115.3 846.6,116.3 852.4,116.6 858.2,119.0 864.0,116.2" fill="none" stroke="#00C878" stroke-width="1.5" stroke-linejoin="round" stroke-linecap="round"/>
<line x1="16" y1="124" x2="864" y2="124" stroke="#2A3A4A" stroke-width="0.3" />
<text x="16" y="144" text-anchor="start" font-family="Courier New, Courier, monospace" font-size="10" fill="#FFA020" font-weight="bold">SPY</text>
<text x="72" y="144" text-anchor="start" font-family="Courier New, Courier, monospace" font-size="10" fill="#E8A000" >S&P 500</text>
<text x="340" y="144" text-anchor="end" font-family="Courier New, Courier, monospace" font-size="11" fill="#D8E8F0" font-weight="bold">741.25</text>
<text x="420" y="144" text-anchor="end" font-family="Courier New, Courier, monospace" font-size="11" fill="#00C878" >+0.95%</text>
<text x="500" y="144" text-anchor="end" font-family="Courier New, Courier, monospace" font-size="11" fill="#00C878" >+8.80%</text>
<polyline points="516.0,141.8 521.7,140.9 527.4,139.8 533.1,140.5 538.8,141.1 544.5,141.1 550.2,142.2 555.9,141.3 561.6,142.0 567.3,143.7 573.0,142.6 578.8,142.8 584.5,143.0 590.2,144.9 595.9,145.6 601.6,144.3 607.3,144.0 613.0,145.8 618.7,146.1 624.4,147.9 630.1,146.6 635.8,147.0 641.5,146.3 647.2,148.5 652.9,150.6 658.6,151.0 664.3,147.5 670.0,146.6 675.7,146.5 681.4,145.9 687.1,145.8 692.9,142.7 698.6,141.9 704.3,142.0 710.0,140.8 715.7,139.2 721.4,138.1 727.1,137.8 732.8,136.2 738.5,136.5 744.2,137.3 749.9,136.0 755.6,136.5 761.3,135.5 767.0,135.2 772.7,135.9 778.4,135.9 784.1,134.6 789.8,134.2 795.5,134.7 801.2,133.6 807.0,131.7 812.7,132.1 818.4,131.0 824.1,130.7 829.8,130.9 835.5,130.1 841.2,129.0 846.9,130.7 852.6,130.8 858.3,131.7 864.0,130.3" fill="none" stroke="#00C878" stroke-width="1.5" stroke-linejoin="round" stroke-linecap="round"/>
<line x1="16" y1="156" x2="864" y2="156" stroke="#2A3A4A" stroke-width="0.3" />
<rect x="0" y="156" width="880" height="32" fill="#FFFFFF" opacity="0.02"/>
<text x="16" y="176" text-anchor="start" font-family="Courier New, Courier, monospace" font-size="10" fill="#FFA020" font-weight="bold">QQQ</text>
<text x="72" y="176" text-anchor="start" font-family="Courier New, Courier, monospace" font-size="10" fill="#E8A000" >NASDAQ 100</text>
<text x="340" y="176" text-anchor="end" font-family="Courier New, Courier, monospace" font-size="11" fill="#D8E8F0" font-weight="bold">713.15</text>
<text x="420" y="176" text-anchor="end" font-family="Courier New, Courier, monospace" font-size="11" fill="#00C878" >+1.55%</text>
<text x="500" y="176" text-anchor="end" font-family="Courier New, Courier, monospace" font-size="11" fill="#00C878" >+16.46%</text>
<polyline points="516.0,177.2 521.7,176.3 527.4,175.2 533.1,176.2 538.8,176.4 544.5,176.3 550.2,177.2 555.9,176.0 561.6,176.2 567.3,177.5 573.0,176.4 578.8,176.4 584.5,176.4 590.2,177.8 595.9,178.3 601.6,177.4 607.3,177.0 613.0,178.1 618.7,178.4 624.4,179.9 630.1,179.0 635.8,179.5 641.5,179.0 647.2,180.9 652.9,182.4 658.6,183.0 664.3,180.4 670.0,179.5 675.7,179.4 681.4,178.9 687.1,178.9 692.9,176.5 698.6,175.9 704.3,175.8 710.0,174.9 715.7,173.4 721.4,172.2 727.1,171.8 732.8,170.7 738.5,170.9 744.2,171.3 749.9,169.8 755.6,170.3 761.3,168.6 767.0,168.6 772.7,169.5 778.4,168.9 784.1,168.1 789.8,167.2 795.5,167.4 801.2,166.2 807.0,164.3 812.7,164.4 818.4,162.2 824.1,161.9 829.8,162.7 835.5,161.7 841.2,161.0 846.9,162.5 852.6,162.9 858.3,163.5 864.0,161.9" fill="none" stroke="#00C878" stroke-width="1.5" stroke-linejoin="round" stroke-linecap="round"/>
<line x1="16" y1="188" x2="864" y2="188" stroke="#2A3A4A" stroke-width="0.3" />
<text x="16" y="208" text-anchor="start" font-family="Courier New, Courier, monospace" font-size="10" fill="#FFA020" font-weight="bold">QMOM</text>
<text x="72" y="208" text-anchor="start" font-family="Courier New, Courier, monospace" font-size="10" fill="#E8A000" >QUANT MOMENTUM</text>
<text x="340" y="208" text-anchor="end" font-family="Courier New, Courier, monospace" font-size="11" fill="#D8E8F0" font-weight="bold">76.74</text>
<text x="420" y="208" text-anchor="end" font-family="Courier New, Courier, monospace" font-size="11" fill="#00C878" >+2.13%</text>
<text x="500" y="208" text-anchor="end" font-family="Courier New, Courier, monospace" font-size="11" fill="#00C878" >+15.42%</text>
<polyline points="516.0,205.0 521.7,203.2 527.4,202.8 533.1,202.3 538.8,203.0 544.5,202.0 550.2,206.0 555.9,205.2 561.6,208.1 567.3,210.3 573.0,207.6 578.8,206.9 584.5,207.7 590.2,209.9 595.9,211.6 601.6,209.3 607.3,208.5 613.0,209.6 618.7,209.3 624.4,212.6 630.1,210.4 635.8,209.0 641.5,207.6 647.2,211.4 652.9,212.0 658.6,215.0 664.3,209.7 670.0,207.7 675.7,208.0 681.4,207.7 687.1,207.5 692.9,202.9 698.6,202.3 704.3,202.1 710.0,201.1 715.7,200.2 721.4,201.1 727.1,200.8 732.8,198.6 738.5,198.5 744.2,199.9 749.9,198.9 755.6,198.5 761.3,198.4 767.0,198.8 772.7,201.3 778.4,202.3 784.1,198.0 789.8,198.3 795.5,198.1 801.2,196.6 807.0,193.0 812.7,197.1 818.4,195.3 824.1,193.6 829.8,194.6 835.5,193.7 841.2,193.5 846.9,197.2 852.6,198.9 858.3,200.2 864.0,198.0" fill="none" stroke="#00C878" stroke-width="1.5" stroke-linejoin="round" stroke-linecap="round"/>
<line x1="16" y1="220" x2="864" y2="220" stroke="#2A3A4A" stroke-width="0.3" />
<rect x="0" y="220" width="880" height="32" fill="#FFFFFF" opacity="0.02"/>
<text x="16" y="240" text-anchor="start" font-family="Courier New, Courier, monospace" font-size="10" fill="#FFA020" font-weight="bold">MTUM</text>
<text x="72" y="240" text-anchor="start" font-family="Courier New, Courier, monospace" font-size="10" fill="#E8A000" >MOMENTUM FACTOR</text>
<text x="340" y="240" text-anchor="end" font-family="Courier New, Courier, monospace" font-size="11" fill="#D8E8F0" font-weight="bold">299.59</text>
<text x="420" y="240" text-anchor="end" font-family="Courier New, Courier, monospace" font-size="11" fill="#00C878" >+2.49%</text>
<text x="500" y="240" text-anchor="end" font-family="Courier New, Courier, monospace" font-size="11" fill="#00C878" >+18.65%</text>
<polyline points="516.0,241.6 521.7,240.9 527.4,239.7 533.1,240.1 538.8,240.7 544.5,240.5 550.2,242.4 555.9,241.3 561.6,242.4 567.3,244.0 573.0,242.3 578.8,242.0 584.5,241.9 590.2,243.3 595.9,243.4 601.6,242.5 607.3,242.0 613.0,242.5 618.7,242.4 624.4,243.9 630.1,243.0 635.8,242.8 641.5,242.3 647.2,244.9 652.9,245.6 658.6,247.0 664.3,244.3 670.0,242.8 675.7,242.7 681.4,242.1 687.1,241.7 692.9,238.7 698.6,237.9 704.3,237.6 710.0,236.9 715.7,235.6 721.4,235.7 727.1,235.5 732.8,234.4 738.5,234.7 744.2,235.3 749.9,234.0 755.6,234.0 761.3,232.6 767.0,232.6 772.7,233.9 778.4,233.5 784.1,231.7 789.8,231.4 795.5,231.6 801.2,229.6 807.0,227.3 812.7,228.8 818.4,226.6 824.1,225.2 829.8,226.2 835.5,225.5 841.2,225.0 846.9,227.6 852.6,228.7 858.3,229.2 864.0,227.2" fill="none" stroke="#00C878" stroke-width="1.5" stroke-linejoin="round" stroke-linecap="round"/>
<line x1="16" y1="252" x2="864" y2="252" stroke="#2A3A4A" stroke-width="0.3" />
<text x="16" y="272" text-anchor="start" font-family="Courier New, Courier, monospace" font-size="10" fill="#FFA020" font-weight="bold">QUAL</text>
<text x="72" y="272" text-anchor="start" font-family="Courier New, Courier, monospace" font-size="10" fill="#E8A000" >QUALITY FACTOR</text>
<text x="340" y="272" text-anchor="end" font-family="Courier New, Courier, monospace" font-size="11" fill="#D8E8F0" font-weight="bold">212.23</text>
<text x="420" y="272" text-anchor="end" font-family="Courier New, Courier, monospace" font-size="11" fill="#00C878" >+1.43%</text>
<text x="500" y="272" text-anchor="end" font-family="Courier New, Courier, monospace" font-size="11" fill="#00C878" >+6.77%</text>
<polyline points="516.0,266.0 521.7,264.5 527.4,263.3 533.1,263.8 538.8,263.8 544.5,264.1 550.2,265.9 555.9,265.0 561.6,266.5 567.3,269.0 573.0,267.3 578.8,267.6 584.5,268.3 590.2,271.1 595.9,272.0 601.6,270.4 607.3,270.2 613.0,272.5 618.7,272.4 624.4,274.4 630.1,272.7 635.8,273.2 641.5,272.5 647.2,275.9 652.9,278.3 658.6,279.0 664.3,274.5 670.0,273.7 675.7,273.3 681.4,272.6 687.1,273.1 692.9,268.4 698.6,267.3 704.3,268.0 710.0,266.5 715.7,264.7 721.4,263.8 727.1,263.8 732.8,261.6 738.5,261.9 744.2,262.9 749.9,261.4 755.6,262.5 761.3,261.2 767.0,261.4 772.7,262.5 778.4,262.6 784.1,261.4 789.8,261.4 795.5,262.3 801.2,261.1 807.0,259.0 812.7,259.5 818.4,258.6 824.1,258.5 829.8,258.7 835.5,258.2 841.2,257.0 846.9,258.6 852.6,258.2 858.3,259.4 864.0,257.1" fill="none" stroke="#00C878" stroke-width="1.5" stroke-linejoin="round" stroke-linecap="round"/>
<line x1="16" y1="284" x2="864" y2="284" stroke="#2A3A4A" stroke-width="0.3" />
<line x1="0" y1="284" x2="880" y2="284" stroke="#E8A000" stroke-width="0.4" />
<text x="16" y="297" text-anchor="start" font-family="Courier New, Courier, monospace" font-size="8" fill="#506070" >SRC: YAHOO FINANCE  ·  AUTO-UPDATE 22:00 UTC WEEKDAYS  ·  GITHUB.COM/YANKRUZISKI</text>
<text x="864" y="297" text-anchor="end" font-family="Courier New, Courier, monospace" font-size="8" fill="#506070" >2026-05-20</text>
</svg>