<svg xmlns="http://www.w3.org/2000/svg" width="880" height="302" viewBox="0 0 880 302">
<rect width="880" height="302" fill="#040810"/>
<rect x="0.5" y="0.5" width="879" height="301" fill="none" stroke="#E8A000" stroke-width="0.7" opacity="0.5"/>
<rect x="0" y="0" width="880" height="18" fill="#D87000"/>
<text x="16" y="14" text-anchor="start" font-family="Courier New, Courier, monospace" font-size="9" fill="#030608" font-weight="bold">BLOOMBERG</text>
<text x="88" y="14" text-anchor="start" font-family="Courier New, Courier, monospace" font-size="9" fill="#030608" >QUANT MARKET MONITOR</text>
<text x="440" y="14" text-anchor="middle" font-family="Courier New, Courier, monospace" font-size="9" fill="#030608" >EQUITY  &amp;  VOLATILITY  DASHBOARD</text>
<text x="864" y="14" text-anchor="end" font-family="Courier New, Courier, monospace" font-size="9" fill="#030608" >2026-07-09  22:32 UTC</text>
<line x1="0" y1="38" x2="880" y2="38" stroke="#E8A000" stroke-width="0.8" />
<text x="16" y="33" text-anchor="start" font-family="Courier New, Courier, monospace" font-size="9" fill="#506070" >YAN KRUZISKI  ·  VP OF INTELI RESEARCH  ·  SÃO PAULO, BR</text>
<text x="864" y="33" text-anchor="end" font-family="Courier New, Courier, monospace" font-size="9" fill="#506070" >PAGE 1/1</text>
<rect x="0" y="38" width="880" height="22" fill="#E8A000" opacity="0.14"/>
<text x="16" y="54" text-anchor="start" font-family="Courier New, Courier, monospace" font-size="9" fill="#FFA020" font-weight="bold">TICKER</text>
<text x="72" y="54" text-anchor="start" font-family="Courier New, Courier, monospace" font-size="9" fill="#FFA020" font-weight="bold">DESCRIPTION</text>
<text x="340" y="54" text-anchor="end" font-family="Courier New, Courier, monospace" font-size="9" fill="#FFA020" font-weight="bold">LAST</text>
<text x="420" y="54" text-anchor="end" font-family="Courier New, Courier, monospace" font-size="9" fill="#FFA020" font-weight="bold">%CHG</text>
<text x="500" y="54" text-anchor="end" font-family="Courier New, Courier, monospace" font-size="9" fill="#FFA020" font-weight="bold">YTD%</text>
<text x="690" y="54" text-anchor="middle" font-family="Courier New, Courier, monospace" font-size="9" fill="#FFA020" font-weight="bold">3-MONTH</text>
<line x1="0" y1="60" x2="880" y2="60" stroke="#E8A000" stroke-width="0.9" />
<rect x="0" y="60" width="880" height="32" fill="#E8A000" opacity="0.09"/>
<text x="16" y="80" text-anchor="start" font-family="Courier New, Courier, monospace" font-size="10" fill="#FFA020" font-weight="bold">^VIX</text>
<text x="72" y="80" text-anchor="start" font-family="Courier New, Courier, monospace" font-size="10" fill="#E8A000" font-weight="bold">CBOE VOLATILITY INDEX</text>
<text x="340" y="80" text-anchor="end" font-family="Courier New, Courier, monospace" font-size="11" fill="#D8E8F0" font-weight="bold">15.84</text>
<text x="420" y="80" text-anchor="end" font-family="Courier New, Courier, monospace" font-size="11" fill="#00C878" font-weight="bold">-6.16%</text>
<text x="500" y="80" text-anchor="end" font-family="Courier New, Courier, monospace" font-size="10" fill="#00C878" font-weight="bold">NORMAL</text>
<polyline points="516.0,73.7 521.5,74.5 527.0,74.9 532.6,77.3 538.1,77.9 543.6,78.6 549.1,80.1 554.7,75.7 560.2,73.7 565.7,75.5 571.2,74.3 576.8,76.2 582.3,78.4 587.8,79.0 593.3,75.9 598.9,82.0 604.4,81.7 609.9,77.5 615.4,80.4 621.0,80.4 626.5,81.4 632.0,81.0 637.5,77.2 643.0,78.5 648.6,78.9 654.1,80.8 659.6,77.1 665.1,79.0 670.7,78.3 676.2,80.2 681.7,82.4 687.2,82.6 692.8,83.0 698.3,81.6 703.8,83.9 709.3,85.7 714.9,87.0 720.4,84.7 725.9,85.6 731.4,84.6 737.0,86.7 742.5,67.3 748.0,75.5 753.5,72.5 759.0,65.0 764.6,73.9 770.1,79.5 775.6,84.2 781.1,83.5 786.7,77.1 792.2,83.6 797.7,80.8 803.2,73.7 808.8,76.4 814.3,75.6 819.8,77.1 825.3,79.6 830.9,83.4 836.4,83.0 841.9,84.4 847.4,86.2 853.0,84.4 858.5,82.0 864.0,85.3" fill="none" stroke="#00C878" stroke-width="1.5" stroke-linejoin="round" stroke-linecap="round"/>
<line x1="0" y1="92" x2="880" y2="92" stroke="#E8A000" stroke-width="0.5" />
<rect x="0" y="92" width="880" height="32" fill="#FFFFFF" opacity="0.02"/>
<text x="16" y="112" text-anchor="start" font-family="Courier New, Courier, monospace" font-size="10" fill="#FFA020" font-weight="bold">IBOV</text>
<text x="72" y="112" text-anchor="start" font-family="Courier New, Courier, monospace" font-size="10" fill="#E8A000" >IBOVESPA</text>
<text x="340" y="112" text-anchor="end" font-family="Courier New, Courier, monospace" font-size="11" fill="#D8E8F0" font-weight="bold">172,742</text>
<text x="420" y="112" text-anchor="end" font-family="Courier New, Courier, monospace" font-size="11" fill="#00C878" >+1.22%</text>
<text x="500" y="112" text-anchor="end" font-family="Courier New, Courier, monospace" font-size="11" fill="#00C878" >+7.60%</text>
<polyline points="516.0,99.6 521.6,98.0 527.2,97.5 532.8,97.0 538.5,97.7 544.1,98.3 549.7,99.1 555.3,98.8 560.9,101.2 566.5,102.3 572.1,102.7 577.7,103.6 583.4,104.3 589.0,107.1 594.6,105.2 600.2,106.5 605.8,105.6 611.4,104.9 617.0,108.2 622.6,107.5 628.3,109.1 633.9,110.3 639.5,112.6 645.1,111.7 650.7,112.5 656.3,112.7 661.9,114.7 667.5,112.4 673.2,112.2 678.8,113.3 684.4,112.4 690.0,113.0 695.6,113.6 701.2,114.1 706.8,115.0 712.5,116.2 718.1,114.7 723.7,117.5 729.3,118.5 734.9,118.7 740.5,117.9 746.1,118.8 751.7,116.7 757.4,116.9 763.0,117.5 768.6,118.0 774.2,118.9 779.8,119.0 785.4,118.8 791.0,117.5 796.6,116.8 802.3,117.4 807.9,116.3 813.5,115.4 819.1,115.4 824.7,116.3 830.3,116.5 835.9,115.7 841.5,114.7 847.2,116.0 852.8,116.3 858.4,117.3 864.0,115.8" fill="none" stroke="#00C878" stroke-width="1.5" stroke-linejoin="round" stroke-linecap="round"/>
<line x1="16" y1="124" x2="864" y2="124" stroke="#2A3A4A" stroke-width="0.3" />
<text x="16" y="144" text-anchor="start" font-family="Courier New, Courier, monospace" font-size="10" fill="#FFA020" font-weight="bold">SPY</text>
<text x="72" y="144" text-anchor="start" font-family="Courier New, Courier, monospace" font-size="10" fill="#E8A000" >S&amp;P 500</text>
<text x="340" y="144" text-anchor="end" font-family="Courier New, Courier, monospace" font-size="11" fill="#D8E8F0" font-weight="bold">751.71</text>
<text x="420" y="144" text-anchor="end" font-family="Courier New, Courier, monospace" font-size="11" fill="#00C878" >+0.85%</text>
<text x="500" y="144" text-anchor="end" font-family="Courier New, Courier, monospace" font-size="11" fill="#00C878" >+10.62%</text>
<polyline points="516.0,151.0 521.7,149.2 527.4,146.9 533.1,145.4 538.8,144.9 544.5,142.6 550.2,143.0 555.9,144.2 561.6,142.3 567.3,143.0 573.0,141.5 578.8,141.2 584.5,142.1 590.2,142.2 595.9,140.2 601.6,139.7 607.3,140.4 613.0,138.8 618.7,136.1 624.4,136.7 630.1,135.0 635.8,134.6 641.5,134.9 647.2,133.7 652.9,132.1 658.6,134.6 664.3,134.7 670.0,136.1 675.7,134.0 681.4,133.6 687.1,132.8 692.9,131.5 698.6,131.5 704.3,130.4 710.0,129.8 715.7,129.3 721.4,129.0 727.1,130.5 732.8,129.7 738.5,135.0 744.2,134.6 749.9,135.2 755.6,138.4 761.3,135.0 767.0,133.9 772.7,130.3 778.4,131.5 784.1,134.1 789.8,132.0 795.5,132.6 801.2,135.6 807.0,135.7 812.7,135.4 818.4,136.9 824.1,133.6 829.8,132.0 835.5,132.3 841.2,132.5 846.9,130.7 852.6,131.7 858.3,132.4 864.0,130.6" fill="none" stroke="#00C878" stroke-width="1.5" stroke-linejoin="round" stroke-linecap="round"/>
<line x1="16" y1="156" x2="864" y2="156" stroke="#2A3A4A" stroke-width="0.3" />
<rect x="0" y="156" width="880" height="32" fill="#FFFFFF" opacity="0.02"/>
<text x="16" y="176" text-anchor="start" font-family="Courier New, Courier, monospace" font-size="10" fill="#FFA020" font-weight="bold">QQQ</text>
<text x="72" y="176" text-anchor="start" font-family="Courier New, Courier, monospace" font-size="10" fill="#E8A000" >NASDAQ 100</text>
<text x="340" y="176" text-anchor="end" font-family="Courier New, Courier, monospace" font-size="11" fill="#D8E8F0" font-weight="bold">723.28</text>
<text x="420" y="176" text-anchor="end" font-family="Courier New, Courier, monospace" font-size="11" fill="#00C878" >+1.54%</text>
<text x="500" y="176" text-anchor="end" font-family="Courier New, Courier, monospace" font-size="11" fill="#00C878" >+18.25%</text>
<polyline points="516.0,183.0 521.7,182.0 527.4,180.1 533.1,178.7 538.8,178.2 544.5,176.8 550.2,177.2 555.9,177.6 561.6,175.8 567.3,176.4 573.0,174.4 578.8,174.3 584.5,175.4 590.2,174.8 595.9,173.8 601.6,172.7 607.3,172.9 613.0,171.5 618.7,169.2 624.4,169.3 630.1,166.7 635.8,166.4 641.5,167.3 647.2,166.1 652.9,165.3 658.6,167.1 664.3,167.6 670.0,168.3 675.7,166.4 681.4,166.2 687.1,165.7 692.9,163.6 698.6,163.7 704.3,162.7 710.0,162.3 715.7,161.6 721.4,161.0 727.1,161.3 732.8,161.9 738.5,167.7 744.2,165.9 749.9,167.2 755.6,169.5 761.3,165.7 767.0,165.0 772.7,161.4 778.4,163.7 784.1,164.9 789.8,161.9 795.5,162.2 801.2,166.2 807.0,166.7 812.7,165.7 818.4,167.3 824.1,164.5 829.8,162.5 835.5,164.3 841.2,166.3 846.9,164.7 852.6,166.9 858.3,166.5 864.0,164.6" fill="none" stroke="#00C878" stroke-width="1.5" stroke-linejoin="round" stroke-linecap="round"/>
<line x1="16" y1="188" x2="864" y2="188" stroke="#2A3A4A" stroke-width="0.3" />
<text x="16" y="208" text-anchor="start" font-family="Courier New, Courier, monospace" font-size="10" fill="#FFA020" font-weight="bold">QMOM</text>
<text x="72" y="208" text-anchor="start" font-family="Courier New, Courier, monospace" font-size="10" fill="#E8A000" >QUANT MOMENTUM</text>
<text x="340" y="208" text-anchor="end" font-family="Courier New, Courier, monospace" font-size="11" fill="#D8E8F0" font-weight="bold">76.83</text>
<text x="420" y="208" text-anchor="end" font-family="Courier New, Courier, monospace" font-size="11" fill="#00C878" >+0.51%</text>
<text x="500" y="208" text-anchor="end" font-family="Courier New, Courier, monospace" font-size="11" fill="#00C878" >+15.56%</text>
<polyline points="516.0,214.5 521.7,212.6 527.4,210.8 533.1,212.5 538.8,211.9 544.5,207.7 550.2,207.5 555.9,210.1 561.6,208.2 567.3,207.4 573.0,207.3 578.8,208.0 584.5,212.9 590.2,215.0 595.9,206.5 601.6,207.1 607.3,206.6 613.0,203.8 618.7,196.6 624.4,204.6 630.1,201.2 635.8,197.8 641.5,199.8 647.2,197.9 652.9,197.5 658.6,204.9 664.3,208.3 670.0,210.9 675.7,206.5 681.4,205.2 687.1,204.4 692.9,198.2 698.6,199.6 704.3,197.7 710.0,196.4 715.7,196.9 721.4,193.0 727.1,193.8 732.8,194.5 738.5,206.2 744.2,204.8 749.9,207.3 755.6,212.3 761.3,202.8 767.0,200.0 772.7,198.5 778.4,200.8 784.1,202.2 789.8,200.8 795.5,196.6 801.2,202.5 807.0,204.5 812.7,200.8 818.4,205.9 824.1,202.7 829.8,201.1 835.5,204.8 841.2,208.9 846.9,207.2 852.6,209.9 858.3,207.3 864.0,206.2" fill="none" stroke="#00C878" stroke-width="1.5" stroke-linejoin="round" stroke-linecap="round"/>
<line x1="16" y1="220" x2="864" y2="220" stroke="#2A3A4A" stroke-width="0.3" />
<rect x="0" y="220" width="880" height="32" fill="#FFFFFF" opacity="0.02"/>
<text x="16" y="240" text-anchor="start" font-family="Courier New, Courier, monospace" font-size="10" fill="#FFA020" font-weight="bold">MTUM</text>
<text x="72" y="240" text-anchor="start" font-family="Courier New, Courier, monospace" font-size="10" fill="#E8A000" >MOMENTUM FACTOR</text>
<text x="340" y="240" text-anchor="end" font-family="Courier New, Courier, monospace" font-size="11" fill="#D8E8F0" font-weight="bold">321.20</text>
<text x="420" y="240" text-anchor="end" font-family="Courier New, Courier, monospace" font-size="11" fill="#00C878" >+1.73%</text>
<text x="500" y="240" text-anchor="end" font-family="Courier New, Courier, monospace" font-size="11" fill="#00C878" >+27.35%</text>
<polyline points="516.0,247.0 521.7,246.3 527.4,245.2 533.1,245.2 538.8,245.0 544.5,244.0 550.2,244.3 555.9,244.8 561.6,243.6 567.3,243.7 573.0,242.3 578.8,242.4 584.5,243.6 590.2,243.2 595.9,241.5 601.6,241.2 607.3,241.4 613.0,239.6 618.7,237.4 624.4,238.8 630.1,236.7 635.8,235.4 641.5,236.3 647.2,235.8 652.9,235.3 658.6,237.7 664.3,238.7 670.0,239.2 675.7,237.3 681.4,236.6 687.1,236.2 692.9,233.4 698.6,233.6 704.3,233.3 710.0,233.0 715.7,232.7 721.4,230.2 727.1,229.3 732.8,230.3 738.5,235.5 744.2,233.2 749.9,234.1 755.6,235.9 761.3,232.1 767.0,230.7 772.7,228.1 778.4,230.1 784.1,229.5 789.8,226.8 795.5,225.0 801.2,229.1 807.0,229.5 812.7,226.6 818.4,230.2 824.1,227.5 829.8,225.6 835.5,229.6 841.2,232.7 846.9,231.3 852.6,233.8 858.3,233.1 864.0,231.4" fill="none" stroke="#00C878" stroke-width="1.5" stroke-linejoin="round" stroke-linecap="round"/>
<line x1="16" y1="252" x2="864" y2="252" stroke="#2A3A4A" stroke-width="0.3" />
<text x="16" y="272" text-anchor="start" font-family="Courier New, Courier, monospace" font-size="10" fill="#FFA020" font-weight="bold">QUAL</text>
<text x="72" y="272" text-anchor="start" font-family="Courier New, Courier, monospace" font-size="10" fill="#E8A000" >QUALITY FACTOR</text>
<text x="340" y="272" text-anchor="end" font-family="Courier New, Courier, monospace" font-size="11" fill="#D8E8F0" font-weight="bold">218.50</text>
<text x="420" y="272" text-anchor="end" font-family="Courier New, Courier, monospace" font-size="11" fill="#00C878" >+1.12%</text>
<text x="500" y="272" text-anchor="end" font-family="Courier New, Courier, monospace" font-size="11" fill="#00C878" >+10.12%</text>
<polyline points="516.0,279.0 521.7,277.1 527.4,274.9 533.1,273.7 538.8,273.8 544.5,270.9 550.2,271.3 555.9,272.5 561.6,270.7 567.3,272.1 573.0,270.4 578.8,270.7 584.5,272.0 590.2,272.2 595.9,270.6 601.6,270.7 607.3,271.8 613.0,270.3 618.7,267.6 624.4,268.2 630.1,267.2 635.8,267.0 641.5,267.2 647.2,266.6 652.9,265.1 658.6,267.1 664.3,266.6 670.0,268.1 675.7,265.2 681.4,264.7 687.1,262.9 692.9,261.4 698.6,262.0 704.3,261.3 710.0,261.7 715.7,261.2 721.4,261.4 727.1,261.5 732.8,259.7 738.5,264.2 744.2,263.5 749.9,263.2 755.6,265.1 761.3,261.2 767.0,260.1 772.7,257.2 778.4,258.8 784.1,262.4 789.8,260.8 795.5,260.9 801.2,264.0 807.0,263.8 812.7,263.7 818.4,263.2 824.1,259.3 829.8,257.0 835.5,257.6 841.2,258.1 846.9,258.0 852.6,258.8 858.3,259.7 864.0,258.0" fill="none" stroke="#00C878" stroke-width="1.5" stroke-linejoin="round" stroke-linecap="round"/>
<line x1="16" y1="284" x2="864" y2="284" stroke="#2A3A4A" stroke-width="0.3" />
<line x1="0" y1="284" x2="880" y2="284" stroke="#E8A000" stroke-width="0.4" />
<text x="16" y="297" text-anchor="start" font-family="Courier New, Courier, monospace" font-size="8" fill="#506070" >SRC: YAHOO FINANCE  ·  AUTO-UPDATE 22:00 UTC WEEKDAYS  ·  GITHUB.COM/YANKRUZISKI</text>
<text x="864" y="297" text-anchor="end" font-family="Courier New, Courier, monospace" font-size="8" fill="#506070" >2026-07-09</text>
</svg>