<svg xmlns="http://www.w3.org/2000/svg" width="880" height="302" viewBox="0 0 880 302">
<rect width="880" height="302" fill="#040810"/>
<rect x="0.5" y="0.5" width="879" height="301" fill="none" stroke="#E8A000" stroke-width="0.7" opacity="0.5"/>
<rect x="0" y="0" width="880" height="18" fill="#D87000"/>
<text x="16" y="14" text-anchor="start" font-family="Courier New, Courier, monospace" font-size="9" fill="#030608" font-weight="bold">BLOOMBERG</text>
<text x="88" y="14" text-anchor="start" font-family="Courier New, Courier, monospace" font-size="9" fill="#030608" >QUANT MARKET MONITOR</text>
<text x="440" y="14" text-anchor="middle" font-family="Courier New, Courier, monospace" font-size="9" fill="#030608" >EQUITY  &amp;  VOLATILITY  DASHBOARD</text>
<text x="864" y="14" text-anchor="end" font-family="Courier New, Courier, monospace" font-size="9" fill="#030608" >2026-06-01  22:45 UTC</text>
<line x1="0" y1="38" x2="880" y2="38" stroke="#E8A000" stroke-width="0.8" />
<text x="16" y="33" text-anchor="start" font-family="Courier New, Courier, monospace" font-size="9" fill="#506070" >YAN KRUZISKI  ·  VP OF INTELI RESEARCH  ·  SÃO PAULO, BR</text>
<text x="864" y="33" text-anchor="end" font-family="Courier New, Courier, monospace" font-size="9" fill="#506070" >PAGE 1/1</text>
<rect x="0" y="38" width="880" height="22" fill="#E8A000" opacity="0.14"/>
<text x="16" y="54" text-anchor="start" font-family="Courier New, Courier, monospace" font-size="9" fill="#FFA020" font-weight="bold">TICKER</text>
<text x="72" y="54" text-anchor="start" font-family="Courier New, Courier, monospace" font-size="9" fill="#FFA020" font-weight="bold">DESCRIPTION</text>
<text x="340" y="54" text-anchor="end" font-family="Courier New, Courier, monospace" font-size="9" fill="#FFA020" font-weight="bold">LAST</text>
<text x="420" y="54" text-anchor="end" font-family="Courier New, Courier, monospace" font-size="9" fill="#FFA020" font-weight="bold">%CHG</text>
<text x="500" y="54" text-anchor="end" font-family="Courier New, Courier, monospace" font-size="9" fill="#FFA020" font-weight="bold">YTD%</text>
<text x="690" y="54" text-anchor="middle" font-family="Courier New, Courier, monospace" font-size="9" fill="#FFA020" font-weight="bold">3-MONTH</text>
<line x1="0" y1="60" x2="880" y2="60" stroke="#E8A000" stroke-width="0.9" />
<rect x="0" y="60" width="880" height="32" fill="#E8A000" opacity="0.09"/>
<text x="16" y="80" text-anchor="start" font-family="Courier New, Courier, monospace" font-size="10" fill="#FFA020" font-weight="bold">^VIX</text>
<text x="72" y="80" text-anchor="start" font-family="Courier New, Courier, monospace" font-size="10" fill="#E8A000" font-weight="bold">CBOE VOLATILITY INDEX</text>
<text x="340" y="80" text-anchor="end" font-family="Courier New, Courier, monospace" font-size="11" fill="#D8E8F0" font-weight="bold">16.05</text>
<text x="420" y="80" text-anchor="end" font-family="Courier New, Courier, monospace" font-size="11" fill="#FF3C3C" font-weight="bold">+4.63%</text>
<text x="500" y="80" text-anchor="end" font-family="Courier New, Courier, monospace" font-size="10" fill="#FF3C3C" font-weight="bold">NORMAL</text>
<polyline points="516.0,78.4 521.4,75.5 526.9,78.8 532.3,75.2 537.8,67.2 543.2,72.8 548.6,73.6 554.1,74.5 559.5,70.3 564.9,70.4 570.4,75.5 575.8,77.1 581.2,73.3 586.7,74.8 592.1,71.0 597.6,71.9 603.0,70.7 608.4,73.0 613.9,70.0 619.3,65.0 624.8,65.6 630.2,73.1 635.6,74.1 641.1,75.0 646.5,74.6 651.9,72.4 657.4,79.0 662.8,81.2 668.2,81.5 673.7,81.7 679.1,82.7 684.6,83.0 690.0,83.3 695.4,84.0 700.9,82.0 706.3,81.2 711.8,82.0 717.2,81.4 722.6,82.3 728.1,83.2 733.5,83.5 738.9,82.1 744.4,84.8 749.8,84.7 755.2,82.8 760.7,84.1 766.1,84.1 771.6,84.5 777.0,84.4 782.4,82.7 787.9,83.3 793.3,83.4 798.8,84.3 804.2,82.7 809.6,83.5 815.1,83.2 820.5,84.0 825.9,85.0 831.4,85.1 836.8,85.2 842.2,84.6 847.7,85.6 853.1,86.4 858.6,87.0 864.0,86.0" fill="none" stroke="#FF3C3C" stroke-width="1.5" stroke-linejoin="round" stroke-linecap="round"/>
<line x1="0" y1="92" x2="880" y2="92" stroke="#E8A000" stroke-width="0.5" />
<rect x="0" y="92" width="880" height="32" fill="#FFFFFF" opacity="0.02"/>
<text x="16" y="112" text-anchor="start" font-family="Courier New, Courier, monospace" font-size="10" fill="#FFA020" font-weight="bold">IBOV</text>
<text x="72" y="112" text-anchor="start" font-family="Courier New, Courier, monospace" font-size="10" fill="#E8A000" >IBOVESPA</text>
<text x="340" y="112" text-anchor="end" font-family="Courier New, Courier, monospace" font-size="11" fill="#D8E8F0" font-weight="bold">172,197</text>
<text x="420" y="112" text-anchor="end" font-family="Courier New, Courier, monospace" font-size="11" fill="#FF3C3C" >-0.91%</text>
<text x="500" y="112" text-anchor="end" font-family="Courier New, Courier, monospace" font-size="11" fill="#00C878" >+7.26%</text>
<polyline points="516.0,104.8 521.6,109.9 527.2,108.1 532.8,112.1 538.5,113.0 544.1,111.8 549.7,109.6 555.3,109.2 560.9,113.1 566.5,114.5 572.1,112.6 577.7,112.2 583.4,112.8 589.0,112.3 594.6,115.7 600.2,110.9 605.8,110.4 611.4,108.0 617.0,110.2 622.6,111.2 628.3,110.4 633.9,106.3 639.5,105.9 645.1,105.8 650.7,105.7 656.3,105.6 661.9,102.4 667.5,99.9 673.2,98.1 678.8,97.5 684.4,97.0 690.0,97.8 695.6,98.5 701.2,99.4 706.8,99.1 712.5,101.8 718.1,103.1 723.7,103.6 729.3,104.5 734.9,105.3 740.5,108.6 746.1,106.4 751.7,107.9 757.4,106.9 763.0,106.1 768.6,109.8 774.2,109.1 779.8,110.9 785.4,112.2 791.0,114.9 796.6,113.9 802.3,114.8 807.9,115.0 813.5,117.3 819.1,114.7 824.7,114.5 830.3,115.7 835.9,114.7 841.5,115.3 847.2,116.1 852.8,116.6 858.4,117.7 864.0,119.0" fill="none" stroke="#FF3C3C" stroke-width="1.5" stroke-linejoin="round" stroke-linecap="round"/>
<line x1="16" y1="124" x2="864" y2="124" stroke="#2A3A4A" stroke-width="0.3" />
<text x="16" y="144" text-anchor="start" font-family="Courier New, Courier, monospace" font-size="10" fill="#FFA020" font-weight="bold">SPY</text>
<text x="72" y="144" text-anchor="start" font-family="Courier New, Courier, monospace" font-size="10" fill="#E8A000" >S&amp;P 500</text>
<text x="340" y="144" text-anchor="end" font-family="Courier New, Courier, monospace" font-size="11" fill="#D8E8F0" font-weight="bold">758.54</text>
<text x="420" y="144" text-anchor="end" font-family="Courier New, Courier, monospace" font-size="11" fill="#00C878" >+0.37%</text>
<text x="500" y="144" text-anchor="end" font-family="Courier New, Courier, monospace" font-size="11" fill="#00C878" >+11.34%</text>
<polyline points="516.0,141.9 521.5,142.9 527.0,142.1 532.6,142.7 538.1,144.3 543.6,143.3 549.1,143.5 554.7,143.6 560.2,145.4 565.7,146.0 571.2,144.9 576.8,144.6 582.3,146.2 587.8,146.5 593.3,148.1 598.9,146.9 604.4,147.3 609.9,146.7 615.4,148.7 621.0,150.6 626.5,151.0 632.0,147.8 637.5,147.0 643.0,146.9 648.6,146.3 654.1,146.3 659.6,143.3 665.1,142.7 670.7,142.7 676.2,141.6 681.7,140.1 687.2,139.2 692.8,138.9 698.3,137.4 703.8,137.7 709.3,138.5 714.9,137.2 720.4,137.7 725.9,136.8 731.4,136.5 737.0,137.1 742.5,137.2 748.0,135.9 753.5,135.6 759.0,136.0 764.6,135.0 770.1,133.3 775.6,133.7 781.1,132.6 786.7,132.3 792.2,132.5 797.7,131.8 803.2,130.8 808.8,132.4 814.3,132.5 819.8,133.3 825.3,132.0 830.9,131.7 836.4,131.2 841.9,130.4 847.4,130.4 853.0,129.7 858.5,129.4 864.0,129.0" fill="none" stroke="#00C878" stroke-width="1.5" stroke-linejoin="round" stroke-linecap="round"/>
<line x1="16" y1="156" x2="864" y2="156" stroke="#2A3A4A" stroke-width="0.3" />
<rect x="0" y="156" width="880" height="32" fill="#FFFFFF" opacity="0.02"/>
<text x="16" y="176" text-anchor="start" font-family="Courier New, Courier, monospace" font-size="10" fill="#FFA020" font-weight="bold">QQQ</text>
<text x="72" y="176" text-anchor="start" font-family="Courier New, Courier, monospace" font-size="10" fill="#E8A000" >NASDAQ 100</text>
<text x="340" y="176" text-anchor="end" font-family="Courier New, Courier, monospace" font-size="11" fill="#D8E8F0" font-weight="bold">742.74</text>
<text x="420" y="176" text-anchor="end" font-family="Courier New, Courier, monospace" font-size="11" fill="#00C878" >+0.65%</text>
<text x="500" y="176" text-anchor="end" font-family="Courier New, Courier, monospace" font-size="11" fill="#00C878" >+21.29%</text>
<polyline points="516.0,177.2 521.5,177.9 527.0,176.8 532.6,177.1 538.1,178.1 543.6,177.2 549.1,177.2 554.7,177.2 560.2,178.4 565.7,178.9 571.2,178.1 576.8,177.7 582.3,178.7 587.8,178.9 593.3,180.3 598.9,179.5 604.4,179.9 609.9,179.5 615.4,181.2 621.0,182.5 626.5,183.0 632.0,180.7 637.5,179.9 643.0,179.8 648.6,179.4 654.1,179.4 659.6,177.3 665.1,176.8 670.7,176.7 676.2,176.0 681.7,174.6 687.2,173.6 692.8,173.2 698.3,172.2 703.8,172.4 709.3,172.7 714.9,171.5 720.4,171.9 725.9,170.4 731.4,170.4 737.0,171.2 742.5,170.7 748.0,169.9 753.5,169.2 759.0,169.3 764.6,168.3 770.1,166.6 775.6,166.7 781.1,164.8 786.7,164.5 792.2,165.2 797.7,164.3 803.2,163.7 808.8,165.0 814.3,165.4 819.8,165.9 825.3,164.5 830.9,164.4 836.4,164.0 841.9,162.5 847.4,162.6 853.0,161.9 858.5,161.5 864.0,161.0" fill="none" stroke="#00C878" stroke-width="1.5" stroke-linejoin="round" stroke-linecap="round"/>
<line x1="16" y1="188" x2="864" y2="188" stroke="#2A3A4A" stroke-width="0.3" />
<text x="16" y="208" text-anchor="start" font-family="Courier New, Courier, monospace" font-size="10" fill="#FFA020" font-weight="bold">QMOM</text>
<text x="72" y="208" text-anchor="start" font-family="Courier New, Courier, monospace" font-size="10" fill="#E8A000" >QUANT MOMENTUM</text>
<text x="340" y="208" text-anchor="end" font-family="Courier New, Courier, monospace" font-size="11" fill="#D8E8F0" font-weight="bold">80.26</text>
<text x="420" y="208" text-anchor="end" font-family="Courier New, Courier, monospace" font-size="11" fill="#FF3C3C" >-0.21%</text>
<text x="500" y="208" text-anchor="end" font-family="Courier New, Courier, monospace" font-size="11" fill="#00C878" >+20.72%</text>
<polyline points="516.0,202.1 521.5,206.1 527.0,205.3 532.6,208.2 538.1,210.3 543.6,207.7 549.1,206.9 554.7,207.7 560.2,210.0 565.7,211.6 571.2,209.3 576.8,208.5 582.3,209.6 587.8,209.3 593.3,212.7 598.9,210.4 604.4,209.0 609.9,207.6 615.4,211.4 621.0,212.0 626.5,215.0 632.0,209.7 637.5,207.7 643.0,208.0 648.6,207.7 654.1,207.6 659.6,202.9 665.1,202.3 670.7,202.1 676.2,201.2 681.7,200.3 687.2,201.1 692.8,200.8 698.3,198.7 703.8,198.6 709.3,199.9 714.9,199.0 720.4,198.5 725.9,198.5 731.4,198.9 737.0,201.3 742.5,202.4 748.0,198.1 753.5,198.4 759.0,198.1 764.6,196.7 770.1,193.1 775.6,197.2 781.1,195.4 786.7,193.7 792.2,194.7 797.7,193.7 803.2,193.6 808.8,197.3 814.3,199.0 819.8,200.3 825.3,198.1 830.9,197.4 836.4,197.0 841.9,193.9 847.4,194.6 853.0,193.7 858.5,193.0 864.0,193.2" fill="none" stroke="#FF3C3C" stroke-width="1.5" stroke-linejoin="round" stroke-linecap="round"/>
<line x1="16" y1="220" x2="864" y2="220" stroke="#2A3A4A" stroke-width="0.3" />
<rect x="0" y="220" width="880" height="32" fill="#FFFFFF" opacity="0.02"/>
<text x="16" y="240" text-anchor="start" font-family="Courier New, Courier, monospace" font-size="10" fill="#FFA020" font-weight="bold">MTUM</text>
<text x="72" y="240" text-anchor="start" font-family="Courier New, Courier, monospace" font-size="10" fill="#E8A000" >MOMENTUM FACTOR</text>
<text x="340" y="240" text-anchor="end" font-family="Courier New, Courier, monospace" font-size="11" fill="#D8E8F0" font-weight="bold">316.93</text>
<text x="420" y="240" text-anchor="end" font-family="Courier New, Courier, monospace" font-size="11" fill="#FF3C3C" >-0.06%</text>
<text x="500" y="240" text-anchor="end" font-family="Courier New, Courier, monospace" font-size="11" fill="#00C878" >+25.52%</text>
<polyline points="516.0,241.2 521.5,242.9 527.0,242.0 532.6,242.9 538.1,244.3 543.6,242.9 549.1,242.6 554.7,242.5 560.2,243.7 565.7,243.8 571.2,243.0 576.8,242.5 582.3,243.0 587.8,242.9 593.3,244.3 598.9,243.5 604.4,243.2 609.9,242.8 615.4,245.1 621.0,245.7 626.5,247.0 632.0,244.6 637.5,243.3 643.0,243.1 648.6,242.7 654.1,242.3 659.6,239.6 665.1,238.9 670.7,238.7 676.2,238.0 681.7,236.9 687.2,237.0 692.8,236.8 698.3,235.8 703.8,236.1 709.3,236.6 714.9,235.5 720.4,235.5 725.9,234.2 731.4,234.2 737.0,235.4 742.5,235.0 748.0,233.4 753.5,233.1 759.0,233.3 764.6,231.6 770.1,229.5 775.6,230.9 781.1,228.9 786.7,227.6 792.2,228.5 797.7,227.9 803.2,227.5 808.8,229.8 814.3,230.8 819.8,231.2 825.3,229.4 830.9,228.8 836.4,228.4 841.9,225.7 847.4,225.9 853.0,225.6 858.5,225.3 864.0,225.0" fill="none" stroke="#FF3C3C" stroke-width="1.5" stroke-linejoin="round" stroke-linecap="round"/>
<line x1="16" y1="252" x2="864" y2="252" stroke="#2A3A4A" stroke-width="0.3" />
<text x="16" y="272" text-anchor="start" font-family="Courier New, Courier, monospace" font-size="10" fill="#FFA020" font-weight="bold">QUAL</text>
<text x="72" y="272" text-anchor="start" font-family="Courier New, Courier, monospace" font-size="10" fill="#E8A000" >QUALITY FACTOR</text>
<text x="340" y="272" text-anchor="end" font-family="Courier New, Courier, monospace" font-size="11" fill="#D8E8F0" font-weight="bold">215.97</text>
<text x="420" y="272" text-anchor="end" font-family="Courier New, Courier, monospace" font-size="11" fill="#8A9AAA" >-0.01%</text>
<text x="500" y="272" text-anchor="end" font-family="Courier New, Courier, monospace" font-size="11" fill="#00C878" >+8.66%</text>
<polyline points="516.0,265.9 521.5,267.5 527.0,266.7 532.6,268.0 538.1,270.2 543.6,268.7 549.1,269.0 554.7,269.6 560.2,272.1 565.7,272.8 571.2,271.5 576.8,271.2 582.3,273.3 587.8,273.2 593.3,275.0 598.9,273.4 604.4,273.9 609.9,273.3 615.4,276.3 621.0,278.4 626.5,279.0 632.0,275.0 637.5,274.3 643.0,274.0 648.6,273.4 654.1,273.9 659.6,269.7 665.1,268.7 670.7,269.3 676.2,268.0 681.7,266.5 687.2,265.7 692.8,265.7 698.3,263.8 703.8,264.0 709.3,264.8 714.9,263.6 720.4,264.5 725.9,263.4 731.4,263.6 737.0,264.5 742.5,264.6 748.0,263.5 753.5,263.6 759.0,264.4 764.6,263.3 770.1,261.4 775.6,261.9 781.1,261.1 786.7,261.0 792.2,261.2 797.7,260.7 803.2,259.7 808.8,261.1 814.3,260.8 819.8,261.8 825.3,259.8 830.9,259.4 836.4,258.2 841.9,257.1 847.4,257.5 853.0,257.1 858.5,257.4 864.0,257.0" fill="none" stroke="#8A9AAA" stroke-width="1.5" stroke-linejoin="round" stroke-linecap="round"/>
<line x1="16" y1="284" x2="864" y2="284" stroke="#2A3A4A" stroke-width="0.3" />
<line x1="0" y1="284" x2="880" y2="284" stroke="#E8A000" stroke-width="0.4" />
<text x="16" y="297" text-anchor="start" font-family="Courier New, Courier, monospace" font-size="8" fill="#506070" >SRC: YAHOO FINANCE  ·  AUTO-UPDATE 22:00 UTC WEEKDAYS  ·  GITHUB.COM/YANKRUZISKI</text>
<text x="864" y="297" text-anchor="end" font-family="Courier New, Courier, monospace" font-size="8" fill="#506070" >2026-06-01</text>
</svg>