<svg xmlns="http://www.w3.org/2000/svg" width="880" height="302" viewBox="0 0 880 302">
<rect width="880" height="302" fill="#040810"/>
<rect x="0.5" y="0.5" width="879" height="301" fill="none" stroke="#E8A000" stroke-width="0.7" opacity="0.5"/>
<rect x="0" y="0" width="880" height="18" fill="#D87000"/>
<text x="16" y="14" text-anchor="start" font-family="Courier New, Courier, monospace" font-size="9" fill="#030608" font-weight="bold">BLOOMBERG</text>
<text x="88" y="14" text-anchor="start" font-family="Courier New, Courier, monospace" font-size="9" fill="#030608" >QUANT MARKET MONITOR</text>
<text x="440" y="14" text-anchor="middle" font-family="Courier New, Courier, monospace" font-size="9" fill="#030608" >EQUITY  &amp;  VOLATILITY  DASHBOARD</text>
<text x="864" y="14" text-anchor="end" font-family="Courier New, Courier, monospace" font-size="9" fill="#030608" >2026-07-20  22:59 UTC</text>
<line x1="0" y1="38" x2="880" y2="38" stroke="#E8A000" stroke-width="0.8" />
<text x="16" y="33" text-anchor="start" font-family="Courier New, Courier, monospace" font-size="9" fill="#506070" >YAN KRUZISKI  ·  VP OF INTELI RESEARCH  ·  SÃO PAULO, BR</text>
<text x="864" y="33" text-anchor="end" font-family="Courier New, Courier, monospace" font-size="9" fill="#506070" >PAGE 1/1</text>
<rect x="0" y="38" width="880" height="22" fill="#E8A000" opacity="0.14"/>
<text x="16" y="54" text-anchor="start" font-family="Courier New, Courier, monospace" font-size="9" fill="#FFA020" font-weight="bold">TICKER</text>
<text x="72" y="54" text-anchor="start" font-family="Courier New, Courier, monospace" font-size="9" fill="#FFA020" font-weight="bold">DESCRIPTION</text>
<text x="340" y="54" text-anchor="end" font-family="Courier New, Courier, monospace" font-size="9" fill="#FFA020" font-weight="bold">LAST</text>
<text x="420" y="54" text-anchor="end" font-family="Courier New, Courier, monospace" font-size="9" fill="#FFA020" font-weight="bold">%CHG</text>
<text x="500" y="54" text-anchor="end" font-family="Courier New, Courier, monospace" font-size="9" fill="#FFA020" font-weight="bold">YTD%</text>
<text x="690" y="54" text-anchor="middle" font-family="Courier New, Courier, monospace" font-size="9" fill="#FFA020" font-weight="bold">3-MONTH</text>
<line x1="0" y1="60" x2="880" y2="60" stroke="#E8A000" stroke-width="0.9" />
<rect x="0" y="60" width="880" height="32" fill="#E8A000" opacity="0.09"/>
<text x="16" y="80" text-anchor="start" font-family="Courier New, Courier, monospace" font-size="10" fill="#FFA020" font-weight="bold">^VIX</text>
<text x="72" y="80" text-anchor="start" font-family="Courier New, Courier, monospace" font-size="10" fill="#E8A000" font-weight="bold">CBOE VOLATILITY INDEX</text>
<text x="340" y="80" text-anchor="end" font-family="Courier New, Courier, monospace" font-size="11" fill="#D8E8F0" font-weight="bold">18.65</text>
<text x="420" y="80" text-anchor="end" font-family="Courier New, Courier, monospace" font-size="11" fill="#00C878" font-weight="bold">-0.48%</text>
<text x="500" y="80" text-anchor="end" font-family="Courier New, Courier, monospace" font-size="10" fill="#00C878" font-weight="bold">NORMAL</text>
<polyline points="516.0,75.3 521.5,73.3 527.0,75.1 532.6,73.9 538.1,75.7 543.6,77.9 549.1,78.4 554.7,75.4 560.2,81.3 565.7,81.0 571.2,77.0 576.8,79.8 582.3,79.8 587.8,80.7 593.3,80.4 598.9,76.7 604.4,77.9 609.9,78.3 615.4,80.2 621.0,76.6 626.5,78.5 632.0,77.7 637.5,79.6 643.0,81.7 648.6,81.9 654.1,82.2 659.6,80.9 665.1,83.1 670.7,84.8 676.2,86.1 681.7,83.9 687.2,84.7 692.8,83.8 698.3,85.9 703.8,67.2 709.3,75.1 714.9,72.2 720.4,65.0 725.9,73.5 731.4,78.9 737.0,83.4 742.5,82.8 748.0,76.6 753.5,82.8 759.0,80.1 764.6,73.4 770.1,76.0 775.6,75.2 781.1,76.7 786.7,79.0 792.2,82.7 797.7,82.2 803.2,83.6 808.8,85.3 814.3,83.6 819.8,81.3 825.3,84.5 830.9,87.0 836.4,80.5 841.9,82.5 847.4,85.0 853.0,81.8 858.5,75.6 864.0,75.9" fill="none" stroke="#00C878" stroke-width="1.5" stroke-linejoin="round" stroke-linecap="round"/>
<line x1="0" y1="92" x2="880" y2="92" stroke="#E8A000" stroke-width="0.5" />
<rect x="0" y="92" width="880" height="32" fill="#FFFFFF" opacity="0.02"/>
<text x="16" y="112" text-anchor="start" font-family="Courier New, Courier, monospace" font-size="10" fill="#FFA020" font-weight="bold">IBOV</text>
<text x="72" y="112" text-anchor="start" font-family="Courier New, Courier, monospace" font-size="10" fill="#E8A000" >IBOVESPA</text>
<text x="340" y="112" text-anchor="end" font-family="Courier New, Courier, monospace" font-size="11" fill="#D8E8F0" font-weight="bold">173,371</text>
<text x="420" y="112" text-anchor="end" font-family="Courier New, Courier, monospace" font-size="11" fill="#FF3C3C" >-0.20%</text>
<text x="500" y="112" text-anchor="end" font-family="Courier New, Courier, monospace" font-size="11" fill="#00C878" >+7.99%</text>
<polyline points="516.0,97.0 521.6,99.6 527.2,100.8 532.8,101.3 538.5,102.2 544.1,102.9 549.7,106.0 555.3,104.0 560.9,105.3 566.5,104.4 572.1,103.7 577.7,107.2 583.4,106.5 589.0,108.2 594.6,109.5 600.2,112.0 605.8,111.0 611.4,111.9 617.0,112.1 622.6,114.3 628.3,111.8 633.9,111.6 639.5,112.7 645.1,111.8 650.7,112.4 656.3,113.1 661.9,113.6 667.5,114.6 673.2,115.9 678.8,114.3 684.4,117.4 690.0,118.4 695.6,118.7 701.2,117.8 706.8,118.7 712.5,116.5 718.1,116.7 723.7,117.3 729.3,117.9 734.9,118.9 740.5,119.0 746.1,118.8 751.7,117.3 757.4,116.6 763.0,117.2 768.6,116.1 774.2,115.0 779.8,115.1 785.4,116.0 791.0,116.3 796.6,115.4 802.3,114.3 807.9,115.7 813.5,116.0 819.1,117.1 824.7,115.5 830.3,111.4 835.9,113.1 841.5,112.4 847.2,112.9 852.8,114.6 858.4,114.7 864.0,115.0" fill="none" stroke="#FF3C3C" stroke-width="1.5" stroke-linejoin="round" stroke-linecap="round"/>
<line x1="16" y1="124" x2="864" y2="124" stroke="#2A3A4A" stroke-width="0.3" />
<text x="16" y="144" text-anchor="start" font-family="Courier New, Courier, monospace" font-size="10" fill="#FFA020" font-weight="bold">SPY</text>
<text x="72" y="144" text-anchor="start" font-family="Courier New, Courier, monospace" font-size="10" fill="#E8A000" >S&amp;P 500</text>
<text x="340" y="144" text-anchor="end" font-family="Courier New, Courier, monospace" font-size="11" fill="#D8E8F0" font-weight="bold">742.09</text>
<text x="420" y="144" text-anchor="end" font-family="Courier New, Courier, monospace" font-size="11" fill="#FF3C3C" >-0.05%</text>
<text x="500" y="144" text-anchor="end" font-family="Courier New, Courier, monospace" font-size="11" fill="#00C878" >+9.20%</text>
<polyline points="516.0,151.0 521.7,148.2 527.4,149.3 533.1,147.1 538.8,146.6 544.5,148.0 550.2,148.0 555.9,145.2 561.6,144.4 567.3,145.5 573.0,143.2 578.8,139.2 584.5,140.1 590.2,137.7 595.9,137.0 601.6,137.5 607.3,135.8 613.0,133.5 618.7,137.1 624.4,137.3 630.1,139.2 635.8,136.3 641.5,135.7 647.2,134.5 652.9,132.6 658.6,132.6 664.3,131.0 670.0,130.2 675.7,129.4 681.4,129.0 687.1,131.1 692.9,130.0 698.6,137.7 704.3,137.1 710.0,137.9 715.7,142.5 721.4,137.6 727.1,136.1 732.8,130.9 738.5,132.7 744.2,136.4 749.9,133.3 755.6,134.3 761.3,138.6 767.0,138.7 772.7,138.3 778.4,140.4 784.1,135.6 789.8,133.3 795.5,133.7 801.2,134.1 807.0,131.5 812.7,132.9 818.4,133.9 824.1,131.3 829.8,130.1 835.5,132.4 841.2,131.3 846.9,130.1 852.6,131.7 858.3,134.7 864.0,135.2" fill="none" stroke="#FF3C3C" stroke-width="1.5" stroke-linejoin="round" stroke-linecap="round"/>
<line x1="16" y1="156" x2="864" y2="156" stroke="#2A3A4A" stroke-width="0.3" />
<rect x="0" y="156" width="880" height="32" fill="#FFFFFF" opacity="0.02"/>
<text x="16" y="176" text-anchor="start" font-family="Courier New, Courier, monospace" font-size="10" fill="#FFA020" font-weight="bold">QQQ</text>
<text x="72" y="176" text-anchor="start" font-family="Courier New, Courier, monospace" font-size="10" fill="#E8A000" >NASDAQ 100</text>
<text x="340" y="176" text-anchor="end" font-family="Courier New, Courier, monospace" font-size="11" fill="#D8E8F0" font-weight="bold">696.06</text>
<text x="420" y="176" text-anchor="end" font-family="Courier New, Courier, monospace" font-size="11" fill="#00C878" >+0.33%</text>
<text x="500" y="176" text-anchor="end" font-family="Courier New, Courier, monospace" font-size="11" fill="#00C878" >+13.80%</text>
<polyline points="516.0,183.0 521.7,180.7 527.4,181.5 533.1,178.8 538.8,178.7 544.5,180.1 550.2,179.3 555.9,177.9 561.6,176.6 567.3,176.8 573.0,174.9 578.8,171.9 584.5,172.1 590.2,168.5 595.9,168.1 601.6,169.4 607.3,167.8 613.0,166.7 618.7,169.0 624.4,169.7 630.1,170.6 635.8,168.1 641.5,167.8 647.2,167.2 652.9,164.4 658.6,164.6 664.3,163.3 670.0,162.7 675.7,161.7 681.4,161.0 687.1,161.4 692.9,162.2 698.6,169.9 704.3,167.5 710.0,169.3 715.7,172.3 721.4,167.3 727.1,166.4 732.8,161.5 738.5,164.5 744.2,166.1 749.9,162.2 755.6,162.6 761.3,167.9 767.0,168.5 772.7,167.3 778.4,169.4 784.1,165.6 789.8,162.9 795.5,165.4 801.2,168.1 807.0,165.9 812.7,168.8 818.4,168.3 824.1,165.8 829.8,165.3 835.5,168.3 841.2,166.5 846.9,167.0 852.6,169.5 858.3,171.8 864.0,171.7" fill="none" stroke="#00C878" stroke-width="1.5" stroke-linejoin="round" stroke-linecap="round"/>
<line x1="16" y1="188" x2="864" y2="188" stroke="#2A3A4A" stroke-width="0.3" />
<text x="16" y="208" text-anchor="start" font-family="Courier New, Courier, monospace" font-size="10" fill="#FFA020" font-weight="bold">QMOM</text>
<text x="72" y="208" text-anchor="start" font-family="Courier New, Courier, monospace" font-size="10" fill="#E8A000" >QUANT MOMENTUM</text>
<text x="340" y="208" text-anchor="end" font-family="Courier New, Courier, monospace" font-size="11" fill="#D8E8F0" font-weight="bold">73.77</text>
<text x="420" y="208" text-anchor="end" font-family="Courier New, Courier, monospace" font-size="11" fill="#FF3C3C" >-0.49%</text>
<text x="500" y="208" text-anchor="end" font-family="Courier New, Courier, monospace" font-size="11" fill="#00C878" >+10.95%</text>
<polyline points="516.0,210.1 521.7,208.2 527.4,207.4 533.1,207.3 538.8,208.0 544.5,212.9 550.2,215.0 555.9,206.5 561.6,207.1 567.3,206.6 573.0,203.8 578.8,196.6 584.5,204.6 590.2,201.2 595.9,197.8 601.6,199.8 607.3,197.9 613.0,197.5 618.7,204.8 624.4,208.3 630.1,210.8 635.8,206.5 641.5,205.1 647.2,204.4 652.9,198.1 658.6,199.6 664.3,197.7 670.0,196.4 675.7,196.9 681.4,193.0 687.1,193.8 692.9,194.5 698.6,206.2 704.3,204.8 710.0,207.2 715.7,212.2 721.4,202.8 727.1,200.0 732.8,198.5 738.5,200.8 744.2,202.2 749.9,200.8 755.6,196.6 761.3,202.5 767.0,204.5 772.7,200.8 778.4,205.9 784.1,202.7 789.8,201.1 795.5,204.8 801.2,208.9 807.0,207.1 812.7,209.9 818.4,207.3 824.1,206.2 829.8,208.4 835.5,211.2 841.2,208.1 846.9,210.6 852.6,215.0 858.3,213.6 864.0,214.6" fill="none" stroke="#FF3C3C" stroke-width="1.5" stroke-linejoin="round" stroke-linecap="round"/>
<line x1="16" y1="220" x2="864" y2="220" stroke="#2A3A4A" stroke-width="0.3" />
<rect x="0" y="220" width="880" height="32" fill="#FFFFFF" opacity="0.02"/>
<text x="16" y="240" text-anchor="start" font-family="Courier New, Courier, monospace" font-size="10" fill="#FFA020" font-weight="bold">MTUM</text>
<text x="72" y="240" text-anchor="start" font-family="Courier New, Courier, monospace" font-size="10" fill="#E8A000" >MOMENTUM FACTOR</text>
<text x="340" y="240" text-anchor="end" font-family="Courier New, Courier, monospace" font-size="11" fill="#D8E8F0" font-weight="bold">302.64</text>
<text x="420" y="240" text-anchor="end" font-family="Courier New, Courier, monospace" font-size="11" fill="#00C878" >+0.54%</text>
<text x="500" y="240" text-anchor="end" font-family="Courier New, Courier, monospace" font-size="11" fill="#00C878" >+19.99%</text>
<polyline points="516.0,247.0 521.7,245.7 527.4,245.7 533.1,244.2 538.8,244.3 544.5,245.6 550.2,245.2 555.9,243.3 561.6,243.0 567.3,243.2 573.0,241.2 578.8,238.8 584.5,240.4 590.2,238.0 595.9,236.6 601.6,237.6 607.3,236.9 613.0,236.4 618.7,239.1 624.4,240.2 630.1,240.8 635.8,238.7 641.5,237.9 647.2,237.5 652.9,234.4 658.6,234.6 664.3,234.2 670.0,233.9 675.7,233.5 681.4,230.8 687.1,229.8 692.9,230.9 698.6,236.6 704.3,234.1 710.0,235.1 715.7,237.1 721.4,232.9 727.1,231.3 732.8,228.4 738.5,230.7 744.2,230.0 749.9,227.0 755.6,225.0 761.3,229.6 767.0,230.0 772.7,226.8 778.4,230.8 784.1,227.7 789.8,225.7 795.5,230.1 801.2,233.5 807.0,232.0 812.7,234.8 818.4,234.0 824.1,232.1 829.8,232.0 835.5,234.1 841.2,232.6 846.9,234.7 852.6,237.4 858.3,237.8 864.0,237.7" fill="none" stroke="#00C878" stroke-width="1.5" stroke-linejoin="round" stroke-linecap="round"/>
<line x1="16" y1="252" x2="864" y2="252" stroke="#2A3A4A" stroke-width="0.3" />
<text x="16" y="272" text-anchor="start" font-family="Courier New, Courier, monospace" font-size="10" fill="#FFA020" font-weight="bold">QUAL</text>
<text x="72" y="272" text-anchor="start" font-family="Courier New, Courier, monospace" font-size="10" fill="#E8A000" >QUALITY FACTOR</text>
<text x="340" y="272" text-anchor="end" font-family="Courier New, Courier, monospace" font-size="11" fill="#D8E8F0" font-weight="bold">216.94</text>
<text x="420" y="272" text-anchor="end" font-family="Courier New, Courier, monospace" font-size="11" fill="#FF3C3C" >-1.03%</text>
<text x="500" y="272" text-anchor="end" font-family="Courier New, Courier, monospace" font-size="11" fill="#00C878" >+9.34%</text>
<polyline points="516.0,279.0 521.7,276.6 527.4,278.4 533.1,276.3 538.8,276.6 544.5,278.4 550.2,278.6 555.9,276.5 561.6,276.6 567.3,278.1 573.0,276.1 578.8,272.5 584.5,273.4 590.2,272.0 595.9,271.8 601.6,272.0 607.3,271.2 613.0,269.3 618.7,272.0 624.4,271.3 630.1,273.2 635.8,269.4 641.5,268.7 647.2,266.4 652.9,264.4 658.6,265.2 664.3,264.3 670.0,264.8 675.7,264.2 681.4,264.4 687.1,264.7 692.9,262.3 698.6,268.2 704.3,267.2 710.0,266.8 715.7,269.3 721.4,264.3 727.1,262.8 732.8,259.1 738.5,261.1 744.2,265.8 749.9,263.7 755.6,263.8 761.3,267.8 767.0,267.6 772.7,267.5 778.4,266.9 784.1,261.8 789.8,258.7 795.5,259.5 801.2,260.2 807.0,260.1 812.7,261.1 818.4,262.3 824.1,260.1 829.8,258.4 835.5,259.8 841.2,259.0 846.9,258.2 852.6,257.0 858.3,260.9 864.0,262.3" fill="none" stroke="#FF3C3C" stroke-width="1.5" stroke-linejoin="round" stroke-linecap="round"/>
<line x1="16" y1="284" x2="864" y2="284" stroke="#2A3A4A" stroke-width="0.3" />
<line x1="0" y1="284" x2="880" y2="284" stroke="#E8A000" stroke-width="0.4" />
<text x="16" y="297" text-anchor="start" font-family="Courier New, Courier, monospace" font-size="8" fill="#506070" >SRC: YAHOO FINANCE  ·  AUTO-UPDATE 22:00 UTC WEEKDAYS  ·  GITHUB.COM/YANKRUZISKI</text>
<text x="864" y="297" text-anchor="end" font-family="Courier New, Courier, monospace" font-size="8" fill="#506070" >2026-07-20</text>
</svg>