<svg xmlns="http://www.w3.org/2000/svg" width="880" height="302" viewBox="0 0 880 302">
<rect width="880" height="302" fill="#040810"/>
<rect x="0.5" y="0.5" width="879" height="301" fill="none" stroke="#E8A000" stroke-width="0.7" opacity="0.5"/>
<rect x="0" y="0" width="880" height="18" fill="#D87000"/>
<text x="16" y="14" text-anchor="start" font-family="Courier New, Courier, monospace" font-size="9" fill="#030608" font-weight="bold">BLOOMBERG</text>
<text x="88" y="14" text-anchor="start" font-family="Courier New, Courier, monospace" font-size="9" fill="#030608" >QUANT MARKET MONITOR</text>
<text x="440" y="14" text-anchor="middle" font-family="Courier New, Courier, monospace" font-size="9" fill="#030608" >EQUITY  &amp;  VOLATILITY  DASHBOARD</text>
<text x="864" y="14" text-anchor="end" font-family="Courier New, Courier, monospace" font-size="9" fill="#030608" >2026-06-23  22:30 UTC</text>
<line x1="0" y1="38" x2="880" y2="38" stroke="#E8A000" stroke-width="0.8" />
<text x="16" y="33" text-anchor="start" font-family="Courier New, Courier, monospace" font-size="9" fill="#506070" >YAN KRUZISKI  ·  VP OF INTELI RESEARCH  ·  SÃO PAULO, BR</text>
<text x="864" y="33" text-anchor="end" font-family="Courier New, Courier, monospace" font-size="9" fill="#506070" >PAGE 1/1</text>
<rect x="0" y="38" width="880" height="22" fill="#E8A000" opacity="0.14"/>
<text x="16" y="54" text-anchor="start" font-family="Courier New, Courier, monospace" font-size="9" fill="#FFA020" font-weight="bold">TICKER</text>
<text x="72" y="54" text-anchor="start" font-family="Courier New, Courier, monospace" font-size="9" fill="#FFA020" font-weight="bold">DESCRIPTION</text>
<text x="340" y="54" text-anchor="end" font-family="Courier New, Courier, monospace" font-size="9" fill="#FFA020" font-weight="bold">LAST</text>
<text x="420" y="54" text-anchor="end" font-family="Courier New, Courier, monospace" font-size="9" fill="#FFA020" font-weight="bold">%CHG</text>
<text x="500" y="54" text-anchor="end" font-family="Courier New, Courier, monospace" font-size="9" fill="#FFA020" font-weight="bold">YTD%</text>
<text x="690" y="54" text-anchor="middle" font-family="Courier New, Courier, monospace" font-size="9" fill="#FFA020" font-weight="bold">3-MONTH</text>
<line x1="0" y1="60" x2="880" y2="60" stroke="#E8A000" stroke-width="0.9" />
<rect x="0" y="60" width="880" height="32" fill="#E8A000" opacity="0.09"/>
<text x="16" y="80" text-anchor="start" font-family="Courier New, Courier, monospace" font-size="10" fill="#FFA020" font-weight="bold">^VIX</text>
<text x="72" y="80" text-anchor="start" font-family="Courier New, Courier, monospace" font-size="10" fill="#E8A000" font-weight="bold">CBOE VOLATILITY INDEX</text>
<text x="340" y="80" text-anchor="end" font-family="Courier New, Courier, monospace" font-size="11" fill="#D8E8F0" font-weight="bold">19.49</text>
<text x="420" y="80" text-anchor="end" font-family="Courier New, Courier, monospace" font-size="11" fill="#FF3C3C" font-weight="bold">+12.79%</text>
<text x="500" y="80" text-anchor="end" font-family="Courier New, Courier, monospace" font-size="10" fill="#FF3C3C" font-weight="bold">NORMAL</text>
<polyline points="516.0,71.9 521.4,70.7 526.9,73.0 532.3,70.0 537.8,65.0 543.2,65.6 548.6,73.1 554.1,74.1 559.5,75.0 564.9,74.6 570.4,72.4 575.8,79.0 581.2,81.2 586.7,81.5 592.1,81.7 597.6,82.7 603.0,83.0 608.4,83.3 613.9,84.0 619.3,82.0 624.8,81.2 630.2,82.0 635.6,81.4 641.1,82.3 646.5,83.2 651.9,83.5 657.4,82.1 662.8,84.8 668.2,84.7 673.7,82.8 679.1,84.1 684.6,84.1 690.0,84.5 695.4,84.4 700.9,82.7 706.3,83.3 711.8,83.4 717.2,84.3 722.6,82.7 728.1,83.5 733.5,83.2 738.9,84.0 744.4,85.0 749.8,85.1 755.2,85.2 760.7,84.6 766.1,85.6 771.6,86.4 777.0,87.0 782.4,86.0 787.9,86.4 793.3,86.0 798.8,86.9 804.2,78.3 809.6,82.0 815.1,80.6 820.5,77.3 825.9,81.2 831.4,83.7 836.8,85.8 842.2,85.5 847.7,82.6 853.1,85.5 858.6,84.3 864.0,81.2" fill="none" stroke="#FF3C3C" stroke-width="1.5" stroke-linejoin="round" stroke-linecap="round"/>
<line x1="0" y1="92" x2="880" y2="92" stroke="#E8A000" stroke-width="0.5" />
<rect x="0" y="92" width="880" height="32" fill="#FFFFFF" opacity="0.02"/>
<text x="16" y="112" text-anchor="start" font-family="Courier New, Courier, monospace" font-size="10" fill="#FFA020" font-weight="bold">IBOV</text>
<text x="72" y="112" text-anchor="start" font-family="Courier New, Courier, monospace" font-size="10" fill="#E8A000" >IBOVESPA</text>
<text x="340" y="112" text-anchor="end" font-family="Courier New, Courier, monospace" font-size="11" fill="#D8E8F0" font-weight="bold">171,259</text>
<text x="420" y="112" text-anchor="end" font-family="Courier New, Courier, monospace" font-size="11" fill="#00C878" >+0.52%</text>
<text x="500" y="112" text-anchor="end" font-family="Courier New, Courier, monospace" font-size="11" fill="#00C878" >+6.68%</text>
<polyline points="516.0,109.1 521.6,108.7 527.2,106.6 532.8,108.5 538.5,109.4 544.1,108.7 549.7,105.1 555.3,104.8 560.9,104.7 566.5,104.6 572.1,104.5 577.7,101.7 583.4,99.6 589.0,98.0 594.6,97.5 600.2,97.0 605.8,97.7 611.4,98.3 617.0,99.1 622.6,98.8 628.3,101.2 633.9,102.3 639.5,102.7 645.1,103.6 650.7,104.3 656.3,107.1 661.9,105.2 667.5,106.5 673.2,105.6 678.8,104.9 684.4,108.2 690.0,107.5 695.6,109.1 701.2,110.3 706.8,112.6 712.5,111.7 718.1,112.5 723.7,112.7 729.3,114.7 734.9,112.4 740.5,112.2 746.1,113.3 751.7,112.4 757.4,113.0 763.0,113.6 768.6,114.1 774.2,115.0 779.8,116.2 785.4,114.7 791.0,117.5 796.6,118.5 802.3,118.7 807.9,117.9 813.5,118.8 819.1,116.7 824.7,116.9 830.3,117.5 835.9,118.0 841.5,118.9 847.2,119.0 852.8,118.8 858.4,117.5 864.0,116.8" fill="none" stroke="#00C878" stroke-width="1.5" stroke-linejoin="round" stroke-linecap="round"/>
<line x1="16" y1="124" x2="864" y2="124" stroke="#2A3A4A" stroke-width="0.3" />
<text x="16" y="144" text-anchor="start" font-family="Courier New, Courier, monospace" font-size="10" fill="#FFA020" font-weight="bold">SPY</text>
<text x="72" y="144" text-anchor="start" font-family="Courier New, Courier, monospace" font-size="10" fill="#E8A000" >S&amp;P 500</text>
<text x="340" y="144" text-anchor="end" font-family="Courier New, Courier, monospace" font-size="11" fill="#D8E8F0" font-weight="bold">733.58</text>
<text x="420" y="144" text-anchor="end" font-family="Courier New, Courier, monospace" font-size="11" fill="#FF3C3C" >-1.36%</text>
<text x="500" y="144" text-anchor="end" font-family="Courier New, Courier, monospace" font-size="11" fill="#00C878" >+7.95%</text>
<polyline points="516.0,147.3 521.6,146.7 527.2,148.7 532.8,150.6 538.5,151.0 544.1,147.8 549.7,147.0 555.3,146.9 560.9,146.4 566.5,146.3 572.1,143.4 577.7,142.7 583.4,142.8 589.0,141.7 594.6,140.2 600.2,139.3 605.8,139.0 611.4,137.5 617.0,137.8 622.6,138.6 628.3,137.3 633.9,137.8 639.5,136.9 645.1,136.7 650.7,137.3 656.3,137.3 661.9,136.1 667.5,135.7 673.2,136.2 678.8,135.2 684.4,133.4 690.0,133.8 695.6,132.8 701.2,132.5 706.8,132.7 712.5,132.0 718.1,131.0 723.7,132.5 729.3,132.6 734.9,133.5 740.5,132.2 746.1,131.9 751.7,131.4 757.4,130.5 763.0,130.6 768.6,129.9 774.2,129.5 779.8,129.2 785.4,129.0 791.0,129.9 796.6,129.4 802.3,132.8 807.9,132.5 813.5,132.9 819.1,134.9 824.7,132.8 830.3,132.1 835.9,129.8 841.5,130.6 847.2,132.2 852.8,130.9 858.4,131.3 864.0,133.2" fill="none" stroke="#FF3C3C" stroke-width="1.5" stroke-linejoin="round" stroke-linecap="round"/>
<line x1="16" y1="156" x2="864" y2="156" stroke="#2A3A4A" stroke-width="0.3" />
<rect x="0" y="156" width="880" height="32" fill="#FFFFFF" opacity="0.02"/>
<text x="16" y="176" text-anchor="start" font-family="Courier New, Courier, monospace" font-size="10" fill="#FFA020" font-weight="bold">QQQ</text>
<text x="72" y="176" text-anchor="start" font-family="Courier New, Courier, monospace" font-size="10" fill="#E8A000" >NASDAQ 100</text>
<text x="340" y="176" text-anchor="end" font-family="Courier New, Courier, monospace" font-size="11" fill="#D8E8F0" font-weight="bold">713.65</text>
<text x="420" y="176" text-anchor="end" font-family="Courier New, Courier, monospace" font-size="11" fill="#FF3C3C" >-3.06%</text>
<text x="500" y="176" text-anchor="end" font-family="Courier New, Courier, monospace" font-size="11" fill="#00C878" >+16.67%</text>
<polyline points="516.0,nan 521.5,nan 527.0,nan 532.6,nan 538.1,nan 543.6,nan 549.1,nan 554.7,nan 560.2,nan 565.7,nan 571.2,nan 576.8,nan 582.3,nan 587.8,nan 593.3,nan 598.9,nan 604.4,nan 609.9,nan 615.4,nan 621.0,nan 626.5,nan 632.0,nan 637.5,nan 643.0,nan 648.6,nan 654.1,nan 659.6,nan 665.1,nan 670.7,nan 676.2,nan 681.7,nan 687.2,nan 692.8,nan 698.3,nan 703.8,nan 709.3,nan 714.9,nan 720.4,nan 725.9,nan 731.4,nan 737.0,nan 742.5,nan 748.0,nan 753.5,nan 759.0,nan 764.6,nan 770.1,nan 775.6,nan 781.1,nan 786.7,nan 792.2,nan 797.7,nan 803.2,nan 808.8,nan 814.3,nan 819.8,nan 825.3,nan 830.9,nan 836.4,nan 841.9,nan 847.4,nan 853.0,nan 858.5,nan 864.0,nan" fill="none" stroke="#FF3C3C" stroke-width="1.5" stroke-linejoin="round" stroke-linecap="round"/>
<line x1="16" y1="188" x2="864" y2="188" stroke="#2A3A4A" stroke-width="0.3" />
<text x="16" y="208" text-anchor="start" font-family="Courier New, Courier, monospace" font-size="10" fill="#FFA020" font-weight="bold">QMOM</text>
<text x="72" y="208" text-anchor="start" font-family="Courier New, Courier, monospace" font-size="10" fill="#E8A000" >QUANT MOMENTUM</text>
<text x="340" y="208" text-anchor="end" font-family="Courier New, Courier, monospace" font-size="11" fill="#D8E8F0" font-weight="bold">78.21</text>
<text x="420" y="208" text-anchor="end" font-family="Courier New, Courier, monospace" font-size="11" fill="#FF3C3C" >-2.68%</text>
<text x="500" y="208" text-anchor="end" font-family="Courier New, Courier, monospace" font-size="11" fill="#00C878" >+17.62%</text>
<polyline points="516.0,209.5 521.6,208.2 527.2,211.7 532.8,212.3 538.5,215.0 544.1,210.1 549.7,208.3 555.3,208.5 560.9,208.3 566.5,208.1 572.1,203.8 577.7,203.2 583.4,203.1 589.0,202.2 594.6,201.4 600.2,202.1 605.8,201.9 611.4,199.9 617.0,199.8 622.6,201.0 628.3,200.1 633.9,199.7 639.5,199.7 645.1,200.0 650.7,202.3 656.3,203.3 661.9,199.3 667.5,199.6 673.2,199.4 678.8,198.1 684.4,194.7 690.0,198.5 695.6,196.9 701.2,195.3 706.8,196.2 712.5,195.3 718.1,195.1 723.7,198.6 729.3,200.2 734.9,201.4 740.5,199.3 746.1,198.7 751.7,198.4 757.4,195.4 763.0,196.1 768.6,195.2 774.2,194.6 779.8,194.8 785.4,193.0 791.0,193.4 796.6,193.7 802.3,199.2 807.9,198.5 813.5,199.7 819.1,202.0 824.7,197.6 830.3,196.3 835.9,195.6 841.5,196.7 847.2,197.3 852.8,196.7 858.4,194.7 864.0,197.5" fill="none" stroke="#FF3C3C" stroke-width="1.5" stroke-linejoin="round" stroke-linecap="round"/>
<line x1="16" y1="220" x2="864" y2="220" stroke="#2A3A4A" stroke-width="0.3" />
<rect x="0" y="220" width="880" height="32" fill="#FFFFFF" opacity="0.02"/>
<text x="16" y="240" text-anchor="start" font-family="Courier New, Courier, monospace" font-size="10" fill="#FFA020" font-weight="bold">MTUM</text>
<text x="72" y="240" text-anchor="start" font-family="Courier New, Courier, monospace" font-size="10" fill="#E8A000" >MOMENTUM FACTOR</text>
<text x="340" y="240" text-anchor="end" font-family="Courier New, Courier, monospace" font-size="11" fill="#D8E8F0" font-weight="bold">329.76</text>
<text x="420" y="240" text-anchor="end" font-family="Courier New, Courier, monospace" font-size="11" fill="#FF3C3C" >-4.43%</text>
<text x="500" y="240" text-anchor="end" font-family="Courier New, Courier, monospace" font-size="11" fill="#00C878" >+30.74%</text>
<polyline points="516.0,244.2 521.6,243.9 527.2,245.6 532.8,246.0 538.5,247.0 544.1,245.2 549.7,244.2 555.3,244.1 560.9,243.8 566.5,243.5 572.1,241.5 577.7,240.9 583.4,240.7 589.0,240.2 594.6,239.4 600.2,239.5 605.8,239.3 611.4,238.6 617.0,238.8 622.6,239.2 628.3,238.3 633.9,238.4 639.5,237.4 645.1,237.4 650.7,238.3 656.3,238.0 661.9,236.8 667.5,236.6 673.2,236.7 678.8,235.4 684.4,233.9 690.0,234.9 695.6,233.4 701.2,232.5 706.8,233.1 712.5,232.7 718.1,232.3 723.7,234.1 729.3,234.8 734.9,235.2 740.5,233.8 746.1,233.3 751.7,233.0 757.4,231.0 763.0,231.2 768.6,230.9 774.2,230.7 779.8,230.5 785.4,228.7 791.0,228.1 796.6,228.8 802.3,232.5 807.9,230.8 813.5,231.5 819.1,232.8 824.7,230.1 830.3,229.1 835.9,227.2 841.5,228.7 847.2,228.3 852.8,226.3 858.4,225.0 864.0,228.0" fill="none" stroke="#FF3C3C" stroke-width="1.5" stroke-linejoin="round" stroke-linecap="round"/>
<line x1="16" y1="252" x2="864" y2="252" stroke="#2A3A4A" stroke-width="0.3" />
<text x="16" y="272" text-anchor="start" font-family="Courier New, Courier, monospace" font-size="10" fill="#FFA020" font-weight="bold">QUAL</text>
<text x="72" y="272" text-anchor="start" font-family="Courier New, Courier, monospace" font-size="10" fill="#E8A000" >QUALITY FACTOR</text>
<text x="340" y="272" text-anchor="end" font-family="Courier New, Courier, monospace" font-size="11" fill="#D8E8F0" font-weight="bold">213.01</text>
<text x="420" y="272" text-anchor="end" font-family="Courier New, Courier, monospace" font-size="11" fill="#00C878" >+2.54%</text>
<text x="500" y="272" text-anchor="end" font-family="Courier New, Courier, monospace" font-size="11" fill="#00C878" >+7.36%</text>
<polyline points="516.0,274.5 521.6,273.9 527.2,276.6 532.8,278.5 538.5,279.0 544.1,275.5 549.7,274.8 555.3,274.6 560.9,274.0 566.5,274.4 572.1,270.7 577.7,269.9 583.4,270.4 589.0,269.2 594.6,267.8 600.2,267.1 605.8,267.1 611.4,265.4 617.0,265.6 622.6,266.4 628.3,265.3 633.9,266.1 639.5,265.1 645.1,265.2 650.7,266.1 656.3,266.2 661.9,265.2 667.5,265.3 673.2,266.0 678.8,265.0 684.4,263.3 690.0,263.7 695.6,263.1 701.2,263.0 706.8,263.1 712.5,262.7 718.1,261.8 723.7,263.1 729.3,262.8 734.9,263.7 740.5,261.9 746.1,261.6 751.7,260.5 757.4,259.5 763.0,259.9 768.6,259.5 774.2,259.7 779.8,259.4 785.4,259.5 791.0,259.6 796.6,258.5 802.3,261.3 807.9,260.8 813.5,260.6 819.1,261.8 824.7,259.5 830.3,258.8 835.9,257.0 841.5,258.0 847.2,260.2 852.8,259.2 858.4,259.2 864.0,261.1" fill="none" stroke="#00C878" stroke-width="1.5" stroke-linejoin="round" stroke-linecap="round"/>
<line x1="16" y1="284" x2="864" y2="284" stroke="#2A3A4A" stroke-width="0.3" />
<line x1="0" y1="284" x2="880" y2="284" stroke="#E8A000" stroke-width="0.4" />
<text x="16" y="297" text-anchor="start" font-family="Courier New, Courier, monospace" font-size="8" fill="#506070" >SRC: YAHOO FINANCE  ·  AUTO-UPDATE 22:00 UTC WEEKDAYS  ·  GITHUB.COM/YANKRUZISKI</text>
<text x="864" y="297" text-anchor="end" font-family="Courier New, Courier, monospace" font-size="8" fill="#506070" >2026-06-23</text>
</svg>