<svg xmlns="http://www.w3.org/2000/svg" width="880" height="302" viewBox="0 0 880 302">
<rect width="880" height="302" fill="#040810"/>
<rect x="0.5" y="0.5" width="879" height="301" fill="none" stroke="#E8A000" stroke-width="0.7" opacity="0.5"/>
<rect x="0" y="0" width="880" height="18" fill="#D87000"/>
<text x="16" y="14" text-anchor="start" font-family="Courier New, Courier, monospace" font-size="9" fill="#030608" font-weight="bold">BLOOMBERG</text>
<text x="88" y="14" text-anchor="start" font-family="Courier New, Courier, monospace" font-size="9" fill="#030608" >QUANT MARKET MONITOR</text>
<text x="440" y="14" text-anchor="middle" font-family="Courier New, Courier, monospace" font-size="9" fill="#030608" >EQUITY  &amp;  VOLATILITY  DASHBOARD</text>
<text x="864" y="14" text-anchor="end" font-family="Courier New, Courier, monospace" font-size="9" fill="#030608" >2026-05-30  20:22 UTC</text>
<line x1="0" y1="38" x2="880" y2="38" stroke="#E8A000" stroke-width="0.8" />
<text x="16" y="33" text-anchor="start" font-family="Courier New, Courier, monospace" font-size="9" fill="#506070" >YAN KRUZISKI  ·  VP OF INTELI RESEARCH  ·  SÃO PAULO, BR</text>
<text x="864" y="33" text-anchor="end" font-family="Courier New, Courier, monospace" font-size="9" fill="#506070" >PAGE 1/1</text>
<rect x="0" y="38" width="880" height="22" fill="#E8A000" opacity="0.14"/>
<text x="16" y="54" text-anchor="start" font-family="Courier New, Courier, monospace" font-size="9" fill="#FFA020" font-weight="bold">TICKER</text>
<text x="72" y="54" text-anchor="start" font-family="Courier New, Courier, monospace" font-size="9" fill="#FFA020" font-weight="bold">DESCRIPTION</text>
<text x="340" y="54" text-anchor="end" font-family="Courier New, Courier, monospace" font-size="9" fill="#FFA020" font-weight="bold">LAST</text>
<text x="420" y="54" text-anchor="end" font-family="Courier New, Courier, monospace" font-size="9" fill="#FFA020" font-weight="bold">%CHG</text>
<text x="500" y="54" text-anchor="end" font-family="Courier New, Courier, monospace" font-size="9" fill="#FFA020" font-weight="bold">YTD%</text>
<text x="690" y="54" text-anchor="middle" font-family="Courier New, Courier, monospace" font-size="9" fill="#FFA020" font-weight="bold">3-MONTH</text>
<line x1="0" y1="60" x2="880" y2="60" stroke="#E8A000" stroke-width="0.9" />
<rect x="0" y="60" width="880" height="32" fill="#E8A000" opacity="0.09"/>
<text x="16" y="80" text-anchor="start" font-family="Courier New, Courier, monospace" font-size="10" fill="#FFA020" font-weight="bold">^VIX</text>
<text x="72" y="80" text-anchor="start" font-family="Courier New, Courier, monospace" font-size="10" fill="#E8A000" font-weight="bold">CBOE VOLATILITY INDEX</text>
<text x="340" y="80" text-anchor="end" font-family="Courier New, Courier, monospace" font-size="11" fill="#D8E8F0" font-weight="bold">15.32</text>
<text x="420" y="80" text-anchor="end" font-family="Courier New, Courier, monospace" font-size="11" fill="#00C878" font-weight="bold">-2.79%</text>
<text x="500" y="80" text-anchor="end" font-family="Courier New, Courier, monospace" font-size="10" fill="#00C878" font-weight="bold">NORMAL</text>
<polyline points="516.0,78.4 521.5,75.5 527.0,78.8 532.6,75.2 538.1,67.2 543.6,72.8 549.1,73.6 554.7,74.5 560.2,70.3 565.7,70.4 571.2,75.5 576.8,77.1 582.3,73.3 587.8,74.8 593.3,71.0 598.9,71.9 604.4,70.7 609.9,73.0 615.4,70.0 621.0,65.0 626.5,65.6 632.0,73.1 637.5,74.1 643.0,75.0 648.6,74.6 654.1,72.4 659.6,79.0 665.1,81.2 670.7,81.5 676.2,81.7 681.7,82.7 687.2,83.0 692.8,83.3 698.3,84.0 703.8,82.0 709.3,81.2 714.9,82.0 720.4,81.4 725.9,82.3 731.4,83.2 737.0,83.5 742.5,82.1 748.0,84.8 753.5,84.7 759.0,82.8 764.6,84.1 770.1,84.1 775.6,84.5 781.1,84.4 786.7,82.7 792.2,83.3 797.7,83.4 803.2,84.3 808.8,82.7 814.3,83.5 819.8,83.2 825.3,84.0 830.9,85.0 836.4,85.1 841.9,85.2 847.4,84.6 853.0,85.6 858.5,86.4 864.0,87.0" fill="none" stroke="#00C878" stroke-width="1.5" stroke-linejoin="round" stroke-linecap="round"/>
<line x1="0" y1="92" x2="880" y2="92" stroke="#E8A000" stroke-width="0.5" />
<rect x="0" y="92" width="880" height="32" fill="#FFFFFF" opacity="0.02"/>
<text x="16" y="112" text-anchor="start" font-family="Courier New, Courier, monospace" font-size="10" fill="#FFA020" font-weight="bold">IBOV</text>
<text x="72" y="112" text-anchor="start" font-family="Courier New, Courier, monospace" font-size="10" fill="#E8A000" >IBOVESPA</text>
<text x="340" y="112" text-anchor="end" font-family="Courier New, Courier, monospace" font-size="11" fill="#D8E8F0" font-weight="bold">173,788</text>
<text x="420" y="112" text-anchor="end" font-family="Courier New, Courier, monospace" font-size="11" fill="#FF3C3C" >-0.73%</text>
<text x="500" y="112" text-anchor="end" font-family="Courier New, Courier, monospace" font-size="11" fill="#00C878" >+8.25%</text>
<polyline points="516.0,105.3 521.7,110.8 527.4,108.8 533.1,113.1 538.8,114.1 544.5,112.7 550.2,110.5 555.9,110.0 561.6,114.1 567.3,115.6 573.0,113.6 578.8,113.1 584.5,113.8 590.2,113.3 595.9,116.8 601.6,111.8 607.3,111.3 613.0,108.7 618.7,111.1 624.4,112.1 630.1,111.3 635.8,106.9 641.5,106.5 647.2,106.4 652.9,106.3 658.6,106.2 664.3,102.7 670.0,100.1 675.7,98.2 681.4,97.6 687.1,97.0 692.9,97.8 698.6,98.6 704.3,99.6 710.0,99.2 715.7,102.1 721.4,103.4 727.1,104.0 732.8,105.0 738.5,105.9 744.2,109.3 749.9,107.0 755.6,108.6 761.3,107.5 767.0,106.7 772.7,110.7 778.4,109.9 784.1,111.8 789.8,113.2 795.5,116.1 801.2,115.0 807.0,115.9 812.7,116.2 818.4,118.6 824.1,115.8 829.8,115.6 835.5,116.9 841.2,115.8 846.9,116.5 852.6,117.3 858.3,117.9 864.0,119.0" fill="none" stroke="#FF3C3C" stroke-width="1.5" stroke-linejoin="round" stroke-linecap="round"/>
<line x1="16" y1="124" x2="864" y2="124" stroke="#2A3A4A" stroke-width="0.3" />
<text x="16" y="144" text-anchor="start" font-family="Courier New, Courier, monospace" font-size="10" fill="#FFA020" font-weight="bold">SPY</text>
<text x="72" y="144" text-anchor="start" font-family="Courier New, Courier, monospace" font-size="10" fill="#E8A000" >S&amp;P 500</text>
<text x="340" y="144" text-anchor="end" font-family="Courier New, Courier, monospace" font-size="11" fill="#D8E8F0" font-weight="bold">756.48</text>
<text x="420" y="144" text-anchor="end" font-family="Courier New, Courier, monospace" font-size="11" fill="#00C878" >+0.19%</text>
<text x="500" y="144" text-anchor="end" font-family="Courier New, Courier, monospace" font-size="11" fill="#00C878" >+11.03%</text>
<polyline points="516.0,141.7 521.6,142.8 527.2,141.9 532.8,142.6 538.5,144.2 544.1,143.1 549.7,143.3 555.3,143.5 560.9,145.3 566.5,146.0 572.1,144.8 577.7,144.5 583.4,146.1 589.0,146.4 594.6,148.1 600.2,146.9 605.8,147.3 611.4,146.6 617.0,148.7 622.6,150.6 628.3,151.0 633.9,147.8 639.5,146.9 645.1,146.8 650.7,146.2 656.3,146.2 661.9,143.2 667.5,142.5 673.2,142.6 678.8,141.4 684.4,140.0 690.0,139.0 695.6,138.7 701.2,137.2 706.8,137.4 712.5,138.3 718.1,137.0 723.7,137.5 729.3,136.5 734.9,136.3 740.5,136.9 746.1,136.9 751.7,135.7 757.4,135.3 763.0,135.8 768.6,134.8 774.2,133.0 779.8,133.4 785.4,132.3 791.0,132.0 796.6,132.2 802.3,131.5 807.9,130.5 813.5,132.1 819.1,132.2 824.7,133.0 830.3,131.7 835.9,131.4 841.5,130.9 847.2,130.0 852.8,130.1 858.4,129.3 864.0,129.0" fill="none" stroke="#00C878" stroke-width="1.5" stroke-linejoin="round" stroke-linecap="round"/>
<line x1="16" y1="156" x2="864" y2="156" stroke="#2A3A4A" stroke-width="0.3" />
<rect x="0" y="156" width="880" height="32" fill="#FFFFFF" opacity="0.02"/>
<text x="16" y="176" text-anchor="start" font-family="Courier New, Courier, monospace" font-size="10" fill="#FFA020" font-weight="bold">QQQ</text>
<text x="72" y="176" text-anchor="start" font-family="Courier New, Courier, monospace" font-size="10" fill="#E8A000" >NASDAQ 100</text>
<text x="340" y="176" text-anchor="end" font-family="Courier New, Courier, monospace" font-size="11" fill="#D8E8F0" font-weight="bold">738.31</text>
<text x="420" y="176" text-anchor="end" font-family="Courier New, Courier, monospace" font-size="11" fill="#00C878" >+0.38%</text>
<text x="500" y="176" text-anchor="end" font-family="Courier New, Courier, monospace" font-size="11" fill="#00C878" >+20.57%</text>
<polyline points="516.0,177.0 521.6,177.8 527.2,176.7 532.8,176.9 538.5,178.0 544.1,177.0 549.7,177.0 555.3,177.1 560.9,178.3 566.5,178.8 572.1,177.9 577.7,177.6 583.4,178.6 589.0,178.8 594.6,180.2 600.2,179.4 605.8,179.9 611.4,179.4 617.0,181.1 622.6,182.5 628.3,183.0 633.9,180.7 639.5,179.8 645.1,179.7 650.7,179.3 656.3,179.3 661.9,177.2 667.5,176.7 673.2,176.5 678.8,175.8 684.4,174.4 690.0,173.3 695.6,173.0 701.2,171.9 706.8,172.2 712.5,172.5 718.1,171.2 723.7,171.6 729.3,170.1 734.9,170.1 740.5,170.9 746.1,170.4 751.7,169.6 757.4,168.8 763.0,169.0 768.6,167.9 774.2,166.2 779.8,166.3 785.4,164.3 791.0,164.1 796.6,164.8 802.3,163.9 807.9,163.3 813.5,164.6 819.1,165.0 824.7,165.5 830.3,164.1 835.9,163.9 841.5,163.5 847.2,162.0 852.8,162.1 858.4,161.3 864.0,161.0" fill="none" stroke="#00C878" stroke-width="1.5" stroke-linejoin="round" stroke-linecap="round"/>
<line x1="16" y1="188" x2="864" y2="188" stroke="#2A3A4A" stroke-width="0.3" />
<text x="16" y="208" text-anchor="start" font-family="Courier New, Courier, monospace" font-size="10" fill="#FFA020" font-weight="bold">QMOM</text>
<text x="72" y="208" text-anchor="start" font-family="Courier New, Courier, monospace" font-size="10" fill="#E8A000" >QUANT MOMENTUM</text>
<text x="340" y="208" text-anchor="end" font-family="Courier New, Courier, monospace" font-size="11" fill="#D8E8F0" font-weight="bold">80.43</text>
<text x="420" y="208" text-anchor="end" font-family="Courier New, Courier, monospace" font-size="11" fill="#00C878" >+0.59%</text>
<text x="500" y="208" text-anchor="end" font-family="Courier New, Courier, monospace" font-size="11" fill="#00C878" >+20.97%</text>
<polyline points="516.0,202.1 521.6,206.1 527.2,205.3 532.8,208.2 538.5,210.3 544.1,207.7 549.7,206.9 555.3,207.7 560.9,210.0 566.5,211.6 572.1,209.3 577.7,208.5 583.4,209.6 589.0,209.3 594.6,212.7 600.2,210.4 605.8,209.0 611.4,207.6 617.0,211.4 622.6,212.0 628.3,215.0 633.9,209.7 639.5,207.7 645.1,208.0 650.7,207.7 656.3,207.6 661.9,202.9 667.5,202.3 673.2,202.1 678.8,201.2 684.4,200.3 690.0,201.1 695.6,200.8 701.2,198.7 706.8,198.6 712.5,199.9 718.1,199.0 723.7,198.5 729.3,198.5 734.9,198.9 740.5,201.3 746.1,202.4 751.7,198.1 757.4,198.4 763.0,198.1 768.6,196.7 774.2,193.1 779.8,197.2 785.4,195.4 791.0,193.7 796.6,194.7 802.3,193.7 807.9,193.6 813.5,197.3 819.1,199.0 824.7,200.3 830.3,198.1 835.9,197.4 841.5,197.0 847.2,193.9 852.8,194.6 858.4,193.7 864.0,193.0" fill="none" stroke="#00C878" stroke-width="1.5" stroke-linejoin="round" stroke-linecap="round"/>
<line x1="16" y1="220" x2="864" y2="220" stroke="#2A3A4A" stroke-width="0.3" />
<rect x="0" y="220" width="880" height="32" fill="#FFFFFF" opacity="0.02"/>
<text x="16" y="240" text-anchor="start" font-family="Courier New, Courier, monospace" font-size="10" fill="#FFA020" font-weight="bold">MTUM</text>
<text x="72" y="240" text-anchor="start" font-family="Courier New, Courier, monospace" font-size="10" fill="#E8A000" >MOMENTUM FACTOR</text>
<text x="340" y="240" text-anchor="end" font-family="Courier New, Courier, monospace" font-size="11" fill="#D8E8F0" font-weight="bold">315.81</text>
<text x="420" y="240" text-anchor="end" font-family="Courier New, Courier, monospace" font-size="11" fill="#00C878" >+0.24%</text>
<text x="500" y="240" text-anchor="end" font-family="Courier New, Courier, monospace" font-size="11" fill="#00C878" >+25.07%</text>
<polyline points="516.0,241.1 521.6,242.9 527.2,241.9 532.8,242.9 538.5,244.3 544.1,242.8 549.7,242.5 555.3,242.4 560.9,243.7 566.5,243.8 572.1,242.9 577.7,242.5 583.4,243.0 589.0,242.8 594.6,244.2 600.2,243.4 605.8,243.2 611.4,242.8 617.0,245.1 622.6,245.7 628.3,247.0 633.9,244.6 639.5,243.3 645.1,243.1 650.7,242.6 656.3,242.2 661.9,239.5 667.5,238.8 673.2,238.5 678.8,237.9 684.4,236.8 690.0,236.9 695.6,236.6 701.2,235.7 706.8,235.9 712.5,236.4 718.1,235.3 723.7,235.3 729.3,234.0 734.9,234.1 740.5,235.2 746.1,234.9 751.7,233.2 757.4,232.9 763.0,233.2 768.6,231.4 774.2,229.3 779.8,230.7 785.4,228.6 791.0,227.4 796.6,228.3 802.3,227.7 807.9,227.2 813.5,229.5 819.1,230.6 824.7,231.0 830.3,229.2 835.9,228.5 841.5,228.2 847.2,225.5 852.8,225.6 858.4,225.3 864.0,225.0" fill="none" stroke="#00C878" stroke-width="1.5" stroke-linejoin="round" stroke-linecap="round"/>
<line x1="16" y1="252" x2="864" y2="252" stroke="#2A3A4A" stroke-width="0.3" />
<text x="16" y="272" text-anchor="start" font-family="Courier New, Courier, monospace" font-size="10" fill="#FFA020" font-weight="bold">QUAL</text>
<text x="72" y="272" text-anchor="start" font-family="Courier New, Courier, monospace" font-size="10" fill="#E8A000" >QUALITY FACTOR</text>
<text x="340" y="272" text-anchor="end" font-family="Courier New, Courier, monospace" font-size="11" fill="#D8E8F0" font-weight="bold">215.49</text>
<text x="420" y="272" text-anchor="end" font-family="Courier New, Courier, monospace" font-size="11" fill="#FF3C3C" >-0.23%</text>
<text x="500" y="272" text-anchor="end" font-family="Courier New, Courier, monospace" font-size="11" fill="#00C878" >+8.41%</text>
<polyline points="516.0,265.9 521.6,267.5 527.2,266.6 532.8,268.0 538.5,270.2 544.1,268.7 549.7,269.0 555.3,269.6 560.9,272.0 566.5,272.8 572.1,271.5 577.7,271.2 583.4,273.3 589.0,273.2 594.6,275.0 600.2,273.4 605.8,273.9 611.4,273.3 617.0,276.3 622.6,278.4 628.3,279.0 633.9,275.0 639.5,274.3 645.1,274.0 650.7,273.4 656.3,273.8 661.9,269.6 667.5,268.7 673.2,269.3 678.8,268.0 684.4,266.4 690.0,265.6 695.6,265.7 701.2,263.7 706.8,264.0 712.5,264.8 718.1,263.5 723.7,264.5 729.3,263.3 734.9,263.5 740.5,264.5 746.1,264.6 751.7,263.5 757.4,263.5 763.0,264.3 768.6,263.3 774.2,261.4 779.8,261.8 785.4,261.1 791.0,261.0 796.6,261.1 802.3,260.7 807.9,259.6 813.5,261.1 819.1,260.7 824.7,261.7 830.3,259.7 835.9,259.4 841.5,258.1 847.2,257.1 852.8,257.5 858.4,257.0 864.0,257.3" fill="none" stroke="#FF3C3C" stroke-width="1.5" stroke-linejoin="round" stroke-linecap="round"/>
<line x1="16" y1="284" x2="864" y2="284" stroke="#2A3A4A" stroke-width="0.3" />
<line x1="0" y1="284" x2="880" y2="284" stroke="#E8A000" stroke-width="0.4" />
<text x="16" y="297" text-anchor="start" font-family="Courier New, Courier, monospace" font-size="8" fill="#506070" >SRC: YAHOO FINANCE  ·  AUTO-UPDATE 22:00 UTC WEEKDAYS  ·  GITHUB.COM/YANKRUZISKI</text>
<text x="864" y="297" text-anchor="end" font-family="Courier New, Courier, monospace" font-size="8" fill="#506070" >2026-05-30</text>
</svg>