<svg xmlns="http://www.w3.org/2000/svg" width="880" height="302" viewBox="0 0 880 302">
<rect width="880" height="302" fill="#040810"/>
<rect x="0.5" y="0.5" width="879" height="301" fill="none" stroke="#E8A000" stroke-width="0.7" opacity="0.5"/>
<rect x="0" y="0" width="880" height="18" fill="#D87000"/>
<text x="16" y="14" text-anchor="start" font-family="Courier New, Courier, monospace" font-size="9" fill="#030608" font-weight="bold">BLOOMBERG</text>
<text x="88" y="14" text-anchor="start" font-family="Courier New, Courier, monospace" font-size="9" fill="#030608" >QUANT MARKET MONITOR</text>
<text x="440" y="14" text-anchor="middle" font-family="Courier New, Courier, monospace" font-size="9" fill="#030608" >EQUITY  &amp;  VOLATILITY  DASHBOARD</text>
<text x="864" y="14" text-anchor="end" font-family="Courier New, Courier, monospace" font-size="9" fill="#030608" >2026-06-17  22:36 UTC</text>
<line x1="0" y1="38" x2="880" y2="38" stroke="#E8A000" stroke-width="0.8" />
<text x="16" y="33" text-anchor="start" font-family="Courier New, Courier, monospace" font-size="9" fill="#506070" >YAN KRUZISKI  ·  VP OF INTELI RESEARCH  ·  SÃO PAULO, BR</text>
<text x="864" y="33" text-anchor="end" font-family="Courier New, Courier, monospace" font-size="9" fill="#506070" >PAGE 1/1</text>
<rect x="0" y="38" width="880" height="22" fill="#E8A000" opacity="0.14"/>
<text x="16" y="54" text-anchor="start" font-family="Courier New, Courier, monospace" font-size="9" fill="#FFA020" font-weight="bold">TICKER</text>
<text x="72" y="54" text-anchor="start" font-family="Courier New, Courier, monospace" font-size="9" fill="#FFA020" font-weight="bold">DESCRIPTION</text>
<text x="340" y="54" text-anchor="end" font-family="Courier New, Courier, monospace" font-size="9" fill="#FFA020" font-weight="bold">LAST</text>
<text x="420" y="54" text-anchor="end" font-family="Courier New, Courier, monospace" font-size="9" fill="#FFA020" font-weight="bold">%CHG</text>
<text x="500" y="54" text-anchor="end" font-family="Courier New, Courier, monospace" font-size="9" fill="#FFA020" font-weight="bold">YTD%</text>
<text x="690" y="54" text-anchor="middle" font-family="Courier New, Courier, monospace" font-size="9" fill="#FFA020" font-weight="bold">3-MONTH</text>
<line x1="0" y1="60" x2="880" y2="60" stroke="#E8A000" stroke-width="0.9" />
<rect x="0" y="60" width="880" height="32" fill="#E8A000" opacity="0.09"/>
<text x="16" y="80" text-anchor="start" font-family="Courier New, Courier, monospace" font-size="10" fill="#FFA020" font-weight="bold">^VIX</text>
<text x="72" y="80" text-anchor="start" font-family="Courier New, Courier, monospace" font-size="10" fill="#E8A000" font-weight="bold">CBOE VOLATILITY INDEX</text>
<text x="340" y="80" text-anchor="end" font-family="Courier New, Courier, monospace" font-size="11" fill="#D8E8F0" font-weight="bold">18.44</text>
<text x="420" y="80" text-anchor="end" font-family="Courier New, Courier, monospace" font-size="11" fill="#FF3C3C" font-weight="bold">+12.37%</text>
<text x="500" y="80" text-anchor="end" font-family="Courier New, Courier, monospace" font-size="10" fill="#FF3C3C" font-weight="bold">NORMAL</text>
<polyline points="516.0,77.1 521.4,73.3 526.7,74.8 532.1,71.0 537.4,71.9 542.8,70.7 548.1,73.0 553.5,70.0 558.8,65.0 564.2,65.6 569.5,73.1 574.9,74.1 580.2,75.0 585.6,74.6 591.0,72.4 596.3,79.0 601.7,81.2 607.0,81.5 612.4,81.7 617.7,82.7 623.1,83.0 628.4,83.3 633.8,84.0 639.1,82.0 644.5,81.2 649.8,82.0 655.2,81.4 660.6,82.3 665.9,83.2 671.3,83.5 676.6,82.1 682.0,84.8 687.3,84.7 692.7,82.8 698.0,84.1 703.4,84.1 708.7,84.5 714.1,84.4 719.4,82.7 724.8,83.3 730.2,83.4 735.5,84.3 740.9,82.7 746.2,83.5 751.6,83.2 756.9,84.0 762.3,85.0 767.6,85.1 773.0,85.2 778.3,84.6 783.7,85.6 789.0,86.4 794.4,87.0 799.8,86.0 805.1,86.4 810.5,86.0 815.8,86.9 821.2,78.3 826.5,82.0 831.9,80.6 837.2,77.3 842.6,81.2 847.9,83.7 853.3,85.8 858.6,85.5 864.0,82.6" fill="none" stroke="#FF3C3C" stroke-width="1.5" stroke-linejoin="round" stroke-linecap="round"/>
<line x1="0" y1="92" x2="880" y2="92" stroke="#E8A000" stroke-width="0.5" />
<rect x="0" y="92" width="880" height="32" fill="#FFFFFF" opacity="0.02"/>
<text x="16" y="112" text-anchor="start" font-family="Courier New, Courier, monospace" font-size="10" fill="#FFA020" font-weight="bold">IBOV</text>
<text x="72" y="112" text-anchor="start" font-family="Courier New, Courier, monospace" font-size="10" fill="#E8A000" >IBOVESPA</text>
<text x="340" y="112" text-anchor="end" font-family="Courier New, Courier, monospace" font-size="11" fill="#D8E8F0" font-weight="bold">168,454</text>
<text x="420" y="112" text-anchor="end" font-family="Courier New, Courier, monospace" font-size="11" fill="#FF3C3C" >-0.70%</text>
<text x="500" y="112" text-anchor="end" font-family="Courier New, Courier, monospace" font-size="11" fill="#00C878" >+4.93%</text>
<polyline points="516.0,110.3 521.6,110.9 527.2,110.4 532.8,113.3 538.5,109.2 544.1,108.8 549.7,106.6 555.3,108.6 560.9,109.5 566.5,108.8 572.1,105.2 577.7,104.8 583.4,104.7 589.0,104.6 594.6,104.6 600.2,101.7 605.8,99.6 611.4,98.0 617.0,97.5 622.6,97.0 628.3,97.7 633.9,98.3 639.5,99.1 645.1,98.8 650.7,101.2 656.3,102.3 661.9,102.8 667.5,103.6 673.2,104.3 678.8,107.1 684.4,105.3 690.0,106.5 695.6,105.7 701.2,105.0 706.8,108.2 712.5,107.6 718.1,109.2 723.7,110.3 729.3,112.7 734.9,111.8 740.5,112.6 746.1,112.8 751.7,114.8 757.4,112.5 763.0,112.3 768.6,113.4 774.2,112.5 779.8,113.1 785.4,113.7 791.0,114.2 796.6,115.1 802.3,116.3 807.9,114.8 813.5,117.6 819.1,118.6 824.7,118.8 830.3,118.0 835.9,118.9 841.5,116.8 847.2,117.0 852.8,117.6 858.4,118.1 864.0,119.0" fill="none" stroke="#FF3C3C" stroke-width="1.5" stroke-linejoin="round" stroke-linecap="round"/>
<line x1="16" y1="124" x2="864" y2="124" stroke="#2A3A4A" stroke-width="0.3" />
<text x="16" y="144" text-anchor="start" font-family="Courier New, Courier, monospace" font-size="10" fill="#FFA020" font-weight="bold">SPY</text>
<text x="72" y="144" text-anchor="start" font-family="Courier New, Courier, monospace" font-size="10" fill="#E8A000" >S&amp;P 500</text>
<text x="340" y="144" text-anchor="end" font-family="Courier New, Courier, monospace" font-size="11" fill="#D8E8F0" font-weight="bold">740.96</text>
<text x="420" y="144" text-anchor="end" font-family="Courier New, Courier, monospace" font-size="11" fill="#FF3C3C" >-1.31%</text>
<text x="500" y="144" text-anchor="end" font-family="Courier New, Courier, monospace" font-size="11" fill="#00C878" >+8.76%</text>
<polyline points="516.0,146.2 521.5,146.5 527.0,148.1 532.6,147.0 538.1,147.3 543.6,146.7 549.1,148.7 554.7,150.6 560.2,151.0 565.7,147.8 571.2,147.0 576.8,146.9 582.3,146.4 587.8,146.3 593.3,143.4 598.9,142.7 604.4,142.8 609.9,141.7 615.4,140.2 621.0,139.3 626.5,139.0 632.0,137.5 637.5,137.8 643.0,138.6 648.6,137.3 654.1,137.8 659.6,136.9 665.1,136.7 670.7,137.3 676.2,137.3 681.7,136.1 687.2,135.7 692.8,136.2 698.3,135.2 703.8,133.4 709.3,133.8 714.9,132.8 720.4,132.5 725.9,132.7 731.4,132.0 737.0,131.0 742.5,132.5 748.0,132.6 753.5,133.5 759.0,132.2 764.6,131.9 770.1,131.4 775.6,130.5 781.1,130.6 786.7,129.9 792.2,129.5 797.7,129.2 803.2,129.0 808.8,129.9 814.3,129.4 819.8,132.8 825.3,132.5 830.9,132.9 836.4,134.9 841.9,132.8 847.4,132.1 853.0,129.8 858.5,130.6 864.0,132.2" fill="none" stroke="#FF3C3C" stroke-width="1.5" stroke-linejoin="round" stroke-linecap="round"/>
<line x1="16" y1="156" x2="864" y2="156" stroke="#2A3A4A" stroke-width="0.3" />
<rect x="0" y="156" width="880" height="32" fill="#FFFFFF" opacity="0.02"/>
<text x="16" y="176" text-anchor="start" font-family="Courier New, Courier, monospace" font-size="10" fill="#FFA020" font-weight="bold">QQQ</text>
<text x="72" y="176" text-anchor="start" font-family="Courier New, Courier, monospace" font-size="10" fill="#E8A000" >NASDAQ 100</text>
<text x="340" y="176" text-anchor="end" font-family="Courier New, Courier, monospace" font-size="11" fill="#D8E8F0" font-weight="bold">722.51</text>
<text x="420" y="176" text-anchor="end" font-family="Courier New, Courier, monospace" font-size="11" fill="#FF3C3C" >-1.09%</text>
<text x="500" y="176" text-anchor="end" font-family="Courier New, Courier, monospace" font-size="11" fill="#00C878" >+17.99%</text>
<polyline points="516.0,178.8 521.5,179.0 527.0,180.3 532.6,179.5 538.1,180.0 543.6,179.5 549.1,181.2 554.7,182.5 560.2,183.0 565.7,180.8 571.2,180.0 576.8,179.9 582.3,179.5 587.8,179.5 593.3,177.4 598.9,176.9 604.4,176.8 609.9,176.1 615.4,174.8 621.0,173.7 626.5,173.4 632.0,172.4 637.5,172.6 643.0,172.9 648.6,171.7 654.1,172.1 659.6,170.6 665.1,170.6 670.7,171.4 676.2,170.9 681.7,170.2 687.2,169.4 692.8,169.6 698.3,168.6 703.8,166.9 709.3,167.0 714.9,165.1 720.4,164.8 725.9,165.6 731.4,164.7 737.0,164.1 742.5,165.4 748.0,165.7 753.5,166.2 759.0,164.9 764.6,164.7 770.1,164.4 775.6,162.9 781.1,163.0 786.7,162.2 792.2,161.9 797.7,161.4 803.2,161.0 808.8,161.2 814.3,161.6 819.8,165.8 825.3,164.5 830.9,165.5 836.4,167.1 841.9,164.4 847.4,163.9 853.0,161.3 858.5,162.9 864.0,163.8" fill="none" stroke="#FF3C3C" stroke-width="1.5" stroke-linejoin="round" stroke-linecap="round"/>
<line x1="16" y1="188" x2="864" y2="188" stroke="#2A3A4A" stroke-width="0.3" />
<text x="16" y="208" text-anchor="start" font-family="Courier New, Courier, monospace" font-size="10" fill="#FFA020" font-weight="bold">QMOM</text>
<text x="72" y="208" text-anchor="start" font-family="Courier New, Courier, monospace" font-size="10" fill="#E8A000" >QUANT MOMENTUM</text>
<text x="340" y="208" text-anchor="end" font-family="Courier New, Courier, monospace" font-size="11" fill="#D8E8F0" font-weight="bold">78.33</text>
<text x="420" y="208" text-anchor="end" font-family="Courier New, Courier, monospace" font-size="11" fill="#FF3C3C" >-2.58%</text>
<text x="500" y="208" text-anchor="end" font-family="Courier New, Courier, monospace" font-size="11" fill="#00C878" >+17.81%</text>
<polyline points="516.0,210.0 521.5,209.7 527.0,212.8 532.6,210.7 538.1,209.5 543.6,208.2 549.1,211.7 554.7,212.3 560.2,215.0 565.7,210.1 571.2,208.3 576.8,208.5 582.3,208.3 587.8,208.1 593.3,203.8 598.9,203.2 604.4,203.1 609.9,202.2 615.4,201.4 621.0,202.1 626.5,201.9 632.0,199.9 637.5,199.8 643.0,201.0 648.6,200.1 654.1,199.7 659.6,199.7 665.1,200.0 670.7,202.3 676.2,203.3 681.7,199.3 687.2,199.6 692.8,199.4 698.3,198.1 703.8,194.7 709.3,198.5 714.9,196.9 720.4,195.3 725.9,196.2 731.4,195.3 737.0,195.1 742.5,198.6 748.0,200.2 753.5,201.4 759.0,199.3 764.6,198.7 770.1,198.4 775.6,195.4 781.1,196.1 786.7,195.2 792.2,194.6 797.7,194.8 803.2,193.0 808.8,193.4 814.3,193.7 819.8,199.2 825.3,198.5 830.9,199.7 836.4,202.0 841.9,197.6 847.4,196.3 853.0,195.6 858.5,196.7 864.0,197.3" fill="none" stroke="#FF3C3C" stroke-width="1.5" stroke-linejoin="round" stroke-linecap="round"/>
<line x1="16" y1="220" x2="864" y2="220" stroke="#2A3A4A" stroke-width="0.3" />
<rect x="0" y="220" width="880" height="32" fill="#FFFFFF" opacity="0.02"/>
<text x="16" y="240" text-anchor="start" font-family="Courier New, Courier, monospace" font-size="10" fill="#FFA020" font-weight="bold">MTUM</text>
<text x="72" y="240" text-anchor="start" font-family="Courier New, Courier, monospace" font-size="10" fill="#E8A000" >MOMENTUM FACTOR</text>
<text x="340" y="240" text-anchor="end" font-family="Courier New, Courier, monospace" font-size="11" fill="#D8E8F0" font-weight="bold">328.27</text>
<text x="420" y="240" text-anchor="end" font-family="Courier New, Courier, monospace" font-size="11" fill="#FF3C3C" >-0.13%</text>
<text x="500" y="240" text-anchor="end" font-family="Courier New, Courier, monospace" font-size="11" fill="#00C878" >+30.15%</text>
<polyline points="516.0,nan 521.4,nan 526.9,nan 532.3,nan 537.8,nan 543.2,nan 548.6,nan 554.1,nan 559.5,nan 564.9,nan 570.4,nan 575.8,nan 581.2,nan 586.7,nan 592.1,nan 597.6,nan 603.0,nan 608.4,nan 613.9,nan 619.3,nan 624.8,nan 630.2,nan 635.6,nan 641.1,nan 646.5,nan 651.9,nan 657.4,nan 662.8,nan 668.2,nan 673.7,nan 679.1,nan 684.6,nan 690.0,nan 695.4,nan 700.9,nan 706.3,nan 711.8,nan 717.2,nan 722.6,nan 728.1,nan 733.5,nan 738.9,nan 744.4,nan 749.8,nan 755.2,nan 760.7,nan 766.1,nan 771.6,nan 777.0,nan 782.4,nan 787.9,nan 793.3,nan 798.8,nan 804.2,nan 809.6,nan 815.1,nan 820.5,nan 825.9,nan 831.4,nan 836.8,nan 842.2,nan 847.7,nan 853.1,nan 858.6,nan 864.0,nan" fill="none" stroke="#FF3C3C" stroke-width="1.5" stroke-linejoin="round" stroke-linecap="round"/>
<line x1="16" y1="252" x2="864" y2="252" stroke="#2A3A4A" stroke-width="0.3" />
<text x="16" y="272" text-anchor="start" font-family="Courier New, Courier, monospace" font-size="10" fill="#FFA020" font-weight="bold">QUAL</text>
<text x="72" y="272" text-anchor="start" font-family="Courier New, Courier, monospace" font-size="10" fill="#E8A000" >QUALITY FACTOR</text>
<text x="340" y="272" text-anchor="end" font-family="Courier New, Courier, monospace" font-size="11" fill="#D8E8F0" font-weight="bold">214.45</text>
<text x="420" y="272" text-anchor="end" font-family="Courier New, Courier, monospace" font-size="11" fill="#FF3C3C" >-1.63%</text>
<text x="500" y="272" text-anchor="end" font-family="Courier New, Courier, monospace" font-size="11" fill="#00C878" >+8.08%</text>
<polyline points="516.0,nan 521.4,nan 526.9,nan 532.3,nan 537.8,nan 543.2,nan 548.6,nan 554.1,nan 559.5,nan 564.9,nan 570.4,nan 575.8,nan 581.2,nan 586.7,nan 592.1,nan 597.6,nan 603.0,nan 608.4,nan 613.9,nan 619.3,nan 624.8,nan 630.2,nan 635.6,nan 641.1,nan 646.5,nan 651.9,nan 657.4,nan 662.8,nan 668.2,nan 673.7,nan 679.1,nan 684.6,nan 690.0,nan 695.4,nan 700.9,nan 706.3,nan 711.8,nan 717.2,nan 722.6,nan 728.1,nan 733.5,nan 738.9,nan 744.4,nan 749.8,nan 755.2,nan 760.7,nan 766.1,nan 771.6,nan 777.0,nan 782.4,nan 787.9,nan 793.3,nan 798.8,nan 804.2,nan 809.6,nan 815.1,nan 820.5,nan 825.9,nan 831.4,nan 836.8,nan 842.2,nan 847.7,nan 853.1,nan 858.6,nan 864.0,nan" fill="none" stroke="#FF3C3C" stroke-width="1.5" stroke-linejoin="round" stroke-linecap="round"/>
<line x1="16" y1="284" x2="864" y2="284" stroke="#2A3A4A" stroke-width="0.3" />
<line x1="0" y1="284" x2="880" y2="284" stroke="#E8A000" stroke-width="0.4" />
<text x="16" y="297" text-anchor="start" font-family="Courier New, Courier, monospace" font-size="8" fill="#506070" >SRC: YAHOO FINANCE  ·  AUTO-UPDATE 22:00 UTC WEEKDAYS  ·  GITHUB.COM/YANKRUZISKI</text>
<text x="864" y="297" text-anchor="end" font-family="Courier New, Courier, monospace" font-size="8" fill="#506070" >2026-06-17</text>
</svg>