<svg xmlns="http://www.w3.org/2000/svg" width="880" height="302" viewBox="0 0 880 302">
<rect width="880" height="302" fill="#040810"/>
<rect x="0.5" y="0.5" width="879" height="301" fill="none" stroke="#E8A000" stroke-width="0.7" opacity="0.5"/>
<rect x="0" y="0" width="880" height="18" fill="#D87000"/>
<text x="16" y="14" text-anchor="start" font-family="Courier New, Courier, monospace" font-size="9" fill="#030608" font-weight="bold">BLOOMBERG</text>
<text x="88" y="14" text-anchor="start" font-family="Courier New, Courier, monospace" font-size="9" fill="#030608" >QUANT MARKET MONITOR</text>
<text x="440" y="14" text-anchor="middle" font-family="Courier New, Courier, monospace" font-size="9" fill="#030608" >EQUITY  &amp;  VOLATILITY  DASHBOARD</text>
<text x="864" y="14" text-anchor="end" font-family="Courier New, Courier, monospace" font-size="9" fill="#030608" >2026-06-12  22:34 UTC</text>
<line x1="0" y1="38" x2="880" y2="38" stroke="#E8A000" stroke-width="0.8" />
<text x="16" y="33" text-anchor="start" font-family="Courier New, Courier, monospace" font-size="9" fill="#506070" >YAN KRUZISKI  ·  VP OF INTELI RESEARCH  ·  SÃO PAULO, BR</text>
<text x="864" y="33" text-anchor="end" font-family="Courier New, Courier, monospace" font-size="9" fill="#506070" >PAGE 1/1</text>
<rect x="0" y="38" width="880" height="22" fill="#E8A000" opacity="0.14"/>
<text x="16" y="54" text-anchor="start" font-family="Courier New, Courier, monospace" font-size="9" fill="#FFA020" font-weight="bold">TICKER</text>
<text x="72" y="54" text-anchor="start" font-family="Courier New, Courier, monospace" font-size="9" fill="#FFA020" font-weight="bold">DESCRIPTION</text>
<text x="340" y="54" text-anchor="end" font-family="Courier New, Courier, monospace" font-size="9" fill="#FFA020" font-weight="bold">LAST</text>
<text x="420" y="54" text-anchor="end" font-family="Courier New, Courier, monospace" font-size="9" fill="#FFA020" font-weight="bold">%CHG</text>
<text x="500" y="54" text-anchor="end" font-family="Courier New, Courier, monospace" font-size="9" fill="#FFA020" font-weight="bold">YTD%</text>
<text x="690" y="54" text-anchor="middle" font-family="Courier New, Courier, monospace" font-size="9" fill="#FFA020" font-weight="bold">3-MONTH</text>
<line x1="0" y1="60" x2="880" y2="60" stroke="#E8A000" stroke-width="0.9" />
<rect x="0" y="60" width="880" height="32" fill="#E8A000" opacity="0.09"/>
<text x="16" y="80" text-anchor="start" font-family="Courier New, Courier, monospace" font-size="10" fill="#FFA020" font-weight="bold">^VIX</text>
<text x="72" y="80" text-anchor="start" font-family="Courier New, Courier, monospace" font-size="10" fill="#E8A000" font-weight="bold">CBOE VOLATILITY INDEX</text>
<text x="340" y="80" text-anchor="end" font-family="Courier New, Courier, monospace" font-size="11" fill="#D8E8F0" font-weight="bold">17.68</text>
<text x="420" y="80" text-anchor="end" font-family="Courier New, Courier, monospace" font-size="11" fill="#00C878" font-weight="bold">-9.10%</text>
<text x="500" y="80" text-anchor="end" font-family="Courier New, Courier, monospace" font-size="10" fill="#00C878" font-weight="bold">NORMAL</text>
<polyline points="516.0,70.3 521.4,70.4 526.7,75.5 532.1,77.1 537.4,73.3 542.8,74.8 548.1,71.0 553.5,71.9 558.8,70.7 564.2,73.0 569.5,70.0 574.9,65.0 580.2,65.6 585.6,73.1 591.0,74.1 596.3,75.0 601.7,74.6 607.0,72.4 612.4,79.0 617.7,81.2 623.1,81.5 628.4,81.7 633.8,82.7 639.1,83.0 644.5,83.3 649.8,84.0 655.2,82.0 660.6,81.2 665.9,82.0 671.3,81.4 676.6,82.3 682.0,83.2 687.3,83.5 692.7,82.1 698.0,84.8 703.4,84.7 708.7,82.8 714.1,84.1 719.4,84.1 724.8,84.5 730.2,84.4 735.5,82.7 740.9,83.3 746.2,83.4 751.6,84.3 756.9,82.7 762.3,83.5 767.6,83.2 773.0,84.0 778.3,85.0 783.7,85.1 789.0,85.2 794.4,84.6 799.8,85.6 805.1,86.4 810.5,87.0 815.8,86.0 821.2,86.4 826.5,86.0 831.9,86.9 837.2,78.3 842.6,82.0 847.9,80.6 853.3,77.3 858.6,81.2 864.0,83.7" fill="none" stroke="#00C878" stroke-width="1.5" stroke-linejoin="round" stroke-linecap="round"/>
<line x1="0" y1="92" x2="880" y2="92" stroke="#E8A000" stroke-width="0.5" />
<rect x="0" y="92" width="880" height="32" fill="#FFFFFF" opacity="0.02"/>
<text x="16" y="112" text-anchor="start" font-family="Courier New, Courier, monospace" font-size="10" fill="#FFA020" font-weight="bold">IBOV</text>
<text x="72" y="112" text-anchor="start" font-family="Courier New, Courier, monospace" font-size="10" fill="#E8A000" >IBOVESPA</text>
<text x="340" y="112" text-anchor="end" font-family="Courier New, Courier, monospace" font-size="11" fill="#D8E8F0" font-weight="bold">171,133</text>
<text x="420" y="112" text-anchor="end" font-family="Courier New, Courier, monospace" font-size="11" fill="#FF3C3C" >-0.21%</text>
<text x="500" y="112" text-anchor="end" font-family="Courier New, Courier, monospace" font-size="11" fill="#00C878" >+6.60%</text>
<polyline points="516.0,111.2 521.6,112.4 527.2,110.8 532.8,110.4 538.5,110.9 544.1,110.5 549.7,113.4 555.3,109.2 560.9,108.8 566.5,106.7 572.1,108.7 577.7,109.5 583.4,108.8 589.0,105.2 594.6,104.8 600.2,104.8 605.8,104.7 611.4,104.6 617.0,101.7 622.6,99.6 628.3,98.0 633.9,97.5 639.5,97.0 645.1,97.7 650.7,98.3 656.3,99.1 661.9,98.8 667.5,101.2 673.2,102.3 678.8,102.8 684.4,103.6 690.0,104.4 695.6,107.2 701.2,105.3 706.8,106.6 712.5,105.7 718.1,105.0 723.7,108.3 729.3,107.7 734.9,109.3 740.5,110.4 746.1,112.8 751.7,111.9 757.4,112.7 763.0,112.9 768.6,114.9 774.2,112.6 779.8,112.4 785.4,113.4 791.0,112.6 796.6,113.2 802.3,113.8 807.9,114.3 813.5,115.2 819.1,116.4 824.7,114.9 830.3,117.7 835.9,118.7 841.5,119.0 847.2,118.1 852.8,119.0 858.4,116.9 864.0,117.2" fill="none" stroke="#FF3C3C" stroke-width="1.5" stroke-linejoin="round" stroke-linecap="round"/>
<line x1="16" y1="124" x2="864" y2="124" stroke="#2A3A4A" stroke-width="0.3" />
<text x="16" y="144" text-anchor="start" font-family="Courier New, Courier, monospace" font-size="10" fill="#FFA020" font-weight="bold">SPY</text>
<text x="72" y="144" text-anchor="start" font-family="Courier New, Courier, monospace" font-size="10" fill="#E8A000" >S&amp;P 500</text>
<text x="340" y="144" text-anchor="end" font-family="Courier New, Courier, monospace" font-size="11" fill="#D8E8F0" font-weight="bold">741.75</text>
<text x="420" y="144" text-anchor="end" font-family="Courier New, Courier, monospace" font-size="11" fill="#00C878" >+0.31%</text>
<text x="500" y="144" text-anchor="end" font-family="Courier New, Courier, monospace" font-size="11" fill="#00C878" >+8.87%</text>
<polyline points="516.0,146.1 521.5,144.9 527.0,144.6 532.6,146.2 538.1,146.5 543.6,148.1 549.1,147.0 554.7,147.3 560.2,146.7 565.7,148.7 571.2,150.6 576.8,151.0 582.3,147.8 587.8,147.0 593.3,146.9 598.9,146.4 604.4,146.3 609.9,143.4 615.4,142.7 621.0,142.8 626.5,141.7 632.0,140.2 637.5,139.3 643.0,139.0 648.6,137.5 654.1,137.8 659.6,138.6 665.1,137.3 670.7,137.8 676.2,136.9 681.7,136.7 687.2,137.3 692.8,137.3 698.3,136.1 703.8,135.7 709.3,136.2 714.9,135.2 720.4,133.4 725.9,133.8 731.4,132.8 737.0,132.5 742.5,132.7 748.0,132.0 753.5,131.0 759.0,132.5 764.6,132.6 770.1,133.5 775.6,132.2 781.1,131.9 786.7,131.4 792.2,130.5 797.7,130.6 803.2,129.9 808.8,129.5 814.3,129.2 819.8,129.0 825.3,129.9 830.9,129.4 836.4,132.8 841.9,132.5 847.4,132.9 853.0,134.9 858.5,132.8 864.0,132.1" fill="none" stroke="#00C878" stroke-width="1.5" stroke-linejoin="round" stroke-linecap="round"/>
<line x1="16" y1="156" x2="864" y2="156" stroke="#2A3A4A" stroke-width="0.3" />
<rect x="0" y="156" width="880" height="32" fill="#FFFFFF" opacity="0.02"/>
<text x="16" y="176" text-anchor="start" font-family="Courier New, Courier, monospace" font-size="10" fill="#FFA020" font-weight="bold">QQQ</text>
<text x="72" y="176" text-anchor="start" font-family="Courier New, Courier, monospace" font-size="10" fill="#E8A000" >NASDAQ 100</text>
<text x="340" y="176" text-anchor="end" font-family="Courier New, Courier, monospace" font-size="11" fill="#D8E8F0" font-weight="bold">721.34</text>
<text x="420" y="176" text-anchor="end" font-family="Courier New, Courier, monospace" font-size="11" fill="#00C878" >+0.27%</text>
<text x="500" y="176" text-anchor="end" font-family="Courier New, Courier, monospace" font-size="11" fill="#00C878" >+17.80%</text>
<polyline points="516.0,178.9 521.5,178.2 527.0,177.8 532.6,178.8 538.1,179.0 543.6,180.3 549.1,179.5 554.7,180.0 560.2,179.5 565.7,181.2 571.2,182.5 576.8,183.0 582.3,180.8 587.8,180.0 593.3,179.9 598.9,179.5 604.4,179.5 609.9,177.4 615.4,176.9 621.0,176.8 626.5,176.1 632.0,174.8 637.5,173.7 643.0,173.4 648.6,172.4 654.1,172.6 659.6,172.9 665.1,171.7 670.7,172.1 676.2,170.6 681.7,170.6 687.2,171.4 692.8,170.9 698.3,170.2 703.8,169.4 709.3,169.6 714.9,168.6 720.4,166.9 725.9,167.0 731.4,165.1 737.0,164.8 742.5,165.6 748.0,164.7 753.5,164.1 759.0,165.4 764.6,165.7 770.1,166.2 775.6,164.9 781.1,164.7 786.7,164.4 792.2,162.9 797.7,163.0 803.2,162.2 808.8,161.9 814.3,161.4 819.8,161.0 825.3,161.2 830.9,161.6 836.4,165.8 841.9,164.5 847.4,165.5 853.0,167.1 858.5,164.4 864.0,163.9" fill="none" stroke="#00C878" stroke-width="1.5" stroke-linejoin="round" stroke-linecap="round"/>
<line x1="16" y1="188" x2="864" y2="188" stroke="#2A3A4A" stroke-width="0.3" />
<text x="16" y="208" text-anchor="start" font-family="Courier New, Courier, monospace" font-size="10" fill="#FFA020" font-weight="bold">QMOM</text>
<text x="72" y="208" text-anchor="start" font-family="Courier New, Courier, monospace" font-size="10" fill="#E8A000" >QUANT MOMENTUM</text>
<text x="340" y="208" text-anchor="end" font-family="Courier New, Courier, monospace" font-size="11" fill="#D8E8F0" font-weight="bold">79.11</text>
<text x="420" y="208" text-anchor="end" font-family="Courier New, Courier, monospace" font-size="11" fill="#00C878" >+1.28%</text>
<text x="500" y="208" text-anchor="end" font-family="Courier New, Courier, monospace" font-size="11" fill="#00C878" >+18.99%</text>
<polyline points="516.0,211.8 521.5,209.7 527.0,209.0 532.6,210.0 538.1,209.7 543.6,212.8 549.1,210.7 554.7,209.5 560.2,208.2 565.7,211.7 571.2,212.3 576.8,215.0 582.3,210.1 587.8,208.3 593.3,208.5 598.9,208.3 604.4,208.1 609.9,203.8 615.4,203.2 621.0,203.1 626.5,202.2 632.0,201.4 637.5,202.1 643.0,201.9 648.6,199.9 654.1,199.8 659.6,201.0 665.1,200.1 670.7,199.7 676.2,199.7 681.7,200.0 687.2,202.3 692.8,203.3 698.3,199.3 703.8,199.6 709.3,199.4 714.9,198.1 720.4,194.7 725.9,198.5 731.4,196.9 737.0,195.3 742.5,196.2 748.0,195.3 753.5,195.1 759.0,198.6 764.6,200.2 770.1,201.4 775.6,199.3 781.1,198.7 786.7,198.4 792.2,195.4 797.7,196.1 803.2,195.2 808.8,194.6 814.3,194.8 819.8,193.0 825.3,193.4 830.9,193.7 836.4,199.2 841.9,198.5 847.4,199.7 853.0,202.0 858.5,197.6 864.0,196.3" fill="none" stroke="#00C878" stroke-width="1.5" stroke-linejoin="round" stroke-linecap="round"/>
<line x1="16" y1="220" x2="864" y2="220" stroke="#2A3A4A" stroke-width="0.3" />
<rect x="0" y="220" width="880" height="32" fill="#FFFFFF" opacity="0.02"/>
<text x="16" y="240" text-anchor="start" font-family="Courier New, Courier, monospace" font-size="10" fill="#FFA020" font-weight="bold">MTUM</text>
<text x="72" y="240" text-anchor="start" font-family="Courier New, Courier, monospace" font-size="10" fill="#E8A000" >MOMENTUM FACTOR</text>
<text x="340" y="240" text-anchor="end" font-family="Courier New, Courier, monospace" font-size="11" fill="#D8E8F0" font-weight="bold">324.40</text>
<text x="420" y="240" text-anchor="end" font-family="Courier New, Courier, monospace" font-size="11" fill="#00C878" >+1.07%</text>
<text x="500" y="240" text-anchor="end" font-family="Courier New, Courier, monospace" font-size="11" fill="#00C878" >+28.47%</text>
<polyline points="516.0,244.2 521.5,243.5 527.0,243.1 532.6,243.6 538.1,243.4 543.6,244.6 549.1,243.9 554.7,243.7 560.2,243.3 565.7,245.3 571.2,245.9 576.8,247.0 582.3,244.9 587.8,243.8 593.3,243.6 598.9,243.2 604.4,242.9 609.9,240.6 615.4,239.9 621.0,239.7 626.5,239.1 632.0,238.2 637.5,238.3 643.0,238.1 648.6,237.3 654.1,237.5 659.6,237.9 665.1,236.9 670.7,236.9 676.2,235.8 681.7,235.9 687.2,236.9 692.8,236.5 698.3,235.1 703.8,234.9 709.3,235.1 714.9,233.6 720.4,231.8 725.9,232.9 731.4,231.2 737.0,230.1 742.5,230.9 748.0,230.4 753.5,230.0 759.0,232.0 764.6,232.8 770.1,233.2 775.6,231.7 781.1,231.1 786.7,230.8 792.2,228.4 797.7,228.6 803.2,228.3 808.8,228.1 814.3,227.8 819.8,225.8 825.3,225.0 830.9,225.8 836.4,230.1 841.9,228.2 847.4,229.0 853.0,230.5 858.5,227.3 864.0,226.1" fill="none" stroke="#00C878" stroke-width="1.5" stroke-linejoin="round" stroke-linecap="round"/>
<line x1="16" y1="252" x2="864" y2="252" stroke="#2A3A4A" stroke-width="0.3" />
<text x="16" y="272" text-anchor="start" font-family="Courier New, Courier, monospace" font-size="10" fill="#FFA020" font-weight="bold">QUAL</text>
<text x="72" y="272" text-anchor="start" font-family="Courier New, Courier, monospace" font-size="10" fill="#E8A000" >QUALITY FACTOR</text>
<text x="340" y="272" text-anchor="end" font-family="Courier New, Courier, monospace" font-size="11" fill="#D8E8F0" font-weight="bold">216.91</text>
<text x="420" y="272" text-anchor="end" font-family="Courier New, Courier, monospace" font-size="11" fill="#00C878" >+1.43%</text>
<text x="500" y="272" text-anchor="end" font-family="Courier New, Courier, monospace" font-size="11" fill="#00C878" >+9.13%</text>
<polyline points="516.0,273.1 521.5,271.8 527.0,271.6 532.6,273.6 538.1,273.5 543.6,275.1 549.1,273.7 554.7,274.1 560.2,273.6 565.7,276.4 571.2,278.4 576.8,279.0 582.3,275.2 587.8,274.5 593.3,274.2 598.9,273.6 604.4,274.1 609.9,270.1 615.4,269.2 621.0,269.7 626.5,268.5 632.0,267.0 637.5,266.2 643.0,266.3 648.6,264.4 654.1,264.7 659.6,265.5 665.1,264.2 670.7,265.2 676.2,264.1 681.7,264.2 687.2,265.1 692.8,265.3 698.3,264.2 703.8,264.3 709.3,265.0 714.9,264.0 720.4,262.2 725.9,262.6 731.4,261.9 737.0,261.8 742.5,262.0 748.0,261.5 753.5,260.5 759.0,261.9 764.6,261.6 770.1,262.5 775.6,260.6 781.1,260.3 786.7,259.1 792.2,258.1 797.7,258.5 803.2,258.0 808.8,258.3 814.3,258.0 819.8,258.1 825.3,258.2 830.9,257.0 836.4,260.0 841.9,259.5 847.4,259.3 853.0,260.6 858.5,258.0 864.0,257.3" fill="none" stroke="#00C878" stroke-width="1.5" stroke-linejoin="round" stroke-linecap="round"/>
<line x1="16" y1="284" x2="864" y2="284" stroke="#2A3A4A" stroke-width="0.3" />
<line x1="0" y1="284" x2="880" y2="284" stroke="#E8A000" stroke-width="0.4" />
<text x="16" y="297" text-anchor="start" font-family="Courier New, Courier, monospace" font-size="8" fill="#506070" >SRC: YAHOO FINANCE  ·  AUTO-UPDATE 22:00 UTC WEEKDAYS  ·  GITHUB.COM/YANKRUZISKI</text>
<text x="864" y="297" text-anchor="end" font-family="Courier New, Courier, monospace" font-size="8" fill="#506070" >2026-06-12</text>
</svg>