<svg xmlns="http://www.w3.org/2000/svg" width="880" height="302" viewBox="0 0 880 302">
<rect width="880" height="302" fill="#040810"/>
<rect x="0.5" y="0.5" width="879" height="301" fill="none" stroke="#E8A000" stroke-width="0.7" opacity="0.5"/>
<rect x="0" y="0" width="880" height="18" fill="#D87000"/>
<text x="16" y="14" text-anchor="start" font-family="Courier New, Courier, monospace" font-size="9" fill="#030608" font-weight="bold">BLOOMBERG</text>
<text x="88" y="14" text-anchor="start" font-family="Courier New, Courier, monospace" font-size="9" fill="#030608" >QUANT MARKET MONITOR</text>
<text x="440" y="14" text-anchor="middle" font-family="Courier New, Courier, monospace" font-size="9" fill="#030608" >EQUITY  &amp;  VOLATILITY  DASHBOARD</text>
<text x="864" y="14" text-anchor="end" font-family="Courier New, Courier, monospace" font-size="9" fill="#030608" >2026-06-10  22:39 UTC</text>
<line x1="0" y1="38" x2="880" y2="38" stroke="#E8A000" stroke-width="0.8" />
<text x="16" y="33" text-anchor="start" font-family="Courier New, Courier, monospace" font-size="9" fill="#506070" >YAN KRUZISKI  ·  VP OF INTELI RESEARCH  ·  SÃO PAULO, BR</text>
<text x="864" y="33" text-anchor="end" font-family="Courier New, Courier, monospace" font-size="9" fill="#506070" >PAGE 1/1</text>
<rect x="0" y="38" width="880" height="22" fill="#E8A000" opacity="0.14"/>
<text x="16" y="54" text-anchor="start" font-family="Courier New, Courier, monospace" font-size="9" fill="#FFA020" font-weight="bold">TICKER</text>
<text x="72" y="54" text-anchor="start" font-family="Courier New, Courier, monospace" font-size="9" fill="#FFA020" font-weight="bold">DESCRIPTION</text>
<text x="340" y="54" text-anchor="end" font-family="Courier New, Courier, monospace" font-size="9" fill="#FFA020" font-weight="bold">LAST</text>
<text x="420" y="54" text-anchor="end" font-family="Courier New, Courier, monospace" font-size="9" fill="#FFA020" font-weight="bold">%CHG</text>
<text x="500" y="54" text-anchor="end" font-family="Courier New, Courier, monospace" font-size="9" fill="#FFA020" font-weight="bold">YTD%</text>
<text x="690" y="54" text-anchor="middle" font-family="Courier New, Courier, monospace" font-size="9" fill="#FFA020" font-weight="bold">3-MONTH</text>
<line x1="0" y1="60" x2="880" y2="60" stroke="#E8A000" stroke-width="0.9" />
<rect x="0" y="60" width="880" height="32" fill="#E8A000" opacity="0.09"/>
<text x="16" y="80" text-anchor="start" font-family="Courier New, Courier, monospace" font-size="10" fill="#FFA020" font-weight="bold">^VIX</text>
<text x="72" y="80" text-anchor="start" font-family="Courier New, Courier, monospace" font-size="10" fill="#E8A000" font-weight="bold">CBOE VOLATILITY INDEX</text>
<text x="340" y="80" text-anchor="end" font-family="Courier New, Courier, monospace" font-size="11" fill="#D8E8F0" font-weight="bold">22.22</text>
<text x="420" y="80" text-anchor="end" font-family="Courier New, Courier, monospace" font-size="11" fill="#FF3C3C" font-weight="bold">+11.83%</text>
<text x="500" y="80" text-anchor="end" font-family="Courier New, Courier, monospace" font-size="10" fill="#FF3C3C" font-weight="bold">ELEVATED</text>
<polyline points="516.0,73.6 521.4,74.5 526.7,70.3 532.1,70.4 537.4,75.5 542.8,77.1 548.1,73.3 553.5,74.8 558.8,71.0 564.2,71.9 569.5,70.7 574.9,73.0 580.2,70.0 585.6,65.0 591.0,65.6 596.3,73.1 601.7,74.1 607.0,75.0 612.4,74.6 617.7,72.4 623.1,79.0 628.4,81.2 633.8,81.5 639.1,81.7 644.5,82.7 649.8,83.0 655.2,83.3 660.6,84.0 665.9,82.0 671.3,81.2 676.6,82.0 682.0,81.4 687.3,82.3 692.7,83.2 698.0,83.5 703.4,82.1 708.7,84.8 714.1,84.7 719.4,82.8 724.8,84.1 730.2,84.1 735.5,84.5 740.9,84.4 746.2,82.7 751.6,83.3 756.9,83.4 762.3,84.3 767.6,82.7 773.0,83.5 778.3,83.2 783.7,84.0 789.0,85.0 794.4,85.1 799.8,85.2 805.1,84.6 810.5,85.6 815.8,86.4 821.2,87.0 826.5,86.0 831.9,86.4 837.2,86.0 842.6,86.9 847.9,78.3 853.3,82.0 858.6,80.6 864.0,77.3" fill="none" stroke="#FF3C3C" stroke-width="1.5" stroke-linejoin="round" stroke-linecap="round"/>
<line x1="0" y1="92" x2="880" y2="92" stroke="#E8A000" stroke-width="0.5" />
<rect x="0" y="92" width="880" height="32" fill="#FFFFFF" opacity="0.02"/>
<text x="16" y="112" text-anchor="start" font-family="Courier New, Courier, monospace" font-size="10" fill="#FFA020" font-weight="bold">IBOV</text>
<text x="72" y="112" text-anchor="start" font-family="Courier New, Courier, monospace" font-size="10" fill="#E8A000" >IBOVESPA</text>
<text x="340" y="112" text-anchor="end" font-family="Courier New, Courier, monospace" font-size="11" fill="#D8E8F0" font-weight="bold">168,619</text>
<text x="420" y="112" text-anchor="end" font-family="Courier New, Courier, monospace" font-size="11" fill="#FF3C3C" >-0.70%</text>
<text x="500" y="112" text-anchor="end" font-family="Courier New, Courier, monospace" font-size="11" fill="#00C878" >+5.03%</text>
<polyline points="516.0,108.1 521.6,107.8 527.2,111.2 532.8,112.4 538.5,110.8 544.1,110.4 549.7,110.9 555.3,110.5 560.9,113.4 566.5,109.2 572.1,108.8 577.7,106.7 583.4,108.7 589.0,109.5 594.6,108.8 600.2,105.2 605.8,104.8 611.4,104.8 617.0,104.7 622.6,104.6 628.3,101.7 633.9,99.6 639.5,98.0 645.1,97.5 650.7,97.0 656.3,97.7 661.9,98.3 667.5,99.1 673.2,98.8 678.8,101.2 684.4,102.3 690.0,102.8 695.6,103.6 701.2,104.4 706.8,107.2 712.5,105.3 718.1,106.6 723.7,105.7 729.3,105.0 734.9,108.3 740.5,107.7 746.1,109.3 751.7,110.4 757.4,112.8 763.0,111.9 768.6,112.7 774.2,112.9 779.8,114.9 785.4,112.6 791.0,112.4 796.6,113.4 802.3,112.6 807.9,113.2 813.5,113.8 819.1,114.3 824.7,115.2 830.3,116.4 835.9,114.9 841.5,117.7 847.2,118.7 852.8,119.0 858.4,118.1 864.0,119.0" fill="none" stroke="#FF3C3C" stroke-width="1.5" stroke-linejoin="round" stroke-linecap="round"/>
<line x1="16" y1="124" x2="864" y2="124" stroke="#2A3A4A" stroke-width="0.3" />
<text x="16" y="144" text-anchor="start" font-family="Courier New, Courier, monospace" font-size="10" fill="#FFA020" font-weight="bold">SPY</text>
<text x="72" y="144" text-anchor="start" font-family="Courier New, Courier, monospace" font-size="10" fill="#E8A000" >S&amp;P 500</text>
<text x="340" y="144" text-anchor="end" font-family="Courier New, Courier, monospace" font-size="11" fill="#D8E8F0" font-weight="bold">725.43</text>
<text x="420" y="144" text-anchor="end" font-family="Courier New, Courier, monospace" font-size="11" fill="#FF3C3C" >-1.40%</text>
<text x="500" y="144" text-anchor="end" font-family="Courier New, Courier, monospace" font-size="11" fill="#00C878" >+6.48%</text>
<polyline points="516.0,143.7 521.5,145.4 527.0,146.1 532.6,144.9 538.1,144.6 543.6,146.2 549.1,146.5 554.7,148.1 560.2,147.0 565.7,147.3 571.2,146.7 576.8,148.7 582.3,150.6 587.8,151.0 593.3,147.8 598.9,147.0 604.4,146.9 609.9,146.4 615.4,146.3 621.0,143.4 626.5,142.7 632.0,142.8 637.5,141.7 643.0,140.2 648.6,139.3 654.1,139.0 659.6,137.5 665.1,137.8 670.7,138.6 676.2,137.3 681.7,137.8 687.2,136.9 692.8,136.7 698.3,137.3 703.8,137.3 709.3,136.1 714.9,135.7 720.4,136.2 725.9,135.2 731.4,133.4 737.0,133.8 742.5,132.8 748.0,132.5 753.5,132.7 759.0,132.0 764.6,131.0 770.1,132.5 775.6,132.6 781.1,133.5 786.7,132.2 792.2,131.9 797.7,131.4 803.2,130.5 808.8,130.6 814.3,129.9 819.8,129.5 825.3,129.2 830.9,129.0 836.4,129.9 841.9,129.4 847.4,132.8 853.0,132.5 858.5,132.9 864.0,134.9" fill="none" stroke="#FF3C3C" stroke-width="1.5" stroke-linejoin="round" stroke-linecap="round"/>
<line x1="16" y1="156" x2="864" y2="156" stroke="#2A3A4A" stroke-width="0.3" />
<rect x="0" y="156" width="880" height="32" fill="#FFFFFF" opacity="0.02"/>
<text x="16" y="176" text-anchor="start" font-family="Courier New, Courier, monospace" font-size="10" fill="#FFA020" font-weight="bold">QQQ</text>
<text x="72" y="176" text-anchor="start" font-family="Courier New, Courier, monospace" font-size="10" fill="#E8A000" >NASDAQ 100</text>
<text x="340" y="176" text-anchor="end" font-family="Courier New, Courier, monospace" font-size="11" fill="#D8E8F0" font-weight="bold">693.69</text>
<text x="420" y="176" text-anchor="end" font-family="Courier New, Courier, monospace" font-size="11" fill="#FF3C3C" >-1.84%</text>
<text x="500" y="176" text-anchor="end" font-family="Courier New, Courier, monospace" font-size="11" fill="#00C878" >+13.28%</text>
<polyline points="516.0,177.3 521.5,178.5 527.0,178.9 532.6,178.2 538.1,177.8 543.6,178.8 549.1,179.0 554.7,180.3 560.2,179.5 565.7,180.0 571.2,179.5 576.8,181.2 582.3,182.5 587.8,183.0 593.3,180.8 598.9,180.0 604.4,179.9 609.9,179.5 615.4,179.5 621.0,177.4 626.5,176.9 632.0,176.8 637.5,176.1 643.0,174.8 648.6,173.7 654.1,173.4 659.6,172.4 665.1,172.6 670.7,172.9 676.2,171.7 681.7,172.1 687.2,170.6 692.8,170.6 698.3,171.4 703.8,170.9 709.3,170.2 714.9,169.4 720.4,169.6 725.9,168.6 731.4,166.9 737.0,167.0 742.5,165.1 748.0,164.8 753.5,165.6 759.0,164.7 764.6,164.1 770.1,165.4 775.6,165.7 781.1,166.2 786.7,164.9 792.2,164.7 797.7,164.4 803.2,162.9 808.8,163.0 814.3,162.2 819.8,161.9 825.3,161.4 830.9,161.0 836.4,161.2 841.9,161.6 847.4,165.8 853.0,164.5 858.5,165.5 864.0,167.1" fill="none" stroke="#FF3C3C" stroke-width="1.5" stroke-linejoin="round" stroke-linecap="round"/>
<line x1="16" y1="188" x2="864" y2="188" stroke="#2A3A4A" stroke-width="0.3" />
<text x="16" y="208" text-anchor="start" font-family="Courier New, Courier, monospace" font-size="10" fill="#FFA020" font-weight="bold">QMOM</text>
<text x="72" y="208" text-anchor="start" font-family="Courier New, Courier, monospace" font-size="10" fill="#E8A000" >QUANT MOMENTUM</text>
<text x="340" y="208" text-anchor="end" font-family="Courier New, Courier, monospace" font-size="11" fill="#D8E8F0" font-weight="bold">74.63</text>
<text x="420" y="208" text-anchor="end" font-family="Courier New, Courier, monospace" font-size="11" fill="#FF3C3C" >-2.39%</text>
<text x="500" y="208" text-anchor="end" font-family="Courier New, Courier, monospace" font-size="11" fill="#00C878" >+12.25%</text>
<polyline points="516.0,208.2 521.5,210.3 527.0,211.8 532.6,209.7 538.1,209.0 543.6,210.0 549.1,209.7 554.7,212.8 560.2,210.7 565.7,209.5 571.2,208.2 576.8,211.7 582.3,212.3 587.8,215.0 593.3,210.1 598.9,208.3 604.4,208.5 609.9,208.3 615.4,208.1 621.0,203.8 626.5,203.2 632.0,203.1 637.5,202.2 643.0,201.4 648.6,202.1 654.1,201.9 659.6,199.9 665.1,199.8 670.7,201.0 676.2,200.1 681.7,199.7 687.2,199.7 692.8,200.0 698.3,202.3 703.8,203.3 709.3,199.3 714.9,199.6 720.4,199.4 725.9,198.1 731.4,194.7 737.0,198.5 742.5,196.9 748.0,195.3 753.5,196.2 759.0,195.3 764.6,195.1 770.1,198.6 775.6,200.2 781.1,201.4 786.7,199.3 792.2,198.7 797.7,198.4 803.2,195.4 808.8,196.1 814.3,195.2 819.8,194.6 825.3,194.8 830.9,193.0 836.4,193.4 841.9,193.7 847.4,199.2 853.0,198.5 858.5,199.7 864.0,202.0" fill="none" stroke="#FF3C3C" stroke-width="1.5" stroke-linejoin="round" stroke-linecap="round"/>
<line x1="16" y1="220" x2="864" y2="220" stroke="#2A3A4A" stroke-width="0.3" />
<rect x="0" y="220" width="880" height="32" fill="#FFFFFF" opacity="0.02"/>
<text x="16" y="240" text-anchor="start" font-family="Courier New, Courier, monospace" font-size="10" fill="#FFA020" font-weight="bold">MTUM</text>
<text x="72" y="240" text-anchor="start" font-family="Courier New, Courier, monospace" font-size="10" fill="#E8A000" >MOMENTUM FACTOR</text>
<text x="340" y="240" text-anchor="end" font-family="Courier New, Courier, monospace" font-size="11" fill="#D8E8F0" font-weight="bold">304.92</text>
<text x="420" y="240" text-anchor="end" font-family="Courier New, Courier, monospace" font-size="11" fill="#FF3C3C" >-3.26%</text>
<text x="500" y="240" text-anchor="end" font-family="Courier New, Courier, monospace" font-size="11" fill="#00C878" >+20.76%</text>
<polyline points="516.0,243.0 521.5,244.1 527.0,244.2 532.6,243.5 538.1,243.1 543.6,243.6 549.1,243.4 554.7,244.6 560.2,243.9 565.7,243.7 571.2,243.3 576.8,245.3 582.3,245.9 587.8,247.0 593.3,244.9 598.9,243.8 604.4,243.6 609.9,243.2 615.4,242.9 621.0,240.6 626.5,239.9 632.0,239.7 637.5,239.1 643.0,238.2 648.6,238.3 654.1,238.1 659.6,237.3 665.1,237.5 670.7,237.9 676.2,236.9 681.7,236.9 687.2,235.8 692.8,235.9 698.3,236.9 703.8,236.5 709.3,235.1 714.9,234.9 720.4,235.1 725.9,233.6 731.4,231.8 737.0,232.9 742.5,231.2 748.0,230.1 753.5,230.9 759.0,230.4 764.6,230.0 770.1,232.0 775.6,232.8 781.1,233.2 786.7,231.7 792.2,231.1 797.7,230.8 803.2,228.4 808.8,228.6 814.3,228.3 819.8,228.1 825.3,227.8 830.9,225.8 836.4,225.0 841.9,225.8 847.4,230.1 853.0,228.2 858.5,229.0 864.0,230.5" fill="none" stroke="#FF3C3C" stroke-width="1.5" stroke-linejoin="round" stroke-linecap="round"/>
<line x1="16" y1="252" x2="864" y2="252" stroke="#2A3A4A" stroke-width="0.3" />
<text x="16" y="272" text-anchor="start" font-family="Courier New, Courier, monospace" font-size="10" fill="#FFA020" font-weight="bold">QUAL</text>
<text x="72" y="272" text-anchor="start" font-family="Courier New, Courier, monospace" font-size="10" fill="#E8A000" >QUALITY FACTOR</text>
<text x="340" y="272" text-anchor="end" font-family="Courier New, Courier, monospace" font-size="11" fill="#D8E8F0" font-weight="bold">212.33</text>
<text x="420" y="272" text-anchor="end" font-family="Courier New, Courier, monospace" font-size="11" fill="#FF3C3C" >-1.11%</text>
<text x="500" y="272" text-anchor="end" font-family="Courier New, Courier, monospace" font-size="11" fill="#00C878" >+6.82%</text>
<polyline points="516.0,270.0 521.5,272.4 527.0,273.1 532.6,271.8 538.1,271.6 543.6,273.6 549.1,273.5 554.7,275.1 560.2,273.7 565.7,274.1 571.2,273.6 576.8,276.4 582.3,278.4 587.8,279.0 593.3,275.2 598.9,274.5 604.4,274.2 609.9,273.6 615.4,274.1 621.0,270.1 626.5,269.2 632.0,269.7 637.5,268.5 643.0,267.0 648.6,266.2 654.1,266.3 659.6,264.4 665.1,264.7 670.7,265.5 676.2,264.2 681.7,265.2 687.2,264.1 692.8,264.2 698.3,265.1 703.8,265.3 709.3,264.2 714.9,264.3 720.4,265.0 725.9,264.0 731.4,262.2 737.0,262.6 742.5,261.9 748.0,261.8 753.5,262.0 759.0,261.5 764.6,260.5 770.1,261.9 775.6,261.6 781.1,262.5 786.7,260.6 792.2,260.3 797.7,259.1 803.2,258.1 808.8,258.5 814.3,258.0 819.8,258.3 825.3,258.0 830.9,258.1 836.4,258.2 841.9,257.0 847.4,260.0 853.0,259.5 858.5,259.3 864.0,260.6" fill="none" stroke="#FF3C3C" stroke-width="1.5" stroke-linejoin="round" stroke-linecap="round"/>
<line x1="16" y1="284" x2="864" y2="284" stroke="#2A3A4A" stroke-width="0.3" />
<line x1="0" y1="284" x2="880" y2="284" stroke="#E8A000" stroke-width="0.4" />
<text x="16" y="297" text-anchor="start" font-family="Courier New, Courier, monospace" font-size="8" fill="#506070" >SRC: YAHOO FINANCE  ·  AUTO-UPDATE 22:00 UTC WEEKDAYS  ·  GITHUB.COM/YANKRUZISKI</text>
<text x="864" y="297" text-anchor="end" font-family="Courier New, Courier, monospace" font-size="8" fill="#506070" >2026-06-10</text>
</svg>