<svg xmlns="http://www.w3.org/2000/svg" width="880" height="302" viewBox="0 0 880 302">
<rect width="880" height="302" fill="#040810"/>
<rect x="0.5" y="0.5" width="879" height="301" fill="none" stroke="#E8A000" stroke-width="0.7" opacity="0.5"/>
<rect x="0" y="0" width="880" height="18" fill="#D87000"/>
<text x="16" y="14" text-anchor="start" font-family="Courier New, Courier, monospace" font-size="9" fill="#030608" font-weight="bold">BLOOMBERG</text>
<text x="88" y="14" text-anchor="start" font-family="Courier New, Courier, monospace" font-size="9" fill="#030608" >QUANT MARKET MONITOR</text>
<text x="440" y="14" text-anchor="middle" font-family="Courier New, Courier, monospace" font-size="9" fill="#030608" >EQUITY  &amp;  VOLATILITY  DASHBOARD</text>
<text x="864" y="14" text-anchor="end" font-family="Courier New, Courier, monospace" font-size="9" fill="#030608" >2026-07-29  22:58 UTC</text>
<line x1="0" y1="38" x2="880" y2="38" stroke="#E8A000" stroke-width="0.8" />
<text x="16" y="33" text-anchor="start" font-family="Courier New, Courier, monospace" font-size="9" fill="#506070" >YAN KRUZISKI  ·  VP OF INTELI RESEARCH  ·  SÃO PAULO, BR</text>
<text x="864" y="33" text-anchor="end" font-family="Courier New, Courier, monospace" font-size="9" fill="#506070" >PAGE 1/1</text>
<rect x="0" y="38" width="880" height="22" fill="#E8A000" opacity="0.14"/>
<text x="16" y="54" text-anchor="start" font-family="Courier New, Courier, monospace" font-size="9" fill="#FFA020" font-weight="bold">TICKER</text>
<text x="72" y="54" text-anchor="start" font-family="Courier New, Courier, monospace" font-size="9" fill="#FFA020" font-weight="bold">DESCRIPTION</text>
<text x="340" y="54" text-anchor="end" font-family="Courier New, Courier, monospace" font-size="9" fill="#FFA020" font-weight="bold">LAST</text>
<text x="420" y="54" text-anchor="end" font-family="Courier New, Courier, monospace" font-size="9" fill="#FFA020" font-weight="bold">%CHG</text>
<text x="500" y="54" text-anchor="end" font-family="Courier New, Courier, monospace" font-size="9" fill="#FFA020" font-weight="bold">YTD%</text>
<text x="690" y="54" text-anchor="middle" font-family="Courier New, Courier, monospace" font-size="9" fill="#FFA020" font-weight="bold">3-MONTH</text>
<line x1="0" y1="60" x2="880" y2="60" stroke="#E8A000" stroke-width="0.9" />
<rect x="0" y="60" width="880" height="32" fill="#E8A000" opacity="0.09"/>
<text x="16" y="80" text-anchor="start" font-family="Courier New, Courier, monospace" font-size="10" fill="#FFA020" font-weight="bold">^VIX</text>
<text x="72" y="80" text-anchor="start" font-family="Courier New, Courier, monospace" font-size="10" fill="#E8A000" font-weight="bold">CBOE VOLATILITY INDEX</text>
<text x="340" y="80" text-anchor="end" font-family="Courier New, Courier, monospace" font-size="11" fill="#D8E8F0" font-weight="bold">20.66</text>
<text x="420" y="80" text-anchor="end" font-family="Courier New, Courier, monospace" font-size="11" fill="#FF3C3C" font-weight="bold">+13.52%</text>
<text x="500" y="80" text-anchor="end" font-family="Courier New, Courier, monospace" font-size="10" fill="#FF3C3C" font-weight="bold">ELEVATED</text>
<polyline points="516.0,75.4 521.5,81.3 527.0,81.0 532.6,77.0 538.1,79.8 543.6,79.8 549.1,80.7 554.7,80.4 560.2,76.7 565.7,77.9 571.2,78.3 576.8,80.2 582.3,76.6 587.8,78.5 593.3,77.7 598.9,79.6 604.4,81.7 609.9,81.9 615.4,82.2 621.0,80.9 626.5,83.1 632.0,84.8 637.5,86.1 643.0,83.9 648.6,84.7 654.1,83.8 659.6,85.9 665.1,67.2 670.7,75.1 676.2,72.2 681.7,65.0 687.2,73.5 692.8,78.9 698.3,83.4 703.8,82.8 709.3,76.6 714.9,82.8 720.4,80.1 725.9,73.4 731.4,76.0 737.0,75.2 742.5,76.7 748.0,79.0 753.5,82.7 759.0,82.2 764.6,83.6 770.1,85.3 775.6,83.6 781.1,81.3 786.7,84.5 792.2,87.0 797.7,80.5 803.2,82.5 808.8,85.0 814.3,81.8 819.8,75.6 825.3,75.9 830.9,80.8 836.4,82.1 841.9,75.8 847.4,76.1 853.0,75.9 858.5,77.3 864.0,69.8" fill="none" stroke="#FF3C3C" stroke-width="1.5" stroke-linejoin="round" stroke-linecap="round"/>
<line x1="0" y1="92" x2="880" y2="92" stroke="#E8A000" stroke-width="0.5" />
<rect x="0" y="92" width="880" height="32" fill="#FFFFFF" opacity="0.02"/>
<text x="16" y="112" text-anchor="start" font-family="Courier New, Courier, monospace" font-size="10" fill="#FFA020" font-weight="bold">IBOV</text>
<text x="72" y="112" text-anchor="start" font-family="Courier New, Courier, monospace" font-size="10" fill="#E8A000" >IBOVESPA</text>
<text x="340" y="112" text-anchor="end" font-family="Courier New, Courier, monospace" font-size="11" fill="#D8E8F0" font-weight="bold">173,885</text>
<text x="420" y="112" text-anchor="end" font-family="Courier New, Courier, monospace" font-size="11" fill="#FF3C3C" >-1.52%</text>
<text x="500" y="112" text-anchor="end" font-family="Courier New, Courier, monospace" font-size="11" fill="#00C878" >+8.31%</text>
<polyline points="516.0,100.3 521.5,97.4 527.0,99.4 532.6,98.1 538.1,97.0 543.6,102.1 549.1,101.1 554.7,103.6 560.2,105.3 565.7,109.0 571.2,107.6 576.8,108.8 582.3,109.1 587.8,112.2 593.3,108.7 598.9,108.4 604.4,110.0 609.9,108.7 615.4,109.6 621.0,110.5 626.5,111.3 632.0,112.8 637.5,114.6 643.0,112.3 648.6,116.7 654.1,118.2 659.6,118.6 665.1,117.3 670.7,118.6 676.2,115.4 681.7,115.8 687.2,116.6 692.8,117.4 698.3,118.8 703.8,119.0 709.3,118.7 714.9,116.6 720.4,115.6 725.9,116.5 731.4,114.8 737.0,113.3 742.5,113.4 748.0,114.8 753.5,115.1 759.0,113.9 764.6,112.2 770.1,114.3 775.6,114.8 781.1,116.3 786.7,113.9 792.2,108.1 797.7,110.5 803.2,109.5 808.8,110.2 814.3,112.7 819.8,112.8 825.3,113.2 830.9,113.3 836.4,108.5 841.9,109.4 847.4,112.5 853.0,111.0 858.5,109.6 864.0,112.6" fill="none" stroke="#FF3C3C" stroke-width="1.5" stroke-linejoin="round" stroke-linecap="round"/>
<line x1="16" y1="124" x2="864" y2="124" stroke="#2A3A4A" stroke-width="0.3" />
<text x="16" y="144" text-anchor="start" font-family="Courier New, Courier, monospace" font-size="10" fill="#FFA020" font-weight="bold">SPY</text>
<text x="72" y="144" text-anchor="start" font-family="Courier New, Courier, monospace" font-size="10" fill="#E8A000" >S&amp;P 500</text>
<text x="340" y="144" text-anchor="end" font-family="Courier New, Courier, monospace" font-size="11" fill="#D8E8F0" font-weight="bold">729.46</text>
<text x="420" y="144" text-anchor="end" font-family="Courier New, Courier, monospace" font-size="11" fill="#FF3C3C" >-1.90%</text>
<text x="500" y="144" text-anchor="end" font-family="Courier New, Courier, monospace" font-size="11" fill="#00C878" >+7.34%</text>
<polyline points="516.0,150.7 521.7,149.6 527.4,151.0 533.1,148.0 538.8,142.6 544.5,143.8 550.2,140.6 555.9,139.7 561.6,140.3 567.3,138.1 573.0,135.0 578.8,139.8 584.5,140.1 590.2,142.7 595.9,138.7 601.6,137.9 607.3,136.4 613.0,133.8 618.7,133.8 624.4,131.6 630.1,130.6 635.8,129.5 641.5,129.0 647.2,131.8 652.9,130.3 658.6,140.7 664.3,139.8 670.0,140.9 675.7,147.1 681.4,140.5 687.1,138.4 692.9,131.5 698.6,133.9 704.3,138.9 710.0,134.8 715.7,136.0 721.4,141.8 727.1,141.9 732.8,141.4 738.5,144.2 744.2,137.8 749.9,134.8 755.6,135.3 761.3,135.8 767.0,132.4 772.7,134.3 778.4,135.5 784.1,132.1 789.8,130.4 795.5,133.5 801.2,132.1 807.0,130.5 812.7,132.7 818.4,136.6 824.1,137.2 829.8,134.0 835.5,134.4 841.2,139.3 846.9,138.9 852.6,138.8 858.3,137.9 864.0,143.9" fill="none" stroke="#FF3C3C" stroke-width="1.5" stroke-linejoin="round" stroke-linecap="round"/>
<line x1="16" y1="156" x2="864" y2="156" stroke="#2A3A4A" stroke-width="0.3" />
<rect x="0" y="156" width="880" height="32" fill="#FFFFFF" opacity="0.02"/>
<text x="16" y="176" text-anchor="start" font-family="Courier New, Courier, monospace" font-size="10" fill="#FFA020" font-weight="bold">QQQ</text>
<text x="72" y="176" text-anchor="start" font-family="Courier New, Courier, monospace" font-size="10" fill="#E8A000" >NASDAQ 100</text>
<text x="340" y="176" text-anchor="end" font-family="Courier New, Courier, monospace" font-size="11" fill="#D8E8F0" font-weight="bold">661.73</text>
<text x="420" y="176" text-anchor="end" font-family="Courier New, Courier, monospace" font-size="11" fill="#FF3C3C" >-2.66%</text>
<text x="500" y="176" text-anchor="end" font-family="Courier New, Courier, monospace" font-size="11" fill="#00C878" >+8.18%</text>
<polyline points="516.0,181.6 521.7,179.9 527.4,180.3 533.1,178.0 538.8,174.2 544.5,174.5 550.2,170.2 555.9,169.6 561.6,171.2 567.3,169.3 573.0,167.9 578.8,170.8 584.5,171.6 590.2,172.7 595.9,169.7 601.6,169.3 607.3,168.5 613.0,165.2 618.7,165.4 624.4,163.8 630.1,163.1 635.8,161.9 641.5,161.0 647.2,161.5 652.9,162.5 658.6,171.8 664.3,168.9 670.0,171.1 675.7,174.8 681.4,168.6 687.1,167.5 692.9,161.6 698.6,165.3 704.3,167.2 710.0,162.5 715.7,162.9 721.4,169.3 727.1,170.1 732.8,168.6 738.5,171.2 744.2,166.6 749.9,163.4 755.6,166.3 761.3,169.6 767.0,166.9 772.7,170.4 778.4,169.9 784.1,166.8 789.8,166.2 795.5,169.8 801.2,167.7 807.0,168.3 812.7,171.4 818.4,174.2 824.1,174.0 829.8,170.6 835.5,171.5 841.2,175.0 846.9,177.1 852.6,177.6 858.3,179.4 864.0,183.0" fill="none" stroke="#FF3C3C" stroke-width="1.5" stroke-linejoin="round" stroke-linecap="round"/>
<line x1="16" y1="188" x2="864" y2="188" stroke="#2A3A4A" stroke-width="0.3" />
<text x="16" y="208" text-anchor="start" font-family="Courier New, Courier, monospace" font-size="10" fill="#FFA020" font-weight="bold">QMOM</text>
<text x="72" y="208" text-anchor="start" font-family="Courier New, Courier, monospace" font-size="10" fill="#E8A000" >QUANT MOMENTUM</text>
<text x="340" y="208" text-anchor="end" font-family="Courier New, Courier, monospace" font-size="11" fill="#D8E8F0" font-weight="bold">71.26</text>
<text x="420" y="208" text-anchor="end" font-family="Courier New, Courier, monospace" font-size="11" fill="#FF3C3C" >-1.83%</text>
<text x="500" y="208" text-anchor="end" font-family="Courier New, Courier, monospace" font-size="11" fill="#00C878" >+7.19%</text>
<polyline points="516.0,203.5 521.7,203.9 527.4,203.5 533.1,201.4 538.8,195.8 544.5,202.0 550.2,199.4 555.9,196.7 561.6,198.3 567.3,196.8 573.0,196.5 578.8,202.2 584.5,204.8 590.2,206.8 595.9,203.4 601.6,202.4 607.3,201.8 613.0,197.0 618.7,198.1 624.4,196.7 630.1,195.7 635.8,196.0 641.5,193.0 647.2,193.6 652.9,194.1 658.6,203.2 664.3,202.1 670.0,204.0 675.7,207.9 681.4,200.6 687.1,198.4 692.9,197.3 698.6,199.0 704.3,200.1 710.0,199.1 715.7,195.8 721.4,200.4 727.1,201.9 732.8,199.1 738.5,203.0 744.2,200.5 749.9,199.2 755.6,202.2 761.3,205.3 767.0,204.0 772.7,206.1 778.4,204.1 784.1,203.2 789.8,205.0 795.5,207.1 801.2,204.7 807.0,206.6 812.7,210.0 818.4,209.0 824.1,209.7 829.8,205.3 835.5,203.8 841.2,205.3 846.9,207.3 852.6,208.5 858.3,212.0 864.0,215.0" fill="none" stroke="#FF3C3C" stroke-width="1.5" stroke-linejoin="round" stroke-linecap="round"/>
<line x1="16" y1="220" x2="864" y2="220" stroke="#2A3A4A" stroke-width="0.3" />
<rect x="0" y="220" width="880" height="32" fill="#FFFFFF" opacity="0.02"/>
<text x="16" y="240" text-anchor="start" font-family="Courier New, Courier, monospace" font-size="10" fill="#FFA020" font-weight="bold">MTUM</text>
<text x="72" y="240" text-anchor="start" font-family="Courier New, Courier, monospace" font-size="10" fill="#E8A000" >MOMENTUM FACTOR</text>
<text x="340" y="240" text-anchor="end" font-family="Courier New, Courier, monospace" font-size="11" fill="#D8E8F0" font-weight="bold">283.11</text>
<text x="420" y="240" text-anchor="end" font-family="Courier New, Courier, monospace" font-size="11" fill="#FF3C3C" >-3.83%</text>
<text x="500" y="240" text-anchor="end" font-family="Courier New, Courier, monospace" font-size="11" fill="#00C878" >+12.25%</text>
<polyline points="516.0,246.8 521.7,246.4 527.4,246.7 533.1,244.3 538.8,241.4 544.5,243.3 550.2,240.5 555.9,238.8 561.6,240.0 567.3,239.2 573.0,238.6 578.8,241.7 584.5,243.1 590.2,243.8 595.9,241.3 601.6,240.4 607.3,239.9 613.0,236.2 618.7,236.4 624.4,236.0 630.1,235.5 635.8,235.1 641.5,231.9 647.2,230.7 652.9,232.0 658.6,238.8 664.3,235.8 670.0,237.0 675.7,239.4 681.4,234.4 687.1,232.5 692.9,229.1 698.6,231.8 704.3,231.0 710.0,227.4 715.7,225.0 721.4,230.5 727.1,231.0 732.8,227.1 738.5,231.9 744.2,228.3 749.9,225.8 755.6,231.1 761.3,235.2 767.0,233.3 772.7,236.6 778.4,235.8 784.1,233.5 789.8,233.3 795.5,235.8 801.2,234.0 807.0,236.5 812.7,239.8 818.4,240.3 824.1,240.1 829.8,235.9 835.5,236.0 841.2,236.1 846.9,238.8 852.6,240.2 858.3,243.7 864.0,247.0" fill="none" stroke="#FF3C3C" stroke-width="1.5" stroke-linejoin="round" stroke-linecap="round"/>
<line x1="16" y1="252" x2="864" y2="252" stroke="#2A3A4A" stroke-width="0.3" />
<text x="16" y="272" text-anchor="start" font-family="Courier New, Courier, monospace" font-size="10" fill="#FFA020" font-weight="bold">QUAL</text>
<text x="72" y="272" text-anchor="start" font-family="Courier New, Courier, monospace" font-size="10" fill="#E8A000" >QUALITY FACTOR</text>
<text x="340" y="272" text-anchor="end" font-family="Courier New, Courier, monospace" font-size="11" fill="#D8E8F0" font-weight="bold">215.98</text>
<text x="420" y="272" text-anchor="end" font-family="Courier New, Courier, monospace" font-size="11" fill="#FF3C3C" >-0.70%</text>
<text x="500" y="272" text-anchor="end" font-family="Courier New, Courier, monospace" font-size="11" fill="#00C878" >+8.85%</text>
<polyline points="516.0,277.3 521.7,277.4 527.4,279.0 533.1,276.9 538.8,273.2 544.5,274.1 550.2,272.6 555.9,272.4 561.6,272.7 567.3,271.8 573.0,269.8 578.8,272.6 584.5,271.9 590.2,273.9 595.9,270.0 601.6,269.2 607.3,266.8 613.0,264.7 618.7,265.6 624.4,264.6 630.1,265.2 635.8,264.5 641.5,264.8 647.2,265.0 652.9,262.5 658.6,268.6 664.3,267.6 670.0,267.2 675.7,269.8 681.4,264.6 687.1,263.1 692.9,259.2 698.6,261.3 704.3,266.2 710.0,264.0 715.7,264.1 721.4,268.3 727.1,268.0 732.8,267.9 738.5,267.3 744.2,262.0 749.9,258.8 755.6,259.6 761.3,260.3 767.0,260.2 772.7,261.3 778.4,262.5 784.1,260.2 789.8,258.4 795.5,260.0 801.2,259.1 807.0,258.3 812.7,257.0 818.4,261.1 824.1,262.5 829.8,260.7 835.5,261.9 841.2,263.9 846.9,262.7 852.6,262.0 858.3,260.2 864.0,263.9" fill="none" stroke="#FF3C3C" stroke-width="1.5" stroke-linejoin="round" stroke-linecap="round"/>
<line x1="16" y1="284" x2="864" y2="284" stroke="#2A3A4A" stroke-width="0.3" />
<line x1="0" y1="284" x2="880" y2="284" stroke="#E8A000" stroke-width="0.4" />
<text x="16" y="297" text-anchor="start" font-family="Courier New, Courier, monospace" font-size="8" fill="#506070" >SRC: YAHOO FINANCE  ·  AUTO-UPDATE 22:00 UTC WEEKDAYS  ·  GITHUB.COM/YANKRUZISKI</text>
<text x="864" y="297" text-anchor="end" font-family="Courier New, Courier, monospace" font-size="8" fill="#506070" >2026-07-29</text>
</svg>