<svg xmlns="http://www.w3.org/2000/svg" width="880" height="302" viewBox="0 0 880 302">
<rect width="880" height="302" fill="#040810"/>
<rect x="0.5" y="0.5" width="879" height="301" fill="none" stroke="#E8A000" stroke-width="0.7" opacity="0.5"/>
<rect x="0" y="0" width="880" height="18" fill="#D87000"/>
<text x="16" y="14" text-anchor="start" font-family="Courier New, Courier, monospace" font-size="9" fill="#030608" font-weight="bold">BLOOMBERG</text>
<text x="88" y="14" text-anchor="start" font-family="Courier New, Courier, monospace" font-size="9" fill="#030608" >QUANT MARKET MONITOR</text>
<text x="440" y="14" text-anchor="middle" font-family="Courier New, Courier, monospace" font-size="9" fill="#030608" >EQUITY  &amp;  VOLATILITY  DASHBOARD</text>
<text x="864" y="14" text-anchor="end" font-family="Courier New, Courier, monospace" font-size="9" fill="#030608" >2026-06-11  22:38 UTC</text>
<line x1="0" y1="38" x2="880" y2="38" stroke="#E8A000" stroke-width="0.8" />
<text x="16" y="33" text-anchor="start" font-family="Courier New, Courier, monospace" font-size="9" fill="#506070" >YAN KRUZISKI  ·  VP OF INTELI RESEARCH  ·  SÃO PAULO, BR</text>
<text x="864" y="33" text-anchor="end" font-family="Courier New, Courier, monospace" font-size="9" fill="#506070" >PAGE 1/1</text>
<rect x="0" y="38" width="880" height="22" fill="#E8A000" opacity="0.14"/>
<text x="16" y="54" text-anchor="start" font-family="Courier New, Courier, monospace" font-size="9" fill="#FFA020" font-weight="bold">TICKER</text>
<text x="72" y="54" text-anchor="start" font-family="Courier New, Courier, monospace" font-size="9" fill="#FFA020" font-weight="bold">DESCRIPTION</text>
<text x="340" y="54" text-anchor="end" font-family="Courier New, Courier, monospace" font-size="9" fill="#FFA020" font-weight="bold">LAST</text>
<text x="420" y="54" text-anchor="end" font-family="Courier New, Courier, monospace" font-size="9" fill="#FFA020" font-weight="bold">%CHG</text>
<text x="500" y="54" text-anchor="end" font-family="Courier New, Courier, monospace" font-size="9" fill="#FFA020" font-weight="bold">YTD%</text>
<text x="690" y="54" text-anchor="middle" font-family="Courier New, Courier, monospace" font-size="9" fill="#FFA020" font-weight="bold">3-MONTH</text>
<line x1="0" y1="60" x2="880" y2="60" stroke="#E8A000" stroke-width="0.9" />
<rect x="0" y="60" width="880" height="32" fill="#E8A000" opacity="0.09"/>
<text x="16" y="80" text-anchor="start" font-family="Courier New, Courier, monospace" font-size="10" fill="#FFA020" font-weight="bold">^VIX</text>
<text x="72" y="80" text-anchor="start" font-family="Courier New, Courier, monospace" font-size="10" fill="#E8A000" font-weight="bold">CBOE VOLATILITY INDEX</text>
<text x="340" y="80" text-anchor="end" font-family="Courier New, Courier, monospace" font-size="11" fill="#D8E8F0" font-weight="bold">19.44</text>
<text x="420" y="80" text-anchor="end" font-family="Courier New, Courier, monospace" font-size="11" fill="#00C878" font-weight="bold">-12.51%</text>
<text x="500" y="80" text-anchor="end" font-family="Courier New, Courier, monospace" font-size="10" fill="#00C878" font-weight="bold">NORMAL</text>
<polyline points="516.0,74.5 521.4,70.3 526.7,70.4 532.1,75.5 537.4,77.1 542.8,73.3 548.1,74.8 553.5,71.0 558.8,71.9 564.2,70.7 569.5,73.0 574.9,70.0 580.2,65.0 585.6,65.6 591.0,73.1 596.3,74.1 601.7,75.0 607.0,74.6 612.4,72.4 617.7,79.0 623.1,81.2 628.4,81.5 633.8,81.7 639.1,82.7 644.5,83.0 649.8,83.3 655.2,84.0 660.6,82.0 665.9,81.2 671.3,82.0 676.6,81.4 682.0,82.3 687.3,83.2 692.7,83.5 698.0,82.1 703.4,84.8 708.7,84.7 714.1,82.8 719.4,84.1 724.8,84.1 730.2,84.5 735.5,84.4 740.9,82.7 746.2,83.3 751.6,83.4 756.9,84.3 762.3,82.7 767.6,83.5 773.0,83.2 778.3,84.0 783.7,85.0 789.0,85.1 794.4,85.2 799.8,84.6 805.1,85.6 810.5,86.4 815.8,87.0 821.2,86.0 826.5,86.4 831.9,86.0 837.2,86.9 842.6,78.3 847.9,82.0 853.3,80.6 858.6,77.3 864.0,81.2" fill="none" stroke="#00C878" stroke-width="1.5" stroke-linejoin="round" stroke-linecap="round"/>
<line x1="0" y1="92" x2="880" y2="92" stroke="#E8A000" stroke-width="0.5" />
<rect x="0" y="92" width="880" height="32" fill="#FFFFFF" opacity="0.02"/>
<text x="16" y="112" text-anchor="start" font-family="Courier New, Courier, monospace" font-size="10" fill="#FFA020" font-weight="bold">IBOV</text>
<text x="72" y="112" text-anchor="start" font-family="Courier New, Courier, monospace" font-size="10" fill="#E8A000" >IBOVESPA</text>
<text x="340" y="112" text-anchor="end" font-family="Courier New, Courier, monospace" font-size="11" fill="#D8E8F0" font-weight="bold">171,497</text>
<text x="420" y="112" text-anchor="end" font-family="Courier New, Courier, monospace" font-size="11" fill="#00C878" >+1.71%</text>
<text x="500" y="112" text-anchor="end" font-family="Courier New, Courier, monospace" font-size="11" fill="#00C878" >+6.83%</text>
<polyline points="516.0,107.8 521.6,111.2 527.2,112.4 532.8,110.8 538.5,110.4 544.1,110.9 549.7,110.5 555.3,113.4 560.9,109.2 566.5,108.8 572.1,106.7 577.7,108.7 583.4,109.5 589.0,108.8 594.6,105.2 600.2,104.8 605.8,104.8 611.4,104.7 617.0,104.6 622.6,101.7 628.3,99.6 633.9,98.0 639.5,97.5 645.1,97.0 650.7,97.7 656.3,98.3 661.9,99.1 667.5,98.8 673.2,101.2 678.8,102.3 684.4,102.8 690.0,103.6 695.6,104.4 701.2,107.2 706.8,105.3 712.5,106.6 718.1,105.7 723.7,105.0 729.3,108.3 734.9,107.7 740.5,109.3 746.1,110.4 751.7,112.8 757.4,111.9 763.0,112.7 768.6,112.9 774.2,114.9 779.8,112.6 785.4,112.4 791.0,113.4 796.6,112.6 802.3,113.2 807.9,113.8 813.5,114.3 819.1,115.2 824.7,116.4 830.3,114.9 835.9,117.7 841.5,118.7 847.2,119.0 852.8,118.1 858.4,119.0 864.0,116.9" fill="none" stroke="#00C878" stroke-width="1.5" stroke-linejoin="round" stroke-linecap="round"/>
<line x1="16" y1="124" x2="864" y2="124" stroke="#2A3A4A" stroke-width="0.3" />
<text x="16" y="144" text-anchor="start" font-family="Courier New, Courier, monospace" font-size="10" fill="#FFA020" font-weight="bold">SPY</text>
<text x="72" y="144" text-anchor="start" font-family="Courier New, Courier, monospace" font-size="10" fill="#E8A000" >S&amp;P 500</text>
<text x="340" y="144" text-anchor="end" font-family="Courier New, Courier, monospace" font-size="11" fill="#D8E8F0" font-weight="bold">737.76</text>
<text x="420" y="144" text-anchor="end" font-family="Courier New, Courier, monospace" font-size="11" fill="#00C878" >+2.06%</text>
<text x="500" y="144" text-anchor="end" font-family="Courier New, Courier, monospace" font-size="11" fill="#00C878" >+8.29%</text>
<polyline points="516.0,145.4 521.5,146.1 527.0,144.9 532.6,144.6 538.1,146.2 543.6,146.5 549.1,148.1 554.7,147.0 560.2,147.3 565.7,146.7 571.2,148.7 576.8,150.6 582.3,151.0 587.8,147.8 593.3,147.0 598.9,146.9 604.4,146.4 609.9,146.3 615.4,143.4 621.0,142.7 626.5,142.8 632.0,141.7 637.5,140.2 643.0,139.3 648.6,139.0 654.1,137.5 659.6,137.8 665.1,138.6 670.7,137.3 676.2,137.8 681.7,136.9 687.2,136.7 692.8,137.3 698.3,137.3 703.8,136.1 709.3,135.7 714.9,136.2 720.4,135.2 725.9,133.4 731.4,133.8 737.0,132.8 742.5,132.5 748.0,132.7 753.5,132.0 759.0,131.0 764.6,132.5 770.1,132.6 775.6,133.5 781.1,132.2 786.7,131.9 792.2,131.4 797.7,130.5 803.2,130.6 808.8,129.9 814.3,129.5 819.8,129.2 825.3,129.0 830.9,129.9 836.4,129.4 841.9,132.8 847.4,132.5 853.0,132.9 858.5,134.9 864.0,132.8" fill="none" stroke="#00C878" stroke-width="1.5" stroke-linejoin="round" stroke-linecap="round"/>
<line x1="16" y1="156" x2="864" y2="156" stroke="#2A3A4A" stroke-width="0.3" />
<rect x="0" y="156" width="880" height="32" fill="#FFFFFF" opacity="0.02"/>
<text x="16" y="176" text-anchor="start" font-family="Courier New, Courier, monospace" font-size="10" fill="#FFA020" font-weight="bold">QQQ</text>
<text x="72" y="176" text-anchor="start" font-family="Courier New, Courier, monospace" font-size="10" fill="#E8A000" >NASDAQ 100</text>
<text x="340" y="176" text-anchor="end" font-family="Courier New, Courier, monospace" font-size="11" fill="#D8E8F0" font-weight="bold">717.12</text>
<text x="420" y="176" text-anchor="end" font-family="Courier New, Courier, monospace" font-size="11" fill="#00C878" >+3.97%</text>
<text x="500" y="176" text-anchor="end" font-family="Courier New, Courier, monospace" font-size="11" fill="#00C878" >+17.11%</text>
<polyline points="516.0,178.5 521.5,178.9 527.0,178.2 532.6,177.8 538.1,178.8 543.6,179.0 549.1,180.3 554.7,179.5 560.2,180.0 565.7,179.5 571.2,181.2 576.8,182.5 582.3,183.0 587.8,180.8 593.3,180.0 598.9,179.9 604.4,179.5 609.9,179.5 615.4,177.4 621.0,176.9 626.5,176.8 632.0,176.1 637.5,174.8 643.0,173.7 648.6,173.4 654.1,172.4 659.6,172.6 665.1,172.9 670.7,171.7 676.2,172.1 681.7,170.6 687.2,170.6 692.8,171.4 698.3,170.9 703.8,170.2 709.3,169.4 714.9,169.6 720.4,168.6 725.9,166.9 731.4,167.0 737.0,165.1 742.5,164.8 748.0,165.6 753.5,164.7 759.0,164.1 764.6,165.4 770.1,165.7 775.6,166.2 781.1,164.9 786.7,164.7 792.2,164.4 797.7,162.9 803.2,163.0 808.8,162.2 814.3,161.9 819.8,161.4 825.3,161.0 830.9,161.2 836.4,161.6 841.9,165.8 847.4,164.5 853.0,165.5 858.5,167.1 864.0,164.4" fill="none" stroke="#00C878" stroke-width="1.5" stroke-linejoin="round" stroke-linecap="round"/>
<line x1="16" y1="188" x2="864" y2="188" stroke="#2A3A4A" stroke-width="0.3" />
<text x="16" y="208" text-anchor="start" font-family="Courier New, Courier, monospace" font-size="10" fill="#FFA020" font-weight="bold">QMOM</text>
<text x="72" y="208" text-anchor="start" font-family="Courier New, Courier, monospace" font-size="10" fill="#E8A000" >QUANT MOMENTUM</text>
<text x="340" y="208" text-anchor="end" font-family="Courier New, Courier, monospace" font-size="11" fill="#D8E8F0" font-weight="bold">78.10</text>
<text x="420" y="208" text-anchor="end" font-family="Courier New, Courier, monospace" font-size="11" fill="#00C878" >+4.99%</text>
<text x="500" y="208" text-anchor="end" font-family="Courier New, Courier, monospace" font-size="11" fill="#00C878" >+17.47%</text>
<polyline points="516.0,210.3 521.5,211.8 527.0,209.7 532.6,209.0 538.1,210.0 543.6,209.7 549.1,212.8 554.7,210.7 560.2,209.5 565.7,208.2 571.2,211.7 576.8,212.3 582.3,215.0 587.8,210.1 593.3,208.3 598.9,208.5 604.4,208.3 609.9,208.1 615.4,203.8 621.0,203.2 626.5,203.1 632.0,202.2 637.5,201.4 643.0,202.1 648.6,201.9 654.1,199.9 659.6,199.8 665.1,201.0 670.7,200.1 676.2,199.7 681.7,199.7 687.2,200.0 692.8,202.3 698.3,203.3 703.8,199.3 709.3,199.6 714.9,199.4 720.4,198.1 725.9,194.7 731.4,198.5 737.0,196.9 742.5,195.3 748.0,196.2 753.5,195.3 759.0,195.1 764.6,198.6 770.1,200.2 775.6,201.4 781.1,199.3 786.7,198.7 792.2,198.4 797.7,195.4 803.2,196.1 808.8,195.2 814.3,194.6 819.8,194.8 825.3,193.0 830.9,193.4 836.4,193.7 841.9,199.2 847.4,198.5 853.0,199.7 858.5,202.0 864.0,197.6" fill="none" stroke="#00C878" stroke-width="1.5" stroke-linejoin="round" stroke-linecap="round"/>
<line x1="16" y1="220" x2="864" y2="220" stroke="#2A3A4A" stroke-width="0.3" />
<rect x="0" y="220" width="880" height="32" fill="#FFFFFF" opacity="0.02"/>
<text x="16" y="240" text-anchor="start" font-family="Courier New, Courier, monospace" font-size="10" fill="#FFA020" font-weight="bold">MTUM</text>
<text x="72" y="240" text-anchor="start" font-family="Courier New, Courier, monospace" font-size="10" fill="#E8A000" >MOMENTUM FACTOR</text>
<text x="340" y="240" text-anchor="end" font-family="Courier New, Courier, monospace" font-size="11" fill="#D8E8F0" font-weight="bold">319.01</text>
<text x="420" y="240" text-anchor="end" font-family="Courier New, Courier, monospace" font-size="11" fill="#00C878" >+5.98%</text>
<text x="500" y="240" text-anchor="end" font-family="Courier New, Courier, monospace" font-size="11" fill="#00C878" >+26.34%</text>
<polyline points="516.0,244.1 521.5,244.2 527.0,243.5 532.6,243.1 538.1,243.6 543.6,243.4 549.1,244.6 554.7,243.9 560.2,243.7 565.7,243.3 571.2,245.3 576.8,245.9 582.3,247.0 587.8,244.9 593.3,243.8 598.9,243.6 604.4,243.2 609.9,242.9 615.4,240.6 621.0,239.9 626.5,239.7 632.0,239.1 637.5,238.2 643.0,238.3 648.6,238.1 654.1,237.3 659.6,237.5 665.1,237.9 670.7,236.9 676.2,236.9 681.7,235.8 687.2,235.9 692.8,236.9 698.3,236.5 703.8,235.1 709.3,234.9 714.9,235.1 720.4,233.6 725.9,231.8 731.4,232.9 737.0,231.2 742.5,230.1 748.0,230.9 753.5,230.4 759.0,230.0 764.6,232.0 770.1,232.8 775.6,233.2 781.1,231.7 786.7,231.1 792.2,230.8 797.7,228.4 803.2,228.6 808.8,228.3 814.3,228.1 819.8,227.8 825.3,225.8 830.9,225.0 836.4,225.8 841.9,230.1 847.4,228.2 853.0,229.0 858.5,230.5 864.0,227.3" fill="none" stroke="#00C878" stroke-width="1.5" stroke-linejoin="round" stroke-linecap="round"/>
<line x1="16" y1="252" x2="864" y2="252" stroke="#2A3A4A" stroke-width="0.3" />
<text x="16" y="272" text-anchor="start" font-family="Courier New, Courier, monospace" font-size="10" fill="#FFA020" font-weight="bold">QUAL</text>
<text x="72" y="272" text-anchor="start" font-family="Courier New, Courier, monospace" font-size="10" fill="#E8A000" >QUALITY FACTOR</text>
<text x="340" y="272" text-anchor="end" font-family="Courier New, Courier, monospace" font-size="11" fill="#D8E8F0" font-weight="bold">215.90</text>
<text x="420" y="272" text-anchor="end" font-family="Courier New, Courier, monospace" font-size="11" fill="#00C878" >+1.86%</text>
<text x="500" y="272" text-anchor="end" font-family="Courier New, Courier, monospace" font-size="11" fill="#00C878" >+8.62%</text>
<polyline points="516.0,272.4 521.5,273.1 527.0,271.8 532.6,271.6 538.1,273.6 543.6,273.5 549.1,275.1 554.7,273.7 560.2,274.1 565.7,273.6 571.2,276.4 576.8,278.4 582.3,279.0 587.8,275.2 593.3,274.5 598.9,274.2 604.4,273.6 609.9,274.1 615.4,270.1 621.0,269.2 626.5,269.7 632.0,268.5 637.5,267.0 643.0,266.2 648.6,266.3 654.1,264.4 659.6,264.7 665.1,265.5 670.7,264.2 676.2,265.2 681.7,264.1 687.2,264.2 692.8,265.1 698.3,265.3 703.8,264.2 709.3,264.3 714.9,265.0 720.4,264.0 725.9,262.2 731.4,262.6 737.0,261.9 742.5,261.8 748.0,262.0 753.5,261.5 759.0,260.5 764.6,261.9 770.1,261.6 775.6,262.5 781.1,260.6 786.7,260.3 792.2,259.1 797.7,258.1 803.2,258.5 808.8,258.0 814.3,258.3 819.8,258.0 825.3,258.1 830.9,258.2 836.4,257.0 841.9,260.0 847.4,259.5 853.0,259.3 858.5,260.6 864.0,258.0" fill="none" stroke="#00C878" stroke-width="1.5" stroke-linejoin="round" stroke-linecap="round"/>
<line x1="16" y1="284" x2="864" y2="284" stroke="#2A3A4A" stroke-width="0.3" />
<line x1="0" y1="284" x2="880" y2="284" stroke="#E8A000" stroke-width="0.4" />
<text x="16" y="297" text-anchor="start" font-family="Courier New, Courier, monospace" font-size="8" fill="#506070" >SRC: YAHOO FINANCE  ·  AUTO-UPDATE 22:00 UTC WEEKDAYS  ·  GITHUB.COM/YANKRUZISKI</text>
<text x="864" y="297" text-anchor="end" font-family="Courier New, Courier, monospace" font-size="8" fill="#506070" >2026-06-11</text>
</svg>