<svg xmlns="http://www.w3.org/2000/svg" width="880" height="302" viewBox="0 0 880 302">
<rect width="880" height="302" fill="#040810"/>
<rect x="0.5" y="0.5" width="879" height="301" fill="none" stroke="#E8A000" stroke-width="0.7" opacity="0.5"/>
<rect x="0" y="0" width="880" height="18" fill="#D87000"/>
<text x="16" y="14" text-anchor="start" font-family="Courier New, Courier, monospace" font-size="9" fill="#030608" font-weight="bold">BLOOMBERG</text>
<text x="88" y="14" text-anchor="start" font-family="Courier New, Courier, monospace" font-size="9" fill="#030608" >QUANT MARKET MONITOR</text>
<text x="440" y="14" text-anchor="middle" font-family="Courier New, Courier, monospace" font-size="9" fill="#030608" >EQUITY  &amp;  VOLATILITY  DASHBOARD</text>
<text x="864" y="14" text-anchor="end" font-family="Courier New, Courier, monospace" font-size="9" fill="#030608" >2026-06-09  22:34 UTC</text>
<line x1="0" y1="38" x2="880" y2="38" stroke="#E8A000" stroke-width="0.8" />
<text x="16" y="33" text-anchor="start" font-family="Courier New, Courier, monospace" font-size="9" fill="#506070" >YAN KRUZISKI  ·  VP OF INTELI RESEARCH  ·  SÃO PAULO, BR</text>
<text x="864" y="33" text-anchor="end" font-family="Courier New, Courier, monospace" font-size="9" fill="#506070" >PAGE 1/1</text>
<rect x="0" y="38" width="880" height="22" fill="#E8A000" opacity="0.14"/>
<text x="16" y="54" text-anchor="start" font-family="Courier New, Courier, monospace" font-size="9" fill="#FFA020" font-weight="bold">TICKER</text>
<text x="72" y="54" text-anchor="start" font-family="Courier New, Courier, monospace" font-size="9" fill="#FFA020" font-weight="bold">DESCRIPTION</text>
<text x="340" y="54" text-anchor="end" font-family="Courier New, Courier, monospace" font-size="9" fill="#FFA020" font-weight="bold">LAST</text>
<text x="420" y="54" text-anchor="end" font-family="Courier New, Courier, monospace" font-size="9" fill="#FFA020" font-weight="bold">%CHG</text>
<text x="500" y="54" text-anchor="end" font-family="Courier New, Courier, monospace" font-size="9" fill="#FFA020" font-weight="bold">YTD%</text>
<text x="690" y="54" text-anchor="middle" font-family="Courier New, Courier, monospace" font-size="9" fill="#FFA020" font-weight="bold">3-MONTH</text>
<line x1="0" y1="60" x2="880" y2="60" stroke="#E8A000" stroke-width="0.9" />
<rect x="0" y="60" width="880" height="32" fill="#E8A000" opacity="0.09"/>
<text x="16" y="80" text-anchor="start" font-family="Courier New, Courier, monospace" font-size="10" fill="#FFA020" font-weight="bold">^VIX</text>
<text x="72" y="80" text-anchor="start" font-family="Courier New, Courier, monospace" font-size="10" fill="#E8A000" font-weight="bold">CBOE VOLATILITY INDEX</text>
<text x="340" y="80" text-anchor="end" font-family="Courier New, Courier, monospace" font-size="11" fill="#D8E8F0" font-weight="bold">19.87</text>
<text x="420" y="80" text-anchor="end" font-family="Courier New, Courier, monospace" font-size="11" fill="#FF3C3C" font-weight="bold">+5.02%</text>
<text x="500" y="80" text-anchor="end" font-family="Courier New, Courier, monospace" font-size="10" fill="#FF3C3C" font-weight="bold">NORMAL</text>
<polyline points="516.0,72.8 521.4,73.6 526.7,74.5 532.1,70.3 537.4,70.4 542.8,75.5 548.1,77.1 553.5,73.3 558.8,74.8 564.2,71.0 569.5,71.9 574.9,70.7 580.2,73.0 585.6,70.0 591.0,65.0 596.3,65.6 601.7,73.1 607.0,74.1 612.4,75.0 617.7,74.6 623.1,72.4 628.4,79.0 633.8,81.2 639.1,81.5 644.5,81.7 649.8,82.7 655.2,83.0 660.6,83.3 665.9,84.0 671.3,82.0 676.6,81.2 682.0,82.0 687.3,81.4 692.7,82.3 698.0,83.2 703.4,83.5 708.7,82.1 714.1,84.8 719.4,84.7 724.8,82.8 730.2,84.1 735.5,84.1 740.9,84.5 746.2,84.4 751.6,82.7 756.9,83.3 762.3,83.4 767.6,84.3 773.0,82.7 778.3,83.5 783.7,83.2 789.0,84.0 794.4,85.0 799.8,85.1 805.1,85.2 810.5,84.6 815.8,85.6 821.2,86.4 826.5,87.0 831.9,86.0 837.2,86.4 842.6,86.0 847.9,86.9 853.3,78.3 858.6,82.0 864.0,80.6" fill="none" stroke="#FF3C3C" stroke-width="1.5" stroke-linejoin="round" stroke-linecap="round"/>
<line x1="0" y1="92" x2="880" y2="92" stroke="#E8A000" stroke-width="0.5" />
<rect x="0" y="92" width="880" height="32" fill="#FFFFFF" opacity="0.02"/>
<text x="16" y="112" text-anchor="start" font-family="Courier New, Courier, monospace" font-size="10" fill="#FFA020" font-weight="bold">IBOV</text>
<text x="72" y="112" text-anchor="start" font-family="Courier New, Courier, monospace" font-size="10" fill="#E8A000" >IBOVESPA</text>
<text x="340" y="112" text-anchor="end" font-family="Courier New, Courier, monospace" font-size="11" fill="#D8E8F0" font-weight="bold">169,813</text>
<text x="420" y="112" text-anchor="end" font-family="Courier New, Courier, monospace" font-size="11" fill="#00C878" >+0.68%</text>
<text x="500" y="112" text-anchor="end" font-family="Courier New, Courier, monospace" font-size="11" fill="#00C878" >+5.78%</text>
<polyline points="516.0,110.0 521.6,108.2 527.2,107.8 532.8,111.2 538.5,112.4 544.1,110.8 549.7,110.4 555.3,111.0 560.9,110.5 566.5,113.5 572.1,109.3 577.7,108.8 583.4,106.7 589.0,108.7 594.6,109.5 600.2,108.8 605.8,105.2 611.4,104.9 617.0,104.8 622.6,104.7 628.3,104.6 633.9,101.7 639.5,99.6 645.1,98.0 650.7,97.5 656.3,97.0 661.9,97.7 667.5,98.3 673.2,99.1 678.8,98.9 684.4,101.2 690.0,102.3 695.6,102.8 701.2,103.7 706.8,104.4 712.5,107.2 718.1,105.3 723.7,106.6 729.3,105.7 734.9,105.0 740.5,108.3 746.1,107.7 751.7,109.3 757.4,110.4 763.0,112.8 768.6,111.9 774.2,112.7 779.8,112.9 785.4,114.9 791.0,112.6 796.6,112.4 802.3,113.5 807.9,112.6 813.5,113.2 819.1,113.8 824.7,114.3 830.3,115.2 835.9,116.4 841.5,114.9 847.2,117.8 852.8,118.7 858.4,119.0 864.0,118.2" fill="none" stroke="#00C878" stroke-width="1.5" stroke-linejoin="round" stroke-linecap="round"/>
<line x1="16" y1="124" x2="864" y2="124" stroke="#2A3A4A" stroke-width="0.3" />
<text x="16" y="144" text-anchor="start" font-family="Courier New, Courier, monospace" font-size="10" fill="#FFA020" font-weight="bold">SPY</text>
<text x="72" y="144" text-anchor="start" font-family="Courier New, Courier, monospace" font-size="10" fill="#E8A000" >S&amp;P 500</text>
<text x="340" y="144" text-anchor="end" font-family="Courier New, Courier, monospace" font-size="11" fill="#D8E8F0" font-weight="bold">737.05</text>
<text x="420" y="144" text-anchor="end" font-family="Courier New, Courier, monospace" font-size="11" fill="#FF3C3C" >-0.23%</text>
<text x="500" y="144" text-anchor="end" font-family="Courier New, Courier, monospace" font-size="11" fill="#00C878" >+8.18%</text>
<polyline points="516.0,143.5 521.5,143.7 527.0,145.4 532.6,146.1 538.1,144.9 543.6,144.6 549.1,146.2 554.7,146.5 560.2,148.1 565.7,147.0 571.2,147.3 576.8,146.7 582.3,148.7 587.8,150.6 593.3,151.0 598.9,147.8 604.4,147.0 609.9,146.9 615.4,146.4 621.0,146.3 626.5,143.4 632.0,142.7 637.5,142.8 643.0,141.7 648.6,140.2 654.1,139.3 659.6,139.0 665.1,137.5 670.7,137.8 676.2,138.6 681.7,137.3 687.2,137.8 692.8,136.9 698.3,136.7 703.8,137.3 709.3,137.3 714.9,136.1 720.4,135.7 725.9,136.2 731.4,135.2 737.0,133.4 742.5,133.8 748.0,132.8 753.5,132.5 759.0,132.7 764.6,132.0 770.1,131.0 775.6,132.5 781.1,132.6 786.7,133.5 792.2,132.2 797.7,131.9 803.2,131.4 808.8,130.5 814.3,130.6 819.8,129.9 825.3,129.5 830.9,129.2 836.4,129.0 841.9,129.9 847.4,129.4 853.0,132.8 858.5,132.5 864.0,132.9" fill="none" stroke="#FF3C3C" stroke-width="1.5" stroke-linejoin="round" stroke-linecap="round"/>
<line x1="16" y1="156" x2="864" y2="156" stroke="#2A3A4A" stroke-width="0.3" />
<rect x="0" y="156" width="880" height="32" fill="#FFFFFF" opacity="0.02"/>
<text x="16" y="176" text-anchor="start" font-family="Courier New, Courier, monospace" font-size="10" fill="#FFA020" font-weight="bold">QQQ</text>
<text x="72" y="176" text-anchor="start" font-family="Courier New, Courier, monospace" font-size="10" fill="#E8A000" >NASDAQ 100</text>
<text x="340" y="176" text-anchor="end" font-family="Courier New, Courier, monospace" font-size="11" fill="#D8E8F0" font-weight="bold">707.83</text>
<text x="420" y="176" text-anchor="end" font-family="Courier New, Courier, monospace" font-size="11" fill="#FF3C3C" >-1.06%</text>
<text x="500" y="176" text-anchor="end" font-family="Courier New, Courier, monospace" font-size="11" fill="#00C878" >+15.59%</text>
<polyline points="516.0,177.3 521.5,177.3 527.0,178.5 532.6,178.9 538.1,178.2 543.6,177.8 549.1,178.8 554.7,179.0 560.2,180.3 565.7,179.5 571.2,180.0 576.8,179.5 582.3,181.2 587.8,182.5 593.3,183.0 598.9,180.8 604.4,180.0 609.9,179.9 615.4,179.5 621.0,179.5 626.5,177.4 632.0,176.9 637.5,176.8 643.0,176.1 648.6,174.8 654.1,173.7 659.6,173.4 665.1,172.4 670.7,172.6 676.2,172.9 681.7,171.7 687.2,172.1 692.8,170.6 698.3,170.6 703.8,171.4 709.3,170.9 714.9,170.2 720.4,169.4 725.9,169.6 731.4,168.6 737.0,166.9 742.5,167.0 748.0,165.1 753.5,164.8 759.0,165.6 764.6,164.7 770.1,164.1 775.6,165.4 781.1,165.7 786.7,166.2 792.2,164.9 797.7,164.7 803.2,164.4 808.8,162.9 814.3,163.0 819.8,162.2 825.3,161.9 830.9,161.4 836.4,161.0 841.9,161.2 847.4,161.6 853.0,165.8 858.5,164.5 864.0,165.5" fill="none" stroke="#FF3C3C" stroke-width="1.5" stroke-linejoin="round" stroke-linecap="round"/>
<line x1="16" y1="188" x2="864" y2="188" stroke="#2A3A4A" stroke-width="0.3" />
<text x="16" y="208" text-anchor="start" font-family="Courier New, Courier, monospace" font-size="10" fill="#FFA020" font-weight="bold">QMOM</text>
<text x="72" y="208" text-anchor="start" font-family="Courier New, Courier, monospace" font-size="10" fill="#E8A000" >QUANT MOMENTUM</text>
<text x="340" y="208" text-anchor="end" font-family="Courier New, Courier, monospace" font-size="11" fill="#D8E8F0" font-weight="bold">76.46</text>
<text x="420" y="208" text-anchor="end" font-family="Courier New, Courier, monospace" font-size="11" fill="#FF3C3C" >-2.02%</text>
<text x="500" y="208" text-anchor="end" font-family="Courier New, Courier, monospace" font-size="11" fill="#00C878" >+15.00%</text>
<polyline points="516.0,207.5 521.5,208.2 527.0,210.3 532.6,211.8 538.1,209.7 543.6,209.0 549.1,210.0 554.7,209.7 560.2,212.8 565.7,210.7 571.2,209.5 576.8,208.2 582.3,211.7 587.8,212.3 593.3,215.0 598.9,210.1 604.4,208.3 609.9,208.5 615.4,208.3 621.0,208.1 626.5,203.8 632.0,203.2 637.5,203.1 643.0,202.2 648.6,201.4 654.1,202.1 659.6,201.9 665.1,199.9 670.7,199.8 676.2,201.0 681.7,200.1 687.2,199.7 692.8,199.7 698.3,200.0 703.8,202.3 709.3,203.3 714.9,199.3 720.4,199.6 725.9,199.4 731.4,198.1 737.0,194.7 742.5,198.5 748.0,196.9 753.5,195.3 759.0,196.2 764.6,195.3 770.1,195.1 775.6,198.6 781.1,200.2 786.7,201.4 792.2,199.3 797.7,198.7 803.2,198.4 808.8,195.4 814.3,196.1 819.8,195.2 825.3,194.6 830.9,194.8 836.4,193.0 841.9,193.4 847.4,193.7 853.0,199.2 858.5,198.5 864.0,199.7" fill="none" stroke="#FF3C3C" stroke-width="1.5" stroke-linejoin="round" stroke-linecap="round"/>
<line x1="16" y1="220" x2="864" y2="220" stroke="#2A3A4A" stroke-width="0.3" />
<rect x="0" y="220" width="880" height="32" fill="#FFFFFF" opacity="0.02"/>
<text x="16" y="240" text-anchor="start" font-family="Courier New, Courier, monospace" font-size="10" fill="#FFA020" font-weight="bold">MTUM</text>
<text x="72" y="240" text-anchor="start" font-family="Courier New, Courier, monospace" font-size="10" fill="#E8A000" >MOMENTUM FACTOR</text>
<text x="340" y="240" text-anchor="end" font-family="Courier New, Courier, monospace" font-size="11" fill="#D8E8F0" font-weight="bold">311.63</text>
<text x="420" y="240" text-anchor="end" font-family="Courier New, Courier, monospace" font-size="11" fill="#FF3C3C" >-1.07%</text>
<text x="500" y="240" text-anchor="end" font-family="Courier New, Courier, monospace" font-size="11" fill="#00C878" >+23.42%</text>
<polyline points="516.0,243.1 521.5,243.0 527.0,244.1 532.6,244.2 538.1,243.5 543.6,243.1 549.1,243.6 554.7,243.4 560.2,244.6 565.7,243.9 571.2,243.7 576.8,243.3 582.3,245.3 587.8,245.9 593.3,247.0 598.9,244.9 604.4,243.8 609.9,243.6 615.4,243.2 621.0,242.9 626.5,240.6 632.0,239.9 637.5,239.7 643.0,239.1 648.6,238.2 654.1,238.3 659.6,238.1 665.1,237.3 670.7,237.5 676.2,237.9 681.7,236.9 687.2,236.9 692.8,235.8 698.3,235.9 703.8,236.9 709.3,236.5 714.9,235.1 720.4,234.9 725.9,235.1 731.4,233.6 737.0,231.8 742.5,232.9 748.0,231.2 753.5,230.1 759.0,230.9 764.6,230.4 770.1,230.0 775.6,232.0 781.1,232.8 786.7,233.2 792.2,231.7 797.7,231.1 803.2,230.8 808.8,228.4 814.3,228.6 819.8,228.3 825.3,228.1 830.9,227.8 836.4,225.8 841.9,225.0 847.4,225.8 853.0,230.1 858.5,228.2 864.0,229.0" fill="none" stroke="#FF3C3C" stroke-width="1.5" stroke-linejoin="round" stroke-linecap="round"/>
<line x1="16" y1="252" x2="864" y2="252" stroke="#2A3A4A" stroke-width="0.3" />
<text x="16" y="272" text-anchor="start" font-family="Courier New, Courier, monospace" font-size="10" fill="#FFA020" font-weight="bold">QUAL</text>
<text x="72" y="272" text-anchor="start" font-family="Courier New, Courier, monospace" font-size="10" fill="#E8A000" >QUALITY FACTOR</text>
<text x="340" y="272" text-anchor="end" font-family="Courier New, Courier, monospace" font-size="11" fill="#D8E8F0" font-weight="bold">214.12</text>
<text x="420" y="272" text-anchor="end" font-family="Courier New, Courier, monospace" font-size="11" fill="#00C878" >+0.51%</text>
<text x="500" y="272" text-anchor="end" font-family="Courier New, Courier, monospace" font-size="11" fill="#00C878" >+7.73%</text>
<polyline points="516.0,269.5 521.5,270.0 527.0,272.4 532.6,273.1 538.1,271.8 543.6,271.6 549.1,273.6 554.7,273.5 560.2,275.1 565.7,273.7 571.2,274.1 576.8,273.6 582.3,276.4 587.8,278.4 593.3,279.0 598.9,275.2 604.4,274.5 609.9,274.2 615.4,273.6 621.0,274.1 626.5,270.1 632.0,269.2 637.5,269.7 643.0,268.5 648.6,267.0 654.1,266.2 659.6,266.3 665.1,264.4 670.7,264.7 676.2,265.5 681.7,264.2 687.2,265.2 692.8,264.1 698.3,264.2 703.8,265.1 709.3,265.3 714.9,264.2 720.4,264.3 725.9,265.0 731.4,264.0 737.0,262.2 742.5,262.6 748.0,261.9 753.5,261.8 759.0,262.0 764.6,261.5 770.1,260.5 775.6,261.9 781.1,261.6 786.7,262.5 792.2,260.6 797.7,260.3 803.2,259.1 808.8,258.1 814.3,258.5 819.8,258.0 825.3,258.3 830.9,258.0 836.4,258.1 841.9,258.2 847.4,257.0 853.0,260.0 858.5,259.5 864.0,259.3" fill="none" stroke="#00C878" stroke-width="1.5" stroke-linejoin="round" stroke-linecap="round"/>
<line x1="16" y1="284" x2="864" y2="284" stroke="#2A3A4A" stroke-width="0.3" />
<line x1="0" y1="284" x2="880" y2="284" stroke="#E8A000" stroke-width="0.4" />
<text x="16" y="297" text-anchor="start" font-family="Courier New, Courier, monospace" font-size="8" fill="#506070" >SRC: YAHOO FINANCE  ·  AUTO-UPDATE 22:00 UTC WEEKDAYS  ·  GITHUB.COM/YANKRUZISKI</text>
<text x="864" y="297" text-anchor="end" font-family="Courier New, Courier, monospace" font-size="8" fill="#506070" >2026-06-09</text>
</svg>