<svg xmlns="http://www.w3.org/2000/svg" width="880" height="302" viewBox="0 0 880 302">
<rect width="880" height="302" fill="#040810"/>
<rect x="0.5" y="0.5" width="879" height="301" fill="none" stroke="#E8A000" stroke-width="0.7" opacity="0.5"/>
<rect x="0" y="0" width="880" height="18" fill="#D87000"/>
<text x="16" y="14" text-anchor="start" font-family="Courier New, Courier, monospace" font-size="9" fill="#030608" font-weight="bold">BLOOMBERG</text>
<text x="88" y="14" text-anchor="start" font-family="Courier New, Courier, monospace" font-size="9" fill="#030608" >QUANT MARKET MONITOR</text>
<text x="440" y="14" text-anchor="middle" font-family="Courier New, Courier, monospace" font-size="9" fill="#030608" >EQUITY  &amp;  VOLATILITY  DASHBOARD</text>
<text x="864" y="14" text-anchor="end" font-family="Courier New, Courier, monospace" font-size="9" fill="#030608" >2026-05-14  22:27 UTC</text>
<line x1="0" y1="38" x2="880" y2="38" stroke="#E8A000" stroke-width="0.8" />
<text x="16" y="33" text-anchor="start" font-family="Courier New, Courier, monospace" font-size="9" fill="#506070" >YAN KRUZISKI  ·  VP OF INTELI RESEARCH  ·  SÃO PAULO, BR</text>
<text x="864" y="33" text-anchor="end" font-family="Courier New, Courier, monospace" font-size="9" fill="#506070" >PAGE 1/1</text>
<rect x="0" y="38" width="880" height="22" fill="#E8A000" opacity="0.14"/>
<text x="16" y="54" text-anchor="start" font-family="Courier New, Courier, monospace" font-size="9" fill="#FFA020" font-weight="bold">TICKER</text>
<text x="72" y="54" text-anchor="start" font-family="Courier New, Courier, monospace" font-size="9" fill="#FFA020" font-weight="bold">DESCRIPTION</text>
<text x="340" y="54" text-anchor="end" font-family="Courier New, Courier, monospace" font-size="9" fill="#FFA020" font-weight="bold">LAST</text>
<text x="420" y="54" text-anchor="end" font-family="Courier New, Courier, monospace" font-size="9" fill="#FFA020" font-weight="bold">%CHG</text>
<text x="500" y="54" text-anchor="end" font-family="Courier New, Courier, monospace" font-size="9" fill="#FFA020" font-weight="bold">YTD%</text>
<text x="690" y="54" text-anchor="middle" font-family="Courier New, Courier, monospace" font-size="9" fill="#FFA020" font-weight="bold">3-MONTH</text>
<line x1="0" y1="60" x2="880" y2="60" stroke="#E8A000" stroke-width="0.9" />
<rect x="0" y="60" width="880" height="32" fill="#E8A000" opacity="0.09"/>
<text x="16" y="80" text-anchor="start" font-family="Courier New, Courier, monospace" font-size="10" fill="#FFA020" font-weight="bold">^VIX</text>
<text x="72" y="80" text-anchor="start" font-family="Courier New, Courier, monospace" font-size="10" fill="#E8A000" font-weight="bold">CBOE VOLATILITY INDEX</text>
<text x="340" y="80" text-anchor="end" font-family="Courier New, Courier, monospace" font-size="11" fill="#D8E8F0" font-weight="bold">17.26</text>
<text x="420" y="80" text-anchor="end" font-family="Courier New, Courier, monospace" font-size="11" fill="#00C878" font-weight="bold">-3.41%</text>
<text x="500" y="80" text-anchor="end" font-family="Courier New, Courier, monospace" font-size="10" fill="#00C878" font-weight="bold">NORMAL</text>
<polyline points="516.0,81.7 521.7,82.8 527.4,81.8 533.1,83.6 538.8,80.6 544.5,82.9 550.2,85.4 555.9,84.3 561.6,82.4 567.3,79.9 573.0,76.6 578.8,80.4 584.5,76.3 590.2,67.4 595.9,73.6 601.6,74.5 607.3,75.6 613.0,70.8 618.7,71.0 624.4,76.7 630.1,78.5 635.8,74.3 641.5,75.9 647.2,71.6 652.9,72.6 658.6,71.4 664.3,73.9 670.0,70.6 675.7,65.0 681.4,65.7 687.1,74.0 692.9,75.1 698.6,76.2 704.3,75.7 710.0,73.2 715.7,80.6 721.4,83.0 727.1,83.4 732.8,83.5 738.5,84.7 744.2,85.0 749.9,85.4 755.6,86.1 761.3,83.9 767.0,82.9 772.7,83.8 778.4,83.2 784.1,84.2 789.8,85.2 795.5,85.5 801.2,84.0 807.0,87.0 812.7,86.8 818.4,84.8 824.1,86.2 829.8,86.2 835.5,86.7 841.2,86.5 846.9,84.7 852.6,85.3 858.3,85.5 864.0,86.4" fill="none" stroke="#00C878" stroke-width="1.5" stroke-linejoin="round" stroke-linecap="round"/>
<line x1="0" y1="92" x2="880" y2="92" stroke="#E8A000" stroke-width="0.5" />
<rect x="0" y="92" width="880" height="32" fill="#FFFFFF" opacity="0.02"/>
<text x="16" y="112" text-anchor="start" font-family="Courier New, Courier, monospace" font-size="10" fill="#FFA020" font-weight="bold">IBOV</text>
<text x="72" y="112" text-anchor="start" font-family="Courier New, Courier, monospace" font-size="10" fill="#E8A000" >IBOVESPA</text>
<text x="340" y="112" text-anchor="end" font-family="Courier New, Courier, monospace" font-size="11" fill="#D8E8F0" font-weight="bold">178,366</text>
<text x="420" y="112" text-anchor="end" font-family="Courier New, Courier, monospace" font-size="11" fill="#00C878" >+0.72%</text>
<text x="500" y="112" text-anchor="end" font-family="Courier New, Courier, monospace" font-size="11" fill="#00C878" >+11.10%</text>
<polyline points="516.0,109.4 522.0,106.9 528.0,105.0 534.0,106.6 540.0,104.0 546.0,104.3 552.0,104.5 558.0,106.7 564.0,106.2 570.0,112.2 576.0,110.0 582.0,114.8 588.0,115.9 594.0,114.4 600.0,111.9 606.0,111.4 612.0,116.0 618.0,117.6 624.0,115.4 630.0,114.9 636.0,115.6 642.0,115.0 648.0,119.0 654.0,113.4 660.0,112.8 666.0,110.0 672.0,112.6 678.0,113.8 684.0,112.8 690.0,108.0 696.0,107.5 702.0,107.4 708.0,107.3 714.0,107.2 720.0,103.3 726.0,100.5 732.0,98.3 738.0,97.6 744.0,97.0 750.0,97.9 756.0,98.8 762.0,99.9 768.0,99.5 774.0,102.7 780.0,104.1 786.0,104.8 792.0,105.9 798.0,106.8 804.0,110.6 810.0,108.1 816.0,109.8 822.0,108.7 828.0,107.8 834.0,112.1 840.0,111.3 846.0,113.4 852.0,115.0 858.0,118.1 864.0,116.9" fill="none" stroke="#00C878" stroke-width="1.5" stroke-linejoin="round" stroke-linecap="round"/>
<line x1="16" y1="124" x2="864" y2="124" stroke="#2A3A4A" stroke-width="0.3" />
<text x="16" y="144" text-anchor="start" font-family="Courier New, Courier, monospace" font-size="10" fill="#FFA020" font-weight="bold">SPY</text>
<text x="72" y="144" text-anchor="start" font-family="Courier New, Courier, monospace" font-size="10" fill="#E8A000" >S&P 500</text>
<text x="340" y="144" text-anchor="end" font-family="Courier New, Courier, monospace" font-size="11" fill="#D8E8F0" font-weight="bold">748.17</text>
<text x="420" y="144" text-anchor="end" font-family="Courier New, Courier, monospace" font-size="11" fill="#00C878" >+0.62%</text>
<text x="500" y="144" text-anchor="end" font-family="Courier New, Courier, monospace" font-size="11" fill="#00C878" >+9.81%</text>
<polyline points="516.0,141.7 521.7,141.1 527.4,141.4 533.1,140.5 538.8,141.8 544.5,140.9 550.2,139.8 555.9,140.5 561.6,141.1 567.3,141.1 573.0,142.2 578.8,141.3 584.5,142.0 590.2,143.7 595.9,142.6 601.6,142.8 607.3,143.0 613.0,144.9 618.7,145.6 624.4,144.3 630.1,144.0 635.8,145.8 641.5,146.1 647.2,147.9 652.9,146.6 658.6,147.0 664.3,146.3 670.0,148.5 675.7,150.6 681.4,151.0 687.1,147.5 692.9,146.6 698.6,146.5 704.3,145.9 710.0,145.8 715.7,142.7 721.4,141.9 727.1,142.0 732.8,140.8 738.5,139.2 744.2,138.1 749.9,137.8 755.6,136.2 761.3,136.5 767.0,137.3 772.7,136.0 778.4,136.5 784.1,135.5 789.8,135.2 795.5,135.9 801.2,135.9 807.0,134.6 812.7,134.2 818.4,134.7 824.1,133.6 829.8,131.7 835.5,132.1 841.2,131.0 846.9,130.7 852.6,130.9 858.3,130.1 864.0,129.0" fill="none" stroke="#00C878" stroke-width="1.5" stroke-linejoin="round" stroke-linecap="round"/>
<line x1="16" y1="156" x2="864" y2="156" stroke="#2A3A4A" stroke-width="0.3" />
<rect x="0" y="156" width="880" height="32" fill="#FFFFFF" opacity="0.02"/>
<text x="16" y="176" text-anchor="start" font-family="Courier New, Courier, monospace" font-size="10" fill="#FFA020" font-weight="bold">QQQ</text>
<text x="72" y="176" text-anchor="start" font-family="Courier New, Courier, monospace" font-size="10" fill="#E8A000" >NASDAQ 100</text>
<text x="340" y="176" text-anchor="end" font-family="Courier New, Courier, monospace" font-size="11" fill="#D8E8F0" font-weight="bold">719.79</text>
<text x="420" y="176" text-anchor="end" font-family="Courier New, Courier, monospace" font-size="11" fill="#00C878" >+0.21%</text>
<text x="500" y="176" text-anchor="end" font-family="Courier New, Courier, monospace" font-size="11" fill="#00C878" >+17.55%</text>
<polyline points="516.0,177.2 521.7,176.6 527.4,176.9 533.1,176.2 538.8,177.2 544.5,176.3 550.2,175.2 555.9,176.2 561.6,176.4 567.3,176.3 573.0,177.2 578.8,176.0 584.5,176.2 590.2,177.5 595.9,176.4 601.6,176.4 607.3,176.4 613.0,177.8 618.7,178.3 624.4,177.4 630.1,177.0 635.8,178.1 641.5,178.4 647.2,179.9 652.9,179.0 658.6,179.5 664.3,179.0 670.0,180.9 675.7,182.4 681.4,183.0 687.1,180.4 692.9,179.5 698.6,179.4 704.3,178.9 710.0,178.9 715.7,176.5 721.4,175.9 727.1,175.8 732.8,174.9 738.5,173.4 744.2,172.2 749.9,171.8 755.6,170.7 761.3,170.9 767.0,171.3 772.7,169.8 778.4,170.3 784.1,168.6 789.8,168.6 795.5,169.5 801.2,168.9 807.0,168.1 812.7,167.2 818.4,167.4 824.1,166.2 829.8,164.3 835.5,164.4 841.2,162.2 846.9,161.9 852.6,162.7 858.3,161.7 864.0,161.0" fill="none" stroke="#00C878" stroke-width="1.5" stroke-linejoin="round" stroke-linecap="round"/>
<line x1="16" y1="188" x2="864" y2="188" stroke="#2A3A4A" stroke-width="0.3" />
<text x="16" y="208" text-anchor="start" font-family="Courier New, Courier, monospace" font-size="10" fill="#FFA020" font-weight="bold">QMOM</text>
<text x="72" y="208" text-anchor="start" font-family="Courier New, Courier, monospace" font-size="10" fill="#E8A000" >QUANT MOMENTUM</text>
<text x="340" y="208" text-anchor="end" font-family="Courier New, Courier, monospace" font-size="11" fill="#D8E8F0" font-weight="bold">80.03</text>
<text x="420" y="208" text-anchor="end" font-family="Courier New, Courier, monospace" font-size="11" fill="#00C878" >+0.18%</text>
<text x="500" y="208" text-anchor="end" font-family="Courier New, Courier, monospace" font-size="11" fill="#00C878" >+20.37%</text>
<polyline points="516.0,206.1 521.7,205.3 527.4,204.6 533.1,203.8 538.8,205.0 544.5,203.2 550.2,202.8 555.9,202.3 561.6,203.0 567.3,202.0 573.0,206.0 578.8,205.2 584.5,208.1 590.2,210.3 595.9,207.6 601.6,206.9 607.3,207.7 613.0,209.9 618.7,211.6 624.4,209.3 630.1,208.5 635.8,209.6 641.5,209.3 647.2,212.6 652.9,210.4 658.6,209.0 664.3,207.6 670.0,211.4 675.7,212.0 681.4,215.0 687.1,209.7 692.9,207.7 698.6,208.0 704.3,207.7 710.0,207.5 715.7,202.9 721.4,202.3 727.1,202.1 732.8,201.1 738.5,200.2 744.2,201.1 749.9,200.8 755.6,198.6 761.3,198.5 767.0,199.9 772.7,198.9 778.4,198.5 784.1,198.4 789.8,198.8 795.5,201.3 801.2,202.3 807.0,198.0 812.7,198.3 818.4,198.1 824.1,196.6 829.8,193.0 835.5,197.1 841.2,195.3 846.9,193.6 852.6,194.6 858.3,193.7 864.0,193.5" fill="none" stroke="#00C878" stroke-width="1.5" stroke-linejoin="round" stroke-linecap="round"/>
<line x1="16" y1="220" x2="864" y2="220" stroke="#2A3A4A" stroke-width="0.3" />
<rect x="0" y="220" width="880" height="32" fill="#FFFFFF" opacity="0.02"/>
<text x="16" y="240" text-anchor="start" font-family="Courier New, Courier, monospace" font-size="10" fill="#FFA020" font-weight="bold">MTUM</text>
<text x="72" y="240" text-anchor="start" font-family="Courier New, Courier, monospace" font-size="10" fill="#E8A000" >MOMENTUM FACTOR</text>
<text x="340" y="240" text-anchor="end" font-family="Courier New, Courier, monospace" font-size="11" fill="#D8E8F0" font-weight="bold">307.25</text>
<text x="420" y="240" text-anchor="end" font-family="Courier New, Courier, monospace" font-size="11" fill="#00C878" >+0.25%</text>
<text x="500" y="240" text-anchor="end" font-family="Courier New, Courier, monospace" font-size="11" fill="#00C878" >+21.68%</text>
<polyline points="516.0,241.1 521.7,240.5 527.4,240.6 533.1,240.2 538.8,241.6 544.5,240.9 550.2,239.7 555.9,240.1 561.6,240.7 567.3,240.5 573.0,242.4 578.8,241.3 584.5,242.4 590.2,244.0 595.9,242.3 601.6,242.0 607.3,241.9 613.0,243.3 618.7,243.4 624.4,242.5 630.1,242.0 635.8,242.5 641.5,242.4 647.2,243.9 652.9,243.0 658.6,242.8 664.3,242.3 670.0,244.9 675.7,245.6 681.4,247.0 687.1,244.3 692.9,242.8 698.6,242.7 704.3,242.1 710.0,241.7 715.7,238.7 721.4,237.9 727.1,237.6 732.8,236.9 738.5,235.6 744.2,235.7 749.9,235.5 755.6,234.4 761.3,234.7 767.0,235.3 772.7,234.0 778.4,234.0 784.1,232.6 789.8,232.6 795.5,233.9 801.2,233.5 807.0,231.7 812.7,231.4 818.4,231.6 824.1,229.6 829.8,227.3 835.5,228.8 841.2,226.6 846.9,225.2 852.6,226.2 858.3,225.5 864.0,225.0" fill="none" stroke="#00C878" stroke-width="1.5" stroke-linejoin="round" stroke-linecap="round"/>
<line x1="16" y1="252" x2="864" y2="252" stroke="#2A3A4A" stroke-width="0.3" />
<text x="16" y="272" text-anchor="start" font-family="Courier New, Courier, monospace" font-size="10" fill="#FFA020" font-weight="bold">QUAL</text>
<text x="72" y="272" text-anchor="start" font-family="Courier New, Courier, monospace" font-size="10" fill="#E8A000" >QUALITY FACTOR</text>
<text x="340" y="272" text-anchor="end" font-family="Courier New, Courier, monospace" font-size="11" fill="#D8E8F0" font-weight="bold">212.37</text>
<text x="420" y="272" text-anchor="end" font-family="Courier New, Courier, monospace" font-size="11" fill="#00C878" >+0.82%</text>
<text x="500" y="272" text-anchor="end" font-family="Courier New, Courier, monospace" font-size="11" fill="#00C878" >+6.84%</text>
<polyline points="516.0,266.0 521.7,264.9 527.4,265.3 533.1,264.2 538.8,266.0 544.5,264.5 550.2,263.3 555.9,263.8 561.6,263.8 567.3,264.1 573.0,265.9 578.8,265.0 584.5,266.5 590.2,269.0 595.9,267.3 601.6,267.6 607.3,268.3 613.0,271.1 618.7,272.0 624.4,270.4 630.1,270.2 635.8,272.5 641.5,272.4 647.2,274.4 652.9,272.7 658.6,273.2 664.3,272.5 670.0,275.9 675.7,278.3 681.4,279.0 687.1,274.5 692.9,273.7 698.6,273.3 704.3,272.6 710.0,273.1 715.7,268.4 721.4,267.3 727.1,268.0 732.8,266.5 738.5,264.7 744.2,263.8 749.9,263.8 755.6,261.6 761.3,261.9 767.0,262.9 772.7,261.4 778.4,262.5 784.1,261.2 789.8,261.4 795.5,262.5 801.2,262.6 807.0,261.4 812.7,261.4 818.4,262.3 824.1,261.1 829.8,259.0 835.5,259.5 841.2,258.6 846.9,258.5 852.6,258.7 858.3,258.2 864.0,257.0" fill="none" stroke="#00C878" stroke-width="1.5" stroke-linejoin="round" stroke-linecap="round"/>
<line x1="16" y1="284" x2="864" y2="284" stroke="#2A3A4A" stroke-width="0.3" />
<line x1="0" y1="284" x2="880" y2="284" stroke="#E8A000" stroke-width="0.4" />
<text x="16" y="297" text-anchor="start" font-family="Courier New, Courier, monospace" font-size="8" fill="#506070" >SRC: YAHOO FINANCE  ·  AUTO-UPDATE 22:00 UTC WEEKDAYS  ·  GITHUB.COM/YANKRUZISKI</text>
<text x="864" y="297" text-anchor="end" font-family="Courier New, Courier, monospace" font-size="8" fill="#506070" >2026-05-14</text>
</svg>