<svg xmlns="http://www.w3.org/2000/svg" width="880" height="302" viewBox="0 0 880 302">
<rect width="880" height="302" fill="#040810"/>
<rect x="0.5" y="0.5" width="879" height="301" fill="none" stroke="#E8A000" stroke-width="0.7" opacity="0.5"/>
<rect x="0" y="0" width="880" height="18" fill="#D87000"/>
<text x="16" y="14" text-anchor="start" font-family="Courier New, Courier, monospace" font-size="9" fill="#030608" font-weight="bold">BLOOMBERG</text>
<text x="88" y="14" text-anchor="start" font-family="Courier New, Courier, monospace" font-size="9" fill="#030608" >QUANT MARKET MONITOR</text>
<text x="440" y="14" text-anchor="middle" font-family="Courier New, Courier, monospace" font-size="9" fill="#030608" >EQUITY  &amp;  VOLATILITY  DASHBOARD</text>
<text x="864" y="14" text-anchor="end" font-family="Courier New, Courier, monospace" font-size="9" fill="#030608" >2026-07-22  23:02 UTC</text>
<line x1="0" y1="38" x2="880" y2="38" stroke="#E8A000" stroke-width="0.8" />
<text x="16" y="33" text-anchor="start" font-family="Courier New, Courier, monospace" font-size="9" fill="#506070" >YAN KRUZISKI  ·  VP OF INTELI RESEARCH  ·  SÃO PAULO, BR</text>
<text x="864" y="33" text-anchor="end" font-family="Courier New, Courier, monospace" font-size="9" fill="#506070" >PAGE 1/1</text>
<rect x="0" y="38" width="880" height="22" fill="#E8A000" opacity="0.14"/>
<text x="16" y="54" text-anchor="start" font-family="Courier New, Courier, monospace" font-size="9" fill="#FFA020" font-weight="bold">TICKER</text>
<text x="72" y="54" text-anchor="start" font-family="Courier New, Courier, monospace" font-size="9" fill="#FFA020" font-weight="bold">DESCRIPTION</text>
<text x="340" y="54" text-anchor="end" font-family="Courier New, Courier, monospace" font-size="9" fill="#FFA020" font-weight="bold">LAST</text>
<text x="420" y="54" text-anchor="end" font-family="Courier New, Courier, monospace" font-size="9" fill="#FFA020" font-weight="bold">%CHG</text>
<text x="500" y="54" text-anchor="end" font-family="Courier New, Courier, monospace" font-size="9" fill="#FFA020" font-weight="bold">YTD%</text>
<text x="690" y="54" text-anchor="middle" font-family="Courier New, Courier, monospace" font-size="9" fill="#FFA020" font-weight="bold">3-MONTH</text>
<line x1="0" y1="60" x2="880" y2="60" stroke="#E8A000" stroke-width="0.9" />
<rect x="0" y="60" width="880" height="32" fill="#E8A000" opacity="0.09"/>
<text x="16" y="80" text-anchor="start" font-family="Courier New, Courier, monospace" font-size="10" fill="#FFA020" font-weight="bold">^VIX</text>
<text x="72" y="80" text-anchor="start" font-family="Courier New, Courier, monospace" font-size="10" fill="#E8A000" font-weight="bold">CBOE VOLATILITY INDEX</text>
<text x="340" y="80" text-anchor="end" font-family="Courier New, Courier, monospace" font-size="11" fill="#D8E8F0" font-weight="bold">16.64</text>
<text x="420" y="80" text-anchor="end" font-family="Courier New, Courier, monospace" font-size="11" fill="#00C878" font-weight="bold">-2.40%</text>
<text x="500" y="80" text-anchor="end" font-family="Courier New, Courier, monospace" font-size="10" fill="#00C878" font-weight="bold">NORMAL</text>
<polyline points="516.0,75.1 521.5,73.9 527.0,75.7 532.6,77.9 538.1,78.4 543.6,75.4 549.1,81.3 554.7,81.0 560.2,77.0 565.7,79.8 571.2,79.8 576.8,80.7 582.3,80.4 587.8,76.7 593.3,77.9 598.9,78.3 604.4,80.2 609.9,76.6 615.4,78.5 621.0,77.7 626.5,79.6 632.0,81.7 637.5,81.9 643.0,82.2 648.6,80.9 654.1,83.1 659.6,84.8 665.1,86.1 670.7,83.9 676.2,84.7 681.7,83.8 687.2,85.9 692.8,67.2 698.3,75.1 703.8,72.2 709.3,65.0 714.9,73.5 720.4,78.9 725.9,83.4 731.4,82.8 737.0,76.6 742.5,82.8 748.0,80.1 753.5,73.4 759.0,76.0 764.6,75.2 770.1,76.7 775.6,79.0 781.1,82.7 786.7,82.2 792.2,83.6 797.7,85.3 803.2,83.6 808.8,81.3 814.3,84.5 819.8,87.0 825.3,80.5 830.9,82.5 836.4,85.0 841.9,81.8 847.4,75.6 853.0,75.9 858.5,80.8 864.0,82.1" fill="none" stroke="#00C878" stroke-width="1.5" stroke-linejoin="round" stroke-linecap="round"/>
<line x1="0" y1="92" x2="880" y2="92" stroke="#E8A000" stroke-width="0.5" />
<rect x="0" y="92" width="880" height="32" fill="#FFFFFF" opacity="0.02"/>
<text x="16" y="112" text-anchor="start" font-family="Courier New, Courier, monospace" font-size="10" fill="#FFA020" font-weight="bold">IBOV</text>
<text x="72" y="112" text-anchor="start" font-family="Courier New, Courier, monospace" font-size="10" fill="#E8A000" >IBOVESPA</text>
<text x="340" y="112" text-anchor="end" font-family="Courier New, Courier, monospace" font-size="11" fill="#D8E8F0" font-weight="bold">177,548</text>
<text x="420" y="112" text-anchor="end" font-family="Courier New, Courier, monospace" font-size="11" fill="#00C878" >+2.44%</text>
<text x="500" y="112" text-anchor="end" font-family="Courier New, Courier, monospace" font-size="11" fill="#00C878" >+10.59%</text>
<polyline points="516.0,97.0 521.5,98.4 527.0,98.9 532.6,100.0 538.1,100.8 543.6,104.3 549.1,102.0 554.7,103.5 560.2,102.5 565.7,101.6 571.2,105.6 576.8,104.8 582.3,106.8 587.8,108.2 593.3,111.1 598.9,110.0 604.4,110.9 609.9,111.2 615.4,113.6 621.0,110.9 626.5,110.6 632.0,111.9 637.5,110.9 643.0,111.6 648.6,112.3 654.1,112.9 659.6,114.1 665.1,115.5 670.7,113.7 676.2,117.2 681.7,118.3 687.2,118.7 692.8,117.6 698.3,118.7 703.8,116.1 709.3,116.4 714.9,117.1 720.4,117.8 725.9,118.8 731.4,119.0 737.0,118.7 742.5,117.1 748.0,116.3 753.5,117.0 759.0,115.7 764.6,114.5 770.1,114.6 775.6,115.7 781.1,116.0 786.7,115.0 792.2,113.6 797.7,115.3 803.2,115.7 808.8,116.9 814.3,115.0 819.8,110.4 825.3,112.3 830.9,111.5 836.4,112.1 841.9,114.0 847.4,114.1 853.0,114.4 858.5,114.5 864.0,110.7" fill="none" stroke="#00C878" stroke-width="1.5" stroke-linejoin="round" stroke-linecap="round"/>
<line x1="16" y1="124" x2="864" y2="124" stroke="#2A3A4A" stroke-width="0.3" />
<text x="16" y="144" text-anchor="start" font-family="Courier New, Courier, monospace" font-size="10" fill="#FFA020" font-weight="bold">SPY</text>
<text x="72" y="144" text-anchor="start" font-family="Courier New, Courier, monospace" font-size="10" fill="#E8A000" >S&amp;P 500</text>
<text x="340" y="144" text-anchor="end" font-family="Courier New, Courier, monospace" font-size="11" fill="#D8E8F0" font-weight="bold">747.41</text>
<text x="420" y="144" text-anchor="end" font-family="Courier New, Courier, monospace" font-size="11" fill="#FF3C3C" >-0.09%</text>
<text x="500" y="144" text-anchor="end" font-family="Courier New, Courier, monospace" font-size="11" fill="#00C878" >+9.98%</text>
<polyline points="516.0,151.0 521.7,148.6 527.4,148.1 533.1,149.6 538.8,149.7 544.5,146.6 550.2,145.7 555.9,146.9 561.6,144.4 567.3,140.1 573.0,141.0 578.8,138.4 584.5,137.7 590.2,138.2 595.9,136.4 601.6,133.9 607.3,137.8 613.0,138.0 618.7,140.1 624.4,136.9 630.1,136.3 635.8,135.0 641.5,132.9 647.2,132.9 652.9,131.1 658.6,130.3 664.3,129.4 670.0,129.0 675.7,131.3 681.4,130.1 687.1,138.5 692.9,137.8 698.6,138.7 704.3,143.7 710.0,138.4 715.7,136.7 721.4,131.0 727.1,133.0 732.8,137.0 738.5,133.7 744.2,134.7 749.9,139.4 755.6,139.5 761.3,139.1 767.0,141.4 772.7,136.2 778.4,133.7 784.1,134.1 789.8,134.5 795.5,131.7 801.2,133.3 807.0,134.3 812.7,131.5 818.4,130.2 824.1,132.6 829.8,131.5 835.5,130.2 841.2,132.0 846.9,135.2 852.6,135.7 858.3,133.0 864.0,133.4" fill="none" stroke="#FF3C3C" stroke-width="1.5" stroke-linejoin="round" stroke-linecap="round"/>
<line x1="16" y1="156" x2="864" y2="156" stroke="#2A3A4A" stroke-width="0.3" />
<rect x="0" y="156" width="880" height="32" fill="#FFFFFF" opacity="0.02"/>
<text x="16" y="176" text-anchor="start" font-family="Courier New, Courier, monospace" font-size="10" fill="#FFA020" font-weight="bold">QQQ</text>
<text x="72" y="176" text-anchor="start" font-family="Courier New, Courier, monospace" font-size="10" fill="#E8A000" >NASDAQ 100</text>
<text x="340" y="176" text-anchor="end" font-family="Courier New, Courier, monospace" font-size="11" fill="#D8E8F0" font-weight="bold">705.35</text>
<text x="420" y="176" text-anchor="end" font-family="Courier New, Courier, monospace" font-size="11" fill="#FF3C3C" >-0.46%</text>
<text x="500" y="176" text-anchor="end" font-family="Courier New, Courier, monospace" font-size="11" fill="#00C878" >+15.31%</text>
<polyline points="516.0,183.0 521.7,180.1 527.4,180.0 533.1,181.6 538.8,180.6 544.5,179.2 550.2,177.7 555.9,178.0 561.6,176.0 567.3,172.7 573.0,172.9 578.8,169.1 584.5,168.6 590.2,170.0 595.9,168.3 601.6,167.1 607.3,169.6 613.0,170.4 618.7,171.4 624.4,168.7 630.1,168.3 635.8,167.6 641.5,164.7 647.2,164.9 652.9,163.5 658.6,162.8 664.3,161.8 670.0,161.0 675.7,161.5 681.4,162.3 687.1,170.5 692.9,168.0 698.6,169.9 704.3,173.2 710.0,167.7 715.7,166.8 721.4,161.5 727.1,164.8 732.8,166.5 738.5,162.3 744.2,162.7 749.9,168.4 755.6,169.1 761.3,167.7 767.0,170.0 772.7,165.9 778.4,163.1 784.1,165.7 789.8,168.6 795.5,166.2 801.2,169.3 807.0,168.9 812.7,166.1 818.4,165.6 824.1,168.8 829.8,167.0 835.5,167.4 841.2,170.2 846.9,172.6 852.6,172.5 858.3,169.5 864.0,170.3" fill="none" stroke="#FF3C3C" stroke-width="1.5" stroke-linejoin="round" stroke-linecap="round"/>
<line x1="16" y1="188" x2="864" y2="188" stroke="#2A3A4A" stroke-width="0.3" />
<text x="16" y="208" text-anchor="start" font-family="Courier New, Courier, monospace" font-size="10" fill="#FFA020" font-weight="bold">QMOM</text>
<text x="72" y="208" text-anchor="start" font-family="Courier New, Courier, monospace" font-size="10" fill="#E8A000" >QUANT MOMENTUM</text>
<text x="340" y="208" text-anchor="end" font-family="Courier New, Courier, monospace" font-size="11" fill="#D8E8F0" font-weight="bold">76.56</text>
<text x="420" y="208" text-anchor="end" font-family="Courier New, Courier, monospace" font-size="11" fill="#00C878" >+0.84%</text>
<text x="500" y="208" text-anchor="end" font-family="Courier New, Courier, monospace" font-size="11" fill="#00C878" >+15.14%</text>
<polyline points="516.0,207.4 521.7,207.3 527.4,208.0 533.1,212.9 538.8,215.0 544.5,206.5 550.2,207.1 555.9,206.6 561.6,203.8 567.3,196.6 573.0,204.6 578.8,201.2 584.5,197.8 590.2,199.8 595.9,197.9 601.6,197.5 607.3,204.8 613.0,208.3 618.7,210.8 624.4,206.5 630.1,205.1 635.8,204.4 641.5,198.1 647.2,199.6 652.9,197.7 658.6,196.4 664.3,196.9 670.0,193.0 675.7,193.8 681.4,194.5 687.1,206.2 692.9,204.8 698.6,207.2 704.3,212.2 710.0,202.8 715.7,200.0 721.4,198.5 727.1,200.8 732.8,202.2 738.5,200.8 744.2,196.6 749.9,202.5 755.6,204.5 761.3,200.8 767.0,205.9 772.7,202.7 778.4,201.1 784.1,204.8 789.8,208.9 795.5,207.1 801.2,209.9 807.0,207.3 812.7,206.2 818.4,208.4 824.1,211.2 829.8,208.1 835.5,210.6 841.2,215.0 846.9,213.6 852.6,214.6 858.3,208.9 864.0,207.0" fill="none" stroke="#00C878" stroke-width="1.5" stroke-linejoin="round" stroke-linecap="round"/>
<line x1="16" y1="220" x2="864" y2="220" stroke="#2A3A4A" stroke-width="0.3" />
<rect x="0" y="220" width="880" height="32" fill="#FFFFFF" opacity="0.02"/>
<text x="16" y="240" text-anchor="start" font-family="Courier New, Courier, monospace" font-size="10" fill="#FFA020" font-weight="bold">MTUM</text>
<text x="72" y="240" text-anchor="start" font-family="Courier New, Courier, monospace" font-size="10" fill="#E8A000" >MOMENTUM FACTOR</text>
<text x="340" y="240" text-anchor="end" font-family="Courier New, Courier, monospace" font-size="11" fill="#D8E8F0" font-weight="bold">314.24</text>
<text x="420" y="240" text-anchor="end" font-family="Courier New, Courier, monospace" font-size="11" fill="#FF3C3C" >-0.23%</text>
<text x="500" y="240" text-anchor="end" font-family="Courier New, Courier, monospace" font-size="11" fill="#00C878" >+24.59%</text>
<polyline points="516.0,247.0 521.7,245.4 527.4,245.5 533.1,246.9 538.8,246.4 544.5,244.4 550.2,244.1 555.9,244.3 561.6,242.2 567.3,239.6 573.0,241.3 578.8,238.8 584.5,237.3 590.2,238.4 595.9,237.7 601.6,237.1 607.3,239.9 613.0,241.2 618.7,241.7 624.4,239.5 630.1,238.7 635.8,238.3 641.5,235.0 647.2,235.2 652.9,234.8 658.6,234.4 664.3,234.0 670.0,231.2 675.7,230.1 681.4,231.2 687.1,237.3 692.9,234.6 698.6,235.7 704.3,237.8 710.0,233.4 715.7,231.7 721.4,228.7 727.1,231.1 732.8,230.4 738.5,227.1 744.2,225.0 749.9,229.9 755.6,230.3 761.3,226.9 767.0,231.2 772.7,227.9 778.4,225.8 784.1,230.4 789.8,234.1 795.5,232.4 801.2,235.4 807.0,234.6 812.7,232.6 818.4,232.4 824.1,234.7 829.8,233.0 835.5,235.3 841.2,238.2 846.9,238.6 852.6,238.5 858.3,234.7 864.0,234.8" fill="none" stroke="#FF3C3C" stroke-width="1.5" stroke-linejoin="round" stroke-linecap="round"/>
<line x1="16" y1="252" x2="864" y2="252" stroke="#2A3A4A" stroke-width="0.3" />
<text x="16" y="272" text-anchor="start" font-family="Courier New, Courier, monospace" font-size="10" fill="#FFA020" font-weight="bold">QUAL</text>
<text x="72" y="272" text-anchor="start" font-family="Courier New, Courier, monospace" font-size="10" fill="#E8A000" >QUALITY FACTOR</text>
<text x="340" y="272" text-anchor="end" font-family="Courier New, Courier, monospace" font-size="11" fill="#D8E8F0" font-weight="bold">217.34</text>
<text x="420" y="272" text-anchor="end" font-family="Courier New, Courier, monospace" font-size="11" fill="#FF3C3C" >-0.59%</text>
<text x="500" y="272" text-anchor="end" font-family="Courier New, Courier, monospace" font-size="11" fill="#00C878" >+9.54%</text>
<polyline points="516.0,278.8 521.7,276.6 527.4,276.9 533.1,278.8 538.8,279.0 544.5,276.9 550.2,277.0 555.9,278.5 561.6,276.5 567.3,272.8 573.0,273.7 578.8,272.3 584.5,272.1 590.2,272.3 595.9,271.5 601.6,269.5 607.3,272.3 613.0,271.6 618.7,273.5 624.4,269.7 630.1,269.0 635.8,266.6 641.5,264.6 647.2,265.4 652.9,264.4 658.6,265.0 664.3,264.3 670.0,264.6 675.7,264.8 681.4,262.4 687.1,268.4 692.9,267.4 698.6,267.0 704.3,269.5 710.0,264.4 715.7,263.0 721.4,259.1 727.1,261.2 732.8,265.9 738.5,263.9 744.2,264.0 749.9,268.0 755.6,267.8 761.3,267.7 767.0,267.1 772.7,261.9 778.4,258.8 784.1,259.6 789.8,260.2 795.5,260.1 801.2,261.2 807.0,262.4 812.7,260.1 818.4,258.4 824.1,259.9 829.8,259.0 835.5,258.2 841.2,257.0 846.9,261.0 852.6,262.4 858.3,260.6 864.0,261.8" fill="none" stroke="#FF3C3C" stroke-width="1.5" stroke-linejoin="round" stroke-linecap="round"/>
<line x1="16" y1="284" x2="864" y2="284" stroke="#2A3A4A" stroke-width="0.3" />
<line x1="0" y1="284" x2="880" y2="284" stroke="#E8A000" stroke-width="0.4" />
<text x="16" y="297" text-anchor="start" font-family="Courier New, Courier, monospace" font-size="8" fill="#506070" >SRC: YAHOO FINANCE  ·  AUTO-UPDATE 22:00 UTC WEEKDAYS  ·  GITHUB.COM/YANKRUZISKI</text>
<text x="864" y="297" text-anchor="end" font-family="Courier New, Courier, monospace" font-size="8" fill="#506070" >2026-07-22</text>
</svg>