<svg xmlns="http://www.w3.org/2000/svg" width="880" height="302" viewBox="0 0 880 302">
<rect width="880" height="302" fill="#040810"/>
<rect x="0.5" y="0.5" width="879" height="301" fill="none" stroke="#E8A000" stroke-width="0.7" opacity="0.5"/>
<rect x="0" y="0" width="880" height="18" fill="#D87000"/>
<text x="16" y="14" text-anchor="start" font-family="Courier New, Courier, monospace" font-size="9" fill="#030608" font-weight="bold">BLOOMBERG</text>
<text x="88" y="14" text-anchor="start" font-family="Courier New, Courier, monospace" font-size="9" fill="#030608" >QUANT MARKET MONITOR</text>
<text x="440" y="14" text-anchor="middle" font-family="Courier New, Courier, monospace" font-size="9" fill="#030608" >EQUITY  &amp;  VOLATILITY  DASHBOARD</text>
<text x="864" y="14" text-anchor="end" font-family="Courier New, Courier, monospace" font-size="9" fill="#030608" >2026-06-02  22:44 UTC</text>
<line x1="0" y1="38" x2="880" y2="38" stroke="#E8A000" stroke-width="0.8" />
<text x="16" y="33" text-anchor="start" font-family="Courier New, Courier, monospace" font-size="9" fill="#506070" >YAN KRUZISKI  ·  VP OF INTELI RESEARCH  ·  SÃO PAULO, BR</text>
<text x="864" y="33" text-anchor="end" font-family="Courier New, Courier, monospace" font-size="9" fill="#506070" >PAGE 1/1</text>
<rect x="0" y="38" width="880" height="22" fill="#E8A000" opacity="0.14"/>
<text x="16" y="54" text-anchor="start" font-family="Courier New, Courier, monospace" font-size="9" fill="#FFA020" font-weight="bold">TICKER</text>
<text x="72" y="54" text-anchor="start" font-family="Courier New, Courier, monospace" font-size="9" fill="#FFA020" font-weight="bold">DESCRIPTION</text>
<text x="340" y="54" text-anchor="end" font-family="Courier New, Courier, monospace" font-size="9" fill="#FFA020" font-weight="bold">LAST</text>
<text x="420" y="54" text-anchor="end" font-family="Courier New, Courier, monospace" font-size="9" fill="#FFA020" font-weight="bold">%CHG</text>
<text x="500" y="54" text-anchor="end" font-family="Courier New, Courier, monospace" font-size="9" fill="#FFA020" font-weight="bold">YTD%</text>
<text x="690" y="54" text-anchor="middle" font-family="Courier New, Courier, monospace" font-size="9" fill="#FFA020" font-weight="bold">3-MONTH</text>
<line x1="0" y1="60" x2="880" y2="60" stroke="#E8A000" stroke-width="0.9" />
<rect x="0" y="60" width="880" height="32" fill="#E8A000" opacity="0.09"/>
<text x="16" y="80" text-anchor="start" font-family="Courier New, Courier, monospace" font-size="10" fill="#FFA020" font-weight="bold">^VIX</text>
<text x="72" y="80" text-anchor="start" font-family="Courier New, Courier, monospace" font-size="10" fill="#E8A000" font-weight="bold">CBOE VOLATILITY INDEX</text>
<text x="340" y="80" text-anchor="end" font-family="Courier New, Courier, monospace" font-size="11" fill="#D8E8F0" font-weight="bold">15.77</text>
<text x="420" y="80" text-anchor="end" font-family="Courier New, Courier, monospace" font-size="11" fill="#00C878" font-weight="bold">-1.74%</text>
<text x="500" y="80" text-anchor="end" font-family="Courier New, Courier, monospace" font-size="10" fill="#00C878" font-weight="bold">NORMAL</text>
<polyline points="516.0,78.4 521.4,75.5 526.7,78.8 532.1,75.2 537.4,67.2 542.8,72.8 548.1,73.6 553.5,74.5 558.8,70.3 564.2,70.4 569.5,75.5 574.9,77.1 580.2,73.3 585.6,74.8 591.0,71.0 596.3,71.9 601.7,70.7 607.0,73.0 612.4,70.0 617.7,65.0 623.1,65.6 628.4,73.1 633.8,74.1 639.1,75.0 644.5,74.6 649.8,72.4 655.2,79.0 660.6,81.2 665.9,81.5 671.3,81.7 676.6,82.7 682.0,83.0 687.3,83.3 692.7,84.0 698.0,82.0 703.4,81.2 708.7,82.0 714.1,81.4 719.4,82.3 724.8,83.2 730.2,83.5 735.5,82.1 740.9,84.8 746.2,84.7 751.6,82.8 756.9,84.1 762.3,84.1 767.6,84.5 773.0,84.4 778.3,82.7 783.7,83.3 789.0,83.4 794.4,84.3 799.8,82.7 805.1,83.5 810.5,83.2 815.8,84.0 821.2,85.0 826.5,85.1 831.9,85.2 837.2,84.6 842.6,85.6 847.9,86.4 853.3,87.0 858.6,86.0 864.0,86.4" fill="none" stroke="#00C878" stroke-width="1.5" stroke-linejoin="round" stroke-linecap="round"/>
<line x1="0" y1="92" x2="880" y2="92" stroke="#E8A000" stroke-width="0.5" />
<rect x="0" y="92" width="880" height="32" fill="#FFFFFF" opacity="0.02"/>
<text x="16" y="112" text-anchor="start" font-family="Courier New, Courier, monospace" font-size="10" fill="#FFA020" font-weight="bold">IBOV</text>
<text x="72" y="112" text-anchor="start" font-family="Courier New, Courier, monospace" font-size="10" fill="#E8A000" >IBOVESPA</text>
<text x="340" y="112" text-anchor="end" font-family="Courier New, Courier, monospace" font-size="11" fill="#D8E8F0" font-weight="bold">174,198</text>
<text x="420" y="112" text-anchor="end" font-family="Courier New, Courier, monospace" font-size="11" fill="#00C878" >+1.16%</text>
<text x="500" y="112" text-anchor="end" font-family="Courier New, Courier, monospace" font-size="11" fill="#00C878" >+8.51%</text>
<polyline points="516.0,104.8 521.5,109.9 527.0,108.1 532.6,112.1 538.1,113.0 543.6,111.8 549.1,109.6 554.7,109.2 560.2,113.1 565.7,114.5 571.2,112.6 576.8,112.2 582.3,112.8 587.8,112.3 593.3,115.7 598.9,110.9 604.4,110.4 609.9,108.0 615.4,110.2 621.0,111.2 626.5,110.4 632.0,106.3 637.5,105.9 643.0,105.8 648.6,105.7 654.1,105.6 659.6,102.4 665.1,99.9 670.7,98.1 676.2,97.5 681.7,97.0 687.2,97.8 692.8,98.5 698.3,99.4 703.8,99.1 709.3,101.8 714.9,103.1 720.4,103.6 725.9,104.5 731.4,105.3 737.0,108.6 742.5,106.4 748.0,107.9 753.5,106.9 759.0,106.1 764.6,109.8 770.1,109.1 775.6,110.9 781.1,112.2 786.7,114.9 792.2,113.9 797.7,114.8 803.2,115.0 808.8,117.3 814.3,114.7 819.8,114.5 825.3,115.7 830.9,114.7 836.4,115.3 841.9,116.1 847.4,116.6 853.0,117.7 858.5,119.0 864.0,117.3" fill="none" stroke="#00C878" stroke-width="1.5" stroke-linejoin="round" stroke-linecap="round"/>
<line x1="16" y1="124" x2="864" y2="124" stroke="#2A3A4A" stroke-width="0.3" />
<text x="16" y="144" text-anchor="start" font-family="Courier New, Courier, monospace" font-size="10" fill="#FFA020" font-weight="bold">SPY</text>
<text x="72" y="144" text-anchor="start" font-family="Courier New, Courier, monospace" font-size="10" fill="#E8A000" >S&amp;P 500</text>
<text x="340" y="144" text-anchor="end" font-family="Courier New, Courier, monospace" font-size="11" fill="#D8E8F0" font-weight="bold">759.57</text>
<text x="420" y="144" text-anchor="end" font-family="Courier New, Courier, monospace" font-size="11" fill="#00C878" >+0.38%</text>
<text x="500" y="144" text-anchor="end" font-family="Courier New, Courier, monospace" font-size="11" fill="#00C878" >+11.49%</text>
<polyline points="516.0,143.0 521.5,142.2 527.0,142.8 532.6,144.3 538.1,143.3 543.6,143.5 549.1,143.7 554.7,145.4 560.2,146.1 565.7,144.9 571.2,144.6 576.8,146.2 582.3,146.5 587.8,148.1 593.3,147.0 598.9,147.3 604.4,146.7 609.9,148.7 615.4,150.6 621.0,151.0 626.5,147.8 632.0,147.0 637.5,146.9 643.0,146.4 648.6,146.3 654.1,143.4 659.6,142.7 665.1,142.8 670.7,141.7 676.2,140.2 681.7,139.3 687.2,139.0 692.8,137.5 698.3,137.8 703.8,138.6 709.3,137.3 714.9,137.8 720.4,136.9 725.9,136.7 731.4,137.3 737.0,137.3 742.5,136.1 748.0,135.7 753.5,136.2 759.0,135.2 764.6,133.4 770.1,133.8 775.6,132.8 781.1,132.5 786.7,132.7 792.2,132.0 797.7,131.0 803.2,132.5 808.8,132.6 814.3,133.5 819.8,132.2 825.3,131.9 830.9,131.4 836.4,130.5 841.9,130.6 847.4,129.9 853.0,129.5 858.5,129.2 864.0,129.0" fill="none" stroke="#00C878" stroke-width="1.5" stroke-linejoin="round" stroke-linecap="round"/>
<line x1="16" y1="156" x2="864" y2="156" stroke="#2A3A4A" stroke-width="0.3" />
<rect x="0" y="156" width="880" height="32" fill="#FFFFFF" opacity="0.02"/>
<text x="16" y="176" text-anchor="start" font-family="Courier New, Courier, monospace" font-size="10" fill="#FFA020" font-weight="bold">QQQ</text>
<text x="72" y="176" text-anchor="start" font-family="Courier New, Courier, monospace" font-size="10" fill="#E8A000" >NASDAQ 100</text>
<text x="340" y="176" text-anchor="end" font-family="Courier New, Courier, monospace" font-size="11" fill="#D8E8F0" font-weight="bold">746.16</text>
<text x="420" y="176" text-anchor="end" font-family="Courier New, Courier, monospace" font-size="11" fill="#00C878" >+0.79%</text>
<text x="500" y="176" text-anchor="end" font-family="Courier New, Courier, monospace" font-size="11" fill="#00C878" >+21.85%</text>
<polyline points="516.0,178.0 521.5,176.9 527.0,177.2 532.6,178.2 538.1,177.3 543.6,177.3 549.1,177.3 554.7,178.5 560.2,178.9 565.7,178.2 571.2,177.8 576.8,178.8 582.3,179.0 587.8,180.3 593.3,179.5 598.9,180.0 604.4,179.5 609.9,181.2 615.4,182.5 621.0,183.0 626.5,180.8 632.0,180.0 637.5,179.9 643.0,179.5 648.6,179.5 654.1,177.4 659.6,176.9 665.1,176.8 670.7,176.1 676.2,174.8 681.7,173.7 687.2,173.4 692.8,172.4 698.3,172.6 703.8,172.9 709.3,171.7 714.9,172.1 720.4,170.6 725.9,170.6 731.4,171.4 737.0,170.9 742.5,170.2 748.0,169.4 753.5,169.6 759.0,168.6 764.6,166.9 770.1,167.0 775.6,165.1 781.1,164.8 786.7,165.6 792.2,164.7 797.7,164.1 803.2,165.4 808.8,165.7 814.3,166.2 819.8,164.9 825.3,164.7 830.9,164.4 836.4,162.9 841.9,163.0 847.4,162.2 853.0,161.9 858.5,161.4 864.0,161.0" fill="none" stroke="#00C878" stroke-width="1.5" stroke-linejoin="round" stroke-linecap="round"/>
<line x1="16" y1="188" x2="864" y2="188" stroke="#2A3A4A" stroke-width="0.3" />
<text x="16" y="208" text-anchor="start" font-family="Courier New, Courier, monospace" font-size="10" fill="#FFA020" font-weight="bold">QMOM</text>
<text x="72" y="208" text-anchor="start" font-family="Courier New, Courier, monospace" font-size="10" fill="#E8A000" >QUANT MOMENTUM</text>
<text x="340" y="208" text-anchor="end" font-family="Courier New, Courier, monospace" font-size="11" fill="#D8E8F0" font-weight="bold">81.69</text>
<text x="420" y="208" text-anchor="end" font-family="Courier New, Courier, monospace" font-size="11" fill="#FF3C3C" >-0.21%</text>
<text x="500" y="208" text-anchor="end" font-family="Courier New, Courier, monospace" font-size="11" fill="#00C878" >+22.87%</text>
<polyline points="516.0,206.7 521.5,206.0 527.0,208.7 532.6,210.7 538.1,208.2 543.6,207.5 549.1,208.2 554.7,210.3 560.2,211.8 565.7,209.7 571.2,209.0 576.8,210.0 582.3,209.7 587.8,212.8 593.3,210.7 598.9,209.5 604.4,208.2 609.9,211.7 615.4,212.3 621.0,215.0 626.5,210.1 632.0,208.3 637.5,208.5 643.0,208.3 648.6,208.1 654.1,203.8 659.6,203.2 665.1,203.1 670.7,202.2 676.2,201.4 681.7,202.1 687.2,201.9 692.8,199.9 698.3,199.8 703.8,201.0 709.3,200.1 714.9,199.7 720.4,199.7 725.9,200.0 731.4,202.3 737.0,203.3 742.5,199.3 748.0,199.6 753.5,199.4 759.0,198.1 764.6,194.7 770.1,198.5 775.6,196.9 781.1,195.3 786.7,196.2 792.2,195.3 797.7,195.1 803.2,198.6 808.8,200.2 814.3,201.4 819.8,199.3 825.3,198.7 830.9,198.4 836.4,195.4 841.9,196.1 847.4,195.2 853.0,194.6 858.5,194.8 864.0,193.0" fill="none" stroke="#FF3C3C" stroke-width="1.5" stroke-linejoin="round" stroke-linecap="round"/>
<line x1="16" y1="220" x2="864" y2="220" stroke="#2A3A4A" stroke-width="0.3" />
<rect x="0" y="220" width="880" height="32" fill="#FFFFFF" opacity="0.02"/>
<text x="16" y="240" text-anchor="start" font-family="Courier New, Courier, monospace" font-size="10" fill="#FFA020" font-weight="bold">MTUM</text>
<text x="72" y="240" text-anchor="start" font-family="Courier New, Courier, monospace" font-size="10" fill="#E8A000" >MOMENTUM FACTOR</text>
<text x="340" y="240" text-anchor="end" font-family="Courier New, Courier, monospace" font-size="11" fill="#D8E8F0" font-weight="bold">326.03</text>
<text x="420" y="240" text-anchor="end" font-family="Courier New, Courier, monospace" font-size="11" fill="#00C878" >+2.56%</text>
<text x="500" y="240" text-anchor="end" font-family="Courier New, Courier, monospace" font-size="11" fill="#00C878" >+29.12%</text>
<polyline points="516.0,243.3 521.5,242.4 527.0,243.3 532.6,244.6 538.1,243.2 543.6,243.0 549.1,242.9 554.7,244.0 560.2,244.1 565.7,243.4 571.2,243.0 576.8,243.4 582.3,243.3 587.8,244.5 593.3,243.8 598.9,243.6 604.4,243.2 609.9,245.3 615.4,245.8 621.0,247.0 626.5,244.9 632.0,243.7 637.5,243.5 643.0,243.1 648.6,242.7 654.1,240.3 659.6,239.7 665.1,239.5 670.7,238.9 676.2,237.9 681.7,237.9 687.2,237.8 692.8,236.9 698.3,237.1 703.8,237.6 709.3,236.6 714.9,236.6 720.4,235.4 725.9,235.5 731.4,236.5 737.0,236.2 742.5,234.7 748.0,234.5 753.5,234.6 759.0,233.1 764.6,231.2 770.1,232.4 775.6,230.6 781.1,229.5 786.7,230.3 792.2,229.8 797.7,229.3 803.2,231.4 808.8,232.3 814.3,232.7 819.8,231.1 825.3,230.5 830.9,230.2 836.4,227.8 841.9,227.9 847.4,227.6 853.0,227.4 858.5,227.1 864.0,225.0" fill="none" stroke="#00C878" stroke-width="1.5" stroke-linejoin="round" stroke-linecap="round"/>
<line x1="16" y1="252" x2="864" y2="252" stroke="#2A3A4A" stroke-width="0.3" />
<text x="16" y="272" text-anchor="start" font-family="Courier New, Courier, monospace" font-size="10" fill="#FFA020" font-weight="bold">QUAL</text>
<text x="72" y="272" text-anchor="start" font-family="Courier New, Courier, monospace" font-size="10" fill="#E8A000" >QUALITY FACTOR</text>
<text x="340" y="272" text-anchor="end" font-family="Courier New, Courier, monospace" font-size="11" fill="#D8E8F0" font-weight="bold">215.78</text>
<text x="420" y="272" text-anchor="end" font-family="Courier New, Courier, monospace" font-size="11" fill="#FF3C3C" >-0.19%</text>
<text x="500" y="272" text-anchor="end" font-family="Courier New, Courier, monospace" font-size="11" fill="#00C878" >+8.56%</text>
<polyline points="516.0,267.5 521.5,266.7 527.0,268.0 532.6,270.2 538.1,268.7 543.6,269.0 549.1,269.6 554.7,272.1 560.2,272.8 565.7,271.5 571.2,271.2 576.8,273.3 582.3,273.2 587.8,275.0 593.3,273.4 598.9,273.9 604.4,273.3 609.9,276.3 615.4,278.4 621.0,279.0 626.5,275.0 632.0,274.3 637.5,274.0 643.0,273.4 648.6,273.9 654.1,269.7 659.6,268.7 665.1,269.3 670.7,268.0 676.2,266.5 681.7,265.7 687.2,265.7 692.8,263.8 698.3,264.0 703.8,264.8 709.3,263.6 714.9,264.5 720.4,263.4 725.9,263.6 731.4,264.5 737.0,264.6 742.5,263.5 748.0,263.6 753.5,264.4 759.0,263.3 764.6,261.4 770.1,261.9 775.6,261.1 781.1,261.0 786.7,261.2 792.2,260.7 797.7,259.7 803.2,261.1 808.8,260.8 814.3,261.8 819.8,259.8 825.3,259.4 830.9,258.2 836.4,257.1 841.9,257.5 847.4,257.1 853.0,257.4 858.5,257.0 864.0,257.1" fill="none" stroke="#FF3C3C" stroke-width="1.5" stroke-linejoin="round" stroke-linecap="round"/>
<line x1="16" y1="284" x2="864" y2="284" stroke="#2A3A4A" stroke-width="0.3" />
<line x1="0" y1="284" x2="880" y2="284" stroke="#E8A000" stroke-width="0.4" />
<text x="16" y="297" text-anchor="start" font-family="Courier New, Courier, monospace" font-size="8" fill="#506070" >SRC: YAHOO FINANCE  ·  AUTO-UPDATE 22:00 UTC WEEKDAYS  ·  GITHUB.COM/YANKRUZISKI</text>
<text x="864" y="297" text-anchor="end" font-family="Courier New, Courier, monospace" font-size="8" fill="#506070" >2026-06-02</text>
</svg>