<svg xmlns="http://www.w3.org/2000/svg" width="880" height="302" viewBox="0 0 880 302">
<rect width="880" height="302" fill="#040810"/>
<rect x="0.5" y="0.5" width="879" height="301" fill="none" stroke="#E8A000" stroke-width="0.7" opacity="0.5"/>
<rect x="0" y="0" width="880" height="18" fill="#D87000"/>
<text x="16" y="14" text-anchor="start" font-family="Courier New, Courier, monospace" font-size="9" fill="#030608" font-weight="bold">BLOOMBERG</text>
<text x="88" y="14" text-anchor="start" font-family="Courier New, Courier, monospace" font-size="9" fill="#030608" >QUANT MARKET MONITOR</text>
<text x="440" y="14" text-anchor="middle" font-family="Courier New, Courier, monospace" font-size="9" fill="#030608" >EQUITY  &amp;  VOLATILITY  DASHBOARD</text>
<text x="864" y="14" text-anchor="end" font-family="Courier New, Courier, monospace" font-size="9" fill="#030608" >2026-05-12  22:30 UTC</text>
<line x1="0" y1="38" x2="880" y2="38" stroke="#E8A000" stroke-width="0.8" />
<text x="16" y="33" text-anchor="start" font-family="Courier New, Courier, monospace" font-size="9" fill="#506070" >YAN KRUZISKI  ·  VP OF INTELI RESEARCH  ·  SÃO PAULO, BR</text>
<text x="864" y="33" text-anchor="end" font-family="Courier New, Courier, monospace" font-size="9" fill="#506070" >PAGE 1/1</text>
<rect x="0" y="38" width="880" height="22" fill="#E8A000" opacity="0.14"/>
<text x="16" y="54" text-anchor="start" font-family="Courier New, Courier, monospace" font-size="9" fill="#FFA020" font-weight="bold">TICKER</text>
<text x="72" y="54" text-anchor="start" font-family="Courier New, Courier, monospace" font-size="9" fill="#FFA020" font-weight="bold">DESCRIPTION</text>
<text x="340" y="54" text-anchor="end" font-family="Courier New, Courier, monospace" font-size="9" fill="#FFA020" font-weight="bold">LAST</text>
<text x="420" y="54" text-anchor="end" font-family="Courier New, Courier, monospace" font-size="9" fill="#FFA020" font-weight="bold">%CHG</text>
<text x="500" y="54" text-anchor="end" font-family="Courier New, Courier, monospace" font-size="9" fill="#FFA020" font-weight="bold">YTD%</text>
<text x="690" y="54" text-anchor="middle" font-family="Courier New, Courier, monospace" font-size="9" fill="#FFA020" font-weight="bold">3-MONTH</text>
<line x1="0" y1="60" x2="880" y2="60" stroke="#E8A000" stroke-width="0.9" />
<rect x="0" y="60" width="880" height="32" fill="#E8A000" opacity="0.09"/>
<text x="16" y="80" text-anchor="start" font-family="Courier New, Courier, monospace" font-size="10" fill="#FFA020" font-weight="bold">^VIX</text>
<text x="72" y="80" text-anchor="start" font-family="Courier New, Courier, monospace" font-size="10" fill="#E8A000" font-weight="bold">CBOE VOLATILITY INDEX</text>
<text x="340" y="80" text-anchor="end" font-family="Courier New, Courier, monospace" font-size="11" fill="#D8E8F0" font-weight="bold">17.99</text>
<text x="420" y="80" text-anchor="end" font-family="Courier New, Courier, monospace" font-size="11" fill="#00C878" font-weight="bold">-2.07%</text>
<text x="500" y="80" text-anchor="end" font-family="Courier New, Courier, monospace" font-size="10" fill="#00C878" font-weight="bold">NORMAL</text>
<polyline points="516.0,80.9 521.7,81.2 527.4,81.7 533.1,82.8 538.8,81.8 544.5,83.6 550.2,80.6 555.9,82.9 561.6,85.4 567.3,84.3 573.0,82.4 578.8,79.9 584.5,76.6 590.2,80.4 595.9,76.3 601.6,67.4 607.3,73.6 613.0,74.5 618.7,75.6 624.4,70.8 630.1,71.0 635.8,76.7 641.5,78.5 647.2,74.3 652.9,75.9 658.6,71.6 664.3,72.6 670.0,71.4 675.7,73.9 681.4,70.6 687.1,65.0 692.9,65.7 698.6,74.0 704.3,75.1 710.0,76.2 715.7,75.7 721.4,73.2 727.1,80.6 732.8,83.0 738.5,83.4 744.2,83.5 749.9,84.7 755.6,85.0 761.3,85.4 767.0,86.1 772.7,83.9 778.4,82.9 784.1,83.8 789.8,83.2 795.5,84.2 801.2,85.2 807.0,85.5 812.7,84.0 818.4,87.0 824.1,86.8 829.8,84.8 835.5,86.2 841.2,86.2 846.9,86.7 852.6,86.5 858.3,84.7 864.0,85.3" fill="none" stroke="#00C878" stroke-width="1.5" stroke-linejoin="round" stroke-linecap="round"/>
<line x1="0" y1="92" x2="880" y2="92" stroke="#E8A000" stroke-width="0.5" />
<rect x="0" y="92" width="880" height="32" fill="#FFFFFF" opacity="0.02"/>
<text x="16" y="112" text-anchor="start" font-family="Courier New, Courier, monospace" font-size="10" fill="#FFA020" font-weight="bold">IBOV</text>
<text x="72" y="112" text-anchor="start" font-family="Courier New, Courier, monospace" font-size="10" fill="#E8A000" >IBOVESPA</text>
<text x="340" y="112" text-anchor="end" font-family="Courier New, Courier, monospace" font-size="11" fill="#D8E8F0" font-weight="bold">180,342</text>
<text x="420" y="112" text-anchor="end" font-family="Courier New, Courier, monospace" font-size="11" fill="#FF3C3C" >-0.86%</text>
<text x="500" y="112" text-anchor="end" font-family="Courier New, Courier, monospace" font-size="11" fill="#00C878" >+12.34%</text>
<polyline points="516.0,107.7 522.0,109.0 528.0,109.4 534.0,106.9 540.0,105.0 546.0,106.6 552.0,104.0 558.0,104.3 564.0,104.5 570.0,106.7 576.0,106.2 582.0,112.2 588.0,110.0 594.0,114.8 600.0,115.9 606.0,114.4 612.0,111.9 618.0,111.4 624.0,116.0 630.0,117.6 636.0,115.4 642.0,114.9 648.0,115.6 654.0,115.0 660.0,119.0 666.0,113.4 672.0,112.8 678.0,110.0 684.0,112.6 690.0,113.8 696.0,112.8 702.0,108.0 708.0,107.5 714.0,107.4 720.0,107.3 726.0,107.2 732.0,103.3 738.0,100.5 744.0,98.3 750.0,97.6 756.0,97.0 762.0,97.9 768.0,98.8 774.0,99.9 780.0,99.5 786.0,102.7 792.0,104.1 798.0,104.8 804.0,105.9 810.0,106.8 816.0,110.6 822.0,108.1 828.0,109.8 834.0,108.7 840.0,107.8 846.0,112.1 852.0,111.3 858.0,113.4 864.0,115.0" fill="none" stroke="#FF3C3C" stroke-width="1.5" stroke-linejoin="round" stroke-linecap="round"/>
<line x1="16" y1="124" x2="864" y2="124" stroke="#2A3A4A" stroke-width="0.3" />
<text x="16" y="144" text-anchor="start" font-family="Courier New, Courier, monospace" font-size="10" fill="#FFA020" font-weight="bold">SPY</text>
<text x="72" y="144" text-anchor="start" font-family="Courier New, Courier, monospace" font-size="10" fill="#E8A000" >S&P 500</text>
<text x="340" y="144" text-anchor="end" font-family="Courier New, Courier, monospace" font-size="11" fill="#D8E8F0" font-weight="bold">738.18</text>
<text x="420" y="144" text-anchor="end" font-family="Courier New, Courier, monospace" font-size="11" fill="#FF3C3C" >-0.15%</text>
<text x="500" y="144" text-anchor="end" font-family="Courier New, Courier, monospace" font-size="11" fill="#00C878" >+8.35%</text>
<polyline points="516.0,141.2 521.8,141.0 527.6,140.2 533.4,140.6 539.2,139.6 545.0,141.0 550.8,140.0 556.6,138.8 562.4,139.6 568.2,140.3 574.0,140.2 579.8,141.5 585.6,140.5 591.4,141.3 597.2,143.1 603.0,141.9 608.8,142.1 614.6,142.3 620.4,144.4 626.2,145.2 632.0,143.8 637.8,143.4 643.6,145.3 649.4,145.7 655.2,147.6 661.0,146.2 666.8,146.7 672.6,145.9 678.4,148.3 684.2,150.6 690.0,151.0 695.8,147.2 701.6,146.2 707.4,146.1 713.2,145.5 719.0,145.4 724.8,142.0 730.6,141.2 736.4,141.3 742.2,139.9 748.0,138.2 753.8,137.1 759.6,136.7 765.4,135.0 771.2,135.3 777.0,136.2 782.8,134.8 788.6,135.3 794.4,134.2 800.2,133.9 806.0,134.7 811.8,134.7 817.6,133.2 823.4,132.8 829.2,133.4 835.0,132.2 840.8,130.1 846.6,130.6 852.4,129.3 858.2,129.0 864.0,129.2" fill="none" stroke="#FF3C3C" stroke-width="1.5" stroke-linejoin="round" stroke-linecap="round"/>
<line x1="16" y1="156" x2="864" y2="156" stroke="#2A3A4A" stroke-width="0.3" />
<rect x="0" y="156" width="880" height="32" fill="#FFFFFF" opacity="0.02"/>
<text x="16" y="176" text-anchor="start" font-family="Courier New, Courier, monospace" font-size="10" fill="#FFA020" font-weight="bold">QQQ</text>
<text x="72" y="176" text-anchor="start" font-family="Courier New, Courier, monospace" font-size="10" fill="#E8A000" >NASDAQ 100</text>
<text x="340" y="176" text-anchor="end" font-family="Courier New, Courier, monospace" font-size="11" fill="#D8E8F0" font-weight="bold">707.24</text>
<text x="420" y="176" text-anchor="end" font-family="Courier New, Courier, monospace" font-size="11" fill="#FF3C3C" >-0.85%</text>
<text x="500" y="176" text-anchor="end" font-family="Courier New, Courier, monospace" font-size="11" fill="#00C878" >+15.50%</text>
<polyline points="516.0,176.9 521.8,177.0 527.6,176.4 533.4,176.7 539.2,175.9 545.0,177.0 550.8,176.1 556.6,174.8 562.4,175.9 568.2,176.2 574.0,176.0 579.8,177.0 585.6,175.7 591.4,175.9 597.2,177.2 603.0,176.1 608.8,176.1 614.6,176.1 620.4,177.6 626.2,178.1 632.0,177.1 637.8,176.7 643.6,177.9 649.4,178.2 655.2,179.7 661.0,178.8 666.8,179.4 672.6,178.8 678.4,180.8 684.2,182.4 690.0,183.0 695.8,180.3 701.6,179.3 707.4,179.2 713.2,178.7 719.0,178.7 724.8,176.2 730.6,175.6 736.4,175.5 742.2,174.6 748.0,173.0 753.8,171.8 759.6,171.3 765.4,170.1 771.2,170.4 777.0,170.8 782.8,169.3 788.6,169.8 794.4,168.0 800.2,168.0 806.0,168.9 811.8,168.3 817.6,167.5 823.4,166.6 829.2,166.7 835.0,165.5 840.8,163.5 846.6,163.6 852.4,161.3 858.2,161.0 864.0,161.9" fill="none" stroke="#FF3C3C" stroke-width="1.5" stroke-linejoin="round" stroke-linecap="round"/>
<line x1="16" y1="188" x2="864" y2="188" stroke="#2A3A4A" stroke-width="0.3" />
<text x="16" y="208" text-anchor="start" font-family="Courier New, Courier, monospace" font-size="10" fill="#FFA020" font-weight="bold">QMOM</text>
<text x="72" y="208" text-anchor="start" font-family="Courier New, Courier, monospace" font-size="10" fill="#E8A000" >QUANT MOMENTUM</text>
<text x="340" y="208" text-anchor="end" font-family="Courier New, Courier, monospace" font-size="11" fill="#D8E8F0" font-weight="bold">79.19</text>
<text x="420" y="208" text-anchor="end" font-family="Courier New, Courier, monospace" font-size="11" fill="#FF3C3C" >-0.91%</text>
<text x="500" y="208" text-anchor="end" font-family="Courier New, Courier, monospace" font-size="11" fill="#00C878" >+19.11%</text>
<polyline points="516.0,206.4 521.8,206.1 527.6,205.3 533.4,204.6 539.2,203.8 545.0,205.0 550.8,203.2 556.6,202.8 562.4,202.3 568.2,203.0 574.0,202.0 579.8,206.0 585.6,205.2 591.4,208.1 597.2,210.3 603.0,207.6 608.8,206.9 614.6,207.7 620.4,209.9 626.2,211.6 632.0,209.3 637.8,208.5 643.6,209.6 649.4,209.3 655.2,212.6 661.0,210.4 666.8,209.0 672.6,207.6 678.4,211.4 684.2,212.0 690.0,215.0 695.8,209.7 701.6,207.7 707.4,208.0 713.2,207.7 719.0,207.5 724.8,202.9 730.6,202.3 736.4,202.1 742.2,201.1 748.0,200.2 753.8,201.1 759.6,200.8 765.4,198.6 771.2,198.5 777.0,199.9 782.8,198.9 788.6,198.5 794.4,198.4 800.2,198.8 806.0,201.3 811.8,202.3 817.6,198.0 823.4,198.3 829.2,198.1 835.0,196.6 840.8,193.0 846.6,197.1 852.4,195.3 858.2,193.6 864.0,194.6" fill="none" stroke="#FF3C3C" stroke-width="1.5" stroke-linejoin="round" stroke-linecap="round"/>
<line x1="16" y1="220" x2="864" y2="220" stroke="#2A3A4A" stroke-width="0.3" />
<rect x="0" y="220" width="880" height="32" fill="#FFFFFF" opacity="0.02"/>
<text x="16" y="240" text-anchor="start" font-family="Courier New, Courier, monospace" font-size="10" fill="#FFA020" font-weight="bold">MTUM</text>
<text x="72" y="240" text-anchor="start" font-family="Courier New, Courier, monospace" font-size="10" fill="#E8A000" >MOMENTUM FACTOR</text>
<text x="340" y="240" text-anchor="end" font-family="Courier New, Courier, monospace" font-size="11" fill="#D8E8F0" font-weight="bold">303.24</text>
<text x="420" y="240" text-anchor="end" font-family="Courier New, Courier, monospace" font-size="11" fill="#FF3C3C" >-1.94%</text>
<text x="500" y="240" text-anchor="end" font-family="Courier New, Courier, monospace" font-size="11" fill="#00C878" >+20.09%</text>
<polyline points="516.0,241.1 521.8,241.0 527.6,240.5 533.4,240.5 539.2,240.1 545.0,241.6 550.8,240.9 556.6,239.6 562.4,240.1 568.2,240.6 574.0,240.4 579.8,242.4 585.6,241.3 591.4,242.4 597.2,244.0 603.0,242.3 608.8,242.0 614.6,241.8 620.4,243.3 626.2,243.4 632.0,242.4 637.8,241.9 643.6,242.5 649.4,242.3 655.2,243.9 661.0,243.0 666.8,242.7 672.6,242.2 678.4,244.8 684.2,245.6 690.0,247.0 695.8,244.3 701.6,242.8 707.4,242.6 713.2,242.1 719.0,241.6 724.8,238.6 730.6,237.8 736.4,237.5 742.2,236.8 748.0,235.5 753.8,235.6 759.6,235.4 765.4,234.3 771.2,234.6 777.0,235.2 782.8,233.9 788.6,233.9 794.4,232.5 800.2,232.5 806.0,233.8 811.8,233.4 817.6,231.6 823.4,231.3 829.2,231.5 835.0,229.5 840.8,227.2 846.6,228.7 852.4,226.4 858.2,225.0 864.0,226.0" fill="none" stroke="#FF3C3C" stroke-width="1.5" stroke-linejoin="round" stroke-linecap="round"/>
<line x1="16" y1="252" x2="864" y2="252" stroke="#2A3A4A" stroke-width="0.3" />
<text x="16" y="272" text-anchor="start" font-family="Courier New, Courier, monospace" font-size="10" fill="#FFA020" font-weight="bold">QUAL</text>
<text x="72" y="272" text-anchor="start" font-family="Courier New, Courier, monospace" font-size="10" fill="#E8A000" >QUALITY FACTOR</text>
<text x="340" y="272" text-anchor="end" font-family="Courier New, Courier, monospace" font-size="11" fill="#D8E8F0" font-weight="bold">210.39</text>
<text x="420" y="272" text-anchor="end" font-family="Courier New, Courier, monospace" font-size="11" fill="#00C878" >+0.62%</text>
<text x="500" y="272" text-anchor="end" font-family="Courier New, Courier, monospace" font-size="11" fill="#00C878" >+5.85%</text>
<polyline points="516.0,265.5 521.8,265.0 527.6,263.9 533.4,264.3 539.2,263.0 545.0,265.0 550.8,263.4 556.6,262.1 562.4,262.7 568.2,262.6 574.0,263.0 579.8,265.0 585.6,263.9 591.4,265.5 597.2,268.3 603.0,266.4 608.8,266.8 614.6,267.5 620.4,270.5 626.2,271.5 632.0,269.8 637.8,269.5 643.6,272.1 649.4,271.9 655.2,274.1 661.0,272.2 666.8,272.8 672.6,272.0 678.4,275.7 684.2,278.3 690.0,279.0 695.8,274.1 701.6,273.3 707.4,272.9 713.2,272.1 719.0,272.7 724.8,267.6 730.6,266.4 736.4,267.1 742.2,265.5 748.0,263.7 753.8,262.7 759.6,262.7 765.4,260.3 771.2,260.6 777.0,261.7 782.8,260.1 788.6,261.3 794.4,259.9 800.2,260.1 806.0,261.3 811.8,261.4 817.6,260.0 823.4,260.1 829.2,261.1 835.0,259.8 840.8,257.5 846.6,258.0 852.4,257.1 858.2,257.0 864.0,257.2" fill="none" stroke="#00C878" stroke-width="1.5" stroke-linejoin="round" stroke-linecap="round"/>
<line x1="16" y1="284" x2="864" y2="284" stroke="#2A3A4A" stroke-width="0.3" />
<line x1="0" y1="284" x2="880" y2="284" stroke="#E8A000" stroke-width="0.4" />
<text x="16" y="297" text-anchor="start" font-family="Courier New, Courier, monospace" font-size="8" fill="#506070" >SRC: YAHOO FINANCE  ·  AUTO-UPDATE 22:00 UTC WEEKDAYS  ·  GITHUB.COM/YANKRUZISKI</text>
<text x="864" y="297" text-anchor="end" font-family="Courier New, Courier, monospace" font-size="8" fill="#506070" >2026-05-12</text>
</svg>