<svg xmlns="http://www.w3.org/2000/svg" width="880" height="302" viewBox="0 0 880 302">
<rect width="880" height="302" fill="#040810"/>
<rect x="0.5" y="0.5" width="879" height="301" fill="none" stroke="#E8A000" stroke-width="0.7" opacity="0.5"/>
<rect x="0" y="0" width="880" height="18" fill="#D87000"/>
<text x="16" y="14" text-anchor="start" font-family="Courier New, Courier, monospace" font-size="9" fill="#030608" font-weight="bold">BLOOMBERG</text>
<text x="88" y="14" text-anchor="start" font-family="Courier New, Courier, monospace" font-size="9" fill="#030608" >QUANT MARKET MONITOR</text>
<text x="440" y="14" text-anchor="middle" font-family="Courier New, Courier, monospace" font-size="9" fill="#030608" >EQUITY  &amp;  VOLATILITY  DASHBOARD</text>
<text x="864" y="14" text-anchor="end" font-family="Courier New, Courier, monospace" font-size="9" fill="#030608" >2026-06-16  22:40 UTC</text>
<line x1="0" y1="38" x2="880" y2="38" stroke="#E8A000" stroke-width="0.8" />
<text x="16" y="33" text-anchor="start" font-family="Courier New, Courier, monospace" font-size="9" fill="#506070" >YAN KRUZISKI  ·  VP OF INTELI RESEARCH  ·  SÃO PAULO, BR</text>
<text x="864" y="33" text-anchor="end" font-family="Courier New, Courier, monospace" font-size="9" fill="#506070" >PAGE 1/1</text>
<rect x="0" y="38" width="880" height="22" fill="#E8A000" opacity="0.14"/>
<text x="16" y="54" text-anchor="start" font-family="Courier New, Courier, monospace" font-size="9" fill="#FFA020" font-weight="bold">TICKER</text>
<text x="72" y="54" text-anchor="start" font-family="Courier New, Courier, monospace" font-size="9" fill="#FFA020" font-weight="bold">DESCRIPTION</text>
<text x="340" y="54" text-anchor="end" font-family="Courier New, Courier, monospace" font-size="9" fill="#FFA020" font-weight="bold">LAST</text>
<text x="420" y="54" text-anchor="end" font-family="Courier New, Courier, monospace" font-size="9" fill="#FFA020" font-weight="bold">%CHG</text>
<text x="500" y="54" text-anchor="end" font-family="Courier New, Courier, monospace" font-size="9" fill="#FFA020" font-weight="bold">YTD%</text>
<text x="690" y="54" text-anchor="middle" font-family="Courier New, Courier, monospace" font-size="9" fill="#FFA020" font-weight="bold">3-MONTH</text>
<line x1="0" y1="60" x2="880" y2="60" stroke="#E8A000" stroke-width="0.9" />
<rect x="0" y="60" width="880" height="32" fill="#E8A000" opacity="0.09"/>
<text x="16" y="80" text-anchor="start" font-family="Courier New, Courier, monospace" font-size="10" fill="#FFA020" font-weight="bold">^VIX</text>
<text x="72" y="80" text-anchor="start" font-family="Courier New, Courier, monospace" font-size="10" fill="#E8A000" font-weight="bold">CBOE VOLATILITY INDEX</text>
<text x="340" y="80" text-anchor="end" font-family="Courier New, Courier, monospace" font-size="11" fill="#D8E8F0" font-weight="bold">16.41</text>
<text x="420" y="80" text-anchor="end" font-family="Courier New, Courier, monospace" font-size="11" fill="#FF3C3C" font-weight="bold">+1.30%</text>
<text x="500" y="80" text-anchor="end" font-family="Courier New, Courier, monospace" font-size="10" fill="#FF3C3C" font-weight="bold">NORMAL</text>
<polyline points="516.0,75.5 521.4,77.1 526.7,73.3 532.1,74.8 537.4,71.0 542.8,71.9 548.1,70.7 553.5,73.0 558.8,70.0 564.2,65.0 569.5,65.6 574.9,73.1 580.2,74.1 585.6,75.0 591.0,74.6 596.3,72.4 601.7,79.0 607.0,81.2 612.4,81.5 617.7,81.7 623.1,82.7 628.4,83.0 633.8,83.3 639.1,84.0 644.5,82.0 649.8,81.2 655.2,82.0 660.6,81.4 665.9,82.3 671.3,83.2 676.6,83.5 682.0,82.1 687.3,84.8 692.7,84.7 698.0,82.8 703.4,84.1 708.7,84.1 714.1,84.5 719.4,84.4 724.8,82.7 730.2,83.3 735.5,83.4 740.9,84.3 746.2,82.7 751.6,83.5 756.9,83.2 762.3,84.0 767.6,85.0 773.0,85.1 778.3,85.2 783.7,84.6 789.0,85.6 794.4,86.4 799.8,87.0 805.1,86.0 810.5,86.4 815.8,86.0 821.2,86.9 826.5,78.3 831.9,82.0 837.2,80.6 842.6,77.3 847.9,81.2 853.3,83.7 858.6,85.8 864.0,85.5" fill="none" stroke="#FF3C3C" stroke-width="1.5" stroke-linejoin="round" stroke-linecap="round"/>
<line x1="0" y1="92" x2="880" y2="92" stroke="#E8A000" stroke-width="0.5" />
<rect x="0" y="92" width="880" height="32" fill="#FFFFFF" opacity="0.02"/>
<text x="16" y="112" text-anchor="start" font-family="Courier New, Courier, monospace" font-size="10" fill="#FFA020" font-weight="bold">IBOV</text>
<text x="72" y="112" text-anchor="start" font-family="Courier New, Courier, monospace" font-size="10" fill="#E8A000" >IBOVESPA</text>
<text x="340" y="112" text-anchor="end" font-family="Courier New, Courier, monospace" font-size="11" fill="#D8E8F0" font-weight="bold">169,648</text>
<text x="420" y="112" text-anchor="end" font-family="Courier New, Courier, monospace" font-size="11" fill="#FF3C3C" >-0.45%</text>
<text x="500" y="112" text-anchor="end" font-family="Courier New, Courier, monospace" font-size="11" fill="#00C878" >+5.67%</text>
<polyline points="516.0,110.8 521.6,110.4 527.2,110.9 532.8,110.5 538.5,113.4 544.1,109.2 549.7,108.8 555.3,106.7 560.9,108.7 566.5,109.5 572.1,108.8 577.7,105.2 583.4,104.8 589.0,104.8 594.6,104.7 600.2,104.6 605.8,101.7 611.4,99.6 617.0,98.0 622.6,97.5 628.3,97.0 633.9,97.7 639.5,98.3 645.1,99.1 650.7,98.8 656.3,101.2 661.9,102.3 667.5,102.8 673.2,103.6 678.8,104.4 684.4,107.2 690.0,105.3 695.6,106.6 701.2,105.7 706.8,105.0 712.5,108.3 718.1,107.7 723.7,109.3 729.3,110.4 734.9,112.8 740.5,111.9 746.1,112.7 751.7,112.9 757.4,114.9 763.0,112.6 768.6,112.4 774.2,113.4 779.8,112.6 785.4,113.2 791.0,113.8 796.6,114.3 802.3,115.2 807.9,116.4 813.5,114.9 819.1,117.7 824.7,118.7 830.3,119.0 835.9,118.1 841.5,119.0 847.2,116.9 852.8,117.2 858.4,117.7 864.0,118.2" fill="none" stroke="#FF3C3C" stroke-width="1.5" stroke-linejoin="round" stroke-linecap="round"/>
<line x1="16" y1="124" x2="864" y2="124" stroke="#2A3A4A" stroke-width="0.3" />
<text x="16" y="144" text-anchor="start" font-family="Courier New, Courier, monospace" font-size="10" fill="#FFA020" font-weight="bold">SPY</text>
<text x="72" y="144" text-anchor="start" font-family="Courier New, Courier, monospace" font-size="10" fill="#E8A000" >S&amp;P 500</text>
<text x="340" y="144" text-anchor="end" font-family="Courier New, Courier, monospace" font-size="11" fill="#D8E8F0" font-weight="bold">750.33</text>
<text x="420" y="144" text-anchor="end" font-family="Courier New, Courier, monospace" font-size="11" fill="#FF3C3C" >-0.48%</text>
<text x="500" y="144" text-anchor="end" font-family="Courier New, Courier, monospace" font-size="11" fill="#00C878" >+10.13%</text>
<polyline points="516.0,144.6 521.5,146.2 527.0,146.5 532.6,148.1 538.1,147.0 543.6,147.3 549.1,146.7 554.7,148.7 560.2,150.6 565.7,151.0 571.2,147.8 576.8,147.0 582.3,146.9 587.8,146.4 593.3,146.3 598.9,143.4 604.4,142.7 609.9,142.8 615.4,141.7 621.0,140.2 626.5,139.3 632.0,139.0 637.5,137.5 643.0,137.8 648.6,138.6 654.1,137.3 659.6,137.8 665.1,136.9 670.7,136.7 676.2,137.3 681.7,137.3 687.2,136.1 692.8,135.7 698.3,136.2 703.8,135.2 709.3,133.4 714.9,133.8 720.4,132.8 725.9,132.5 731.4,132.7 737.0,132.0 742.5,131.0 748.0,132.5 753.5,132.6 759.0,133.5 764.6,132.2 770.1,131.9 775.6,131.4 781.1,130.5 786.7,130.6 792.2,129.9 797.7,129.5 803.2,129.2 808.8,129.0 814.3,129.9 819.8,129.4 825.3,132.8 830.9,132.5 836.4,132.9 841.9,134.9 847.4,132.8 853.0,132.1 858.5,129.8 864.0,130.6" fill="none" stroke="#FF3C3C" stroke-width="1.5" stroke-linejoin="round" stroke-linecap="round"/>
<line x1="16" y1="156" x2="864" y2="156" stroke="#2A3A4A" stroke-width="0.3" />
<rect x="0" y="156" width="880" height="32" fill="#FFFFFF" opacity="0.02"/>
<text x="16" y="176" text-anchor="start" font-family="Courier New, Courier, monospace" font-size="10" fill="#FFA020" font-weight="bold">QQQ</text>
<text x="72" y="176" text-anchor="start" font-family="Courier New, Courier, monospace" font-size="10" fill="#E8A000" >NASDAQ 100</text>
<text x="340" y="176" text-anchor="end" font-family="Courier New, Courier, monospace" font-size="11" fill="#D8E8F0" font-weight="bold">729.86</text>
<text x="420" y="176" text-anchor="end" font-family="Courier New, Courier, monospace" font-size="11" fill="#FF3C3C" >-1.75%</text>
<text x="500" y="176" text-anchor="end" font-family="Courier New, Courier, monospace" font-size="11" fill="#00C878" >+19.19%</text>
<polyline points="516.0,177.8 521.5,178.8 527.0,179.0 532.6,180.3 538.1,179.5 543.6,180.0 549.1,179.5 554.7,181.2 560.2,182.5 565.7,183.0 571.2,180.8 576.8,180.0 582.3,179.9 587.8,179.5 593.3,179.5 598.9,177.4 604.4,176.9 609.9,176.8 615.4,176.1 621.0,174.8 626.5,173.7 632.0,173.4 637.5,172.4 643.0,172.6 648.6,172.9 654.1,171.7 659.6,172.1 665.1,170.6 670.7,170.6 676.2,171.4 681.7,170.9 687.2,170.2 692.8,169.4 698.3,169.6 703.8,168.6 709.3,166.9 714.9,167.0 720.4,165.1 725.9,164.8 731.4,165.6 737.0,164.7 742.5,164.1 748.0,165.4 753.5,165.7 759.0,166.2 764.6,164.9 770.1,164.7 775.6,164.4 781.1,162.9 786.7,163.0 792.2,162.2 797.7,161.9 803.2,161.4 808.8,161.0 814.3,161.2 819.8,161.6 825.3,165.8 830.9,164.5 836.4,165.5 841.9,167.1 847.4,164.4 853.0,163.9 858.5,161.3 864.0,162.9" fill="none" stroke="#FF3C3C" stroke-width="1.5" stroke-linejoin="round" stroke-linecap="round"/>
<line x1="16" y1="188" x2="864" y2="188" stroke="#2A3A4A" stroke-width="0.3" />
<text x="16" y="208" text-anchor="start" font-family="Courier New, Courier, monospace" font-size="10" fill="#FFA020" font-weight="bold">QMOM</text>
<text x="72" y="208" text-anchor="start" font-family="Courier New, Courier, monospace" font-size="10" fill="#E8A000" >QUANT MOMENTUM</text>
<text x="340" y="208" text-anchor="end" font-family="Courier New, Courier, monospace" font-size="11" fill="#D8E8F0" font-weight="bold">78.83</text>
<text x="420" y="208" text-anchor="end" font-family="Courier New, Courier, monospace" font-size="11" fill="#FF3C3C" >-1.06%</text>
<text x="500" y="208" text-anchor="end" font-family="Courier New, Courier, monospace" font-size="11" fill="#00C878" >+18.56%</text>
<polyline points="516.0,209.0 521.5,210.0 527.0,209.7 532.6,212.8 538.1,210.7 543.6,209.5 549.1,208.2 554.7,211.7 560.2,212.3 565.7,215.0 571.2,210.1 576.8,208.3 582.3,208.5 587.8,208.3 593.3,208.1 598.9,203.8 604.4,203.2 609.9,203.1 615.4,202.2 621.0,201.4 626.5,202.1 632.0,201.9 637.5,199.9 643.0,199.8 648.6,201.0 654.1,200.1 659.6,199.7 665.1,199.7 670.7,200.0 676.2,202.3 681.7,203.3 687.2,199.3 692.8,199.6 698.3,199.4 703.8,198.1 709.3,194.7 714.9,198.5 720.4,196.9 725.9,195.3 731.4,196.2 737.0,195.3 742.5,195.1 748.0,198.6 753.5,200.2 759.0,201.4 764.6,199.3 770.1,198.7 775.6,198.4 781.1,195.4 786.7,196.1 792.2,195.2 797.7,194.6 803.2,194.8 808.8,193.0 814.3,193.4 819.8,193.7 825.3,199.2 830.9,198.5 836.4,199.7 841.9,202.0 847.4,197.6 853.0,196.3 858.5,195.6 864.0,196.7" fill="none" stroke="#FF3C3C" stroke-width="1.5" stroke-linejoin="round" stroke-linecap="round"/>
<line x1="16" y1="220" x2="864" y2="220" stroke="#2A3A4A" stroke-width="0.3" />
<rect x="0" y="220" width="880" height="32" fill="#FFFFFF" opacity="0.02"/>
<text x="16" y="240" text-anchor="start" font-family="Courier New, Courier, monospace" font-size="10" fill="#FFA020" font-weight="bold">MTUM</text>
<text x="72" y="240" text-anchor="start" font-family="Courier New, Courier, monospace" font-size="10" fill="#E8A000" >MOMENTUM FACTOR</text>
<text x="340" y="240" text-anchor="end" font-family="Courier New, Courier, monospace" font-size="11" fill="#D8E8F0" font-weight="bold">326.05</text>
<text x="420" y="240" text-anchor="end" font-family="Courier New, Courier, monospace" font-size="11" fill="#FF3C3C" >-2.24%</text>
<text x="500" y="240" text-anchor="end" font-family="Courier New, Courier, monospace" font-size="11" fill="#00C878" >+29.27%</text>
<polyline points="516.0,243.3 521.5,243.7 527.0,243.6 532.6,244.7 538.1,244.1 543.6,243.9 549.1,243.5 554.7,245.4 560.2,245.9 565.7,247.0 571.2,245.0 576.8,243.9 582.3,243.8 587.8,243.4 593.3,243.1 598.9,240.8 604.4,240.3 609.9,240.0 615.4,239.5 621.0,238.6 626.5,238.6 632.0,238.5 637.5,237.7 643.0,237.9 648.6,238.3 654.1,237.4 659.6,237.4 665.1,236.3 670.7,236.3 676.2,237.3 681.7,237.0 687.2,235.7 692.8,235.4 698.3,235.6 703.8,234.1 709.3,232.4 714.9,233.5 720.4,231.9 725.9,230.8 731.4,231.6 737.0,231.1 742.5,230.7 748.0,232.6 753.5,233.5 759.0,233.8 764.6,232.3 770.1,231.8 775.6,231.5 781.1,229.3 786.7,229.4 792.2,229.1 797.7,228.9 803.2,228.6 808.8,226.7 814.3,226.0 819.8,226.7 825.3,230.9 830.9,229.0 836.4,229.8 841.9,231.2 847.4,228.2 853.0,227.0 858.5,225.0 864.0,226.6" fill="none" stroke="#FF3C3C" stroke-width="1.5" stroke-linejoin="round" stroke-linecap="round"/>
<line x1="16" y1="252" x2="864" y2="252" stroke="#2A3A4A" stroke-width="0.3" />
<text x="16" y="272" text-anchor="start" font-family="Courier New, Courier, monospace" font-size="10" fill="#FFA020" font-weight="bold">QUAL</text>
<text x="72" y="272" text-anchor="start" font-family="Courier New, Courier, monospace" font-size="10" fill="#E8A000" >QUALITY FACTOR</text>
<text x="340" y="272" text-anchor="end" font-family="Courier New, Courier, monospace" font-size="11" fill="#D8E8F0" font-weight="bold">217.76</text>
<text x="420" y="272" text-anchor="end" font-family="Courier New, Courier, monospace" font-size="11" fill="#FF3C3C" >-0.89%</text>
<text x="500" y="272" text-anchor="end" font-family="Courier New, Courier, monospace" font-size="11" fill="#00C878" >+9.75%</text>
<polyline points="516.0,272.1 521.5,274.0 527.0,273.9 532.6,275.4 538.1,274.0 543.6,274.5 549.1,273.9 554.7,276.6 560.2,278.5 565.7,279.0 571.2,275.5 576.8,274.8 582.3,274.6 587.8,274.0 593.3,274.4 598.9,270.7 604.4,269.9 609.9,270.4 615.4,269.2 621.0,267.8 626.5,267.1 632.0,267.1 637.5,265.4 643.0,265.6 648.6,266.4 654.1,265.3 659.6,266.1 665.1,265.1 670.7,265.2 676.2,266.1 681.7,266.2 687.2,265.2 692.8,265.3 698.3,266.0 703.8,265.0 709.3,263.3 714.9,263.7 720.4,263.1 725.9,263.0 731.4,263.1 737.0,262.7 742.5,261.8 748.0,263.1 753.5,262.8 759.0,263.7 764.6,261.9 770.1,261.6 775.6,260.5 781.1,259.5 786.7,259.9 792.2,259.5 797.7,259.7 803.2,259.4 808.8,259.5 814.3,259.6 819.8,258.5 825.3,261.3 830.9,260.8 836.4,260.6 841.9,261.8 847.4,259.5 853.0,258.8 858.5,257.0 864.0,258.0" fill="none" stroke="#FF3C3C" stroke-width="1.5" stroke-linejoin="round" stroke-linecap="round"/>
<line x1="16" y1="284" x2="864" y2="284" stroke="#2A3A4A" stroke-width="0.3" />
<line x1="0" y1="284" x2="880" y2="284" stroke="#E8A000" stroke-width="0.4" />
<text x="16" y="297" text-anchor="start" font-family="Courier New, Courier, monospace" font-size="8" fill="#506070" >SRC: YAHOO FINANCE  ·  AUTO-UPDATE 22:00 UTC WEEKDAYS  ·  GITHUB.COM/YANKRUZISKI</text>
<text x="864" y="297" text-anchor="end" font-family="Courier New, Courier, monospace" font-size="8" fill="#506070" >2026-06-16</text>
</svg>