<svg xmlns="http://www.w3.org/2000/svg" width="880" height="302" viewBox="0 0 880 302">
<rect width="880" height="302" fill="#040810"/>
<rect x="0.5" y="0.5" width="879" height="301" fill="none" stroke="#E8A000" stroke-width="0.7" opacity="0.5"/>
<rect x="0" y="0" width="880" height="18" fill="#D87000"/>
<text x="16" y="14" text-anchor="start" font-family="Courier New, Courier, monospace" font-size="9" fill="#030608" font-weight="bold">BLOOMBERG</text>
<text x="88" y="14" text-anchor="start" font-family="Courier New, Courier, monospace" font-size="9" fill="#030608" >QUANT MARKET MONITOR</text>
<text x="440" y="14" text-anchor="middle" font-family="Courier New, Courier, monospace" font-size="9" fill="#030608" >EQUITY  &amp;  VOLATILITY  DASHBOARD</text>
<text x="864" y="14" text-anchor="end" font-family="Courier New, Courier, monospace" font-size="9" fill="#030608" >2026-06-18  22:41 UTC</text>
<line x1="0" y1="38" x2="880" y2="38" stroke="#E8A000" stroke-width="0.8" />
<text x="16" y="33" text-anchor="start" font-family="Courier New, Courier, monospace" font-size="9" fill="#506070" >YAN KRUZISKI  ·  VP OF INTELI RESEARCH  ·  SÃO PAULO, BR</text>
<text x="864" y="33" text-anchor="end" font-family="Courier New, Courier, monospace" font-size="9" fill="#506070" >PAGE 1/1</text>
<rect x="0" y="38" width="880" height="22" fill="#E8A000" opacity="0.14"/>
<text x="16" y="54" text-anchor="start" font-family="Courier New, Courier, monospace" font-size="9" fill="#FFA020" font-weight="bold">TICKER</text>
<text x="72" y="54" text-anchor="start" font-family="Courier New, Courier, monospace" font-size="9" fill="#FFA020" font-weight="bold">DESCRIPTION</text>
<text x="340" y="54" text-anchor="end" font-family="Courier New, Courier, monospace" font-size="9" fill="#FFA020" font-weight="bold">LAST</text>
<text x="420" y="54" text-anchor="end" font-family="Courier New, Courier, monospace" font-size="9" fill="#FFA020" font-weight="bold">%CHG</text>
<text x="500" y="54" text-anchor="end" font-family="Courier New, Courier, monospace" font-size="9" fill="#FFA020" font-weight="bold">YTD%</text>
<text x="690" y="54" text-anchor="middle" font-family="Courier New, Courier, monospace" font-size="9" fill="#FFA020" font-weight="bold">3-MONTH</text>
<line x1="0" y1="60" x2="880" y2="60" stroke="#E8A000" stroke-width="0.9" />
<rect x="0" y="60" width="880" height="32" fill="#E8A000" opacity="0.09"/>
<text x="16" y="80" text-anchor="start" font-family="Courier New, Courier, monospace" font-size="10" fill="#FFA020" font-weight="bold">^VIX</text>
<text x="72" y="80" text-anchor="start" font-family="Courier New, Courier, monospace" font-size="10" fill="#E8A000" font-weight="bold">CBOE VOLATILITY INDEX</text>
<text x="340" y="80" text-anchor="end" font-family="Courier New, Courier, monospace" font-size="11" fill="#D8E8F0" font-weight="bold">16.40</text>
<text x="420" y="80" text-anchor="end" font-family="Courier New, Courier, monospace" font-size="11" fill="#00C878" font-weight="bold">-11.01%</text>
<text x="500" y="80" text-anchor="end" font-family="Courier New, Courier, monospace" font-size="10" fill="#00C878" font-weight="bold">NORMAL</text>
<polyline points="516.0,73.3 521.4,74.8 526.7,71.0 532.1,71.9 537.4,70.7 542.8,73.0 548.1,70.0 553.5,65.0 558.8,65.6 564.2,73.1 569.5,74.1 574.9,75.0 580.2,74.6 585.6,72.4 591.0,79.0 596.3,81.2 601.7,81.5 607.0,81.7 612.4,82.7 617.7,83.0 623.1,83.3 628.4,84.0 633.8,82.0 639.1,81.2 644.5,82.0 649.8,81.4 655.2,82.3 660.6,83.2 665.9,83.5 671.3,82.1 676.6,84.8 682.0,84.7 687.3,82.8 692.7,84.1 698.0,84.1 703.4,84.5 708.7,84.4 714.1,82.7 719.4,83.3 724.8,83.4 730.2,84.3 735.5,82.7 740.9,83.5 746.2,83.2 751.6,84.0 756.9,85.0 762.3,85.1 767.6,85.2 773.0,84.6 778.3,85.6 783.7,86.4 789.0,87.0 794.4,86.0 799.8,86.4 805.1,86.0 810.5,86.9 815.8,78.3 821.2,82.0 826.5,80.6 831.9,77.3 837.2,81.2 842.6,83.7 847.9,85.8 853.3,85.5 858.6,82.6 864.0,85.5" fill="none" stroke="#00C878" stroke-width="1.5" stroke-linejoin="round" stroke-linecap="round"/>
<line x1="0" y1="92" x2="880" y2="92" stroke="#E8A000" stroke-width="0.5" />
<rect x="0" y="92" width="880" height="32" fill="#FFFFFF" opacity="0.02"/>
<text x="16" y="112" text-anchor="start" font-family="Courier New, Courier, monospace" font-size="10" fill="#FFA020" font-weight="bold">IBOV</text>
<text x="72" y="112" text-anchor="start" font-family="Courier New, Courier, monospace" font-size="10" fill="#E8A000" >IBOVESPA</text>
<text x="340" y="112" text-anchor="end" font-family="Courier New, Courier, monospace" font-size="11" fill="#D8E8F0" font-weight="bold">168,278</text>
<text x="420" y="112" text-anchor="end" font-family="Courier New, Courier, monospace" font-size="11" fill="#FF3C3C" >-0.10%</text>
<text x="500" y="112" text-anchor="end" font-family="Courier New, Courier, monospace" font-size="11" fill="#00C878" >+4.82%</text>
<polyline points="516.0,110.8 521.6,110.3 527.2,113.2 532.8,109.1 538.5,108.7 544.1,106.6 549.7,108.5 555.3,109.4 560.9,108.7 566.5,105.1 572.1,104.8 577.7,104.7 583.4,104.6 589.0,104.5 594.6,101.7 600.2,99.6 605.8,98.0 611.4,97.5 617.0,97.0 622.6,97.7 628.3,98.3 633.9,99.1 639.5,98.8 645.1,101.2 650.7,102.3 656.3,102.7 661.9,103.6 667.5,104.3 673.2,107.1 678.8,105.2 684.4,106.5 690.0,105.6 695.6,104.9 701.2,108.2 706.8,107.5 712.5,109.1 718.1,110.3 723.7,112.6 729.3,111.7 734.9,112.5 740.5,112.7 746.1,114.7 751.7,112.4 757.4,112.2 763.0,113.3 768.6,112.4 774.2,113.0 779.8,113.6 785.4,114.1 791.0,115.0 796.6,116.2 802.3,114.7 807.9,117.5 813.5,118.5 819.1,118.7 824.7,117.9 830.3,118.8 835.9,116.7 841.5,116.9 847.2,117.5 852.8,118.0 858.4,118.9 864.0,119.0" fill="none" stroke="#FF3C3C" stroke-width="1.5" stroke-linejoin="round" stroke-linecap="round"/>
<line x1="16" y1="124" x2="864" y2="124" stroke="#2A3A4A" stroke-width="0.3" />
<text x="16" y="144" text-anchor="start" font-family="Courier New, Courier, monospace" font-size="10" fill="#FFA020" font-weight="bold">SPY</text>
<text x="72" y="144" text-anchor="start" font-family="Courier New, Courier, monospace" font-size="10" fill="#E8A000" >S&amp;P 500</text>
<text x="340" y="144" text-anchor="end" font-family="Courier New, Courier, monospace" font-size="11" fill="#D8E8F0" font-weight="bold">746.74</text>
<text x="420" y="144" text-anchor="end" font-family="Courier New, Courier, monospace" font-size="11" fill="#00C878" >+0.15%</text>
<text x="500" y="144" text-anchor="end" font-family="Courier New, Courier, monospace" font-size="11" fill="#00C878" >+9.60%</text>
<polyline points="516.0,146.5 521.5,148.1 527.0,147.0 532.6,147.3 538.1,146.7 543.6,148.7 549.1,150.6 554.7,151.0 560.2,147.8 565.7,147.0 571.2,146.9 576.8,146.4 582.3,146.3 587.8,143.4 593.3,142.7 598.9,142.8 604.4,141.7 609.9,140.2 615.4,139.3 621.0,139.0 626.5,137.5 632.0,137.8 637.5,138.6 643.0,137.3 648.6,137.8 654.1,136.9 659.6,136.7 665.1,137.3 670.7,137.3 676.2,136.1 681.7,135.7 687.2,136.2 692.8,135.2 698.3,133.4 703.8,133.8 709.3,132.8 714.9,132.5 720.4,132.7 725.9,132.0 731.4,131.0 737.0,132.5 742.5,132.6 748.0,133.5 753.5,132.2 759.0,131.9 764.6,131.4 770.1,130.5 775.6,130.6 781.1,129.9 786.7,129.5 792.2,129.2 797.7,129.0 803.2,129.9 808.8,129.4 814.3,132.8 819.8,132.5 825.3,132.9 830.9,134.9 836.4,132.8 841.9,132.1 847.4,129.8 853.0,130.6 858.5,132.2 864.0,131.2" fill="none" stroke="#00C878" stroke-width="1.5" stroke-linejoin="round" stroke-linecap="round"/>
<line x1="16" y1="156" x2="864" y2="156" stroke="#2A3A4A" stroke-width="0.3" />
<rect x="0" y="156" width="880" height="32" fill="#FFFFFF" opacity="0.02"/>
<text x="16" y="176" text-anchor="start" font-family="Courier New, Courier, monospace" font-size="10" fill="#FFA020" font-weight="bold">QQQ</text>
<text x="72" y="176" text-anchor="start" font-family="Courier New, Courier, monospace" font-size="10" fill="#E8A000" >NASDAQ 100</text>
<text x="340" y="176" text-anchor="end" font-family="Courier New, Courier, monospace" font-size="11" fill="#D8E8F0" font-weight="bold">740.62</text>
<text x="420" y="176" text-anchor="end" font-family="Courier New, Courier, monospace" font-size="11" fill="#00C878" >+1.46%</text>
<text x="500" y="176" text-anchor="end" font-family="Courier New, Courier, monospace" font-size="11" fill="#00C878" >+20.95%</text>
<polyline points="516.0,179.0 521.5,180.3 527.0,179.5 532.6,180.0 538.1,179.5 543.6,181.2 549.1,182.5 554.7,183.0 560.2,180.8 565.7,180.0 571.2,179.9 576.8,179.5 582.3,179.5 587.8,177.4 593.3,176.9 598.9,176.8 604.4,176.1 609.9,174.8 615.4,173.7 621.0,173.4 626.5,172.4 632.0,172.6 637.5,172.9 643.0,171.7 648.6,172.1 654.1,170.6 659.6,170.6 665.1,171.4 670.7,170.9 676.2,170.2 681.7,169.4 687.2,169.6 692.8,168.6 698.3,166.9 703.8,167.0 709.3,165.1 714.9,164.8 720.4,165.6 725.9,164.7 731.4,164.1 737.0,165.4 742.5,165.7 748.0,166.2 753.5,164.9 759.0,164.7 764.6,164.4 770.1,162.9 775.6,163.0 781.1,162.2 786.7,161.9 792.2,161.4 797.7,161.0 803.2,161.2 808.8,161.6 814.3,165.8 819.8,164.5 825.3,165.5 830.9,167.1 836.4,164.4 841.9,163.9 847.4,161.3 853.0,162.9 858.5,163.8 864.0,161.6" fill="none" stroke="#00C878" stroke-width="1.5" stroke-linejoin="round" stroke-linecap="round"/>
<line x1="16" y1="188" x2="864" y2="188" stroke="#2A3A4A" stroke-width="0.3" />
<text x="16" y="208" text-anchor="start" font-family="Courier New, Courier, monospace" font-size="10" fill="#FFA020" font-weight="bold">QMOM</text>
<text x="72" y="208" text-anchor="start" font-family="Courier New, Courier, monospace" font-size="10" fill="#E8A000" >QUANT MOMENTUM</text>
<text x="340" y="208" text-anchor="end" font-family="Courier New, Courier, monospace" font-size="11" fill="#D8E8F0" font-weight="bold">78.82</text>
<text x="420" y="208" text-anchor="end" font-family="Courier New, Courier, monospace" font-size="11" fill="#FF3C3C" >-0.07%</text>
<text x="500" y="208" text-anchor="end" font-family="Courier New, Courier, monospace" font-size="11" fill="#00C878" >+18.54%</text>
<polyline points="516.0,209.7 521.5,212.8 527.0,210.7 532.6,209.5 538.1,208.2 543.6,211.7 549.1,212.3 554.7,215.0 560.2,210.1 565.7,208.3 571.2,208.5 576.8,208.3 582.3,208.1 587.8,203.8 593.3,203.2 598.9,203.1 604.4,202.2 609.9,201.4 615.4,202.1 621.0,201.9 626.5,199.9 632.0,199.8 637.5,201.0 643.0,200.1 648.6,199.7 654.1,199.7 659.6,200.0 665.1,202.3 670.7,203.3 676.2,199.3 681.7,199.6 687.2,199.4 692.8,198.1 698.3,194.7 703.8,198.5 709.3,196.9 714.9,195.3 720.4,196.2 725.9,195.3 731.4,195.1 737.0,198.6 742.5,200.2 748.0,201.4 753.5,199.3 759.0,198.7 764.6,198.4 770.1,195.4 775.6,196.1 781.1,195.2 786.7,194.6 792.2,194.8 797.7,193.0 803.2,193.4 808.8,193.7 814.3,199.2 819.8,198.5 825.3,199.7 830.9,202.0 836.4,197.6 841.9,196.3 847.4,195.6 853.0,196.7 858.5,197.3 864.0,196.7" fill="none" stroke="#FF3C3C" stroke-width="1.5" stroke-linejoin="round" stroke-linecap="round"/>
<line x1="16" y1="220" x2="864" y2="220" stroke="#2A3A4A" stroke-width="0.3" />
<rect x="0" y="220" width="880" height="32" fill="#FFFFFF" opacity="0.02"/>
<text x="16" y="240" text-anchor="start" font-family="Courier New, Courier, monospace" font-size="10" fill="#FFA020" font-weight="bold">MTUM</text>
<text x="72" y="240" text-anchor="start" font-family="Courier New, Courier, monospace" font-size="10" fill="#E8A000" >MOMENTUM FACTOR</text>
<text x="340" y="240" text-anchor="end" font-family="Courier New, Courier, monospace" font-size="11" fill="#D8E8F0" font-weight="bold">338.52</text>
<text x="420" y="240" text-anchor="end" font-family="Courier New, Courier, monospace" font-size="11" fill="#00C878" >+1.81%</text>
<text x="500" y="240" text-anchor="end" font-family="Courier New, Courier, monospace" font-size="11" fill="#00C878" >+34.21%</text>
<polyline points="516.0,243.7 521.5,244.8 527.0,244.2 532.6,244.0 538.1,243.7 543.6,245.5 549.1,246.0 554.7,247.0 560.2,245.1 565.7,244.1 571.2,243.9 576.8,243.6 582.3,243.2 587.8,241.1 593.3,240.6 598.9,240.4 604.4,239.8 609.9,239.0 615.4,239.0 621.0,238.9 626.5,238.1 632.0,238.3 637.5,238.7 643.0,237.8 648.6,237.8 654.1,236.8 659.6,236.8 665.1,237.8 670.7,237.4 676.2,236.2 681.7,235.9 687.2,236.1 692.8,234.7 698.3,233.1 703.8,234.2 709.3,232.5 714.9,231.6 720.4,232.3 725.9,231.8 731.4,231.4 737.0,233.3 742.5,234.1 748.0,234.4 753.5,233.0 759.0,232.5 764.6,232.2 770.1,230.1 775.6,230.2 781.1,229.9 786.7,229.7 792.2,229.5 797.7,227.6 803.2,226.9 808.8,227.6 814.3,231.6 819.8,229.8 825.3,230.5 830.9,231.9 836.4,229.0 841.9,227.9 847.4,226.0 853.0,227.5 858.5,227.1 864.0,225.0" fill="none" stroke="#00C878" stroke-width="1.5" stroke-linejoin="round" stroke-linecap="round"/>
<line x1="16" y1="252" x2="864" y2="252" stroke="#2A3A4A" stroke-width="0.3" />
<text x="16" y="272" text-anchor="start" font-family="Courier New, Courier, monospace" font-size="10" fill="#FFA020" font-weight="bold">QUAL</text>
<text x="72" y="272" text-anchor="start" font-family="Courier New, Courier, monospace" font-size="10" fill="#E8A000" >QUALITY FACTOR</text>
<text x="340" y="272" text-anchor="end" font-family="Courier New, Courier, monospace" font-size="11" fill="#D8E8F0" font-weight="bold">215.89</text>
<text x="420" y="272" text-anchor="end" font-family="Courier New, Courier, monospace" font-size="11" fill="#00C878" >+0.18%</text>
<text x="500" y="272" text-anchor="end" font-family="Courier New, Courier, monospace" font-size="11" fill="#00C878" >+8.81%</text>
<polyline points="516.0,273.9 521.5,275.4 527.0,274.0 532.6,274.5 538.1,273.9 543.6,276.6 549.1,278.5 554.7,279.0 560.2,275.5 565.7,274.8 571.2,274.6 576.8,274.0 582.3,274.4 587.8,270.7 593.3,269.9 598.9,270.4 604.4,269.2 609.9,267.8 615.4,267.1 621.0,267.1 626.5,265.4 632.0,265.6 637.5,266.4 643.0,265.3 648.6,266.1 654.1,265.1 659.6,265.2 665.1,266.1 670.7,266.2 676.2,265.2 681.7,265.3 687.2,266.0 692.8,265.0 698.3,263.3 703.8,263.7 709.3,263.1 714.9,263.0 720.4,263.1 725.9,262.7 731.4,261.8 737.0,263.1 742.5,262.8 748.0,263.7 753.5,261.9 759.0,261.6 764.6,260.5 770.1,259.5 775.6,259.9 781.1,259.5 786.7,259.7 792.2,259.4 797.7,259.5 803.2,259.6 808.8,258.5 814.3,261.3 819.8,260.8 825.3,260.6 830.9,261.8 836.4,259.5 841.9,258.8 847.4,257.0 853.0,258.0 858.5,260.2 864.0,259.2" fill="none" stroke="#00C878" stroke-width="1.5" stroke-linejoin="round" stroke-linecap="round"/>
<line x1="16" y1="284" x2="864" y2="284" stroke="#2A3A4A" stroke-width="0.3" />
<line x1="0" y1="284" x2="880" y2="284" stroke="#E8A000" stroke-width="0.4" />
<text x="16" y="297" text-anchor="start" font-family="Courier New, Courier, monospace" font-size="8" fill="#506070" >SRC: YAHOO FINANCE  ·  AUTO-UPDATE 22:00 UTC WEEKDAYS  ·  GITHUB.COM/YANKRUZISKI</text>
<text x="864" y="297" text-anchor="end" font-family="Courier New, Courier, monospace" font-size="8" fill="#506070" >2026-06-18</text>
</svg>