<svg xmlns="http://www.w3.org/2000/svg" width="880" height="302" viewBox="0 0 880 302">
<rect width="880" height="302" fill="#040810"/>
<rect x="0.5" y="0.5" width="879" height="301" fill="none" stroke="#E8A000" stroke-width="0.7" opacity="0.5"/>
<rect x="0" y="0" width="880" height="18" fill="#D87000"/>
<text x="16" y="14" text-anchor="start" font-family="Courier New, Courier, monospace" font-size="9" fill="#030608" font-weight="bold">BLOOMBERG</text>
<text x="88" y="14" text-anchor="start" font-family="Courier New, Courier, monospace" font-size="9" fill="#030608" >QUANT MARKET MONITOR</text>
<text x="440" y="14" text-anchor="middle" font-family="Courier New, Courier, monospace" font-size="9" fill="#030608" >EQUITY  &amp;  VOLATILITY  DASHBOARD</text>
<text x="864" y="14" text-anchor="end" font-family="Courier New, Courier, monospace" font-size="9" fill="#030608" >2026-05-11  22:26 UTC</text>
<line x1="0" y1="38" x2="880" y2="38" stroke="#E8A000" stroke-width="0.8" />
<text x="16" y="33" text-anchor="start" font-family="Courier New, Courier, monospace" font-size="9" fill="#506070" >YAN KRUZISKI  ·  VP OF INTELI RESEARCH  ·  SÃO PAULO, BR</text>
<text x="864" y="33" text-anchor="end" font-family="Courier New, Courier, monospace" font-size="9" fill="#506070" >PAGE 1/1</text>
<rect x="0" y="38" width="880" height="22" fill="#E8A000" opacity="0.14"/>
<text x="16" y="54" text-anchor="start" font-family="Courier New, Courier, monospace" font-size="9" fill="#FFA020" font-weight="bold">TICKER</text>
<text x="72" y="54" text-anchor="start" font-family="Courier New, Courier, monospace" font-size="9" fill="#FFA020" font-weight="bold">DESCRIPTION</text>
<text x="340" y="54" text-anchor="end" font-family="Courier New, Courier, monospace" font-size="9" fill="#FFA020" font-weight="bold">LAST</text>
<text x="420" y="54" text-anchor="end" font-family="Courier New, Courier, monospace" font-size="9" fill="#FFA020" font-weight="bold">%CHG</text>
<text x="500" y="54" text-anchor="end" font-family="Courier New, Courier, monospace" font-size="9" fill="#FFA020" font-weight="bold">YTD%</text>
<text x="690" y="54" text-anchor="middle" font-family="Courier New, Courier, monospace" font-size="9" fill="#FFA020" font-weight="bold">3-MONTH</text>
<line x1="0" y1="60" x2="880" y2="60" stroke="#E8A000" stroke-width="0.9" />
<rect x="0" y="60" width="880" height="32" fill="#E8A000" opacity="0.09"/>
<text x="16" y="80" text-anchor="start" font-family="Courier New, Courier, monospace" font-size="10" fill="#FFA020" font-weight="bold">^VIX</text>
<text x="72" y="80" text-anchor="start" font-family="Courier New, Courier, monospace" font-size="10" fill="#E8A000" font-weight="bold">CBOE VOLATILITY INDEX</text>
<text x="340" y="80" text-anchor="end" font-family="Courier New, Courier, monospace" font-size="11" fill="#D8E8F0" font-weight="bold">18.38</text>
<text x="420" y="80" text-anchor="end" font-family="Courier New, Courier, monospace" font-size="11" fill="#FF3C3C" font-weight="bold">+6.98%</text>
<text x="500" y="80" text-anchor="end" font-family="Courier New, Courier, monospace" font-size="10" fill="#FF3C3C" font-weight="bold">NORMAL</text>
<polyline points="516.0,85.8 521.7,80.9 527.4,81.2 533.1,81.7 538.8,82.8 544.5,81.8 550.2,83.6 555.9,80.6 561.6,82.9 567.3,85.4 573.0,84.3 578.8,82.4 584.5,79.9 590.2,76.6 595.9,80.4 601.6,76.3 607.3,67.4 613.0,73.6 618.7,74.5 624.4,75.6 630.1,70.8 635.8,71.0 641.5,76.7 647.2,78.5 652.9,74.3 658.6,75.9 664.3,71.6 670.0,72.6 675.7,71.4 681.4,73.9 687.1,70.6 692.9,65.0 698.6,65.7 704.3,74.0 710.0,75.1 715.7,76.2 721.4,75.7 727.1,73.2 732.8,80.6 738.5,83.0 744.2,83.4 749.9,83.5 755.6,84.7 761.3,85.0 767.0,85.4 772.7,86.1 778.4,83.9 784.1,82.9 789.8,83.8 795.5,83.2 801.2,84.2 807.0,85.2 812.7,85.5 818.4,84.0 824.1,87.0 829.8,86.8 835.5,84.8 841.2,86.2 846.9,86.2 852.6,86.7 858.3,86.5 864.0,84.7" fill="none" stroke="#FF3C3C" stroke-width="1.5" stroke-linejoin="round" stroke-linecap="round"/>
<line x1="0" y1="92" x2="880" y2="92" stroke="#E8A000" stroke-width="0.5" />
<rect x="0" y="92" width="880" height="32" fill="#FFFFFF" opacity="0.02"/>
<text x="16" y="112" text-anchor="start" font-family="Courier New, Courier, monospace" font-size="10" fill="#FFA020" font-weight="bold">IBOV</text>
<text x="72" y="112" text-anchor="start" font-family="Courier New, Courier, monospace" font-size="10" fill="#E8A000" >IBOVESPA</text>
<text x="340" y="112" text-anchor="end" font-family="Courier New, Courier, monospace" font-size="11" fill="#D8E8F0" font-weight="bold">181,909</text>
<text x="420" y="112" text-anchor="end" font-family="Courier New, Courier, monospace" font-size="11" fill="#FF3C3C" >-1.19%</text>
<text x="500" y="112" text-anchor="end" font-family="Courier New, Courier, monospace" font-size="11" fill="#00C878" >+13.31%</text>
<polyline points="516.0,105.8 522.0,107.7 528.0,109.0 534.0,109.4 540.0,106.9 546.0,105.0 552.0,106.6 558.0,104.0 564.0,104.3 570.0,104.5 576.0,106.7 582.0,106.2 588.0,112.2 594.0,110.0 600.0,114.8 606.0,115.9 612.0,114.4 618.0,111.9 624.0,111.4 630.0,116.0 636.0,117.6 642.0,115.4 648.0,114.9 654.0,115.6 660.0,115.0 666.0,119.0 672.0,113.4 678.0,112.8 684.0,110.0 690.0,112.6 696.0,113.8 702.0,112.8 708.0,108.0 714.0,107.5 720.0,107.4 726.0,107.3 732.0,107.2 738.0,103.3 744.0,100.5 750.0,98.3 756.0,97.6 762.0,97.0 768.0,97.9 774.0,98.8 780.0,99.9 786.0,99.5 792.0,102.7 798.0,104.1 804.0,104.8 810.0,105.9 816.0,106.8 822.0,110.6 828.0,108.1 834.0,109.8 840.0,108.7 846.0,107.8 852.0,112.1 858.0,111.3 864.0,113.4" fill="none" stroke="#FF3C3C" stroke-width="1.5" stroke-linejoin="round" stroke-linecap="round"/>
<line x1="16" y1="124" x2="864" y2="124" stroke="#2A3A4A" stroke-width="0.3" />
<text x="16" y="144" text-anchor="start" font-family="Courier New, Courier, monospace" font-size="10" fill="#FFA020" font-weight="bold">SPY</text>
<text x="72" y="144" text-anchor="start" font-family="Courier New, Courier, monospace" font-size="10" fill="#E8A000" >S&P 500</text>
<text x="340" y="144" text-anchor="end" font-family="Courier New, Courier, monospace" font-size="11" fill="#D8E8F0" font-weight="bold">739.30</text>
<text x="420" y="144" text-anchor="end" font-family="Courier New, Courier, monospace" font-size="11" fill="#00C878" >+0.21%</text>
<text x="500" y="144" text-anchor="end" font-family="Courier New, Courier, monospace" font-size="11" fill="#00C878" >+8.51%</text>
<polyline points="516.0,141.3 521.8,141.2 527.6,141.0 533.4,140.2 539.2,140.6 545.0,139.6 550.8,141.0 556.6,140.0 562.4,138.8 568.2,139.6 574.0,140.3 579.8,140.2 585.6,141.5 591.4,140.5 597.2,141.3 603.0,143.1 608.8,141.9 614.6,142.1 620.4,142.3 626.2,144.4 632.0,145.2 637.8,143.8 643.6,143.4 649.4,145.3 655.2,145.7 661.0,147.6 666.8,146.2 672.6,146.7 678.4,145.9 684.2,148.3 690.0,150.6 695.8,151.0 701.6,147.2 707.4,146.2 713.2,146.1 719.0,145.5 724.8,145.4 730.6,142.0 736.4,141.2 742.2,141.3 748.0,139.9 753.8,138.2 759.6,137.1 765.4,136.7 771.2,135.0 777.0,135.3 782.8,136.2 788.6,134.8 794.4,135.3 800.2,134.2 806.0,133.9 811.8,134.7 817.6,134.7 823.4,133.2 829.2,132.8 835.0,133.4 840.8,132.2 846.6,130.1 852.4,130.6 858.2,129.3 864.0,129.0" fill="none" stroke="#00C878" stroke-width="1.5" stroke-linejoin="round" stroke-linecap="round"/>
<line x1="16" y1="156" x2="864" y2="156" stroke="#2A3A4A" stroke-width="0.3" />
<rect x="0" y="156" width="880" height="32" fill="#FFFFFF" opacity="0.02"/>
<text x="16" y="176" text-anchor="start" font-family="Courier New, Courier, monospace" font-size="10" fill="#FFA020" font-weight="bold">QQQ</text>
<text x="72" y="176" text-anchor="start" font-family="Courier New, Courier, monospace" font-size="10" fill="#E8A000" >NASDAQ 100</text>
<text x="340" y="176" text-anchor="end" font-family="Courier New, Courier, monospace" font-size="11" fill="#D8E8F0" font-weight="bold">713.29</text>
<text x="420" y="176" text-anchor="end" font-family="Courier New, Courier, monospace" font-size="11" fill="#00C878" >+0.17%</text>
<text x="500" y="176" text-anchor="end" font-family="Courier New, Courier, monospace" font-size="11" fill="#00C878" >+16.48%</text>
<polyline points="516.0,177.1 521.8,176.9 527.6,177.0 533.4,176.4 539.2,176.7 545.0,175.9 550.8,177.0 556.6,176.1 562.4,174.8 568.2,175.9 574.0,176.2 579.8,176.0 585.6,177.0 591.4,175.7 597.2,175.9 603.0,177.2 608.8,176.1 614.6,176.1 620.4,176.1 626.2,177.6 632.0,178.1 637.8,177.1 643.6,176.7 649.4,177.9 655.2,178.2 661.0,179.7 666.8,178.8 672.6,179.4 678.4,178.8 684.2,180.8 690.0,182.4 695.8,183.0 701.6,180.3 707.4,179.3 713.2,179.2 719.0,178.7 724.8,178.7 730.6,176.2 736.4,175.6 742.2,175.5 748.0,174.6 753.8,173.0 759.6,171.8 765.4,171.3 771.2,170.1 777.0,170.4 782.8,170.8 788.6,169.3 794.4,169.8 800.2,168.0 806.0,168.0 811.8,168.9 817.6,168.3 823.4,167.5 829.2,166.6 835.0,166.7 840.8,165.5 846.6,163.5 852.4,163.6 858.2,161.3 864.0,161.0" fill="none" stroke="#00C878" stroke-width="1.5" stroke-linejoin="round" stroke-linecap="round"/>
<line x1="16" y1="188" x2="864" y2="188" stroke="#2A3A4A" stroke-width="0.3" />
<text x="16" y="208" text-anchor="start" font-family="Courier New, Courier, monospace" font-size="10" fill="#FFA020" font-weight="bold">QMOM</text>
<text x="72" y="208" text-anchor="start" font-family="Courier New, Courier, monospace" font-size="10" fill="#E8A000" >QUANT MOMENTUM</text>
<text x="340" y="208" text-anchor="end" font-family="Courier New, Courier, monospace" font-size="11" fill="#D8E8F0" font-weight="bold">79.92</text>
<text x="420" y="208" text-anchor="end" font-family="Courier New, Courier, monospace" font-size="11" fill="#00C878" >+2.46%</text>
<text x="500" y="208" text-anchor="end" font-family="Courier New, Courier, monospace" font-size="11" fill="#00C878" >+20.20%</text>
<polyline points="516.0,208.0 521.8,206.4 527.6,206.1 533.4,205.3 539.2,204.6 545.0,203.8 550.8,205.0 556.6,203.2 562.4,202.8 568.2,202.3 574.0,203.0 579.8,202.0 585.6,206.0 591.4,205.2 597.2,208.1 603.0,210.3 608.8,207.6 614.6,206.9 620.4,207.7 626.2,209.9 632.0,211.6 637.8,209.3 643.6,208.5 649.4,209.6 655.2,209.3 661.0,212.6 666.8,210.4 672.6,209.0 678.4,207.6 684.2,211.4 690.0,212.0 695.8,215.0 701.6,209.7 707.4,207.7 713.2,208.0 719.0,207.7 724.8,207.5 730.6,202.9 736.4,202.3 742.2,202.1 748.0,201.1 753.8,200.2 759.6,201.1 765.4,200.8 771.2,198.6 777.0,198.5 782.8,199.9 788.6,198.9 794.4,198.5 800.2,198.4 806.0,198.8 811.8,201.3 817.6,202.3 823.4,198.0 829.2,198.3 835.0,198.1 840.8,196.6 846.6,193.0 852.4,197.1 858.2,195.3 864.0,193.6" fill="none" stroke="#00C878" stroke-width="1.5" stroke-linejoin="round" stroke-linecap="round"/>
<line x1="16" y1="220" x2="864" y2="220" stroke="#2A3A4A" stroke-width="0.3" />
<rect x="0" y="220" width="880" height="32" fill="#FFFFFF" opacity="0.02"/>
<text x="16" y="240" text-anchor="start" font-family="Courier New, Courier, monospace" font-size="10" fill="#FFA020" font-weight="bold">MTUM</text>
<text x="72" y="240" text-anchor="start" font-family="Courier New, Courier, monospace" font-size="10" fill="#E8A000" >MOMENTUM FACTOR</text>
<text x="340" y="240" text-anchor="end" font-family="Courier New, Courier, monospace" font-size="11" fill="#D8E8F0" font-weight="bold">306.66</text>
<text x="420" y="240" text-anchor="end" font-family="Courier New, Courier, monospace" font-size="11" fill="#00C878" >+2.20%</text>
<text x="500" y="240" text-anchor="end" font-family="Courier New, Courier, monospace" font-size="11" fill="#00C878" >+21.45%</text>
<polyline points="516.0,241.4 521.8,241.1 527.6,241.0 533.4,240.5 539.2,240.5 545.0,240.1 550.8,241.6 556.6,240.9 562.4,239.6 568.2,240.1 574.0,240.6 579.8,240.4 585.6,242.4 591.4,241.3 597.2,242.4 603.0,244.0 608.8,242.3 614.6,242.0 620.4,241.8 626.2,243.3 632.0,243.4 637.8,242.4 643.6,241.9 649.4,242.5 655.2,242.3 661.0,243.9 666.8,243.0 672.6,242.7 678.4,242.2 684.2,244.8 690.0,245.6 695.8,247.0 701.6,244.3 707.4,242.8 713.2,242.6 719.0,242.1 724.8,241.6 730.6,238.6 736.4,237.8 742.2,237.5 748.0,236.8 753.8,235.5 759.6,235.6 765.4,235.4 771.2,234.3 777.0,234.6 782.8,235.2 788.6,233.9 794.4,233.9 800.2,232.5 806.0,232.5 811.8,233.8 817.6,233.4 823.4,231.6 829.2,231.3 835.0,231.5 840.8,229.5 846.6,227.2 852.4,228.7 858.2,226.4 864.0,225.0" fill="none" stroke="#00C878" stroke-width="1.5" stroke-linejoin="round" stroke-linecap="round"/>
<line x1="16" y1="252" x2="864" y2="252" stroke="#2A3A4A" stroke-width="0.3" />
<text x="16" y="272" text-anchor="start" font-family="Courier New, Courier, monospace" font-size="10" fill="#FFA020" font-weight="bold">QUAL</text>
<text x="72" y="272" text-anchor="start" font-family="Courier New, Courier, monospace" font-size="10" fill="#E8A000" >QUALITY FACTOR</text>
<text x="340" y="272" text-anchor="end" font-family="Courier New, Courier, monospace" font-size="11" fill="#D8E8F0" font-weight="bold">210.57</text>
<text x="420" y="272" text-anchor="end" font-family="Courier New, Courier, monospace" font-size="11" fill="#00C878" >+0.30%</text>
<text x="500" y="272" text-anchor="end" font-family="Courier New, Courier, monospace" font-size="11" fill="#00C878" >+5.94%</text>
<polyline points="516.0,266.4 521.8,265.5 527.6,265.0 533.4,263.9 539.2,264.3 545.0,263.0 550.8,265.0 556.6,263.4 562.4,262.1 568.2,262.7 574.0,262.6 579.8,263.0 585.6,265.0 591.4,263.9 597.2,265.5 603.0,268.3 608.8,266.4 614.6,266.8 620.4,267.5 626.2,270.5 632.0,271.5 637.8,269.8 643.6,269.5 649.4,272.1 655.2,271.9 661.0,274.1 666.8,272.2 672.6,272.8 678.4,272.0 684.2,275.7 690.0,278.3 695.8,279.0 701.6,274.1 707.4,273.3 713.2,272.9 719.0,272.1 724.8,272.7 730.6,267.6 736.4,266.4 742.2,267.1 748.0,265.5 753.8,263.7 759.6,262.7 765.4,262.7 771.2,260.3 777.0,260.6 782.8,261.7 788.6,260.1 794.4,261.3 800.2,259.9 806.0,260.1 811.8,261.3 817.6,261.4 823.4,260.0 829.2,260.1 835.0,261.1 840.8,259.8 846.6,257.5 852.4,258.0 858.2,257.1 864.0,257.0" fill="none" stroke="#00C878" stroke-width="1.5" stroke-linejoin="round" stroke-linecap="round"/>
<line x1="16" y1="284" x2="864" y2="284" stroke="#2A3A4A" stroke-width="0.3" />
<line x1="0" y1="284" x2="880" y2="284" stroke="#E8A000" stroke-width="0.4" />
<text x="16" y="297" text-anchor="start" font-family="Courier New, Courier, monospace" font-size="8" fill="#506070" >SRC: YAHOO FINANCE  ·  AUTO-UPDATE 22:00 UTC WEEKDAYS  ·  GITHUB.COM/YANKRUZISKI</text>
<text x="864" y="297" text-anchor="end" font-family="Courier New, Courier, monospace" font-size="8" fill="#506070" >2026-05-11</text>
</svg>