<svg xmlns="http://www.w3.org/2000/svg" width="880" height="302" viewBox="0 0 880 302">
<rect width="880" height="302" fill="#040810"/>
<rect x="0.5" y="0.5" width="879" height="301" fill="none" stroke="#E8A000" stroke-width="0.7" opacity="0.5"/>
<rect x="0" y="0" width="880" height="18" fill="#D87000"/>
<text x="16" y="14" text-anchor="start" font-family="Courier New, Courier, monospace" font-size="9" fill="#030608" font-weight="bold">BLOOMBERG</text>
<text x="88" y="14" text-anchor="start" font-family="Courier New, Courier, monospace" font-size="9" fill="#030608" >QUANT MARKET MONITOR</text>
<text x="440" y="14" text-anchor="middle" font-family="Courier New, Courier, monospace" font-size="9" fill="#030608" >EQUITY  &amp;  VOLATILITY  DASHBOARD</text>
<text x="864" y="14" text-anchor="end" font-family="Courier New, Courier, monospace" font-size="9" fill="#030608" >2026-05-21  22:31 UTC</text>
<line x1="0" y1="38" x2="880" y2="38" stroke="#E8A000" stroke-width="0.8" />
<text x="16" y="33" text-anchor="start" font-family="Courier New, Courier, monospace" font-size="9" fill="#506070" >YAN KRUZISKI  ·  VP OF INTELI RESEARCH  ·  SÃO PAULO, BR</text>
<text x="864" y="33" text-anchor="end" font-family="Courier New, Courier, monospace" font-size="9" fill="#506070" >PAGE 1/1</text>
<rect x="0" y="38" width="880" height="22" fill="#E8A000" opacity="0.14"/>
<text x="16" y="54" text-anchor="start" font-family="Courier New, Courier, monospace" font-size="9" fill="#FFA020" font-weight="bold">TICKER</text>
<text x="72" y="54" text-anchor="start" font-family="Courier New, Courier, monospace" font-size="9" fill="#FFA020" font-weight="bold">DESCRIPTION</text>
<text x="340" y="54" text-anchor="end" font-family="Courier New, Courier, monospace" font-size="9" fill="#FFA020" font-weight="bold">LAST</text>
<text x="420" y="54" text-anchor="end" font-family="Courier New, Courier, monospace" font-size="9" fill="#FFA020" font-weight="bold">%CHG</text>
<text x="500" y="54" text-anchor="end" font-family="Courier New, Courier, monospace" font-size="9" fill="#FFA020" font-weight="bold">YTD%</text>
<text x="690" y="54" text-anchor="middle" font-family="Courier New, Courier, monospace" font-size="9" fill="#FFA020" font-weight="bold">3-MONTH</text>
<line x1="0" y1="60" x2="880" y2="60" stroke="#E8A000" stroke-width="0.9" />
<rect x="0" y="60" width="880" height="32" fill="#E8A000" opacity="0.09"/>
<text x="16" y="80" text-anchor="start" font-family="Courier New, Courier, monospace" font-size="10" fill="#FFA020" font-weight="bold">^VIX</text>
<text x="72" y="80" text-anchor="start" font-family="Courier New, Courier, monospace" font-size="10" fill="#E8A000" font-weight="bold">CBOE VOLATILITY INDEX</text>
<text x="340" y="80" text-anchor="end" font-family="Courier New, Courier, monospace" font-size="11" fill="#D8E8F0" font-weight="bold">16.76</text>
<text x="420" y="80" text-anchor="end" font-family="Courier New, Courier, monospace" font-size="11" fill="#00C878" font-weight="bold">-3.95%</text>
<text x="500" y="80" text-anchor="end" font-family="Courier New, Courier, monospace" font-size="10" fill="#00C878" font-weight="bold">NORMAL</text>
<polyline points="516.0,80.5 521.6,82.7 527.2,85.2 532.8,84.1 538.5,82.2 544.1,79.8 549.7,76.5 555.3,80.2 560.9,76.2 566.5,67.4 572.1,73.5 577.7,74.4 583.4,75.5 589.0,70.8 594.6,70.9 600.2,76.6 605.8,78.4 611.4,74.2 617.0,75.8 622.6,71.6 628.3,72.5 633.9,71.3 639.5,73.8 645.1,70.6 650.7,65.0 656.3,65.7 661.9,73.9 667.5,75.0 673.2,76.1 678.8,75.6 684.4,73.1 690.0,80.4 695.6,82.8 701.2,83.2 706.8,83.4 712.5,84.5 718.1,84.8 723.7,85.2 729.3,85.9 734.9,83.8 740.5,82.8 746.1,83.7 751.7,83.1 757.4,84.0 763.0,85.1 768.6,85.4 774.2,83.8 779.8,86.8 785.4,86.6 791.0,84.6 796.6,86.0 802.3,86.0 807.9,86.5 813.5,86.3 819.1,84.5 824.7,85.1 830.3,85.3 835.9,86.2 841.5,84.4 847.2,85.4 852.8,85.0 858.4,86.0 864.0,87.0" fill="none" stroke="#00C878" stroke-width="1.5" stroke-linejoin="round" stroke-linecap="round"/>
<line x1="0" y1="92" x2="880" y2="92" stroke="#E8A000" stroke-width="0.5" />
<rect x="0" y="92" width="880" height="32" fill="#FFFFFF" opacity="0.02"/>
<text x="16" y="112" text-anchor="start" font-family="Courier New, Courier, monospace" font-size="10" fill="#FFA020" font-weight="bold">IBOV</text>
<text x="72" y="112" text-anchor="start" font-family="Courier New, Courier, monospace" font-size="10" fill="#E8A000" >IBOVESPA</text>
<text x="340" y="112" text-anchor="end" font-family="Courier New, Courier, monospace" font-size="11" fill="#D8E8F0" font-weight="bold">177,650</text>
<text x="420" y="112" text-anchor="end" font-family="Courier New, Courier, monospace" font-size="11" fill="#00C878" >+0.17%</text>
<text x="500" y="112" text-anchor="end" font-family="Courier New, Courier, monospace" font-size="11" fill="#00C878" >+10.66%</text>
<polyline points="516.0,105.8 521.8,103.5 527.6,103.7 533.4,103.9 539.2,105.9 545.0,105.4 550.8,111.0 556.6,109.0 562.4,113.4 568.2,114.4 574.0,113.0 579.8,110.7 585.6,110.3 591.4,114.5 597.2,116.0 603.0,113.9 608.8,113.5 614.6,114.2 620.4,113.6 626.2,117.2 632.0,112.1 637.8,111.6 643.6,108.9 649.4,111.4 655.2,112.4 661.0,111.6 666.8,107.1 672.6,106.7 678.4,106.6 684.2,106.5 690.0,106.4 695.8,102.8 701.6,100.2 707.4,98.2 713.2,97.6 719.0,97.0 724.8,97.8 730.6,98.7 736.4,99.6 742.2,99.3 748.0,102.2 753.8,103.6 759.6,104.1 765.4,105.2 771.2,106.1 777.0,109.6 782.8,107.2 788.6,108.8 794.4,107.7 800.2,106.9 806.0,110.9 811.8,110.1 817.6,112.1 823.4,113.5 829.2,116.5 835.0,115.3 840.8,116.3 846.6,116.6 852.4,119.0 858.2,116.2 864.0,116.0" fill="none" stroke="#00C878" stroke-width="1.5" stroke-linejoin="round" stroke-linecap="round"/>
<line x1="16" y1="124" x2="864" y2="124" stroke="#2A3A4A" stroke-width="0.3" />
<text x="16" y="144" text-anchor="start" font-family="Courier New, Courier, monospace" font-size="10" fill="#FFA020" font-weight="bold">SPY</text>
<text x="72" y="144" text-anchor="start" font-family="Courier New, Courier, monospace" font-size="10" fill="#E8A000" >S&P 500</text>
<text x="340" y="144" text-anchor="end" font-family="Courier New, Courier, monospace" font-size="11" fill="#D8E8F0" font-weight="bold">742.72</text>
<text x="420" y="144" text-anchor="end" font-family="Courier New, Courier, monospace" font-size="11" fill="#00C878" >+0.60%</text>
<text x="500" y="144" text-anchor="end" font-family="Courier New, Courier, monospace" font-size="11" fill="#00C878" >+9.01%</text>
<polyline points="516.0,141.8 521.6,140.9 527.2,139.8 532.8,140.5 538.5,141.1 544.1,141.1 549.7,142.2 555.3,141.3 560.9,142.0 566.5,143.7 572.1,142.6 577.7,142.8 583.4,143.0 589.0,144.9 594.6,145.6 600.2,144.3 605.8,144.0 611.4,145.8 617.0,146.1 622.6,147.9 628.3,146.6 633.9,147.0 639.5,146.3 645.1,148.5 650.7,150.6 656.3,151.0 661.9,147.5 667.5,146.6 673.2,146.5 678.8,145.9 684.4,145.8 690.0,142.7 695.6,141.9 701.2,142.0 706.8,140.8 712.5,139.2 718.1,138.1 723.7,137.8 729.3,136.2 734.9,136.5 740.5,137.3 746.1,136.0 751.7,136.5 757.4,135.5 763.0,135.2 768.6,135.9 774.2,135.9 779.8,134.6 785.4,134.2 791.0,134.7 796.6,133.6 802.3,131.7 807.9,132.1 813.5,131.0 819.1,130.7 824.7,130.9 830.3,130.1 835.9,129.0 841.5,130.7 847.2,130.8 852.8,131.7 858.4,130.3 864.0,130.0" fill="none" stroke="#00C878" stroke-width="1.5" stroke-linejoin="round" stroke-linecap="round"/>
<line x1="16" y1="156" x2="864" y2="156" stroke="#2A3A4A" stroke-width="0.3" />
<rect x="0" y="156" width="880" height="32" fill="#FFFFFF" opacity="0.02"/>
<text x="16" y="176" text-anchor="start" font-family="Courier New, Courier, monospace" font-size="10" fill="#FFA020" font-weight="bold">QQQ</text>
<text x="72" y="176" text-anchor="start" font-family="Courier New, Courier, monospace" font-size="10" fill="#E8A000" >NASDAQ 100</text>
<text x="340" y="176" text-anchor="end" font-family="Courier New, Courier, monospace" font-size="11" fill="#D8E8F0" font-weight="bold">714.51</text>
<text x="420" y="176" text-anchor="end" font-family="Courier New, Courier, monospace" font-size="11" fill="#00C878" >+0.88%</text>
<text x="500" y="176" text-anchor="end" font-family="Courier New, Courier, monospace" font-size="11" fill="#00C878" >+16.68%</text>
<polyline points="516.0,177.2 521.6,176.3 527.2,175.2 532.8,176.2 538.5,176.4 544.1,176.3 549.7,177.2 555.3,176.0 560.9,176.2 566.5,177.5 572.1,176.4 577.7,176.4 583.4,176.4 589.0,177.8 594.6,178.3 600.2,177.4 605.8,177.0 611.4,178.1 617.0,178.4 622.6,179.9 628.3,179.0 633.9,179.5 639.5,179.0 645.1,180.9 650.7,182.4 656.3,183.0 661.9,180.4 667.5,179.5 673.2,179.4 678.8,178.9 684.4,178.9 690.0,176.5 695.6,175.9 701.2,175.8 706.8,174.9 712.5,173.4 718.1,172.2 723.7,171.8 729.3,170.7 734.9,170.9 740.5,171.3 746.1,169.8 751.7,170.3 757.4,168.6 763.0,168.6 768.6,169.5 774.2,168.9 779.8,168.1 785.4,167.2 791.0,167.4 796.6,166.2 802.3,164.3 807.9,164.4 813.5,162.2 819.1,161.9 824.7,162.7 830.3,161.7 835.9,161.0 841.5,162.5 847.2,162.9 852.8,163.5 858.4,161.9 864.0,161.7" fill="none" stroke="#00C878" stroke-width="1.5" stroke-linejoin="round" stroke-linecap="round"/>
<line x1="16" y1="188" x2="864" y2="188" stroke="#2A3A4A" stroke-width="0.3" />
<text x="16" y="208" text-anchor="start" font-family="Courier New, Courier, monospace" font-size="10" fill="#FFA020" font-weight="bold">QMOM</text>
<text x="72" y="208" text-anchor="start" font-family="Courier New, Courier, monospace" font-size="10" fill="#E8A000" >QUANT MOMENTUM</text>
<text x="340" y="208" text-anchor="end" font-family="Courier New, Courier, monospace" font-size="11" fill="#D8E8F0" font-weight="bold">77.23</text>
<text x="420" y="208" text-anchor="end" font-family="Courier New, Courier, monospace" font-size="11" fill="#00C878" >+1.27%</text>
<text x="500" y="208" text-anchor="end" font-family="Courier New, Courier, monospace" font-size="11" fill="#00C878" >+16.16%</text>
<polyline points="516.0,205.0 521.6,203.2 527.2,202.8 532.8,202.3 538.5,203.0 544.1,202.0 549.7,206.0 555.3,205.2 560.9,208.1 566.5,210.3 572.1,207.6 577.7,206.9 583.4,207.7 589.0,209.9 594.6,211.6 600.2,209.3 605.8,208.5 611.4,209.6 617.0,209.3 622.6,212.6 628.3,210.4 633.9,209.0 639.5,207.6 645.1,211.4 650.7,212.0 656.3,215.0 661.9,209.7 667.5,207.7 673.2,208.0 678.8,207.7 684.4,207.5 690.0,202.9 695.6,202.3 701.2,202.1 706.8,201.1 712.5,200.2 718.1,201.1 723.7,200.8 729.3,198.6 734.9,198.5 740.5,199.9 746.1,198.9 751.7,198.5 757.4,198.4 763.0,198.8 768.6,201.3 774.2,202.3 779.8,198.0 785.4,198.3 791.0,198.1 796.6,196.6 802.3,193.0 807.9,197.1 813.5,195.3 819.1,193.6 824.7,194.6 830.3,193.7 835.9,193.5 841.5,197.2 847.2,198.9 852.8,200.2 858.4,198.0 864.0,197.3" fill="none" stroke="#00C878" stroke-width="1.5" stroke-linejoin="round" stroke-linecap="round"/>
<line x1="16" y1="220" x2="864" y2="220" stroke="#2A3A4A" stroke-width="0.3" />
<rect x="0" y="220" width="880" height="32" fill="#FFFFFF" opacity="0.02"/>
<text x="16" y="240" text-anchor="start" font-family="Courier New, Courier, monospace" font-size="10" fill="#FFA020" font-weight="bold">MTUM</text>
<text x="72" y="240" text-anchor="start" font-family="Courier New, Courier, monospace" font-size="10" fill="#E8A000" >MOMENTUM FACTOR</text>
<text x="340" y="240" text-anchor="end" font-family="Courier New, Courier, monospace" font-size="11" fill="#D8E8F0" font-weight="bold">302.16</text>
<text x="420" y="240" text-anchor="end" font-family="Courier New, Courier, monospace" font-size="11" fill="#00C878" >+1.06%</text>
<text x="500" y="240" text-anchor="end" font-family="Courier New, Courier, monospace" font-size="11" fill="#00C878" >+19.67%</text>
<polyline points="516.0,241.6 521.6,240.9 527.2,239.7 532.8,240.1 538.5,240.7 544.1,240.5 549.7,242.4 555.3,241.3 560.9,242.4 566.5,244.0 572.1,242.3 577.7,242.0 583.4,241.9 589.0,243.3 594.6,243.4 600.2,242.5 605.8,242.0 611.4,242.5 617.0,242.4 622.6,243.9 628.3,243.0 633.9,242.8 639.5,242.3 645.1,244.9 650.7,245.6 656.3,247.0 661.9,244.3 667.5,242.8 673.2,242.7 678.8,242.1 684.4,241.7 690.0,238.7 695.6,237.9 701.2,237.6 706.8,236.9 712.5,235.6 718.1,235.7 723.7,235.5 729.3,234.4 734.9,234.7 740.5,235.3 746.1,234.0 751.7,234.0 757.4,232.6 763.0,232.6 768.6,233.9 774.2,233.5 779.8,231.7 785.4,231.4 791.0,231.6 796.6,229.6 802.3,227.3 807.9,228.8 813.5,226.6 819.1,225.2 824.7,226.2 830.3,225.5 835.9,225.0 841.5,227.6 847.2,228.7 852.8,229.2 858.4,227.2 864.0,226.5" fill="none" stroke="#00C878" stroke-width="1.5" stroke-linejoin="round" stroke-linecap="round"/>
<line x1="16" y1="252" x2="864" y2="252" stroke="#2A3A4A" stroke-width="0.3" />
<text x="16" y="272" text-anchor="start" font-family="Courier New, Courier, monospace" font-size="10" fill="#FFA020" font-weight="bold">QUAL</text>
<text x="72" y="272" text-anchor="start" font-family="Courier New, Courier, monospace" font-size="10" fill="#E8A000" >QUALITY FACTOR</text>
<text x="340" y="272" text-anchor="end" font-family="Courier New, Courier, monospace" font-size="11" fill="#D8E8F0" font-weight="bold">212.74</text>
<text x="420" y="272" text-anchor="end" font-family="Courier New, Courier, monospace" font-size="11" fill="#00C878" >+0.35%</text>
<text x="500" y="272" text-anchor="end" font-family="Courier New, Courier, monospace" font-size="11" fill="#00C878" >+7.03%</text>
<polyline points="516.0,266.1 521.6,264.7 527.2,263.5 532.8,264.0 538.5,264.0 544.1,264.3 549.7,266.1 555.3,265.2 560.9,266.6 566.5,269.2 572.1,267.4 577.7,267.8 583.4,268.4 589.0,271.2 594.6,272.1 600.2,270.6 605.8,270.3 611.4,272.6 617.0,272.5 622.6,274.5 628.3,272.7 633.9,273.3 639.5,272.6 645.1,275.9 650.7,278.3 656.3,279.0 661.9,274.5 667.5,273.7 673.2,273.4 678.8,272.7 684.4,273.2 690.0,268.5 695.6,267.5 701.2,268.1 706.8,266.6 712.5,264.9 718.1,264.0 723.7,264.1 729.3,261.9 734.9,262.2 740.5,263.1 746.1,261.7 751.7,262.7 757.4,261.5 763.0,261.7 768.6,262.7 774.2,262.8 779.8,261.6 785.4,261.7 791.0,262.6 796.6,261.4 802.3,259.3 807.9,259.7 813.5,258.9 819.1,258.8 824.7,259.0 830.3,258.5 835.9,257.3 841.5,258.9 847.2,258.5 852.8,259.7 858.4,257.4 864.0,257.0" fill="none" stroke="#00C878" stroke-width="1.5" stroke-linejoin="round" stroke-linecap="round"/>
<line x1="16" y1="284" x2="864" y2="284" stroke="#2A3A4A" stroke-width="0.3" />
<line x1="0" y1="284" x2="880" y2="284" stroke="#E8A000" stroke-width="0.4" />
<text x="16" y="297" text-anchor="start" font-family="Courier New, Courier, monospace" font-size="8" fill="#506070" >SRC: YAHOO FINANCE  ·  AUTO-UPDATE 22:00 UTC WEEKDAYS  ·  GITHUB.COM/YANKRUZISKI</text>
<text x="864" y="297" text-anchor="end" font-family="Courier New, Courier, monospace" font-size="8" fill="#506070" >2026-05-21</text>
</svg>