<svg xmlns="http://www.w3.org/2000/svg" width="880" height="302" viewBox="0 0 880 302">
<rect width="880" height="302" fill="#040810"/>
<rect x="0.5" y="0.5" width="879" height="301" fill="none" stroke="#E8A000" stroke-width="0.7" opacity="0.5"/>
<rect x="0" y="0" width="880" height="18" fill="#D87000"/>
<text x="16" y="14" text-anchor="start" font-family="Courier New, Courier, monospace" font-size="9" fill="#030608" font-weight="bold">BLOOMBERG</text>
<text x="88" y="14" text-anchor="start" font-family="Courier New, Courier, monospace" font-size="9" fill="#030608" >QUANT MARKET MONITOR</text>
<text x="440" y="14" text-anchor="middle" font-family="Courier New, Courier, monospace" font-size="9" fill="#030608" >EQUITY  &amp;  VOLATILITY  DASHBOARD</text>
<text x="864" y="14" text-anchor="end" font-family="Courier New, Courier, monospace" font-size="9" fill="#030608" >2026-06-29  22:26 UTC</text>
<line x1="0" y1="38" x2="880" y2="38" stroke="#E8A000" stroke-width="0.8" />
<text x="16" y="33" text-anchor="start" font-family="Courier New, Courier, monospace" font-size="9" fill="#506070" >YAN KRUZISKI  ·  VP OF INTELI RESEARCH  ·  SÃO PAULO, BR</text>
<text x="864" y="33" text-anchor="end" font-family="Courier New, Courier, monospace" font-size="9" fill="#506070" >PAGE 1/1</text>
<rect x="0" y="38" width="880" height="22" fill="#E8A000" opacity="0.14"/>
<text x="16" y="54" text-anchor="start" font-family="Courier New, Courier, monospace" font-size="9" fill="#FFA020" font-weight="bold">TICKER</text>
<text x="72" y="54" text-anchor="start" font-family="Courier New, Courier, monospace" font-size="9" fill="#FFA020" font-weight="bold">DESCRIPTION</text>
<text x="340" y="54" text-anchor="end" font-family="Courier New, Courier, monospace" font-size="9" fill="#FFA020" font-weight="bold">LAST</text>
<text x="420" y="54" text-anchor="end" font-family="Courier New, Courier, monospace" font-size="9" fill="#FFA020" font-weight="bold">%CHG</text>
<text x="500" y="54" text-anchor="end" font-family="Courier New, Courier, monospace" font-size="9" fill="#FFA020" font-weight="bold">YTD%</text>
<text x="690" y="54" text-anchor="middle" font-family="Courier New, Courier, monospace" font-size="9" fill="#FFA020" font-weight="bold">3-MONTH</text>
<line x1="0" y1="60" x2="880" y2="60" stroke="#E8A000" stroke-width="0.9" />
<rect x="0" y="60" width="880" height="32" fill="#E8A000" opacity="0.09"/>
<text x="16" y="80" text-anchor="start" font-family="Courier New, Courier, monospace" font-size="10" fill="#FFA020" font-weight="bold">^VIX</text>
<text x="72" y="80" text-anchor="start" font-family="Courier New, Courier, monospace" font-size="10" fill="#E8A000" font-weight="bold">CBOE VOLATILITY INDEX</text>
<text x="340" y="80" text-anchor="end" font-family="Courier New, Courier, monospace" font-size="11" fill="#D8E8F0" font-weight="bold">17.65</text>
<text x="420" y="80" text-anchor="end" font-family="Courier New, Courier, monospace" font-size="11" fill="#00C878" font-weight="bold">-3.97%</text>
<text x="500" y="80" text-anchor="end" font-family="Courier New, Courier, monospace" font-size="10" fill="#00C878" font-weight="bold">NORMAL</text>
<polyline points="516.0,65.0 521.5,72.7 527.0,73.7 532.6,74.7 538.1,74.3 543.6,71.9 549.1,78.8 554.7,81.0 560.2,81.4 565.7,81.5 571.2,82.6 576.8,82.9 582.3,83.2 587.8,83.9 593.3,81.9 598.9,81.0 604.4,81.8 609.9,81.3 615.4,82.1 621.0,83.1 626.5,83.4 632.0,82.0 637.5,84.7 643.0,84.6 648.6,82.7 654.1,84.0 659.6,84.0 665.1,84.5 670.7,84.3 676.2,82.6 681.7,83.2 687.2,83.3 692.8,84.2 698.3,82.5 703.8,83.4 709.3,83.1 714.9,83.9 720.4,84.9 725.9,85.0 731.4,85.2 737.0,84.6 742.5,85.6 748.0,86.4 753.5,87.0 759.0,85.9 764.6,86.4 770.1,85.9 775.6,86.9 781.1,78.1 786.7,81.8 792.2,80.5 797.7,77.1 803.2,81.1 808.8,83.6 814.3,85.7 819.8,85.4 825.3,82.5 830.9,85.4 836.4,84.2 841.9,81.0 847.4,82.2 853.0,81.9 858.5,82.6 864.0,83.6" fill="none" stroke="#00C878" stroke-width="1.5" stroke-linejoin="round" stroke-linecap="round"/>
<line x1="0" y1="92" x2="880" y2="92" stroke="#E8A000" stroke-width="0.5" />
<rect x="0" y="92" width="880" height="32" fill="#FFFFFF" opacity="0.02"/>
<text x="16" y="112" text-anchor="start" font-family="Courier New, Courier, monospace" font-size="10" fill="#FFA020" font-weight="bold">IBOV</text>
<text x="72" y="112" text-anchor="start" font-family="Courier New, Courier, monospace" font-size="10" fill="#E8A000" >IBOVESPA</text>
<text x="340" y="112" text-anchor="end" font-family="Courier New, Courier, monospace" font-size="11" fill="#D8E8F0" font-weight="bold">173,205</text>
<text x="420" y="112" text-anchor="end" font-family="Courier New, Courier, monospace" font-size="11" fill="#FF3C3C" >-0.05%</text>
<text x="500" y="112" text-anchor="end" font-family="Courier New, Courier, monospace" font-size="11" fill="#00C878" >+7.89%</text>
<polyline points="516.0,108.7 521.7,105.1 527.4,104.8 533.1,104.7 538.8,104.6 544.5,104.5 550.2,101.7 555.9,99.6 561.6,98.0 567.3,97.5 573.0,97.0 578.8,97.7 584.5,98.3 590.2,99.1 595.9,98.8 601.6,101.2 607.3,102.3 613.0,102.7 618.7,103.6 624.4,104.3 630.1,107.1 635.8,105.2 641.5,106.5 647.2,105.6 652.9,104.9 658.6,108.2 664.3,107.5 670.0,109.1 675.7,110.3 681.4,112.6 687.1,111.7 692.9,112.5 698.6,112.7 704.3,114.7 710.0,112.4 715.7,112.2 721.4,113.3 727.1,112.4 732.8,113.0 738.5,113.6 744.2,114.1 749.9,115.0 755.6,116.2 761.3,114.7 767.0,117.5 772.7,118.5 778.4,118.7 784.1,117.9 789.8,118.8 795.5,116.7 801.2,116.9 807.0,117.5 812.7,118.0 818.4,118.9 824.1,119.0 829.8,118.8 835.5,117.5 841.2,116.8 846.9,117.4 852.6,116.3 858.3,115.4 864.0,115.4" fill="none" stroke="#FF3C3C" stroke-width="1.5" stroke-linejoin="round" stroke-linecap="round"/>
<line x1="16" y1="124" x2="864" y2="124" stroke="#2A3A4A" stroke-width="0.3" />
<text x="16" y="144" text-anchor="start" font-family="Courier New, Courier, monospace" font-size="10" fill="#FFA020" font-weight="bold">SPY</text>
<text x="72" y="144" text-anchor="start" font-family="Courier New, Courier, monospace" font-size="10" fill="#E8A000" >S&amp;P 500</text>
<text x="340" y="144" text-anchor="end" font-family="Courier New, Courier, monospace" font-size="11" fill="#D8E8F0" font-weight="bold">741.00</text>
<text x="420" y="144" text-anchor="end" font-family="Courier New, Courier, monospace" font-size="11" fill="#00C878" >+1.34%</text>
<text x="500" y="144" text-anchor="end" font-family="Courier New, Courier, monospace" font-size="11" fill="#00C878" >+9.04%</text>
<polyline points="516.0,151.0 521.6,147.8 527.2,147.0 532.8,146.9 538.5,146.4 544.1,146.3 549.7,143.4 555.3,142.7 560.9,142.8 566.5,141.7 572.1,140.2 577.7,139.3 583.4,139.0 589.0,137.5 594.6,137.8 600.2,138.6 605.8,137.3 611.4,137.8 617.0,136.9 622.6,136.7 628.3,137.3 633.9,137.3 639.5,136.1 645.1,135.7 650.7,136.2 656.3,135.2 661.9,133.4 667.5,133.8 673.2,132.8 678.8,132.5 684.4,132.7 690.0,132.0 695.6,131.0 701.2,132.5 706.8,132.6 712.5,133.5 718.1,132.2 723.7,131.9 729.3,131.4 734.9,130.5 740.5,130.6 746.1,129.9 751.7,129.5 757.4,129.2 763.0,129.0 768.6,129.9 774.2,129.4 779.8,132.8 785.4,132.5 791.0,132.9 796.6,134.9 802.3,132.8 807.9,132.1 813.5,129.8 819.1,130.6 824.7,132.2 830.3,130.9 835.9,131.3 841.5,133.2 847.2,133.2 852.8,133.0 858.4,133.9 864.0,131.9" fill="none" stroke="#00C878" stroke-width="1.5" stroke-linejoin="round" stroke-linecap="round"/>
<line x1="16" y1="156" x2="864" y2="156" stroke="#2A3A4A" stroke-width="0.3" />
<rect x="0" y="156" width="880" height="32" fill="#FFFFFF" opacity="0.02"/>
<text x="16" y="176" text-anchor="start" font-family="Courier New, Courier, monospace" font-size="10" fill="#FFA020" font-weight="bold">QQQ</text>
<text x="72" y="176" text-anchor="start" font-family="Courier New, Courier, monospace" font-size="10" fill="#E8A000" >NASDAQ 100</text>
<text x="340" y="176" text-anchor="end" font-family="Courier New, Courier, monospace" font-size="11" fill="#D8E8F0" font-weight="bold">724.08</text>
<text x="420" y="176" text-anchor="end" font-family="Courier New, Courier, monospace" font-size="11" fill="#00C878" >+2.54%</text>
<text x="500" y="176" text-anchor="end" font-family="Courier New, Courier, monospace" font-size="11" fill="#00C878" >+18.38%</text>
<polyline points="516.0,183.0 521.6,180.8 527.2,180.0 532.8,179.9 538.5,179.5 544.1,179.5 549.7,177.4 555.3,176.9 560.9,176.8 566.5,176.1 572.1,174.8 577.7,173.7 583.4,173.4 589.0,172.4 594.6,172.6 600.2,172.9 605.8,171.7 611.4,172.1 617.0,170.6 622.6,170.6 628.3,171.4 633.9,170.9 639.5,170.2 645.1,169.4 650.7,169.6 656.3,168.6 661.9,166.9 667.5,167.0 673.2,165.1 678.8,164.8 684.4,165.6 690.0,164.7 695.6,164.1 701.2,165.4 706.8,165.7 712.5,166.2 718.1,164.9 723.7,164.7 729.3,164.4 734.9,162.9 740.5,163.0 746.1,162.2 751.7,161.9 757.4,161.4 763.0,161.0 768.6,161.2 774.2,161.6 779.8,165.8 785.4,164.5 791.0,165.5 796.6,167.1 802.3,164.4 807.9,163.9 813.5,161.3 819.1,162.9 824.7,163.8 830.3,161.6 835.9,161.9 841.5,164.7 847.2,165.1 852.8,164.4 858.4,165.6 864.0,163.5" fill="none" stroke="#00C878" stroke-width="1.5" stroke-linejoin="round" stroke-linecap="round"/>
<line x1="16" y1="188" x2="864" y2="188" stroke="#2A3A4A" stroke-width="0.3" />
<text x="16" y="208" text-anchor="start" font-family="Courier New, Courier, monospace" font-size="10" fill="#FFA020" font-weight="bold">QMOM</text>
<text x="72" y="208" text-anchor="start" font-family="Courier New, Courier, monospace" font-size="10" fill="#E8A000" >QUANT MOMENTUM</text>
<text x="340" y="208" text-anchor="end" font-family="Courier New, Courier, monospace" font-size="11" fill="#D8E8F0" font-weight="bold">78.12</text>
<text x="420" y="208" text-anchor="end" font-family="Courier New, Courier, monospace" font-size="11" fill="#00C878" >+1.52%</text>
<text x="500" y="208" text-anchor="end" font-family="Courier New, Courier, monospace" font-size="11" fill="#00C878" >+17.50%</text>
<polyline points="516.0,215.0 521.6,210.1 527.2,208.3 532.8,208.5 538.5,208.3 544.1,208.1 549.7,203.8 555.3,203.2 560.9,203.1 566.5,202.2 572.1,201.4 577.7,202.1 583.4,201.9 589.0,199.9 594.6,199.8 600.2,201.0 605.8,200.1 611.4,199.7 617.0,199.7 622.6,200.0 628.3,202.3 633.9,203.3 639.5,199.3 645.1,199.6 650.7,199.4 656.3,198.1 661.9,194.7 667.5,198.5 673.2,196.9 678.8,195.3 684.4,196.2 690.0,195.3 695.6,195.1 701.2,198.6 706.8,200.2 712.5,201.4 718.1,199.3 723.7,198.7 729.3,198.4 734.9,195.4 740.5,196.1 746.1,195.2 751.7,194.6 757.4,194.8 763.0,193.0 768.6,193.4 774.2,193.7 779.8,199.2 785.4,198.5 791.0,199.7 796.6,202.0 802.3,197.6 807.9,196.3 813.5,195.6 819.1,196.7 824.7,197.3 830.3,196.7 835.9,194.7 841.5,197.5 847.2,198.4 852.8,196.7 858.4,199.1 864.0,197.6" fill="none" stroke="#00C878" stroke-width="1.5" stroke-linejoin="round" stroke-linecap="round"/>
<line x1="16" y1="220" x2="864" y2="220" stroke="#2A3A4A" stroke-width="0.3" />
<rect x="0" y="220" width="880" height="32" fill="#FFFFFF" opacity="0.02"/>
<text x="16" y="240" text-anchor="start" font-family="Courier New, Courier, monospace" font-size="10" fill="#FFA020" font-weight="bold">MTUM</text>
<text x="72" y="240" text-anchor="start" font-family="Courier New, Courier, monospace" font-size="10" fill="#E8A000" >MOMENTUM FACTOR</text>
<text x="340" y="240" text-anchor="end" font-family="Courier New, Courier, monospace" font-size="11" fill="#D8E8F0" font-weight="bold">336.00</text>
<text x="420" y="240" text-anchor="end" font-family="Courier New, Courier, monospace" font-size="11" fill="#00C878" >+2.57%</text>
<text x="500" y="240" text-anchor="end" font-family="Courier New, Courier, monospace" font-size="11" fill="#00C878" >+33.21%</text>
<polyline points="516.0,247.0 521.6,245.2 527.2,244.2 532.8,244.1 538.5,243.8 544.1,243.5 549.7,241.5 555.3,240.9 560.9,240.7 566.5,240.2 572.1,239.4 577.7,239.5 583.4,239.3 589.0,238.6 594.6,238.8 600.2,239.2 605.8,238.3 611.4,238.4 617.0,237.4 622.6,237.4 628.3,238.3 633.9,238.0 639.5,236.8 645.1,236.6 650.7,236.7 656.3,235.4 661.9,233.9 667.5,234.9 673.2,233.4 678.8,232.5 684.4,233.1 690.0,232.7 695.6,232.3 701.2,234.1 706.8,234.8 712.5,235.2 718.1,233.8 723.7,233.3 729.3,233.0 734.9,231.0 740.5,231.2 746.1,230.9 751.7,230.7 757.4,230.5 763.0,228.7 768.6,228.1 774.2,228.8 779.8,232.5 785.4,230.8 791.0,231.5 796.6,232.8 802.3,230.1 807.9,229.1 813.5,227.2 819.1,228.7 824.7,228.3 830.3,226.3 835.9,225.0 841.5,228.0 847.2,228.2 852.8,226.1 858.4,228.7 864.0,226.8" fill="none" stroke="#00C878" stroke-width="1.5" stroke-linejoin="round" stroke-linecap="round"/>
<line x1="16" y1="252" x2="864" y2="252" stroke="#2A3A4A" stroke-width="0.3" />
<text x="16" y="272" text-anchor="start" font-family="Courier New, Courier, monospace" font-size="10" fill="#FFA020" font-weight="bold">QUAL</text>
<text x="72" y="272" text-anchor="start" font-family="Courier New, Courier, monospace" font-size="10" fill="#E8A000" >QUALITY FACTOR</text>
<text x="340" y="272" text-anchor="end" font-family="Courier New, Courier, monospace" font-size="11" fill="#D8E8F0" font-weight="bold">217.29</text>
<text x="420" y="272" text-anchor="end" font-family="Courier New, Courier, monospace" font-size="11" fill="#00C878" >+1.73%</text>
<text x="500" y="272" text-anchor="end" font-family="Courier New, Courier, monospace" font-size="11" fill="#00C878" >+9.51%</text>
<polyline points="516.0,279.0 521.6,275.5 527.2,274.8 532.8,274.6 538.5,274.0 544.1,274.4 549.7,270.7 555.3,269.9 560.9,270.4 566.5,269.2 572.1,267.8 577.7,267.1 583.4,267.1 589.0,265.4 594.6,265.6 600.2,266.4 605.8,265.3 611.4,266.1 617.0,265.1 622.6,265.2 628.3,266.1 633.9,266.2 639.5,265.2 645.1,265.3 650.7,266.0 656.3,265.0 661.9,263.3 667.5,263.7 673.2,263.1 678.8,263.0 684.4,263.1 690.0,262.7 695.6,261.8 701.2,263.1 706.8,262.8 712.5,263.7 718.1,261.9 723.7,261.6 729.3,260.5 734.9,259.5 740.5,259.9 746.1,259.5 751.7,259.7 757.4,259.4 763.0,259.5 768.6,259.6 774.2,258.5 779.8,261.3 785.4,260.8 791.0,260.6 796.6,261.8 802.3,259.5 807.9,258.8 813.5,257.0 819.1,258.0 824.7,260.2 830.3,259.2 835.9,259.2 841.5,261.1 847.2,261.0 852.8,261.0 858.4,260.7 864.0,258.3" fill="none" stroke="#00C878" stroke-width="1.5" stroke-linejoin="round" stroke-linecap="round"/>
<line x1="16" y1="284" x2="864" y2="284" stroke="#2A3A4A" stroke-width="0.3" />
<line x1="0" y1="284" x2="880" y2="284" stroke="#E8A000" stroke-width="0.4" />
<text x="16" y="297" text-anchor="start" font-family="Courier New, Courier, monospace" font-size="8" fill="#506070" >SRC: YAHOO FINANCE  ·  AUTO-UPDATE 22:00 UTC WEEKDAYS  ·  GITHUB.COM/YANKRUZISKI</text>
<text x="864" y="297" text-anchor="end" font-family="Courier New, Courier, monospace" font-size="8" fill="#506070" >2026-06-29</text>
</svg>