<svg xmlns="http://www.w3.org/2000/svg" width="880" height="302" viewBox="0 0 880 302">
<rect width="880" height="302" fill="#040810"/>
<rect x="0.5" y="0.5" width="879" height="301" fill="none" stroke="#E8A000" stroke-width="0.7" opacity="0.5"/>
<rect x="0" y="0" width="880" height="18" fill="#D87000"/>
<text x="16" y="14" text-anchor="start" font-family="Courier New, Courier, monospace" font-size="9" fill="#030608" font-weight="bold">BLOOMBERG</text>
<text x="88" y="14" text-anchor="start" font-family="Courier New, Courier, monospace" font-size="9" fill="#030608" >QUANT MARKET MONITOR</text>
<text x="440" y="14" text-anchor="middle" font-family="Courier New, Courier, monospace" font-size="9" fill="#030608" >EQUITY  &amp;  VOLATILITY  DASHBOARD</text>
<text x="864" y="14" text-anchor="end" font-family="Courier New, Courier, monospace" font-size="9" fill="#030608" >2026-07-02  22:24 UTC</text>
<line x1="0" y1="38" x2="880" y2="38" stroke="#E8A000" stroke-width="0.8" />
<text x="16" y="33" text-anchor="start" font-family="Courier New, Courier, monospace" font-size="9" fill="#506070" >YAN KRUZISKI  ·  VP OF INTELI RESEARCH  ·  SÃO PAULO, BR</text>
<text x="864" y="33" text-anchor="end" font-family="Courier New, Courier, monospace" font-size="9" fill="#506070" >PAGE 1/1</text>
<rect x="0" y="38" width="880" height="22" fill="#E8A000" opacity="0.14"/>
<text x="16" y="54" text-anchor="start" font-family="Courier New, Courier, monospace" font-size="9" fill="#FFA020" font-weight="bold">TICKER</text>
<text x="72" y="54" text-anchor="start" font-family="Courier New, Courier, monospace" font-size="9" fill="#FFA020" font-weight="bold">DESCRIPTION</text>
<text x="340" y="54" text-anchor="end" font-family="Courier New, Courier, monospace" font-size="9" fill="#FFA020" font-weight="bold">LAST</text>
<text x="420" y="54" text-anchor="end" font-family="Courier New, Courier, monospace" font-size="9" fill="#FFA020" font-weight="bold">%CHG</text>
<text x="500" y="54" text-anchor="end" font-family="Courier New, Courier, monospace" font-size="9" fill="#FFA020" font-weight="bold">YTD%</text>
<text x="690" y="54" text-anchor="middle" font-family="Courier New, Courier, monospace" font-size="9" fill="#FFA020" font-weight="bold">3-MONTH</text>
<line x1="0" y1="60" x2="880" y2="60" stroke="#E8A000" stroke-width="0.9" />
<rect x="0" y="60" width="880" height="32" fill="#E8A000" opacity="0.09"/>
<text x="16" y="80" text-anchor="start" font-family="Courier New, Courier, monospace" font-size="10" fill="#FFA020" font-weight="bold">^VIX</text>
<text x="72" y="80" text-anchor="start" font-family="Courier New, Courier, monospace" font-size="10" fill="#E8A000" font-weight="bold">CBOE VOLATILITY INDEX</text>
<text x="340" y="80" text-anchor="end" font-family="Courier New, Courier, monospace" font-size="11" fill="#D8E8F0" font-weight="bold">16.15</text>
<text x="420" y="80" text-anchor="end" font-family="Courier New, Courier, monospace" font-size="11" fill="#00C878" font-weight="bold">-2.53%</text>
<text x="500" y="80" text-anchor="end" font-family="Courier New, Courier, monospace" font-size="10" fill="#00C878" font-weight="bold">NORMAL</text>
<polyline points="516.0,69.0 521.5,68.4 527.0,65.0 532.6,75.0 538.1,78.2 543.6,78.8 549.1,79.0 554.7,80.6 560.2,81.0 565.7,81.5 571.2,82.5 576.8,79.5 582.3,78.2 587.8,79.4 593.3,78.6 598.9,79.9 604.4,81.3 609.9,81.7 615.4,79.7 621.0,83.7 626.5,83.5 632.0,80.8 637.5,82.7 643.0,82.6 648.6,83.3 654.1,83.1 659.6,80.6 665.1,81.4 670.7,81.6 676.2,82.9 681.7,80.5 687.2,81.7 692.8,81.2 698.3,82.5 703.8,84.0 709.3,84.1 714.9,84.3 720.4,83.4 725.9,85.0 731.4,86.1 737.0,87.0 742.5,85.5 748.0,86.1 753.5,85.4 759.0,86.8 764.6,74.0 770.1,79.4 775.6,77.4 781.1,72.5 786.7,78.3 792.2,82.0 797.7,85.1 803.2,84.7 808.8,80.4 814.3,84.7 819.8,82.9 825.3,78.2 830.9,80.0 836.4,79.5 841.9,80.5 847.4,82.1 853.0,84.6 858.5,84.3 864.0,85.3" fill="none" stroke="#00C878" stroke-width="1.5" stroke-linejoin="round" stroke-linecap="round"/>
<line x1="0" y1="92" x2="880" y2="92" stroke="#E8A000" stroke-width="0.5" />
<rect x="0" y="92" width="880" height="32" fill="#FFFFFF" opacity="0.02"/>
<text x="16" y="112" text-anchor="start" font-family="Courier New, Courier, monospace" font-size="10" fill="#FFA020" font-weight="bold">IBOV</text>
<text x="72" y="112" text-anchor="start" font-family="Courier New, Courier, monospace" font-size="10" fill="#E8A000" >IBOVESPA</text>
<text x="340" y="112" text-anchor="end" font-family="Courier New, Courier, monospace" font-size="11" fill="#D8E8F0" font-weight="bold">172,788</text>
<text x="420" y="112" text-anchor="end" font-family="Courier New, Courier, monospace" font-size="11" fill="#00C878" >+0.64%</text>
<text x="500" y="112" text-anchor="end" font-family="Courier New, Courier, monospace" font-size="11" fill="#00C878" >+7.63%</text>
<polyline points="516.0,104.7 521.7,104.6 527.4,104.5 533.1,101.7 538.8,99.6 544.5,98.0 550.2,97.5 555.9,97.0 561.6,97.7 567.3,98.3 573.0,99.1 578.8,98.8 584.5,101.2 590.2,102.3 595.9,102.7 601.6,103.6 607.3,104.3 613.0,107.1 618.7,105.2 624.4,106.5 630.1,105.6 635.8,104.9 641.5,108.2 647.2,107.5 652.9,109.1 658.6,110.3 664.3,112.6 670.0,111.7 675.7,112.5 681.4,112.7 687.1,114.7 692.9,112.4 698.6,112.2 704.3,113.3 710.0,112.4 715.7,113.0 721.4,113.6 727.1,114.1 732.8,115.0 738.5,116.2 744.2,114.7 749.9,117.5 755.6,118.5 761.3,118.7 767.0,117.9 772.7,118.8 778.4,116.7 784.1,116.9 789.8,117.5 795.5,118.0 801.2,118.9 807.0,119.0 812.7,118.8 818.4,117.5 824.1,116.8 829.8,117.4 835.5,116.3 841.2,115.4 846.9,115.4 852.6,116.3 858.3,116.5 864.0,115.7" fill="none" stroke="#00C878" stroke-width="1.5" stroke-linejoin="round" stroke-linecap="round"/>
<line x1="16" y1="124" x2="864" y2="124" stroke="#2A3A4A" stroke-width="0.3" />
<text x="16" y="144" text-anchor="start" font-family="Courier New, Courier, monospace" font-size="10" fill="#FFA020" font-weight="bold">SPY</text>
<text x="72" y="144" text-anchor="start" font-family="Courier New, Courier, monospace" font-size="10" fill="#E8A000" >S&amp;P 500</text>
<text x="340" y="144" text-anchor="end" font-family="Courier New, Courier, monospace" font-size="11" fill="#D8E8F0" font-weight="bold">744.78</text>
<text x="420" y="144" text-anchor="end" font-family="Courier New, Courier, monospace" font-size="11" fill="#8A9AAA" >-0.03%</text>
<text x="500" y="144" text-anchor="end" font-family="Courier New, Courier, monospace" font-size="11" fill="#00C878" >+9.60%</text>
<polyline points="516.0,151.0 521.7,150.9 527.4,147.3 533.1,146.4 538.8,146.5 544.5,145.1 550.2,143.2 555.9,142.0 561.6,141.7 567.3,139.8 573.0,140.1 578.8,141.1 584.5,139.6 590.2,140.2 595.9,139.0 601.6,138.7 607.3,139.5 613.0,139.5 618.7,137.9 624.4,137.5 630.1,138.1 635.8,136.8 641.5,134.6 647.2,135.1 652.9,133.8 658.6,133.4 664.3,133.7 670.0,132.8 675.7,131.5 681.4,133.5 687.1,133.6 692.9,134.6 698.6,133.0 704.3,132.7 710.0,132.0 715.7,131.0 721.4,131.0 727.1,130.1 732.8,129.7 738.5,129.2 744.2,129.0 749.9,130.2 755.6,129.5 761.3,133.8 767.0,133.4 772.7,133.9 778.4,136.5 784.1,133.8 789.8,132.9 795.5,130.0 801.2,131.0 807.0,133.1 812.7,131.4 818.4,131.9 824.1,134.3 829.8,134.3 835.5,134.1 841.2,135.3 846.9,132.6 852.6,131.4 858.3,131.6 864.0,131.8" fill="none" stroke="#8A9AAA" stroke-width="1.5" stroke-linejoin="round" stroke-linecap="round"/>
<line x1="16" y1="156" x2="864" y2="156" stroke="#2A3A4A" stroke-width="0.3" />
<rect x="0" y="156" width="880" height="32" fill="#FFFFFF" opacity="0.02"/>
<text x="16" y="176" text-anchor="start" font-family="Courier New, Courier, monospace" font-size="10" fill="#FFA020" font-weight="bold">QQQ</text>
<text x="72" y="176" text-anchor="start" font-family="Courier New, Courier, monospace" font-size="10" fill="#E8A000" >NASDAQ 100</text>
<text x="340" y="176" text-anchor="end" font-family="Courier New, Courier, monospace" font-size="11" fill="#D8E8F0" font-weight="bold">712.60</text>
<text x="420" y="176" text-anchor="end" font-family="Courier New, Courier, monospace" font-size="11" fill="#FF3C3C" >-1.62%</text>
<text x="500" y="176" text-anchor="end" font-family="Courier New, Courier, monospace" font-size="11" fill="#00C878" >+16.50%</text>
<polyline points="516.0,183.0 521.7,183.0 527.4,180.5 533.1,180.0 538.8,179.9 544.5,179.0 550.2,177.4 555.9,176.2 561.6,175.7 567.3,174.6 573.0,174.9 578.8,175.2 584.5,173.7 590.2,174.2 595.9,172.5 601.6,172.4 607.3,173.4 613.0,172.8 618.7,171.9 624.4,171.0 630.1,171.2 635.8,170.0 641.5,168.0 647.2,168.1 652.9,165.9 658.6,165.6 664.3,166.4 670.0,165.4 675.7,164.7 681.4,166.2 687.1,166.6 692.9,167.2 698.6,165.6 704.3,165.4 710.0,165.0 715.7,163.2 721.4,163.3 727.1,162.5 732.8,162.1 738.5,161.5 744.2,161.0 749.9,161.3 755.6,161.8 761.3,166.7 767.0,165.2 772.7,166.3 778.4,168.3 784.1,165.1 789.8,164.5 795.5,161.3 801.2,163.3 807.0,164.3 812.7,161.8 818.4,162.0 824.1,165.4 829.8,165.9 835.5,165.0 841.2,166.4 846.9,164.0 852.6,162.2 858.3,163.8 864.0,165.6" fill="none" stroke="#FF3C3C" stroke-width="1.5" stroke-linejoin="round" stroke-linecap="round"/>
<line x1="16" y1="188" x2="864" y2="188" stroke="#2A3A4A" stroke-width="0.3" />
<text x="16" y="208" text-anchor="start" font-family="Courier New, Courier, monospace" font-size="10" fill="#FFA020" font-weight="bold">QMOM</text>
<text x="72" y="208" text-anchor="start" font-family="Courier New, Courier, monospace" font-size="10" fill="#E8A000" >QUANT MOMENTUM</text>
<text x="340" y="208" text-anchor="end" font-family="Courier New, Courier, monospace" font-size="11" fill="#D8E8F0" font-weight="bold">75.86</text>
<text x="420" y="208" text-anchor="end" font-family="Courier New, Courier, monospace" font-size="11" fill="#FF3C3C" >-1.92%</text>
<text x="500" y="208" text-anchor="end" font-family="Courier New, Courier, monospace" font-size="11" fill="#00C878" >+14.10%</text>
<polyline points="516.0,215.0 521.7,214.8 527.4,208.6 533.1,207.8 538.8,207.5 544.5,206.2 550.2,205.0 555.9,206.2 561.6,205.8 567.3,202.9 573.0,202.8 578.8,204.6 584.5,203.3 590.2,202.7 595.9,202.7 601.6,203.2 607.3,206.5 613.0,207.9 618.7,202.1 624.4,202.5 630.1,202.2 635.8,200.3 641.5,195.5 647.2,200.9 652.9,198.6 658.6,196.3 664.3,197.6 670.0,196.3 675.7,196.1 681.4,201.0 687.1,203.3 692.9,205.1 698.6,202.1 704.3,201.2 710.0,200.7 715.7,196.5 721.4,197.4 727.1,196.2 732.8,195.3 738.5,195.6 744.2,193.0 749.9,193.6 755.6,194.0 761.3,201.9 767.0,201.0 772.7,202.7 778.4,206.0 784.1,199.6 789.8,197.8 795.5,196.7 801.2,198.3 807.0,199.2 812.7,198.3 818.4,195.5 824.1,199.4 829.8,200.8 835.5,198.3 841.2,201.7 846.9,199.6 852.6,198.5 858.3,201.0 864.0,203.8" fill="none" stroke="#FF3C3C" stroke-width="1.5" stroke-linejoin="round" stroke-linecap="round"/>
<line x1="16" y1="220" x2="864" y2="220" stroke="#2A3A4A" stroke-width="0.3" />
<rect x="0" y="220" width="880" height="32" fill="#FFFFFF" opacity="0.02"/>
<text x="16" y="240" text-anchor="start" font-family="Courier New, Courier, monospace" font-size="10" fill="#FFA020" font-weight="bold">MTUM</text>
<text x="72" y="240" text-anchor="start" font-family="Courier New, Courier, monospace" font-size="10" fill="#E8A000" >MOMENTUM FACTOR</text>
<text x="340" y="240" text-anchor="end" font-family="Courier New, Courier, monospace" font-size="11" fill="#D8E8F0" font-weight="bold">316.53</text>
<text x="420" y="240" text-anchor="end" font-family="Courier New, Courier, monospace" font-size="11" fill="#FF3C3C" >-3.63%</text>
<text x="500" y="240" text-anchor="end" font-family="Courier New, Courier, monospace" font-size="11" fill="#00C878" >+25.50%</text>
<polyline points="516.0,247.0 521.7,246.6 527.4,244.3 533.1,243.7 538.8,243.5 544.5,242.9 550.2,241.9 555.9,242.0 561.6,241.8 567.3,241.0 573.0,241.2 578.8,241.6 584.5,240.6 590.2,240.7 595.9,239.5 601.6,239.6 607.3,240.6 613.0,240.3 618.7,238.8 624.4,238.6 630.1,238.8 635.8,237.2 641.5,235.4 647.2,236.6 652.9,234.8 658.6,233.7 664.3,234.5 670.0,234.0 675.7,233.6 681.4,235.6 687.1,236.5 692.9,236.9 698.6,235.3 704.3,234.8 710.0,234.4 715.7,232.1 721.4,232.3 727.1,232.0 732.8,231.7 738.5,231.4 744.2,229.4 749.9,228.6 755.6,229.4 761.3,233.8 767.0,231.9 772.7,232.6 778.4,234.1 784.1,231.0 789.8,229.8 795.5,227.6 801.2,229.3 807.0,228.8 812.7,226.5 818.4,225.0 824.1,228.5 829.8,228.8 835.5,226.3 841.2,229.4 846.9,227.1 852.6,225.5 858.3,228.9 864.0,231.5" fill="none" stroke="#FF3C3C" stroke-width="1.5" stroke-linejoin="round" stroke-linecap="round"/>
<line x1="16" y1="252" x2="864" y2="252" stroke="#2A3A4A" stroke-width="0.3" />
<text x="16" y="272" text-anchor="start" font-family="Courier New, Courier, monospace" font-size="10" fill="#FFA020" font-weight="bold">QUAL</text>
<text x="72" y="272" text-anchor="start" font-family="Courier New, Courier, monospace" font-size="10" fill="#E8A000" >QUALITY FACTOR</text>
<text x="340" y="272" text-anchor="end" font-family="Courier New, Courier, monospace" font-size="11" fill="#D8E8F0" font-weight="bold">218.43</text>
<text x="420" y="272" text-anchor="end" font-family="Courier New, Courier, monospace" font-size="11" fill="#00C878" >+0.10%</text>
<text x="500" y="272" text-anchor="end" font-family="Courier New, Courier, monospace" font-size="11" fill="#00C878" >+10.09%</text>
<polyline points="516.0,278.5 521.7,279.0 527.4,274.3 533.1,273.3 538.8,273.9 544.5,272.5 550.2,270.8 555.9,269.9 561.6,269.9 567.3,267.7 573.0,268.0 578.8,269.0 584.5,267.5 590.2,268.6 595.9,267.3 601.6,267.5 607.3,268.6 613.0,268.7 618.7,267.5 624.4,267.5 630.1,268.4 635.8,267.3 641.5,265.1 647.2,265.6 652.9,264.8 658.6,264.7 664.3,264.9 670.0,264.4 675.7,263.2 681.4,264.8 687.1,264.4 692.9,265.5 698.6,263.3 704.3,262.9 710.0,261.5 715.7,260.4 721.4,260.8 727.1,260.3 732.8,260.6 738.5,260.2 744.2,260.4 749.9,260.5 755.6,259.1 761.3,262.6 767.0,262.0 772.7,261.7 778.4,263.2 784.1,260.3 789.8,259.4 795.5,257.2 801.2,258.4 807.0,261.2 812.7,260.0 818.4,260.0 824.1,262.4 829.8,262.2 835.5,262.2 841.2,261.8 846.9,258.8 852.6,257.0 858.3,257.5 864.0,257.8" fill="none" stroke="#00C878" stroke-width="1.5" stroke-linejoin="round" stroke-linecap="round"/>
<line x1="16" y1="284" x2="864" y2="284" stroke="#2A3A4A" stroke-width="0.3" />
<line x1="0" y1="284" x2="880" y2="284" stroke="#E8A000" stroke-width="0.4" />
<text x="16" y="297" text-anchor="start" font-family="Courier New, Courier, monospace" font-size="8" fill="#506070" >SRC: YAHOO FINANCE  ·  AUTO-UPDATE 22:00 UTC WEEKDAYS  ·  GITHUB.COM/YANKRUZISKI</text>
<text x="864" y="297" text-anchor="end" font-family="Courier New, Courier, monospace" font-size="8" fill="#506070" >2026-07-02</text>
</svg>