<svg xmlns="http://www.w3.org/2000/svg" width="880" height="302" viewBox="0 0 880 302">
<rect width="880" height="302" fill="#040810"/>
<rect x="0.5" y="0.5" width="879" height="301" fill="none" stroke="#E8A000" stroke-width="0.7" opacity="0.5"/>
<rect x="0" y="0" width="880" height="18" fill="#D87000"/>
<text x="16" y="14" text-anchor="start" font-family="Courier New, Courier, monospace" font-size="9" fill="#030608" font-weight="bold">BLOOMBERG</text>
<text x="88" y="14" text-anchor="start" font-family="Courier New, Courier, monospace" font-size="9" fill="#030608" >QUANT MARKET MONITOR</text>
<text x="440" y="14" text-anchor="middle" font-family="Courier New, Courier, monospace" font-size="9" fill="#030608" >EQUITY  &amp;  VOLATILITY  DASHBOARD</text>
<text x="864" y="14" text-anchor="end" font-family="Courier New, Courier, monospace" font-size="9" fill="#030608" >2026-05-15  22:23 UTC</text>
<line x1="0" y1="38" x2="880" y2="38" stroke="#E8A000" stroke-width="0.8" />
<text x="16" y="33" text-anchor="start" font-family="Courier New, Courier, monospace" font-size="9" fill="#506070" >YAN KRUZISKI  ·  VP OF INTELI RESEARCH  ·  SÃO PAULO, BR</text>
<text x="864" y="33" text-anchor="end" font-family="Courier New, Courier, monospace" font-size="9" fill="#506070" >PAGE 1/1</text>
<rect x="0" y="38" width="880" height="22" fill="#E8A000" opacity="0.14"/>
<text x="16" y="54" text-anchor="start" font-family="Courier New, Courier, monospace" font-size="9" fill="#FFA020" font-weight="bold">TICKER</text>
<text x="72" y="54" text-anchor="start" font-family="Courier New, Courier, monospace" font-size="9" fill="#FFA020" font-weight="bold">DESCRIPTION</text>
<text x="340" y="54" text-anchor="end" font-family="Courier New, Courier, monospace" font-size="9" fill="#FFA020" font-weight="bold">LAST</text>
<text x="420" y="54" text-anchor="end" font-family="Courier New, Courier, monospace" font-size="9" fill="#FFA020" font-weight="bold">%CHG</text>
<text x="500" y="54" text-anchor="end" font-family="Courier New, Courier, monospace" font-size="9" fill="#FFA020" font-weight="bold">YTD%</text>
<text x="690" y="54" text-anchor="middle" font-family="Courier New, Courier, monospace" font-size="9" fill="#FFA020" font-weight="bold">3-MONTH</text>
<line x1="0" y1="60" x2="880" y2="60" stroke="#E8A000" stroke-width="0.9" />
<rect x="0" y="60" width="880" height="32" fill="#E8A000" opacity="0.09"/>
<text x="16" y="80" text-anchor="start" font-family="Courier New, Courier, monospace" font-size="10" fill="#FFA020" font-weight="bold">^VIX</text>
<text x="72" y="80" text-anchor="start" font-family="Courier New, Courier, monospace" font-size="10" fill="#E8A000" font-weight="bold">CBOE VOLATILITY INDEX</text>
<text x="340" y="80" text-anchor="end" font-family="Courier New, Courier, monospace" font-size="11" fill="#D8E8F0" font-weight="bold">18.43</text>
<text x="420" y="80" text-anchor="end" font-family="Courier New, Courier, monospace" font-size="11" fill="#FF3C3C" font-weight="bold">+6.78%</text>
<text x="500" y="80" text-anchor="end" font-family="Courier New, Courier, monospace" font-size="10" fill="#FF3C3C" font-weight="bold">NORMAL</text>
<polyline points="516.0,81.7 521.6,82.8 527.2,81.8 532.8,83.6 538.5,80.6 544.1,82.9 549.7,85.4 555.3,84.3 560.9,82.4 566.5,79.9 572.1,76.6 577.7,80.4 583.4,76.3 589.0,67.4 594.6,73.6 600.2,74.5 605.8,75.6 611.4,70.8 617.0,71.0 622.6,76.7 628.3,78.5 633.9,74.3 639.5,75.9 645.1,71.6 650.7,72.6 656.3,71.4 661.9,73.9 667.5,70.6 673.2,65.0 678.8,65.7 684.4,74.0 690.0,75.1 695.6,76.2 701.2,75.7 706.8,73.2 712.5,80.6 718.1,83.0 723.7,83.4 729.3,83.5 734.9,84.7 740.5,85.0 746.1,85.4 751.7,86.1 757.4,83.9 763.0,82.9 768.6,83.8 774.2,83.2 779.8,84.2 785.4,85.2 791.0,85.5 796.6,84.0 802.3,87.0 807.9,86.8 813.5,84.8 819.1,86.2 824.7,86.2 830.3,86.7 835.9,86.5 841.5,84.7 847.2,85.3 852.8,85.5 858.4,86.4 864.0,84.6" fill="none" stroke="#FF3C3C" stroke-width="1.5" stroke-linejoin="round" stroke-linecap="round"/>
<line x1="0" y1="92" x2="880" y2="92" stroke="#E8A000" stroke-width="0.5" />
<rect x="0" y="92" width="880" height="32" fill="#FFFFFF" opacity="0.02"/>
<text x="16" y="112" text-anchor="start" font-family="Courier New, Courier, monospace" font-size="10" fill="#FFA020" font-weight="bold">IBOV</text>
<text x="72" y="112" text-anchor="start" font-family="Courier New, Courier, monospace" font-size="10" fill="#E8A000" >IBOVESPA</text>
<text x="340" y="112" text-anchor="end" font-family="Courier New, Courier, monospace" font-size="11" fill="#D8E8F0" font-weight="bold">177,284</text>
<text x="420" y="112" text-anchor="end" font-family="Courier New, Courier, monospace" font-size="11" fill="#FF3C3C" >-0.61%</text>
<text x="500" y="112" text-anchor="end" font-family="Courier New, Courier, monospace" font-size="11" fill="#00C878" >+10.43%</text>
<polyline points="516.0,109.4 521.9,106.9 527.8,105.0 533.7,106.6 539.6,104.0 545.5,104.3 551.4,104.5 557.3,106.7 563.2,106.2 569.1,112.2 575.0,110.0 580.9,114.8 586.8,115.9 592.7,114.4 598.6,111.9 604.5,111.4 610.4,116.0 616.3,117.6 622.2,115.4 628.1,114.9 634.0,115.6 639.9,115.0 645.8,119.0 651.7,113.4 657.6,112.8 663.5,110.0 669.4,112.6 675.3,113.8 681.2,112.8 687.1,108.0 692.9,107.5 698.8,107.4 704.7,107.3 710.6,107.2 716.5,103.3 722.4,100.5 728.3,98.3 734.2,97.6 740.1,97.0 746.0,97.9 751.9,98.8 757.8,99.9 763.7,99.5 769.6,102.7 775.5,104.1 781.4,104.8 787.3,105.9 793.2,106.8 799.1,110.6 805.0,108.1 810.9,109.8 816.8,108.7 822.7,107.8 828.6,112.1 834.5,111.3 840.4,113.4 846.3,115.0 852.2,118.1 858.1,116.9 864.0,118.0" fill="none" stroke="#FF3C3C" stroke-width="1.5" stroke-linejoin="round" stroke-linecap="round"/>
<line x1="16" y1="124" x2="864" y2="124" stroke="#2A3A4A" stroke-width="0.3" />
<text x="16" y="144" text-anchor="start" font-family="Courier New, Courier, monospace" font-size="10" fill="#FFA020" font-weight="bold">SPY</text>
<text x="72" y="144" text-anchor="start" font-family="Courier New, Courier, monospace" font-size="10" fill="#E8A000" >S&P 500</text>
<text x="340" y="144" text-anchor="end" font-family="Courier New, Courier, monospace" font-size="11" fill="#D8E8F0" font-weight="bold">739.17</text>
<text x="420" y="144" text-anchor="end" font-family="Courier New, Courier, monospace" font-size="11" fill="#FF3C3C" >-1.14%</text>
<text x="500" y="144" text-anchor="end" font-family="Courier New, Courier, monospace" font-size="11" fill="#00C878" >+8.49%</text>
<polyline points="516.0,141.7 521.6,141.1 527.2,141.4 532.8,140.5 538.5,141.8 544.1,140.9 549.7,139.8 555.3,140.5 560.9,141.1 566.5,141.1 572.1,142.2 577.7,141.3 583.4,142.0 589.0,143.7 594.6,142.6 600.2,142.8 605.8,143.0 611.4,144.9 617.0,145.6 622.6,144.3 628.3,144.0 633.9,145.8 639.5,146.1 645.1,147.9 650.7,146.6 656.3,147.0 661.9,146.3 667.5,148.5 673.2,150.6 678.8,151.0 684.4,147.5 690.0,146.6 695.6,146.5 701.2,145.9 706.8,145.8 712.5,142.7 718.1,141.9 723.7,142.0 729.3,140.8 734.9,139.2 740.5,138.1 746.1,137.8 751.7,136.2 757.4,136.5 763.0,137.3 768.6,136.0 774.2,136.5 779.8,135.5 785.4,135.2 791.0,135.9 796.6,135.9 802.3,134.6 807.9,134.2 813.5,134.7 819.1,133.6 824.7,131.7 830.3,132.1 835.9,131.0 841.5,130.7 847.2,130.9 852.8,130.1 858.4,129.0 864.0,130.7" fill="none" stroke="#FF3C3C" stroke-width="1.5" stroke-linejoin="round" stroke-linecap="round"/>
<line x1="16" y1="156" x2="864" y2="156" stroke="#2A3A4A" stroke-width="0.3" />
<rect x="0" y="156" width="880" height="32" fill="#FFFFFF" opacity="0.02"/>
<text x="16" y="176" text-anchor="start" font-family="Courier New, Courier, monospace" font-size="10" fill="#FFA020" font-weight="bold">QQQ</text>
<text x="72" y="176" text-anchor="start" font-family="Courier New, Courier, monospace" font-size="10" fill="#E8A000" >NASDAQ 100</text>
<text x="340" y="176" text-anchor="end" font-family="Courier New, Courier, monospace" font-size="11" fill="#D8E8F0" font-weight="bold">708.93</text>
<text x="420" y="176" text-anchor="end" font-family="Courier New, Courier, monospace" font-size="11" fill="#FF3C3C" >-1.50%</text>
<text x="500" y="176" text-anchor="end" font-family="Courier New, Courier, monospace" font-size="11" fill="#00C878" >+15.77%</text>
<polyline points="516.0,177.2 521.6,176.6 527.2,176.9 532.8,176.2 538.5,177.2 544.1,176.3 549.7,175.2 555.3,176.2 560.9,176.4 566.5,176.3 572.1,177.2 577.7,176.0 583.4,176.2 589.0,177.5 594.6,176.4 600.2,176.4 605.8,176.4 611.4,177.8 617.0,178.3 622.6,177.4 628.3,177.0 633.9,178.1 639.5,178.4 645.1,179.9 650.7,179.0 656.3,179.5 661.9,179.0 667.5,180.9 673.2,182.4 678.8,183.0 684.4,180.4 690.0,179.5 695.6,179.4 701.2,178.9 706.8,178.9 712.5,176.5 718.1,175.9 723.7,175.8 729.3,174.9 734.9,173.4 740.5,172.2 746.1,171.8 751.7,170.7 757.4,170.9 763.0,171.3 768.6,169.8 774.2,170.3 779.8,168.6 785.4,168.6 791.0,169.5 796.6,168.9 802.3,168.1 807.9,167.2 813.5,167.4 819.1,166.2 824.7,164.3 830.3,164.4 835.9,162.2 841.5,161.9 847.2,162.7 852.8,161.7 858.4,161.0 864.0,162.5" fill="none" stroke="#FF3C3C" stroke-width="1.5" stroke-linejoin="round" stroke-linecap="round"/>
<line x1="16" y1="188" x2="864" y2="188" stroke="#2A3A4A" stroke-width="0.3" />
<text x="16" y="208" text-anchor="start" font-family="Courier New, Courier, monospace" font-size="10" fill="#FFA020" font-weight="bold">QMOM</text>
<text x="72" y="208" text-anchor="start" font-family="Courier New, Courier, monospace" font-size="10" fill="#E8A000" >QUANT MOMENTUM</text>
<text x="340" y="208" text-anchor="end" font-family="Courier New, Courier, monospace" font-size="11" fill="#D8E8F0" font-weight="bold">77.34</text>
<text x="420" y="208" text-anchor="end" font-family="Courier New, Courier, monospace" font-size="11" fill="#FF3C3C" >-3.36%</text>
<text x="500" y="208" text-anchor="end" font-family="Courier New, Courier, monospace" font-size="11" fill="#00C878" >+16.32%</text>
<polyline points="516.0,206.1 521.6,205.3 527.2,204.6 532.8,203.8 538.5,205.0 544.1,203.2 549.7,202.8 555.3,202.3 560.9,203.0 566.5,202.0 572.1,206.0 577.7,205.2 583.4,208.1 589.0,210.3 594.6,207.6 600.2,206.9 605.8,207.7 611.4,209.9 617.0,211.6 622.6,209.3 628.3,208.5 633.9,209.6 639.5,209.3 645.1,212.6 650.7,210.4 656.3,209.0 661.9,207.6 667.5,211.4 673.2,212.0 678.8,215.0 684.4,209.7 690.0,207.7 695.6,208.0 701.2,207.7 706.8,207.5 712.5,202.9 718.1,202.3 723.7,202.1 729.3,201.1 734.9,200.2 740.5,201.1 746.1,200.8 751.7,198.6 757.4,198.5 763.0,199.9 768.6,198.9 774.2,198.5 779.8,198.4 785.4,198.8 791.0,201.3 796.6,202.3 802.3,198.0 807.9,198.3 813.5,198.1 819.1,196.6 824.7,193.0 830.3,197.1 835.9,195.3 841.5,193.6 847.2,194.6 852.8,193.7 858.4,193.5 864.0,197.2" fill="none" stroke="#FF3C3C" stroke-width="1.5" stroke-linejoin="round" stroke-linecap="round"/>
<line x1="16" y1="220" x2="864" y2="220" stroke="#2A3A4A" stroke-width="0.3" />
<rect x="0" y="220" width="880" height="32" fill="#FFFFFF" opacity="0.02"/>
<text x="16" y="240" text-anchor="start" font-family="Courier New, Courier, monospace" font-size="10" fill="#FFA020" font-weight="bold">MTUM</text>
<text x="72" y="240" text-anchor="start" font-family="Courier New, Courier, monospace" font-size="10" fill="#E8A000" >MOMENTUM FACTOR</text>
<text x="340" y="240" text-anchor="end" font-family="Courier New, Courier, monospace" font-size="11" fill="#D8E8F0" font-weight="bold">298.27</text>
<text x="420" y="240" text-anchor="end" font-family="Courier New, Courier, monospace" font-size="11" fill="#FF3C3C" >-2.92%</text>
<text x="500" y="240" text-anchor="end" font-family="Courier New, Courier, monospace" font-size="11" fill="#00C878" >+18.13%</text>
<polyline points="516.0,241.1 521.6,240.5 527.2,240.6 532.8,240.2 538.5,241.6 544.1,240.9 549.7,239.7 555.3,240.1 560.9,240.7 566.5,240.5 572.1,242.4 577.7,241.3 583.4,242.4 589.0,244.0 594.6,242.3 600.2,242.0 605.8,241.9 611.4,243.3 617.0,243.4 622.6,242.5 628.3,242.0 633.9,242.5 639.5,242.4 645.1,243.9 650.7,243.0 656.3,242.8 661.9,242.3 667.5,244.9 673.2,245.6 678.8,247.0 684.4,244.3 690.0,242.8 695.6,242.7 701.2,242.1 706.8,241.7 712.5,238.7 718.1,237.9 723.7,237.6 729.3,236.9 734.9,235.6 740.5,235.7 746.1,235.5 751.7,234.4 757.4,234.7 763.0,235.3 768.6,234.0 774.2,234.0 779.8,232.6 785.4,232.6 791.0,233.9 796.6,233.5 802.3,231.7 807.9,231.4 813.5,231.6 819.1,229.6 824.7,227.3 830.3,228.8 835.9,226.6 841.5,225.2 847.2,226.2 852.8,225.5 858.4,225.0 864.0,227.6" fill="none" stroke="#FF3C3C" stroke-width="1.5" stroke-linejoin="round" stroke-linecap="round"/>
<line x1="16" y1="252" x2="864" y2="252" stroke="#2A3A4A" stroke-width="0.3" />
<text x="16" y="272" text-anchor="start" font-family="Courier New, Courier, monospace" font-size="10" fill="#FFA020" font-weight="bold">QUAL</text>
<text x="72" y="272" text-anchor="start" font-family="Courier New, Courier, monospace" font-size="10" fill="#E8A000" >QUALITY FACTOR</text>
<text x="340" y="272" text-anchor="end" font-family="Courier New, Courier, monospace" font-size="11" fill="#D8E8F0" font-weight="bold">210.45</text>
<text x="420" y="272" text-anchor="end" font-family="Courier New, Courier, monospace" font-size="11" fill="#FF3C3C" >-0.51%</text>
<text x="500" y="272" text-anchor="end" font-family="Courier New, Courier, monospace" font-size="11" fill="#00C878" >+5.88%</text>
<polyline points="516.0,266.0 521.6,264.9 527.2,265.3 532.8,264.2 538.5,266.0 544.1,264.5 549.7,263.3 555.3,263.8 560.9,263.8 566.5,264.1 572.1,265.9 577.7,265.0 583.4,266.5 589.0,269.0 594.6,267.3 600.2,267.6 605.8,268.3 611.4,271.1 617.0,272.0 622.6,270.4 628.3,270.2 633.9,272.5 639.5,272.4 645.1,274.4 650.7,272.7 656.3,273.2 661.9,272.5 667.5,275.9 673.2,278.3 678.8,279.0 684.4,274.5 690.0,273.7 695.6,273.3 701.2,272.6 706.8,273.1 712.5,268.4 718.1,267.3 723.7,268.0 729.3,266.5 734.9,264.7 740.5,263.8 746.1,263.8 751.7,261.6 757.4,261.9 763.0,262.9 768.6,261.4 774.2,262.5 779.8,261.2 785.4,261.4 791.0,262.5 796.6,262.6 802.3,261.4 807.9,261.4 813.5,262.3 819.1,261.1 824.7,259.0 830.3,259.5 835.9,258.6 841.5,258.5 847.2,258.7 852.8,258.2 858.4,257.0 864.0,258.6" fill="none" stroke="#FF3C3C" stroke-width="1.5" stroke-linejoin="round" stroke-linecap="round"/>
<line x1="16" y1="284" x2="864" y2="284" stroke="#2A3A4A" stroke-width="0.3" />
<line x1="0" y1="284" x2="880" y2="284" stroke="#E8A000" stroke-width="0.4" />
<text x="16" y="297" text-anchor="start" font-family="Courier New, Courier, monospace" font-size="8" fill="#506070" >SRC: YAHOO FINANCE  ·  AUTO-UPDATE 22:00 UTC WEEKDAYS  ·  GITHUB.COM/YANKRUZISKI</text>
<text x="864" y="297" text-anchor="end" font-family="Courier New, Courier, monospace" font-size="8" fill="#506070" >2026-05-15</text>
</svg>