<svg xmlns="http://www.w3.org/2000/svg" width="880" height="302" viewBox="0 0 880 302">
<rect width="880" height="302" fill="#040810"/>
<rect x="0.5" y="0.5" width="879" height="301" fill="none" stroke="#E8A000" stroke-width="0.7" opacity="0.5"/>
<rect x="0" y="0" width="880" height="18" fill="#D87000"/>
<text x="16" y="14" text-anchor="start" font-family="Courier New, Courier, monospace" font-size="9" fill="#030608" font-weight="bold">BLOOMBERG</text>
<text x="88" y="14" text-anchor="start" font-family="Courier New, Courier, monospace" font-size="9" fill="#030608" >QUANT MARKET MONITOR</text>
<text x="440" y="14" text-anchor="middle" font-family="Courier New, Courier, monospace" font-size="9" fill="#030608" >EQUITY  &amp;  VOLATILITY  DASHBOARD</text>
<text x="864" y="14" text-anchor="end" font-family="Courier New, Courier, monospace" font-size="9" fill="#030608" >2026-07-08  22:23 UTC</text>
<line x1="0" y1="38" x2="880" y2="38" stroke="#E8A000" stroke-width="0.8" />
<text x="16" y="33" text-anchor="start" font-family="Courier New, Courier, monospace" font-size="9" fill="#506070" >YAN KRUZISKI  ·  VP OF INTELI RESEARCH  ·  SÃO PAULO, BR</text>
<text x="864" y="33" text-anchor="end" font-family="Courier New, Courier, monospace" font-size="9" fill="#506070" >PAGE 1/1</text>
<rect x="0" y="38" width="880" height="22" fill="#E8A000" opacity="0.14"/>
<text x="16" y="54" text-anchor="start" font-family="Courier New, Courier, monospace" font-size="9" fill="#FFA020" font-weight="bold">TICKER</text>
<text x="72" y="54" text-anchor="start" font-family="Courier New, Courier, monospace" font-size="9" fill="#FFA020" font-weight="bold">DESCRIPTION</text>
<text x="340" y="54" text-anchor="end" font-family="Courier New, Courier, monospace" font-size="9" fill="#FFA020" font-weight="bold">LAST</text>
<text x="420" y="54" text-anchor="end" font-family="Courier New, Courier, monospace" font-size="9" fill="#FFA020" font-weight="bold">%CHG</text>
<text x="500" y="54" text-anchor="end" font-family="Courier New, Courier, monospace" font-size="9" fill="#FFA020" font-weight="bold">YTD%</text>
<text x="690" y="54" text-anchor="middle" font-family="Courier New, Courier, monospace" font-size="9" fill="#FFA020" font-weight="bold">3-MONTH</text>
<line x1="0" y1="60" x2="880" y2="60" stroke="#E8A000" stroke-width="0.9" />
<rect x="0" y="60" width="880" height="32" fill="#E8A000" opacity="0.09"/>
<text x="16" y="80" text-anchor="start" font-family="Courier New, Courier, monospace" font-size="10" fill="#FFA020" font-weight="bold">^VIX</text>
<text x="72" y="80" text-anchor="start" font-family="Courier New, Courier, monospace" font-size="10" fill="#E8A000" font-weight="bold">CBOE VOLATILITY INDEX</text>
<text x="340" y="80" text-anchor="end" font-family="Courier New, Courier, monospace" font-size="11" fill="#D8E8F0" font-weight="bold">16.90</text>
<text x="420" y="80" text-anchor="end" font-family="Courier New, Courier, monospace" font-size="11" fill="#FF3C3C" font-weight="bold">+4.77%</text>
<text x="500" y="80" text-anchor="end" font-family="Courier New, Courier, monospace" font-size="10" fill="#FF3C3C" font-weight="bold">NORMAL</text>
<polyline points="516.0,68.8 521.5,73.7 527.0,74.5 532.6,74.9 538.1,77.3 543.6,77.9 549.1,78.6 554.7,80.1 560.2,75.7 565.7,73.7 571.2,75.5 576.8,74.3 582.3,76.2 587.8,78.4 593.3,79.0 598.9,75.9 604.4,82.0 609.9,81.7 615.4,77.5 621.0,80.4 626.5,80.4 632.0,81.4 637.5,81.0 643.0,77.2 648.6,78.5 654.1,78.9 659.6,80.8 665.1,77.1 670.7,79.0 676.2,78.3 681.7,80.2 687.2,82.4 692.8,82.6 698.3,83.0 703.8,81.6 709.3,83.9 714.9,85.7 720.4,87.0 725.9,84.7 731.4,85.6 737.0,84.6 742.5,86.7 748.0,67.3 753.5,75.5 759.0,72.5 764.6,65.0 770.1,73.9 775.6,79.5 781.1,84.2 786.7,83.5 792.2,77.1 797.7,83.6 803.2,80.8 808.8,73.7 814.3,76.4 819.8,75.6 825.3,77.1 830.9,79.6 836.4,83.4 841.9,83.0 847.4,84.4 853.0,86.2 858.5,84.4 864.0,82.0" fill="none" stroke="#FF3C3C" stroke-width="1.5" stroke-linejoin="round" stroke-linecap="round"/>
<line x1="0" y1="92" x2="880" y2="92" stroke="#E8A000" stroke-width="0.5" />
<rect x="0" y="92" width="880" height="32" fill="#FFFFFF" opacity="0.02"/>
<text x="16" y="112" text-anchor="start" font-family="Courier New, Courier, monospace" font-size="10" fill="#FFA020" font-weight="bold">IBOV</text>
<text x="72" y="112" text-anchor="start" font-family="Courier New, Courier, monospace" font-size="10" fill="#E8A000" >IBOVESPA</text>
<text x="340" y="112" text-anchor="end" font-family="Courier New, Courier, monospace" font-size="11" fill="#D8E8F0" font-weight="bold">170,653</text>
<text x="420" y="112" text-anchor="end" font-family="Courier New, Courier, monospace" font-size="11" fill="#FF3C3C" >-0.79%</text>
<text x="500" y="112" text-anchor="end" font-family="Courier New, Courier, monospace" font-size="11" fill="#00C878" >+6.30%</text>
<polyline points="516.0,101.7 521.6,99.6 527.2,98.0 532.8,97.5 538.5,97.0 544.1,97.7 549.7,98.3 555.3,99.1 560.9,98.8 566.5,101.2 572.1,102.3 577.7,102.7 583.4,103.6 589.0,104.3 594.6,107.1 600.2,105.2 605.8,106.5 611.4,105.6 617.0,104.9 622.6,108.2 628.3,107.5 633.9,109.1 639.5,110.3 645.1,112.6 650.7,111.7 656.3,112.5 661.9,112.7 667.5,114.7 673.2,112.4 678.8,112.2 684.4,113.3 690.0,112.4 695.6,113.0 701.2,113.6 706.8,114.1 712.5,115.0 718.1,116.2 723.7,114.7 729.3,117.5 734.9,118.5 740.5,118.7 746.1,117.9 751.7,118.8 757.4,116.7 763.0,116.9 768.6,117.5 774.2,118.0 779.8,118.9 785.4,119.0 791.0,118.8 796.6,117.5 802.3,116.8 807.9,117.4 813.5,116.3 819.1,115.4 824.7,115.4 830.3,116.3 835.9,116.5 841.5,115.7 847.2,114.7 852.8,116.0 858.4,116.3 864.0,117.3" fill="none" stroke="#FF3C3C" stroke-width="1.5" stroke-linejoin="round" stroke-linecap="round"/>
<line x1="16" y1="124" x2="864" y2="124" stroke="#2A3A4A" stroke-width="0.3" />
<text x="16" y="144" text-anchor="start" font-family="Courier New, Courier, monospace" font-size="10" fill="#FFA020" font-weight="bold">SPY</text>
<text x="72" y="144" text-anchor="start" font-family="Courier New, Courier, monospace" font-size="10" fill="#E8A000" >S&amp;P 500</text>
<text x="340" y="144" text-anchor="end" font-family="Courier New, Courier, monospace" font-size="11" fill="#D8E8F0" font-weight="bold">745.40</text>
<text x="420" y="144" text-anchor="end" font-family="Courier New, Courier, monospace" font-size="11" fill="#FF3C3C" >-0.10%</text>
<text x="500" y="144" text-anchor="end" font-family="Courier New, Courier, monospace" font-size="11" fill="#00C878" >+9.69%</text>
<polyline points="516.0,150.9 521.7,151.0 527.4,149.2 533.1,146.9 538.8,145.4 544.5,144.9 550.2,142.6 555.9,143.0 561.6,144.2 567.3,142.3 573.0,143.0 578.8,141.5 584.5,141.2 590.2,142.1 595.9,142.2 601.6,140.2 607.3,139.7 613.0,140.4 618.7,138.8 624.4,136.1 630.1,136.7 635.8,135.0 641.5,134.6 647.2,134.9 652.9,133.7 658.6,132.1 664.3,134.6 670.0,134.7 675.7,136.1 681.4,134.0 687.1,133.6 692.9,132.8 698.6,131.5 704.3,131.5 710.0,130.4 715.7,129.8 721.4,129.3 727.1,129.0 732.8,130.5 738.5,129.7 744.2,135.0 749.9,134.6 755.6,135.2 761.3,138.4 767.0,135.0 772.7,133.9 778.4,130.3 784.1,131.5 789.8,134.1 795.5,132.0 801.2,132.6 807.0,135.6 812.7,135.7 818.4,135.4 824.1,136.9 829.8,133.6 835.5,132.0 841.2,132.3 846.9,132.5 852.6,130.7 858.3,131.7 864.0,132.4" fill="none" stroke="#FF3C3C" stroke-width="1.5" stroke-linejoin="round" stroke-linecap="round"/>
<line x1="16" y1="156" x2="864" y2="156" stroke="#2A3A4A" stroke-width="0.3" />
<rect x="0" y="156" width="880" height="32" fill="#FFFFFF" opacity="0.02"/>
<text x="16" y="176" text-anchor="start" font-family="Courier New, Courier, monospace" font-size="10" fill="#FFA020" font-weight="bold">QQQ</text>
<text x="72" y="176" text-anchor="start" font-family="Courier New, Courier, monospace" font-size="10" fill="#E8A000" >NASDAQ 100</text>
<text x="340" y="176" text-anchor="end" font-family="Courier New, Courier, monospace" font-size="11" fill="#D8E8F0" font-weight="bold">711.44</text>
<text x="420" y="176" text-anchor="end" font-family="Courier New, Courier, monospace" font-size="11" fill="#00C878" >+0.62%</text>
<text x="500" y="176" text-anchor="end" font-family="Courier New, Courier, monospace" font-size="11" fill="#00C878" >+16.31%</text>
<polyline points="516.0,183.0 521.7,182.9 527.4,181.8 533.1,180.0 538.8,178.6 544.5,178.1 550.2,176.7 555.9,177.1 561.6,177.5 567.3,175.7 573.0,176.3 578.8,174.3 584.5,174.3 590.2,175.3 595.9,174.7 601.6,173.7 607.3,172.7 613.0,172.9 618.7,171.4 624.4,169.2 630.1,169.3 635.8,166.7 641.5,166.3 647.2,167.3 652.9,166.1 658.6,165.3 664.3,167.0 670.0,167.5 675.7,168.2 681.4,166.3 687.1,166.1 692.9,165.6 698.6,163.6 704.3,163.7 710.0,162.7 715.7,162.3 721.4,161.6 727.1,161.0 732.8,161.3 738.5,161.9 744.2,167.6 749.9,165.9 755.6,167.2 761.3,169.5 767.0,165.7 772.7,165.0 778.4,161.3 784.1,163.6 789.8,164.8 795.5,161.9 801.2,162.2 807.0,166.1 812.7,166.6 818.4,165.7 824.1,167.3 829.8,164.4 835.5,162.4 841.2,164.3 846.9,166.3 852.6,164.6 858.3,166.8 864.0,166.5" fill="none" stroke="#00C878" stroke-width="1.5" stroke-linejoin="round" stroke-linecap="round"/>
<line x1="16" y1="188" x2="864" y2="188" stroke="#2A3A4A" stroke-width="0.3" />
<text x="16" y="208" text-anchor="start" font-family="Courier New, Courier, monospace" font-size="10" fill="#FFA020" font-weight="bold">QMOM</text>
<text x="72" y="208" text-anchor="start" font-family="Courier New, Courier, monospace" font-size="10" fill="#E8A000" >QUANT MOMENTUM</text>
<text x="340" y="208" text-anchor="end" font-family="Courier New, Courier, monospace" font-size="11" fill="#D8E8F0" font-weight="bold">76.44</text>
<text x="420" y="208" text-anchor="end" font-family="Courier New, Courier, monospace" font-size="11" fill="#00C878" >+1.24%</text>
<text x="500" y="208" text-anchor="end" font-family="Courier New, Courier, monospace" font-size="11" fill="#00C878" >+14.97%</text>
<polyline points="516.0,214.8 521.7,214.5 527.4,212.6 533.1,210.8 538.8,212.5 544.5,211.9 550.2,207.7 555.9,207.5 561.6,210.1 567.3,208.2 573.0,207.4 578.8,207.3 584.5,208.0 590.2,212.9 595.9,215.0 601.6,206.5 607.3,207.1 613.0,206.6 618.7,203.8 624.4,196.6 630.1,204.6 635.8,201.2 641.5,197.8 647.2,199.8 652.9,197.9 658.6,197.5 664.3,204.9 670.0,208.3 675.7,210.9 681.4,206.5 687.1,205.2 692.9,204.4 698.6,198.2 704.3,199.6 710.0,197.7 715.7,196.4 721.4,196.9 727.1,193.0 732.8,193.8 738.5,194.5 744.2,206.2 749.9,204.8 755.6,207.3 761.3,212.3 767.0,202.8 772.7,200.0 778.4,198.5 784.1,200.8 789.8,202.2 795.5,200.8 801.2,196.6 807.0,202.5 812.7,204.5 818.4,200.8 824.1,205.9 829.8,202.7 835.5,201.1 841.2,204.8 846.9,208.9 852.6,207.2 858.3,209.9 864.0,207.3" fill="none" stroke="#00C878" stroke-width="1.5" stroke-linejoin="round" stroke-linecap="round"/>
<line x1="16" y1="220" x2="864" y2="220" stroke="#2A3A4A" stroke-width="0.3" />
<rect x="0" y="220" width="880" height="32" fill="#FFFFFF" opacity="0.02"/>
<text x="16" y="240" text-anchor="start" font-family="Courier New, Courier, monospace" font-size="10" fill="#FFA020" font-weight="bold">MTUM</text>
<text x="72" y="240" text-anchor="start" font-family="Courier New, Courier, monospace" font-size="10" fill="#E8A000" >MOMENTUM FACTOR</text>
<text x="340" y="240" text-anchor="end" font-family="Courier New, Courier, monospace" font-size="11" fill="#D8E8F0" font-weight="bold">314.85</text>
<text x="420" y="240" text-anchor="end" font-family="Courier New, Courier, monospace" font-size="11" fill="#00C878" >+0.50%</text>
<text x="500" y="240" text-anchor="end" font-family="Courier New, Courier, monospace" font-size="11" fill="#00C878" >+24.83%</text>
<polyline points="516.0,247.0 521.7,246.7 527.4,246.0 533.1,244.9 538.8,245.0 544.5,244.8 550.2,243.8 555.9,244.1 561.6,244.6 567.3,243.4 573.0,243.4 578.8,242.1 584.5,242.1 590.2,243.4 595.9,243.0 601.6,241.3 607.3,241.0 613.0,241.2 618.7,239.4 624.4,237.3 630.1,238.7 635.8,236.6 641.5,235.3 647.2,236.2 652.9,235.6 658.6,235.1 664.3,237.5 670.0,238.6 675.7,239.0 681.4,237.2 687.1,236.5 692.9,236.1 698.6,233.3 704.3,233.5 710.0,233.2 715.7,232.9 721.4,232.6 727.1,230.2 732.8,229.3 738.5,230.2 744.2,235.3 749.9,233.1 755.6,234.0 761.3,235.8 767.0,232.0 772.7,230.6 778.4,228.1 784.1,230.1 789.8,229.5 795.5,226.8 801.2,225.0 807.0,229.1 812.7,229.5 818.4,226.6 824.1,230.2 829.8,227.4 835.5,225.6 841.2,229.5 846.9,232.6 852.6,231.2 858.3,233.7 864.0,233.0" fill="none" stroke="#00C878" stroke-width="1.5" stroke-linejoin="round" stroke-linecap="round"/>
<line x1="16" y1="252" x2="864" y2="252" stroke="#2A3A4A" stroke-width="0.3" />
<text x="16" y="272" text-anchor="start" font-family="Courier New, Courier, monospace" font-size="10" fill="#FFA020" font-weight="bold">QUAL</text>
<text x="72" y="272" text-anchor="start" font-family="Courier New, Courier, monospace" font-size="10" fill="#E8A000" >QUALITY FACTOR</text>
<text x="340" y="272" text-anchor="end" font-family="Courier New, Courier, monospace" font-size="11" fill="#D8E8F0" font-weight="bold">216.92</text>
<text x="420" y="272" text-anchor="end" font-family="Courier New, Courier, monospace" font-size="11" fill="#8A9AAA" >-0.04%</text>
<text x="500" y="272" text-anchor="end" font-family="Courier New, Courier, monospace" font-size="11" fill="#00C878" >+9.33%</text>
<polyline points="516.0,278.2 521.7,279.0 527.4,277.1 533.1,274.9 538.8,273.7 544.5,273.8 550.2,270.9 555.9,271.3 561.6,272.5 567.3,270.7 573.0,272.1 578.8,270.4 584.5,270.7 590.2,272.0 595.9,272.2 601.6,270.6 607.3,270.7 613.0,271.8 618.7,270.3 624.4,267.6 630.1,268.2 635.8,267.2 641.5,267.0 647.2,267.2 652.9,266.6 658.6,265.1 664.3,267.1 670.0,266.6 675.7,268.1 681.4,265.2 687.1,264.7 692.9,262.9 698.6,261.4 704.3,262.0 710.0,261.3 715.7,261.7 721.4,261.2 727.1,261.4 732.8,261.5 738.5,259.7 744.2,264.2 749.9,263.5 755.6,263.2 761.3,265.1 767.0,261.2 772.7,260.1 778.4,257.2 784.1,258.8 789.8,262.4 795.5,260.8 801.2,260.9 807.0,264.0 812.7,263.8 818.4,263.7 824.1,263.2 829.8,259.3 835.5,257.0 841.2,257.6 846.9,258.1 852.6,258.0 858.3,258.8 864.0,259.7" fill="none" stroke="#8A9AAA" stroke-width="1.5" stroke-linejoin="round" stroke-linecap="round"/>
<line x1="16" y1="284" x2="864" y2="284" stroke="#2A3A4A" stroke-width="0.3" />
<line x1="0" y1="284" x2="880" y2="284" stroke="#E8A000" stroke-width="0.4" />
<text x="16" y="297" text-anchor="start" font-family="Courier New, Courier, monospace" font-size="8" fill="#506070" >SRC: YAHOO FINANCE  ·  AUTO-UPDATE 22:00 UTC WEEKDAYS  ·  GITHUB.COM/YANKRUZISKI</text>
<text x="864" y="297" text-anchor="end" font-family="Courier New, Courier, monospace" font-size="8" fill="#506070" >2026-07-08</text>
</svg>