<svg xmlns="http://www.w3.org/2000/svg" width="880" height="302" viewBox="0 0 880 302">
<rect width="880" height="302" fill="#040810"/>
<rect x="0.5" y="0.5" width="879" height="301" fill="none" stroke="#E8A000" stroke-width="0.7" opacity="0.5"/>
<rect x="0" y="0" width="880" height="18" fill="#D87000"/>
<text x="16" y="14" text-anchor="start" font-family="Courier New, Courier, monospace" font-size="9" fill="#030608" font-weight="bold">BLOOMBERG</text>
<text x="88" y="14" text-anchor="start" font-family="Courier New, Courier, monospace" font-size="9" fill="#030608" >QUANT MARKET MONITOR</text>
<text x="440" y="14" text-anchor="middle" font-family="Courier New, Courier, monospace" font-size="9" fill="#030608" >EQUITY  &amp;  VOLATILITY  DASHBOARD</text>
<text x="864" y="14" text-anchor="end" font-family="Courier New, Courier, monospace" font-size="9" fill="#030608" >2026-06-05  22:28 UTC</text>
<line x1="0" y1="38" x2="880" y2="38" stroke="#E8A000" stroke-width="0.8" />
<text x="16" y="33" text-anchor="start" font-family="Courier New, Courier, monospace" font-size="9" fill="#506070" >YAN KRUZISKI  ·  VP OF INTELI RESEARCH  ·  SÃO PAULO, BR</text>
<text x="864" y="33" text-anchor="end" font-family="Courier New, Courier, monospace" font-size="9" fill="#506070" >PAGE 1/1</text>
<rect x="0" y="38" width="880" height="22" fill="#E8A000" opacity="0.14"/>
<text x="16" y="54" text-anchor="start" font-family="Courier New, Courier, monospace" font-size="9" fill="#FFA020" font-weight="bold">TICKER</text>
<text x="72" y="54" text-anchor="start" font-family="Courier New, Courier, monospace" font-size="9" fill="#FFA020" font-weight="bold">DESCRIPTION</text>
<text x="340" y="54" text-anchor="end" font-family="Courier New, Courier, monospace" font-size="9" fill="#FFA020" font-weight="bold">LAST</text>
<text x="420" y="54" text-anchor="end" font-family="Courier New, Courier, monospace" font-size="9" fill="#FFA020" font-weight="bold">%CHG</text>
<text x="500" y="54" text-anchor="end" font-family="Courier New, Courier, monospace" font-size="9" fill="#FFA020" font-weight="bold">YTD%</text>
<text x="690" y="54" text-anchor="middle" font-family="Courier New, Courier, monospace" font-size="9" fill="#FFA020" font-weight="bold">3-MONTH</text>
<line x1="0" y1="60" x2="880" y2="60" stroke="#E8A000" stroke-width="0.9" />
<rect x="0" y="60" width="880" height="32" fill="#E8A000" opacity="0.09"/>
<text x="16" y="80" text-anchor="start" font-family="Courier New, Courier, monospace" font-size="10" fill="#FFA020" font-weight="bold">^VIX</text>
<text x="72" y="80" text-anchor="start" font-family="Courier New, Courier, monospace" font-size="10" fill="#E8A000" font-weight="bold">CBOE VOLATILITY INDEX</text>
<text x="340" y="80" text-anchor="end" font-family="Courier New, Courier, monospace" font-size="11" fill="#D8E8F0" font-weight="bold">21.51</text>
<text x="420" y="80" text-anchor="end" font-family="Courier New, Courier, monospace" font-size="11" fill="#FF3C3C" font-weight="bold">+39.77%</text>
<text x="500" y="80" text-anchor="end" font-family="Courier New, Courier, monospace" font-size="10" fill="#FF3C3C" font-weight="bold">ELEVATED</text>
<polyline points="516.0,75.2 521.4,67.2 526.7,72.8 532.1,73.6 537.4,74.5 542.8,70.3 548.1,70.4 553.5,75.5 558.8,77.1 564.2,73.3 569.5,74.8 574.9,71.0 580.2,71.9 585.6,70.7 591.0,73.0 596.3,70.0 601.7,65.0 607.0,65.6 612.4,73.1 617.7,74.1 623.1,75.0 628.4,74.6 633.8,72.4 639.1,79.0 644.5,81.2 649.8,81.5 655.2,81.7 660.6,82.7 665.9,83.0 671.3,83.3 676.6,84.0 682.0,82.0 687.3,81.2 692.7,82.0 698.0,81.4 703.4,82.3 708.7,83.2 714.1,83.5 719.4,82.1 724.8,84.8 730.2,84.7 735.5,82.8 740.9,84.1 746.2,84.1 751.6,84.5 756.9,84.4 762.3,82.7 767.6,83.3 773.0,83.4 778.3,84.3 783.7,82.7 789.0,83.5 794.4,83.2 799.8,84.0 805.1,85.0 810.5,85.1 815.8,85.2 821.2,84.6 826.5,85.6 831.9,86.4 837.2,87.0 842.6,86.0 847.9,86.4 853.3,86.0 858.6,86.9 864.0,78.3" fill="none" stroke="#FF3C3C" stroke-width="1.5" stroke-linejoin="round" stroke-linecap="round"/>
<line x1="0" y1="92" x2="880" y2="92" stroke="#E8A000" stroke-width="0.5" />
<rect x="0" y="92" width="880" height="32" fill="#FFFFFF" opacity="0.02"/>
<text x="16" y="112" text-anchor="start" font-family="Courier New, Courier, monospace" font-size="10" fill="#FFA020" font-weight="bold">IBOV</text>
<text x="72" y="112" text-anchor="start" font-family="Courier New, Courier, monospace" font-size="10" fill="#E8A000" >IBOVESPA</text>
<text x="340" y="112" text-anchor="end" font-family="Courier New, Courier, monospace" font-size="11" fill="#D8E8F0" font-weight="bold">169,019</text>
<text x="420" y="112" text-anchor="end" font-family="Courier New, Courier, monospace" font-size="11" fill="#FF3C3C" >-0.77%</text>
<text x="500" y="112" text-anchor="end" font-family="Courier New, Courier, monospace" font-size="11" fill="#00C878" >+5.28%</text>
<polyline points="516.0,110.5 521.6,111.3 527.2,110.2 532.8,108.3 538.5,107.9 544.1,111.4 549.7,112.6 555.3,110.9 560.9,110.5 566.5,111.1 572.1,110.6 577.7,113.7 583.4,109.4 589.0,109.0 594.6,106.8 600.2,108.8 605.8,109.7 611.4,109.0 617.0,105.3 622.6,104.9 628.3,104.9 633.9,104.8 639.5,104.7 645.1,101.8 650.7,99.6 656.3,98.0 661.9,97.5 667.5,97.0 673.2,97.7 678.8,98.4 684.4,99.2 690.0,98.9 695.6,101.3 701.2,102.4 706.8,102.9 712.5,103.7 718.1,104.5 723.7,107.3 729.3,105.4 734.9,106.7 740.5,105.8 746.1,105.1 751.7,108.5 757.4,107.8 763.0,109.4 768.6,110.6 774.2,113.0 779.8,112.1 785.4,112.9 791.0,113.1 796.6,115.1 802.3,112.8 807.9,112.6 813.5,113.7 819.1,112.8 824.7,113.4 830.3,114.0 835.9,114.5 841.5,115.5 847.2,116.6 852.8,115.2 858.4,118.0 864.0,119.0" fill="none" stroke="#FF3C3C" stroke-width="1.5" stroke-linejoin="round" stroke-linecap="round"/>
<line x1="16" y1="124" x2="864" y2="124" stroke="#2A3A4A" stroke-width="0.3" />
<text x="16" y="144" text-anchor="start" font-family="Courier New, Courier, monospace" font-size="10" fill="#FFA020" font-weight="bold">SPY</text>
<text x="72" y="144" text-anchor="start" font-family="Courier New, Courier, monospace" font-size="10" fill="#E8A000" >S&amp;P 500</text>
<text x="340" y="144" text-anchor="end" font-family="Courier New, Courier, monospace" font-size="11" fill="#D8E8F0" font-weight="bold">737.55</text>
<text x="420" y="144" text-anchor="end" font-family="Courier New, Courier, monospace" font-size="11" fill="#FF3C3C" >-2.25%</text>
<text x="500" y="144" text-anchor="end" font-family="Courier New, Courier, monospace" font-size="11" fill="#00C878" >+8.25%</text>
<polyline points="516.0,144.3 521.5,143.3 527.0,143.5 532.6,143.7 538.1,145.4 543.6,146.1 549.1,144.9 554.7,144.6 560.2,146.2 565.7,146.5 571.2,148.1 576.8,147.0 582.3,147.3 587.8,146.7 593.3,148.7 598.9,150.6 604.4,151.0 609.9,147.8 615.4,147.0 621.0,146.9 626.5,146.4 632.0,146.3 637.5,143.4 643.0,142.7 648.6,142.8 654.1,141.7 659.6,140.2 665.1,139.3 670.7,139.0 676.2,137.5 681.7,137.8 687.2,138.6 692.8,137.3 698.3,137.8 703.8,136.9 709.3,136.7 714.9,137.3 720.4,137.3 725.9,136.1 731.4,135.7 737.0,136.2 742.5,135.2 748.0,133.4 753.5,133.8 759.0,132.8 764.6,132.5 770.1,132.7 775.6,132.0 781.1,131.0 786.7,132.5 792.2,132.6 797.7,133.5 803.2,132.2 808.8,131.9 814.3,131.4 819.8,130.5 825.3,130.6 830.9,129.9 836.4,129.5 841.9,129.2 847.4,129.0 853.0,129.9 858.5,129.4 864.0,132.8" fill="none" stroke="#FF3C3C" stroke-width="1.5" stroke-linejoin="round" stroke-linecap="round"/>
<line x1="16" y1="156" x2="864" y2="156" stroke="#2A3A4A" stroke-width="0.3" />
<rect x="0" y="156" width="880" height="32" fill="#FFFFFF" opacity="0.02"/>
<text x="16" y="176" text-anchor="start" font-family="Courier New, Courier, monospace" font-size="10" fill="#FFA020" font-weight="bold">QQQ</text>
<text x="72" y="176" text-anchor="start" font-family="Courier New, Courier, monospace" font-size="10" fill="#E8A000" >NASDAQ 100</text>
<text x="340" y="176" text-anchor="end" font-family="Courier New, Courier, monospace" font-size="11" fill="#D8E8F0" font-weight="bold">705.06</text>
<text x="420" y="176" text-anchor="end" font-family="Courier New, Courier, monospace" font-size="11" fill="#FF3C3C" >-4.12%</text>
<text x="500" y="176" text-anchor="end" font-family="Courier New, Courier, monospace" font-size="11" fill="#00C878" >+15.14%</text>
<polyline points="516.0,178.2 521.5,177.3 527.0,177.3 532.6,177.3 538.1,178.5 543.6,178.9 549.1,178.2 554.7,177.8 560.2,178.8 565.7,179.0 571.2,180.3 576.8,179.5 582.3,180.0 587.8,179.5 593.3,181.2 598.9,182.5 604.4,183.0 609.9,180.8 615.4,180.0 621.0,179.9 626.5,179.5 632.0,179.5 637.5,177.4 643.0,176.9 648.6,176.8 654.1,176.1 659.6,174.8 665.1,173.7 670.7,173.4 676.2,172.4 681.7,172.6 687.2,172.9 692.8,171.7 698.3,172.1 703.8,170.6 709.3,170.6 714.9,171.4 720.4,170.9 725.9,170.2 731.4,169.4 737.0,169.6 742.5,168.6 748.0,166.9 753.5,167.0 759.0,165.1 764.6,164.8 770.1,165.6 775.6,164.7 781.1,164.1 786.7,165.4 792.2,165.7 797.7,166.2 803.2,164.9 808.8,164.7 814.3,164.4 819.8,162.9 825.3,163.0 830.9,162.2 836.4,161.9 841.9,161.4 847.4,161.0 853.0,161.2 858.5,161.6 864.0,165.8" fill="none" stroke="#FF3C3C" stroke-width="1.5" stroke-linejoin="round" stroke-linecap="round"/>
<line x1="16" y1="188" x2="864" y2="188" stroke="#2A3A4A" stroke-width="0.3" />
<text x="16" y="208" text-anchor="start" font-family="Courier New, Courier, monospace" font-size="10" fill="#FFA020" font-weight="bold">QMOM</text>
<text x="72" y="208" text-anchor="start" font-family="Courier New, Courier, monospace" font-size="10" fill="#E8A000" >QUANT MOMENTUM</text>
<text x="340" y="208" text-anchor="end" font-family="Courier New, Courier, monospace" font-size="11" fill="#D8E8F0" font-weight="bold">76.85</text>
<text x="420" y="208" text-anchor="end" font-family="Courier New, Courier, monospace" font-size="11" fill="#FF3C3C" >-9.05%</text>
<text x="500" y="208" text-anchor="end" font-family="Courier New, Courier, monospace" font-size="11" fill="#00C878" >+15.58%</text>
<polyline points="516.0,210.7 521.5,208.2 527.0,207.5 532.6,208.2 538.1,210.3 543.6,211.8 549.1,209.7 554.7,209.0 560.2,210.0 565.7,209.7 571.2,212.8 576.8,210.7 582.3,209.5 587.8,208.2 593.3,211.7 598.9,212.3 604.4,215.0 609.9,210.1 615.4,208.3 621.0,208.5 626.5,208.3 632.0,208.1 637.5,203.8 643.0,203.2 648.6,203.1 654.1,202.2 659.6,201.4 665.1,202.1 670.7,201.9 676.2,199.9 681.7,199.8 687.2,201.0 692.8,200.1 698.3,199.7 703.8,199.7 709.3,200.0 714.9,202.3 720.4,203.3 725.9,199.3 731.4,199.6 737.0,199.4 742.5,198.1 748.0,194.7 753.5,198.5 759.0,196.9 764.6,195.3 770.1,196.2 775.6,195.3 781.1,195.1 786.7,198.6 792.2,200.2 797.7,201.4 803.2,199.3 808.8,198.7 814.3,198.4 819.8,195.4 825.3,196.1 830.9,195.2 836.4,194.6 841.9,194.8 847.4,193.0 853.0,193.4 858.5,193.7 864.0,199.2" fill="none" stroke="#FF3C3C" stroke-width="1.5" stroke-linejoin="round" stroke-linecap="round"/>
<line x1="16" y1="220" x2="864" y2="220" stroke="#2A3A4A" stroke-width="0.3" />
<rect x="0" y="220" width="880" height="32" fill="#FFFFFF" opacity="0.02"/>
<text x="16" y="240" text-anchor="start" font-family="Courier New, Courier, monospace" font-size="10" fill="#FFA020" font-weight="bold">MTUM</text>
<text x="72" y="240" text-anchor="start" font-family="Courier New, Courier, monospace" font-size="10" fill="#E8A000" >MOMENTUM FACTOR</text>
<text x="340" y="240" text-anchor="end" font-family="Courier New, Courier, monospace" font-size="11" fill="#D8E8F0" font-weight="bold">306.47</text>
<text x="420" y="240" text-anchor="end" font-family="Courier New, Courier, monospace" font-size="11" fill="#FF3C3C" >-5.12%</text>
<text x="500" y="240" text-anchor="end" font-family="Courier New, Courier, monospace" font-size="11" fill="#00C878" >+21.37%</text>
<polyline points="516.0,244.7 521.5,243.4 527.0,243.1 532.6,243.0 538.1,244.1 543.6,244.2 549.1,243.5 554.7,243.1 560.2,243.6 565.7,243.4 571.2,244.6 576.8,243.9 582.3,243.7 587.8,243.3 593.3,245.3 598.9,245.9 604.4,247.0 609.9,244.9 615.4,243.8 621.0,243.6 626.5,243.2 632.0,242.9 637.5,240.6 643.0,239.9 648.6,239.7 654.1,239.1 659.6,238.2 665.1,238.3 670.7,238.1 676.2,237.3 681.7,237.5 687.2,237.9 692.8,236.9 698.3,236.9 703.8,235.8 709.3,235.9 714.9,236.9 720.4,236.5 725.9,235.1 731.4,234.9 737.0,235.1 742.5,233.6 748.0,231.8 753.5,232.9 759.0,231.2 764.6,230.1 770.1,230.9 775.6,230.4 781.1,230.0 786.7,232.0 792.2,232.8 797.7,233.2 803.2,231.7 808.8,231.1 814.3,230.8 819.8,228.4 825.3,228.6 830.9,228.3 836.4,228.1 841.9,227.8 847.4,225.8 853.0,225.0 858.5,225.8 864.0,230.1" fill="none" stroke="#FF3C3C" stroke-width="1.5" stroke-linejoin="round" stroke-linecap="round"/>
<line x1="16" y1="252" x2="864" y2="252" stroke="#2A3A4A" stroke-width="0.3" />
<text x="16" y="272" text-anchor="start" font-family="Courier New, Courier, monospace" font-size="10" fill="#FFA020" font-weight="bold">QUAL</text>
<text x="72" y="272" text-anchor="start" font-family="Courier New, Courier, monospace" font-size="10" fill="#E8A000" >QUALITY FACTOR</text>
<text x="340" y="272" text-anchor="end" font-family="Courier New, Courier, monospace" font-size="11" fill="#D8E8F0" font-weight="bold">213.14</text>
<text x="420" y="272" text-anchor="end" font-family="Courier New, Courier, monospace" font-size="11" fill="#FF3C3C" >-1.78%</text>
<text x="500" y="272" text-anchor="end" font-family="Courier New, Courier, monospace" font-size="11" fill="#00C878" >+7.23%</text>
<polyline points="516.0,270.6 521.5,269.2 527.0,269.5 532.6,270.0 538.1,272.4 543.6,273.1 549.1,271.8 554.7,271.6 560.2,273.6 565.7,273.5 571.2,275.1 576.8,273.7 582.3,274.1 587.8,273.6 593.3,276.4 598.9,278.4 604.4,279.0 609.9,275.2 615.4,274.5 621.0,274.2 626.5,273.6 632.0,274.1 637.5,270.1 643.0,269.2 648.6,269.7 654.1,268.5 659.6,267.0 665.1,266.2 670.7,266.3 676.2,264.4 681.7,264.7 687.2,265.5 692.8,264.2 698.3,265.2 703.8,264.1 709.3,264.2 714.9,265.1 720.4,265.3 725.9,264.2 731.4,264.3 737.0,265.0 742.5,264.0 748.0,262.2 753.5,262.6 759.0,261.9 764.6,261.8 770.1,262.0 775.6,261.5 781.1,260.5 786.7,261.9 792.2,261.6 797.7,262.5 803.2,260.6 808.8,260.3 814.3,259.1 819.8,258.1 825.3,258.5 830.9,258.0 836.4,258.3 841.9,258.0 847.4,258.1 853.0,258.2 858.5,257.0 864.0,260.0" fill="none" stroke="#FF3C3C" stroke-width="1.5" stroke-linejoin="round" stroke-linecap="round"/>
<line x1="16" y1="284" x2="864" y2="284" stroke="#2A3A4A" stroke-width="0.3" />
<line x1="0" y1="284" x2="880" y2="284" stroke="#E8A000" stroke-width="0.4" />
<text x="16" y="297" text-anchor="start" font-family="Courier New, Courier, monospace" font-size="8" fill="#506070" >SRC: YAHOO FINANCE  ·  AUTO-UPDATE 22:00 UTC WEEKDAYS  ·  GITHUB.COM/YANKRUZISKI</text>
<text x="864" y="297" text-anchor="end" font-family="Courier New, Courier, monospace" font-size="8" fill="#506070" >2026-06-05</text>
</svg>