<svg xmlns="http://www.w3.org/2000/svg" width="880" height="302" viewBox="0 0 880 302">
<rect width="880" height="302" fill="#040810"/>
<rect x="0.5" y="0.5" width="879" height="301" fill="none" stroke="#E8A000" stroke-width="0.7" opacity="0.5"/>
<rect x="0" y="0" width="880" height="18" fill="#D87000"/>
<text x="16" y="14" text-anchor="start" font-family="Courier New, Courier, monospace" font-size="9" fill="#030608" font-weight="bold">BLOOMBERG</text>
<text x="88" y="14" text-anchor="start" font-family="Courier New, Courier, monospace" font-size="9" fill="#030608" >QUANT MARKET MONITOR</text>
<text x="440" y="14" text-anchor="middle" font-family="Courier New, Courier, monospace" font-size="9" fill="#030608" >EQUITY  &amp;  VOLATILITY  DASHBOARD</text>
<text x="864" y="14" text-anchor="end" font-family="Courier New, Courier, monospace" font-size="9" fill="#030608" >2026-05-22  22:25 UTC</text>
<line x1="0" y1="38" x2="880" y2="38" stroke="#E8A000" stroke-width="0.8" />
<text x="16" y="33" text-anchor="start" font-family="Courier New, Courier, monospace" font-size="9" fill="#506070" >YAN KRUZISKI  ·  VP OF INTELI RESEARCH  ·  SÃO PAULO, BR</text>
<text x="864" y="33" text-anchor="end" font-family="Courier New, Courier, monospace" font-size="9" fill="#506070" >PAGE 1/1</text>
<rect x="0" y="38" width="880" height="22" fill="#E8A000" opacity="0.14"/>
<text x="16" y="54" text-anchor="start" font-family="Courier New, Courier, monospace" font-size="9" fill="#FFA020" font-weight="bold">TICKER</text>
<text x="72" y="54" text-anchor="start" font-family="Courier New, Courier, monospace" font-size="9" fill="#FFA020" font-weight="bold">DESCRIPTION</text>
<text x="340" y="54" text-anchor="end" font-family="Courier New, Courier, monospace" font-size="9" fill="#FFA020" font-weight="bold">LAST</text>
<text x="420" y="54" text-anchor="end" font-family="Courier New, Courier, monospace" font-size="9" fill="#FFA020" font-weight="bold">%CHG</text>
<text x="500" y="54" text-anchor="end" font-family="Courier New, Courier, monospace" font-size="9" fill="#FFA020" font-weight="bold">YTD%</text>
<text x="690" y="54" text-anchor="middle" font-family="Courier New, Courier, monospace" font-size="9" fill="#FFA020" font-weight="bold">3-MONTH</text>
<line x1="0" y1="60" x2="880" y2="60" stroke="#E8A000" stroke-width="0.9" />
<rect x="0" y="60" width="880" height="32" fill="#E8A000" opacity="0.09"/>
<text x="16" y="80" text-anchor="start" font-family="Courier New, Courier, monospace" font-size="10" fill="#FFA020" font-weight="bold">^VIX</text>
<text x="72" y="80" text-anchor="start" font-family="Courier New, Courier, monospace" font-size="10" fill="#E8A000" font-weight="bold">CBOE VOLATILITY INDEX</text>
<text x="340" y="80" text-anchor="end" font-family="Courier New, Courier, monospace" font-size="11" fill="#D8E8F0" font-weight="bold">16.70</text>
<text x="420" y="80" text-anchor="end" font-family="Courier New, Courier, monospace" font-size="11" fill="#00C878" font-weight="bold">-0.36%</text>
<text x="500" y="80" text-anchor="end" font-family="Courier New, Courier, monospace" font-size="10" fill="#00C878" font-weight="bold">NORMAL</text>
<polyline points="516.0,80.4 521.5,82.6 527.0,85.1 532.6,84.0 538.1,82.2 543.6,79.7 549.1,76.5 554.7,80.2 560.2,76.2 565.7,67.4 571.2,73.5 576.8,74.4 582.3,75.5 587.8,70.8 593.3,70.9 598.9,76.6 604.4,78.3 609.9,74.1 615.4,75.7 621.0,71.5 626.5,72.5 632.0,71.3 637.5,73.8 643.0,70.5 648.6,65.0 654.1,65.7 659.6,73.9 665.1,75.0 670.7,76.0 676.2,75.5 681.7,73.1 687.2,80.3 692.8,82.7 698.3,83.1 703.8,83.3 709.3,84.5 714.9,84.7 720.4,85.1 725.9,85.8 731.4,83.7 737.0,82.7 742.5,83.6 748.0,83.0 753.5,83.9 759.0,85.0 764.6,85.3 770.1,83.8 775.6,86.7 781.1,86.6 786.7,84.6 792.2,86.0 797.7,85.9 803.2,86.4 808.8,86.2 814.3,84.4 819.8,85.0 825.3,85.2 830.9,86.1 836.4,84.3 841.9,85.3 847.4,84.9 853.0,85.9 858.5,86.9 864.0,87.0" fill="none" stroke="#00C878" stroke-width="1.5" stroke-linejoin="round" stroke-linecap="round"/>
<line x1="0" y1="92" x2="880" y2="92" stroke="#E8A000" stroke-width="0.5" />
<rect x="0" y="92" width="880" height="32" fill="#FFFFFF" opacity="0.02"/>
<text x="16" y="112" text-anchor="start" font-family="Courier New, Courier, monospace" font-size="10" fill="#FFA020" font-weight="bold">IBOV</text>
<text x="72" y="112" text-anchor="start" font-family="Courier New, Courier, monospace" font-size="10" fill="#E8A000" >IBOVESPA</text>
<text x="340" y="112" text-anchor="end" font-family="Courier New, Courier, monospace" font-size="11" fill="#D8E8F0" font-weight="bold">176,210</text>
<text x="420" y="112" text-anchor="end" font-family="Courier New, Courier, monospace" font-size="11" fill="#FF3C3C" >-0.81%</text>
<text x="500" y="112" text-anchor="end" font-family="Courier New, Courier, monospace" font-size="11" fill="#00C878" >+9.76%</text>
<polyline points="516.0,105.8 521.7,103.5 527.4,103.7 533.1,103.9 538.8,105.9 544.5,105.4 550.2,111.0 555.9,109.0 561.6,113.4 567.3,114.4 573.0,113.0 578.8,110.7 584.5,110.3 590.2,114.5 595.9,116.0 601.6,113.9 607.3,113.5 613.0,114.2 618.7,113.6 624.4,117.2 630.1,112.1 635.8,111.6 641.5,108.9 647.2,111.4 652.9,112.4 658.6,111.6 664.3,107.1 670.0,106.7 675.7,106.6 681.4,106.5 687.1,106.4 692.9,102.8 698.6,100.2 704.3,98.2 710.0,97.6 715.7,97.0 721.4,97.8 727.1,98.7 732.8,99.6 738.5,99.3 744.2,102.2 749.9,103.6 755.6,104.1 761.3,105.2 767.0,106.1 772.7,109.6 778.4,107.2 784.1,108.8 789.8,107.7 795.5,106.9 801.2,110.9 807.0,110.1 812.7,112.1 818.4,113.5 824.1,116.5 829.8,115.3 835.5,116.3 841.2,116.6 846.9,119.0 852.6,116.2 858.3,116.0 864.0,117.3" fill="none" stroke="#FF3C3C" stroke-width="1.5" stroke-linejoin="round" stroke-linecap="round"/>
<line x1="16" y1="124" x2="864" y2="124" stroke="#2A3A4A" stroke-width="0.3" />
<text x="16" y="144" text-anchor="start" font-family="Courier New, Courier, monospace" font-size="10" fill="#FFA020" font-weight="bold">SPY</text>
<text x="72" y="144" text-anchor="start" font-family="Courier New, Courier, monospace" font-size="10" fill="#E8A000" >S&P 500</text>
<text x="340" y="144" text-anchor="end" font-family="Courier New, Courier, monospace" font-size="11" fill="#D8E8F0" font-weight="bold">745.64</text>
<text x="420" y="144" text-anchor="end" font-family="Courier New, Courier, monospace" font-size="11" fill="#00C878" >+0.20%</text>
<text x="500" y="144" text-anchor="end" font-family="Courier New, Courier, monospace" font-size="11" fill="#00C878" >+9.44%</text>
<polyline points="516.0,141.8 521.5,140.9 527.0,139.8 532.6,140.5 538.1,141.1 543.6,141.1 549.1,142.2 554.7,141.3 560.2,142.0 565.7,143.7 571.2,142.6 576.8,142.8 582.3,143.0 587.8,144.9 593.3,145.6 598.9,144.3 604.4,144.0 609.9,145.8 615.4,146.1 621.0,147.9 626.5,146.6 632.0,147.0 637.5,146.3 643.0,148.5 648.6,150.6 654.1,151.0 659.6,147.5 665.1,146.6 670.7,146.5 676.2,145.9 681.7,145.8 687.2,142.7 692.8,141.9 698.3,142.0 703.8,140.8 709.3,139.2 714.9,138.1 720.4,137.8 725.9,136.2 731.4,136.5 737.0,137.3 742.5,136.0 748.0,136.5 753.5,135.5 759.0,135.2 764.6,135.9 770.1,135.9 775.6,134.6 781.1,134.2 786.7,134.7 792.2,133.6 797.7,131.7 803.2,132.1 808.8,131.0 814.3,130.7 819.8,130.9 825.3,130.1 830.9,129.0 836.4,130.7 841.9,130.8 847.4,131.7 853.0,130.3 858.5,130.0 864.0,129.5" fill="none" stroke="#00C878" stroke-width="1.5" stroke-linejoin="round" stroke-linecap="round"/>
<line x1="16" y1="156" x2="864" y2="156" stroke="#2A3A4A" stroke-width="0.3" />
<rect x="0" y="156" width="880" height="32" fill="#FFFFFF" opacity="0.02"/>
<text x="16" y="176" text-anchor="start" font-family="Courier New, Courier, monospace" font-size="10" fill="#FFA020" font-weight="bold">QQQ</text>
<text x="72" y="176" text-anchor="start" font-family="Courier New, Courier, monospace" font-size="10" fill="#E8A000" >NASDAQ 100</text>
<text x="340" y="176" text-anchor="end" font-family="Courier New, Courier, monospace" font-size="11" fill="#D8E8F0" font-weight="bold">717.54</text>
<text x="420" y="176" text-anchor="end" font-family="Courier New, Courier, monospace" font-size="11" fill="#00C878" >+0.08%</text>
<text x="500" y="176" text-anchor="end" font-family="Courier New, Courier, monospace" font-size="11" fill="#00C878" >+17.18%</text>
<polyline points="516.0,177.2 521.5,176.3 527.0,175.2 532.6,176.2 538.1,176.4 543.6,176.3 549.1,177.2 554.7,176.0 560.2,176.2 565.7,177.5 571.2,176.4 576.8,176.4 582.3,176.4 587.8,177.8 593.3,178.3 598.9,177.4 604.4,177.0 609.9,178.1 615.4,178.4 621.0,179.9 626.5,179.0 632.0,179.5 637.5,179.0 643.0,180.9 648.6,182.4 654.1,183.0 659.6,180.4 665.1,179.5 670.7,179.4 676.2,178.9 681.7,178.9 687.2,176.5 692.8,175.9 698.3,175.8 703.8,174.9 709.3,173.4 714.9,172.2 720.4,171.8 725.9,170.7 731.4,170.9 737.0,171.3 742.5,169.8 748.0,170.3 753.5,168.6 759.0,168.6 764.6,169.5 770.1,168.9 775.6,168.1 781.1,167.2 786.7,167.4 792.2,166.2 797.7,164.3 803.2,164.4 808.8,162.2 814.3,161.9 819.8,162.7 825.3,161.7 830.9,161.0 836.4,162.5 841.9,162.9 847.4,163.5 853.0,161.9 858.5,161.7 864.0,161.3" fill="none" stroke="#00C878" stroke-width="1.5" stroke-linejoin="round" stroke-linecap="round"/>
<line x1="16" y1="188" x2="864" y2="188" stroke="#2A3A4A" stroke-width="0.3" />
<text x="16" y="208" text-anchor="start" font-family="Courier New, Courier, monospace" font-size="10" fill="#FFA020" font-weight="bold">QMOM</text>
<text x="72" y="208" text-anchor="start" font-family="Courier New, Courier, monospace" font-size="10" fill="#E8A000" >QUANT MOMENTUM</text>
<text x="340" y="208" text-anchor="end" font-family="Courier New, Courier, monospace" font-size="11" fill="#D8E8F0" font-weight="bold">77.50</text>
<text x="420" y="208" text-anchor="end" font-family="Courier New, Courier, monospace" font-size="11" fill="#FF3C3C" >-1.12%</text>
<text x="500" y="208" text-anchor="end" font-family="Courier New, Courier, monospace" font-size="11" fill="#00C878" >+16.56%</text>
<polyline points="516.0,205.0 521.5,203.2 527.0,202.8 532.6,202.3 538.1,203.0 543.6,202.0 549.1,206.0 554.7,205.2 560.2,208.1 565.7,210.3 571.2,207.6 576.8,206.9 582.3,207.7 587.8,209.9 593.3,211.6 598.9,209.3 604.4,208.5 609.9,209.6 615.4,209.3 621.0,212.6 626.5,210.4 632.0,209.0 637.5,207.6 643.0,211.4 648.6,212.0 654.1,215.0 659.6,209.7 665.1,207.7 670.7,208.0 676.2,207.7 681.7,207.5 687.2,202.9 692.8,202.3 698.3,202.1 703.8,201.1 709.3,200.2 714.9,201.1 720.4,200.8 725.9,198.6 731.4,198.5 737.0,199.9 742.5,198.9 748.0,198.5 753.5,198.4 759.0,198.8 764.6,201.3 770.1,202.3 775.6,198.0 781.1,198.3 786.7,198.1 792.2,196.6 797.7,193.0 803.2,197.1 808.8,195.3 814.3,193.6 819.8,194.6 825.3,193.7 830.9,193.5 836.4,197.2 841.9,198.9 847.4,200.2 853.0,198.0 858.5,197.3 864.0,197.0" fill="none" stroke="#FF3C3C" stroke-width="1.5" stroke-linejoin="round" stroke-linecap="round"/>
<line x1="16" y1="220" x2="864" y2="220" stroke="#2A3A4A" stroke-width="0.3" />
<rect x="0" y="220" width="880" height="32" fill="#FFFFFF" opacity="0.02"/>
<text x="16" y="240" text-anchor="start" font-family="Courier New, Courier, monospace" font-size="10" fill="#FFA020" font-weight="bold">MTUM</text>
<text x="72" y="240" text-anchor="start" font-family="Courier New, Courier, monospace" font-size="10" fill="#E8A000" >MOMENTUM FACTOR</text>
<text x="340" y="240" text-anchor="end" font-family="Courier New, Courier, monospace" font-size="11" fill="#D8E8F0" font-weight="bold">303.60</text>
<text x="420" y="240" text-anchor="end" font-family="Courier New, Courier, monospace" font-size="11" fill="#00C878" >+0.20%</text>
<text x="500" y="240" text-anchor="end" font-family="Courier New, Courier, monospace" font-size="11" fill="#00C878" >+20.24%</text>
<polyline points="516.0,241.6 521.5,240.9 527.0,239.7 532.6,240.1 538.1,240.7 543.6,240.5 549.1,242.4 554.7,241.3 560.2,242.4 565.7,244.0 571.2,242.3 576.8,242.0 582.3,241.9 587.8,243.3 593.3,243.4 598.9,242.5 604.4,242.0 609.9,242.5 615.4,242.4 621.0,243.9 626.5,243.0 632.0,242.8 637.5,242.3 643.0,244.9 648.6,245.6 654.1,247.0 659.6,244.3 665.1,242.8 670.7,242.7 676.2,242.1 681.7,241.7 687.2,238.7 692.8,237.9 698.3,237.6 703.8,236.9 709.3,235.6 714.9,235.7 720.4,235.5 725.9,234.4 731.4,234.7 737.0,235.3 742.5,234.0 748.0,234.0 753.5,232.6 759.0,232.6 764.6,233.9 770.1,233.5 775.6,231.7 781.1,231.4 786.7,231.6 792.2,229.6 797.7,227.3 803.2,228.8 808.8,226.6 814.3,225.2 819.8,226.2 825.3,225.5 830.9,225.0 836.4,227.6 841.9,228.7 847.4,229.2 853.0,227.2 858.5,226.5 864.0,226.0" fill="none" stroke="#00C878" stroke-width="1.5" stroke-linejoin="round" stroke-linecap="round"/>
<line x1="16" y1="252" x2="864" y2="252" stroke="#2A3A4A" stroke-width="0.3" />
<text x="16" y="272" text-anchor="start" font-family="Courier New, Courier, monospace" font-size="10" fill="#FFA020" font-weight="bold">QUAL</text>
<text x="72" y="272" text-anchor="start" font-family="Courier New, Courier, monospace" font-size="10" fill="#E8A000" >QUALITY FACTOR</text>
<text x="340" y="272" text-anchor="end" font-family="Courier New, Courier, monospace" font-size="11" fill="#D8E8F0" font-weight="bold">214.38</text>
<text x="420" y="272" text-anchor="end" font-family="Courier New, Courier, monospace" font-size="11" fill="#00C878" >+0.65%</text>
<text x="500" y="272" text-anchor="end" font-family="Courier New, Courier, monospace" font-size="11" fill="#00C878" >+7.86%</text>
<polyline points="516.0,266.9 521.5,265.6 527.0,264.4 532.6,264.9 538.1,264.9 543.6,265.2 549.1,266.9 554.7,266.0 560.2,267.4 565.7,269.7 571.2,268.1 576.8,268.5 582.3,269.1 587.8,271.7 593.3,272.5 598.9,271.1 604.4,270.8 609.9,273.0 615.4,272.9 621.0,274.7 626.5,273.1 632.0,273.6 637.5,273.0 643.0,276.1 648.6,278.4 654.1,279.0 659.6,274.8 665.1,274.0 670.7,273.7 676.2,273.1 681.7,273.6 687.2,269.1 692.8,268.1 698.3,268.8 703.8,267.4 709.3,265.8 714.9,264.9 720.4,264.9 725.9,262.9 731.4,263.1 737.0,264.0 742.5,262.7 748.0,263.7 753.5,262.5 759.0,262.7 764.6,263.7 770.1,263.8 775.6,262.6 781.1,262.7 786.7,263.5 792.2,262.4 797.7,260.4 803.2,260.9 808.8,260.1 814.3,260.0 819.8,260.1 825.3,259.7 830.9,258.6 836.4,260.1 841.9,259.7 847.4,260.8 853.0,258.7 858.5,258.3 864.0,257.0" fill="none" stroke="#00C878" stroke-width="1.5" stroke-linejoin="round" stroke-linecap="round"/>
<line x1="16" y1="284" x2="864" y2="284" stroke="#2A3A4A" stroke-width="0.3" />
<line x1="0" y1="284" x2="880" y2="284" stroke="#E8A000" stroke-width="0.4" />
<text x="16" y="297" text-anchor="start" font-family="Courier New, Courier, monospace" font-size="8" fill="#506070" >SRC: YAHOO FINANCE  ·  AUTO-UPDATE 22:00 UTC WEEKDAYS  ·  GITHUB.COM/YANKRUZISKI</text>
<text x="864" y="297" text-anchor="end" font-family="Courier New, Courier, monospace" font-size="8" fill="#506070" >2026-05-22</text>
</svg>