<svg xmlns="http://www.w3.org/2000/svg" width="880" height="302" viewBox="0 0 880 302">
<rect width="880" height="302" fill="#040810"/>
<rect x="0.5" y="0.5" width="879" height="301" fill="none" stroke="#E8A000" stroke-width="0.7" opacity="0.5"/>
<rect x="0" y="0" width="880" height="18" fill="#D87000"/>
<text x="16" y="14" text-anchor="start" font-family="Courier New, Courier, monospace" font-size="9" fill="#030608" font-weight="bold">BLOOMBERG</text>
<text x="88" y="14" text-anchor="start" font-family="Courier New, Courier, monospace" font-size="9" fill="#030608" >QUANT MARKET MONITOR</text>
<text x="440" y="14" text-anchor="middle" font-family="Courier New, Courier, monospace" font-size="9" fill="#030608" >EQUITY  &amp;  VOLATILITY  DASHBOARD</text>
<text x="864" y="14" text-anchor="end" font-family="Courier New, Courier, monospace" font-size="9" fill="#030608" >2026-07-23  22:55 UTC</text>
<line x1="0" y1="38" x2="880" y2="38" stroke="#E8A000" stroke-width="0.8" />
<text x="16" y="33" text-anchor="start" font-family="Courier New, Courier, monospace" font-size="9" fill="#506070" >YAN KRUZISKI  ·  VP OF INTELI RESEARCH  ·  SÃO PAULO, BR</text>
<text x="864" y="33" text-anchor="end" font-family="Courier New, Courier, monospace" font-size="9" fill="#506070" >PAGE 1/1</text>
<rect x="0" y="38" width="880" height="22" fill="#E8A000" opacity="0.14"/>
<text x="16" y="54" text-anchor="start" font-family="Courier New, Courier, monospace" font-size="9" fill="#FFA020" font-weight="bold">TICKER</text>
<text x="72" y="54" text-anchor="start" font-family="Courier New, Courier, monospace" font-size="9" fill="#FFA020" font-weight="bold">DESCRIPTION</text>
<text x="340" y="54" text-anchor="end" font-family="Courier New, Courier, monospace" font-size="9" fill="#FFA020" font-weight="bold">LAST</text>
<text x="420" y="54" text-anchor="end" font-family="Courier New, Courier, monospace" font-size="9" fill="#FFA020" font-weight="bold">%CHG</text>
<text x="500" y="54" text-anchor="end" font-family="Courier New, Courier, monospace" font-size="9" fill="#FFA020" font-weight="bold">YTD%</text>
<text x="690" y="54" text-anchor="middle" font-family="Courier New, Courier, monospace" font-size="9" fill="#FFA020" font-weight="bold">3-MONTH</text>
<line x1="0" y1="60" x2="880" y2="60" stroke="#E8A000" stroke-width="0.9" />
<rect x="0" y="60" width="880" height="32" fill="#E8A000" opacity="0.09"/>
<text x="16" y="80" text-anchor="start" font-family="Courier New, Courier, monospace" font-size="10" fill="#FFA020" font-weight="bold">^VIX</text>
<text x="72" y="80" text-anchor="start" font-family="Courier New, Courier, monospace" font-size="10" fill="#E8A000" font-weight="bold">CBOE VOLATILITY INDEX</text>
<text x="340" y="80" text-anchor="end" font-family="Courier New, Courier, monospace" font-size="11" fill="#D8E8F0" font-weight="bold">18.70</text>
<text x="420" y="80" text-anchor="end" font-family="Courier New, Courier, monospace" font-size="11" fill="#FF3C3C" font-weight="bold">+11.98%</text>
<text x="500" y="80" text-anchor="end" font-family="Courier New, Courier, monospace" font-size="10" fill="#FF3C3C" font-weight="bold">NORMAL</text>
<polyline points="516.0,73.9 521.5,75.7 527.0,77.9 532.6,78.4 538.1,75.4 543.6,81.3 549.1,81.0 554.7,77.0 560.2,79.8 565.7,79.8 571.2,80.7 576.8,80.4 582.3,76.7 587.8,77.9 593.3,78.3 598.9,80.2 604.4,76.6 609.9,78.5 615.4,77.7 621.0,79.6 626.5,81.7 632.0,81.9 637.5,82.2 643.0,80.9 648.6,83.1 654.1,84.8 659.6,86.1 665.1,83.9 670.7,84.7 676.2,83.8 681.7,85.9 687.2,67.2 692.8,75.1 698.3,72.2 703.8,65.0 709.3,73.5 714.9,78.9 720.4,83.4 725.9,82.8 731.4,76.6 737.0,82.8 742.5,80.1 748.0,73.4 753.5,76.0 759.0,75.2 764.6,76.7 770.1,79.0 775.6,82.7 781.1,82.2 786.7,83.6 792.2,85.3 797.7,83.6 803.2,81.3 808.8,84.5 814.3,87.0 819.8,80.5 825.3,82.5 830.9,85.0 836.4,81.8 841.9,75.6 847.4,75.9 853.0,80.8 858.5,82.1 864.0,75.8" fill="none" stroke="#FF3C3C" stroke-width="1.5" stroke-linejoin="round" stroke-linecap="round"/>
<line x1="0" y1="92" x2="880" y2="92" stroke="#E8A000" stroke-width="0.5" />
<rect x="0" y="92" width="880" height="32" fill="#FFFFFF" opacity="0.02"/>
<text x="16" y="112" text-anchor="start" font-family="Courier New, Courier, monospace" font-size="10" fill="#FFA020" font-weight="bold">IBOV</text>
<text x="72" y="112" text-anchor="start" font-family="Courier New, Courier, monospace" font-size="10" fill="#E8A000" >IBOVESPA</text>
<text x="340" y="112" text-anchor="end" font-family="Courier New, Courier, monospace" font-size="11" fill="#D8E8F0" font-weight="bold">176,724</text>
<text x="420" y="112" text-anchor="end" font-family="Courier New, Courier, monospace" font-size="11" fill="#FF3C3C" >-0.46%</text>
<text x="500" y="112" text-anchor="end" font-family="Courier New, Courier, monospace" font-size="11" fill="#00C878" >+10.08%</text>
<polyline points="516.0,97.0 521.5,97.6 527.0,98.7 532.6,99.6 538.1,103.3 543.6,100.9 549.1,102.5 554.7,101.4 560.2,100.5 565.7,104.8 571.2,103.9 576.8,106.0 582.3,107.5 587.8,110.6 593.3,109.4 598.9,110.4 604.4,110.7 609.9,113.3 615.4,110.4 621.0,110.1 626.5,111.4 632.0,110.4 637.5,111.1 643.0,111.9 648.6,112.5 654.1,113.8 659.6,115.3 665.1,113.4 670.7,117.0 676.2,118.3 681.7,118.6 687.2,117.5 692.8,118.7 698.3,115.9 703.8,116.3 709.3,117.0 714.9,117.7 720.4,118.8 725.9,119.0 731.4,118.7 737.0,117.0 742.5,116.2 748.0,116.9 753.5,115.5 759.0,114.2 764.6,114.3 770.1,115.4 775.6,115.8 781.1,114.7 786.7,113.3 792.2,115.0 797.7,115.4 803.2,116.7 808.8,114.7 814.3,109.9 819.8,111.9 825.3,111.0 830.9,111.6 836.4,113.7 841.9,113.8 847.4,114.1 853.0,114.2 858.5,110.2 864.0,111.0" fill="none" stroke="#FF3C3C" stroke-width="1.5" stroke-linejoin="round" stroke-linecap="round"/>
<line x1="16" y1="124" x2="864" y2="124" stroke="#2A3A4A" stroke-width="0.3" />
<text x="16" y="144" text-anchor="start" font-family="Courier New, Courier, monospace" font-size="10" fill="#FFA020" font-weight="bold">SPY</text>
<text x="72" y="144" text-anchor="start" font-family="Courier New, Courier, monospace" font-size="10" fill="#E8A000" >S&amp;P 500</text>
<text x="340" y="144" text-anchor="end" font-family="Courier New, Courier, monospace" font-size="11" fill="#D8E8F0" font-weight="bold">738.18</text>
<text x="420" y="144" text-anchor="end" font-family="Courier New, Courier, monospace" font-size="11" fill="#FF3C3C" >-1.14%</text>
<text x="500" y="144" text-anchor="end" font-family="Courier New, Courier, monospace" font-size="11" fill="#00C878" >+8.63%</text>
<polyline points="516.0,149.9 521.7,149.4 527.4,150.9 533.1,151.0 538.8,147.8 544.5,146.8 550.2,148.1 555.9,145.4 561.6,140.8 567.3,141.8 573.0,139.1 578.8,138.3 584.5,138.8 590.2,136.9 595.9,134.2 601.6,138.4 607.3,138.6 613.0,140.8 618.7,137.4 624.4,136.7 630.1,135.4 635.8,133.1 641.5,133.2 647.2,131.3 652.9,130.4 658.6,129.5 664.3,129.0 670.0,131.4 675.7,130.1 681.4,139.1 687.1,138.3 692.9,139.3 698.6,144.7 704.3,139.0 710.0,137.2 715.7,131.2 721.4,133.2 727.1,137.5 732.8,134.0 738.5,135.1 744.2,140.0 749.9,140.2 755.6,139.7 761.3,142.2 767.0,136.6 772.7,134.0 778.4,134.5 784.1,134.9 789.8,131.9 795.5,133.6 801.2,134.6 807.0,131.7 812.7,130.2 818.4,132.9 824.1,131.7 829.8,130.3 835.5,132.2 841.2,135.6 846.9,136.1 852.6,133.3 858.3,133.7 864.0,137.9" fill="none" stroke="#FF3C3C" stroke-width="1.5" stroke-linejoin="round" stroke-linecap="round"/>
<line x1="16" y1="156" x2="864" y2="156" stroke="#2A3A4A" stroke-width="0.3" />
<rect x="0" y="156" width="880" height="32" fill="#FFFFFF" opacity="0.02"/>
<text x="16" y="176" text-anchor="start" font-family="Courier New, Courier, monospace" font-size="10" fill="#FFA020" font-weight="bold">QQQ</text>
<text x="72" y="176" text-anchor="start" font-family="Courier New, Courier, monospace" font-size="10" fill="#E8A000" >NASDAQ 100</text>
<text x="340" y="176" text-anchor="end" font-family="Courier New, Courier, monospace" font-size="11" fill="#D8E8F0" font-weight="bold">691.96</text>
<text x="420" y="176" text-anchor="end" font-family="Courier New, Courier, monospace" font-size="11" fill="#FF3C3C" >-1.82%</text>
<text x="500" y="176" text-anchor="end" font-family="Courier New, Courier, monospace" font-size="11" fill="#00C878" >+13.13%</text>
<polyline points="516.0,181.4 521.7,181.3 527.4,183.0 533.1,182.0 538.8,180.5 544.5,178.9 550.2,179.2 555.9,177.0 561.6,173.5 567.3,173.7 573.0,169.7 578.8,169.2 584.5,170.7 590.2,168.8 595.9,167.5 601.6,170.2 607.3,171.0 613.0,172.1 618.7,169.2 624.4,168.9 630.1,168.1 635.8,164.9 641.5,165.1 647.2,163.6 652.9,162.9 658.6,161.8 664.3,161.0 670.0,161.5 675.7,162.4 681.4,171.2 687.1,168.5 692.9,170.5 698.6,174.0 704.3,168.2 710.0,167.2 715.7,161.5 721.4,165.0 727.1,166.9 732.8,162.4 738.5,162.8 744.2,168.9 749.9,169.6 755.6,168.2 761.3,170.6 767.0,166.3 772.7,163.2 778.4,166.0 784.1,169.1 789.8,166.6 795.5,169.9 801.2,169.4 807.0,166.5 812.7,165.9 818.4,169.4 824.1,167.4 829.8,167.9 835.5,170.8 841.2,173.4 846.9,173.2 852.6,170.0 858.3,170.9 864.0,174.3" fill="none" stroke="#FF3C3C" stroke-width="1.5" stroke-linejoin="round" stroke-linecap="round"/>
<line x1="16" y1="188" x2="864" y2="188" stroke="#2A3A4A" stroke-width="0.3" />
<text x="16" y="208" text-anchor="start" font-family="Courier New, Courier, monospace" font-size="10" fill="#FFA020" font-weight="bold">QMOM</text>
<text x="72" y="208" text-anchor="start" font-family="Courier New, Courier, monospace" font-size="10" fill="#E8A000" >QUANT MOMENTUM</text>
<text x="340" y="208" text-anchor="end" font-family="Courier New, Courier, monospace" font-size="11" fill="#D8E8F0" font-weight="bold">75.87</text>
<text x="420" y="208" text-anchor="end" font-family="Courier New, Courier, monospace" font-size="11" fill="#FF3C3C" >-0.97%</text>
<text x="500" y="208" text-anchor="end" font-family="Courier New, Courier, monospace" font-size="11" fill="#00C878" >+14.11%</text>
<polyline points="516.0,207.3 521.7,208.0 527.4,212.9 533.1,215.0 538.8,206.5 544.5,207.1 550.2,206.6 555.9,203.8 561.6,196.6 567.3,204.6 573.0,201.2 578.8,197.8 584.5,199.8 590.2,197.9 595.9,197.5 601.6,204.8 607.3,208.3 613.0,210.8 618.7,206.5 624.4,205.1 630.1,204.4 635.8,198.1 641.5,199.6 647.2,197.7 652.9,196.4 658.6,196.9 664.3,193.0 670.0,193.8 675.7,194.5 681.4,206.2 687.1,204.8 692.9,207.2 698.6,212.2 704.3,202.8 710.0,200.0 715.7,198.5 721.4,200.8 727.1,202.2 732.8,200.8 738.5,196.6 744.2,202.5 749.9,204.5 755.6,200.8 761.3,205.9 767.0,202.7 772.7,201.1 778.4,204.8 784.1,208.9 789.8,207.1 795.5,209.9 801.2,207.3 807.0,206.2 812.7,208.4 818.4,211.2 824.1,208.1 829.8,210.6 835.5,215.0 841.2,213.6 846.9,214.6 852.6,208.9 858.3,207.0 864.0,208.9" fill="none" stroke="#FF3C3C" stroke-width="1.5" stroke-linejoin="round" stroke-linecap="round"/>
<line x1="16" y1="220" x2="864" y2="220" stroke="#2A3A4A" stroke-width="0.3" />
<rect x="0" y="220" width="880" height="32" fill="#FFFFFF" opacity="0.02"/>
<text x="16" y="240" text-anchor="start" font-family="Courier New, Courier, monospace" font-size="10" fill="#FFA020" font-weight="bold">MTUM</text>
<text x="72" y="240" text-anchor="start" font-family="Courier New, Courier, monospace" font-size="10" fill="#E8A000" >MOMENTUM FACTOR</text>
<text x="340" y="240" text-anchor="end" font-family="Courier New, Courier, monospace" font-size="11" fill="#D8E8F0" font-weight="bold">313.98</text>
<text x="420" y="240" text-anchor="end" font-family="Courier New, Courier, monospace" font-size="11" fill="#FF3C3C" >-0.08%</text>
<text x="500" y="240" text-anchor="end" font-family="Courier New, Courier, monospace" font-size="11" fill="#00C878" >+24.48%</text>
<polyline points="516.0,245.5 521.7,245.6 527.4,247.0 533.1,246.5 538.8,244.5 544.5,244.2 550.2,244.4 555.9,242.3 561.6,239.7 567.3,241.4 573.0,238.9 578.8,237.3 584.5,238.4 590.2,237.7 595.9,237.2 601.6,240.0 607.3,241.3 613.0,241.8 618.7,239.6 624.4,238.8 630.1,238.3 635.8,235.0 641.5,235.2 647.2,234.8 652.9,234.4 658.6,234.1 664.3,231.2 670.0,230.1 675.7,231.3 681.4,237.4 687.1,234.7 692.9,235.8 698.6,237.9 704.3,233.4 710.0,231.7 715.7,228.7 721.4,231.1 727.1,230.4 732.8,227.1 738.5,225.0 744.2,229.9 749.9,230.3 755.6,226.9 761.3,231.2 767.0,227.9 772.7,225.8 778.4,230.4 784.1,234.1 789.8,232.5 795.5,235.4 801.2,234.6 807.0,232.6 812.7,232.4 818.4,234.7 824.1,233.1 829.8,235.3 835.5,238.3 841.2,238.7 846.9,238.5 852.6,234.8 858.3,234.8 864.0,234.9" fill="none" stroke="#FF3C3C" stroke-width="1.5" stroke-linejoin="round" stroke-linecap="round"/>
<line x1="16" y1="252" x2="864" y2="252" stroke="#2A3A4A" stroke-width="0.3" />
<text x="16" y="272" text-anchor="start" font-family="Courier New, Courier, monospace" font-size="10" fill="#FFA020" font-weight="bold">QUAL</text>
<text x="72" y="272" text-anchor="start" font-family="Courier New, Courier, monospace" font-size="10" fill="#E8A000" >QUALITY FACTOR</text>
<text x="340" y="272" text-anchor="end" font-family="Courier New, Courier, monospace" font-size="11" fill="#D8E8F0" font-weight="bold">216.00</text>
<text x="420" y="272" text-anchor="end" font-family="Courier New, Courier, monospace" font-size="11" fill="#FF3C3C" >-0.62%</text>
<text x="500" y="272" text-anchor="end" font-family="Courier New, Courier, monospace" font-size="11" fill="#00C878" >+8.86%</text>
<polyline points="516.0,276.6 521.7,276.9 527.4,278.8 533.1,279.0 538.8,276.9 544.5,277.0 550.2,278.5 555.9,276.5 561.6,272.8 567.3,273.7 573.0,272.3 578.8,272.1 584.5,272.3 590.2,271.5 595.9,269.5 601.6,272.3 607.3,271.6 613.0,273.5 618.7,269.7 624.4,269.0 630.1,266.6 635.8,264.6 641.5,265.4 647.2,264.4 652.9,265.0 658.6,264.3 664.3,264.6 670.0,264.8 675.7,262.4 681.4,268.4 687.1,267.4 692.9,267.0 698.6,269.5 704.3,264.4 710.0,263.0 715.7,259.1 721.4,261.2 727.1,265.9 732.8,263.9 738.5,264.0 744.2,268.0 749.9,267.8 755.6,267.7 761.3,267.1 767.0,261.9 772.7,258.8 778.4,259.6 784.1,260.2 789.8,260.1 795.5,261.2 801.2,262.4 807.0,260.1 812.7,258.4 818.4,259.9 824.1,259.0 829.8,258.2 835.5,257.0 841.2,261.0 846.9,262.4 852.6,260.6 858.3,261.8 864.0,263.7" fill="none" stroke="#FF3C3C" stroke-width="1.5" stroke-linejoin="round" stroke-linecap="round"/>
<line x1="16" y1="284" x2="864" y2="284" stroke="#2A3A4A" stroke-width="0.3" />
<line x1="0" y1="284" x2="880" y2="284" stroke="#E8A000" stroke-width="0.4" />
<text x="16" y="297" text-anchor="start" font-family="Courier New, Courier, monospace" font-size="8" fill="#506070" >SRC: YAHOO FINANCE  ·  AUTO-UPDATE 22:00 UTC WEEKDAYS  ·  GITHUB.COM/YANKRUZISKI</text>
<text x="864" y="297" text-anchor="end" font-family="Courier New, Courier, monospace" font-size="8" fill="#506070" >2026-07-23</text>
</svg>