<svg xmlns="http://www.w3.org/2000/svg" width="880" height="302" viewBox="0 0 880 302">
<rect width="880" height="302" fill="#040810"/>
<rect x="0.5" y="0.5" width="879" height="301" fill="none" stroke="#E8A000" stroke-width="0.7" opacity="0.5"/>
<rect x="0" y="0" width="880" height="18" fill="#D87000"/>
<text x="16" y="14" text-anchor="start" font-family="Courier New, Courier, monospace" font-size="9" fill="#030608" font-weight="bold">BLOOMBERG</text>
<text x="88" y="14" text-anchor="start" font-family="Courier New, Courier, monospace" font-size="9" fill="#030608" >QUANT MARKET MONITOR</text>
<text x="440" y="14" text-anchor="middle" font-family="Courier New, Courier, monospace" font-size="9" fill="#030608" >EQUITY  &amp;  VOLATILITY  DASHBOARD</text>
<text x="864" y="14" text-anchor="end" font-family="Courier New, Courier, monospace" font-size="9" fill="#030608" >2026-06-04  22:33 UTC</text>
<line x1="0" y1="38" x2="880" y2="38" stroke="#E8A000" stroke-width="0.8" />
<text x="16" y="33" text-anchor="start" font-family="Courier New, Courier, monospace" font-size="9" fill="#506070" >YAN KRUZISKI  ·  VP OF INTELI RESEARCH  ·  SÃO PAULO, BR</text>
<text x="864" y="33" text-anchor="end" font-family="Courier New, Courier, monospace" font-size="9" fill="#506070" >PAGE 1/1</text>
<rect x="0" y="38" width="880" height="22" fill="#E8A000" opacity="0.14"/>
<text x="16" y="54" text-anchor="start" font-family="Courier New, Courier, monospace" font-size="9" fill="#FFA020" font-weight="bold">TICKER</text>
<text x="72" y="54" text-anchor="start" font-family="Courier New, Courier, monospace" font-size="9" fill="#FFA020" font-weight="bold">DESCRIPTION</text>
<text x="340" y="54" text-anchor="end" font-family="Courier New, Courier, monospace" font-size="9" fill="#FFA020" font-weight="bold">LAST</text>
<text x="420" y="54" text-anchor="end" font-family="Courier New, Courier, monospace" font-size="9" fill="#FFA020" font-weight="bold">%CHG</text>
<text x="500" y="54" text-anchor="end" font-family="Courier New, Courier, monospace" font-size="9" fill="#FFA020" font-weight="bold">YTD%</text>
<text x="690" y="54" text-anchor="middle" font-family="Courier New, Courier, monospace" font-size="9" fill="#FFA020" font-weight="bold">3-MONTH</text>
<line x1="0" y1="60" x2="880" y2="60" stroke="#E8A000" stroke-width="0.9" />
<rect x="0" y="60" width="880" height="32" fill="#E8A000" opacity="0.09"/>
<text x="16" y="80" text-anchor="start" font-family="Courier New, Courier, monospace" font-size="10" fill="#FFA020" font-weight="bold">^VIX</text>
<text x="72" y="80" text-anchor="start" font-family="Courier New, Courier, monospace" font-size="10" fill="#E8A000" font-weight="bold">CBOE VOLATILITY INDEX</text>
<text x="340" y="80" text-anchor="end" font-family="Courier New, Courier, monospace" font-size="11" fill="#D8E8F0" font-weight="bold">15.40</text>
<text x="420" y="80" text-anchor="end" font-family="Courier New, Courier, monospace" font-size="11" fill="#00C878" font-weight="bold">-4.35%</text>
<text x="500" y="80" text-anchor="end" font-family="Courier New, Courier, monospace" font-size="10" fill="#00C878" font-weight="bold">NORMAL</text>
<polyline points="516.0,78.8 521.4,75.2 526.7,67.2 532.1,72.8 537.4,73.6 542.8,74.5 548.1,70.3 553.5,70.4 558.8,75.5 564.2,77.1 569.5,73.3 574.9,74.8 580.2,71.0 585.6,71.9 591.0,70.7 596.3,73.0 601.7,70.0 607.0,65.0 612.4,65.6 617.7,73.1 623.1,74.1 628.4,75.0 633.8,74.6 639.1,72.4 644.5,79.0 649.8,81.2 655.2,81.5 660.6,81.7 665.9,82.7 671.3,83.0 676.6,83.3 682.0,84.0 687.3,82.0 692.7,81.2 698.0,82.0 703.4,81.4 708.7,82.3 714.1,83.2 719.4,83.5 724.8,82.1 730.2,84.8 735.5,84.7 740.9,82.8 746.2,84.1 751.6,84.1 756.9,84.5 762.3,84.4 767.6,82.7 773.0,83.3 778.3,83.4 783.7,84.3 789.0,82.7 794.4,83.5 799.8,83.2 805.1,84.0 810.5,85.0 815.8,85.1 821.2,85.2 826.5,84.6 831.9,85.6 837.2,86.4 842.6,87.0 847.9,86.0 853.3,86.4 858.6,86.0 864.0,86.9" fill="none" stroke="#00C878" stroke-width="1.5" stroke-linejoin="round" stroke-linecap="round"/>
<line x1="0" y1="92" x2="880" y2="92" stroke="#E8A000" stroke-width="0.5" />
<rect x="0" y="92" width="880" height="32" fill="#FFFFFF" opacity="0.02"/>
<text x="16" y="112" text-anchor="start" font-family="Courier New, Courier, monospace" font-size="10" fill="#FFA020" font-weight="bold">IBOV</text>
<text x="72" y="112" text-anchor="start" font-family="Courier New, Courier, monospace" font-size="10" fill="#E8A000" >IBOVESPA</text>
<text x="340" y="112" text-anchor="end" font-family="Courier New, Courier, monospace" font-size="11" fill="#D8E8F0" font-weight="bold">170,331</text>
<text x="420" y="112" text-anchor="end" font-family="Courier New, Courier, monospace" font-size="11" fill="#FF3C3C" >-2.22%</text>
<text x="500" y="112" text-anchor="end" font-family="Courier New, Courier, monospace" font-size="11" fill="#00C878" >+6.10%</text>
<polyline points="516.0,109.1 521.5,107.3 527.0,111.1 532.6,112.0 538.1,110.8 543.6,108.8 549.1,108.4 554.7,112.0 560.2,113.3 565.7,111.6 571.2,111.2 576.8,111.8 582.3,111.3 587.8,114.4 593.3,110.0 598.9,109.5 604.4,107.3 609.9,109.4 615.4,110.3 621.0,109.5 626.5,105.7 632.0,105.3 637.5,105.2 643.0,105.2 648.6,105.1 654.1,102.0 659.6,99.7 665.1,98.0 670.7,97.5 676.2,97.0 681.7,97.7 687.2,98.4 692.8,99.3 698.3,99.0 703.8,101.5 709.3,102.7 714.9,103.1 720.4,104.1 725.9,104.8 731.4,107.8 737.0,105.8 742.5,107.1 748.0,106.2 753.5,105.5 759.0,109.0 764.6,108.3 770.1,110.0 775.6,111.2 781.1,113.7 786.7,112.8 792.2,113.6 797.7,113.8 803.2,115.9 808.8,113.5 814.3,113.3 819.8,114.4 825.3,113.5 830.9,114.1 836.4,114.8 841.9,115.3 847.4,116.3 853.0,117.5 858.5,116.0 864.0,119.0" fill="none" stroke="#FF3C3C" stroke-width="1.5" stroke-linejoin="round" stroke-linecap="round"/>
<line x1="16" y1="124" x2="864" y2="124" stroke="#2A3A4A" stroke-width="0.3" />
<text x="16" y="144" text-anchor="start" font-family="Courier New, Courier, monospace" font-size="10" fill="#FFA020" font-weight="bold">SPY</text>
<text x="72" y="144" text-anchor="start" font-family="Courier New, Courier, monospace" font-size="10" fill="#E8A000" >S&amp;P 500</text>
<text x="340" y="144" text-anchor="end" font-family="Courier New, Courier, monospace" font-size="11" fill="#D8E8F0" font-weight="bold">757.09</text>
<text x="420" y="144" text-anchor="end" font-family="Courier New, Courier, monospace" font-size="11" fill="#00C878" >+0.88%</text>
<text x="500" y="144" text-anchor="end" font-family="Courier New, Courier, monospace" font-size="11" fill="#00C878" >+11.12%</text>
<polyline points="516.0,142.8 521.5,144.3 527.0,143.3 532.6,143.5 538.1,143.7 543.6,145.4 549.1,146.1 554.7,144.9 560.2,144.6 565.7,146.2 571.2,146.5 576.8,148.1 582.3,147.0 587.8,147.3 593.3,146.7 598.9,148.7 604.4,150.6 609.9,151.0 615.4,147.8 621.0,147.0 626.5,146.9 632.0,146.4 637.5,146.3 643.0,143.4 648.6,142.7 654.1,142.8 659.6,141.7 665.1,140.2 670.7,139.3 676.2,139.0 681.7,137.5 687.2,137.8 692.8,138.6 698.3,137.3 703.8,137.8 709.3,136.9 714.9,136.7 720.4,137.3 725.9,137.3 731.4,136.1 737.0,135.7 742.5,136.2 748.0,135.2 753.5,133.4 759.0,133.8 764.6,132.8 770.1,132.5 775.6,132.7 781.1,132.0 786.7,131.0 792.2,132.5 797.7,132.6 803.2,133.5 808.8,132.2 814.3,131.9 819.8,131.4 825.3,130.5 830.9,130.6 836.4,129.9 841.9,129.5 847.4,129.2 853.0,129.0 858.5,129.9 864.0,129.4" fill="none" stroke="#00C878" stroke-width="1.5" stroke-linejoin="round" stroke-linecap="round"/>
<line x1="16" y1="156" x2="864" y2="156" stroke="#2A3A4A" stroke-width="0.3" />
<rect x="0" y="156" width="880" height="32" fill="#FFFFFF" opacity="0.02"/>
<text x="16" y="176" text-anchor="start" font-family="Courier New, Courier, monospace" font-size="10" fill="#FFA020" font-weight="bold">QQQ</text>
<text x="72" y="176" text-anchor="start" font-family="Courier New, Courier, monospace" font-size="10" fill="#E8A000" >NASDAQ 100</text>
<text x="340" y="176" text-anchor="end" font-family="Courier New, Courier, monospace" font-size="11" fill="#D8E8F0" font-weight="bold">740.61</text>
<text x="420" y="176" text-anchor="end" font-family="Courier New, Courier, monospace" font-size="11" fill="#00C878" >+0.31%</text>
<text x="500" y="176" text-anchor="end" font-family="Courier New, Courier, monospace" font-size="11" fill="#00C878" >+20.95%</text>
<polyline points="516.0,177.2 521.5,178.2 527.0,177.3 532.6,177.3 538.1,177.3 543.6,178.5 549.1,178.9 554.7,178.2 560.2,177.8 565.7,178.8 571.2,179.0 576.8,180.3 582.3,179.5 587.8,180.0 593.3,179.5 598.9,181.2 604.4,182.5 609.9,183.0 615.4,180.8 621.0,180.0 626.5,179.9 632.0,179.5 637.5,179.5 643.0,177.4 648.6,176.9 654.1,176.8 659.6,176.1 665.1,174.8 670.7,173.7 676.2,173.4 681.7,172.4 687.2,172.6 692.8,172.9 698.3,171.7 703.8,172.1 709.3,170.6 714.9,170.6 720.4,171.4 725.9,170.9 731.4,170.2 737.0,169.4 742.5,169.6 748.0,168.6 753.5,166.9 759.0,167.0 764.6,165.1 770.1,164.8 775.6,165.6 781.1,164.7 786.7,164.1 792.2,165.4 797.7,165.7 803.2,166.2 808.8,164.9 814.3,164.7 819.8,164.4 825.3,162.9 830.9,163.0 836.4,162.2 841.9,161.9 847.4,161.4 853.0,161.0 858.5,161.2 864.0,161.6" fill="none" stroke="#00C878" stroke-width="1.5" stroke-linejoin="round" stroke-linecap="round"/>
<line x1="16" y1="188" x2="864" y2="188" stroke="#2A3A4A" stroke-width="0.3" />
<text x="16" y="208" text-anchor="start" font-family="Courier New, Courier, monospace" font-size="10" fill="#FFA020" font-weight="bold">QMOM</text>
<text x="72" y="208" text-anchor="start" font-family="Courier New, Courier, monospace" font-size="10" fill="#E8A000" >QUANT MOMENTUM</text>
<text x="340" y="208" text-anchor="end" font-family="Courier New, Courier, monospace" font-size="11" fill="#D8E8F0" font-weight="bold">81.15</text>
<text x="420" y="208" text-anchor="end" font-family="Courier New, Courier, monospace" font-size="11" fill="#FF3C3C" >-0.29%</text>
<text x="500" y="208" text-anchor="end" font-family="Courier New, Courier, monospace" font-size="11" fill="#00C878" >+22.06%</text>
<polyline points="516.0,208.7 521.5,210.7 527.0,208.2 532.6,207.5 538.1,208.2 543.6,210.3 549.1,211.8 554.7,209.7 560.2,209.0 565.7,210.0 571.2,209.7 576.8,212.8 582.3,210.7 587.8,209.5 593.3,208.2 598.9,211.7 604.4,212.3 609.9,215.0 615.4,210.1 621.0,208.3 626.5,208.5 632.0,208.3 637.5,208.1 643.0,203.8 648.6,203.2 654.1,203.1 659.6,202.2 665.1,201.4 670.7,202.1 676.2,201.9 681.7,199.9 687.2,199.8 692.8,201.0 698.3,200.1 703.8,199.7 709.3,199.7 714.9,200.0 720.4,202.3 725.9,203.3 731.4,199.3 737.0,199.6 742.5,199.4 748.0,198.1 753.5,194.7 759.0,198.5 764.6,196.9 770.1,195.3 775.6,196.2 781.1,195.3 786.7,195.1 792.2,198.6 797.7,200.2 803.2,201.4 808.8,199.3 814.3,198.7 819.8,198.4 825.3,195.4 830.9,196.1 836.4,195.2 841.9,194.6 847.4,194.8 853.0,193.0 858.5,193.4 864.0,193.7" fill="none" stroke="#FF3C3C" stroke-width="1.5" stroke-linejoin="round" stroke-linecap="round"/>
<line x1="16" y1="220" x2="864" y2="220" stroke="#2A3A4A" stroke-width="0.3" />
<rect x="0" y="220" width="880" height="32" fill="#FFFFFF" opacity="0.02"/>
<text x="16" y="240" text-anchor="start" font-family="Courier New, Courier, monospace" font-size="10" fill="#FFA020" font-weight="bold">MTUM</text>
<text x="72" y="240" text-anchor="start" font-family="Courier New, Courier, monospace" font-size="10" fill="#E8A000" >MOMENTUM FACTOR</text>
<text x="340" y="240" text-anchor="end" font-family="Courier New, Courier, monospace" font-size="11" fill="#D8E8F0" font-weight="bold">325.87</text>
<text x="420" y="240" text-anchor="end" font-family="Courier New, Courier, monospace" font-size="11" fill="#00C878" >+0.14%</text>
<text x="500" y="240" text-anchor="end" font-family="Courier New, Courier, monospace" font-size="11" fill="#00C878" >+29.06%</text>
<polyline points="516.0,243.4 521.5,244.7 527.0,243.4 532.6,243.1 538.1,243.0 543.6,244.1 549.1,244.2 554.7,243.5 560.2,243.1 565.7,243.6 571.2,243.4 576.8,244.6 582.3,243.9 587.8,243.7 593.3,243.3 598.9,245.3 604.4,245.9 609.9,247.0 615.4,244.9 621.0,243.8 626.5,243.6 632.0,243.2 637.5,242.9 643.0,240.6 648.6,239.9 654.1,239.7 659.6,239.1 665.1,238.2 670.7,238.3 676.2,238.1 681.7,237.3 687.2,237.5 692.8,237.9 698.3,236.9 703.8,236.9 709.3,235.8 714.9,235.9 720.4,236.9 725.9,236.5 731.4,235.1 737.0,234.9 742.5,235.1 748.0,233.6 753.5,231.8 759.0,232.9 764.6,231.2 770.1,230.1 775.6,230.9 781.1,230.4 786.7,230.0 792.2,232.0 797.7,232.8 803.2,233.2 808.8,231.7 814.3,231.1 819.8,230.8 825.3,228.4 830.9,228.6 836.4,228.3 841.9,228.1 847.4,227.8 853.0,225.8 858.5,225.0 864.0,225.8" fill="none" stroke="#00C878" stroke-width="1.5" stroke-linejoin="round" stroke-linecap="round"/>
<line x1="16" y1="252" x2="864" y2="252" stroke="#2A3A4A" stroke-width="0.3" />
<text x="16" y="272" text-anchor="start" font-family="Courier New, Courier, monospace" font-size="10" fill="#FFA020" font-weight="bold">QUAL</text>
<text x="72" y="272" text-anchor="start" font-family="Courier New, Courier, monospace" font-size="10" fill="#E8A000" >QUALITY FACTOR</text>
<text x="340" y="272" text-anchor="end" font-family="Courier New, Courier, monospace" font-size="11" fill="#D8E8F0" font-weight="bold">217.33</text>
<text x="420" y="272" text-anchor="end" font-family="Courier New, Courier, monospace" font-size="11" fill="#00C878" >+1.02%</text>
<text x="500" y="272" text-anchor="end" font-family="Courier New, Courier, monospace" font-size="11" fill="#00C878" >+9.34%</text>
<polyline points="516.0,268.5 521.5,270.6 527.0,269.2 532.6,269.5 538.1,270.0 543.6,272.4 549.1,273.1 554.7,271.8 560.2,271.6 565.7,273.6 571.2,273.5 576.8,275.1 582.3,273.7 587.8,274.1 593.3,273.6 598.9,276.4 604.4,278.4 609.9,279.0 615.4,275.2 621.0,274.5 626.5,274.2 632.0,273.6 637.5,274.1 643.0,270.1 648.6,269.2 654.1,269.7 659.6,268.5 665.1,267.0 670.7,266.2 676.2,266.3 681.7,264.4 687.2,264.7 692.8,265.5 698.3,264.2 703.8,265.2 709.3,264.1 714.9,264.2 720.4,265.1 725.9,265.3 731.4,264.2 737.0,264.3 742.5,265.0 748.0,264.0 753.5,262.2 759.0,262.6 764.6,261.9 770.1,261.8 775.6,262.0 781.1,261.5 786.7,260.5 792.2,261.9 797.7,261.6 803.2,262.5 808.8,260.6 814.3,260.3 819.8,259.1 825.3,258.1 830.9,258.5 836.4,258.0 841.9,258.3 847.4,258.0 853.0,258.1 858.5,258.2 864.0,257.0" fill="none" stroke="#00C878" stroke-width="1.5" stroke-linejoin="round" stroke-linecap="round"/>
<line x1="16" y1="284" x2="864" y2="284" stroke="#2A3A4A" stroke-width="0.3" />
<line x1="0" y1="284" x2="880" y2="284" stroke="#E8A000" stroke-width="0.4" />
<text x="16" y="297" text-anchor="start" font-family="Courier New, Courier, monospace" font-size="8" fill="#506070" >SRC: YAHOO FINANCE  ·  AUTO-UPDATE 22:00 UTC WEEKDAYS  ·  GITHUB.COM/YANKRUZISKI</text>
<text x="864" y="297" text-anchor="end" font-family="Courier New, Courier, monospace" font-size="8" fill="#506070" >2026-06-04</text>
</svg>