<svg xmlns="http://www.w3.org/2000/svg" width="880" height="302" viewBox="0 0 880 302">
<rect width="880" height="302" fill="#040810"/>
<rect x="0.5" y="0.5" width="879" height="301" fill="none" stroke="#E8A000" stroke-width="0.7" opacity="0.5"/>
<rect x="0" y="0" width="880" height="18" fill="#D87000"/>
<text x="16" y="14" text-anchor="start" font-family="Courier New, Courier, monospace" font-size="9" fill="#030608" font-weight="bold">BLOOMBERG</text>
<text x="88" y="14" text-anchor="start" font-family="Courier New, Courier, monospace" font-size="9" fill="#030608" >QUANT MARKET MONITOR</text>
<text x="440" y="14" text-anchor="middle" font-family="Courier New, Courier, monospace" font-size="9" fill="#030608" >EQUITY  &amp;  VOLATILITY  DASHBOARD</text>
<text x="864" y="14" text-anchor="end" font-family="Courier New, Courier, monospace" font-size="9" fill="#030608" >2026-05-19  22:30 UTC</text>
<line x1="0" y1="38" x2="880" y2="38" stroke="#E8A000" stroke-width="0.8" />
<text x="16" y="33" text-anchor="start" font-family="Courier New, Courier, monospace" font-size="9" fill="#506070" >YAN KRUZISKI  ·  VP OF INTELI RESEARCH  ·  SÃO PAULO, BR</text>
<text x="864" y="33" text-anchor="end" font-family="Courier New, Courier, monospace" font-size="9" fill="#506070" >PAGE 1/1</text>
<rect x="0" y="38" width="880" height="22" fill="#E8A000" opacity="0.14"/>
<text x="16" y="54" text-anchor="start" font-family="Courier New, Courier, monospace" font-size="9" fill="#FFA020" font-weight="bold">TICKER</text>
<text x="72" y="54" text-anchor="start" font-family="Courier New, Courier, monospace" font-size="9" fill="#FFA020" font-weight="bold">DESCRIPTION</text>
<text x="340" y="54" text-anchor="end" font-family="Courier New, Courier, monospace" font-size="9" fill="#FFA020" font-weight="bold">LAST</text>
<text x="420" y="54" text-anchor="end" font-family="Courier New, Courier, monospace" font-size="9" fill="#FFA020" font-weight="bold">%CHG</text>
<text x="500" y="54" text-anchor="end" font-family="Courier New, Courier, monospace" font-size="9" fill="#FFA020" font-weight="bold">YTD%</text>
<text x="690" y="54" text-anchor="middle" font-family="Courier New, Courier, monospace" font-size="9" fill="#FFA020" font-weight="bold">3-MONTH</text>
<line x1="0" y1="60" x2="880" y2="60" stroke="#E8A000" stroke-width="0.9" />
<rect x="0" y="60" width="880" height="32" fill="#E8A000" opacity="0.09"/>
<text x="16" y="80" text-anchor="start" font-family="Courier New, Courier, monospace" font-size="10" fill="#FFA020" font-weight="bold">^VIX</text>
<text x="72" y="80" text-anchor="start" font-family="Courier New, Courier, monospace" font-size="10" fill="#E8A000" font-weight="bold">CBOE VOLATILITY INDEX</text>
<text x="340" y="80" text-anchor="end" font-family="Courier New, Courier, monospace" font-size="11" fill="#D8E8F0" font-weight="bold">18.06</text>
<text x="420" y="80" text-anchor="end" font-family="Courier New, Courier, monospace" font-size="11" fill="#FF3C3C" font-weight="bold">+1.40%</text>
<text x="500" y="80" text-anchor="end" font-family="Courier New, Courier, monospace" font-size="10" fill="#FF3C3C" font-weight="bold">NORMAL</text>
<polyline points="516.0,81.8 521.6,83.6 527.2,80.6 532.8,82.9 538.5,85.4 544.1,84.3 549.7,82.4 555.3,79.9 560.9,76.6 566.5,80.4 572.1,76.3 577.7,67.4 583.4,73.6 589.0,74.5 594.6,75.6 600.2,70.8 605.8,71.0 611.4,76.7 617.0,78.5 622.6,74.3 628.3,75.9 633.9,71.6 639.5,72.6 645.1,71.4 650.7,73.9 656.3,70.6 661.9,65.0 667.5,65.7 673.2,74.0 678.8,75.1 684.4,76.2 690.0,75.7 695.6,73.2 701.2,80.6 706.8,83.0 712.5,83.4 718.1,83.5 723.7,84.7 729.3,85.0 734.9,85.4 740.5,86.1 746.1,83.9 751.7,82.9 757.4,83.8 763.0,83.2 768.6,84.2 774.2,85.2 779.8,85.5 785.4,84.0 791.0,87.0 796.6,86.8 802.3,84.8 807.9,86.2 813.5,86.2 819.1,86.7 824.7,86.5 830.3,84.7 835.9,85.3 841.5,85.5 847.2,86.4 852.8,84.6 858.4,85.6 864.0,85.2" fill="none" stroke="#FF3C3C" stroke-width="1.5" stroke-linejoin="round" stroke-linecap="round"/>
<line x1="0" y1="92" x2="880" y2="92" stroke="#E8A000" stroke-width="0.5" />
<rect x="0" y="92" width="880" height="32" fill="#FFFFFF" opacity="0.02"/>
<text x="16" y="112" text-anchor="start" font-family="Courier New, Courier, monospace" font-size="10" fill="#FFA020" font-weight="bold">IBOV</text>
<text x="72" y="112" text-anchor="start" font-family="Courier New, Courier, monospace" font-size="10" fill="#E8A000" >IBOVESPA</text>
<text x="340" y="112" text-anchor="end" font-family="Courier New, Courier, monospace" font-size="11" fill="#D8E8F0" font-weight="bold">174,279</text>
<text x="420" y="112" text-anchor="end" font-family="Courier New, Courier, monospace" font-size="11" fill="#FF3C3C" >-1.52%</text>
<text x="500" y="112" text-anchor="end" font-family="Courier New, Courier, monospace" font-size="11" fill="#00C878" >+8.56%</text>
<polyline points="516.0,106.1 521.8,104.3 527.6,105.8 533.4,103.5 539.2,103.7 545.0,103.9 550.8,105.9 556.6,105.4 562.4,111.0 568.2,109.0 574.0,113.4 579.8,114.4 585.6,113.0 591.4,110.7 597.2,110.3 603.0,114.5 608.8,116.0 614.6,113.9 620.4,113.5 626.2,114.2 632.0,113.6 637.8,117.2 643.6,112.1 649.4,111.6 655.2,108.9 661.0,111.4 666.8,112.4 672.6,111.6 678.4,107.1 684.2,106.7 690.0,106.6 695.8,106.5 701.6,106.4 707.4,102.8 713.2,100.2 719.0,98.2 724.8,97.6 730.6,97.0 736.4,97.8 742.2,98.7 748.0,99.6 753.8,99.3 759.6,102.2 765.4,103.6 771.2,104.1 777.0,105.2 782.8,106.1 788.6,109.6 794.4,107.2 800.2,108.8 806.0,107.7 811.8,106.9 817.6,110.9 823.4,110.1 829.2,112.1 835.0,113.5 840.8,116.5 846.6,115.3 852.4,116.3 858.2,116.6 864.0,119.0" fill="none" stroke="#FF3C3C" stroke-width="1.5" stroke-linejoin="round" stroke-linecap="round"/>
<line x1="16" y1="124" x2="864" y2="124" stroke="#2A3A4A" stroke-width="0.3" />
<text x="16" y="144" text-anchor="start" font-family="Courier New, Courier, monospace" font-size="10" fill="#FFA020" font-weight="bold">SPY</text>
<text x="72" y="144" text-anchor="start" font-family="Courier New, Courier, monospace" font-size="10" fill="#E8A000" >S&P 500</text>
<text x="340" y="144" text-anchor="end" font-family="Courier New, Courier, monospace" font-size="11" fill="#D8E8F0" font-weight="bold">733.73</text>
<text x="420" y="144" text-anchor="end" font-family="Courier New, Courier, monospace" font-size="11" fill="#FF3C3C" >-0.70%</text>
<text x="500" y="144" text-anchor="end" font-family="Courier New, Courier, monospace" font-size="11" fill="#00C878" >+7.69%</text>
<polyline points="516.0,140.5 521.7,141.8 527.4,140.9 533.1,139.8 538.8,140.5 544.5,141.1 550.2,141.1 555.9,142.2 561.6,141.3 567.3,142.0 573.0,143.7 578.8,142.6 584.5,142.8 590.2,143.0 595.9,144.9 601.6,145.6 607.3,144.3 613.0,144.0 618.7,145.8 624.4,146.1 630.1,147.9 635.8,146.6 641.5,147.0 647.2,146.3 652.9,148.5 658.6,150.6 664.3,151.0 670.0,147.5 675.7,146.6 681.4,146.5 687.1,145.9 692.9,145.8 698.6,142.7 704.3,141.9 710.0,142.0 715.7,140.8 721.4,139.2 727.1,138.1 732.8,137.8 738.5,136.2 744.2,136.5 749.9,137.3 755.6,136.0 761.3,136.5 767.0,135.5 772.7,135.2 778.4,135.9 784.1,135.9 789.8,134.6 795.5,134.2 801.2,134.7 807.0,133.6 812.7,131.7 818.4,132.1 824.1,131.0 829.8,130.7 835.5,130.9 841.2,130.1 846.9,129.0 852.6,130.7 858.3,130.8 864.0,131.7" fill="none" stroke="#FF3C3C" stroke-width="1.5" stroke-linejoin="round" stroke-linecap="round"/>
<line x1="16" y1="156" x2="864" y2="156" stroke="#2A3A4A" stroke-width="0.3" />
<rect x="0" y="156" width="880" height="32" fill="#FFFFFF" opacity="0.02"/>
<text x="16" y="176" text-anchor="start" font-family="Courier New, Courier, monospace" font-size="10" fill="#FFA020" font-weight="bold">QQQ</text>
<text x="72" y="176" text-anchor="start" font-family="Courier New, Courier, monospace" font-size="10" fill="#E8A000" >NASDAQ 100</text>
<text x="340" y="176" text-anchor="end" font-family="Courier New, Courier, monospace" font-size="11" fill="#D8E8F0" font-weight="bold">701.53</text>
<text x="420" y="176" text-anchor="end" font-family="Courier New, Courier, monospace" font-size="11" fill="#FF3C3C" >-0.71%</text>
<text x="500" y="176" text-anchor="end" font-family="Courier New, Courier, monospace" font-size="11" fill="#00C878" >+14.56%</text>
<polyline points="516.0,176.2 521.7,177.2 527.4,176.3 533.1,175.2 538.8,176.2 544.5,176.4 550.2,176.3 555.9,177.2 561.6,176.0 567.3,176.2 573.0,177.5 578.8,176.4 584.5,176.4 590.2,176.4 595.9,177.8 601.6,178.3 607.3,177.4 613.0,177.0 618.7,178.1 624.4,178.4 630.1,179.9 635.8,179.0 641.5,179.5 647.2,179.0 652.9,180.9 658.6,182.4 664.3,183.0 670.0,180.4 675.7,179.5 681.4,179.4 687.1,178.9 692.9,178.9 698.6,176.5 704.3,175.9 710.0,175.8 715.7,174.9 721.4,173.4 727.1,172.2 732.8,171.8 738.5,170.7 744.2,170.9 749.9,171.3 755.6,169.8 761.3,170.3 767.0,168.6 772.7,168.6 778.4,169.5 784.1,168.9 789.8,168.1 795.5,167.2 801.2,167.4 807.0,166.2 812.7,164.3 818.4,164.4 824.1,162.2 829.8,161.9 835.5,162.7 841.2,161.7 846.9,161.0 852.6,162.5 858.3,162.9 864.0,163.5" fill="none" stroke="#FF3C3C" stroke-width="1.5" stroke-linejoin="round" stroke-linecap="round"/>
<line x1="16" y1="188" x2="864" y2="188" stroke="#2A3A4A" stroke-width="0.3" />
<text x="16" y="208" text-anchor="start" font-family="Courier New, Courier, monospace" font-size="10" fill="#FFA020" font-weight="bold">QMOM</text>
<text x="72" y="208" text-anchor="start" font-family="Courier New, Courier, monospace" font-size="10" fill="#E8A000" >QUANT MOMENTUM</text>
<text x="340" y="208" text-anchor="end" font-family="Courier New, Courier, monospace" font-size="11" fill="#D8E8F0" font-weight="bold">75.14</text>
<text x="420" y="208" text-anchor="end" font-family="Courier New, Courier, monospace" font-size="11" fill="#FF3C3C" >-1.24%</text>
<text x="500" y="208" text-anchor="end" font-family="Courier New, Courier, monospace" font-size="11" fill="#00C878" >+13.01%</text>
<polyline points="516.0,203.8 521.7,205.0 527.4,203.2 533.1,202.8 538.8,202.3 544.5,203.0 550.2,202.0 555.9,206.0 561.6,205.2 567.3,208.1 573.0,210.3 578.8,207.6 584.5,206.9 590.2,207.7 595.9,209.9 601.6,211.6 607.3,209.3 613.0,208.5 618.7,209.6 624.4,209.3 630.1,212.6 635.8,210.4 641.5,209.0 647.2,207.6 652.9,211.4 658.6,212.0 664.3,215.0 670.0,209.7 675.7,207.7 681.4,208.0 687.1,207.7 692.9,207.5 698.6,202.9 704.3,202.3 710.0,202.1 715.7,201.1 721.4,200.2 727.1,201.1 732.8,200.8 738.5,198.6 744.2,198.5 749.9,199.9 755.6,198.9 761.3,198.5 767.0,198.4 772.7,198.8 778.4,201.3 784.1,202.3 789.8,198.0 795.5,198.3 801.2,198.1 807.0,196.6 812.7,193.0 818.4,197.1 824.1,195.3 829.8,193.6 835.5,194.6 841.2,193.7 846.9,193.5 852.6,197.2 858.3,198.9 864.0,200.2" fill="none" stroke="#FF3C3C" stroke-width="1.5" stroke-linejoin="round" stroke-linecap="round"/>
<line x1="16" y1="220" x2="864" y2="220" stroke="#2A3A4A" stroke-width="0.3" />
<rect x="0" y="220" width="880" height="32" fill="#FFFFFF" opacity="0.02"/>
<text x="16" y="240" text-anchor="start" font-family="Courier New, Courier, monospace" font-size="10" fill="#FFA020" font-weight="bold">MTUM</text>
<text x="72" y="240" text-anchor="start" font-family="Courier New, Courier, monospace" font-size="10" fill="#E8A000" >MOMENTUM FACTOR</text>
<text x="340" y="240" text-anchor="end" font-family="Courier New, Courier, monospace" font-size="11" fill="#D8E8F0" font-weight="bold">292.59</text>
<text x="420" y="240" text-anchor="end" font-family="Courier New, Courier, monospace" font-size="11" fill="#00C878" >+0.23%</text>
<text x="500" y="240" text-anchor="end" font-family="Courier New, Courier, monospace" font-size="11" fill="#00C878" >+15.88%</text>
<polyline points="516.0,240.2 521.7,241.6 527.4,240.9 533.1,239.7 538.8,240.1 544.5,240.7 550.2,240.5 555.9,242.4 561.6,241.3 567.3,242.4 573.0,244.0 578.8,242.3 584.5,242.0 590.2,241.9 595.9,243.3 601.6,243.4 607.3,242.5 613.0,242.0 618.7,242.5 624.4,242.4 630.1,243.9 635.8,243.0 641.5,242.8 647.2,242.3 652.9,244.9 658.6,245.6 664.3,247.0 670.0,244.3 675.7,242.8 681.4,242.7 687.1,242.1 692.9,241.7 698.6,238.7 704.3,237.9 710.0,237.6 715.7,236.9 721.4,235.6 727.1,235.7 732.8,235.5 738.5,234.4 744.2,234.7 749.9,235.3 755.6,234.0 761.3,234.0 767.0,232.6 772.7,232.6 778.4,233.9 784.1,233.5 789.8,231.7 795.5,231.4 801.2,231.6 807.0,229.6 812.7,227.3 818.4,228.8 824.1,226.6 829.8,225.2 835.5,226.2 841.2,225.5 846.9,225.0 852.6,227.6 858.3,228.7 864.0,229.2" fill="none" stroke="#00C878" stroke-width="1.5" stroke-linejoin="round" stroke-linecap="round"/>
<line x1="16" y1="252" x2="864" y2="252" stroke="#2A3A4A" stroke-width="0.3" />
<text x="16" y="272" text-anchor="start" font-family="Courier New, Courier, monospace" font-size="10" fill="#FFA020" font-weight="bold">QUAL</text>
<text x="72" y="272" text-anchor="start" font-family="Courier New, Courier, monospace" font-size="10" fill="#E8A000" >QUALITY FACTOR</text>
<text x="340" y="272" text-anchor="end" font-family="Courier New, Courier, monospace" font-size="11" fill="#D8E8F0" font-weight="bold">209.55</text>
<text x="420" y="272" text-anchor="end" font-family="Courier New, Courier, monospace" font-size="11" fill="#FF3C3C" >-0.40%</text>
<text x="500" y="272" text-anchor="end" font-family="Courier New, Courier, monospace" font-size="11" fill="#00C878" >+5.43%</text>
<polyline points="516.0,264.2 521.7,266.0 527.4,264.5 533.1,263.3 538.8,263.8 544.5,263.8 550.2,264.1 555.9,265.9 561.6,265.0 567.3,266.5 573.0,269.0 578.8,267.3 584.5,267.6 590.2,268.3 595.9,271.1 601.6,272.0 607.3,270.4 613.0,270.2 618.7,272.5 624.4,272.4 630.1,274.4 635.8,272.7 641.5,273.2 647.2,272.5 652.9,275.9 658.6,278.3 664.3,279.0 670.0,274.5 675.7,273.7 681.4,273.3 687.1,272.6 692.9,273.1 698.6,268.4 704.3,267.3 710.0,268.0 715.7,266.5 721.4,264.7 727.1,263.8 732.8,263.8 738.5,261.6 744.2,261.9 749.9,262.9 755.6,261.4 761.3,262.5 767.0,261.2 772.7,261.4 778.4,262.5 784.1,262.6 789.8,261.4 795.5,261.4 801.2,262.3 807.0,261.1 812.7,259.0 818.4,259.5 824.1,258.6 829.8,258.5 835.5,258.7 841.2,258.2 846.9,257.0 852.6,258.6 858.3,258.2 864.0,259.4" fill="none" stroke="#FF3C3C" stroke-width="1.5" stroke-linejoin="round" stroke-linecap="round"/>
<line x1="16" y1="284" x2="864" y2="284" stroke="#2A3A4A" stroke-width="0.3" />
<line x1="0" y1="284" x2="880" y2="284" stroke="#E8A000" stroke-width="0.4" />
<text x="16" y="297" text-anchor="start" font-family="Courier New, Courier, monospace" font-size="8" fill="#506070" >SRC: YAHOO FINANCE  ·  AUTO-UPDATE 22:00 UTC WEEKDAYS  ·  GITHUB.COM/YANKRUZISKI</text>
<text x="864" y="297" text-anchor="end" font-family="Courier New, Courier, monospace" font-size="8" fill="#506070" >2026-05-19</text>
</svg>