<svg xmlns="http://www.w3.org/2000/svg" width="880" height="302" viewBox="0 0 880 302">
<rect width="880" height="302" fill="#040810"/>
<rect x="0.5" y="0.5" width="879" height="301" fill="none" stroke="#E8A000" stroke-width="0.7" opacity="0.5"/>
<rect x="0" y="0" width="880" height="18" fill="#D87000"/>
<text x="16" y="14" text-anchor="start" font-family="Courier New, Courier, monospace" font-size="9" fill="#030608" font-weight="bold">BLOOMBERG</text>
<text x="88" y="14" text-anchor="start" font-family="Courier New, Courier, monospace" font-size="9" fill="#030608" >QUANT MARKET MONITOR</text>
<text x="440" y="14" text-anchor="middle" font-family="Courier New, Courier, monospace" font-size="9" fill="#030608" >EQUITY  &amp;  VOLATILITY  DASHBOARD</text>
<text x="864" y="14" text-anchor="end" font-family="Courier New, Courier, monospace" font-size="9" fill="#030608" >2026-07-10  22:23 UTC</text>
<line x1="0" y1="38" x2="880" y2="38" stroke="#E8A000" stroke-width="0.8" />
<text x="16" y="33" text-anchor="start" font-family="Courier New, Courier, monospace" font-size="9" fill="#506070" >YAN KRUZISKI  ·  VP OF INTELI RESEARCH  ·  SÃO PAULO, BR</text>
<text x="864" y="33" text-anchor="end" font-family="Courier New, Courier, monospace" font-size="9" fill="#506070" >PAGE 1/1</text>
<rect x="0" y="38" width="880" height="22" fill="#E8A000" opacity="0.14"/>
<text x="16" y="54" text-anchor="start" font-family="Courier New, Courier, monospace" font-size="9" fill="#FFA020" font-weight="bold">TICKER</text>
<text x="72" y="54" text-anchor="start" font-family="Courier New, Courier, monospace" font-size="9" fill="#FFA020" font-weight="bold">DESCRIPTION</text>
<text x="340" y="54" text-anchor="end" font-family="Courier New, Courier, monospace" font-size="9" fill="#FFA020" font-weight="bold">LAST</text>
<text x="420" y="54" text-anchor="end" font-family="Courier New, Courier, monospace" font-size="9" fill="#FFA020" font-weight="bold">%CHG</text>
<text x="500" y="54" text-anchor="end" font-family="Courier New, Courier, monospace" font-size="9" fill="#FFA020" font-weight="bold">YTD%</text>
<text x="690" y="54" text-anchor="middle" font-family="Courier New, Courier, monospace" font-size="9" fill="#FFA020" font-weight="bold">3-MONTH</text>
<line x1="0" y1="60" x2="880" y2="60" stroke="#E8A000" stroke-width="0.9" />
<rect x="0" y="60" width="880" height="32" fill="#E8A000" opacity="0.09"/>
<text x="16" y="80" text-anchor="start" font-family="Courier New, Courier, monospace" font-size="10" fill="#FFA020" font-weight="bold">^VIX</text>
<text x="72" y="80" text-anchor="start" font-family="Courier New, Courier, monospace" font-size="10" fill="#E8A000" font-weight="bold">CBOE VOLATILITY INDEX</text>
<text x="340" y="80" text-anchor="end" font-family="Courier New, Courier, monospace" font-size="11" fill="#D8E8F0" font-weight="bold">15.03</text>
<text x="420" y="80" text-anchor="end" font-family="Courier New, Courier, monospace" font-size="11" fill="#00C878" font-weight="bold">-5.11%</text>
<text x="500" y="80" text-anchor="end" font-family="Courier New, Courier, monospace" font-size="10" fill="#00C878" font-weight="bold">NORMAL</text>
<polyline points="516.0,74.1 521.5,74.5 527.0,76.8 532.6,77.4 538.1,78.1 543.6,79.5 549.1,75.3 554.7,73.3 560.2,75.1 565.7,73.9 571.2,75.7 576.8,77.9 582.3,78.4 587.8,75.4 593.3,81.3 598.9,81.0 604.4,77.0 609.9,79.8 615.4,79.8 621.0,80.7 626.5,80.4 632.0,76.7 637.5,77.9 643.0,78.3 648.6,80.2 654.1,76.6 659.6,78.5 665.1,77.7 670.7,79.6 676.2,81.7 681.7,81.9 687.2,82.2 692.8,80.9 698.3,83.1 703.8,84.8 709.3,86.1 714.9,83.9 720.4,84.7 725.9,83.8 731.4,85.9 737.0,67.2 742.5,75.1 748.0,72.2 753.5,65.0 759.0,73.5 764.6,78.9 770.1,83.4 775.6,82.8 781.1,76.6 786.7,82.8 792.2,80.1 797.7,73.4 803.2,76.0 808.8,75.2 814.3,76.7 819.8,79.0 825.3,82.7 830.9,82.2 836.4,83.6 841.9,85.3 847.4,83.6 853.0,81.3 858.5,84.5 864.0,87.0" fill="none" stroke="#00C878" stroke-width="1.5" stroke-linejoin="round" stroke-linecap="round"/>
<line x1="0" y1="92" x2="880" y2="92" stroke="#E8A000" stroke-width="0.5" />
<rect x="0" y="92" width="880" height="32" fill="#FFFFFF" opacity="0.02"/>
<text x="16" y="112" text-anchor="start" font-family="Courier New, Courier, monospace" font-size="10" fill="#FFA020" font-weight="bold">IBOV</text>
<text x="72" y="112" text-anchor="start" font-family="Courier New, Courier, monospace" font-size="10" fill="#E8A000" >IBOVESPA</text>
<text x="340" y="112" text-anchor="end" font-family="Courier New, Courier, monospace" font-size="11" fill="#D8E8F0" font-weight="bold">177,866</text>
<text x="420" y="112" text-anchor="end" font-family="Courier New, Courier, monospace" font-size="11" fill="#00C878" >+2.97%</text>
<text x="500" y="112" text-anchor="end" font-family="Courier New, Courier, monospace" font-size="11" fill="#00C878" >+10.79%</text>
<polyline points="516.0,98.0 521.6,97.5 527.2,97.0 532.8,97.7 538.5,98.3 544.1,99.1 549.7,98.8 555.3,101.2 560.9,102.3 566.5,102.7 572.1,103.6 577.7,104.3 583.4,107.1 589.0,105.2 594.6,106.5 600.2,105.6 605.8,104.9 611.4,108.2 617.0,107.5 622.6,109.1 628.3,110.3 633.9,112.6 639.5,111.7 645.1,112.5 650.7,112.7 656.3,114.7 661.9,112.4 667.5,112.2 673.2,113.3 678.8,112.4 684.4,113.0 690.0,113.6 695.6,114.1 701.2,115.0 706.8,116.2 712.5,114.7 718.1,117.5 723.7,118.5 729.3,118.7 734.9,117.9 740.5,118.8 746.1,116.7 751.7,116.9 757.4,117.5 763.0,118.0 768.6,118.9 774.2,119.0 779.8,118.8 785.4,117.5 791.0,116.8 796.6,117.4 802.3,116.3 807.9,115.4 813.5,115.4 819.1,116.3 824.7,116.5 830.3,115.7 835.9,114.7 841.5,116.0 847.2,116.3 852.8,117.3 858.4,115.8 864.0,112.1" fill="none" stroke="#00C878" stroke-width="1.5" stroke-linejoin="round" stroke-linecap="round"/>
<line x1="16" y1="124" x2="864" y2="124" stroke="#2A3A4A" stroke-width="0.3" />
<text x="16" y="144" text-anchor="start" font-family="Courier New, Courier, monospace" font-size="10" fill="#FFA020" font-weight="bold">SPY</text>
<text x="72" y="144" text-anchor="start" font-family="Courier New, Courier, monospace" font-size="10" fill="#E8A000" >S&amp;P 500</text>
<text x="340" y="144" text-anchor="end" font-family="Courier New, Courier, monospace" font-size="11" fill="#D8E8F0" font-weight="bold">754.95</text>
<text x="420" y="144" text-anchor="end" font-family="Courier New, Courier, monospace" font-size="11" fill="#00C878" >+0.47%</text>
<text x="500" y="144" text-anchor="end" font-family="Courier New, Courier, monospace" font-size="11" fill="#00C878" >+11.09%</text>
<polyline points="516.0,151.0 521.7,148.5 527.4,146.9 533.1,146.3 538.8,143.8 544.5,144.2 550.2,145.6 555.9,143.5 561.6,144.3 567.3,142.7 573.0,142.3 578.8,143.3 584.5,143.4 590.2,141.3 595.9,140.7 601.6,141.4 607.3,139.7 613.0,136.7 618.7,137.4 624.4,135.6 630.1,135.1 635.8,135.4 641.5,134.2 647.2,132.4 652.9,135.1 658.6,135.3 664.3,136.7 670.0,134.5 675.7,134.0 681.4,133.2 687.1,131.7 692.9,131.7 698.6,130.5 704.3,129.9 710.0,129.3 715.7,129.0 721.4,130.6 727.1,129.7 732.8,135.6 738.5,135.1 744.2,135.7 749.9,139.2 755.6,135.5 761.3,134.3 767.0,130.4 772.7,131.8 778.4,134.6 784.1,132.3 789.8,133.0 795.5,136.2 801.2,136.3 807.0,136.0 812.7,137.6 818.4,134.0 824.1,132.3 829.8,132.6 835.5,132.9 841.2,130.9 846.9,132.0 852.6,132.7 858.3,130.8 864.0,129.8" fill="none" stroke="#00C878" stroke-width="1.5" stroke-linejoin="round" stroke-linecap="round"/>
<line x1="16" y1="156" x2="864" y2="156" stroke="#2A3A4A" stroke-width="0.3" />
<rect x="0" y="156" width="880" height="32" fill="#FFFFFF" opacity="0.02"/>
<text x="16" y="176" text-anchor="start" font-family="Courier New, Courier, monospace" font-size="10" fill="#FFA020" font-weight="bold">QQQ</text>
<text x="72" y="176" text-anchor="start" font-family="Courier New, Courier, monospace" font-size="10" fill="#E8A000" >NASDAQ 100</text>
<text x="340" y="176" text-anchor="end" font-family="Courier New, Courier, monospace" font-size="11" fill="#D8E8F0" font-weight="bold">725.51</text>
<text x="420" y="176" text-anchor="end" font-family="Courier New, Courier, monospace" font-size="11" fill="#00C878" >+0.36%</text>
<text x="500" y="176" text-anchor="end" font-family="Courier New, Courier, monospace" font-size="11" fill="#00C878" >+18.61%</text>
<polyline points="516.0,183.0 521.7,181.1 527.4,179.6 533.1,179.1 538.8,177.6 544.5,178.0 550.2,178.4 555.9,176.6 561.6,177.2 567.3,175.1 573.0,175.0 578.8,176.1 584.5,175.5 590.2,174.4 595.9,173.3 601.6,173.5 607.3,172.0 613.0,169.6 618.7,169.8 624.4,167.0 630.1,166.6 635.8,167.6 641.5,166.4 647.2,165.5 652.9,167.4 658.6,167.9 664.3,168.6 670.0,166.6 675.7,166.4 681.4,165.9 687.1,163.7 692.9,163.9 698.6,162.8 704.3,162.3 710.0,161.6 715.7,161.0 721.4,161.3 727.1,161.9 732.8,168.0 738.5,166.1 744.2,167.5 749.9,170.0 755.6,166.0 761.3,165.2 767.0,161.4 772.7,163.8 778.4,165.0 784.1,161.9 789.8,162.3 795.5,166.4 801.2,166.9 807.0,166.0 812.7,167.6 818.4,164.6 824.1,162.5 829.8,164.4 835.5,166.6 841.2,164.9 846.9,167.1 852.6,166.8 858.3,164.8 864.0,164.4" fill="none" stroke="#00C878" stroke-width="1.5" stroke-linejoin="round" stroke-linecap="round"/>
<line x1="16" y1="188" x2="864" y2="188" stroke="#2A3A4A" stroke-width="0.3" />
<text x="16" y="208" text-anchor="start" font-family="Courier New, Courier, monospace" font-size="10" fill="#FFA020" font-weight="bold">QMOM</text>
<text x="72" y="208" text-anchor="start" font-family="Courier New, Courier, monospace" font-size="10" fill="#E8A000" >QUANT MOMENTUM</text>
<text x="340" y="208" text-anchor="end" font-family="Courier New, Courier, monospace" font-size="11" fill="#D8E8F0" font-weight="bold">76.02</text>
<text x="420" y="208" text-anchor="end" font-family="Courier New, Courier, monospace" font-size="11" fill="#FF3C3C" >-1.06%</text>
<text x="500" y="208" text-anchor="end" font-family="Courier New, Courier, monospace" font-size="11" fill="#00C878" >+14.34%</text>
<polyline points="516.0,212.6 521.7,210.8 527.4,212.5 533.1,211.9 538.8,207.7 544.5,207.5 550.2,210.1 555.9,208.2 561.6,207.4 567.3,207.3 573.0,208.0 578.8,212.9 584.5,215.0 590.2,206.5 595.9,207.1 601.6,206.6 607.3,203.8 613.0,196.6 618.7,204.6 624.4,201.2 630.1,197.8 635.8,199.8 641.5,197.9 647.2,197.5 652.9,204.9 658.6,208.3 664.3,210.9 670.0,206.5 675.7,205.2 681.4,204.4 687.1,198.2 692.9,199.6 698.6,197.7 704.3,196.4 710.0,196.9 715.7,193.0 721.4,193.8 727.1,194.5 732.8,206.2 738.5,204.8 744.2,207.3 749.9,212.3 755.6,202.8 761.3,200.0 767.0,198.5 772.7,200.8 778.4,202.2 784.1,200.8 789.8,196.6 795.5,202.5 801.2,204.5 807.0,200.8 812.7,205.9 818.4,202.7 824.1,201.1 829.8,204.8 835.5,208.9 841.2,207.2 846.9,209.9 852.6,207.3 858.3,206.2 864.0,208.5" fill="none" stroke="#FF3C3C" stroke-width="1.5" stroke-linejoin="round" stroke-linecap="round"/>
<line x1="16" y1="220" x2="864" y2="220" stroke="#2A3A4A" stroke-width="0.3" />
<rect x="0" y="220" width="880" height="32" fill="#FFFFFF" opacity="0.02"/>
<text x="16" y="240" text-anchor="start" font-family="Courier New, Courier, monospace" font-size="10" fill="#FFA020" font-weight="bold">MTUM</text>
<text x="72" y="240" text-anchor="start" font-family="Courier New, Courier, monospace" font-size="10" fill="#E8A000" >MOMENTUM FACTOR</text>
<text x="340" y="240" text-anchor="end" font-family="Courier New, Courier, monospace" font-size="11" fill="#D8E8F0" font-weight="bold">321.77</text>
<text x="420" y="240" text-anchor="end" font-family="Courier New, Courier, monospace" font-size="11" fill="#FF3C3C" >-0.07%</text>
<text x="500" y="240" text-anchor="end" font-family="Courier New, Courier, monospace" font-size="11" fill="#00C878" >+27.57%</text>
<polyline points="516.0,247.0 521.7,245.8 527.4,245.9 533.1,245.7 538.8,244.7 544.5,244.9 550.2,245.5 555.9,244.3 561.6,244.3 567.3,242.9 573.0,242.9 578.8,244.2 584.5,243.8 590.2,242.0 595.9,241.7 601.6,242.0 607.3,240.1 613.0,237.8 618.7,239.3 624.4,237.1 630.1,235.8 635.8,236.7 641.5,236.1 647.2,235.6 652.9,238.1 658.6,239.2 664.3,239.7 670.0,237.7 675.7,237.0 681.4,236.6 687.1,233.7 692.9,233.9 698.6,233.6 704.3,233.2 710.0,232.9 715.7,230.4 721.4,229.5 727.1,230.5 732.8,235.8 738.5,233.4 744.2,234.4 749.9,236.3 755.6,232.4 761.3,230.9 767.0,228.2 772.7,230.3 778.4,229.7 784.1,226.9 789.8,225.0 795.5,229.3 801.2,229.7 807.0,226.6 812.7,230.4 818.4,227.6 824.1,225.7 829.8,229.7 835.5,232.9 841.2,231.5 846.9,234.1 852.6,233.4 858.3,231.7 864.0,231.5" fill="none" stroke="#FF3C3C" stroke-width="1.5" stroke-linejoin="round" stroke-linecap="round"/>
<line x1="16" y1="252" x2="864" y2="252" stroke="#2A3A4A" stroke-width="0.3" />
<text x="16" y="272" text-anchor="start" font-family="Courier New, Courier, monospace" font-size="10" fill="#FFA020" font-weight="bold">QUAL</text>
<text x="72" y="272" text-anchor="start" font-family="Courier New, Courier, monospace" font-size="10" fill="#E8A000" >QUALITY FACTOR</text>
<text x="340" y="272" text-anchor="end" font-family="Courier New, Courier, monospace" font-size="11" fill="#D8E8F0" font-weight="bold">219.69</text>
<text x="420" y="272" text-anchor="end" font-family="Courier New, Courier, monospace" font-size="11" fill="#00C878" >+0.73%</text>
<text x="500" y="272" text-anchor="end" font-family="Courier New, Courier, monospace" font-size="11" fill="#00C878" >+10.72%</text>
<polyline points="516.0,279.0 521.7,276.6 527.4,275.4 533.1,275.4 538.8,272.4 544.5,272.8 550.2,274.1 555.9,272.1 561.6,273.6 567.3,271.8 573.0,272.1 578.8,273.6 584.5,273.7 590.2,272.0 595.9,272.1 601.6,273.3 607.3,271.7 613.0,268.7 618.7,269.4 624.4,268.3 630.1,268.1 635.8,268.3 641.5,267.6 647.2,266.0 652.9,268.3 658.6,267.7 664.3,269.3 670.0,266.2 675.7,265.6 681.4,263.7 687.1,262.0 692.9,262.7 698.6,261.9 704.3,262.4 710.0,261.8 715.7,262.0 721.4,262.2 727.1,260.2 732.8,265.1 738.5,264.3 744.2,264.0 749.9,266.1 755.6,261.9 761.3,260.7 767.0,257.6 772.7,259.3 778.4,263.1 784.1,261.4 789.8,261.5 795.5,264.8 801.2,264.6 807.0,264.5 812.7,264.1 818.4,259.8 824.1,257.3 829.8,258.0 835.5,258.5 841.2,258.4 846.9,259.3 852.6,260.2 858.3,258.4 864.0,257.0" fill="none" stroke="#00C878" stroke-width="1.5" stroke-linejoin="round" stroke-linecap="round"/>
<line x1="16" y1="284" x2="864" y2="284" stroke="#2A3A4A" stroke-width="0.3" />
<line x1="0" y1="284" x2="880" y2="284" stroke="#E8A000" stroke-width="0.4" />
<text x="16" y="297" text-anchor="start" font-family="Courier New, Courier, monospace" font-size="8" fill="#506070" >SRC: YAHOO FINANCE  ·  AUTO-UPDATE 22:00 UTC WEEKDAYS  ·  GITHUB.COM/YANKRUZISKI</text>
<text x="864" y="297" text-anchor="end" font-family="Courier New, Courier, monospace" font-size="8" fill="#506070" >2026-07-10</text>
</svg>