<svg xmlns="http://www.w3.org/2000/svg" width="880" height="302" viewBox="0 0 880 302">
<rect width="880" height="302" fill="#040810"/>
<rect x="0.5" y="0.5" width="879" height="301" fill="none" stroke="#E8A000" stroke-width="0.7" opacity="0.5"/>
<rect x="0" y="0" width="880" height="18" fill="#D87000"/>
<text x="16" y="14" text-anchor="start" font-family="Courier New, Courier, monospace" font-size="9" fill="#030608" font-weight="bold">BLOOMBERG</text>
<text x="88" y="14" text-anchor="start" font-family="Courier New, Courier, monospace" font-size="9" fill="#030608" >QUANT MARKET MONITOR</text>
<text x="440" y="14" text-anchor="middle" font-family="Courier New, Courier, monospace" font-size="9" fill="#030608" >EQUITY  &amp;  VOLATILITY  DASHBOARD</text>
<text x="864" y="14" text-anchor="end" font-family="Courier New, Courier, monospace" font-size="9" fill="#030608" >2026-07-14  22:22 UTC</text>
<line x1="0" y1="38" x2="880" y2="38" stroke="#E8A000" stroke-width="0.8" />
<text x="16" y="33" text-anchor="start" font-family="Courier New, Courier, monospace" font-size="9" fill="#506070" >YAN KRUZISKI  ·  VP OF INTELI RESEARCH  ·  SÃO PAULO, BR</text>
<text x="864" y="33" text-anchor="end" font-family="Courier New, Courier, monospace" font-size="9" fill="#506070" >PAGE 1/1</text>
<rect x="0" y="38" width="880" height="22" fill="#E8A000" opacity="0.14"/>
<text x="16" y="54" text-anchor="start" font-family="Courier New, Courier, monospace" font-size="9" fill="#FFA020" font-weight="bold">TICKER</text>
<text x="72" y="54" text-anchor="start" font-family="Courier New, Courier, monospace" font-size="9" fill="#FFA020" font-weight="bold">DESCRIPTION</text>
<text x="340" y="54" text-anchor="end" font-family="Courier New, Courier, monospace" font-size="9" fill="#FFA020" font-weight="bold">LAST</text>
<text x="420" y="54" text-anchor="end" font-family="Courier New, Courier, monospace" font-size="9" fill="#FFA020" font-weight="bold">%CHG</text>
<text x="500" y="54" text-anchor="end" font-family="Courier New, Courier, monospace" font-size="9" fill="#FFA020" font-weight="bold">YTD%</text>
<text x="690" y="54" text-anchor="middle" font-family="Courier New, Courier, monospace" font-size="9" fill="#FFA020" font-weight="bold">3-MONTH</text>
<line x1="0" y1="60" x2="880" y2="60" stroke="#E8A000" stroke-width="0.9" />
<rect x="0" y="60" width="880" height="32" fill="#E8A000" opacity="0.09"/>
<text x="16" y="80" text-anchor="start" font-family="Courier New, Courier, monospace" font-size="10" fill="#FFA020" font-weight="bold">^VIX</text>
<text x="72" y="80" text-anchor="start" font-family="Courier New, Courier, monospace" font-size="10" fill="#E8A000" font-weight="bold">CBOE VOLATILITY INDEX</text>
<text x="340" y="80" text-anchor="end" font-family="Courier New, Courier, monospace" font-size="11" fill="#D8E8F0" font-weight="bold">16.50</text>
<text x="420" y="80" text-anchor="end" font-family="Courier New, Courier, monospace" font-size="11" fill="#00C878" font-weight="bold">-3.79%</text>
<text x="500" y="80" text-anchor="end" font-family="Courier New, Courier, monospace" font-size="10" fill="#00C878" font-weight="bold">NORMAL</text>
<polyline points="516.0,76.8 521.5,77.4 527.0,78.1 532.6,79.5 538.1,75.3 543.6,73.3 549.1,75.1 554.7,73.9 560.2,75.7 565.7,77.9 571.2,78.4 576.8,75.4 582.3,81.3 587.8,81.0 593.3,77.0 598.9,79.8 604.4,79.8 609.9,80.7 615.4,80.4 621.0,76.7 626.5,77.9 632.0,78.3 637.5,80.2 643.0,76.6 648.6,78.5 654.1,77.7 659.6,79.6 665.1,81.7 670.7,81.9 676.2,82.2 681.7,80.9 687.2,83.1 692.8,84.8 698.3,86.1 703.8,83.9 709.3,84.7 714.9,83.8 720.4,85.9 725.9,67.2 731.4,75.1 737.0,72.2 742.5,65.0 748.0,73.5 753.5,78.9 759.0,83.4 764.6,82.8 770.1,76.6 775.6,82.8 781.1,80.1 786.7,73.4 792.2,76.0 797.7,75.2 803.2,76.7 808.8,79.0 814.3,82.7 819.8,82.2 825.3,83.6 830.9,85.3 836.4,83.6 841.9,81.3 847.4,84.5 853.0,87.0 858.5,80.5 864.0,82.5" fill="none" stroke="#00C878" stroke-width="1.5" stroke-linejoin="round" stroke-linecap="round"/>
<line x1="0" y1="92" x2="880" y2="92" stroke="#E8A000" stroke-width="0.5" />
<rect x="0" y="92" width="880" height="32" fill="#FFFFFF" opacity="0.02"/>
<text x="16" y="112" text-anchor="start" font-family="Courier New, Courier, monospace" font-size="10" fill="#FFA020" font-weight="bold">IBOV</text>
<text x="72" y="112" text-anchor="start" font-family="Courier New, Courier, monospace" font-size="10" fill="#E8A000" >IBOVESPA</text>
<text x="340" y="112" text-anchor="end" font-family="Courier New, Courier, monospace" font-size="11" fill="#D8E8F0" font-weight="bold">176,641</text>
<text x="420" y="112" text-anchor="end" font-family="Courier New, Courier, monospace" font-size="11" fill="#00C878" >+0.51%</text>
<text x="500" y="112" text-anchor="end" font-family="Courier New, Courier, monospace" font-size="11" fill="#00C878" >+10.03%</text>
<polyline points="516.0,97.0 521.6,97.7 527.2,98.3 532.8,99.1 538.5,98.8 544.1,101.2 549.7,102.3 555.3,102.7 560.9,103.6 566.5,104.3 572.1,107.1 577.7,105.2 583.4,106.5 589.0,105.6 594.6,104.9 600.2,108.2 605.8,107.5 611.4,109.1 617.0,110.3 622.6,112.6 628.3,111.7 633.9,112.5 639.5,112.7 645.1,114.7 650.7,112.4 656.3,112.2 661.9,113.3 667.5,112.4 673.2,113.0 678.8,113.6 684.4,114.1 690.0,115.0 695.6,116.2 701.2,114.7 706.8,117.5 712.5,118.5 718.1,118.7 723.7,117.9 729.3,118.8 734.9,116.7 740.5,116.9 746.1,117.5 751.7,118.0 757.4,118.9 763.0,119.0 768.6,118.8 774.2,117.5 779.8,116.8 785.4,117.4 791.0,116.3 796.6,115.4 802.3,115.4 807.9,116.3 813.5,116.5 819.1,115.7 824.7,114.7 830.3,116.0 835.9,116.3 841.5,117.3 847.2,115.8 852.8,112.1 858.4,113.6 864.0,112.9" fill="none" stroke="#00C878" stroke-width="1.5" stroke-linejoin="round" stroke-linecap="round"/>
<line x1="16" y1="124" x2="864" y2="124" stroke="#2A3A4A" stroke-width="0.3" />
<text x="16" y="144" text-anchor="start" font-family="Courier New, Courier, monospace" font-size="10" fill="#FFA020" font-weight="bold">SPY</text>
<text x="72" y="144" text-anchor="start" font-family="Courier New, Courier, monospace" font-size="10" fill="#E8A000" >S&amp;P 500</text>
<text x="340" y="144" text-anchor="end" font-family="Courier New, Courier, monospace" font-size="11" fill="#D8E8F0" font-weight="bold">751.83</text>
<text x="420" y="144" text-anchor="end" font-family="Courier New, Courier, monospace" font-size="11" fill="#00C878" >+0.49%</text>
<text x="500" y="144" text-anchor="end" font-family="Courier New, Courier, monospace" font-size="11" fill="#00C878" >+10.64%</text>
<polyline points="516.0,151.0 521.7,150.4 527.4,147.2 533.1,147.8 538.8,149.5 544.5,146.8 550.2,147.9 555.9,145.8 561.6,145.4 567.3,146.7 573.0,146.7 578.8,144.1 584.5,143.4 590.2,144.3 595.9,142.2 601.6,138.5 607.3,139.3 613.0,137.1 618.7,136.5 624.4,136.9 630.1,135.4 635.8,133.2 641.5,136.5 647.2,136.7 652.9,138.5 658.6,135.8 664.3,135.2 670.0,134.1 675.7,132.3 681.4,132.4 687.1,130.8 692.9,130.1 698.6,129.4 704.3,129.0 710.0,131.0 715.7,129.9 721.4,137.1 727.1,136.5 732.8,137.3 738.5,141.6 744.2,137.0 749.9,135.6 755.6,130.7 761.3,132.4 767.0,135.9 772.7,133.0 778.4,133.9 784.1,137.9 789.8,138.0 795.5,137.6 801.2,139.6 807.0,135.1 812.7,133.0 818.4,133.4 824.1,133.7 829.8,131.3 835.5,132.7 841.2,133.5 846.9,131.2 852.6,130.0 858.3,132.1 864.0,131.1" fill="none" stroke="#00C878" stroke-width="1.5" stroke-linejoin="round" stroke-linecap="round"/>
<line x1="16" y1="156" x2="864" y2="156" stroke="#2A3A4A" stroke-width="0.3" />
<rect x="0" y="156" width="880" height="32" fill="#FFFFFF" opacity="0.02"/>
<text x="16" y="176" text-anchor="start" font-family="Courier New, Courier, monospace" font-size="10" fill="#FFA020" font-weight="bold">QQQ</text>
<text x="72" y="176" text-anchor="start" font-family="Courier New, Courier, monospace" font-size="10" fill="#E8A000" >NASDAQ 100</text>
<text x="340" y="176" text-anchor="end" font-family="Courier New, Courier, monospace" font-size="11" fill="#D8E8F0" font-weight="bold">719.69</text>
<text x="420" y="176" text-anchor="end" font-family="Courier New, Courier, monospace" font-size="11" fill="#00C878" >+1.28%</text>
<text x="500" y="176" text-anchor="end" font-family="Courier New, Courier, monospace" font-size="11" fill="#00C878" >+17.66%</text>
<polyline points="516.0,183.0 521.7,182.4 527.4,180.7 533.1,181.1 538.8,181.6 544.5,179.4 550.2,180.2 555.9,177.6 561.6,177.6 567.3,178.9 573.0,178.1 578.8,176.9 584.5,175.6 590.2,175.8 595.9,174.1 601.6,171.2 607.3,171.4 613.0,168.1 618.7,167.6 624.4,168.9 630.1,167.4 635.8,166.3 641.5,168.5 647.2,169.1 652.9,170.0 658.6,167.7 664.3,167.4 670.0,166.8 675.7,164.2 681.4,164.4 687.1,163.1 692.9,162.6 698.6,161.7 704.3,161.0 710.0,161.4 715.7,162.1 721.4,169.3 727.1,167.1 732.8,168.8 738.5,171.6 744.2,166.9 749.9,166.0 755.6,161.4 761.3,164.3 767.0,165.8 772.7,162.1 778.4,162.5 784.1,167.4 789.8,168.0 795.5,166.9 801.2,168.9 807.0,165.3 812.7,162.8 818.4,165.1 824.1,167.6 829.8,165.6 835.5,168.3 841.2,167.9 846.9,165.5 852.6,165.0 858.3,167.8 864.0,166.2" fill="none" stroke="#00C878" stroke-width="1.5" stroke-linejoin="round" stroke-linecap="round"/>
<line x1="16" y1="188" x2="864" y2="188" stroke="#2A3A4A" stroke-width="0.3" />
<text x="16" y="208" text-anchor="start" font-family="Courier New, Courier, monospace" font-size="10" fill="#FFA020" font-weight="bold">QMOM</text>
<text x="72" y="208" text-anchor="start" font-family="Courier New, Courier, monospace" font-size="10" fill="#E8A000" >QUANT MOMENTUM</text>
<text x="340" y="208" text-anchor="end" font-family="Courier New, Courier, monospace" font-size="11" fill="#D8E8F0" font-weight="bold">76.15</text>
<text x="420" y="208" text-anchor="end" font-family="Courier New, Courier, monospace" font-size="11" fill="#00C878" >+1.55%</text>
<text x="500" y="208" text-anchor="end" font-family="Courier New, Courier, monospace" font-size="11" fill="#00C878" >+14.54%</text>
<polyline points="516.0,212.5 521.7,211.9 527.4,207.7 533.1,207.5 538.8,210.1 544.5,208.2 550.2,207.4 555.9,207.3 561.6,208.0 567.3,212.9 573.0,215.0 578.8,206.5 584.5,207.1 590.2,206.6 595.9,203.8 601.6,196.6 607.3,204.6 613.0,201.2 618.7,197.8 624.4,199.8 630.1,197.9 635.8,197.5 641.5,204.9 647.2,208.3 652.9,210.9 658.6,206.5 664.3,205.2 670.0,204.4 675.7,198.2 681.4,199.6 687.1,197.7 692.9,196.4 698.6,196.9 704.3,193.0 710.0,193.8 715.7,194.5 721.4,206.2 727.1,204.8 732.8,207.3 738.5,212.3 744.2,202.8 749.9,200.0 755.6,198.5 761.3,200.8 767.0,202.2 772.7,200.8 778.4,196.6 784.1,202.5 789.8,204.5 795.5,200.8 801.2,205.9 807.0,202.7 812.7,201.1 818.4,204.8 824.1,208.9 829.8,207.2 835.5,209.9 841.2,207.3 846.9,206.2 852.6,208.5 858.3,211.3 864.0,208.1" fill="none" stroke="#00C878" stroke-width="1.5" stroke-linejoin="round" stroke-linecap="round"/>
<line x1="16" y1="220" x2="864" y2="220" stroke="#2A3A4A" stroke-width="0.3" />
<rect x="0" y="220" width="880" height="32" fill="#FFFFFF" opacity="0.02"/>
<text x="16" y="240" text-anchor="start" font-family="Courier New, Courier, monospace" font-size="10" fill="#FFA020" font-weight="bold">MTUM</text>
<text x="72" y="240" text-anchor="start" font-family="Courier New, Courier, monospace" font-size="10" fill="#E8A000" >MOMENTUM FACTOR</text>
<text x="340" y="240" text-anchor="end" font-family="Courier New, Courier, monospace" font-size="11" fill="#D8E8F0" font-weight="bold">319.76</text>
<text x="420" y="240" text-anchor="end" font-family="Courier New, Courier, monospace" font-size="11" fill="#00C878" >+2.64%</text>
<text x="500" y="240" text-anchor="end" font-family="Courier New, Courier, monospace" font-size="11" fill="#00C878" >+26.78%</text>
<polyline points="516.0,247.0 521.7,246.8 527.4,245.7 533.1,246.0 538.8,246.5 544.5,245.3 550.2,245.3 555.9,243.8 561.6,243.9 567.3,245.2 573.0,244.8 578.8,242.9 584.5,242.6 590.2,242.8 595.9,240.9 601.6,238.5 607.3,240.0 613.0,237.7 618.7,236.3 624.4,237.3 630.1,236.7 635.8,236.2 641.5,238.8 647.2,239.9 652.9,240.4 658.6,238.4 664.3,237.6 670.0,237.2 675.7,234.2 681.4,234.4 687.1,234.0 692.9,233.7 698.6,233.3 704.3,230.7 710.0,229.7 715.7,230.7 721.4,236.4 727.1,233.9 732.8,234.9 738.5,236.8 744.2,232.7 749.9,231.2 755.6,228.4 761.3,230.6 767.0,229.9 772.7,227.0 778.4,225.0 784.1,229.5 789.8,229.9 795.5,226.7 801.2,230.7 807.0,227.7 812.7,225.7 818.4,230.0 824.1,233.4 829.8,231.8 835.5,234.5 841.2,233.8 846.9,232.0 852.6,231.8 858.3,233.9 864.0,232.4" fill="none" stroke="#00C878" stroke-width="1.5" stroke-linejoin="round" stroke-linecap="round"/>
<line x1="16" y1="252" x2="864" y2="252" stroke="#2A3A4A" stroke-width="0.3" />
<text x="16" y="272" text-anchor="start" font-family="Courier New, Courier, monospace" font-size="10" fill="#FFA020" font-weight="bold">QUAL</text>
<text x="72" y="272" text-anchor="start" font-family="Courier New, Courier, monospace" font-size="10" fill="#E8A000" >QUALITY FACTOR</text>
<text x="340" y="272" text-anchor="end" font-family="Courier New, Courier, monospace" font-size="11" fill="#D8E8F0" font-weight="bold">219.24</text>
<text x="420" y="272" text-anchor="end" font-family="Courier New, Courier, monospace" font-size="11" fill="#00C878" >+0.40%</text>
<text x="500" y="272" text-anchor="end" font-family="Courier New, Courier, monospace" font-size="11" fill="#00C878" >+10.50%</text>
<polyline points="516.0,278.9 521.7,279.0 527.4,275.4 533.1,275.8 538.8,277.4 544.5,275.0 550.2,276.8 555.9,274.7 561.6,275.0 567.3,276.8 573.0,277.0 578.8,274.9 584.5,275.0 590.2,276.5 595.9,274.6 601.6,271.0 607.3,271.8 613.0,270.5 618.7,270.3 624.4,270.5 630.1,269.7 635.8,267.8 641.5,270.4 647.2,269.8 652.9,271.7 658.6,268.0 664.3,267.2 670.0,265.0 675.7,263.0 681.4,263.8 687.1,262.9 692.9,263.4 698.6,262.7 704.3,263.0 710.0,263.2 715.7,260.8 721.4,266.7 727.1,265.7 732.8,265.3 738.5,267.8 744.2,262.8 749.9,261.4 755.6,257.7 761.3,259.7 767.0,264.3 772.7,262.3 778.4,262.4 784.1,266.3 789.8,266.1 795.5,266.0 801.2,265.4 807.0,260.4 812.7,257.4 818.4,258.1 824.1,258.8 829.8,258.7 835.5,259.7 841.2,260.9 846.9,258.7 852.6,257.0 858.3,258.5 864.0,257.6" fill="none" stroke="#00C878" stroke-width="1.5" stroke-linejoin="round" stroke-linecap="round"/>
<line x1="16" y1="284" x2="864" y2="284" stroke="#2A3A4A" stroke-width="0.3" />
<line x1="0" y1="284" x2="880" y2="284" stroke="#E8A000" stroke-width="0.4" />
<text x="16" y="297" text-anchor="start" font-family="Courier New, Courier, monospace" font-size="8" fill="#506070" >SRC: YAHOO FINANCE  ·  AUTO-UPDATE 22:00 UTC WEEKDAYS  ·  GITHUB.COM/YANKRUZISKI</text>
<text x="864" y="297" text-anchor="end" font-family="Courier New, Courier, monospace" font-size="8" fill="#506070" >2026-07-14</text>
</svg>