<svg xmlns="http://www.w3.org/2000/svg" width="880" height="302" viewBox="0 0 880 302">
<rect width="880" height="302" fill="#040810"/>
<rect x="0.5" y="0.5" width="879" height="301" fill="none" stroke="#E8A000" stroke-width="0.7" opacity="0.5"/>
<rect x="0" y="0" width="880" height="18" fill="#D87000"/>
<text x="16" y="14" text-anchor="start" font-family="Courier New, Courier, monospace" font-size="9" fill="#030608" font-weight="bold">BLOOMBERG</text>
<text x="88" y="14" text-anchor="start" font-family="Courier New, Courier, monospace" font-size="9" fill="#030608" >QUANT MARKET MONITOR</text>
<text x="440" y="14" text-anchor="middle" font-family="Courier New, Courier, monospace" font-size="9" fill="#030608" >EQUITY  &amp;  VOLATILITY  DASHBOARD</text>
<text x="864" y="14" text-anchor="end" font-family="Courier New, Courier, monospace" font-size="9" fill="#030608" >2026-06-15  22:43 UTC</text>
<line x1="0" y1="38" x2="880" y2="38" stroke="#E8A000" stroke-width="0.8" />
<text x="16" y="33" text-anchor="start" font-family="Courier New, Courier, monospace" font-size="9" fill="#506070" >YAN KRUZISKI  ·  VP OF INTELI RESEARCH  ·  SÃO PAULO, BR</text>
<text x="864" y="33" text-anchor="end" font-family="Courier New, Courier, monospace" font-size="9" fill="#506070" >PAGE 1/1</text>
<rect x="0" y="38" width="880" height="22" fill="#E8A000" opacity="0.14"/>
<text x="16" y="54" text-anchor="start" font-family="Courier New, Courier, monospace" font-size="9" fill="#FFA020" font-weight="bold">TICKER</text>
<text x="72" y="54" text-anchor="start" font-family="Courier New, Courier, monospace" font-size="9" fill="#FFA020" font-weight="bold">DESCRIPTION</text>
<text x="340" y="54" text-anchor="end" font-family="Courier New, Courier, monospace" font-size="9" fill="#FFA020" font-weight="bold">LAST</text>
<text x="420" y="54" text-anchor="end" font-family="Courier New, Courier, monospace" font-size="9" fill="#FFA020" font-weight="bold">%CHG</text>
<text x="500" y="54" text-anchor="end" font-family="Courier New, Courier, monospace" font-size="9" fill="#FFA020" font-weight="bold">YTD%</text>
<text x="690" y="54" text-anchor="middle" font-family="Courier New, Courier, monospace" font-size="9" fill="#FFA020" font-weight="bold">3-MONTH</text>
<line x1="0" y1="60" x2="880" y2="60" stroke="#E8A000" stroke-width="0.9" />
<rect x="0" y="60" width="880" height="32" fill="#E8A000" opacity="0.09"/>
<text x="16" y="80" text-anchor="start" font-family="Courier New, Courier, monospace" font-size="10" fill="#FFA020" font-weight="bold">^VIX</text>
<text x="72" y="80" text-anchor="start" font-family="Courier New, Courier, monospace" font-size="10" fill="#E8A000" font-weight="bold">CBOE VOLATILITY INDEX</text>
<text x="340" y="80" text-anchor="end" font-family="Courier New, Courier, monospace" font-size="11" fill="#D8E8F0" font-weight="bold">16.20</text>
<text x="420" y="80" text-anchor="end" font-family="Courier New, Courier, monospace" font-size="11" fill="#00C878" font-weight="bold">-8.42%</text>
<text x="500" y="80" text-anchor="end" font-family="Courier New, Courier, monospace" font-size="10" fill="#00C878" font-weight="bold">NORMAL</text>
<polyline points="516.0,75.5 521.4,77.1 526.9,73.3 532.3,74.8 537.8,71.0 543.2,71.9 548.6,70.7 554.1,73.0 559.5,70.0 564.9,65.0 570.4,65.6 575.8,73.1 581.2,74.1 586.7,75.0 592.1,74.6 597.6,72.4 603.0,79.0 608.4,81.2 613.9,81.5 619.3,81.7 624.8,82.7 630.2,83.0 635.6,83.3 641.1,84.0 646.5,82.0 651.9,81.2 657.4,82.0 662.8,81.4 668.2,82.3 673.7,83.2 679.1,83.5 684.6,82.1 690.0,84.8 695.4,84.7 700.9,82.8 706.3,84.1 711.8,84.1 717.2,84.5 722.6,84.4 728.1,82.7 733.5,83.3 738.9,83.4 744.4,84.3 749.8,82.7 755.2,83.5 760.7,83.2 766.1,84.0 771.6,85.0 777.0,85.1 782.4,85.2 787.9,84.6 793.3,85.6 798.8,86.4 804.2,87.0 809.6,86.0 815.1,86.4 820.5,86.0 825.9,86.9 831.4,78.3 836.8,82.0 842.2,80.6 847.7,77.3 853.1,81.2 858.6,83.7 864.0,85.8" fill="none" stroke="#00C878" stroke-width="1.5" stroke-linejoin="round" stroke-linecap="round"/>
<line x1="0" y1="92" x2="880" y2="92" stroke="#E8A000" stroke-width="0.5" />
<rect x="0" y="92" width="880" height="32" fill="#FFFFFF" opacity="0.02"/>
<text x="16" y="112" text-anchor="start" font-family="Courier New, Courier, monospace" font-size="10" fill="#FFA020" font-weight="bold">IBOV</text>
<text x="72" y="112" text-anchor="start" font-family="Courier New, Courier, monospace" font-size="10" fill="#E8A000" >IBOVESPA</text>
<text x="340" y="112" text-anchor="end" font-family="Courier New, Courier, monospace" font-size="11" fill="#D8E8F0" font-weight="bold">170,415</text>
<text x="420" y="112" text-anchor="end" font-family="Courier New, Courier, monospace" font-size="11" fill="#FF3C3C" >-0.42%</text>
<text x="500" y="112" text-anchor="end" font-family="Courier New, Courier, monospace" font-size="11" fill="#00C878" >+6.15%</text>
<polyline points="516.0,110.8 521.7,110.4 527.4,110.9 533.1,110.5 538.8,113.4 544.5,109.2 550.2,108.8 555.9,106.7 561.6,108.7 567.3,109.5 573.0,108.8 578.8,105.2 584.5,104.8 590.2,104.8 595.9,104.7 601.6,104.6 607.3,101.7 613.0,99.6 618.7,98.0 624.4,97.5 630.1,97.0 635.8,97.7 641.5,98.3 647.2,99.1 652.9,98.8 658.6,101.2 664.3,102.3 670.0,102.8 675.7,103.6 681.4,104.4 687.1,107.2 692.9,105.3 698.6,106.6 704.3,105.7 710.0,105.0 715.7,108.3 721.4,107.7 727.1,109.3 732.8,110.4 738.5,112.8 744.2,111.9 749.9,112.7 755.6,112.9 761.3,114.9 767.0,112.6 772.7,112.4 778.4,113.4 784.1,112.6 789.8,113.2 795.5,113.8 801.2,114.3 807.0,115.2 812.7,116.4 818.4,114.9 824.1,117.7 829.8,118.7 835.5,119.0 841.2,118.1 846.9,119.0 852.6,116.9 858.3,117.2 864.0,117.7" fill="none" stroke="#FF3C3C" stroke-width="1.5" stroke-linejoin="round" stroke-linecap="round"/>
<line x1="16" y1="124" x2="864" y2="124" stroke="#2A3A4A" stroke-width="0.3" />
<text x="16" y="144" text-anchor="start" font-family="Courier New, Courier, monospace" font-size="10" fill="#FFA020" font-weight="bold">SPY</text>
<text x="72" y="144" text-anchor="start" font-family="Courier New, Courier, monospace" font-size="10" fill="#E8A000" >S&amp;P 500</text>
<text x="340" y="144" text-anchor="end" font-family="Courier New, Courier, monospace" font-size="11" fill="#D8E8F0" font-weight="bold">754.83</text>
<text x="420" y="144" text-anchor="end" font-family="Courier New, Courier, monospace" font-size="11" fill="#00C878" >+1.68%</text>
<text x="500" y="144" text-anchor="end" font-family="Courier New, Courier, monospace" font-size="11" fill="#00C878" >+10.79%</text>
<polyline points="516.0,144.9 521.5,144.6 527.0,146.2 532.6,146.5 538.1,148.1 543.6,147.0 549.1,147.3 554.7,146.7 560.2,148.7 565.7,150.6 571.2,151.0 576.8,147.8 582.3,147.0 587.8,146.9 593.3,146.4 598.9,146.3 604.4,143.4 609.9,142.7 615.4,142.8 621.0,141.7 626.5,140.2 632.0,139.3 637.5,139.0 643.0,137.5 648.6,137.8 654.1,138.6 659.6,137.3 665.1,137.8 670.7,136.9 676.2,136.7 681.7,137.3 687.2,137.3 692.8,136.1 698.3,135.7 703.8,136.2 709.3,135.2 714.9,133.4 720.4,133.8 725.9,132.8 731.4,132.5 737.0,132.7 742.5,132.0 748.0,131.0 753.5,132.5 759.0,132.6 764.6,133.5 770.1,132.2 775.6,131.9 781.1,131.4 786.7,130.5 792.2,130.6 797.7,129.9 803.2,129.5 808.8,129.2 814.3,129.0 819.8,129.9 825.3,129.4 830.9,132.8 836.4,132.5 841.9,132.9 847.4,134.9 853.0,132.8 858.5,132.1 864.0,129.8" fill="none" stroke="#00C878" stroke-width="1.5" stroke-linejoin="round" stroke-linecap="round"/>
<line x1="16" y1="156" x2="864" y2="156" stroke="#2A3A4A" stroke-width="0.3" />
<rect x="0" y="156" width="880" height="32" fill="#FFFFFF" opacity="0.02"/>
<text x="16" y="176" text-anchor="start" font-family="Courier New, Courier, monospace" font-size="10" fill="#FFA020" font-weight="bold">QQQ</text>
<text x="72" y="176" text-anchor="start" font-family="Courier New, Courier, monospace" font-size="10" fill="#E8A000" >NASDAQ 100</text>
<text x="340" y="176" text-anchor="end" font-family="Courier New, Courier, monospace" font-size="11" fill="#D8E8F0" font-weight="bold">744.00</text>
<text x="420" y="176" text-anchor="end" font-family="Courier New, Courier, monospace" font-size="11" fill="#00C878" >+2.91%</text>
<text x="500" y="176" text-anchor="end" font-family="Courier New, Courier, monospace" font-size="11" fill="#00C878" >+21.50%</text>
<polyline points="516.0,178.2 521.5,177.8 527.0,178.8 532.6,179.0 538.1,180.3 543.6,179.5 549.1,180.0 554.7,179.5 560.2,181.2 565.7,182.5 571.2,183.0 576.8,180.8 582.3,180.0 587.8,179.9 593.3,179.5 598.9,179.5 604.4,177.4 609.9,176.9 615.4,176.8 621.0,176.1 626.5,174.8 632.0,173.7 637.5,173.4 643.0,172.4 648.6,172.6 654.1,172.9 659.6,171.7 665.1,172.1 670.7,170.6 676.2,170.6 681.7,171.4 687.2,170.9 692.8,170.2 698.3,169.4 703.8,169.6 709.3,168.6 714.9,166.9 720.4,167.0 725.9,165.1 731.4,164.8 737.0,165.6 742.5,164.7 748.0,164.1 753.5,165.4 759.0,165.7 764.6,166.2 770.1,164.9 775.6,164.7 781.1,164.4 786.7,162.9 792.2,163.0 797.7,162.2 803.2,161.9 808.8,161.4 814.3,161.0 819.8,161.2 825.3,161.6 830.9,165.8 836.4,164.5 841.9,165.5 847.4,167.1 853.0,164.4 858.5,163.9 864.0,161.3" fill="none" stroke="#00C878" stroke-width="1.5" stroke-linejoin="round" stroke-linecap="round"/>
<line x1="16" y1="188" x2="864" y2="188" stroke="#2A3A4A" stroke-width="0.3" />
<text x="16" y="208" text-anchor="start" font-family="Courier New, Courier, monospace" font-size="10" fill="#FFA020" font-weight="bold">QMOM</text>
<text x="72" y="208" text-anchor="start" font-family="Courier New, Courier, monospace" font-size="10" fill="#E8A000" >QUANT MOMENTUM</text>
<text x="340" y="208" text-anchor="end" font-family="Courier New, Courier, monospace" font-size="11" fill="#D8E8F0" font-weight="bold">79.67</text>
<text x="420" y="208" text-anchor="end" font-family="Courier New, Courier, monospace" font-size="11" fill="#00C878" >+0.71%</text>
<text x="500" y="208" text-anchor="end" font-family="Courier New, Courier, monospace" font-size="11" fill="#00C878" >+19.83%</text>
<polyline points="516.0,209.7 521.5,209.0 527.0,210.0 532.6,209.7 538.1,212.8 543.6,210.7 549.1,209.5 554.7,208.2 560.2,211.7 565.7,212.3 571.2,215.0 576.8,210.1 582.3,208.3 587.8,208.5 593.3,208.3 598.9,208.1 604.4,203.8 609.9,203.2 615.4,203.1 621.0,202.2 626.5,201.4 632.0,202.1 637.5,201.9 643.0,199.9 648.6,199.8 654.1,201.0 659.6,200.1 665.1,199.7 670.7,199.7 676.2,200.0 681.7,202.3 687.2,203.3 692.8,199.3 698.3,199.6 703.8,199.4 709.3,198.1 714.9,194.7 720.4,198.5 725.9,196.9 731.4,195.3 737.0,196.2 742.5,195.3 748.0,195.1 753.5,198.6 759.0,200.2 764.6,201.4 770.1,199.3 775.6,198.7 781.1,198.4 786.7,195.4 792.2,196.1 797.7,195.2 803.2,194.6 808.8,194.8 814.3,193.0 819.8,193.4 825.3,193.7 830.9,199.2 836.4,198.5 841.9,199.7 847.4,202.0 853.0,197.6 858.5,196.3 864.0,195.6" fill="none" stroke="#00C878" stroke-width="1.5" stroke-linejoin="round" stroke-linecap="round"/>
<line x1="16" y1="220" x2="864" y2="220" stroke="#2A3A4A" stroke-width="0.3" />
<rect x="0" y="220" width="880" height="32" fill="#FFFFFF" opacity="0.02"/>
<text x="16" y="240" text-anchor="start" font-family="Courier New, Courier, monospace" font-size="10" fill="#FFA020" font-weight="bold">MTUM</text>
<text x="72" y="240" text-anchor="start" font-family="Courier New, Courier, monospace" font-size="10" fill="#E8A000" >MOMENTUM FACTOR</text>
<text x="340" y="240" text-anchor="end" font-family="Courier New, Courier, monospace" font-size="11" fill="#D8E8F0" font-weight="bold">333.63</text>
<text x="420" y="240" text-anchor="end" font-family="Courier New, Courier, monospace" font-size="11" fill="#00C878" >+1.75%</text>
<text x="500" y="240" text-anchor="end" font-family="Courier New, Courier, monospace" font-size="11" fill="#00C878" >+32.13%</text>
<polyline points="516.0,243.6 521.5,243.3 527.0,243.7 532.6,243.6 538.1,244.7 543.6,244.1 549.1,243.8 554.7,243.5 560.2,245.4 565.7,245.9 571.2,247.0 576.8,245.0 582.3,243.9 587.8,243.8 593.3,243.4 598.9,243.0 604.4,240.8 609.9,240.2 615.4,240.0 621.0,239.5 626.5,238.5 632.0,238.6 637.5,238.4 643.0,237.7 648.6,237.8 654.1,238.3 659.6,237.3 665.1,237.4 670.7,236.3 676.2,236.3 681.7,237.3 687.2,237.0 692.8,235.6 698.3,235.4 703.8,235.6 709.3,234.1 714.9,232.4 720.4,233.5 725.9,231.8 731.4,230.8 737.0,231.5 742.5,231.0 748.0,230.6 753.5,232.6 759.0,233.4 764.6,233.8 770.1,232.3 775.6,231.7 781.1,231.4 786.7,229.2 792.2,229.3 797.7,229.1 803.2,228.8 808.8,228.6 814.3,226.6 819.8,225.9 825.3,226.7 830.9,230.8 836.4,229.0 841.9,229.7 847.4,231.1 853.0,228.1 858.5,227.0 864.0,225.0" fill="none" stroke="#00C878" stroke-width="1.5" stroke-linejoin="round" stroke-linecap="round"/>
<line x1="16" y1="252" x2="864" y2="252" stroke="#2A3A4A" stroke-width="0.3" />
<text x="16" y="272" text-anchor="start" font-family="Courier New, Courier, monospace" font-size="10" fill="#FFA020" font-weight="bold">QUAL</text>
<text x="72" y="272" text-anchor="start" font-family="Courier New, Courier, monospace" font-size="10" fill="#E8A000" >QUALITY FACTOR</text>
<text x="340" y="272" text-anchor="end" font-family="Courier New, Courier, monospace" font-size="11" fill="#D8E8F0" font-weight="bold">219.20</text>
<text x="420" y="272" text-anchor="end" font-family="Courier New, Courier, monospace" font-size="11" fill="#00C878" >+0.90%</text>
<text x="500" y="272" text-anchor="end" font-family="Courier New, Courier, monospace" font-size="11" fill="#00C878" >+10.28%</text>
<polyline points="516.0,272.2 521.5,272.0 527.0,273.9 532.6,273.8 538.1,275.4 543.6,274.0 549.1,274.4 554.7,273.9 560.2,276.5 565.7,278.5 571.2,279.0 576.8,275.4 582.3,274.8 587.8,274.5 593.3,273.9 598.9,274.4 604.4,270.6 609.9,269.7 615.4,270.3 621.0,269.1 626.5,267.7 632.0,267.0 637.5,267.0 643.0,265.3 648.6,265.5 654.1,266.2 659.6,265.1 665.1,266.0 670.7,264.9 676.2,265.1 681.7,265.9 687.2,266.0 692.8,265.0 698.3,265.1 703.8,265.8 709.3,264.9 714.9,263.2 720.4,263.6 725.9,262.9 731.4,262.8 737.0,262.9 742.5,262.5 748.0,261.6 753.5,262.9 759.0,262.6 764.6,263.5 770.1,261.7 775.6,261.3 781.1,260.2 786.7,259.3 792.2,259.7 797.7,259.2 803.2,259.5 808.8,259.2 814.3,259.3 819.8,259.4 825.3,258.3 830.9,261.1 836.4,260.6 841.9,260.4 847.4,261.6 853.0,259.2 858.5,258.5 864.0,257.0" fill="none" stroke="#00C878" stroke-width="1.5" stroke-linejoin="round" stroke-linecap="round"/>
<line x1="16" y1="284" x2="864" y2="284" stroke="#2A3A4A" stroke-width="0.3" />
<line x1="0" y1="284" x2="880" y2="284" stroke="#E8A000" stroke-width="0.4" />
<text x="16" y="297" text-anchor="start" font-family="Courier New, Courier, monospace" font-size="8" fill="#506070" >SRC: YAHOO FINANCE  ·  AUTO-UPDATE 22:00 UTC WEEKDAYS  ·  GITHUB.COM/YANKRUZISKI</text>
<text x="864" y="297" text-anchor="end" font-family="Courier New, Courier, monospace" font-size="8" fill="#506070" >2026-06-15</text>
</svg>