<svg xmlns="http://www.w3.org/2000/svg" width="880" height="302" viewBox="0 0 880 302">
<rect width="880" height="302" fill="#040810"/>
<rect x="0.5" y="0.5" width="879" height="301" fill="none" stroke="#E8A000" stroke-width="0.7" opacity="0.5"/>
<rect x="0" y="0" width="880" height="18" fill="#D87000"/>
<text x="16" y="14" text-anchor="start" font-family="Courier New, Courier, monospace" font-size="9" fill="#030608" font-weight="bold">BLOOMBERG</text>
<text x="88" y="14" text-anchor="start" font-family="Courier New, Courier, monospace" font-size="9" fill="#030608" >QUANT MARKET MONITOR</text>
<text x="440" y="14" text-anchor="middle" font-family="Courier New, Courier, monospace" font-size="9" fill="#030608" >EQUITY  &amp;  VOLATILITY  DASHBOARD</text>
<text x="864" y="14" text-anchor="end" font-family="Courier New, Courier, monospace" font-size="9" fill="#030608" >2026-06-30  22:29 UTC</text>
<line x1="0" y1="38" x2="880" y2="38" stroke="#E8A000" stroke-width="0.8" />
<text x="16" y="33" text-anchor="start" font-family="Courier New, Courier, monospace" font-size="9" fill="#506070" >YAN KRUZISKI  ·  VP OF INTELI RESEARCH  ·  SÃO PAULO, BR</text>
<text x="864" y="33" text-anchor="end" font-family="Courier New, Courier, monospace" font-size="9" fill="#506070" >PAGE 1/1</text>
<rect x="0" y="38" width="880" height="22" fill="#E8A000" opacity="0.14"/>
<text x="16" y="54" text-anchor="start" font-family="Courier New, Courier, monospace" font-size="9" fill="#FFA020" font-weight="bold">TICKER</text>
<text x="72" y="54" text-anchor="start" font-family="Courier New, Courier, monospace" font-size="9" fill="#FFA020" font-weight="bold">DESCRIPTION</text>
<text x="340" y="54" text-anchor="end" font-family="Courier New, Courier, monospace" font-size="9" fill="#FFA020" font-weight="bold">LAST</text>
<text x="420" y="54" text-anchor="end" font-family="Courier New, Courier, monospace" font-size="9" fill="#FFA020" font-weight="bold">%CHG</text>
<text x="500" y="54" text-anchor="end" font-family="Courier New, Courier, monospace" font-size="9" fill="#FFA020" font-weight="bold">YTD%</text>
<text x="690" y="54" text-anchor="middle" font-family="Courier New, Courier, monospace" font-size="9" fill="#FFA020" font-weight="bold">3-MONTH</text>
<line x1="0" y1="60" x2="880" y2="60" stroke="#E8A000" stroke-width="0.9" />
<rect x="0" y="60" width="880" height="32" fill="#E8A000" opacity="0.09"/>
<text x="16" y="80" text-anchor="start" font-family="Courier New, Courier, monospace" font-size="10" fill="#FFA020" font-weight="bold">^VIX</text>
<text x="72" y="80" text-anchor="start" font-family="Courier New, Courier, monospace" font-size="10" fill="#E8A000" font-weight="bold">CBOE VOLATILITY INDEX</text>
<text x="340" y="80" text-anchor="end" font-family="Courier New, Courier, monospace" font-size="11" fill="#D8E8F0" font-weight="bold">16.45</text>
<text x="420" y="80" text-anchor="end" font-family="Courier New, Courier, monospace" font-size="11" fill="#00C878" font-weight="bold">-6.80%</text>
<text x="500" y="80" text-anchor="end" font-family="Courier New, Courier, monospace" font-size="10" fill="#00C878" font-weight="bold">NORMAL</text>
<polyline points="516.0,65.0 521.4,72.7 526.9,73.7 532.3,74.7 537.8,74.3 543.2,71.9 548.6,78.8 554.1,81.0 559.5,81.4 564.9,81.5 570.4,82.6 575.8,82.9 581.2,83.2 586.7,83.9 592.1,81.9 597.6,81.0 603.0,81.8 608.4,81.3 613.9,82.1 619.3,83.1 624.8,83.4 630.2,82.0 635.6,84.7 641.1,84.6 646.5,82.7 651.9,84.0 657.4,84.0 662.8,84.5 668.2,84.3 673.7,82.6 679.1,83.2 684.6,83.3 690.0,84.2 695.4,82.5 700.9,83.4 706.3,83.1 711.8,83.9 717.2,84.9 722.6,85.0 728.1,85.2 733.5,84.6 738.9,85.6 744.4,86.4 749.8,87.0 755.2,85.9 760.7,86.4 766.1,85.9 771.6,86.9 777.0,78.1 782.4,81.8 787.9,80.5 793.3,77.1 798.8,81.1 804.2,83.6 809.6,85.7 815.1,85.4 820.5,82.5 825.9,85.4 831.4,84.2 836.8,81.0 842.2,82.2 847.7,81.9 853.1,82.6 858.6,83.6 864.0,85.4" fill="none" stroke="#00C878" stroke-width="1.5" stroke-linejoin="round" stroke-linecap="round"/>
<line x1="0" y1="92" x2="880" y2="92" stroke="#E8A000" stroke-width="0.5" />
<rect x="0" y="92" width="880" height="32" fill="#FFFFFF" opacity="0.02"/>
<text x="16" y="112" text-anchor="start" font-family="Courier New, Courier, monospace" font-size="10" fill="#FFA020" font-weight="bold">IBOV</text>
<text x="72" y="112" text-anchor="start" font-family="Courier New, Courier, monospace" font-size="10" fill="#E8A000" >IBOVESPA</text>
<text x="340" y="112" text-anchor="end" font-family="Courier New, Courier, monospace" font-size="11" fill="#D8E8F0" font-weight="bold">172,024</text>
<text x="420" y="112" text-anchor="end" font-family="Courier New, Courier, monospace" font-size="11" fill="#FF3C3C" >-0.68%</text>
<text x="500" y="112" text-anchor="end" font-family="Courier New, Courier, monospace" font-size="11" fill="#00C878" >+7.15%</text>
<polyline points="516.0,108.7 521.6,105.1 527.2,104.8 532.8,104.7 538.5,104.6 544.1,104.5 549.7,101.7 555.3,99.6 560.9,98.0 566.5,97.5 572.1,97.0 577.7,97.7 583.4,98.3 589.0,99.1 594.6,98.8 600.2,101.2 605.8,102.3 611.4,102.7 617.0,103.6 622.6,104.3 628.3,107.1 633.9,105.2 639.5,106.5 645.1,105.6 650.7,104.9 656.3,108.2 661.9,107.5 667.5,109.1 673.2,110.3 678.8,112.6 684.4,111.7 690.0,112.5 695.6,112.7 701.2,114.7 706.8,112.4 712.5,112.2 718.1,113.3 723.7,112.4 729.3,113.0 734.9,113.6 740.5,114.1 746.1,115.0 751.7,116.2 757.4,114.7 763.0,117.5 768.6,118.5 774.2,118.7 779.8,117.9 785.4,118.8 791.0,116.7 796.6,116.9 802.3,117.5 807.9,118.0 813.5,118.9 819.1,119.0 824.7,118.8 830.3,117.5 835.9,116.8 841.5,117.4 847.2,116.3 852.8,115.4 858.4,115.4 864.0,116.3" fill="none" stroke="#FF3C3C" stroke-width="1.5" stroke-linejoin="round" stroke-linecap="round"/>
<line x1="16" y1="124" x2="864" y2="124" stroke="#2A3A4A" stroke-width="0.3" />
<text x="16" y="144" text-anchor="start" font-family="Courier New, Courier, monospace" font-size="10" fill="#FFA020" font-weight="bold">SPY</text>
<text x="72" y="144" text-anchor="start" font-family="Courier New, Courier, monospace" font-size="10" fill="#E8A000" >S&amp;P 500</text>
<text x="340" y="144" text-anchor="end" font-family="Courier New, Courier, monospace" font-size="11" fill="#D8E8F0" font-weight="bold">746.77</text>
<text x="420" y="144" text-anchor="end" font-family="Courier New, Courier, monospace" font-size="11" fill="#00C878" >+0.81%</text>
<text x="500" y="144" text-anchor="end" font-family="Courier New, Courier, monospace" font-size="11" fill="#00C878" >+9.89%</text>
<polyline points="516.0,151.0 521.7,150.9 527.4,150.2 533.1,150.2 538.8,146.6 544.5,145.8 550.2,145.9 555.9,144.5 561.6,142.7 567.3,141.6 573.0,141.2 578.8,139.4 584.5,139.7 590.2,140.7 595.9,139.2 601.6,139.8 607.3,138.6 613.0,138.4 618.7,139.1 624.4,139.1 630.1,137.6 635.8,137.2 641.5,137.8 647.2,136.5 652.9,134.4 658.6,134.9 664.3,133.6 670.0,133.3 675.7,133.5 681.4,132.6 687.1,131.4 692.9,133.3 698.6,133.4 704.3,134.4 710.0,132.9 715.7,132.6 721.4,131.9 727.1,130.9 732.8,130.9 738.5,130.0 744.2,129.7 749.9,129.2 755.6,129.0 761.3,130.1 767.0,129.5 772.7,133.6 778.4,133.3 784.1,133.7 789.8,136.2 795.5,133.6 801.2,132.8 807.0,130.0 812.7,130.9 818.4,132.9 824.1,131.3 829.8,131.8 835.5,134.1 841.2,134.2 846.9,133.9 852.6,135.1 858.3,132.5 864.0,131.3" fill="none" stroke="#00C878" stroke-width="1.5" stroke-linejoin="round" stroke-linecap="round"/>
<line x1="16" y1="156" x2="864" y2="156" stroke="#2A3A4A" stroke-width="0.3" />
<rect x="0" y="156" width="880" height="32" fill="#FFFFFF" opacity="0.02"/>
<text x="16" y="176" text-anchor="start" font-family="Courier New, Courier, monospace" font-size="10" fill="#FFA020" font-weight="bold">QQQ</text>
<text x="72" y="176" text-anchor="start" font-family="Courier New, Courier, monospace" font-size="10" fill="#E8A000" >NASDAQ 100</text>
<text x="340" y="176" text-anchor="end" font-family="Courier New, Courier, monospace" font-size="11" fill="#D8E8F0" font-weight="bold">736.40</text>
<text x="420" y="176" text-anchor="end" font-family="Courier New, Courier, monospace" font-size="11" fill="#00C878" >+1.71%</text>
<text x="500" y="176" text-anchor="end" font-family="Courier New, Courier, monospace" font-size="11" fill="#00C878" >+20.39%</text>
<polyline points="516.0,183.0 521.7,182.9 527.4,182.4 533.1,182.4 538.8,180.0 544.5,179.5 550.2,179.4 555.9,178.5 561.6,177.0 567.3,175.8 573.0,175.4 578.8,174.2 584.5,174.5 590.2,174.8 595.9,173.4 601.6,173.9 607.3,172.2 613.0,172.1 618.7,173.0 624.4,172.5 630.1,171.7 635.8,170.8 641.5,171.0 647.2,169.8 652.9,167.8 658.6,168.0 664.3,165.7 670.0,165.5 675.7,166.3 681.4,165.3 687.1,164.6 692.9,166.1 698.6,166.5 704.3,167.1 710.0,165.5 715.7,165.3 721.4,164.9 727.1,163.2 732.8,163.3 738.5,162.4 744.2,162.1 749.9,161.5 755.6,161.0 761.3,161.3 767.0,161.8 772.7,166.6 778.4,165.1 784.1,166.2 789.8,168.1 795.5,164.9 801.2,164.4 807.0,161.3 812.7,163.2 818.4,164.2 824.1,161.8 829.8,162.0 835.5,165.3 841.2,165.7 846.9,164.9 852.6,166.3 858.3,163.9 864.0,162.2" fill="none" stroke="#00C878" stroke-width="1.5" stroke-linejoin="round" stroke-linecap="round"/>
<line x1="16" y1="188" x2="864" y2="188" stroke="#2A3A4A" stroke-width="0.3" />
<text x="16" y="208" text-anchor="start" font-family="Courier New, Courier, monospace" font-size="10" fill="#FFA020" font-weight="bold">QMOM</text>
<text x="72" y="208" text-anchor="start" font-family="Courier New, Courier, monospace" font-size="10" fill="#E8A000" >QUANT MOMENTUM</text>
<text x="340" y="208" text-anchor="end" font-family="Courier New, Courier, monospace" font-size="11" fill="#D8E8F0" font-weight="bold">78.73</text>
<text x="420" y="208" text-anchor="end" font-family="Courier New, Courier, monospace" font-size="11" fill="#00C878" >+2.73%</text>
<text x="500" y="208" text-anchor="end" font-family="Courier New, Courier, monospace" font-size="11" fill="#00C878" >+18.41%</text>
<polyline points="516.0,214.7 521.7,215.0 527.4,214.6 533.1,214.5 538.8,208.3 544.5,207.5 550.2,207.3 555.9,206.0 561.6,204.9 567.3,206.0 573.0,205.6 578.8,202.8 584.5,202.7 590.2,204.4 595.9,203.1 601.6,202.6 607.3,202.5 613.0,203.0 618.7,206.3 624.4,207.6 630.1,202.0 635.8,202.4 641.5,202.0 647.2,200.2 652.9,195.4 658.6,200.8 664.3,198.5 670.0,196.2 675.7,197.5 681.4,196.3 687.1,196.0 692.9,200.9 698.6,203.2 704.3,204.9 710.0,202.0 715.7,201.1 721.4,200.6 727.1,196.4 732.8,197.4 738.5,196.1 744.2,195.3 749.9,195.6 755.6,193.0 761.3,193.5 767.0,194.0 772.7,201.8 778.4,200.8 784.1,202.5 789.8,205.8 795.5,199.5 801.2,197.7 807.0,196.7 812.7,198.2 818.4,199.1 824.1,198.2 829.8,195.4 835.5,199.3 841.2,200.6 846.9,198.2 852.6,201.6 858.3,199.5 864.0,198.4" fill="none" stroke="#00C878" stroke-width="1.5" stroke-linejoin="round" stroke-linecap="round"/>
<line x1="16" y1="220" x2="864" y2="220" stroke="#2A3A4A" stroke-width="0.3" />
<rect x="0" y="220" width="880" height="32" fill="#FFFFFF" opacity="0.02"/>
<text x="16" y="240" text-anchor="start" font-family="Courier New, Courier, monospace" font-size="10" fill="#FFA020" font-weight="bold">MTUM</text>
<text x="72" y="240" text-anchor="start" font-family="Courier New, Courier, monospace" font-size="10" fill="#E8A000" >MOMENTUM FACTOR</text>
<text x="340" y="240" text-anchor="end" font-family="Courier New, Courier, monospace" font-size="11" fill="#D8E8F0" font-weight="bold">342.83</text>
<text x="420" y="240" text-anchor="end" font-family="Courier New, Courier, monospace" font-size="11" fill="#00C878" >+1.88%</text>
<text x="500" y="240" text-anchor="end" font-family="Courier New, Courier, monospace" font-size="11" fill="#00C878" >+35.92%</text>
<polyline points="516.0,247.0 521.7,246.9 527.4,246.5 533.1,246.1 538.8,243.8 544.5,243.2 550.2,243.0 555.9,242.4 561.6,241.5 567.3,241.6 573.0,241.4 578.8,240.6 584.5,240.8 590.2,241.2 595.9,240.3 601.6,240.3 607.3,239.2 613.0,239.2 618.7,240.2 624.4,239.9 630.1,238.5 635.8,238.3 641.5,238.4 647.2,236.9 652.9,235.2 658.6,236.3 664.3,234.6 670.0,233.5 675.7,234.3 681.4,233.8 687.1,233.4 692.9,235.4 698.6,236.2 704.3,236.6 710.0,235.1 715.7,234.5 721.4,234.2 727.1,231.9 732.8,232.1 738.5,231.8 744.2,231.5 749.9,231.3 755.6,229.3 761.3,228.5 767.0,229.3 772.7,233.6 778.4,231.7 784.1,232.4 789.8,233.9 795.5,230.8 801.2,229.6 807.0,227.5 812.7,229.2 818.4,228.7 824.1,226.5 829.8,225.0 835.5,228.4 841.2,228.7 846.9,226.3 852.6,229.3 858.3,227.0 864.0,225.5" fill="none" stroke="#00C878" stroke-width="1.5" stroke-linejoin="round" stroke-linecap="round"/>
<line x1="16" y1="252" x2="864" y2="252" stroke="#2A3A4A" stroke-width="0.3" />
<text x="16" y="272" text-anchor="start" font-family="Courier New, Courier, monospace" font-size="10" fill="#FFA020" font-weight="bold">QUAL</text>
<text x="72" y="272" text-anchor="start" font-family="Courier New, Courier, monospace" font-size="10" fill="#E8A000" >QUALITY FACTOR</text>
<text x="340" y="272" text-anchor="end" font-family="Courier New, Courier, monospace" font-size="11" fill="#D8E8F0" font-weight="bold">219.43</text>
<text x="420" y="272" text-anchor="end" font-family="Courier New, Courier, monospace" font-size="11" fill="#00C878" >+0.82%</text>
<text x="500" y="272" text-anchor="end" font-family="Courier New, Courier, monospace" font-size="11" fill="#00C878" >+10.59%</text>
<polyline points="516.0,279.0 521.7,278.7 527.4,278.0 533.1,278.5 538.8,273.9 544.5,272.9 550.2,273.6 555.9,272.1 561.6,270.5 567.3,269.6 573.0,269.6 578.8,267.5 584.5,267.8 590.2,268.7 595.9,267.3 601.6,268.3 607.3,267.1 613.0,267.3 618.7,268.3 624.4,268.4 630.1,267.2 635.8,267.3 641.5,268.2 647.2,267.0 652.9,265.0 658.6,265.4 664.3,264.6 670.0,264.5 675.7,264.7 681.4,264.2 687.1,263.1 692.9,264.6 698.6,264.2 704.3,265.3 710.0,263.2 715.7,262.8 721.4,261.4 727.1,260.3 732.8,260.7 738.5,260.2 744.2,260.5 749.9,260.1 755.6,260.3 761.3,260.4 767.0,259.0 772.7,262.4 778.4,261.9 784.1,261.6 789.8,263.1 795.5,260.2 801.2,259.4 807.0,257.2 812.7,258.4 818.4,261.1 824.1,259.9 829.8,259.9 835.5,262.2 841.2,262.1 846.9,262.0 852.6,261.7 858.3,258.7 864.0,257.0" fill="none" stroke="#00C878" stroke-width="1.5" stroke-linejoin="round" stroke-linecap="round"/>
<line x1="16" y1="284" x2="864" y2="284" stroke="#2A3A4A" stroke-width="0.3" />
<line x1="0" y1="284" x2="880" y2="284" stroke="#E8A000" stroke-width="0.4" />
<text x="16" y="297" text-anchor="start" font-family="Courier New, Courier, monospace" font-size="8" fill="#506070" >SRC: YAHOO FINANCE  ·  AUTO-UPDATE 22:00 UTC WEEKDAYS  ·  GITHUB.COM/YANKRUZISKI</text>
<text x="864" y="297" text-anchor="end" font-family="Courier New, Courier, monospace" font-size="8" fill="#506070" >2026-06-30</text>
</svg>