<svg xmlns="http://www.w3.org/2000/svg" width="880" height="302" viewBox="0 0 880 302">
<rect width="880" height="302" fill="#040810"/>
<rect x="0.5" y="0.5" width="879" height="301" fill="none" stroke="#E8A000" stroke-width="0.7" opacity="0.5"/>
<rect x="0" y="0" width="880" height="18" fill="#D87000"/>
<text x="16" y="14" text-anchor="start" font-family="Courier New, Courier, monospace" font-size="9" fill="#030608" font-weight="bold">BLOOMBERG</text>
<text x="88" y="14" text-anchor="start" font-family="Courier New, Courier, monospace" font-size="9" fill="#030608" >QUANT MARKET MONITOR</text>
<text x="440" y="14" text-anchor="middle" font-family="Courier New, Courier, monospace" font-size="9" fill="#030608" >EQUITY  &amp;  VOLATILITY  DASHBOARD</text>
<text x="864" y="14" text-anchor="end" font-family="Courier New, Courier, monospace" font-size="9" fill="#030608" >2026-06-25  22:33 UTC</text>
<line x1="0" y1="38" x2="880" y2="38" stroke="#E8A000" stroke-width="0.8" />
<text x="16" y="33" text-anchor="start" font-family="Courier New, Courier, monospace" font-size="9" fill="#506070" >YAN KRUZISKI  ·  VP OF INTELI RESEARCH  ·  SÃO PAULO, BR</text>
<text x="864" y="33" text-anchor="end" font-family="Courier New, Courier, monospace" font-size="9" fill="#506070" >PAGE 1/1</text>
<rect x="0" y="38" width="880" height="22" fill="#E8A000" opacity="0.14"/>
<text x="16" y="54" text-anchor="start" font-family="Courier New, Courier, monospace" font-size="9" fill="#FFA020" font-weight="bold">TICKER</text>
<text x="72" y="54" text-anchor="start" font-family="Courier New, Courier, monospace" font-size="9" fill="#FFA020" font-weight="bold">DESCRIPTION</text>
<text x="340" y="54" text-anchor="end" font-family="Courier New, Courier, monospace" font-size="9" fill="#FFA020" font-weight="bold">LAST</text>
<text x="420" y="54" text-anchor="end" font-family="Courier New, Courier, monospace" font-size="9" fill="#FFA020" font-weight="bold">%CHG</text>
<text x="500" y="54" text-anchor="end" font-family="Courier New, Courier, monospace" font-size="9" fill="#FFA020" font-weight="bold">YTD%</text>
<text x="690" y="54" text-anchor="middle" font-family="Courier New, Courier, monospace" font-size="9" fill="#FFA020" font-weight="bold">3-MONTH</text>
<line x1="0" y1="60" x2="880" y2="60" stroke="#E8A000" stroke-width="0.9" />
<rect x="0" y="60" width="880" height="32" fill="#E8A000" opacity="0.09"/>
<text x="16" y="80" text-anchor="start" font-family="Courier New, Courier, monospace" font-size="10" fill="#FFA020" font-weight="bold">^VIX</text>
<text x="72" y="80" text-anchor="start" font-family="Courier New, Courier, monospace" font-size="10" fill="#E8A000" font-weight="bold">CBOE VOLATILITY INDEX</text>
<text x="340" y="80" text-anchor="end" font-family="Courier New, Courier, monospace" font-size="11" fill="#D8E8F0" font-weight="bold">18.89</text>
<text x="420" y="80" text-anchor="end" font-family="Courier New, Courier, monospace" font-size="11" fill="#FF3C3C" font-weight="bold">+1.29%</text>
<text x="500" y="80" text-anchor="end" font-family="Courier New, Courier, monospace" font-size="10" fill="#FF3C3C" font-weight="bold">NORMAL</text>
<polyline points="516.0,73.0 521.4,70.0 526.9,65.0 532.3,65.6 537.8,73.1 543.2,74.1 548.6,75.0 554.1,74.6 559.5,72.4 564.9,79.0 570.4,81.2 575.8,81.5 581.2,81.7 586.7,82.7 592.1,83.0 597.6,83.3 603.0,84.0 608.4,82.0 613.9,81.2 619.3,82.0 624.8,81.4 630.2,82.3 635.6,83.2 641.1,83.5 646.5,82.1 651.9,84.8 657.4,84.7 662.8,82.8 668.2,84.1 673.7,84.1 679.1,84.5 684.6,84.4 690.0,82.7 695.4,83.3 700.9,83.4 706.3,84.3 711.8,82.7 717.2,83.5 722.6,83.2 728.1,84.0 733.5,85.0 738.9,85.1 744.4,85.2 749.8,84.6 755.2,85.6 760.7,86.4 766.1,87.0 771.6,86.0 777.0,86.4 782.4,86.0 787.9,86.9 793.3,78.3 798.8,82.0 804.2,80.6 809.6,77.3 815.1,81.2 820.5,83.7 825.9,85.8 831.4,85.5 836.8,82.6 842.2,85.5 847.7,84.3 853.1,81.2 858.6,82.4 864.0,82.0" fill="none" stroke="#FF3C3C" stroke-width="1.5" stroke-linejoin="round" stroke-linecap="round"/>
<line x1="0" y1="92" x2="880" y2="92" stroke="#E8A000" stroke-width="0.5" />
<rect x="0" y="92" width="880" height="32" fill="#FFFFFF" opacity="0.02"/>
<text x="16" y="112" text-anchor="start" font-family="Courier New, Courier, monospace" font-size="10" fill="#FFA020" font-weight="bold">IBOV</text>
<text x="72" y="112" text-anchor="start" font-family="Courier New, Courier, monospace" font-size="10" fill="#E8A000" >IBOVESPA</text>
<text x="340" y="112" text-anchor="end" font-family="Courier New, Courier, monospace" font-size="11" fill="#D8E8F0" font-weight="bold">171,990</text>
<text x="420" y="112" text-anchor="end" font-family="Courier New, Courier, monospace" font-size="11" fill="#00C878" >+0.87%</text>
<text x="500" y="112" text-anchor="end" font-family="Courier New, Courier, monospace" font-size="11" fill="#00C878" >+7.13%</text>
<polyline points="516.0,106.6 521.6,108.5 527.2,109.4 532.8,108.7 538.5,105.1 544.1,104.8 549.7,104.7 555.3,104.6 560.9,104.5 566.5,101.7 572.1,99.6 577.7,98.0 583.4,97.5 589.0,97.0 594.6,97.7 600.2,98.3 605.8,99.1 611.4,98.8 617.0,101.2 622.6,102.3 628.3,102.7 633.9,103.6 639.5,104.3 645.1,107.1 650.7,105.2 656.3,106.5 661.9,105.6 667.5,104.9 673.2,108.2 678.8,107.5 684.4,109.1 690.0,110.3 695.6,112.6 701.2,111.7 706.8,112.5 712.5,112.7 718.1,114.7 723.7,112.4 729.3,112.2 734.9,113.3 740.5,112.4 746.1,113.0 751.7,113.6 757.4,114.1 763.0,115.0 768.6,116.2 774.2,114.7 779.8,117.5 785.4,118.5 791.0,118.7 796.6,117.9 802.3,118.8 807.9,116.7 813.5,116.9 819.1,117.5 824.7,118.0 830.3,118.9 835.9,119.0 841.5,118.8 847.2,117.5 852.8,116.8 858.4,117.4 864.0,116.3" fill="none" stroke="#00C878" stroke-width="1.5" stroke-linejoin="round" stroke-linecap="round"/>
<line x1="16" y1="124" x2="864" y2="124" stroke="#2A3A4A" stroke-width="0.3" />
<text x="16" y="144" text-anchor="start" font-family="Courier New, Courier, monospace" font-size="10" fill="#FFA020" font-weight="bold">SPY</text>
<text x="72" y="144" text-anchor="start" font-family="Courier New, Courier, monospace" font-size="10" fill="#E8A000" >S&amp;P 500</text>
<text x="340" y="144" text-anchor="end" font-family="Courier New, Courier, monospace" font-size="11" fill="#D8E8F0" font-weight="bold">734.30</text>
<text x="420" y="144" text-anchor="end" font-family="Courier New, Courier, monospace" font-size="11" fill="#FF3C3C" >-0.40%</text>
<text x="500" y="144" text-anchor="end" font-family="Courier New, Courier, monospace" font-size="11" fill="#00C878" >+8.06%</text>
<polyline points="516.0,148.7 521.6,150.6 527.2,151.0 532.8,147.8 538.5,147.0 544.1,146.9 549.7,146.4 555.3,146.3 560.9,143.4 566.5,142.7 572.1,142.8 577.7,141.7 583.4,140.2 589.0,139.3 594.6,139.0 600.2,137.5 605.8,137.8 611.4,138.6 617.0,137.3 622.6,137.8 628.3,136.9 633.9,136.7 639.5,137.3 645.1,137.3 650.7,136.1 656.3,135.7 661.9,136.2 667.5,135.2 673.2,133.4 678.8,133.8 684.4,132.8 690.0,132.5 695.6,132.7 701.2,132.0 706.8,131.0 712.5,132.5 718.1,132.6 723.7,133.5 729.3,132.2 734.9,131.9 740.5,131.4 746.1,130.5 751.7,130.6 757.4,129.9 763.0,129.5 768.6,129.2 774.2,129.0 779.8,129.9 785.4,129.4 791.0,132.8 796.6,132.5 802.3,132.9 807.9,134.9 813.5,132.8 819.1,132.1 824.7,129.8 830.3,130.6 835.9,132.2 841.5,130.9 847.2,131.3 852.8,133.2 858.4,133.2 864.0,133.0" fill="none" stroke="#FF3C3C" stroke-width="1.5" stroke-linejoin="round" stroke-linecap="round"/>
<line x1="16" y1="156" x2="864" y2="156" stroke="#2A3A4A" stroke-width="0.3" />
<rect x="0" y="156" width="880" height="32" fill="#FFFFFF" opacity="0.02"/>
<text x="16" y="176" text-anchor="start" font-family="Courier New, Courier, monospace" font-size="10" fill="#FFA020" font-weight="bold">QQQ</text>
<text x="72" y="176" text-anchor="start" font-family="Courier New, Courier, monospace" font-size="10" fill="#E8A000" >NASDAQ 100</text>
<text x="340" y="176" text-anchor="end" font-family="Courier New, Courier, monospace" font-size="11" fill="#D8E8F0" font-weight="bold">716.38</text>
<text x="420" y="176" text-anchor="end" font-family="Courier New, Courier, monospace" font-size="11" fill="#FF3C3C" >-1.13%</text>
<text x="500" y="176" text-anchor="end" font-family="Courier New, Courier, monospace" font-size="11" fill="#00C878" >+17.12%</text>
<polyline points="516.0,181.2 521.6,182.5 527.2,183.0 532.8,180.8 538.5,180.0 544.1,179.9 549.7,179.5 555.3,179.5 560.9,177.4 566.5,176.9 572.1,176.8 577.7,176.1 583.4,174.8 589.0,173.7 594.6,173.4 600.2,172.4 605.8,172.6 611.4,172.9 617.0,171.7 622.6,172.1 628.3,170.6 633.9,170.6 639.5,171.4 645.1,170.9 650.7,170.2 656.3,169.4 661.9,169.6 667.5,168.6 673.2,166.9 678.8,167.0 684.4,165.1 690.0,164.8 695.6,165.6 701.2,164.7 706.8,164.1 712.5,165.4 718.1,165.7 723.7,166.2 729.3,164.9 734.9,164.7 740.5,164.4 746.1,162.9 751.7,163.0 757.4,162.2 763.0,161.9 768.6,161.4 774.2,161.0 779.8,161.2 785.4,161.6 791.0,165.8 796.6,164.5 802.3,165.5 807.9,167.1 813.5,164.4 819.1,163.9 824.7,161.3 830.3,162.9 835.9,163.8 841.5,161.6 847.2,161.9 852.8,164.7 858.4,165.1 864.0,164.4" fill="none" stroke="#FF3C3C" stroke-width="1.5" stroke-linejoin="round" stroke-linecap="round"/>
<line x1="16" y1="188" x2="864" y2="188" stroke="#2A3A4A" stroke-width="0.3" />
<text x="16" y="208" text-anchor="start" font-family="Courier New, Courier, monospace" font-size="10" fill="#FFA020" font-weight="bold">QMOM</text>
<text x="72" y="208" text-anchor="start" font-family="Courier New, Courier, monospace" font-size="10" fill="#E8A000" >QUANT MOMENTUM</text>
<text x="340" y="208" text-anchor="end" font-family="Courier New, Courier, monospace" font-size="11" fill="#D8E8F0" font-weight="bold">78.82</text>
<text x="420" y="208" text-anchor="end" font-family="Courier New, Courier, monospace" font-size="11" fill="#00C878" >+1.73%</text>
<text x="500" y="208" text-anchor="end" font-family="Courier New, Courier, monospace" font-size="11" fill="#00C878" >+18.55%</text>
<polyline points="516.0,211.7 521.6,212.3 527.2,215.0 532.8,210.1 538.5,208.3 544.1,208.5 549.7,208.3 555.3,208.1 560.9,203.8 566.5,203.2 572.1,203.1 577.7,202.2 583.4,201.4 589.0,202.1 594.6,201.9 600.2,199.9 605.8,199.8 611.4,201.0 617.0,200.1 622.6,199.7 628.3,199.7 633.9,200.0 639.5,202.3 645.1,203.3 650.7,199.3 656.3,199.6 661.9,199.4 667.5,198.1 673.2,194.7 678.8,198.5 684.4,196.9 690.0,195.3 695.6,196.2 701.2,195.3 706.8,195.1 712.5,198.6 718.1,200.2 723.7,201.4 729.3,199.3 734.9,198.7 740.5,198.4 746.1,195.4 751.7,196.1 757.4,195.2 763.0,194.6 768.6,194.8 774.2,193.0 779.8,193.4 785.4,193.7 791.0,199.2 796.6,198.5 802.3,199.7 807.9,202.0 813.5,197.6 819.1,196.3 824.7,195.6 830.3,196.7 835.9,197.3 841.5,196.7 847.2,194.7 852.8,197.5 858.4,198.4 864.0,196.7" fill="none" stroke="#00C878" stroke-width="1.5" stroke-linejoin="round" stroke-linecap="round"/>
<line x1="16" y1="220" x2="864" y2="220" stroke="#2A3A4A" stroke-width="0.3" />
<rect x="0" y="220" width="880" height="32" fill="#FFFFFF" opacity="0.02"/>
<text x="16" y="240" text-anchor="start" font-family="Courier New, Courier, monospace" font-size="10" fill="#FFA020" font-weight="bold">MTUM</text>
<text x="72" y="240" text-anchor="start" font-family="Courier New, Courier, monospace" font-size="10" fill="#E8A000" >MOMENTUM FACTOR</text>
<text x="340" y="240" text-anchor="end" font-family="Courier New, Courier, monospace" font-size="11" fill="#D8E8F0" font-weight="bold">339.30</text>
<text x="420" y="240" text-anchor="end" font-family="Courier New, Courier, monospace" font-size="11" fill="#00C878" >+0.10%</text>
<text x="500" y="240" text-anchor="end" font-family="Courier New, Courier, monospace" font-size="11" fill="#00C878" >+34.52%</text>
<polyline points="516.0,245.6 521.6,246.0 527.2,247.0 532.8,245.2 538.5,244.2 544.1,244.1 549.7,243.8 555.3,243.5 560.9,241.5 566.5,240.9 572.1,240.7 577.7,240.2 583.4,239.4 589.0,239.5 594.6,239.3 600.2,238.6 605.8,238.8 611.4,239.2 617.0,238.3 622.6,238.4 628.3,237.4 633.9,237.4 639.5,238.3 645.1,238.0 650.7,236.8 656.3,236.6 661.9,236.7 667.5,235.4 673.2,233.9 678.8,234.9 684.4,233.4 690.0,232.5 695.6,233.1 701.2,232.7 706.8,232.3 712.5,234.1 718.1,234.8 723.7,235.2 729.3,233.8 734.9,233.3 740.5,233.0 746.1,231.0 751.7,231.2 757.4,230.9 763.0,230.7 768.6,230.5 774.2,228.7 779.8,228.1 785.4,228.8 791.0,232.5 796.6,230.8 802.3,231.5 807.9,232.8 813.5,230.1 819.1,229.1 824.7,227.2 830.3,228.7 835.9,228.3 841.5,226.3 847.2,225.0 852.8,228.0 858.4,228.2 864.0,226.1" fill="none" stroke="#00C878" stroke-width="1.5" stroke-linejoin="round" stroke-linecap="round"/>
<line x1="16" y1="252" x2="864" y2="252" stroke="#2A3A4A" stroke-width="0.3" />
<text x="16" y="272" text-anchor="start" font-family="Courier New, Courier, monospace" font-size="10" fill="#FFA020" font-weight="bold">QUAL</text>
<text x="72" y="272" text-anchor="start" font-family="Courier New, Courier, monospace" font-size="10" fill="#E8A000" >QUALITY FACTOR</text>
<text x="340" y="272" text-anchor="end" font-family="Courier New, Courier, monospace" font-size="11" fill="#D8E8F0" font-weight="bold">213.25</text>
<text x="420" y="272" text-anchor="end" font-family="Courier New, Courier, monospace" font-size="11" fill="#FF3C3C" >-0.77%</text>
<text x="500" y="272" text-anchor="end" font-family="Courier New, Courier, monospace" font-size="11" fill="#00C878" >+7.48%</text>
<polyline points="516.0,276.6 521.6,278.5 527.2,279.0 532.8,275.5 538.5,274.8 544.1,274.6 549.7,274.0 555.3,274.4 560.9,270.7 566.5,269.9 572.1,270.4 577.7,269.2 583.4,267.8 589.0,267.1 594.6,267.1 600.2,265.4 605.8,265.6 611.4,266.4 617.0,265.3 622.6,266.1 628.3,265.1 633.9,265.2 639.5,266.1 645.1,266.2 650.7,265.2 656.3,265.3 661.9,266.0 667.5,265.0 673.2,263.3 678.8,263.7 684.4,263.1 690.0,263.0 695.6,263.1 701.2,262.7 706.8,261.8 712.5,263.1 718.1,262.8 723.7,263.7 729.3,261.9 734.9,261.6 740.5,260.5 746.1,259.5 751.7,259.9 757.4,259.5 763.0,259.7 768.6,259.4 774.2,259.5 779.8,259.6 785.4,258.5 791.0,261.3 796.6,260.8 802.3,260.6 807.9,261.8 813.5,259.5 819.1,258.8 824.7,257.0 830.3,258.0 835.9,260.2 841.5,259.2 847.2,259.2 852.8,261.1 858.4,261.0 864.0,261.0" fill="none" stroke="#FF3C3C" stroke-width="1.5" stroke-linejoin="round" stroke-linecap="round"/>
<line x1="16" y1="284" x2="864" y2="284" stroke="#2A3A4A" stroke-width="0.3" />
<line x1="0" y1="284" x2="880" y2="284" stroke="#E8A000" stroke-width="0.4" />
<text x="16" y="297" text-anchor="start" font-family="Courier New, Courier, monospace" font-size="8" fill="#506070" >SRC: YAHOO FINANCE  ·  AUTO-UPDATE 22:00 UTC WEEKDAYS  ·  GITHUB.COM/YANKRUZISKI</text>
<text x="864" y="297" text-anchor="end" font-family="Courier New, Courier, monospace" font-size="8" fill="#506070" >2026-06-25</text>
</svg>