<svg xmlns="http://www.w3.org/2000/svg" width="880" height="302" viewBox="0 0 880 302">
<rect width="880" height="302" fill="#040810"/>
<rect x="0.5" y="0.5" width="879" height="301" fill="none" stroke="#E8A000" stroke-width="0.7" opacity="0.5"/>
<rect x="0" y="0" width="880" height="18" fill="#D87000"/>
<text x="16" y="14" text-anchor="start" font-family="Courier New, Courier, monospace" font-size="9" fill="#030608" font-weight="bold">BLOOMBERG</text>
<text x="88" y="14" text-anchor="start" font-family="Courier New, Courier, monospace" font-size="9" fill="#030608" >QUANT MARKET MONITOR</text>
<text x="440" y="14" text-anchor="middle" font-family="Courier New, Courier, monospace" font-size="9" fill="#030608" >EQUITY  &amp;  VOLATILITY  DASHBOARD</text>
<text x="864" y="14" text-anchor="end" font-family="Courier New, Courier, monospace" font-size="9" fill="#030608" >2026-05-13  22:29 UTC</text>
<line x1="0" y1="38" x2="880" y2="38" stroke="#E8A000" stroke-width="0.8" />
<text x="16" y="33" text-anchor="start" font-family="Courier New, Courier, monospace" font-size="9" fill="#506070" >YAN KRUZISKI  ·  VP OF INTELI RESEARCH  ·  SÃO PAULO, BR</text>
<text x="864" y="33" text-anchor="end" font-family="Courier New, Courier, monospace" font-size="9" fill="#506070" >PAGE 1/1</text>
<rect x="0" y="38" width="880" height="22" fill="#E8A000" opacity="0.14"/>
<text x="16" y="54" text-anchor="start" font-family="Courier New, Courier, monospace" font-size="9" fill="#FFA020" font-weight="bold">TICKER</text>
<text x="72" y="54" text-anchor="start" font-family="Courier New, Courier, monospace" font-size="9" fill="#FFA020" font-weight="bold">DESCRIPTION</text>
<text x="340" y="54" text-anchor="end" font-family="Courier New, Courier, monospace" font-size="9" fill="#FFA020" font-weight="bold">LAST</text>
<text x="420" y="54" text-anchor="end" font-family="Courier New, Courier, monospace" font-size="9" fill="#FFA020" font-weight="bold">%CHG</text>
<text x="500" y="54" text-anchor="end" font-family="Courier New, Courier, monospace" font-size="9" fill="#FFA020" font-weight="bold">YTD%</text>
<text x="690" y="54" text-anchor="middle" font-family="Courier New, Courier, monospace" font-size="9" fill="#FFA020" font-weight="bold">3-MONTH</text>
<line x1="0" y1="60" x2="880" y2="60" stroke="#E8A000" stroke-width="0.9" />
<rect x="0" y="60" width="880" height="32" fill="#E8A000" opacity="0.09"/>
<text x="16" y="80" text-anchor="start" font-family="Courier New, Courier, monospace" font-size="10" fill="#FFA020" font-weight="bold">^VIX</text>
<text x="72" y="80" text-anchor="start" font-family="Courier New, Courier, monospace" font-size="10" fill="#E8A000" font-weight="bold">CBOE VOLATILITY INDEX</text>
<text x="340" y="80" text-anchor="end" font-family="Courier New, Courier, monospace" font-size="11" fill="#D8E8F0" font-weight="bold">17.87</text>
<text x="420" y="80" text-anchor="end" font-family="Courier New, Courier, monospace" font-size="11" fill="#00C878" font-weight="bold">-0.67%</text>
<text x="500" y="80" text-anchor="end" font-family="Courier New, Courier, monospace" font-size="10" fill="#00C878" font-weight="bold">NORMAL</text>
<polyline points="516.0,81.2 521.7,81.7 527.4,82.8 533.1,81.8 538.8,83.6 544.5,80.6 550.2,82.9 555.9,85.4 561.6,84.3 567.3,82.4 573.0,79.9 578.8,76.6 584.5,80.4 590.2,76.3 595.9,67.4 601.6,73.6 607.3,74.5 613.0,75.6 618.7,70.8 624.4,71.0 630.1,76.7 635.8,78.5 641.5,74.3 647.2,75.9 652.9,71.6 658.6,72.6 664.3,71.4 670.0,73.9 675.7,70.6 681.4,65.0 687.1,65.7 692.9,74.0 698.6,75.1 704.3,76.2 710.0,75.7 715.7,73.2 721.4,80.6 727.1,83.0 732.8,83.4 738.5,83.5 744.2,84.7 749.9,85.0 755.6,85.4 761.3,86.1 767.0,83.9 772.7,82.9 778.4,83.8 784.1,83.2 789.8,84.2 795.5,85.2 801.2,85.5 807.0,84.0 812.7,87.0 818.4,86.8 824.1,84.8 829.8,86.2 835.5,86.2 841.2,86.7 846.9,86.5 852.6,84.7 858.3,85.3 864.0,85.5" fill="none" stroke="#00C878" stroke-width="1.5" stroke-linejoin="round" stroke-linecap="round"/>
<line x1="0" y1="92" x2="880" y2="92" stroke="#E8A000" stroke-width="0.5" />
<rect x="0" y="92" width="880" height="32" fill="#FFFFFF" opacity="0.02"/>
<text x="16" y="112" text-anchor="start" font-family="Courier New, Courier, monospace" font-size="10" fill="#FFA020" font-weight="bold">IBOV</text>
<text x="72" y="112" text-anchor="start" font-family="Courier New, Courier, monospace" font-size="10" fill="#E8A000" >IBOVESPA</text>
<text x="340" y="112" text-anchor="end" font-family="Courier New, Courier, monospace" font-size="11" fill="#D8E8F0" font-weight="bold">177,098</text>
<text x="420" y="112" text-anchor="end" font-family="Courier New, Courier, monospace" font-size="11" fill="#FF3C3C" >-1.80%</text>
<text x="500" y="112" text-anchor="end" font-family="Courier New, Courier, monospace" font-size="11" fill="#00C878" >+10.31%</text>
<polyline points="516.0,109.0 522.0,109.4 528.0,106.9 534.0,105.0 540.0,106.6 546.0,104.0 552.0,104.3 558.0,104.5 564.0,106.7 570.0,106.2 576.0,112.2 582.0,110.0 588.0,114.8 594.0,115.9 600.0,114.4 606.0,111.9 612.0,111.4 618.0,116.0 624.0,117.6 630.0,115.4 636.0,114.9 642.0,115.6 648.0,115.0 654.0,119.0 660.0,113.4 666.0,112.8 672.0,110.0 678.0,112.6 684.0,113.8 690.0,112.8 696.0,108.0 702.0,107.5 708.0,107.4 714.0,107.3 720.0,107.2 726.0,103.3 732.0,100.5 738.0,98.3 744.0,97.6 750.0,97.0 756.0,97.9 762.0,98.8 768.0,99.9 774.0,99.5 780.0,102.7 786.0,104.1 792.0,104.8 798.0,105.9 804.0,106.8 810.0,110.6 816.0,108.1 822.0,109.8 828.0,108.7 834.0,107.8 840.0,112.1 846.0,111.3 852.0,113.4 858.0,115.0 864.0,118.1" fill="none" stroke="#FF3C3C" stroke-width="1.5" stroke-linejoin="round" stroke-linecap="round"/>
<line x1="16" y1="124" x2="864" y2="124" stroke="#2A3A4A" stroke-width="0.3" />
<text x="16" y="144" text-anchor="start" font-family="Courier New, Courier, monospace" font-size="10" fill="#FFA020" font-weight="bold">SPY</text>
<text x="72" y="144" text-anchor="start" font-family="Courier New, Courier, monospace" font-size="10" fill="#E8A000" >S&P 500</text>
<text x="340" y="144" text-anchor="end" font-family="Courier New, Courier, monospace" font-size="11" fill="#D8E8F0" font-weight="bold">742.31</text>
<text x="420" y="144" text-anchor="end" font-family="Courier New, Courier, monospace" font-size="11" fill="#00C878" >+0.77%</text>
<text x="500" y="144" text-anchor="end" font-family="Courier New, Courier, monospace" font-size="11" fill="#00C878" >+8.95%</text>
<polyline points="516.0,141.2 521.8,140.5 527.6,140.9 533.4,139.9 539.2,141.3 545.0,140.3 550.8,139.2 556.6,139.9 562.4,140.6 568.2,140.5 574.0,141.7 579.8,140.8 585.6,141.5 591.4,143.3 597.2,142.1 603.0,142.4 608.8,142.5 614.6,144.6 620.4,145.3 626.2,144.0 632.0,143.6 637.8,145.5 643.6,145.8 649.4,147.7 655.2,146.3 661.0,146.8 666.8,146.0 672.6,148.4 678.4,150.6 684.2,151.0 690.0,147.3 695.8,146.4 701.6,146.2 707.4,145.6 713.2,145.6 719.0,142.2 724.8,141.4 730.6,141.5 736.4,140.2 742.2,138.5 748.0,137.4 753.8,137.1 759.6,135.4 765.4,135.7 771.2,136.6 777.0,135.2 782.8,135.8 788.6,134.7 794.4,134.4 800.2,135.1 806.0,135.1 811.8,133.7 817.6,133.3 823.4,133.8 829.2,132.7 835.0,130.7 840.8,131.1 846.6,129.9 852.4,129.6 858.2,129.8 864.0,129.0" fill="none" stroke="#00C878" stroke-width="1.5" stroke-linejoin="round" stroke-linecap="round"/>
<line x1="16" y1="156" x2="864" y2="156" stroke="#2A3A4A" stroke-width="0.3" />
<rect x="0" y="156" width="880" height="32" fill="#FFFFFF" opacity="0.02"/>
<text x="16" y="176" text-anchor="start" font-family="Courier New, Courier, monospace" font-size="10" fill="#FFA020" font-weight="bold">QQQ</text>
<text x="72" y="176" text-anchor="start" font-family="Courier New, Courier, monospace" font-size="10" fill="#E8A000" >NASDAQ 100</text>
<text x="340" y="176" text-anchor="end" font-family="Courier New, Courier, monospace" font-size="11" fill="#D8E8F0" font-weight="bold">714.71</text>
<text x="420" y="176" text-anchor="end" font-family="Courier New, Courier, monospace" font-size="11" fill="#00C878" >+1.39%</text>
<text x="500" y="176" text-anchor="end" font-family="Courier New, Courier, monospace" font-size="11" fill="#00C878" >+16.72%</text>
<polyline points="516.0,177.1 521.8,176.4 527.6,176.8 533.4,176.0 539.2,177.0 545.0,176.1 550.8,174.9 556.6,175.9 562.4,176.2 568.2,176.1 574.0,177.0 579.8,175.7 585.6,176.0 591.4,177.3 597.2,176.1 603.0,176.1 608.8,176.2 614.6,177.6 620.4,178.1 626.2,177.2 632.0,176.8 637.8,178.0 643.6,178.2 649.4,179.8 655.2,178.8 661.0,179.4 666.8,178.8 672.6,180.8 678.4,182.4 684.2,183.0 690.0,180.3 695.8,179.3 701.6,179.2 707.4,178.7 713.2,178.7 719.0,176.3 724.8,175.7 730.6,175.6 736.4,174.7 742.2,173.1 748.0,171.9 753.8,171.4 759.6,170.3 765.4,170.6 771.2,170.9 777.0,169.4 782.8,169.9 788.6,168.1 794.4,168.1 800.2,169.0 806.0,168.5 811.8,167.6 817.6,166.7 823.4,166.9 829.2,165.7 835.0,163.7 840.8,163.8 846.6,161.5 852.4,161.2 858.2,162.1 864.0,161.0" fill="none" stroke="#00C878" stroke-width="1.5" stroke-linejoin="round" stroke-linecap="round"/>
<line x1="16" y1="188" x2="864" y2="188" stroke="#2A3A4A" stroke-width="0.3" />
<text x="16" y="208" text-anchor="start" font-family="Courier New, Courier, monospace" font-size="10" fill="#FFA020" font-weight="bold">QMOM</text>
<text x="72" y="208" text-anchor="start" font-family="Courier New, Courier, monospace" font-size="10" fill="#E8A000" >QUANT MOMENTUM</text>
<text x="340" y="208" text-anchor="end" font-family="Courier New, Courier, monospace" font-size="11" fill="#D8E8F0" font-weight="bold">79.89</text>
<text x="420" y="208" text-anchor="end" font-family="Courier New, Courier, monospace" font-size="11" fill="#00C878" >+0.88%</text>
<text x="500" y="208" text-anchor="end" font-family="Courier New, Courier, monospace" font-size="11" fill="#00C878" >+20.15%</text>
<polyline points="516.0,206.1 521.8,205.3 527.6,204.6 533.4,203.8 539.2,205.0 545.0,203.2 550.8,202.8 556.6,202.3 562.4,203.0 568.2,202.0 574.0,206.0 579.8,205.2 585.6,208.1 591.4,210.3 597.2,207.6 603.0,206.9 608.8,207.7 614.6,209.9 620.4,211.6 626.2,209.3 632.0,208.5 637.8,209.6 643.6,209.3 649.4,212.6 655.2,210.4 661.0,209.0 666.8,207.6 672.6,211.4 678.4,212.0 684.2,215.0 690.0,209.7 695.8,207.7 701.6,208.0 707.4,207.7 713.2,207.5 719.0,202.9 724.8,202.3 730.6,202.1 736.4,201.1 742.2,200.2 748.0,201.1 753.8,200.8 759.6,198.6 765.4,198.5 771.2,199.9 777.0,198.9 782.8,198.5 788.6,198.4 794.4,198.8 800.2,201.3 806.0,202.3 811.8,198.0 817.6,198.3 823.4,198.1 829.2,196.6 835.0,193.0 840.8,197.1 846.6,195.3 852.4,193.6 858.2,194.6 864.0,193.7" fill="none" stroke="#00C878" stroke-width="1.5" stroke-linejoin="round" stroke-linecap="round"/>
<line x1="16" y1="220" x2="864" y2="220" stroke="#2A3A4A" stroke-width="0.3" />
<rect x="0" y="220" width="880" height="32" fill="#FFFFFF" opacity="0.02"/>
<text x="16" y="240" text-anchor="start" font-family="Courier New, Courier, monospace" font-size="10" fill="#FFA020" font-weight="bold">MTUM</text>
<text x="72" y="240" text-anchor="start" font-family="Courier New, Courier, monospace" font-size="10" fill="#E8A000" >MOMENTUM FACTOR</text>
<text x="340" y="240" text-anchor="end" font-family="Courier New, Courier, monospace" font-size="11" fill="#D8E8F0" font-weight="bold">305.40</text>
<text x="420" y="240" text-anchor="end" font-family="Courier New, Courier, monospace" font-size="11" fill="#00C878" >+1.80%</text>
<text x="500" y="240" text-anchor="end" font-family="Courier New, Courier, monospace" font-size="11" fill="#00C878" >+20.95%</text>
<polyline points="516.0,241.0 521.8,240.5 527.6,240.5 533.4,240.1 539.2,241.6 545.0,240.9 550.8,239.6 556.6,240.1 562.4,240.6 568.2,240.4 574.0,242.4 579.8,241.3 585.6,242.4 591.4,244.0 597.2,242.3 603.0,242.0 608.8,241.8 614.6,243.3 620.4,243.4 626.2,242.4 632.0,241.9 637.8,242.5 643.6,242.3 649.4,243.9 655.2,243.0 661.0,242.7 666.8,242.2 672.6,244.8 678.4,245.6 684.2,247.0 690.0,244.3 695.8,242.8 701.6,242.6 707.4,242.1 713.2,241.6 719.0,238.6 724.8,237.8 730.6,237.5 736.4,236.8 742.2,235.5 748.0,235.6 753.8,235.4 759.6,234.3 765.4,234.6 771.2,235.2 777.0,233.9 782.8,233.9 788.6,232.5 794.4,232.5 800.2,233.8 806.0,233.4 811.8,231.6 817.6,231.3 823.4,231.5 829.2,229.5 835.0,227.2 840.8,228.7 846.6,226.4 852.4,225.0 858.2,226.0 864.0,225.4" fill="none" stroke="#00C878" stroke-width="1.5" stroke-linejoin="round" stroke-linecap="round"/>
<line x1="16" y1="252" x2="864" y2="252" stroke="#2A3A4A" stroke-width="0.3" />
<text x="16" y="272" text-anchor="start" font-family="Courier New, Courier, monospace" font-size="10" fill="#FFA020" font-weight="bold">QUAL</text>
<text x="72" y="272" text-anchor="start" font-family="Courier New, Courier, monospace" font-size="10" fill="#E8A000" >QUALITY FACTOR</text>
<text x="340" y="272" text-anchor="end" font-family="Courier New, Courier, monospace" font-size="11" fill="#D8E8F0" font-weight="bold">210.97</text>
<text x="420" y="272" text-anchor="end" font-family="Courier New, Courier, monospace" font-size="11" fill="#00C878" >+0.34%</text>
<text x="500" y="272" text-anchor="end" font-family="Courier New, Courier, monospace" font-size="11" fill="#00C878" >+6.14%</text>
<polyline points="516.0,265.2 521.8,264.1 527.6,264.5 533.4,263.3 539.2,265.2 545.0,263.7 550.8,262.4 556.6,262.9 562.4,262.9 568.2,263.2 574.0,265.2 579.8,264.2 585.6,265.7 591.4,268.4 597.2,266.6 603.0,267.0 608.8,267.7 614.6,270.6 620.4,271.6 626.2,270.0 632.0,269.7 637.8,272.2 643.6,272.1 649.4,274.1 655.2,272.3 661.0,272.9 666.8,272.1 672.6,275.7 678.4,278.3 684.2,279.0 690.0,274.2 695.8,273.4 701.6,273.0 707.4,272.2 713.2,272.8 719.0,267.7 724.8,266.6 730.6,267.3 736.4,265.7 742.2,263.9 748.0,262.9 753.8,263.0 759.6,260.6 765.4,260.9 771.2,262.0 777.0,260.4 782.8,261.6 788.6,260.2 794.4,260.4 800.2,261.5 806.0,261.7 811.8,260.3 817.6,260.4 823.4,261.4 829.2,260.1 835.0,257.8 840.8,258.4 846.6,257.5 852.4,257.4 858.2,257.5 864.0,257.0" fill="none" stroke="#00C878" stroke-width="1.5" stroke-linejoin="round" stroke-linecap="round"/>
<line x1="16" y1="284" x2="864" y2="284" stroke="#2A3A4A" stroke-width="0.3" />
<line x1="0" y1="284" x2="880" y2="284" stroke="#E8A000" stroke-width="0.4" />
<text x="16" y="297" text-anchor="start" font-family="Courier New, Courier, monospace" font-size="8" fill="#506070" >SRC: YAHOO FINANCE  ·  AUTO-UPDATE 22:00 UTC WEEKDAYS  ·  GITHUB.COM/YANKRUZISKI</text>
<text x="864" y="297" text-anchor="end" font-family="Courier New, Courier, monospace" font-size="8" fill="#506070" >2026-05-13</text>
</svg>