<svg xmlns="http://www.w3.org/2000/svg" width="880" height="302" viewBox="0 0 880 302">
<rect width="880" height="302" fill="#040810"/>
<rect x="0.5" y="0.5" width="879" height="301" fill="none" stroke="#E8A000" stroke-width="0.7" opacity="0.5"/>
<rect x="0" y="0" width="880" height="18" fill="#D87000"/>
<text x="16" y="14" text-anchor="start" font-family="Courier New, Courier, monospace" font-size="9" fill="#030608" font-weight="bold">BLOOMBERG</text>
<text x="88" y="14" text-anchor="start" font-family="Courier New, Courier, monospace" font-size="9" fill="#030608" >QUANT MARKET MONITOR</text>
<text x="440" y="14" text-anchor="middle" font-family="Courier New, Courier, monospace" font-size="9" fill="#030608" >EQUITY  &amp;  VOLATILITY  DASHBOARD</text>
<text x="864" y="14" text-anchor="end" font-family="Courier New, Courier, monospace" font-size="9" fill="#030608" >2026-06-03  22:45 UTC</text>
<line x1="0" y1="38" x2="880" y2="38" stroke="#E8A000" stroke-width="0.8" />
<text x="16" y="33" text-anchor="start" font-family="Courier New, Courier, monospace" font-size="9" fill="#506070" >YAN KRUZISKI  ·  VP OF INTELI RESEARCH  ·  SÃO PAULO, BR</text>
<text x="864" y="33" text-anchor="end" font-family="Courier New, Courier, monospace" font-size="9" fill="#506070" >PAGE 1/1</text>
<rect x="0" y="38" width="880" height="22" fill="#E8A000" opacity="0.14"/>
<text x="16" y="54" text-anchor="start" font-family="Courier New, Courier, monospace" font-size="9" fill="#FFA020" font-weight="bold">TICKER</text>
<text x="72" y="54" text-anchor="start" font-family="Courier New, Courier, monospace" font-size="9" fill="#FFA020" font-weight="bold">DESCRIPTION</text>
<text x="340" y="54" text-anchor="end" font-family="Courier New, Courier, monospace" font-size="9" fill="#FFA020" font-weight="bold">LAST</text>
<text x="420" y="54" text-anchor="end" font-family="Courier New, Courier, monospace" font-size="9" fill="#FFA020" font-weight="bold">%CHG</text>
<text x="500" y="54" text-anchor="end" font-family="Courier New, Courier, monospace" font-size="9" fill="#FFA020" font-weight="bold">YTD%</text>
<text x="690" y="54" text-anchor="middle" font-family="Courier New, Courier, monospace" font-size="9" fill="#FFA020" font-weight="bold">3-MONTH</text>
<line x1="0" y1="60" x2="880" y2="60" stroke="#E8A000" stroke-width="0.9" />
<rect x="0" y="60" width="880" height="32" fill="#E8A000" opacity="0.09"/>
<text x="16" y="80" text-anchor="start" font-family="Courier New, Courier, monospace" font-size="10" fill="#FFA020" font-weight="bold">^VIX</text>
<text x="72" y="80" text-anchor="start" font-family="Courier New, Courier, monospace" font-size="10" fill="#E8A000" font-weight="bold">CBOE VOLATILITY INDEX</text>
<text x="340" y="80" text-anchor="end" font-family="Courier New, Courier, monospace" font-size="11" fill="#D8E8F0" font-weight="bold">16.06</text>
<text x="420" y="80" text-anchor="end" font-family="Courier New, Courier, monospace" font-size="11" fill="#FF3C3C" font-weight="bold">+1.77%</text>
<text x="500" y="80" text-anchor="end" font-family="Courier New, Courier, monospace" font-size="10" fill="#FF3C3C" font-weight="bold">NORMAL</text>
<polyline points="516.0,75.5 521.4,78.8 526.7,75.2 532.1,67.2 537.4,72.8 542.8,73.6 548.1,74.5 553.5,70.3 558.8,70.4 564.2,75.5 569.5,77.1 574.9,73.3 580.2,74.8 585.6,71.0 591.0,71.9 596.3,70.7 601.7,73.0 607.0,70.0 612.4,65.0 617.7,65.6 623.1,73.1 628.4,74.1 633.8,75.0 639.1,74.6 644.5,72.4 649.8,79.0 655.2,81.2 660.6,81.5 665.9,81.7 671.3,82.7 676.6,83.0 682.0,83.3 687.3,84.0 692.7,82.0 698.0,81.2 703.4,82.0 708.7,81.4 714.1,82.3 719.4,83.2 724.8,83.5 730.2,82.1 735.5,84.8 740.9,84.7 746.2,82.8 751.6,84.1 756.9,84.1 762.3,84.5 767.6,84.4 773.0,82.7 778.3,83.3 783.7,83.4 789.0,84.3 794.4,82.7 799.8,83.5 805.1,83.2 810.5,84.0 815.8,85.0 821.2,85.1 826.5,85.2 831.9,84.6 837.2,85.6 842.6,86.4 847.9,87.0 853.3,86.0 858.6,86.4 864.0,86.0" fill="none" stroke="#FF3C3C" stroke-width="1.5" stroke-linejoin="round" stroke-linecap="round"/>
<line x1="0" y1="92" x2="880" y2="92" stroke="#E8A000" stroke-width="0.5" />
<rect x="0" y="92" width="880" height="32" fill="#FFFFFF" opacity="0.02"/>
<text x="16" y="112" text-anchor="start" font-family="Courier New, Courier, monospace" font-size="10" fill="#FFA020" font-weight="bold">IBOV</text>
<text x="72" y="112" text-anchor="start" font-family="Courier New, Courier, monospace" font-size="10" fill="#E8A000" >IBOVESPA</text>
<text x="340" y="112" text-anchor="end" font-family="Courier New, Courier, monospace" font-size="11" fill="#D8E8F0" font-weight="bold">170,331</text>
<text x="420" y="112" text-anchor="end" font-family="Courier New, Courier, monospace" font-size="11" fill="#FF3C3C" >-2.22%</text>
<text x="500" y="112" text-anchor="end" font-family="Courier New, Courier, monospace" font-size="11" fill="#00C878" >+6.10%</text>
<polyline points="516.0,109.1 521.5,107.3 527.0,111.1 532.6,112.0 538.1,110.8 543.6,108.8 549.1,108.4 554.7,112.0 560.2,113.3 565.7,111.6 571.2,111.2 576.8,111.8 582.3,111.3 587.8,114.4 593.3,110.0 598.9,109.5 604.4,107.3 609.9,109.4 615.4,110.3 621.0,109.5 626.5,105.7 632.0,105.3 637.5,105.2 643.0,105.2 648.6,105.1 654.1,102.0 659.6,99.7 665.1,98.0 670.7,97.5 676.2,97.0 681.7,97.7 687.2,98.4 692.8,99.3 698.3,99.0 703.8,101.5 709.3,102.7 714.9,103.1 720.4,104.1 725.9,104.8 731.4,107.8 737.0,105.8 742.5,107.1 748.0,106.2 753.5,105.5 759.0,109.0 764.6,108.3 770.1,110.0 775.6,111.2 781.1,113.7 786.7,112.8 792.2,113.6 797.7,113.8 803.2,115.9 808.8,113.5 814.3,113.3 819.8,114.4 825.3,113.5 830.9,114.1 836.4,114.8 841.9,115.3 847.4,116.3 853.0,117.5 858.5,116.0 864.0,119.0" fill="none" stroke="#FF3C3C" stroke-width="1.5" stroke-linejoin="round" stroke-linecap="round"/>
<line x1="16" y1="124" x2="864" y2="124" stroke="#2A3A4A" stroke-width="0.3" />
<text x="16" y="144" text-anchor="start" font-family="Courier New, Courier, monospace" font-size="10" fill="#FFA020" font-weight="bold">SPY</text>
<text x="72" y="144" text-anchor="start" font-family="Courier New, Courier, monospace" font-size="10" fill="#E8A000" >S&amp;P 500</text>
<text x="340" y="144" text-anchor="end" font-family="Courier New, Courier, monospace" font-size="11" fill="#D8E8F0" font-weight="bold">754.24</text>
<text x="420" y="144" text-anchor="end" font-family="Courier New, Courier, monospace" font-size="11" fill="#FF3C3C" >-0.71%</text>
<text x="500" y="144" text-anchor="end" font-family="Courier New, Courier, monospace" font-size="11" fill="#00C878" >+10.70%</text>
<polyline points="516.0,142.2 521.5,142.8 527.0,144.3 532.6,143.3 538.1,143.5 543.6,143.7 549.1,145.4 554.7,146.1 560.2,144.9 565.7,144.6 571.2,146.2 576.8,146.5 582.3,148.1 587.8,147.0 593.3,147.3 598.9,146.7 604.4,148.7 609.9,150.6 615.4,151.0 621.0,147.8 626.5,147.0 632.0,146.9 637.5,146.4 643.0,146.3 648.6,143.4 654.1,142.7 659.6,142.8 665.1,141.7 670.7,140.2 676.2,139.3 681.7,139.0 687.2,137.5 692.8,137.8 698.3,138.6 703.8,137.3 709.3,137.8 714.9,136.9 720.4,136.7 725.9,137.3 731.4,137.3 737.0,136.1 742.5,135.7 748.0,136.2 753.5,135.2 759.0,133.4 764.6,133.8 770.1,132.8 775.6,132.5 781.1,132.7 786.7,132.0 792.2,131.0 797.7,132.5 803.2,132.6 808.8,133.5 814.3,132.2 819.8,131.9 825.3,131.4 830.9,130.5 836.4,130.6 841.9,129.9 847.4,129.5 853.0,129.2 858.5,129.0 864.0,129.9" fill="none" stroke="#FF3C3C" stroke-width="1.5" stroke-linejoin="round" stroke-linecap="round"/>
<line x1="16" y1="156" x2="864" y2="156" stroke="#2A3A4A" stroke-width="0.3" />
<rect x="0" y="156" width="880" height="32" fill="#FFFFFF" opacity="0.02"/>
<text x="16" y="176" text-anchor="start" font-family="Courier New, Courier, monospace" font-size="10" fill="#FFA020" font-weight="bold">QQQ</text>
<text x="72" y="176" text-anchor="start" font-family="Courier New, Courier, monospace" font-size="10" fill="#E8A000" >NASDAQ 100</text>
<text x="340" y="176" text-anchor="end" font-family="Courier New, Courier, monospace" font-size="11" fill="#D8E8F0" font-weight="bold">744.21</text>
<text x="420" y="176" text-anchor="end" font-family="Courier New, Courier, monospace" font-size="11" fill="#FF3C3C" >-0.25%</text>
<text x="500" y="176" text-anchor="end" font-family="Courier New, Courier, monospace" font-size="11" fill="#00C878" >+21.53%</text>
<polyline points="516.0,176.9 521.5,177.2 527.0,178.2 532.6,177.3 538.1,177.3 543.6,177.3 549.1,178.5 554.7,178.9 560.2,178.2 565.7,177.8 571.2,178.8 576.8,179.0 582.3,180.3 587.8,179.5 593.3,180.0 598.9,179.5 604.4,181.2 609.9,182.5 615.4,183.0 621.0,180.8 626.5,180.0 632.0,179.9 637.5,179.5 643.0,179.5 648.6,177.4 654.1,176.9 659.6,176.8 665.1,176.1 670.7,174.8 676.2,173.7 681.7,173.4 687.2,172.4 692.8,172.6 698.3,172.9 703.8,171.7 709.3,172.1 714.9,170.6 720.4,170.6 725.9,171.4 731.4,170.9 737.0,170.2 742.5,169.4 748.0,169.6 753.5,168.6 759.0,166.9 764.6,167.0 770.1,165.1 775.6,164.8 781.1,165.6 786.7,164.7 792.2,164.1 797.7,165.4 803.2,165.7 808.8,166.2 814.3,164.9 819.8,164.7 825.3,164.4 830.9,162.9 836.4,163.0 841.9,162.2 847.4,161.9 853.0,161.4 858.5,161.0 864.0,161.2" fill="none" stroke="#FF3C3C" stroke-width="1.5" stroke-linejoin="round" stroke-linecap="round"/>
<line x1="16" y1="188" x2="864" y2="188" stroke="#2A3A4A" stroke-width="0.3" />
<text x="16" y="208" text-anchor="start" font-family="Courier New, Courier, monospace" font-size="10" fill="#FFA020" font-weight="bold">QMOM</text>
<text x="72" y="208" text-anchor="start" font-family="Courier New, Courier, monospace" font-size="10" fill="#E8A000" >QUANT MOMENTUM</text>
<text x="340" y="208" text-anchor="end" font-family="Courier New, Courier, monospace" font-size="11" fill="#D8E8F0" font-weight="bold">81.39</text>
<text x="420" y="208" text-anchor="end" font-family="Courier New, Courier, monospace" font-size="11" fill="#FF3C3C" >-0.37%</text>
<text x="500" y="208" text-anchor="end" font-family="Courier New, Courier, monospace" font-size="11" fill="#00C878" >+22.41%</text>
<polyline points="516.0,206.0 521.5,208.7 527.0,210.7 532.6,208.2 538.1,207.5 543.6,208.2 549.1,210.3 554.7,211.8 560.2,209.7 565.7,209.0 571.2,210.0 576.8,209.7 582.3,212.8 587.8,210.7 593.3,209.5 598.9,208.2 604.4,211.7 609.9,212.3 615.4,215.0 621.0,210.1 626.5,208.3 632.0,208.5 637.5,208.3 643.0,208.1 648.6,203.8 654.1,203.2 659.6,203.1 665.1,202.2 670.7,201.4 676.2,202.1 681.7,201.9 687.2,199.9 692.8,199.8 698.3,201.0 703.8,200.1 709.3,199.7 714.9,199.7 720.4,200.0 725.9,202.3 731.4,203.3 737.0,199.3 742.5,199.6 748.0,199.4 753.5,198.1 759.0,194.7 764.6,198.5 770.1,196.9 775.6,195.3 781.1,196.2 786.7,195.3 792.2,195.1 797.7,198.6 803.2,200.2 808.8,201.4 814.3,199.3 819.8,198.7 825.3,198.4 830.9,195.4 836.4,196.1 841.9,195.2 847.4,194.6 853.0,194.8 858.5,193.0 864.0,193.4" fill="none" stroke="#FF3C3C" stroke-width="1.5" stroke-linejoin="round" stroke-linecap="round"/>
<line x1="16" y1="220" x2="864" y2="220" stroke="#2A3A4A" stroke-width="0.3" />
<rect x="0" y="220" width="880" height="32" fill="#FFFFFF" opacity="0.02"/>
<text x="16" y="240" text-anchor="start" font-family="Courier New, Courier, monospace" font-size="10" fill="#FFA020" font-weight="bold">MTUM</text>
<text x="72" y="240" text-anchor="start" font-family="Courier New, Courier, monospace" font-size="10" fill="#E8A000" >MOMENTUM FACTOR</text>
<text x="340" y="240" text-anchor="end" font-family="Courier New, Courier, monospace" font-size="11" fill="#D8E8F0" font-weight="bold">329.50</text>
<text x="420" y="240" text-anchor="end" font-family="Courier New, Courier, monospace" font-size="11" fill="#00C878" >+3.36%</text>
<text x="500" y="240" text-anchor="end" font-family="Courier New, Courier, monospace" font-size="11" fill="#00C878" >+30.49%</text>
<polyline points="516.0,242.6 521.5,243.4 527.0,244.7 532.6,243.4 538.1,243.1 543.6,243.0 549.1,244.1 554.7,244.2 560.2,243.5 565.7,243.1 571.2,243.6 576.8,243.4 582.3,244.6 587.8,243.9 593.3,243.7 598.9,243.3 604.4,245.3 609.9,245.9 615.4,247.0 621.0,244.9 626.5,243.8 632.0,243.6 637.5,243.2 643.0,242.9 648.6,240.6 654.1,239.9 659.6,239.7 665.1,239.1 670.7,238.2 676.2,238.3 681.7,238.1 687.2,237.3 692.8,237.5 698.3,237.9 703.8,236.9 709.3,236.9 714.9,235.8 720.4,235.9 725.9,236.9 731.4,236.5 737.0,235.1 742.5,234.9 748.0,235.1 753.5,233.6 759.0,231.8 764.6,232.9 770.1,231.2 775.6,230.1 781.1,230.9 786.7,230.4 792.2,230.0 797.7,232.0 803.2,232.8 808.8,233.2 814.3,231.7 819.8,231.1 825.3,230.8 830.9,228.4 836.4,228.6 841.9,228.3 847.4,228.1 853.0,227.8 858.5,225.8 864.0,225.0" fill="none" stroke="#00C878" stroke-width="1.5" stroke-linejoin="round" stroke-linecap="round"/>
<line x1="16" y1="252" x2="864" y2="252" stroke="#2A3A4A" stroke-width="0.3" />
<text x="16" y="272" text-anchor="start" font-family="Courier New, Courier, monospace" font-size="10" fill="#FFA020" font-weight="bold">QUAL</text>
<text x="72" y="272" text-anchor="start" font-family="Courier New, Courier, monospace" font-size="10" fill="#E8A000" >QUALITY FACTOR</text>
<text x="340" y="272" text-anchor="end" font-family="Courier New, Courier, monospace" font-size="11" fill="#D8E8F0" font-weight="bold">215.63</text>
<text x="420" y="272" text-anchor="end" font-family="Courier New, Courier, monospace" font-size="11" fill="#FF3C3C" >-0.26%</text>
<text x="500" y="272" text-anchor="end" font-family="Courier New, Courier, monospace" font-size="11" fill="#00C878" >+8.48%</text>
<polyline points="516.0,266.7 521.5,268.0 527.0,270.2 532.6,268.7 538.1,269.0 543.6,269.6 549.1,272.1 554.7,272.8 560.2,271.5 565.7,271.2 571.2,273.3 576.8,273.2 582.3,275.0 587.8,273.4 593.3,273.9 598.9,273.3 604.4,276.3 609.9,278.4 615.4,279.0 621.0,275.0 626.5,274.3 632.0,274.0 637.5,273.4 643.0,273.9 648.6,269.7 654.1,268.7 659.6,269.3 665.1,268.0 670.7,266.5 676.2,265.7 681.7,265.7 687.2,263.8 692.8,264.0 698.3,264.8 703.8,263.6 709.3,264.5 714.9,263.4 720.4,263.6 725.9,264.5 731.4,264.6 737.0,263.5 742.5,263.6 748.0,264.4 753.5,263.3 759.0,261.4 764.6,261.9 770.1,261.1 775.6,261.0 781.1,261.2 786.7,260.7 792.2,259.7 797.7,261.1 803.2,260.8 808.8,261.8 814.3,259.8 819.8,259.4 825.3,258.2 830.9,257.1 836.4,257.5 841.9,257.1 847.4,257.4 853.0,257.0 858.5,257.1 864.0,257.3" fill="none" stroke="#FF3C3C" stroke-width="1.5" stroke-linejoin="round" stroke-linecap="round"/>
<line x1="16" y1="284" x2="864" y2="284" stroke="#2A3A4A" stroke-width="0.3" />
<line x1="0" y1="284" x2="880" y2="284" stroke="#E8A000" stroke-width="0.4" />
<text x="16" y="297" text-anchor="start" font-family="Courier New, Courier, monospace" font-size="8" fill="#506070" >SRC: YAHOO FINANCE  ·  AUTO-UPDATE 22:00 UTC WEEKDAYS  ·  GITHUB.COM/YANKRUZISKI</text>
<text x="864" y="297" text-anchor="end" font-family="Courier New, Courier, monospace" font-size="8" fill="#506070" >2026-06-03</text>
</svg>