<svg xmlns="http://www.w3.org/2000/svg" width="880" height="302" viewBox="0 0 880 302">
<rect width="880" height="302" fill="#040810"/>
<rect x="0.5" y="0.5" width="879" height="301" fill="none" stroke="#E8A000" stroke-width="0.7" opacity="0.5"/>
<rect x="0" y="0" width="880" height="18" fill="#D87000"/>
<text x="16" y="14" text-anchor="start" font-family="Courier New, Courier, monospace" font-size="9" fill="#030608" font-weight="bold">BLOOMBERG</text>
<text x="88" y="14" text-anchor="start" font-family="Courier New, Courier, monospace" font-size="9" fill="#030608" >QUANT MARKET MONITOR</text>
<text x="440" y="14" text-anchor="middle" font-family="Courier New, Courier, monospace" font-size="9" fill="#030608" >EQUITY  &amp;  VOLATILITY  DASHBOARD</text>
<text x="864" y="14" text-anchor="end" font-family="Courier New, Courier, monospace" font-size="9" fill="#030608" >2026-05-18  22:24 UTC</text>
<line x1="0" y1="38" x2="880" y2="38" stroke="#E8A000" stroke-width="0.8" />
<text x="16" y="33" text-anchor="start" font-family="Courier New, Courier, monospace" font-size="9" fill="#506070" >YAN KRUZISKI  ·  VP OF INTELI RESEARCH  ·  SÃO PAULO, BR</text>
<text x="864" y="33" text-anchor="end" font-family="Courier New, Courier, monospace" font-size="9" fill="#506070" >PAGE 1/1</text>
<rect x="0" y="38" width="880" height="22" fill="#E8A000" opacity="0.14"/>
<text x="16" y="54" text-anchor="start" font-family="Courier New, Courier, monospace" font-size="9" fill="#FFA020" font-weight="bold">TICKER</text>
<text x="72" y="54" text-anchor="start" font-family="Courier New, Courier, monospace" font-size="9" fill="#FFA020" font-weight="bold">DESCRIPTION</text>
<text x="340" y="54" text-anchor="end" font-family="Courier New, Courier, monospace" font-size="9" fill="#FFA020" font-weight="bold">LAST</text>
<text x="420" y="54" text-anchor="end" font-family="Courier New, Courier, monospace" font-size="9" fill="#FFA020" font-weight="bold">%CHG</text>
<text x="500" y="54" text-anchor="end" font-family="Courier New, Courier, monospace" font-size="9" fill="#FFA020" font-weight="bold">YTD%</text>
<text x="690" y="54" text-anchor="middle" font-family="Courier New, Courier, monospace" font-size="9" fill="#FFA020" font-weight="bold">3-MONTH</text>
<line x1="0" y1="60" x2="880" y2="60" stroke="#E8A000" stroke-width="0.9" />
<rect x="0" y="60" width="880" height="32" fill="#E8A000" opacity="0.09"/>
<text x="16" y="80" text-anchor="start" font-family="Courier New, Courier, monospace" font-size="10" fill="#FFA020" font-weight="bold">^VIX</text>
<text x="72" y="80" text-anchor="start" font-family="Courier New, Courier, monospace" font-size="10" fill="#E8A000" font-weight="bold">CBOE VOLATILITY INDEX</text>
<text x="340" y="80" text-anchor="end" font-family="Courier New, Courier, monospace" font-size="11" fill="#D8E8F0" font-weight="bold">17.82</text>
<text x="420" y="80" text-anchor="end" font-family="Courier New, Courier, monospace" font-size="11" fill="#00C878" font-weight="bold">-3.26%</text>
<text x="500" y="80" text-anchor="end" font-family="Courier New, Courier, monospace" font-size="10" fill="#00C878" font-weight="bold">NORMAL</text>
<polyline points="516.0,82.8 521.6,81.8 527.2,83.6 532.8,80.6 538.5,82.9 544.1,85.4 549.7,84.3 555.3,82.4 560.9,79.9 566.5,76.6 572.1,80.4 577.7,76.3 583.4,67.4 589.0,73.6 594.6,74.5 600.2,75.6 605.8,70.8 611.4,71.0 617.0,76.7 622.6,78.5 628.3,74.3 633.9,75.9 639.5,71.6 645.1,72.6 650.7,71.4 656.3,73.9 661.9,70.6 667.5,65.0 673.2,65.7 678.8,74.0 684.4,75.1 690.0,76.2 695.6,75.7 701.2,73.2 706.8,80.6 712.5,83.0 718.1,83.4 723.7,83.5 729.3,84.7 734.9,85.0 740.5,85.4 746.1,86.1 751.7,83.9 757.4,82.9 763.0,83.8 768.6,83.2 774.2,84.2 779.8,85.2 785.4,85.5 791.0,84.0 796.6,87.0 802.3,86.8 807.9,84.8 813.5,86.2 819.1,86.2 824.7,86.7 830.3,86.5 835.9,84.7 841.5,85.3 847.2,85.5 852.8,86.4 858.4,84.6 864.0,85.6" fill="none" stroke="#00C878" stroke-width="1.5" stroke-linejoin="round" stroke-linecap="round"/>
<line x1="0" y1="92" x2="880" y2="92" stroke="#E8A000" stroke-width="0.5" />
<rect x="0" y="92" width="880" height="32" fill="#FFFFFF" opacity="0.02"/>
<text x="16" y="112" text-anchor="start" font-family="Courier New, Courier, monospace" font-size="10" fill="#FFA020" font-weight="bold">IBOV</text>
<text x="72" y="112" text-anchor="start" font-family="Courier New, Courier, monospace" font-size="10" fill="#E8A000" >IBOVESPA</text>
<text x="340" y="112" text-anchor="end" font-family="Courier New, Courier, monospace" font-size="11" fill="#D8E8F0" font-weight="bold">176,976</text>
<text x="420" y="112" text-anchor="end" font-family="Courier New, Courier, monospace" font-size="11" fill="#FF3C3C" >-0.17%</text>
<text x="500" y="112" text-anchor="end" font-family="Courier New, Courier, monospace" font-size="11" fill="#00C878" >+10.24%</text>
<polyline points="516.0,109.4 521.8,106.9 527.6,105.0 533.4,106.6 539.2,104.0 545.0,104.3 550.8,104.5 556.6,106.7 562.4,106.2 568.2,112.2 574.0,110.0 579.8,114.8 585.6,115.9 591.4,114.4 597.2,111.9 603.0,111.4 608.8,116.0 614.6,117.6 620.4,115.4 626.2,114.9 632.0,115.6 637.8,115.0 643.6,119.0 649.4,113.4 655.2,112.8 661.0,110.0 666.8,112.6 672.6,113.8 678.4,112.8 684.2,108.0 690.0,107.5 695.8,107.4 701.6,107.3 707.4,107.2 713.2,103.3 719.0,100.5 724.8,98.3 730.6,97.6 736.4,97.0 742.2,97.9 748.0,98.8 753.8,99.9 759.6,99.5 765.4,102.7 771.2,104.1 777.0,104.8 782.8,105.9 788.6,106.8 794.4,110.6 800.2,108.1 806.0,109.8 811.8,108.7 817.6,107.8 823.4,112.1 829.2,111.3 835.0,113.4 840.8,115.0 846.6,118.1 852.4,116.9 858.2,118.0 864.0,118.3" fill="none" stroke="#FF3C3C" stroke-width="1.5" stroke-linejoin="round" stroke-linecap="round"/>
<line x1="16" y1="124" x2="864" y2="124" stroke="#2A3A4A" stroke-width="0.3" />
<text x="16" y="144" text-anchor="start" font-family="Courier New, Courier, monospace" font-size="10" fill="#FFA020" font-weight="bold">SPY</text>
<text x="72" y="144" text-anchor="start" font-family="Courier New, Courier, monospace" font-size="10" fill="#E8A000" >S&P 500</text>
<text x="340" y="144" text-anchor="end" font-family="Courier New, Courier, monospace" font-size="11" fill="#D8E8F0" font-weight="bold">738.65</text>
<text x="420" y="144" text-anchor="end" font-family="Courier New, Courier, monospace" font-size="11" fill="#00C878" >+0.18%</text>
<text x="500" y="144" text-anchor="end" font-family="Courier New, Courier, monospace" font-size="11" fill="#00C878" >+8.42%</text>
<polyline points="516.0,141.4 521.7,140.5 527.4,141.8 533.1,140.9 538.8,139.8 544.5,140.5 550.2,141.1 555.9,141.1 561.6,142.2 567.3,141.3 573.0,142.0 578.8,143.7 584.5,142.6 590.2,142.8 595.9,143.0 601.6,144.9 607.3,145.6 613.0,144.3 618.7,144.0 624.4,145.8 630.1,146.1 635.8,147.9 641.5,146.6 647.2,147.0 652.9,146.3 658.6,148.5 664.3,150.6 670.0,151.0 675.7,147.5 681.4,146.6 687.1,146.5 692.9,145.9 698.6,145.8 704.3,142.7 710.0,141.9 715.7,142.0 721.4,140.8 727.1,139.2 732.8,138.1 738.5,137.8 744.2,136.2 749.9,136.5 755.6,137.3 761.3,136.0 767.0,136.5 772.7,135.5 778.4,135.2 784.1,135.9 789.8,135.9 795.5,134.6 801.2,134.2 807.0,134.7 812.7,133.6 818.4,131.7 824.1,132.1 829.8,131.0 835.5,130.7 841.2,130.9 846.9,130.1 852.6,129.0 858.3,130.7 864.0,130.8" fill="none" stroke="#00C878" stroke-width="1.5" stroke-linejoin="round" stroke-linecap="round"/>
<line x1="16" y1="156" x2="864" y2="156" stroke="#2A3A4A" stroke-width="0.3" />
<rect x="0" y="156" width="880" height="32" fill="#FFFFFF" opacity="0.02"/>
<text x="16" y="176" text-anchor="start" font-family="Courier New, Courier, monospace" font-size="10" fill="#FFA020" font-weight="bold">QQQ</text>
<text x="72" y="176" text-anchor="start" font-family="Courier New, Courier, monospace" font-size="10" fill="#E8A000" >NASDAQ 100</text>
<text x="340" y="176" text-anchor="end" font-family="Courier New, Courier, monospace" font-size="11" fill="#D8E8F0" font-weight="bold">705.88</text>
<text x="420" y="176" text-anchor="end" font-family="Courier New, Courier, monospace" font-size="11" fill="#FF3C3C" >-0.09%</text>
<text x="500" y="176" text-anchor="end" font-family="Courier New, Courier, monospace" font-size="11" fill="#00C878" >+15.27%</text>
<polyline points="516.0,176.9 521.7,176.2 527.4,177.2 533.1,176.3 538.8,175.2 544.5,176.2 550.2,176.4 555.9,176.3 561.6,177.2 567.3,176.0 573.0,176.2 578.8,177.5 584.5,176.4 590.2,176.4 595.9,176.4 601.6,177.8 607.3,178.3 613.0,177.4 618.7,177.0 624.4,178.1 630.1,178.4 635.8,179.9 641.5,179.0 647.2,179.5 652.9,179.0 658.6,180.9 664.3,182.4 670.0,183.0 675.7,180.4 681.4,179.5 687.1,179.4 692.9,178.9 698.6,178.9 704.3,176.5 710.0,175.9 715.7,175.8 721.4,174.9 727.1,173.4 732.8,172.2 738.5,171.8 744.2,170.7 749.9,170.9 755.6,171.3 761.3,169.8 767.0,170.3 772.7,168.6 778.4,168.6 784.1,169.5 789.8,168.9 795.5,168.1 801.2,167.2 807.0,167.4 812.7,166.2 818.4,164.3 824.1,164.4 829.8,162.2 835.5,161.9 841.2,162.7 846.9,161.7 852.6,161.0 858.3,162.5 864.0,162.9" fill="none" stroke="#FF3C3C" stroke-width="1.5" stroke-linejoin="round" stroke-linecap="round"/>
<line x1="16" y1="188" x2="864" y2="188" stroke="#2A3A4A" stroke-width="0.3" />
<text x="16" y="208" text-anchor="start" font-family="Courier New, Courier, monospace" font-size="10" fill="#FFA020" font-weight="bold">QMOM</text>
<text x="72" y="208" text-anchor="start" font-family="Courier New, Courier, monospace" font-size="10" fill="#E8A000" >QUANT MOMENTUM</text>
<text x="340" y="208" text-anchor="end" font-family="Courier New, Courier, monospace" font-size="11" fill="#D8E8F0" font-weight="bold">76.09</text>
<text x="420" y="208" text-anchor="end" font-family="Courier New, Courier, monospace" font-size="11" fill="#FF3C3C" >-1.62%</text>
<text x="500" y="208" text-anchor="end" font-family="Courier New, Courier, monospace" font-size="11" fill="#00C878" >+14.44%</text>
<polyline points="516.0,204.6 521.7,203.8 527.4,205.0 533.1,203.2 538.8,202.8 544.5,202.3 550.2,203.0 555.9,202.0 561.6,206.0 567.3,205.2 573.0,208.1 578.8,210.3 584.5,207.6 590.2,206.9 595.9,207.7 601.6,209.9 607.3,211.6 613.0,209.3 618.7,208.5 624.4,209.6 630.1,209.3 635.8,212.6 641.5,210.4 647.2,209.0 652.9,207.6 658.6,211.4 664.3,212.0 670.0,215.0 675.7,209.7 681.4,207.7 687.1,208.0 692.9,207.7 698.6,207.5 704.3,202.9 710.0,202.3 715.7,202.1 721.4,201.1 727.1,200.2 732.8,201.1 738.5,200.8 744.2,198.6 749.9,198.5 755.6,199.9 761.3,198.9 767.0,198.5 772.7,198.4 778.4,198.8 784.1,201.3 789.8,202.3 795.5,198.0 801.2,198.3 807.0,198.1 812.7,196.6 818.4,193.0 824.1,197.1 829.8,195.3 835.5,193.6 841.2,194.6 846.9,193.7 852.6,193.5 858.3,197.2 864.0,198.9" fill="none" stroke="#FF3C3C" stroke-width="1.5" stroke-linejoin="round" stroke-linecap="round"/>
<line x1="16" y1="220" x2="864" y2="220" stroke="#2A3A4A" stroke-width="0.3" />
<rect x="0" y="220" width="880" height="32" fill="#FFFFFF" opacity="0.02"/>
<text x="16" y="240" text-anchor="start" font-family="Courier New, Courier, monospace" font-size="10" fill="#FFA020" font-weight="bold">MTUM</text>
<text x="72" y="240" text-anchor="start" font-family="Courier New, Courier, monospace" font-size="10" fill="#E8A000" >MOMENTUM FACTOR</text>
<text x="340" y="240" text-anchor="end" font-family="Courier New, Courier, monospace" font-size="11" fill="#D8E8F0" font-weight="bold">294.32</text>
<text x="420" y="240" text-anchor="end" font-family="Courier New, Courier, monospace" font-size="11" fill="#FF3C3C" >-1.32%</text>
<text x="500" y="240" text-anchor="end" font-family="Courier New, Courier, monospace" font-size="11" fill="#00C878" >+16.56%</text>
<polyline points="516.0,240.6 521.7,240.2 527.4,241.6 533.1,240.9 538.8,239.7 544.5,240.1 550.2,240.7 555.9,240.5 561.6,242.4 567.3,241.3 573.0,242.4 578.8,244.0 584.5,242.3 590.2,242.0 595.9,241.9 601.6,243.3 607.3,243.4 613.0,242.5 618.7,242.0 624.4,242.5 630.1,242.4 635.8,243.9 641.5,243.0 647.2,242.8 652.9,242.3 658.6,244.9 664.3,245.6 670.0,247.0 675.7,244.3 681.4,242.8 687.1,242.7 692.9,242.1 698.6,241.7 704.3,238.7 710.0,237.9 715.7,237.6 721.4,236.9 727.1,235.6 732.8,235.7 738.5,235.5 744.2,234.4 749.9,234.7 755.6,235.3 761.3,234.0 767.0,234.0 772.7,232.6 778.4,232.6 784.1,233.9 789.8,233.5 795.5,231.7 801.2,231.4 807.0,231.6 812.7,229.6 818.4,227.3 824.1,228.8 829.8,226.6 835.5,225.2 841.2,226.2 846.9,225.5 852.6,225.0 858.3,227.6 864.0,228.7" fill="none" stroke="#FF3C3C" stroke-width="1.5" stroke-linejoin="round" stroke-linecap="round"/>
<line x1="16" y1="252" x2="864" y2="252" stroke="#2A3A4A" stroke-width="0.3" />
<text x="16" y="272" text-anchor="start" font-family="Courier New, Courier, monospace" font-size="10" fill="#FFA020" font-weight="bold">QUAL</text>
<text x="72" y="272" text-anchor="start" font-family="Courier New, Courier, monospace" font-size="10" fill="#E8A000" >QUALITY FACTOR</text>
<text x="340" y="272" text-anchor="end" font-family="Courier New, Courier, monospace" font-size="11" fill="#D8E8F0" font-weight="bold">210.92</text>
<text x="420" y="272" text-anchor="end" font-family="Courier New, Courier, monospace" font-size="11" fill="#00C878" >+0.24%</text>
<text x="500" y="272" text-anchor="end" font-family="Courier New, Courier, monospace" font-size="11" fill="#00C878" >+6.12%</text>
<polyline points="516.0,265.3 521.7,264.2 527.4,266.0 533.1,264.5 538.8,263.3 544.5,263.8 550.2,263.8 555.9,264.1 561.6,265.9 567.3,265.0 573.0,266.5 578.8,269.0 584.5,267.3 590.2,267.6 595.9,268.3 601.6,271.1 607.3,272.0 613.0,270.4 618.7,270.2 624.4,272.5 630.1,272.4 635.8,274.4 641.5,272.7 647.2,273.2 652.9,272.5 658.6,275.9 664.3,278.3 670.0,279.0 675.7,274.5 681.4,273.7 687.1,273.3 692.9,272.6 698.6,273.1 704.3,268.4 710.0,267.3 715.7,268.0 721.4,266.5 727.1,264.7 732.8,263.8 738.5,263.8 744.2,261.6 749.9,261.9 755.6,262.9 761.3,261.4 767.0,262.5 772.7,261.2 778.4,261.4 784.1,262.5 789.8,262.6 795.5,261.4 801.2,261.4 807.0,262.3 812.7,261.1 818.4,259.0 824.1,259.5 829.8,258.6 835.5,258.5 841.2,258.7 846.9,258.2 852.6,257.0 858.3,258.6 864.0,258.2" fill="none" stroke="#00C878" stroke-width="1.5" stroke-linejoin="round" stroke-linecap="round"/>
<line x1="16" y1="284" x2="864" y2="284" stroke="#2A3A4A" stroke-width="0.3" />
<line x1="0" y1="284" x2="880" y2="284" stroke="#E8A000" stroke-width="0.4" />
<text x="16" y="297" text-anchor="start" font-family="Courier New, Courier, monospace" font-size="8" fill="#506070" >SRC: YAHOO FINANCE  ·  AUTO-UPDATE 22:00 UTC WEEKDAYS  ·  GITHUB.COM/YANKRUZISKI</text>
<text x="864" y="297" text-anchor="end" font-family="Courier New, Courier, monospace" font-size="8" fill="#506070" >2026-05-18</text>
</svg>