<svg xmlns="http://www.w3.org/2000/svg" width="880" height="322" viewBox="0 0 880 322">
<rect width="880" height="322" fill="#040810"/>
<rect x="0.5" y="0.5" width="879" height="321" fill="none" stroke="#E8A000" stroke-width="0.7" opacity="0.5"/>
<rect x="0" y="0" width="880" height="18" fill="#D87000"/>
<text x="16" y="14" text-anchor="start" font-family="Courier New, Courier, monospace" font-size="9" fill="#030608" font-weight="bold">BLOOMBERG</text>
<text x="88" y="14" text-anchor="start" font-family="Courier New, Courier, monospace" font-size="9" fill="#030608">QUANT MARKET MONITOR</text>
<text x="440" y="14" text-anchor="middle" font-family="Courier New, Courier, monospace" font-size="9" fill="#030608">EQUITY  &amp;  VOLATILITY  DASHBOARD</text>
<text x="864" y="14" text-anchor="end" font-family="Courier New, Courier, monospace" font-size="9" fill="#030608">2026-05-10  22:13 UTC</text>
<line x1="0" y1="38" x2="880" y2="38" stroke="#E8A000" stroke-width="0.8"/>
<text x="16" y="35" text-anchor="start" font-family="Courier New, Courier, monospace" font-size="9" fill="#506070">YAN KRUZISKI  ·  VP OF INTELI RESEARCH  ·  SÃO PAULO, BR</text>
<text x="864" y="35" text-anchor="end" font-family="Courier New, Courier, monospace" font-size="9" fill="#506070">PAGE 1/1</text>
<rect x="0" y="38" width="880" height="22" fill="#E8A000" opacity="0.14"/>
<text x="16" y="54" text-anchor="start" font-family="Courier New, Courier, monospace" font-size="9" fill="#FFA020" font-weight="bold">TICKER</text>
<text x="72" y="54" text-anchor="start" font-family="Courier New, Courier, monospace" font-size="9" fill="#FFA020" font-weight="bold">DESCRIPTION</text>
<text x="340" y="54" text-anchor="end" font-family="Courier New, Courier, monospace" font-size="9" fill="#FFA020" font-weight="bold">LAST</text>
<text x="420" y="54" text-anchor="end" font-family="Courier New, Courier, monospace" font-size="9" fill="#FFA020" font-weight="bold">%CHG</text>
<text x="500" y="54" text-anchor="end" font-family="Courier New, Courier, monospace" font-size="9" fill="#FFA020" font-weight="bold">YTD%</text>
<text x="698" y="54" text-anchor="middle" font-family="Courier New, Courier, monospace" font-size="9" fill="#FFA020" font-weight="bold">3-MONTH</text>
<line x1="0" y1="60" x2="880" y2="60" stroke="#E8A000" stroke-width="0.9"/>
<rect x="0" y="60" width="880" height="32" fill="#E8A000" opacity="0.09"/>
<text x="16" y="80" text-anchor="start" font-family="Courier New, Courier, monospace" font-size="10" fill="#FFA020" font-weight="bold">^VIX</text>
<text x="72" y="80" text-anchor="start" font-family="Courier New, Courier, monospace" font-size="10" fill="#E8A000" font-weight="bold">CBOE VOLATILITY INDEX</text>
<text x="340" y="80" text-anchor="end" font-family="Courier New, Courier, monospace" font-size="11" fill="#D8E8F0" font-weight="bold">17.19</text>
<text x="420" y="80" text-anchor="end" font-family="Courier New, Courier, monospace" font-size="11" fill="#FF3C3C" font-weight="bold">+0.64%</text>
<text x="500" y="80" text-anchor="end" font-family="Courier New, Courier, monospace" font-size="10" fill="#FF3C3C" font-weight="bold">NORMAL</text>
<polyline points="516,87 518.8,86.1 521.6,86.5 524.4,79.8 527.3,80.3 530.1,81.0 532.9,82.4 535.7,81.1 538.5,83.5 541.4,79.4 544.2,82.4 547.0,85.8 549.8,84.3 552.6,81.6 555.5,78.4 558.3,73.9 561.1,79.0 563.9,73.8 566.8,61.7 569.6,70.1 572.4,71.3 575.2,72.7 578.0,66.3 580.9,66.5 583.7,73.9 586.5,76.4 589.3,70.7 592.1,72.9 595.0,67.2 597.8,68.6 600.6,66.9 603.4,70.4 606.3,66.0 609.1,58.2 611.9,59.1 614.7,70.2 617.5,71.8 620.4,73.3 623.2,72.6 626.0,69.3 628.8,79.4 631.6,82.4 634.5,82.9 637.3,83.1 640.1,84.8 642.9,85.1 645.8,85.7 648.6,86.7 651.4,83.6 654.2,82.1 657.0,83.4 659.9,82.6 662.7,83.9 665.5,85.3 668.3,85.7 671.1,83.8 674.0,87.5 676.8,87.3 679.6,84.6 682.4,86.7 685.3,86.7 688.1,87.5 690.9,87.2" fill="none" stroke="#FF3C3C" stroke-width="1.5" stroke-linejoin="round" stroke-linecap="round"/>
<line x1="0" y1="92" x2="880" y2="92" stroke="#E8A000" stroke-width="0.5"/>
<text x="16" y="112" text-anchor="start" font-family="Courier New, Courier, monospace" font-size="10" fill="#FFA020" font-weight="bold">IBOV</text>
<text x="72" y="112" text-anchor="start" font-family="Courier New, Courier, monospace" font-size="10" fill="#E8A000">IBOVESPA</text>
<text x="340" y="112" text-anchor="end" font-family="Courier New, Courier, monospace" font-size="11" fill="#D8E8F0" font-weight="bold">184,108</text>
<text x="420" y="112" text-anchor="end" font-family="Courier New, Courier, monospace" font-size="11" fill="#00C878">+0.49%</text>
<text x="500" y="112" text-anchor="end" font-family="Courier New, Courier, monospace" font-size="11" fill="#00C878">+14.68%</text>
<polyline points="516,109 518.9,109.4 521.8,104.6 524.7,107.1 527.6,108.8 530.5,109.4 533.4,106.2 536.3,103.7 539.2,106.0 542.1,102.5 545.0,102.9 547.9,103.3 550.8,106.0 553.7,105.3 556.6,113.3 559.5,110.4 562.4,116.7 565.3,118.2 568.2,116.1 571.1,112.8 574.0,112.1 576.9,118.2 579.8,120.4 582.7,117.5 585.6,116.8 588.5,117.8 591.4,117.0 594.3,122.2 597.2,114.8 600.1,114.1 603.0,110.2 605.9,113.9 608.8,115.4 611.7,114.1 614.6,107.7 617.5,107.1 620.4,107.0 623.3,106.8 626.2,106.7 629.1,101.5 632.0,97.7 634.9,94.7 637.8,93.9 640.7,93.1 643.6,94.3 646.5,95.4 649.4,96.9 652.3,96.4 655.2,100.7 658.1,102.6 661.0,103.5 663.9,104.9 666.8,106.2 669.7,111.3 672.6,107.9 675.5,110.2 678.4,108.8 681.3,107.6 684.2,113.5 687.1,112.4" fill="none" stroke="#00C878" stroke-width="1.5" stroke-linejoin="round" stroke-linecap="round"/>
<line x1="16" y1="124" x2="864" y2="124" stroke="#2A3A4A" stroke-width="0.3"/>
<rect x="0" y="124" width="880" height="32" fill="#FFFFFF" opacity="0.02"/>
<text x="16" y="144" text-anchor="start" font-family="Courier New, Courier, monospace" font-size="10" fill="#FFA020" font-weight="bold">SPY</text>
<text x="72" y="144" text-anchor="start" font-family="Courier New, Courier, monospace" font-size="10" fill="#E8A000">S&amp;P 500</text>
<text x="340" y="144" text-anchor="end" font-family="Courier New, Courier, monospace" font-size="11" fill="#D8E8F0" font-weight="bold">737.62</text>
<text x="420" y="144" text-anchor="end" font-family="Courier New, Courier, monospace" font-size="11" fill="#00C878">+0.85%</text>
<text x="500" y="144" text-anchor="end" font-family="Courier New, Courier, monospace" font-size="11" fill="#00C878">+8.27%</text>
<polyline points="516,140 518.7,140.6 521.4,140.6 524.0,143.5 526.7,143.4 529.4,143.1 532.1,142.2 534.7,142.6 537.4,141.3 540.1,143.2 542.8,141.9 545.4,140.4 548.1,141.5 550.8,142.3 553.5,142.2 556.1,143.9 558.8,142.6 561.5,143.6 564.2,145.9 566.8,144.4 569.5,144.6 572.2,144.8 574.9,147.7 577.5,148.6 580.2,146.8 582.9,146.4 585.6,148.9 588.2,149.4 590.9,151.9 593.6,150.1 596.3,150.7 598.9,149.7 601.6,153.0 604.3,155.9 607.0,156.5 609.6,151.6 612.3,150.3 615.0,150.1 617.7,149.4 620.3,149.2 623.0,144.6 625.7,143.5 628.4,143.7 631.0,141.9 633.7,139.6 636.4,138.3 639.1,137.7 641.7,135.6 644.4,135.9 647.1,137.3 649.8,135.3 652.4,136.1 655.1,134.6 657.8,134.2 660.5,135.3 663.1,135.3 665.8,133.4 668.5,133.0 671.2,133.6 673.8,132.1 676.5,129.5 679.2,130.2 681.9,128.5" fill="none" stroke="#00C878" stroke-width="1.5" stroke-linejoin="round" stroke-linecap="round"/>
<line x1="16" y1="156" x2="864" y2="156" stroke="#2A3A4A" stroke-width="0.3"/>
<text x="16" y="176" text-anchor="start" font-family="Courier New, Courier, monospace" font-size="10" fill="#FFA020" font-weight="bold">QQQ</text>
<text x="72" y="176" text-anchor="start" font-family="Courier New, Courier, monospace" font-size="10" fill="#E8A000">NASDAQ 100</text>
<text x="340" y="176" text-anchor="end" font-family="Courier New, Courier, monospace" font-size="11" fill="#D8E8F0" font-weight="bold">711.23</text>
<text x="420" y="176" text-anchor="end" font-family="Courier New, Courier, monospace" font-size="11" fill="#00C878">+2.37%</text>
<text x="500" y="176" text-anchor="end" font-family="Courier New, Courier, monospace" font-size="11" fill="#00C878">+16.15%</text>
<polyline points="516,173 518.7,173.5 521.4,173.2 524.0,175.5 526.7,175.3 529.4,175.4 532.1,174.6 534.7,174.9 537.4,174.0 540.1,175.5 542.8,174.3 545.4,172.6 548.1,174.0 550.8,174.4 553.5,174.3 556.1,175.5 558.8,173.8 561.5,174.2 564.2,175.9 566.8,174.4 569.5,174.4 572.2,174.4 574.9,176.3 577.5,177.0 580.2,175.8 582.9,175.4 585.6,176.9 588.2,177.2 590.9,179.3 593.6,178.0 596.3,178.7 598.9,178.0 601.6,180.6 604.3,182.7 607.0,183.4 609.6,179.9 612.3,178.6 615.0,178.5 617.7,177.8 620.3,177.7 623.0,174.5 625.7,173.8 628.4,173.6 631.0,172.5 633.7,170.3 636.4,168.8 639.1,168.2 641.7,166.7 644.4,167.1 647.1,167.5 649.8,165.4 652.4,166.2 655.1,163.8 657.8,163.8 660.5,165.0 663.1,164.2 665.8,163.2 668.5,162.0 671.2,162.2 673.8,160.6 676.5,158.0 679.2,158.3 681.9,155.4" fill="none" stroke="#00C878" stroke-width="1.5" stroke-linejoin="round" stroke-linecap="round"/>
<line x1="16" y1="188" x2="864" y2="188" stroke="#2A3A4A" stroke-width="0.3"/>
<rect x="0" y="188" width="880" height="32" fill="#FFFFFF" opacity="0.02"/>
<text x="16" y="208" text-anchor="start" font-family="Courier New, Courier, monospace" font-size="10" fill="#FFA020" font-weight="bold">QMOM</text>
<text x="72" y="208" text-anchor="start" font-family="Courier New, Courier, monospace" font-size="10" fill="#E8A000">QUANT MOMENTUM</text>
<text x="340" y="208" text-anchor="end" font-family="Courier New, Courier, monospace" font-size="11" fill="#D8E8F0" font-weight="bold">78.67</text>
<text x="420" y="208" text-anchor="end" font-family="Courier New, Courier, monospace" font-size="11" fill="#00C878">+1.61%</text>
<text x="500" y="208" text-anchor="end" font-family="Courier New, Courier, monospace" font-size="11" fill="#00C878">+18.32%</text>
<polyline points="516,205 518.7,206.8 521.4,205.6 524.0,207.7 526.7,205.8 529.4,205.3 532.1,204.3 534.7,203.4 537.4,202.3 540.1,203.9 542.8,201.7 545.4,201.1 548.1,200.5 550.8,201.4 553.5,200.2 556.1,205.2 558.8,204.2 561.5,207.9 564.2,210.6 566.8,207.2 569.5,206.3 572.2,207.2 574.9,210.1 577.5,212.1 580.2,209.2 582.9,208.3 585.6,209.7 588.2,209.2 590.9,213.5 593.6,210.6 596.3,208.9 598.9,207.1 601.6,211.9 604.3,212.7 607.0,216.4 609.6,209.8 612.3,207.3 615.0,207.6 617.7,207.3 620.3,207.1 623.0,201.2 625.7,200.4 628.4,200.1 631.0,199.0 633.7,197.8 636.4,198.9 639.1,198.6 641.7,195.8 644.4,195.7 647.1,197.4 649.8,196.3 652.4,195.7 655.1,195.6 657.8,196.1 660.5,199.3 663.1,200.6 665.8,194.9 668.5,195.4 671.2,195.0 673.8,193.2 676.5,188.7 679.2,193.8 681.9,191.6" fill="none" stroke="#00C878" stroke-width="1.5" stroke-linejoin="round" stroke-linecap="round"/>
<line x1="16" y1="220" x2="864" y2="220" stroke="#2A3A4A" stroke-width="0.3"/>
<text x="16" y="240" text-anchor="start" font-family="Courier New, Courier, monospace" font-size="10" fill="#FFA020" font-weight="bold">MTUM</text>
<text x="72" y="240" text-anchor="start" font-family="Courier New, Courier, monospace" font-size="10" fill="#E8A000">MOMENTUM FACTOR</text>
<text x="340" y="240" text-anchor="end" font-family="Courier New, Courier, monospace" font-size="11" fill="#D8E8F0" font-weight="bold">301.80</text>
<text x="420" y="240" text-anchor="end" font-family="Courier New, Courier, monospace" font-size="11" fill="#00C878">+3.00%</text>
<text x="500" y="240" text-anchor="end" font-family="Courier New, Courier, monospace" font-size="11" fill="#00C878">+19.52%</text>
<polyline points="516,237 518.7,238.0 521.4,238.0 524.0,239.9 526.7,239.4 529.4,239.2 532.1,238.6 534.7,238.6 537.4,238.1 540.1,240.0 542.8,239.1 545.4,237.5 548.1,238.1 550.8,238.9 553.5,238.5 556.1,241.1 558.8,239.7 561.5,241.1 564.2,243.3 566.8,241.1 569.5,240.7 572.2,240.5 574.9,242.4 577.5,242.5 580.2,241.2 582.9,240.6 585.6,241.3 588.2,241.1 590.9,243.2 593.6,241.9 596.3,241.5 598.9,240.8 601.6,244.4 604.3,245.3 607.0,247.2 609.6,243.6 612.3,241.5 615.0,241.3 617.7,240.6 620.3,239.9 623.0,235.9 625.7,234.8 628.4,234.4 631.0,233.4 633.7,231.7 636.4,231.8 639.1,231.4 641.7,230.1 644.4,230.4 647.1,231.3 649.8,229.4 652.4,229.5 655.1,227.6 657.8,227.6 660.5,229.4 663.1,228.8 665.8,226.4 668.5,226.0 671.2,226.2 673.8,223.7 676.5,220.7 679.2,222.7 681.9,219.7" fill="none" stroke="#00C878" stroke-width="1.5" stroke-linejoin="round" stroke-linecap="round"/>
<line x1="16" y1="252" x2="864" y2="252" stroke="#2A3A4A" stroke-width="0.3"/>
<rect x="0" y="252" width="880" height="32" fill="#FFFFFF" opacity="0.02"/>
<text x="16" y="272" text-anchor="start" font-family="Courier New, Courier, monospace" font-size="10" fill="#FFA020" font-weight="bold">QUAL</text>
<text x="72" y="272" text-anchor="start" font-family="Courier New, Courier, monospace" font-size="10" fill="#E8A000">QUALITY FACTOR</text>
<text x="340" y="272" text-anchor="end" font-family="Courier New, Courier, monospace" font-size="11" fill="#D8E8F0" font-weight="bold">210.43</text>
<text x="420" y="272" text-anchor="end" font-family="Courier New, Courier, monospace" font-size="11" fill="#00C878">+0.68%</text>
<text x="500" y="272" text-anchor="end" font-family="Courier New, Courier, monospace" font-size="11" fill="#00C878">+5.87%</text>
<polyline points="516,264 518.7,264.6 521.4,264.4 524.0,268.0 526.7,266.8 529.4,266.3 532.1,264.8 534.7,265.3 537.4,263.8 540.1,266.2 542.8,264.3 545.4,262.6 548.1,263.4 550.8,263.3 553.5,263.7 556.1,266.3 558.8,264.9 561.5,267.0 564.2,270.4 566.8,268.1 569.5,268.6 572.2,269.5 574.9,273.4 577.5,274.5 580.2,272.5 582.9,272.1 585.6,275.4 588.2,275.2 590.9,277.9 593.6,275.6 596.3,276.3 598.9,275.3 601.6,280.0 604.3,283.3 607.0,284.2 609.6,278.1 612.3,277.0 615.0,276.6 617.7,275.5 620.3,276.3 623.0,269.8 625.7,268.5 628.4,269.4 631.0,267.4 633.7,265.0 636.4,263.8 639.1,263.8 641.7,260.8 644.4,261.3 647.1,262.6 649.8,260.5 652.4,261.9 655.1,260.3 657.8,260.5 660.5,261.9 663.1,262.1 665.8,260.5 668.5,260.6 671.2,261.7 673.8,260.2 676.5,257.2 679.2,257.9 681.9,256.7" fill="none" stroke="#00C878" stroke-width="1.5" stroke-linejoin="round" stroke-linecap="round"/>
<line x1="16" y1="284" x2="864" y2="284" stroke="#2A3A4A" stroke-width="0.3"/>
<line x1="0" y1="288" x2="880" y2="288" stroke="#E8A000" stroke-width="0.4"/>
<text x="16" y="300" text-anchor="start" font-family="Courier New, Courier, monospace" font-size="8" fill="#506070">SRC: YAHOO FINANCE  ·  AUTO-UPDATE 22:00 UTC WEEKDAYS  ·  GITHUB.COM/YANKRUZISKI</text>
<text x="864" y="300" text-anchor="end" font-family="Courier New, Courier, monospace" font-size="8" fill="#506070">2026-05-10</text>
<rect x="0" y="302" width="880" height="20" fill="#D87000"/>
<text x="64" y="316" text-anchor="middle" font-family="Courier New, Courier, monospace" font-size="9" fill="#030608" font-weight="bold">F1=HELP</text>
<text x="160" y="316" text-anchor="middle" font-family="Courier New, Courier, monospace" font-size="9" fill="#030608" font-weight="bold">F2=MAIN</text>
<text x="256" y="316" text-anchor="middle" font-family="Courier New, Courier, monospace" font-size="9" fill="#030608" font-weight="bold">F3=SAVE</text>
<text x="352" y="316" text-anchor="middle" font-family="Courier New, Courier, monospace" font-size="9" fill="#030608" font-weight="bold">F4=BACK</text>
<text x="448" y="316" text-anchor="middle" font-family="Courier New, Courier, monospace" font-size="9" fill="#030608" font-weight="bold">F5=WKSH</text>
<text x="544" y="316" text-anchor="middle" font-family="Courier New, Courier, monospace" font-size="9" fill="#030608" font-weight="bold">F6=SRCH</text>
<text x="640" y="316" text-anchor="middle" font-family="Courier New, Courier, monospace" font-size="9" fill="#030608" font-weight="bold">F8=NEWS</text>
<text x="736" y="316" text-anchor="middle" font-family="Courier New, Courier, monospace" font-size="9" fill="#030608" font-weight="bold">F9=PGUP</text>
<text x="832" y="316" text-anchor="middle" font-family="Courier New, Courier, monospace" font-size="9" fill="#030608" font-weight="bold">F10=PGDN</text>
</svg>
