<svg xmlns="http://www.w3.org/2000/svg" width="880" height="302" viewBox="0 0 880 302">
<rect width="880" height="302" fill="#040810"/>
<rect x="0.5" y="0.5" width="879" height="301" fill="none" stroke="#E8A000" stroke-width="0.7" opacity="0.5"/>
<rect x="0" y="0" width="880" height="18" fill="#D87000"/>
<text x="16" y="14" text-anchor="start" font-family="Courier New, Courier, monospace" font-size="9" fill="#030608" font-weight="bold">BLOOMBERG</text>
<text x="88" y="14" text-anchor="start" font-family="Courier New, Courier, monospace" font-size="9" fill="#030608" >QUANT MARKET MONITOR</text>
<text x="440" y="14" text-anchor="middle" font-family="Courier New, Courier, monospace" font-size="9" fill="#030608" >EQUITY  &amp;  VOLATILITY  DASHBOARD</text>
<text x="864" y="14" text-anchor="end" font-family="Courier New, Courier, monospace" font-size="9" fill="#030608" >2026-07-13  22:20 UTC</text>
<line x1="0" y1="38" x2="880" y2="38" stroke="#E8A000" stroke-width="0.8" />
<text x="16" y="33" text-anchor="start" font-family="Courier New, Courier, monospace" font-size="9" fill="#506070" >YAN KRUZISKI  ·  VP OF INTELI RESEARCH  ·  SÃO PAULO, BR</text>
<text x="864" y="33" text-anchor="end" font-family="Courier New, Courier, monospace" font-size="9" fill="#506070" >PAGE 1/1</text>
<rect x="0" y="38" width="880" height="22" fill="#E8A000" opacity="0.14"/>
<text x="16" y="54" text-anchor="start" font-family="Courier New, Courier, monospace" font-size="9" fill="#FFA020" font-weight="bold">TICKER</text>
<text x="72" y="54" text-anchor="start" font-family="Courier New, Courier, monospace" font-size="9" fill="#FFA020" font-weight="bold">DESCRIPTION</text>
<text x="340" y="54" text-anchor="end" font-family="Courier New, Courier, monospace" font-size="9" fill="#FFA020" font-weight="bold">LAST</text>
<text x="420" y="54" text-anchor="end" font-family="Courier New, Courier, monospace" font-size="9" fill="#FFA020" font-weight="bold">%CHG</text>
<text x="500" y="54" text-anchor="end" font-family="Courier New, Courier, monospace" font-size="9" fill="#FFA020" font-weight="bold">YTD%</text>
<text x="690" y="54" text-anchor="middle" font-family="Courier New, Courier, monospace" font-size="9" fill="#FFA020" font-weight="bold">3-MONTH</text>
<line x1="0" y1="60" x2="880" y2="60" stroke="#E8A000" stroke-width="0.9" />
<rect x="0" y="60" width="880" height="32" fill="#E8A000" opacity="0.09"/>
<text x="16" y="80" text-anchor="start" font-family="Courier New, Courier, monospace" font-size="10" fill="#FFA020" font-weight="bold">^VIX</text>
<text x="72" y="80" text-anchor="start" font-family="Courier New, Courier, monospace" font-size="10" fill="#E8A000" font-weight="bold">CBOE VOLATILITY INDEX</text>
<text x="340" y="80" text-anchor="end" font-family="Courier New, Courier, monospace" font-size="11" fill="#D8E8F0" font-weight="bold">17.16</text>
<text x="420" y="80" text-anchor="end" font-family="Courier New, Courier, monospace" font-size="11" fill="#FF3C3C" font-weight="bold">+14.10%</text>
<text x="500" y="80" text-anchor="end" font-family="Courier New, Courier, monospace" font-size="10" fill="#FF3C3C" font-weight="bold">NORMAL</text>
<polyline points="516.0,74.5 521.5,76.8 527.0,77.4 532.6,78.1 538.1,79.5 543.6,75.3 549.1,73.3 554.7,75.1 560.2,73.9 565.7,75.7 571.2,77.9 576.8,78.4 582.3,75.4 587.8,81.3 593.3,81.0 598.9,77.0 604.4,79.8 609.9,79.8 615.4,80.7 621.0,80.4 626.5,76.7 632.0,77.9 637.5,78.3 643.0,80.2 648.6,76.6 654.1,78.5 659.6,77.7 665.1,79.6 670.7,81.7 676.2,81.9 681.7,82.2 687.2,80.9 692.8,83.1 698.3,84.8 703.8,86.1 709.3,83.9 714.9,84.7 720.4,83.8 725.9,85.9 731.4,67.2 737.0,75.1 742.5,72.2 748.0,65.0 753.5,73.5 759.0,78.9 764.6,83.4 770.1,82.8 775.6,76.6 781.1,82.8 786.7,80.1 792.2,73.4 797.7,76.0 803.2,75.2 808.8,76.7 814.3,79.0 819.8,82.7 825.3,82.2 830.9,83.6 836.4,85.3 841.9,83.6 847.4,81.3 853.0,84.5 858.5,87.0 864.0,80.5" fill="none" stroke="#FF3C3C" stroke-width="1.5" stroke-linejoin="round" stroke-linecap="round"/>
<line x1="0" y1="92" x2="880" y2="92" stroke="#E8A000" stroke-width="0.5" />
<rect x="0" y="92" width="880" height="32" fill="#FFFFFF" opacity="0.02"/>
<text x="16" y="112" text-anchor="start" font-family="Courier New, Courier, monospace" font-size="10" fill="#FFA020" font-weight="bold">IBOV</text>
<text x="72" y="112" text-anchor="start" font-family="Courier New, Courier, monospace" font-size="10" fill="#E8A000" >IBOVESPA</text>
<text x="340" y="112" text-anchor="end" font-family="Courier New, Courier, monospace" font-size="11" fill="#D8E8F0" font-weight="bold">175,739</text>
<text x="420" y="112" text-anchor="end" font-family="Courier New, Courier, monospace" font-size="11" fill="#FF3C3C" >-1.20%</text>
<text x="500" y="112" text-anchor="end" font-family="Courier New, Courier, monospace" font-size="11" fill="#00C878" >+9.47%</text>
<polyline points="516.0,97.5 521.6,97.0 527.2,97.7 532.8,98.3 538.5,99.1 544.1,98.8 549.7,101.2 555.3,102.3 560.9,102.7 566.5,103.6 572.1,104.3 577.7,107.1 583.4,105.2 589.0,106.5 594.6,105.6 600.2,104.9 605.8,108.2 611.4,107.5 617.0,109.1 622.6,110.3 628.3,112.6 633.9,111.7 639.5,112.5 645.1,112.7 650.7,114.7 656.3,112.4 661.9,112.2 667.5,113.3 673.2,112.4 678.8,113.0 684.4,113.6 690.0,114.1 695.6,115.0 701.2,116.2 706.8,114.7 712.5,117.5 718.1,118.5 723.7,118.7 729.3,117.9 734.9,118.8 740.5,116.7 746.1,116.9 751.7,117.5 757.4,118.0 763.0,118.9 768.6,119.0 774.2,118.8 779.8,117.5 785.4,116.8 791.0,117.4 796.6,116.3 802.3,115.4 807.9,115.4 813.5,116.3 819.1,116.5 824.7,115.7 830.3,114.7 835.9,116.0 841.5,116.3 847.2,117.3 852.8,115.8 858.4,112.1 864.0,113.6" fill="none" stroke="#FF3C3C" stroke-width="1.5" stroke-linejoin="round" stroke-linecap="round"/>
<line x1="16" y1="124" x2="864" y2="124" stroke="#2A3A4A" stroke-width="0.3" />
<text x="16" y="144" text-anchor="start" font-family="Courier New, Courier, monospace" font-size="10" fill="#FFA020" font-weight="bold">SPY</text>
<text x="72" y="144" text-anchor="start" font-family="Courier New, Courier, monospace" font-size="10" fill="#E8A000" >S&amp;P 500</text>
<text x="340" y="144" text-anchor="end" font-family="Courier New, Courier, monospace" font-size="11" fill="#D8E8F0" font-weight="bold">749.17</text>
<text x="420" y="144" text-anchor="end" font-family="Courier New, Courier, monospace" font-size="11" fill="#FF3C3C" >-0.76%</text>
<text x="500" y="144" text-anchor="end" font-family="Courier New, Courier, monospace" font-size="11" fill="#00C878" >+10.24%</text>
<polyline points="516.0,151.0 521.7,149.1 527.4,148.6 533.1,145.7 538.8,146.2 544.5,147.7 550.2,145.3 555.9,146.3 561.6,144.4 567.3,144.0 573.0,145.2 578.8,145.2 584.5,142.8 590.2,142.2 595.9,143.0 601.6,141.1 607.3,137.7 613.0,138.5 618.7,136.4 624.4,135.8 630.1,136.2 635.8,134.8 641.5,132.9 647.2,135.9 652.9,136.1 658.6,137.7 664.3,135.2 670.0,134.7 675.7,133.7 681.4,132.0 687.1,132.1 692.9,130.7 698.6,130.0 704.3,129.3 710.0,129.0 715.7,130.8 721.4,129.8 727.1,136.4 732.8,135.9 738.5,136.6 744.2,140.5 749.9,136.4 755.6,135.0 761.3,130.6 767.0,132.1 772.7,135.3 778.4,132.7 784.1,133.5 789.8,137.1 795.5,137.3 801.2,136.9 807.0,138.7 812.7,134.6 818.4,132.7 824.1,133.0 829.8,133.3 835.5,131.1 841.2,132.4 846.9,133.1 852.6,131.0 858.3,129.9 864.0,131.9" fill="none" stroke="#FF3C3C" stroke-width="1.5" stroke-linejoin="round" stroke-linecap="round"/>
<line x1="16" y1="156" x2="864" y2="156" stroke="#2A3A4A" stroke-width="0.3" />
<rect x="0" y="156" width="880" height="32" fill="#FFFFFF" opacity="0.02"/>
<text x="16" y="176" text-anchor="start" font-family="Courier New, Courier, monospace" font-size="10" fill="#FFA020" font-weight="bold">QQQ</text>
<text x="72" y="176" text-anchor="start" font-family="Courier New, Courier, monospace" font-size="10" fill="#E8A000" >NASDAQ 100</text>
<text x="340" y="176" text-anchor="end" font-family="Courier New, Courier, monospace" font-size="11" fill="#D8E8F0" font-weight="bold">711.74</text>
<text x="420" y="176" text-anchor="end" font-family="Courier New, Courier, monospace" font-size="11" fill="#FF3C3C" >-2.02%</text>
<text x="500" y="176" text-anchor="end" font-family="Courier New, Courier, monospace" font-size="11" fill="#00C878" >+16.36%</text>
<polyline points="516.0,183.0 521.7,181.4 527.4,180.8 533.1,179.2 538.8,179.6 544.5,180.1 550.2,178.0 555.9,178.7 561.6,176.4 567.3,176.3 573.0,177.6 578.8,176.8 584.5,175.7 590.2,174.5 595.9,174.7 601.6,173.1 607.3,170.4 613.0,170.6 618.7,167.5 624.4,167.2 630.1,168.3 635.8,166.9 641.5,165.9 647.2,168.0 652.9,168.5 658.6,169.4 664.3,167.2 670.0,166.9 675.7,166.4 681.4,164.0 687.1,164.1 692.9,163.0 698.6,162.5 704.3,161.6 710.0,161.0 715.7,161.4 721.4,162.0 727.1,168.7 732.8,166.6 738.5,168.2 744.2,170.8 749.9,166.4 755.6,165.6 761.3,161.4 767.0,164.1 772.7,165.4 778.4,162.0 784.1,162.4 789.8,166.9 795.5,167.5 801.2,166.4 807.0,168.3 812.7,165.0 818.4,162.7 824.1,164.8 829.8,167.1 835.5,165.2 841.2,167.7 846.9,167.4 852.6,165.1 858.3,164.7 864.0,167.3" fill="none" stroke="#FF3C3C" stroke-width="1.5" stroke-linejoin="round" stroke-linecap="round"/>
<line x1="16" y1="188" x2="864" y2="188" stroke="#2A3A4A" stroke-width="0.3" />
<text x="16" y="208" text-anchor="start" font-family="Courier New, Courier, monospace" font-size="10" fill="#FFA020" font-weight="bold">QMOM</text>
<text x="72" y="208" text-anchor="start" font-family="Courier New, Courier, monospace" font-size="10" fill="#E8A000" >QUANT MOMENTUM</text>
<text x="340" y="208" text-anchor="end" font-family="Courier New, Courier, monospace" font-size="11" fill="#D8E8F0" font-weight="bold">74.99</text>
<text x="420" y="208" text-anchor="end" font-family="Courier New, Courier, monospace" font-size="11" fill="#FF3C3C" >-1.35%</text>
<text x="500" y="208" text-anchor="end" font-family="Courier New, Courier, monospace" font-size="11" fill="#00C878" >+12.79%</text>
<polyline points="516.0,210.8 521.7,212.5 527.4,211.9 533.1,207.7 538.8,207.5 544.5,210.1 550.2,208.2 555.9,207.4 561.6,207.3 567.3,208.0 573.0,212.9 578.8,215.0 584.5,206.5 590.2,207.1 595.9,206.6 601.6,203.8 607.3,196.6 613.0,204.6 618.7,201.2 624.4,197.8 630.1,199.8 635.8,197.9 641.5,197.5 647.2,204.9 652.9,208.3 658.6,210.9 664.3,206.5 670.0,205.2 675.7,204.4 681.4,198.2 687.1,199.6 692.9,197.7 698.6,196.4 704.3,196.9 710.0,193.0 715.7,193.8 721.4,194.5 727.1,206.2 732.8,204.8 738.5,207.3 744.2,212.3 749.9,202.8 755.6,200.0 761.3,198.5 767.0,200.8 772.7,202.2 778.4,200.8 784.1,196.6 789.8,202.5 795.5,204.5 801.2,200.8 807.0,205.9 812.7,202.7 818.4,201.1 824.1,204.8 829.8,208.9 835.5,207.2 841.2,209.9 846.9,207.3 852.6,206.2 858.3,208.5 864.0,211.3" fill="none" stroke="#FF3C3C" stroke-width="1.5" stroke-linejoin="round" stroke-linecap="round"/>
<line x1="16" y1="220" x2="864" y2="220" stroke="#2A3A4A" stroke-width="0.3" />
<rect x="0" y="220" width="880" height="32" fill="#FFFFFF" opacity="0.02"/>
<text x="16" y="240" text-anchor="start" font-family="Courier New, Courier, monospace" font-size="10" fill="#FFA020" font-weight="bold">MTUM</text>
<text x="72" y="240" text-anchor="start" font-family="Courier New, Courier, monospace" font-size="10" fill="#E8A000" >MOMENTUM FACTOR</text>
<text x="340" y="240" text-anchor="end" font-family="Courier New, Courier, monospace" font-size="11" fill="#D8E8F0" font-weight="bold">314.63</text>
<text x="420" y="240" text-anchor="end" font-family="Courier New, Courier, monospace" font-size="11" fill="#FF3C3C" >-2.57%</text>
<text x="500" y="240" text-anchor="end" font-family="Courier New, Courier, monospace" font-size="11" fill="#00C878" >+24.74%</text>
<polyline points="516.0,246.9 521.7,247.0 527.4,246.8 533.1,245.7 538.8,246.0 544.5,246.5 550.2,245.3 555.9,245.3 561.6,243.8 567.3,243.9 573.0,245.2 578.8,244.8 584.5,242.9 590.2,242.6 595.9,242.8 601.6,240.9 607.3,238.5 613.0,240.0 618.7,237.7 624.4,236.3 630.1,237.3 635.8,236.7 641.5,236.2 647.2,238.8 652.9,239.9 658.6,240.4 664.3,238.4 670.0,237.6 675.7,237.2 681.4,234.2 687.1,234.4 692.9,234.0 698.6,233.7 704.3,233.3 710.0,230.7 715.7,229.7 721.4,230.7 727.1,236.4 732.8,233.9 738.5,234.9 744.2,236.8 749.9,232.7 755.6,231.2 761.3,228.4 767.0,230.6 772.7,229.9 778.4,227.0 784.1,225.0 789.8,229.5 795.5,229.9 801.2,226.7 807.0,230.7 812.7,227.7 818.4,225.7 824.1,230.0 829.8,233.4 835.5,231.8 841.2,234.5 846.9,233.8 852.6,232.0 858.3,231.8 864.0,233.9" fill="none" stroke="#FF3C3C" stroke-width="1.5" stroke-linejoin="round" stroke-linecap="round"/>
<line x1="16" y1="252" x2="864" y2="252" stroke="#2A3A4A" stroke-width="0.3" />
<text x="16" y="272" text-anchor="start" font-family="Courier New, Courier, monospace" font-size="10" fill="#FFA020" font-weight="bold">QUAL</text>
<text x="72" y="272" text-anchor="start" font-family="Courier New, Courier, monospace" font-size="10" fill="#E8A000" >QUALITY FACTOR</text>
<text x="340" y="272" text-anchor="end" font-family="Courier New, Courier, monospace" font-size="11" fill="#D8E8F0" font-weight="bold">218.65</text>
<text x="420" y="272" text-anchor="end" font-family="Courier New, Courier, monospace" font-size="11" fill="#FF3C3C" >-0.31%</text>
<text x="500" y="272" text-anchor="end" font-family="Courier New, Courier, monospace" font-size="11" fill="#00C878" >+10.20%</text>
<polyline points="516.0,279.0 521.7,277.6 527.4,277.6 533.1,274.2 538.8,274.7 544.5,276.1 550.2,273.9 555.9,275.6 561.6,273.6 567.3,273.9 573.0,275.5 578.8,275.7 584.5,273.8 590.2,273.9 595.9,275.3 601.6,273.5 607.3,270.1 613.0,270.9 618.7,269.6 624.4,269.4 630.1,269.7 635.8,268.9 641.5,267.1 647.2,269.6 652.9,269.0 658.6,270.8 664.3,267.3 670.0,266.6 675.7,264.5 681.4,262.6 687.1,263.3 692.9,262.5 698.6,263.0 704.3,262.4 710.0,262.6 715.7,262.8 721.4,260.6 727.1,266.1 732.8,265.2 738.5,264.8 744.2,267.1 749.9,262.5 755.6,261.2 761.3,257.6 767.0,259.5 772.7,263.9 778.4,262.0 784.1,262.1 789.8,265.8 795.5,265.5 801.2,265.4 807.0,264.9 812.7,260.1 818.4,257.3 824.1,258.1 829.8,258.7 835.5,258.6 841.2,259.6 846.9,260.6 852.6,258.6 858.3,257.0 864.0,258.4" fill="none" stroke="#FF3C3C" stroke-width="1.5" stroke-linejoin="round" stroke-linecap="round"/>
<line x1="16" y1="284" x2="864" y2="284" stroke="#2A3A4A" stroke-width="0.3" />
<line x1="0" y1="284" x2="880" y2="284" stroke="#E8A000" stroke-width="0.4" />
<text x="16" y="297" text-anchor="start" font-family="Courier New, Courier, monospace" font-size="8" fill="#506070" >SRC: YAHOO FINANCE  ·  AUTO-UPDATE 22:00 UTC WEEKDAYS  ·  GITHUB.COM/YANKRUZISKI</text>
<text x="864" y="297" text-anchor="end" font-family="Courier New, Courier, monospace" font-size="8" fill="#506070" >2026-07-13</text>
</svg>