<svg xmlns="http://www.w3.org/2000/svg" width="880" height="302" viewBox="0 0 880 302">
<rect width="880" height="302" fill="#040810"/>
<rect x="0.5" y="0.5" width="879" height="301" fill="none" stroke="#E8A000" stroke-width="0.7" opacity="0.5"/>
<rect x="0" y="0" width="880" height="18" fill="#D87000"/>
<text x="16" y="14" text-anchor="start" font-family="Courier New, Courier, monospace" font-size="9" fill="#030608" font-weight="bold">BLOOMBERG</text>
<text x="88" y="14" text-anchor="start" font-family="Courier New, Courier, monospace" font-size="9" fill="#030608" >QUANT MARKET MONITOR</text>
<text x="440" y="14" text-anchor="middle" font-family="Courier New, Courier, monospace" font-size="9" fill="#030608" >EQUITY  &amp;  VOLATILITY  DASHBOARD</text>
<text x="864" y="14" text-anchor="end" font-family="Courier New, Courier, monospace" font-size="9" fill="#030608" >2026-07-07  22:25 UTC</text>
<line x1="0" y1="38" x2="880" y2="38" stroke="#E8A000" stroke-width="0.8" />
<text x="16" y="33" text-anchor="start" font-family="Courier New, Courier, monospace" font-size="9" fill="#506070" >YAN KRUZISKI  ·  VP OF INTELI RESEARCH  ·  SÃO PAULO, BR</text>
<text x="864" y="33" text-anchor="end" font-family="Courier New, Courier, monospace" font-size="9" fill="#506070" >PAGE 1/1</text>
<rect x="0" y="38" width="880" height="22" fill="#E8A000" opacity="0.14"/>
<text x="16" y="54" text-anchor="start" font-family="Courier New, Courier, monospace" font-size="9" fill="#FFA020" font-weight="bold">TICKER</text>
<text x="72" y="54" text-anchor="start" font-family="Courier New, Courier, monospace" font-size="9" fill="#FFA020" font-weight="bold">DESCRIPTION</text>
<text x="340" y="54" text-anchor="end" font-family="Courier New, Courier, monospace" font-size="9" fill="#FFA020" font-weight="bold">LAST</text>
<text x="420" y="54" text-anchor="end" font-family="Courier New, Courier, monospace" font-size="9" fill="#FFA020" font-weight="bold">%CHG</text>
<text x="500" y="54" text-anchor="end" font-family="Courier New, Courier, monospace" font-size="9" fill="#FFA020" font-weight="bold">YTD%</text>
<text x="690" y="54" text-anchor="middle" font-family="Courier New, Courier, monospace" font-size="9" fill="#FFA020" font-weight="bold">3-MONTH</text>
<line x1="0" y1="60" x2="880" y2="60" stroke="#E8A000" stroke-width="0.9" />
<rect x="0" y="60" width="880" height="32" fill="#E8A000" opacity="0.09"/>
<text x="16" y="80" text-anchor="start" font-family="Courier New, Courier, monospace" font-size="10" fill="#FFA020" font-weight="bold">^VIX</text>
<text x="72" y="80" text-anchor="start" font-family="Courier New, Courier, monospace" font-size="10" fill="#E8A000" font-weight="bold">CBOE VOLATILITY INDEX</text>
<text x="340" y="80" text-anchor="end" font-family="Courier New, Courier, monospace" font-size="11" fill="#D8E8F0" font-weight="bold">16.13</text>
<text x="420" y="80" text-anchor="end" font-family="Courier New, Courier, monospace" font-size="11" fill="#FF3C3C" font-weight="bold">+3.60%</text>
<text x="500" y="80" text-anchor="end" font-family="Courier New, Courier, monospace" font-size="10" fill="#FF3C3C" font-weight="bold">NORMAL</text>
<polyline points="516.0,68.8 521.7,73.7 527.4,74.5 533.1,74.9 538.8,77.3 544.5,77.9 550.2,78.6 555.9,80.1 561.6,75.7 567.3,73.7 573.0,75.5 578.8,74.3 584.5,76.2 590.2,78.4 595.9,79.0 601.6,75.9 607.3,82.0 613.0,81.7 618.7,77.5 624.4,80.4 630.1,80.4 635.8,81.4 641.5,81.0 647.2,77.2 652.9,78.5 658.6,78.9 664.3,80.8 670.0,77.1 675.7,79.0 681.4,78.3 687.1,80.2 692.9,82.4 698.6,82.6 704.3,81.6 710.0,83.9 715.7,85.7 721.4,87.0 727.1,84.7 732.8,85.6 738.5,84.6 744.2,86.7 749.9,67.3 755.6,75.5 761.3,72.5 767.0,65.0 772.7,73.9 778.4,79.5 784.1,84.2 789.8,83.5 795.5,77.1 801.2,83.6 807.0,80.8 812.7,73.7 818.4,76.4 824.1,75.6 829.8,77.1 835.5,79.6 841.2,83.4 846.9,83.0 852.6,84.4 858.3,86.2 864.0,84.4" fill="none" stroke="#FF3C3C" stroke-width="1.5" stroke-linejoin="round" stroke-linecap="round"/>
<line x1="0" y1="92" x2="880" y2="92" stroke="#E8A000" stroke-width="0.5" />
<rect x="0" y="92" width="880" height="32" fill="#FFFFFF" opacity="0.02"/>
<text x="16" y="112" text-anchor="start" font-family="Courier New, Courier, monospace" font-size="10" fill="#FFA020" font-weight="bold">IBOV</text>
<text x="72" y="112" text-anchor="start" font-family="Courier New, Courier, monospace" font-size="10" fill="#E8A000" >IBOVESPA</text>
<text x="340" y="112" text-anchor="end" font-family="Courier New, Courier, monospace" font-size="11" fill="#D8E8F0" font-weight="bold">172,021</text>
<text x="420" y="112" text-anchor="end" font-family="Courier New, Courier, monospace" font-size="11" fill="#FF3C3C" >-0.25%</text>
<text x="500" y="112" text-anchor="end" font-family="Courier New, Courier, monospace" font-size="11" fill="#00C878" >+7.15%</text>
<polyline points="516.0,104.5 521.6,101.7 527.2,99.6 532.8,98.0 538.5,97.5 544.1,97.0 549.7,97.7 555.3,98.3 560.9,99.1 566.5,98.8 572.1,101.2 577.7,102.3 583.4,102.7 589.0,103.6 594.6,104.3 600.2,107.1 605.8,105.2 611.4,106.5 617.0,105.6 622.6,104.9 628.3,108.2 633.9,107.5 639.5,109.1 645.1,110.3 650.7,112.6 656.3,111.7 661.9,112.5 667.5,112.7 673.2,114.7 678.8,112.4 684.4,112.2 690.0,113.3 695.6,112.4 701.2,113.0 706.8,113.6 712.5,114.1 718.1,115.0 723.7,116.2 729.3,114.7 734.9,117.5 740.5,118.5 746.1,118.7 751.7,117.9 757.4,118.8 763.0,116.7 768.6,116.9 774.2,117.5 779.8,118.0 785.4,118.9 791.0,119.0 796.6,118.8 802.3,117.5 807.9,116.8 813.5,117.4 819.1,116.3 824.7,115.4 830.3,115.4 835.9,116.3 841.5,116.5 847.2,115.7 852.8,114.7 858.4,116.0 864.0,116.3" fill="none" stroke="#FF3C3C" stroke-width="1.5" stroke-linejoin="round" stroke-linecap="round"/>
<line x1="16" y1="124" x2="864" y2="124" stroke="#2A3A4A" stroke-width="0.3" />
<text x="16" y="144" text-anchor="start" font-family="Courier New, Courier, monospace" font-size="10" fill="#FFA020" font-weight="bold">SPY</text>
<text x="72" y="144" text-anchor="start" font-family="Courier New, Courier, monospace" font-size="10" fill="#E8A000" >S&amp;P 500</text>
<text x="340" y="144" text-anchor="end" font-family="Courier New, Courier, monospace" font-size="11" fill="#D8E8F0" font-weight="bold">747.71</text>
<text x="420" y="144" text-anchor="end" font-family="Courier New, Courier, monospace" font-size="11" fill="#FF3C3C" >-0.39%</text>
<text x="500" y="144" text-anchor="end" font-family="Courier New, Courier, monospace" font-size="11" fill="#00C878" >+10.03%</text>
<polyline points="516.0,151.0 521.7,150.0 527.4,150.1 533.1,148.3 538.8,146.1 544.5,144.7 550.2,144.2 555.9,142.0 561.6,142.4 567.3,143.6 573.0,141.7 578.8,142.5 584.5,141.0 590.2,140.7 595.9,141.6 601.6,141.6 607.3,139.8 613.0,139.2 618.7,139.9 624.4,138.4 630.1,135.8 635.8,136.4 641.5,134.8 647.2,134.3 652.9,134.6 658.6,133.5 664.3,132.0 670.0,134.4 675.7,134.5 681.4,135.8 687.1,133.8 692.9,133.4 698.6,132.7 704.3,131.4 710.0,131.4 715.7,130.3 721.4,129.8 727.1,129.3 732.8,129.0 738.5,130.4 744.2,129.7 749.9,134.8 755.6,134.4 761.3,134.9 767.0,138.0 772.7,134.7 778.4,133.7 784.1,130.2 789.8,131.4 795.5,133.9 801.2,131.9 807.0,132.5 812.7,135.3 818.4,135.4 824.1,135.2 829.8,136.6 835.5,133.4 841.2,131.9 846.9,132.1 852.6,132.4 858.3,130.7 864.0,131.6" fill="none" stroke="#FF3C3C" stroke-width="1.5" stroke-linejoin="round" stroke-linecap="round"/>
<line x1="16" y1="156" x2="864" y2="156" stroke="#2A3A4A" stroke-width="0.3" />
<rect x="0" y="156" width="880" height="32" fill="#FFFFFF" opacity="0.02"/>
<text x="16" y="176" text-anchor="start" font-family="Courier New, Courier, monospace" font-size="10" fill="#FFA020" font-weight="bold">QQQ</text>
<text x="72" y="176" text-anchor="start" font-family="Courier New, Courier, monospace" font-size="10" fill="#E8A000" >NASDAQ 100</text>
<text x="340" y="176" text-anchor="end" font-family="Courier New, Courier, monospace" font-size="11" fill="#D8E8F0" font-weight="bold">709.43</text>
<text x="420" y="176" text-anchor="end" font-family="Courier New, Courier, monospace" font-size="11" fill="#FF3C3C" >-1.51%</text>
<text x="500" y="176" text-anchor="end" font-family="Courier New, Courier, monospace" font-size="11" fill="#00C878" >+15.98%</text>
<polyline points="516.0,183.0 521.7,182.4 527.4,182.2 533.1,181.2 538.8,179.5 544.5,178.1 550.2,177.6 555.9,176.3 561.6,176.6 567.3,177.0 573.0,175.3 578.8,175.9 584.5,173.9 590.2,173.9 595.9,174.9 601.6,174.3 607.3,173.3 613.0,172.3 618.7,172.5 624.4,171.1 630.1,168.9 635.8,169.0 641.5,166.5 647.2,166.2 652.9,167.1 658.6,165.9 664.3,165.1 670.0,166.8 675.7,167.3 681.4,168.0 687.1,166.2 692.9,166.0 698.6,165.5 704.3,163.5 710.0,163.6 715.7,162.7 721.4,162.2 727.1,161.5 732.8,161.0 738.5,161.3 744.2,161.9 749.9,167.5 755.6,165.7 761.3,167.0 767.0,169.2 772.7,165.6 778.4,164.9 784.1,161.3 789.8,163.6 795.5,164.7 801.2,161.9 807.0,162.2 812.7,166.0 818.4,166.5 824.1,165.6 829.8,167.1 835.5,164.3 841.2,162.4 846.9,164.2 852.6,166.1 858.3,164.5 864.0,166.6" fill="none" stroke="#FF3C3C" stroke-width="1.5" stroke-linejoin="round" stroke-linecap="round"/>
<line x1="16" y1="188" x2="864" y2="188" stroke="#2A3A4A" stroke-width="0.3" />
<text x="16" y="208" text-anchor="start" font-family="Courier New, Courier, monospace" font-size="10" fill="#FFA020" font-weight="bold">QMOM</text>
<text x="72" y="208" text-anchor="start" font-family="Courier New, Courier, monospace" font-size="10" fill="#E8A000" >QUANT MOMENTUM</text>
<text x="340" y="208" text-anchor="end" font-family="Courier New, Courier, monospace" font-size="11" fill="#D8E8F0" font-weight="bold">75.50</text>
<text x="420" y="208" text-anchor="end" font-family="Courier New, Courier, monospace" font-size="11" fill="#FF3C3C" >-1.30%</text>
<text x="500" y="208" text-anchor="end" font-family="Courier New, Courier, monospace" font-size="11" fill="#00C878" >+13.56%</text>
<polyline points="516.0,215.0 521.7,213.9 527.4,213.5 533.1,211.7 538.8,210.0 544.5,211.6 550.2,211.1 555.9,207.0 561.6,206.9 567.3,209.4 573.0,207.5 578.8,206.7 584.5,206.6 590.2,207.3 595.9,212.0 601.6,214.0 607.3,205.9 613.0,206.5 618.7,206.0 624.4,203.3 630.1,196.5 635.8,204.1 641.5,200.9 647.2,197.6 652.9,199.5 658.6,197.7 664.3,197.3 670.0,204.3 675.7,207.6 681.4,210.1 687.1,205.9 692.9,204.6 698.6,203.9 704.3,197.9 710.0,199.3 715.7,197.5 721.4,196.3 727.1,196.7 732.8,193.0 738.5,193.8 744.2,194.4 749.9,205.6 755.6,204.3 761.3,206.6 767.0,211.4 772.7,202.4 778.4,199.7 784.1,198.3 789.8,200.5 795.5,201.8 801.2,200.5 807.0,196.5 812.7,202.1 818.4,204.0 824.1,200.5 829.8,205.4 835.5,202.3 841.2,200.7 846.9,204.3 852.6,208.2 858.3,206.5 864.0,209.1" fill="none" stroke="#FF3C3C" stroke-width="1.5" stroke-linejoin="round" stroke-linecap="round"/>
<line x1="16" y1="220" x2="864" y2="220" stroke="#2A3A4A" stroke-width="0.3" />
<rect x="0" y="220" width="880" height="32" fill="#FFFFFF" opacity="0.02"/>
<text x="16" y="240" text-anchor="start" font-family="Courier New, Courier, monospace" font-size="10" fill="#FFA020" font-weight="bold">MTUM</text>
<text x="72" y="240" text-anchor="start" font-family="Courier New, Courier, monospace" font-size="10" fill="#E8A000" >MOMENTUM FACTOR</text>
<text x="340" y="240" text-anchor="end" font-family="Courier New, Courier, monospace" font-size="11" fill="#D8E8F0" font-weight="bold">312.44</text>
<text x="420" y="240" text-anchor="end" font-family="Courier New, Courier, monospace" font-size="11" fill="#FF3C3C" >-2.25%</text>
<text x="500" y="240" text-anchor="end" font-family="Courier New, Courier, monospace" font-size="11" fill="#00C878" >+23.87%</text>
<polyline points="516.0,247.0 521.7,246.3 527.4,246.0 533.1,245.4 538.8,244.3 544.5,244.4 550.2,244.1 555.9,243.2 561.6,243.4 567.3,243.9 573.0,242.8 578.8,242.8 584.5,241.6 590.2,241.6 595.9,242.8 601.6,242.4 607.3,240.8 613.0,240.5 618.7,240.7 624.4,238.9 630.1,236.9 635.8,238.2 641.5,236.2 647.2,235.0 652.9,235.8 658.6,235.3 664.3,234.8 670.0,237.1 675.7,238.1 681.4,238.6 687.1,236.8 692.9,236.1 698.6,235.7 704.3,233.1 710.0,233.3 715.7,232.9 721.4,232.6 727.1,232.3 732.8,230.0 738.5,229.1 744.2,230.0 749.9,235.0 755.6,232.8 761.3,233.7 767.0,235.4 772.7,231.8 778.4,230.4 784.1,228.0 789.8,229.9 795.5,229.3 801.2,226.7 807.0,225.0 812.7,229.0 818.4,229.3 824.1,226.5 829.8,230.0 835.5,227.4 841.2,225.6 846.9,229.4 852.6,232.4 858.3,231.0 864.0,233.4" fill="none" stroke="#FF3C3C" stroke-width="1.5" stroke-linejoin="round" stroke-linecap="round"/>
<line x1="16" y1="252" x2="864" y2="252" stroke="#2A3A4A" stroke-width="0.3" />
<text x="16" y="272" text-anchor="start" font-family="Courier New, Courier, monospace" font-size="10" fill="#FFA020" font-weight="bold">QUAL</text>
<text x="72" y="272" text-anchor="start" font-family="Courier New, Courier, monospace" font-size="10" fill="#E8A000" >QUALITY FACTOR</text>
<text x="340" y="272" text-anchor="end" font-family="Courier New, Courier, monospace" font-size="11" fill="#D8E8F0" font-weight="bold">217.74</text>
<text x="420" y="272" text-anchor="end" font-family="Courier New, Courier, monospace" font-size="11" fill="#FF3C3C" >-0.09%</text>
<text x="500" y="272" text-anchor="end" font-family="Courier New, Courier, monospace" font-size="11" fill="#00C878" >+9.74%</text>
<polyline points="516.0,279.0 521.7,277.7 527.4,278.5 533.1,276.6 538.8,274.5 544.5,273.3 550.2,273.4 555.9,270.6 561.6,271.0 567.3,272.2 573.0,270.4 578.8,271.7 584.5,270.1 590.2,270.4 595.9,271.7 601.6,271.9 607.3,270.3 613.0,270.4 618.7,271.5 624.4,270.0 630.1,267.3 635.8,268.0 641.5,266.9 647.2,266.8 652.9,267.0 658.6,266.4 664.3,264.9 670.0,266.9 675.7,266.4 681.4,267.8 687.1,265.0 692.9,264.5 698.6,262.8 704.3,261.3 710.0,261.8 715.7,261.2 721.4,261.6 727.1,261.1 732.8,261.3 738.5,261.4 744.2,259.6 749.9,264.1 755.6,263.3 761.3,263.0 767.0,264.9 772.7,261.1 778.4,260.1 784.1,257.2 789.8,258.8 795.5,262.3 801.2,260.7 807.0,260.8 812.7,263.8 818.4,263.6 824.1,263.5 829.8,263.1 835.5,259.3 841.2,257.0 846.9,257.6 852.6,258.1 858.3,258.0 864.0,258.8" fill="none" stroke="#FF3C3C" stroke-width="1.5" stroke-linejoin="round" stroke-linecap="round"/>
<line x1="16" y1="284" x2="864" y2="284" stroke="#2A3A4A" stroke-width="0.3" />
<line x1="0" y1="284" x2="880" y2="284" stroke="#E8A000" stroke-width="0.4" />
<text x="16" y="297" text-anchor="start" font-family="Courier New, Courier, monospace" font-size="8" fill="#506070" >SRC: YAHOO FINANCE  ·  AUTO-UPDATE 22:00 UTC WEEKDAYS  ·  GITHUB.COM/YANKRUZISKI</text>
<text x="864" y="297" text-anchor="end" font-family="Courier New, Courier, monospace" font-size="8" fill="#506070" >2026-07-07</text>
</svg>