<svg xmlns="http://www.w3.org/2000/svg" width="880" height="302" viewBox="0 0 880 302">
<rect width="880" height="302" fill="#040810"/>
<rect x="0.5" y="0.5" width="879" height="301" fill="none" stroke="#E8A000" stroke-width="0.7" opacity="0.5"/>
<rect x="0" y="0" width="880" height="18" fill="#D87000"/>
<text x="16" y="14" text-anchor="start" font-family="Courier New, Courier, monospace" font-size="9" fill="#030608" font-weight="bold">BLOOMBERG</text>
<text x="88" y="14" text-anchor="start" font-family="Courier New, Courier, monospace" font-size="9" fill="#030608" >QUANT MARKET MONITOR</text>
<text x="440" y="14" text-anchor="middle" font-family="Courier New, Courier, monospace" font-size="9" fill="#030608" >EQUITY  &amp;  VOLATILITY  DASHBOARD</text>
<text x="864" y="14" text-anchor="end" font-family="Courier New, Courier, monospace" font-size="9" fill="#030608" >2026-07-15  22:22 UTC</text>
<line x1="0" y1="38" x2="880" y2="38" stroke="#E8A000" stroke-width="0.8" />
<text x="16" y="33" text-anchor="start" font-family="Courier New, Courier, monospace" font-size="9" fill="#506070" >YAN KRUZISKI  ·  VP OF INTELI RESEARCH  ·  SÃO PAULO, BR</text>
<text x="864" y="33" text-anchor="end" font-family="Courier New, Courier, monospace" font-size="9" fill="#506070" >PAGE 1/1</text>
<rect x="0" y="38" width="880" height="22" fill="#E8A000" opacity="0.14"/>
<text x="16" y="54" text-anchor="start" font-family="Courier New, Courier, monospace" font-size="9" fill="#FFA020" font-weight="bold">TICKER</text>
<text x="72" y="54" text-anchor="start" font-family="Courier New, Courier, monospace" font-size="9" fill="#FFA020" font-weight="bold">DESCRIPTION</text>
<text x="340" y="54" text-anchor="end" font-family="Courier New, Courier, monospace" font-size="9" fill="#FFA020" font-weight="bold">LAST</text>
<text x="420" y="54" text-anchor="end" font-family="Courier New, Courier, monospace" font-size="9" fill="#FFA020" font-weight="bold">%CHG</text>
<text x="500" y="54" text-anchor="end" font-family="Courier New, Courier, monospace" font-size="9" fill="#FFA020" font-weight="bold">YTD%</text>
<text x="690" y="54" text-anchor="middle" font-family="Courier New, Courier, monospace" font-size="9" fill="#FFA020" font-weight="bold">3-MONTH</text>
<line x1="0" y1="60" x2="880" y2="60" stroke="#E8A000" stroke-width="0.9" />
<rect x="0" y="60" width="880" height="32" fill="#E8A000" opacity="0.09"/>
<text x="16" y="80" text-anchor="start" font-family="Courier New, Courier, monospace" font-size="10" fill="#FFA020" font-weight="bold">^VIX</text>
<text x="72" y="80" text-anchor="start" font-family="Courier New, Courier, monospace" font-size="10" fill="#E8A000" font-weight="bold">CBOE VOLATILITY INDEX</text>
<text x="340" y="80" text-anchor="end" font-family="Courier New, Courier, monospace" font-size="11" fill="#D8E8F0" font-weight="bold">15.67</text>
<text x="420" y="80" text-anchor="end" font-family="Courier New, Courier, monospace" font-size="11" fill="#00C878" font-weight="bold">-5.03%</text>
<text x="500" y="80" text-anchor="end" font-family="Courier New, Courier, monospace" font-size="10" fill="#00C878" font-weight="bold">NORMAL</text>
<polyline points="516.0,77.4 521.5,78.1 527.0,79.5 532.6,75.3 538.1,73.3 543.6,75.1 549.1,73.9 554.7,75.7 560.2,77.9 565.7,78.4 571.2,75.4 576.8,81.3 582.3,81.0 587.8,77.0 593.3,79.8 598.9,79.8 604.4,80.7 609.9,80.4 615.4,76.7 621.0,77.9 626.5,78.3 632.0,80.2 637.5,76.6 643.0,78.5 648.6,77.7 654.1,79.6 659.6,81.7 665.1,81.9 670.7,82.2 676.2,80.9 681.7,83.1 687.2,84.8 692.8,86.1 698.3,83.9 703.8,84.7 709.3,83.8 714.9,85.9 720.4,67.2 725.9,75.1 731.4,72.2 737.0,65.0 742.5,73.5 748.0,78.9 753.5,83.4 759.0,82.8 764.6,76.6 770.1,82.8 775.6,80.1 781.1,73.4 786.7,76.0 792.2,75.2 797.7,76.7 803.2,79.0 808.8,82.7 814.3,82.2 819.8,83.6 825.3,85.3 830.9,83.6 836.4,81.3 841.9,84.5 847.4,87.0 853.0,80.5 858.5,82.5 864.0,85.0" fill="none" stroke="#00C878" stroke-width="1.5" stroke-linejoin="round" stroke-linecap="round"/>
<line x1="0" y1="92" x2="880" y2="92" stroke="#E8A000" stroke-width="0.5" />
<rect x="0" y="92" width="880" height="32" fill="#FFFFFF" opacity="0.02"/>
<text x="16" y="112" text-anchor="start" font-family="Courier New, Courier, monospace" font-size="10" fill="#FFA020" font-weight="bold">IBOV</text>
<text x="72" y="112" text-anchor="start" font-family="Courier New, Courier, monospace" font-size="10" fill="#E8A000" >IBOVESPA</text>
<text x="340" y="112" text-anchor="end" font-family="Courier New, Courier, monospace" font-size="11" fill="#D8E8F0" font-weight="bold">176,011</text>
<text x="420" y="112" text-anchor="end" font-family="Courier New, Courier, monospace" font-size="11" fill="#FF3C3C" >-0.36%</text>
<text x="500" y="112" text-anchor="end" font-family="Courier New, Courier, monospace" font-size="11" fill="#00C878" >+9.64%</text>
<polyline points="516.0,97.0 521.6,97.7 527.2,98.5 532.8,98.2 538.5,100.6 544.1,101.7 549.7,102.2 555.3,103.1 560.9,103.8 566.5,106.7 572.1,104.8 577.7,106.1 583.4,105.2 589.0,104.5 594.6,107.8 600.2,107.2 605.8,108.8 611.4,110.0 617.0,112.4 622.6,111.5 628.3,112.3 633.9,112.5 639.5,114.5 645.1,112.2 650.7,112.0 656.3,113.1 661.9,112.2 667.5,112.8 673.2,113.4 678.8,113.9 684.4,114.9 690.0,116.1 695.6,114.6 701.2,117.5 706.8,118.4 712.5,118.7 718.1,117.9 723.7,118.7 729.3,116.6 734.9,116.9 740.5,117.4 746.1,118.0 751.7,118.9 757.4,119.0 763.0,118.8 768.6,117.4 774.2,116.8 779.8,117.3 785.4,116.2 791.0,115.3 796.6,115.3 802.3,116.2 807.9,116.5 813.5,115.6 819.1,114.5 824.7,115.9 830.3,116.2 835.9,117.2 841.5,115.7 847.2,111.8 852.8,113.4 858.4,112.8 864.0,113.2" fill="none" stroke="#FF3C3C" stroke-width="1.5" stroke-linejoin="round" stroke-linecap="round"/>
<line x1="16" y1="124" x2="864" y2="124" stroke="#2A3A4A" stroke-width="0.3" />
<text x="16" y="144" text-anchor="start" font-family="Courier New, Courier, monospace" font-size="10" fill="#FFA020" font-weight="bold">SPY</text>
<text x="72" y="144" text-anchor="start" font-family="Courier New, Courier, monospace" font-size="10" fill="#E8A000" >S&amp;P 500</text>
<text x="340" y="144" text-anchor="end" font-family="Courier New, Courier, monospace" font-size="11" fill="#D8E8F0" font-weight="bold">754.81</text>
<text x="420" y="144" text-anchor="end" font-family="Courier New, Courier, monospace" font-size="11" fill="#00C878" >+0.23%</text>
<text x="500" y="144" text-anchor="end" font-family="Courier New, Courier, monospace" font-size="11" fill="#00C878" >+11.07%</text>
<polyline points="516.0,151.0 521.7,147.8 527.4,148.3 533.1,150.1 538.8,147.4 544.5,148.4 550.2,146.3 555.9,145.9 561.6,147.2 567.3,147.2 573.0,144.5 578.8,143.8 584.5,144.8 590.2,142.6 595.9,138.8 601.6,139.6 607.3,137.3 613.0,136.7 618.7,137.1 624.4,135.6 630.1,133.3 635.8,136.7 641.5,136.9 647.2,138.8 652.9,136.0 658.6,135.4 664.3,134.3 670.0,132.4 675.7,132.5 681.4,130.9 687.1,130.2 692.9,129.4 698.6,129.0 704.3,131.0 710.0,129.9 715.7,137.4 721.4,136.7 727.1,137.6 732.8,142.0 738.5,137.3 744.2,135.8 749.9,130.8 755.6,132.5 761.3,136.1 767.0,133.1 772.7,134.0 778.4,138.2 784.1,138.3 789.8,137.9 795.5,139.9 801.2,135.3 807.0,133.1 812.7,133.5 818.4,133.9 824.1,131.4 829.8,132.8 835.5,133.7 841.2,131.3 846.9,130.0 852.6,132.2 858.3,131.2 864.0,130.1" fill="none" stroke="#00C878" stroke-width="1.5" stroke-linejoin="round" stroke-linecap="round"/>
<line x1="16" y1="156" x2="864" y2="156" stroke="#2A3A4A" stroke-width="0.3" />
<rect x="0" y="156" width="880" height="32" fill="#FFFFFF" opacity="0.02"/>
<text x="16" y="176" text-anchor="start" font-family="Courier New, Courier, monospace" font-size="10" fill="#FFA020" font-weight="bold">QQQ</text>
<text x="72" y="176" text-anchor="start" font-family="Courier New, Courier, monospace" font-size="10" fill="#E8A000" >NASDAQ 100</text>
<text x="340" y="176" text-anchor="end" font-family="Courier New, Courier, monospace" font-size="11" fill="#D8E8F0" font-weight="bold">717.74</text>
<text x="420" y="176" text-anchor="end" font-family="Courier New, Courier, monospace" font-size="11" fill="#FF3C3C" >-0.60%</text>
<text x="500" y="176" text-anchor="end" font-family="Courier New, Courier, monospace" font-size="11" fill="#00C878" >+17.34%</text>
<polyline points="516.0,183.0 521.7,181.3 527.4,181.7 533.1,182.2 538.8,180.0 544.5,180.7 550.2,178.1 555.9,178.1 561.6,179.4 567.3,178.6 573.0,177.3 578.8,176.0 584.5,176.3 590.2,174.4 595.9,171.5 601.6,171.7 607.3,168.3 613.0,167.8 618.7,169.1 624.4,167.5 630.1,166.5 635.8,168.7 641.5,169.4 647.2,170.3 652.9,167.9 658.6,167.6 664.3,167.0 670.0,164.3 675.7,164.5 681.4,163.2 687.1,162.6 692.9,161.7 698.6,161.0 704.3,161.4 710.0,162.2 715.7,169.6 721.4,167.3 727.1,169.0 732.8,171.9 738.5,167.0 744.2,166.2 749.9,161.4 755.6,164.4 761.3,165.9 767.0,162.2 772.7,162.5 778.4,167.6 784.1,168.2 789.8,167.0 795.5,169.1 801.2,165.4 807.0,162.9 812.7,165.2 818.4,167.8 824.1,165.7 829.8,168.5 835.5,168.1 841.2,165.6 846.9,165.1 852.6,168.0 858.3,166.3 864.0,166.8" fill="none" stroke="#FF3C3C" stroke-width="1.5" stroke-linejoin="round" stroke-linecap="round"/>
<line x1="16" y1="188" x2="864" y2="188" stroke="#2A3A4A" stroke-width="0.3" />
<text x="16" y="208" text-anchor="start" font-family="Courier New, Courier, monospace" font-size="10" fill="#FFA020" font-weight="bold">QMOM</text>
<text x="72" y="208" text-anchor="start" font-family="Courier New, Courier, monospace" font-size="10" fill="#E8A000" >QUANT MOMENTUM</text>
<text x="340" y="208" text-anchor="end" font-family="Courier New, Courier, monospace" font-size="11" fill="#D8E8F0" font-weight="bold">75.24</text>
<text x="420" y="208" text-anchor="end" font-family="Courier New, Courier, monospace" font-size="11" fill="#FF3C3C" >-1.21%</text>
<text x="500" y="208" text-anchor="end" font-family="Courier New, Courier, monospace" font-size="11" fill="#00C878" >+13.16%</text>
<polyline points="516.0,211.9 521.7,207.7 527.4,207.5 533.1,210.1 538.8,208.2 544.5,207.4 550.2,207.3 555.9,208.0 561.6,212.9 567.3,215.0 573.0,206.5 578.8,207.1 584.5,206.6 590.2,203.8 595.9,196.6 601.6,204.6 607.3,201.2 613.0,197.8 618.7,199.8 624.4,197.9 630.1,197.5 635.8,204.9 641.5,208.3 647.2,210.9 652.9,206.5 658.6,205.2 664.3,204.4 670.0,198.2 675.7,199.6 681.4,197.7 687.1,196.4 692.9,196.9 698.6,193.0 704.3,193.8 710.0,194.5 715.7,206.2 721.4,204.8 727.1,207.3 732.8,212.3 738.5,202.8 744.2,200.0 749.9,198.5 755.6,200.8 761.3,202.2 767.0,200.8 772.7,196.6 778.4,202.5 784.1,204.5 789.8,200.8 795.5,205.9 801.2,202.7 807.0,201.1 812.7,204.8 818.4,208.9 824.1,207.2 829.8,209.9 835.5,207.3 841.2,206.2 846.9,208.5 852.6,211.3 858.3,208.1 864.0,210.6" fill="none" stroke="#FF3C3C" stroke-width="1.5" stroke-linejoin="round" stroke-linecap="round"/>
<line x1="16" y1="220" x2="864" y2="220" stroke="#2A3A4A" stroke-width="0.3" />
<rect x="0" y="220" width="880" height="32" fill="#FFFFFF" opacity="0.02"/>
<text x="16" y="240" text-anchor="start" font-family="Courier New, Courier, monospace" font-size="10" fill="#FFA020" font-weight="bold">MTUM</text>
<text x="72" y="240" text-anchor="start" font-family="Courier New, Courier, monospace" font-size="10" fill="#E8A000" >MOMENTUM FACTOR</text>
<text x="340" y="240" text-anchor="end" font-family="Courier New, Courier, monospace" font-size="11" fill="#D8E8F0" font-weight="bold">312.67</text>
<text x="420" y="240" text-anchor="end" font-family="Courier New, Courier, monospace" font-size="11" fill="#FF3C3C" >-2.53%</text>
<text x="500" y="240" text-anchor="end" font-family="Courier New, Courier, monospace" font-size="11" fill="#00C878" >+23.96%</text>
<polyline points="516.0,247.0 521.7,245.9 527.4,246.2 533.1,246.8 538.8,245.5 544.5,245.5 550.2,244.0 555.9,244.1 561.6,245.4 567.3,245.0 573.0,243.1 578.8,242.8 584.5,243.0 590.2,241.0 595.9,238.7 601.6,240.2 607.3,237.9 613.0,236.5 618.7,237.5 624.4,236.8 630.1,236.3 635.8,238.9 641.5,240.1 647.2,240.6 652.9,238.5 658.6,237.8 664.3,237.4 670.0,234.3 675.7,234.5 681.4,234.1 687.1,233.8 692.9,233.4 698.6,230.8 704.3,229.7 710.0,230.8 715.7,236.5 721.4,234.0 727.1,235.0 732.8,237.0 738.5,232.8 744.2,231.2 749.9,228.4 755.6,230.6 761.3,230.0 767.0,227.0 772.7,225.0 778.4,229.6 784.1,230.0 789.8,226.7 795.5,230.7 801.2,227.7 807.0,225.7 812.7,230.0 818.4,233.4 824.1,231.9 829.8,234.7 835.5,233.9 841.2,232.1 846.9,231.9 852.6,234.0 858.3,232.5 864.0,234.6" fill="none" stroke="#FF3C3C" stroke-width="1.5" stroke-linejoin="round" stroke-linecap="round"/>
<line x1="16" y1="252" x2="864" y2="252" stroke="#2A3A4A" stroke-width="0.3" />
<text x="16" y="272" text-anchor="start" font-family="Courier New, Courier, monospace" font-size="10" fill="#FFA020" font-weight="bold">QUAL</text>
<text x="72" y="272" text-anchor="start" font-family="Courier New, Courier, monospace" font-size="10" fill="#E8A000" >QUALITY FACTOR</text>
<text x="340" y="272" text-anchor="end" font-family="Courier New, Courier, monospace" font-size="11" fill="#D8E8F0" font-weight="bold">219.80</text>
<text x="420" y="272" text-anchor="end" font-family="Courier New, Courier, monospace" font-size="11" fill="#8A9AAA" >-0.03%</text>
<text x="500" y="272" text-anchor="end" font-family="Courier New, Courier, monospace" font-size="11" fill="#00C878" >+10.78%</text>
<polyline points="516.0,279.0 521.7,275.4 527.4,275.9 533.1,277.4 538.8,275.0 544.5,276.8 550.2,274.7 555.9,275.0 561.6,276.8 567.3,277.0 573.0,274.9 578.8,275.1 584.5,276.5 590.2,274.6 595.9,271.1 601.6,271.9 607.3,270.5 613.0,270.3 618.7,270.6 624.4,269.8 630.1,267.8 635.8,270.5 641.5,269.9 647.2,271.7 652.9,268.0 658.6,267.3 664.3,265.1 670.0,263.1 675.7,263.9 681.4,263.0 687.1,263.5 692.9,262.9 698.6,263.1 704.3,263.3 710.0,261.0 715.7,266.8 721.4,265.8 727.1,265.4 732.8,267.9 738.5,262.9 744.2,261.5 749.9,257.8 755.6,259.8 761.3,264.4 767.0,262.4 772.7,262.5 778.4,266.4 784.1,266.2 789.8,266.1 795.5,265.5 801.2,260.5 807.0,257.5 812.7,258.3 818.4,258.9 824.1,258.8 829.8,259.9 835.5,261.0 841.2,258.8 846.9,257.2 852.6,258.6 858.3,257.8 864.0,257.0" fill="none" stroke="#8A9AAA" stroke-width="1.5" stroke-linejoin="round" stroke-linecap="round"/>
<line x1="16" y1="284" x2="864" y2="284" stroke="#2A3A4A" stroke-width="0.3" />
<line x1="0" y1="284" x2="880" y2="284" stroke="#E8A000" stroke-width="0.4" />
<text x="16" y="297" text-anchor="start" font-family="Courier New, Courier, monospace" font-size="8" fill="#506070" >SRC: YAHOO FINANCE  ·  AUTO-UPDATE 22:00 UTC WEEKDAYS  ·  GITHUB.COM/YANKRUZISKI</text>
<text x="864" y="297" text-anchor="end" font-family="Courier New, Courier, monospace" font-size="8" fill="#506070" >2026-07-15</text>
</svg>