<svg xmlns="http://www.w3.org/2000/svg" width="880" height="302" viewBox="0 0 880 302">
<rect width="880" height="302" fill="#040810"/>
<rect x="0.5" y="0.5" width="879" height="301" fill="none" stroke="#E8A000" stroke-width="0.7" opacity="0.5"/>
<rect x="0" y="0" width="880" height="18" fill="#D87000"/>
<text x="16" y="14" text-anchor="start" font-family="Courier New, Courier, monospace" font-size="9" fill="#030608" font-weight="bold">BLOOMBERG</text>
<text x="88" y="14" text-anchor="start" font-family="Courier New, Courier, monospace" font-size="9" fill="#030608" >QUANT MARKET MONITOR</text>
<text x="440" y="14" text-anchor="middle" font-family="Courier New, Courier, monospace" font-size="9" fill="#030608" >EQUITY  &amp;  VOLATILITY  DASHBOARD</text>
<text x="864" y="14" text-anchor="end" font-family="Courier New, Courier, monospace" font-size="9" fill="#030608" >2026-07-01  22:31 UTC</text>
<line x1="0" y1="38" x2="880" y2="38" stroke="#E8A000" stroke-width="0.8" />
<text x="16" y="33" text-anchor="start" font-family="Courier New, Courier, monospace" font-size="9" fill="#506070" >YAN KRUZISKI  ·  VP OF INTELI RESEARCH  ·  SÃO PAULO, BR</text>
<text x="864" y="33" text-anchor="end" font-family="Courier New, Courier, monospace" font-size="9" fill="#506070" >PAGE 1/1</text>
<rect x="0" y="38" width="880" height="22" fill="#E8A000" opacity="0.14"/>
<text x="16" y="54" text-anchor="start" font-family="Courier New, Courier, monospace" font-size="9" fill="#FFA020" font-weight="bold">TICKER</text>
<text x="72" y="54" text-anchor="start" font-family="Courier New, Courier, monospace" font-size="9" fill="#FFA020" font-weight="bold">DESCRIPTION</text>
<text x="340" y="54" text-anchor="end" font-family="Courier New, Courier, monospace" font-size="9" fill="#FFA020" font-weight="bold">LAST</text>
<text x="420" y="54" text-anchor="end" font-family="Courier New, Courier, monospace" font-size="9" fill="#FFA020" font-weight="bold">%CHG</text>
<text x="500" y="54" text-anchor="end" font-family="Courier New, Courier, monospace" font-size="9" fill="#FFA020" font-weight="bold">YTD%</text>
<text x="690" y="54" text-anchor="middle" font-family="Courier New, Courier, monospace" font-size="9" fill="#FFA020" font-weight="bold">3-MONTH</text>
<line x1="0" y1="60" x2="880" y2="60" stroke="#E8A000" stroke-width="0.9" />
<rect x="0" y="60" width="880" height="32" fill="#E8A000" opacity="0.09"/>
<text x="16" y="80" text-anchor="start" font-family="Courier New, Courier, monospace" font-size="10" fill="#FFA020" font-weight="bold">^VIX</text>
<text x="72" y="80" text-anchor="start" font-family="Courier New, Courier, monospace" font-size="10" fill="#E8A000" font-weight="bold">CBOE VOLATILITY INDEX</text>
<text x="340" y="80" text-anchor="end" font-family="Courier New, Courier, monospace" font-size="11" fill="#D8E8F0" font-weight="bold">16.59</text>
<text x="420" y="80" text-anchor="end" font-family="Courier New, Courier, monospace" font-size="11" fill="#FF3C3C" font-weight="bold">+0.85%</text>
<text x="500" y="80" text-anchor="end" font-family="Courier New, Courier, monospace" font-size="10" fill="#FF3C3C" font-weight="bold">NORMAL</text>
<polyline points="516.0,67.6 521.5,69.0 527.0,68.4 532.6,65.0 538.1,75.0 543.6,78.2 549.1,78.8 554.7,79.0 560.2,80.6 565.7,81.0 571.2,81.5 576.8,82.5 582.3,79.5 587.8,78.2 593.3,79.4 598.9,78.6 604.4,79.9 609.9,81.3 615.4,81.7 621.0,79.7 626.5,83.7 632.0,83.5 637.5,80.8 643.0,82.7 648.6,82.6 654.1,83.3 659.6,83.1 665.1,80.6 670.7,81.4 676.2,81.6 681.7,82.9 687.2,80.5 692.8,81.7 698.3,81.2 703.8,82.5 709.3,84.0 714.9,84.1 720.4,84.3 725.9,83.4 731.4,85.0 737.0,86.1 742.5,87.0 748.0,85.5 753.5,86.1 759.0,85.4 764.6,86.8 770.1,74.0 775.6,79.4 781.1,77.4 786.7,72.5 792.2,78.3 797.7,82.0 803.2,85.1 808.8,84.7 814.3,80.4 819.8,84.7 825.3,82.9 830.9,78.2 836.4,80.0 841.9,79.5 847.4,80.5 853.0,82.1 858.5,84.6 864.0,84.3" fill="none" stroke="#FF3C3C" stroke-width="1.5" stroke-linejoin="round" stroke-linecap="round"/>
<line x1="0" y1="92" x2="880" y2="92" stroke="#E8A000" stroke-width="0.5" />
<rect x="0" y="92" width="880" height="32" fill="#FFFFFF" opacity="0.02"/>
<text x="16" y="112" text-anchor="start" font-family="Courier New, Courier, monospace" font-size="10" fill="#FFA020" font-weight="bold">IBOV</text>
<text x="72" y="112" text-anchor="start" font-family="Courier New, Courier, monospace" font-size="10" fill="#E8A000" >IBOVESPA</text>
<text x="340" y="112" text-anchor="end" font-family="Courier New, Courier, monospace" font-size="11" fill="#D8E8F0" font-weight="bold">171,689</text>
<text x="420" y="112" text-anchor="end" font-family="Courier New, Courier, monospace" font-size="11" fill="#FF3C3C" >-0.20%</text>
<text x="500" y="112" text-anchor="end" font-family="Courier New, Courier, monospace" font-size="11" fill="#00C878" >+6.95%</text>
<polyline points="516.0,104.8 521.7,104.7 527.4,104.6 533.1,104.5 538.8,101.7 544.5,99.6 550.2,98.0 555.9,97.5 561.6,97.0 567.3,97.7 573.0,98.3 578.8,99.1 584.5,98.8 590.2,101.2 595.9,102.3 601.6,102.7 607.3,103.6 613.0,104.3 618.7,107.1 624.4,105.2 630.1,106.5 635.8,105.6 641.5,104.9 647.2,108.2 652.9,107.5 658.6,109.1 664.3,110.3 670.0,112.6 675.7,111.7 681.4,112.5 687.1,112.7 692.9,114.7 698.6,112.4 704.3,112.2 710.0,113.3 715.7,112.4 721.4,113.0 727.1,113.6 732.8,114.1 738.5,115.0 744.2,116.2 749.9,114.7 755.6,117.5 761.3,118.5 767.0,118.7 772.7,117.9 778.4,118.8 784.1,116.7 789.8,116.9 795.5,117.5 801.2,118.0 807.0,118.9 812.7,119.0 818.4,118.8 824.1,117.5 829.8,116.8 835.5,117.4 841.2,116.3 846.9,115.4 852.6,115.4 858.3,116.3 864.0,116.5" fill="none" stroke="#FF3C3C" stroke-width="1.5" stroke-linejoin="round" stroke-linecap="round"/>
<line x1="16" y1="124" x2="864" y2="124" stroke="#2A3A4A" stroke-width="0.3" />
<text x="16" y="144" text-anchor="start" font-family="Courier New, Courier, monospace" font-size="10" fill="#FFA020" font-weight="bold">SPY</text>
<text x="72" y="144" text-anchor="start" font-family="Courier New, Courier, monospace" font-size="10" fill="#E8A000" >S&amp;P 500</text>
<text x="340" y="144" text-anchor="end" font-family="Courier New, Courier, monospace" font-size="11" fill="#D8E8F0" font-weight="bold">745.76</text>
<text x="420" y="144" text-anchor="end" font-family="Courier New, Courier, monospace" font-size="11" fill="#FF3C3C" >-0.07%</text>
<text x="500" y="144" text-anchor="end" font-family="Courier New, Courier, monospace" font-size="11" fill="#00C878" >+9.74%</text>
<polyline points="516.0,151.0 521.7,150.3 527.4,150.3 533.1,146.7 538.8,145.9 544.5,146.0 550.2,144.6 555.9,142.8 561.6,141.6 567.3,141.3 573.0,139.5 578.8,139.8 584.5,140.8 590.2,139.3 595.9,139.8 601.6,138.7 607.3,138.4 613.0,139.2 618.7,139.2 624.4,137.7 630.1,137.3 635.8,137.8 641.5,136.6 647.2,134.5 652.9,134.9 658.6,133.7 664.3,133.3 670.0,133.5 675.7,132.7 681.4,131.4 687.1,133.3 692.9,133.4 698.6,134.5 704.3,132.9 710.0,132.6 715.7,132.0 721.4,130.9 727.1,130.9 732.8,130.1 738.5,129.7 744.2,129.2 749.9,129.0 755.6,130.1 761.3,129.5 767.0,133.7 772.7,133.3 778.4,133.8 784.1,136.2 789.8,133.6 795.5,132.8 801.2,130.0 807.0,131.0 812.7,132.9 818.4,131.3 824.1,131.8 829.8,134.1 835.5,134.2 841.2,134.0 846.9,135.1 852.6,132.5 858.3,131.3 864.0,131.5" fill="none" stroke="#FF3C3C" stroke-width="1.5" stroke-linejoin="round" stroke-linecap="round"/>
<line x1="16" y1="156" x2="864" y2="156" stroke="#2A3A4A" stroke-width="0.3" />
<rect x="0" y="156" width="880" height="32" fill="#FFFFFF" opacity="0.02"/>
<text x="16" y="176" text-anchor="start" font-family="Courier New, Courier, monospace" font-size="10" fill="#FFA020" font-weight="bold">QQQ</text>
<text x="72" y="176" text-anchor="start" font-family="Courier New, Courier, monospace" font-size="10" fill="#E8A000" >NASDAQ 100</text>
<text x="340" y="176" text-anchor="end" font-family="Courier New, Courier, monospace" font-size="11" fill="#D8E8F0" font-weight="bold">725.17</text>
<text x="420" y="176" text-anchor="end" font-family="Courier New, Courier, monospace" font-size="11" fill="#FF3C3C" >-1.51%</text>
<text x="500" y="176" text-anchor="end" font-family="Courier New, Courier, monospace" font-size="11" fill="#00C878" >+18.55%</text>
<polyline points="516.0,183.0 521.7,182.5 527.4,182.5 533.1,180.1 538.8,179.6 544.5,179.4 550.2,178.6 555.9,177.0 561.6,175.8 567.3,175.4 573.0,174.3 578.8,174.6 584.5,174.9 590.2,173.4 595.9,173.9 601.6,172.2 607.3,172.2 613.0,173.1 618.7,172.5 624.4,171.7 630.1,170.8 635.8,171.0 641.5,169.8 647.2,167.9 652.9,168.0 658.6,165.8 664.3,165.5 670.0,166.3 675.7,165.3 681.4,164.6 687.1,166.1 692.9,166.5 698.6,167.1 704.3,165.5 710.0,165.3 715.7,164.9 721.4,163.2 727.1,163.3 732.8,162.4 738.5,162.1 744.2,161.5 749.9,161.0 755.6,161.3 761.3,161.8 767.0,166.6 772.7,165.1 778.4,166.2 784.1,168.2 789.8,165.0 795.5,164.4 801.2,161.3 807.0,163.2 812.7,164.2 818.4,161.8 824.1,162.0 829.8,165.3 835.5,165.7 841.2,165.0 846.9,166.3 852.6,163.9 858.3,162.2 864.0,163.8" fill="none" stroke="#FF3C3C" stroke-width="1.5" stroke-linejoin="round" stroke-linecap="round"/>
<line x1="16" y1="188" x2="864" y2="188" stroke="#2A3A4A" stroke-width="0.3" />
<text x="16" y="208" text-anchor="start" font-family="Courier New, Courier, monospace" font-size="10" fill="#FFA020" font-weight="bold">QMOM</text>
<text x="72" y="208" text-anchor="start" font-family="Courier New, Courier, monospace" font-size="10" fill="#E8A000" >QUANT MOMENTUM</text>
<text x="340" y="208" text-anchor="end" font-family="Courier New, Courier, monospace" font-size="11" fill="#D8E8F0" font-weight="bold">77.35</text>
<text x="420" y="208" text-anchor="end" font-family="Courier New, Courier, monospace" font-size="11" fill="#FF3C3C" >-1.75%</text>
<text x="500" y="208" text-anchor="end" font-family="Courier New, Courier, monospace" font-size="11" fill="#00C878" >+16.34%</text>
<polyline points="516.0,215.0 521.7,214.6 527.4,214.5 533.1,208.3 538.8,207.5 544.5,207.3 550.2,206.0 555.9,204.9 561.6,206.0 567.3,205.6 573.0,202.8 578.8,202.7 584.5,204.4 590.2,203.1 595.9,202.6 601.6,202.5 607.3,203.0 613.0,206.3 618.7,207.6 624.4,202.0 630.1,202.4 635.8,202.0 641.5,200.2 647.2,195.4 652.9,200.8 658.6,198.5 664.3,196.2 670.0,197.5 675.7,196.3 681.4,196.0 687.1,200.9 692.9,203.2 698.6,204.9 704.3,202.0 710.0,201.1 715.7,200.6 721.4,196.4 727.1,197.4 732.8,196.1 738.5,195.3 744.2,195.6 749.9,193.0 755.6,193.5 761.3,194.0 767.0,201.8 772.7,200.8 778.4,202.5 784.1,205.8 789.8,199.5 795.5,197.7 801.2,196.7 807.0,198.2 812.7,199.1 818.4,198.2 824.1,195.4 829.8,199.3 835.5,200.6 841.2,198.2 846.9,201.6 852.6,199.5 858.3,198.4 864.0,200.9" fill="none" stroke="#FF3C3C" stroke-width="1.5" stroke-linejoin="round" stroke-linecap="round"/>
<line x1="16" y1="220" x2="864" y2="220" stroke="#2A3A4A" stroke-width="0.3" />
<rect x="0" y="220" width="880" height="32" fill="#FFFFFF" opacity="0.02"/>
<text x="16" y="240" text-anchor="start" font-family="Courier New, Courier, monospace" font-size="10" fill="#FFA020" font-weight="bold">MTUM</text>
<text x="72" y="240" text-anchor="start" font-family="Courier New, Courier, monospace" font-size="10" fill="#E8A000" >MOMENTUM FACTOR</text>
<text x="340" y="240" text-anchor="end" font-family="Courier New, Courier, monospace" font-size="11" fill="#D8E8F0" font-weight="bold">328.10</text>
<text x="420" y="240" text-anchor="end" font-family="Courier New, Courier, monospace" font-size="11" fill="#FF3C3C" >-4.34%</text>
<text x="500" y="240" text-anchor="end" font-family="Courier New, Courier, monospace" font-size="11" fill="#00C878" >+30.08%</text>
<polyline points="516.0,247.0 521.7,246.6 527.4,246.2 533.1,244.0 538.8,243.3 544.5,243.1 550.2,242.5 555.9,241.6 561.6,241.7 567.3,241.5 573.0,240.7 578.8,240.9 584.5,241.3 590.2,240.4 595.9,240.4 601.6,239.3 607.3,239.3 613.0,240.3 618.7,240.0 624.4,238.6 630.1,238.3 635.8,238.5 641.5,237.0 647.2,235.2 652.9,236.4 658.6,234.7 664.3,233.6 670.0,234.3 675.7,233.9 681.4,233.5 687.1,235.4 692.9,236.3 698.6,236.7 704.3,235.1 710.0,234.6 715.7,234.3 721.4,232.0 727.1,232.1 732.8,231.8 738.5,231.6 744.2,231.3 749.9,229.3 755.6,228.6 761.3,229.4 767.0,233.6 772.7,231.7 778.4,232.5 784.1,234.0 789.8,230.9 795.5,229.7 801.2,227.6 807.0,229.2 812.7,228.7 818.4,226.5 824.1,225.0 829.8,228.4 835.5,228.7 841.2,226.3 846.9,229.3 852.6,227.0 858.3,225.5 864.0,228.8" fill="none" stroke="#FF3C3C" stroke-width="1.5" stroke-linejoin="round" stroke-linecap="round"/>
<line x1="16" y1="252" x2="864" y2="252" stroke="#2A3A4A" stroke-width="0.3" />
<text x="16" y="272" text-anchor="start" font-family="Courier New, Courier, monospace" font-size="10" fill="#FFA020" font-weight="bold">QUAL</text>
<text x="72" y="272" text-anchor="start" font-family="Courier New, Courier, monospace" font-size="10" fill="#E8A000" >QUALITY FACTOR</text>
<text x="340" y="272" text-anchor="end" font-family="Courier New, Courier, monospace" font-size="11" fill="#D8E8F0" font-weight="bold">218.87</text>
<text x="420" y="272" text-anchor="end" font-family="Courier New, Courier, monospace" font-size="11" fill="#FF3C3C" >-0.77%</text>
<text x="500" y="272" text-anchor="end" font-family="Courier New, Courier, monospace" font-size="11" fill="#00C878" >+10.31%</text>
<polyline points="516.0,279.0 521.7,278.3 527.4,278.8 533.1,274.2 538.8,273.1 544.5,273.8 550.2,272.3 555.9,270.7 561.6,269.7 567.3,269.8 573.0,267.6 578.8,267.9 584.5,268.9 590.2,267.4 595.9,268.5 601.6,267.2 607.3,267.4 613.0,268.5 618.7,268.6 624.4,267.4 630.1,267.4 635.8,268.3 641.5,267.2 647.2,265.1 652.9,265.5 658.6,264.7 664.3,264.6 670.0,264.8 675.7,264.3 681.4,263.1 687.1,264.7 692.9,264.3 698.6,265.5 704.3,263.3 710.0,262.8 715.7,261.5 721.4,260.3 727.1,260.8 732.8,260.3 738.5,260.6 744.2,260.2 749.9,260.3 755.6,260.5 761.3,259.1 767.0,262.5 772.7,261.9 778.4,261.7 784.1,263.2 789.8,260.2 795.5,259.4 801.2,257.2 807.0,258.4 812.7,261.1 818.4,259.9 824.1,260.0 829.8,262.3 835.5,262.2 841.2,262.1 846.9,261.8 852.6,258.8 858.3,257.0 864.0,257.5" fill="none" stroke="#FF3C3C" stroke-width="1.5" stroke-linejoin="round" stroke-linecap="round"/>
<line x1="16" y1="284" x2="864" y2="284" stroke="#2A3A4A" stroke-width="0.3" />
<line x1="0" y1="284" x2="880" y2="284" stroke="#E8A000" stroke-width="0.4" />
<text x="16" y="297" text-anchor="start" font-family="Courier New, Courier, monospace" font-size="8" fill="#506070" >SRC: YAHOO FINANCE  ·  AUTO-UPDATE 22:00 UTC WEEKDAYS  ·  GITHUB.COM/YANKRUZISKI</text>
<text x="864" y="297" text-anchor="end" font-family="Courier New, Courier, monospace" font-size="8" fill="#506070" >2026-07-01</text>
</svg>